<svg xmlns="http://www.w3.org/2000/svg" xmlns:xlink="http://www.w3.org/1999/xlink" width="794" zoomAndPan="magnify" viewBox="0 0 594.95996 842.24997" height="1123" preserveAspectRatio="xMidYMid meet" version="1.0"><defs><clipPath id="55db711e8d"><path d="M 66 296 L 534 296 L 534 550.792969 L 66 550.792969 Z M 66 296 " clip-rule="nonzero"/></clipPath></defs><g clip-path="url(#55db711e8d)"><path fill="#f5f4f4" d="M 393.503906 550.570312 L 205.980469 550.570312 C 203.96875 550.570312 201.964844 550.441406 199.96875 550.179688 C 197.972656 549.917969 196 549.527344 194.054688 549.007812 C 192.109375 548.488281 190.207031 547.84375 188.347656 547.078125 C 186.488281 546.308594 184.683594 545.421875 182.941406 544.417969 C 181.199219 543.410156 179.527344 542.296875 177.929688 541.074219 C 176.332031 539.851562 174.820312 538.527344 173.398438 537.105469 C 171.972656 535.683594 170.648438 534.175781 169.421875 532.582031 C 168.195312 530.984375 167.082031 529.316406 166.074219 527.574219 L 72.304688 365.375 C 71.550781 364.070312 70.863281 362.730469 70.242188 361.355469 C 69.621094 359.984375 69.066406 358.585938 68.585938 357.15625 C 68.101562 355.730469 67.6875 354.285156 67.34375 352.816406 C 67.003906 351.347656 66.734375 349.867188 66.539062 348.375 C 66.34375 346.878906 66.21875 345.378906 66.171875 343.875 C 66.125 342.367188 66.148438 340.863281 66.25 339.359375 C 66.347656 337.855469 66.519531 336.363281 66.765625 334.875 C 67.015625 333.390625 67.332031 331.917969 67.722656 330.460938 C 68.117188 329.007812 68.578125 327.574219 69.109375 326.164062 C 69.640625 324.753906 70.242188 323.375 70.910156 322.023438 C 71.578125 320.671875 72.308594 319.359375 73.105469 318.078125 C 73.902344 316.800781 74.761719 315.5625 75.679688 314.367188 C 76.597656 313.171875 77.574219 312.027344 78.605469 310.925781 C 79.636719 309.828125 80.722656 308.78125 81.855469 307.789062 C 82.992188 306.792969 84.171875 305.859375 85.398438 304.984375 C 86.625 304.105469 87.890625 303.289062 89.199219 302.539062 C 90.503906 301.785156 91.84375 301.097656 93.21875 300.476562 C 94.59375 299.855469 95.996094 299.300781 97.425781 298.816406 C 98.851562 298.332031 100.300781 297.921875 101.769531 297.578125 C 103.238281 297.238281 104.722656 296.96875 106.21875 296.773438 C 107.714844 296.574219 109.214844 296.453125 110.722656 296.402344 C 112.230469 296.355469 113.738281 296.378906 115.242188 296.480469 C 116.75 296.578125 118.246094 296.75 119.734375 296.996094 C 121.222656 297.242188 122.695312 297.558594 124.152344 297.949219 C 125.609375 298.339844 127.042969 298.800781 128.457031 299.332031 C 129.867188 299.863281 131.25 300.460938 132.605469 301.128906 C 133.957031 301.792969 135.273438 302.523438 136.554688 303.320312 C 137.835938 304.117188 139.074219 304.972656 140.269531 305.890625 C 141.46875 306.808594 142.617188 307.78125 143.71875 308.8125 C 144.820312 309.839844 145.867188 310.921875 146.863281 312.054688 C 147.855469 313.1875 148.792969 314.367188 149.671875 315.589844 C 150.550781 316.816406 151.367188 318.082031 152.121094 319.386719 L 232.582031 458.578125 L 366.933594 458.578125 L 447.378906 319.386719 C 448.132812 318.078125 448.949219 316.8125 449.828125 315.585938 C 450.703125 314.359375 451.640625 313.179688 452.636719 312.042969 C 453.628906 310.910156 454.675781 309.828125 455.777344 308.796875 C 456.878906 307.761719 458.027344 306.789062 459.226562 305.871094 C 460.421875 304.949219 461.660156 304.09375 462.941406 303.292969 C 464.222656 302.496094 465.539062 301.765625 466.894531 301.097656 C 468.246094 300.429688 469.628906 299.828125 471.042969 299.296875 C 472.457031 298.765625 473.890625 298.304688 475.347656 297.910156 C 476.808594 297.519531 478.28125 297.203125 479.769531 296.953125 C 481.257812 296.707031 482.757812 296.535156 484.265625 296.4375 C 485.769531 296.335938 487.277344 296.3125 488.785156 296.359375 C 490.296875 296.40625 491.796875 296.53125 493.296875 296.726562 C 494.792969 296.921875 496.277344 297.191406 497.746094 297.53125 C 499.21875 297.875 500.667969 298.289062 502.097656 298.769531 C 503.527344 299.253906 504.929688 299.808594 506.304688 300.429688 C 507.679688 301.050781 509.019531 301.738281 510.328125 302.492188 C 511.636719 303.246094 512.902344 304.0625 514.132812 304.941406 C 515.359375 305.816406 516.539062 306.753906 517.675781 307.746094 C 518.8125 308.742188 519.894531 309.789062 520.925781 310.890625 C 521.960938 311.988281 522.933594 313.136719 523.855469 314.332031 C 524.773438 315.53125 525.632812 316.765625 526.429688 318.046875 C 527.226562 319.328125 527.957031 320.644531 528.625 321.996094 C 529.292969 323.347656 529.894531 324.730469 530.425781 326.140625 C 530.957031 327.554688 531.417969 328.988281 531.808594 330.441406 C 532.199219 331.898438 532.519531 333.371094 532.765625 334.859375 C 533.007812 336.347656 533.183594 337.84375 533.28125 339.347656 C 533.378906 340.851562 533.402344 342.359375 533.351562 343.863281 C 533.304688 345.371094 533.179688 346.871094 532.984375 348.367188 C 532.785156 349.863281 532.515625 351.34375 532.171875 352.8125 C 531.828125 354.28125 531.414062 355.726562 530.929688 357.15625 C 530.441406 358.582031 529.886719 359.984375 529.265625 361.355469 C 528.640625 362.730469 527.949219 364.070312 527.195312 365.375 L 433.441406 527.5625 C 432.4375 529.304688 431.320312 530.972656 430.09375 532.570312 C 428.867188 534.167969 427.539062 535.675781 426.117188 537.101562 C 424.691406 538.523438 423.179688 539.847656 421.582031 541.070312 C 419.980469 542.296875 418.308594 543.410156 416.5625 544.417969 C 414.820312 545.421875 413.015625 546.308594 411.152344 547.078125 C 409.292969 547.847656 407.386719 548.492188 405.441406 549.011719 C 403.492188 549.53125 401.519531 549.921875 399.523438 550.183594 C 397.523438 550.445312 395.519531 550.574219 393.503906 550.570312 Z M 393.503906 550.570312 " fill-opacity="1" fill-rule="nonzero"/></g><path fill="#428dcc" d="M 113.542969 341.628906 L 122.753906 357.558594 L 120.09375 359.09375 L 110.882812 343.164062 Z M 131.964844 373.488281 L 141.171875 389.421875 L 138.515625 390.953125 L 129.304688 375.023438 Z M 150.382812 405.351562 L 159.59375 421.28125 L 156.9375 422.816406 L 147.726562 406.882812 Z M 168.804688 437.210938 L 178.015625 453.140625 L 175.355469 454.675781 L 166.144531 438.746094 Z M 187.226562 469.074219 L 196.433594 485.003906 L 193.777344 486.535156 L 184.566406 470.605469 Z M 205.644531 500.933594 L 207.3125 503.816406 L 205.980469 504.582031 L 205.980469 503.050781 L 221.070312 503.050781 L 221.070312 506.113281 L 205.097656 506.113281 L 202.988281 502.46875 Z M 239.488281 503.050781 L 257.90625 503.050781 L 257.90625 506.113281 L 239.488281 506.113281 Z M 276.328125 503.050781 L 294.746094 503.050781 L 294.746094 506.113281 L 276.328125 506.113281 Z M 313.164062 503.050781 L 331.585938 503.050781 L 331.585938 506.113281 L 313.164062 506.113281 Z M 350.003906 503.050781 L 368.421875 503.050781 L 368.421875 506.113281 L 350.003906 506.113281 Z M 386.839844 503.050781 L 393.503906 503.050781 L 393.503906 504.582031 L 392.175781 503.816406 L 398.050781 493.648438 L 400.710938 495.179688 L 394.390625 506.113281 L 386.839844 506.113281 Z M 407.261719 477.714844 L 416.46875 461.785156 L 419.128906 463.316406 L 409.917969 479.246094 Z M 425.679688 445.851562 L 434.886719 429.921875 L 437.546875 431.453125 L 428.335938 447.386719 Z M 444.09375 413.988281 L 453.304688 398.058594 L 455.960938 399.589844 L 446.753906 415.523438 Z M 462.511719 382.125 L 471.722656 366.195312 L 474.378906 367.726562 L 465.171875 383.660156 Z M 462.511719 382.125 " fill-opacity="1" fill-rule="nonzero"/><path fill="#428dcc" d="M 487.257812 372.960938 L 487.257812 342.394531 L 460.75 357.679688 Z M 487.257812 372.960938 " fill-opacity="1" fill-rule="nonzero"/><path fill="#428dcc" d="M 123.265625 331.21875 C 123.789062 332.28125 124.53125 333.15625 125.488281 333.851562 C 126.445312 334.546875 127.511719 334.976562 128.683594 335.144531 C 129.347656 335.238281 129.988281 335.425781 130.601562 335.699219 C 131.214844 335.972656 131.78125 336.324219 132.296875 336.757812 C 132.808594 337.191406 133.253906 337.6875 133.628906 338.242188 C 134.003906 338.800781 134.296875 339.398438 134.503906 340.039062 C 134.710938 340.675781 134.824219 341.332031 134.847656 342.003906 C 134.871094 342.671875 134.800781 343.335938 134.636719 343.988281 C 134.476562 344.636719 134.226562 345.253906 133.890625 345.835938 C 133.550781 346.417969 133.144531 346.941406 132.660156 347.410156 C 131.824219 348.234375 131.230469 349.210938 130.871094 350.328125 C 130.515625 351.445312 130.433594 352.582031 130.632812 353.738281 C 130.746094 354.398438 130.765625 355.0625 130.691406 355.726562 C 130.621094 356.390625 130.457031 357.035156 130.203125 357.652344 C 129.953125 358.273438 129.617188 358.84375 129.203125 359.371094 C 128.792969 359.898438 128.3125 360.359375 127.773438 360.75 C 127.230469 361.144531 126.644531 361.457031 126.015625 361.683594 C 125.386719 361.914062 124.738281 362.054688 124.070312 362.101562 C 123.402344 362.148438 122.738281 362.105469 122.082031 361.96875 C 121.429688 361.832031 120.804688 361.609375 120.210938 361.296875 C 119.167969 360.746094 118.054688 360.46875 116.871094 360.46875 C 115.691406 360.46875 114.578125 360.746094 113.535156 361.296875 C 112.9375 361.625 112.3125 361.859375 111.648438 362.007812 C 110.988281 362.15625 110.316406 362.210938 109.640625 362.171875 C 108.964844 362.128906 108.304688 361.996094 107.667969 361.769531 C 107.027344 361.542969 106.433594 361.230469 105.882812 360.835938 C 105.332031 360.441406 104.847656 359.976562 104.425781 359.445312 C 104.007812 358.910156 103.671875 358.332031 103.417969 357.703125 C 103.160156 357.074219 103 356.425781 102.929688 355.75 C 102.859375 355.078125 102.882812 354.40625 103.003906 353.738281 C 103.199219 352.574219 103.117188 351.429688 102.75 350.304688 C 102.382812 349.179688 101.777344 348.203125 100.933594 347.378906 C 100.449219 346.910156 100.039062 346.386719 99.703125 345.804688 C 99.363281 345.222656 99.117188 344.609375 98.953125 343.957031 C 98.789062 343.304688 98.71875 342.644531 98.742188 341.972656 C 98.765625 341.300781 98.878906 340.644531 99.085938 340.007812 C 99.292969 339.367188 99.585938 338.769531 99.960938 338.210938 C 100.335938 337.65625 100.78125 337.160156 101.296875 336.726562 C 101.808594 336.296875 102.375 335.941406 102.988281 335.667969 C 103.601562 335.394531 104.242188 335.207031 104.90625 335.113281 C 106.078125 334.945312 107.144531 334.515625 108.101562 333.820312 C 109.058594 333.125 109.800781 332.25 110.324219 331.191406 C 110.621094 330.582031 110.992188 330.027344 111.445312 329.527344 C 111.898438 329.023438 112.410156 328.59375 112.984375 328.238281 C 113.554688 327.878906 114.167969 327.609375 114.816406 327.421875 C 115.464844 327.238281 116.128906 327.148438 116.804688 327.148438 C 117.480469 327.148438 118.144531 327.246094 118.792969 327.433594 C 119.441406 327.621094 120.050781 327.894531 120.621094 328.253906 C 121.191406 328.617188 121.703125 329.046875 122.152344 329.550781 C 122.601562 330.054688 122.972656 330.613281 123.265625 331.21875 Z M 123.265625 331.21875 " fill-opacity="1" fill-rule="nonzero"/></svg>