<svg xmlns="http://www.w3.org/2000/svg" xmlns:xlink="http://www.w3.org/1999/xlink" width="1200" zoomAndPan="magnify" viewBox="0 0 900 899.99999" height="1200" preserveAspectRatio="xMidYMid meet" version="1.0"><defs><clipPath id="487cb7dec2"><path d="M 118.777344 116.675781 L 793.777344 116.675781 L 793.777344 791.675781 L 118.777344 791.675781 Z M 118.777344 116.675781 " clip-rule="nonzero"/></clipPath><clipPath id="9139d52748"><path d="M 206.25 210.425781 L 693.75 210.425781 L 693.75 697.925781 L 206.25 697.925781 Z M 206.25 210.425781 " clip-rule="nonzero"/></clipPath><clipPath id="3c43276511"><path d="M 140.769531 159.941406 L 182.015625 159.941406 L 182.015625 186.734375 L 140.769531 186.734375 Z M 140.769531 159.941406 " clip-rule="nonzero"/></clipPath><clipPath id="0099d930dd"><path d="M 155.769531 721.933594 L 182.558594 721.933594 L 182.558594 763.175781 L 155.769531 763.175781 Z M 155.769531 721.933594 " clip-rule="nonzero"/></clipPath><clipPath id="a2a19cfbca"><path d="M 717.761719 721.609375 L 759.003906 721.609375 L 759.003906 748.402344 L 717.761719 748.402344 Z M 717.761719 721.609375 " clip-rule="nonzero"/></clipPath><clipPath id="e4aa8b4fe6"><path d="M 732.414062 137.667969 L 759.207031 137.667969 L 759.207031 178.910156 L 732.414062 178.910156 Z M 732.414062 137.667969 " clip-rule="nonzero"/></clipPath></defs><g clip-path="url(#487cb7dec2)"><path stroke-linecap="butt" transform="matrix(0.75, 0, 0, 0.75, 118.779066, 116.676086)" fill="none" stroke-linejoin="miter" d="M -0.00229605 -0.000406192 L 899.997751 -0.000406192 L 899.997751 899.999641 L -0.00229605 899.999641 Z M -0.00229605 -0.000406192 " stroke="#000000" stroke-width="16" stroke-opacity="1" stroke-miterlimit="4"/></g><g clip-path="url(#9139d52748)"><path stroke-linecap="butt" transform="matrix(0.75, 0, 0, 0.75, 206.249994, 210.426103)" fill="none" stroke-linejoin="miter" d="M 0.00000799167 -0.00042845 L 650.000042 -0.00042845 L 650.000042 649.999606 L 0.00000799167 649.999606 Z M 0.00000799167 -0.00042845 " stroke="#000000" stroke-width="16" stroke-opacity="1" stroke-miterlimit="4"/></g><g clip-path="url(#3c43276511)"><path fill="#f1a131" d="M 162.871094 185.988281 L 181.535156 163.296875 C 182.9375 161.585938 181.003906 159.175781 179.03125 160.175781 L 162.222656 168.714844 C 161.640625 169.011719 160.953125 169.011719 160.371094 168.714844 L 143.558594 160.175781 C 141.585938 159.175781 139.652344 161.585938 141.058594 163.292969 L 159.71875 185.988281 C 160.535156 186.980469 162.054688 186.980469 162.871094 185.988281 " fill-opacity="1" fill-rule="nonzero"/></g><path fill="#f1a131" d="M 155.296875 697.925781 L 155.296875 661.925781 L 167.296875 661.925781 L 167.296875 697.925781 M 155.296875 649.925781 L 155.296875 613.925781 L 167.296875 613.925781 L 167.296875 649.925781 M 155.296875 601.925781 L 155.296875 565.925781 L 167.296875 565.925781 L 167.296875 601.925781 M 155.296875 553.925781 L 155.296875 517.925781 L 167.296875 517.925781 L 167.296875 553.925781 M 155.296875 505.925781 L 155.296875 469.925781 L 167.296875 469.925781 L 167.296875 505.925781 M 155.296875 457.925781 L 155.296875 421.925781 L 167.296875 421.925781 L 167.296875 457.925781 M 155.296875 409.925781 L 155.296875 373.925781 L 167.296875 373.925781 L 167.296875 409.925781 M 155.296875 361.925781 L 155.296875 325.925781 L 167.296875 325.925781 L 167.296875 361.925781 M 155.296875 313.925781 L 155.296875 277.925781 L 167.296875 277.925781 L 167.296875 313.925781 M 155.296875 265.925781 L 155.296875 229.925781 L 167.296875 229.925781 L 167.296875 265.925781 M 155.296875 217.925781 L 155.296875 202.90625 L 167.296875 202.90625 L 167.296875 217.925781 " fill-opacity="1" fill-rule="nonzero"/><g clip-path="url(#0099d930dd)"><path fill="#f1a131" d="M 181.8125 741.074219 L 159.121094 722.414062 C 157.414062 721.007812 155.003906 722.945312 156.003906 724.914062 L 164.542969 741.726562 C 164.839844 742.304688 164.839844 742.992188 164.542969 743.574219 L 156.003906 760.386719 C 155 762.359375 157.414062 764.292969 159.121094 762.890625 L 181.8125 744.226562 C 182.808594 743.410156 182.808594 741.890625 181.8125 741.074219 " fill-opacity="1" fill-rule="nonzero"/></g><path fill="#f1a131" d="M 693.746094 748.65625 L 657.746094 748.65625 L 657.746094 736.65625 L 693.746094 736.65625 M 645.746094 748.65625 L 609.746094 748.65625 L 609.746094 736.65625 L 645.746094 736.65625 M 597.746094 748.65625 L 561.746094 748.65625 L 561.746094 736.65625 L 597.746094 736.65625 M 549.746094 748.65625 L 513.746094 748.65625 L 513.746094 736.65625 L 549.746094 736.65625 M 501.746094 748.65625 L 465.746094 748.65625 L 465.746094 736.65625 L 501.746094 736.65625 M 453.746094 748.65625 L 417.746094 748.65625 L 417.746094 736.65625 L 453.746094 736.65625 M 405.746094 748.65625 L 369.746094 748.65625 L 369.746094 736.65625 L 405.746094 736.65625 M 357.746094 748.65625 L 321.746094 748.65625 L 321.746094 736.65625 L 357.746094 736.65625 M 309.746094 748.65625 L 273.746094 748.65625 L 273.746094 736.65625 L 309.746094 736.65625 M 261.746094 748.65625 L 225.746094 748.65625 L 225.746094 736.65625 L 261.746094 736.65625 M 213.746094 748.65625 L 198.730469 748.65625 L 198.730469 736.65625 L 213.746094 736.65625 " fill-opacity="1" fill-rule="nonzero"/><g clip-path="url(#a2a19cfbca)"><path fill="#f1a131" d="M 736.902344 722.355469 L 718.238281 745.046875 C 716.835938 746.757812 718.769531 749.167969 720.742188 748.164062 L 737.550781 739.625 C 738.132812 739.332031 738.820312 739.332031 739.402344 739.625 L 756.214844 748.164062 C 758.1875 749.167969 760.121094 746.757812 758.714844 745.046875 L 740.054688 722.355469 C 739.238281 721.363281 737.71875 721.363281 736.902344 722.355469 " fill-opacity="1" fill-rule="nonzero"/></g><path fill="#f1a131" d="M 744.476562 210.429688 L 744.476562 246.429688 L 732.476562 246.429688 L 732.476562 210.429688 M 744.476562 258.429688 L 744.476562 294.429688 L 732.476562 294.429688 L 732.476562 258.429688 M 744.476562 306.429688 L 744.476562 342.429688 L 732.476562 342.429688 L 732.476562 306.429688 M 744.476562 354.429688 L 744.476562 390.429688 L 732.476562 390.429688 L 732.476562 354.429688 M 744.476562 402.429688 L 744.476562 438.429688 L 732.476562 438.429688 L 732.476562 402.429688 M 744.476562 450.429688 L 744.476562 486.429688 L 732.476562 486.429688 L 732.476562 450.429688 M 744.476562 498.429688 L 744.476562 534.429688 L 732.476562 534.429688 L 732.476562 498.429688 M 744.476562 546.429688 L 744.476562 582.429688 L 732.476562 582.429688 L 732.476562 546.429688 M 744.476562 594.429688 L 744.476562 630.429688 L 732.476562 630.429688 L 732.476562 594.429688 M 744.476562 642.429688 L 744.476562 678.429688 L 732.476562 678.429688 L 732.476562 642.429688 M 744.476562 690.429688 L 744.476562 705.445312 L 732.476562 705.445312 L 732.476562 690.429688 " fill-opacity="1" fill-rule="nonzero"/><g clip-path="url(#e4aa8b4fe6)"><path fill="#f1a131" d="M 733.160156 159.769531 L 755.851562 178.429688 C 757.558594 179.832031 759.96875 177.898438 758.96875 175.925781 L 750.429688 159.117188 C 750.136719 158.535156 750.136719 157.851562 750.429688 157.269531 L 758.96875 140.453125 C 759.972656 138.480469 757.5625 136.546875 755.851562 137.953125 L 733.160156 156.613281 C 732.164062 157.429688 732.164062 158.949219 733.160156 159.769531 " fill-opacity="1" fill-rule="nonzero"/></g><path fill="#f1a131" d="M 221.226562 152.195312 L 257.226562 152.195312 L 257.226562 164.195312 L 221.226562 164.195312 M 269.226562 152.195312 L 305.226562 152.195312 L 305.226562 164.195312 L 269.226562 164.195312 M 317.226562 152.195312 L 353.226562 152.195312 L 353.226562 164.195312 L 317.226562 164.195312 M 365.226562 152.195312 L 401.226562 152.195312 L 401.226562 164.195312 L 365.226562 164.195312 M 413.226562 152.195312 L 449.226562 152.195312 L 449.226562 164.195312 L 413.226562 164.195312 M 461.226562 152.195312 L 497.226562 152.195312 L 497.226562 164.195312 L 461.226562 164.195312 M 509.226562 152.195312 L 545.226562 152.195312 L 545.226562 164.195312 L 509.226562 164.195312 M 557.226562 152.195312 L 593.226562 152.195312 L 593.226562 164.195312 L 557.226562 164.195312 M 605.226562 152.195312 L 641.226562 152.195312 L 641.226562 164.195312 L 605.226562 164.195312 M 653.226562 152.195312 L 689.226562 152.195312 L 689.226562 164.195312 L 653.226562 164.195312 M 701.226562 152.195312 L 716.242188 152.195312 L 716.242188 164.195312 L 701.226562 164.195312 " fill-opacity="1" fill-rule="nonzero"/></svg>