<svg xmlns="http://www.w3.org/2000/svg" xmlns:xlink="http://www.w3.org/1999/xlink" width="794" zoomAndPan="magnify" viewBox="0 0 594.95996 842.24997" height="1123" preserveAspectRatio="xMidYMid meet" version="1.0"><path fill="#f5f4f4" d="M 487.886719 261.367188 C 486.339844 259.824219 484.757812 258.316406 483.140625 256.84375 C 481.523438 255.375 479.871094 253.941406 478.183594 252.550781 C 476.5 251.160156 474.78125 249.808594 473.027344 248.5 C 471.277344 247.1875 469.496094 245.921875 467.6875 244.695312 C 465.875 243.46875 464.039062 242.289062 462.171875 241.152344 C 460.304688 240.011719 458.410156 238.917969 456.492188 237.871094 C 454.570312 236.824219 452.628906 235.820312 450.664062 234.867188 C 448.695312 233.910156 446.707031 233.003906 444.695312 232.140625 C 442.6875 231.28125 440.65625 230.464844 438.609375 229.703125 C 436.5625 228.9375 434.496094 228.222656 432.414062 227.554688 C 430.328125 226.890625 428.234375 226.273438 426.121094 225.707031 C 424.007812 225.136719 421.882812 224.621094 419.746094 224.15625 C 417.609375 223.691406 415.464844 223.277344 413.308594 222.910156 C 411.152344 222.546875 408.988281 222.234375 406.816406 221.972656 C 404.644531 221.714844 402.46875 221.503906 400.289062 221.347656 C 398.109375 221.1875 395.921875 221.082031 393.738281 221.03125 C 391.550781 220.976562 389.367188 220.972656 387.179688 221.023438 C 384.992188 221.074219 382.808594 221.175781 380.628906 221.332031 C 378.445312 221.484375 376.269531 221.691406 374.097656 221.945312 C 371.925781 222.203125 369.761719 222.511719 367.605469 222.875 C 365.449219 223.234375 363.300781 223.644531 361.164062 224.109375 C 359.027344 224.570312 356.902344 225.082031 354.789062 225.644531 C 352.675781 226.210938 350.578125 226.824219 348.492188 227.484375 C 346.410156 228.148438 344.34375 228.859375 342.292969 229.621094 C 340.242188 230.382812 338.210938 231.191406 336.199219 232.050781 C 334.191406 232.910156 332.199219 233.8125 330.230469 234.765625 C 328.261719 235.71875 326.320312 236.71875 324.398438 237.761719 C 322.476562 238.808594 320.582031 239.898438 318.714844 241.03125 C 316.84375 242.167969 315.003906 243.34375 313.191406 244.566406 C 311.378906 245.789062 309.59375 247.054688 307.84375 248.363281 C 306.089844 249.667969 304.367188 251.015625 302.679688 252.40625 C 300.992188 253.796875 299.335938 255.222656 297.714844 256.691406 C 296.066406 255.207031 294.386719 253.761719 292.667969 252.359375 C 290.949219 250.957031 289.199219 249.59375 287.414062 248.273438 C 285.632812 246.957031 283.816406 245.679688 281.972656 244.449219 C 280.128906 243.21875 278.253906 242.03125 276.351562 240.890625 C 274.449219 239.75 272.519531 238.652344 270.566406 237.605469 C 268.609375 236.558594 266.632812 235.558594 264.628906 234.605469 C 262.625 233.652344 260.597656 232.746094 258.550781 231.894531 C 256.503906 231.039062 254.4375 230.234375 252.351562 229.476562 C 250.265625 228.722656 248.164062 228.015625 246.042969 227.363281 C 243.921875 226.707031 241.789062 226.105469 239.640625 225.554688 C 237.492188 225.003906 235.328125 224.503906 233.15625 224.058594 C 230.984375 223.613281 228.800781 223.21875 226.609375 222.875 C 224.417969 222.535156 222.21875 222.246094 220.011719 222.007812 C 217.804688 221.773438 215.59375 221.59375 213.378906 221.464844 C 211.164062 221.332031 208.949219 221.257812 206.730469 221.234375 C 204.511719 221.214844 202.292969 221.246094 200.078125 221.332031 C 197.859375 221.414062 195.644531 221.554688 193.4375 221.746094 C 191.226562 221.9375 189.019531 222.179688 186.824219 222.480469 C 184.625 222.777344 182.433594 223.128906 180.253906 223.53125 C 178.070312 223.933594 175.898438 224.390625 173.742188 224.898438 C 171.582031 225.40625 169.433594 225.96875 167.300781 226.578125 C 165.171875 227.191406 163.054688 227.851562 160.953125 228.566406 C 158.851562 229.28125 156.769531 230.042969 154.707031 230.859375 C 152.644531 231.671875 150.601562 232.535156 148.578125 233.449219 C 146.554688 234.363281 144.558594 235.324219 142.582031 236.332031 C 140.605469 237.339844 138.65625 238.398438 136.730469 239.5 C 134.804688 240.601562 132.910156 241.753906 131.039062 242.945312 C 129.171875 244.140625 127.332031 245.378906 125.523438 246.664062 C 123.710938 247.945312 121.933594 249.273438 120.191406 250.640625 C 118.445312 252.011719 116.734375 253.421875 115.054688 254.871094 C 113.378906 256.324219 111.738281 257.816406 110.132812 259.347656 C 108.527344 260.875 106.957031 262.445312 105.429688 264.050781 C 103.898438 265.65625 102.410156 267.300781 100.957031 268.976562 C 99.507812 270.65625 98.097656 272.367188 96.730469 274.113281 C 95.363281 275.859375 94.039062 277.636719 92.757812 279.449219 C 91.476562 281.257812 90.238281 283.097656 89.042969 284.96875 C 87.851562 286.835938 86.703125 288.734375 85.601562 290.660156 C 84.5 292.585938 83.445312 294.535156 82.4375 296.511719 C 81.429688 298.484375 80.472656 300.484375 79.5625 302.507812 C 78.648438 304.53125 77.789062 306.570312 76.976562 308.636719 C 76.164062 310.699219 75.402344 312.78125 74.6875 314.882812 C 73.976562 316.980469 73.316406 319.097656 72.707031 321.230469 C 72.097656 323.363281 71.539062 325.507812 71.03125 327.667969 C 70.527344 329.828125 70.074219 331.996094 69.671875 334.179688 C 69.269531 336.359375 68.921875 338.546875 68.625 340.746094 C 68.328125 342.945312 68.085938 345.148438 67.898438 347.355469 C 67.707031 349.566406 67.574219 351.78125 67.488281 353.996094 C 67.40625 356.210938 67.378906 358.429688 67.402344 360.644531 C 67.425781 362.863281 67.503906 365.078125 67.636719 367.292969 C 67.765625 369.507812 67.953125 371.714844 68.191406 373.921875 C 68.429688 376.125 68.71875 378.324219 69.0625 380.515625 C 69.40625 382.707031 69.804688 384.886719 70.253906 387.058594 C 70.703125 389.230469 71.203125 391.390625 71.757812 393.535156 C 72.3125 395.683594 72.914062 397.816406 73.574219 399.9375 C 74.230469 402.054688 74.9375 404.15625 75.695312 406.238281 C 76.453125 408.324219 77.261719 410.386719 78.117188 412.433594 C 78.976562 414.480469 79.882812 416.503906 80.835938 418.503906 C 81.792969 420.503906 82.792969 422.484375 83.84375 424.4375 C 84.894531 426.390625 85.992188 428.316406 87.136719 430.214844 C 88.28125 432.117188 89.46875 433.988281 90.703125 435.832031 C 91.9375 437.675781 93.214844 439.484375 94.535156 441.265625 C 95.859375 443.050781 97.222656 444.796875 98.628906 446.511719 C 100.035156 448.226562 101.480469 449.910156 102.96875 451.554688 C 104.453125 453.199219 105.980469 454.808594 107.542969 456.382812 L 271.078125 619.90625 C 271.953125 620.777344 272.867188 621.601562 273.820312 622.382812 C 274.773438 623.160156 275.765625 623.894531 276.789062 624.574219 C 277.816406 625.257812 278.871094 625.890625 279.960938 626.46875 C 281.046875 627.050781 282.160156 627.574219 283.300781 628.042969 C 284.441406 628.515625 285.597656 628.929688 286.777344 629.285156 C 287.957031 629.640625 289.152344 629.941406 290.363281 630.179688 C 291.570312 630.417969 292.789062 630.601562 294.015625 630.71875 C 295.242188 630.839844 296.472656 630.902344 297.703125 630.902344 C 298.9375 630.902344 300.164062 630.839844 301.390625 630.71875 C 302.621094 630.601562 303.835938 630.417969 305.046875 630.179688 C 306.253906 629.941406 307.449219 629.640625 308.628906 629.285156 C 309.808594 628.929688 310.96875 628.515625 312.105469 628.042969 C 313.246094 627.574219 314.359375 627.050781 315.449219 626.46875 C 316.535156 625.890625 317.589844 625.257812 318.617188 624.574219 C 319.644531 623.894531 320.632812 623.160156 321.585938 622.382812 C 322.542969 621.601562 323.453125 620.777344 324.328125 619.90625 L 487.886719 456.382812 C 489.484375 454.785156 491.035156 453.148438 492.550781 451.476562 C 494.066406 449.804688 495.539062 448.09375 496.96875 446.347656 C 498.398438 444.605469 499.785156 442.824219 501.128906 441.011719 C 502.472656 439.199219 503.769531 437.351562 505.019531 435.476562 C 506.273438 433.597656 507.480469 431.691406 508.636719 429.757812 C 509.796875 427.820312 510.910156 425.859375 511.972656 423.867188 C 513.035156 421.878906 514.046875 419.863281 515.011719 417.820312 C 515.976562 415.78125 516.886719 413.71875 517.75 411.632812 C 518.613281 409.550781 519.425781 407.445312 520.183594 405.320312 C 520.945312 403.195312 521.652344 401.054688 522.304688 398.894531 C 522.960938 396.734375 523.558594 394.5625 524.109375 392.371094 C 524.65625 390.183594 525.148438 387.984375 525.589844 385.769531 C 526.027344 383.558594 526.414062 381.335938 526.746094 379.101562 C 527.074219 376.871094 527.351562 374.632812 527.574219 372.386719 C 527.792969 370.140625 527.960938 367.894531 528.070312 365.640625 C 528.179688 363.386719 528.234375 361.132812 528.234375 358.875 C 528.234375 356.617188 528.179688 354.363281 528.070312 352.109375 C 527.960938 349.855469 527.792969 347.609375 527.574219 345.363281 C 527.351562 343.117188 527.074219 340.878906 526.746094 338.648438 C 526.414062 336.414062 526.027344 334.191406 525.589844 331.980469 C 525.148438 329.765625 524.65625 327.566406 524.109375 325.378906 C 523.558594 323.1875 522.960938 321.015625 522.304688 318.855469 C 521.652344 316.695312 520.945312 314.554688 520.183594 312.429688 C 519.425781 310.304688 518.613281 308.199219 517.75 306.117188 C 516.886719 304.03125 515.976562 301.96875 515.011719 299.929688 C 514.046875 297.886719 513.035156 295.875 511.972656 293.882812 C 510.910156 291.890625 509.796875 289.929688 508.636719 287.992188 C 507.480469 286.058594 506.273438 284.152344 505.019531 282.273438 C 503.769531 280.398438 502.472656 278.550781 501.128906 276.738281 C 499.785156 274.925781 498.398438 273.144531 496.96875 271.402344 C 495.539062 269.65625 494.066406 267.945312 492.550781 266.273438 C 491.035156 264.601562 489.484375 262.964844 487.886719 261.367188 Z M 434.816406 403.332031 L 297.691406 540.382812 L 160.566406 403.332031 C 159.144531 401.871094 157.792969 400.339844 156.519531 398.746094 C 155.242188 397.152344 154.046875 395.5 152.933594 393.789062 C 151.820312 392.078125 150.792969 390.316406 149.847656 388.507812 C 148.90625 386.695312 148.054688 384.84375 147.292969 382.949219 C 146.53125 381.054688 145.859375 379.128906 145.285156 377.167969 C 144.710938 375.210938 144.234375 373.226562 143.851562 371.222656 C 143.472656 369.21875 143.1875 367.199219 143.003906 365.164062 C 142.820312 363.132812 142.734375 361.09375 142.75 359.054688 C 142.761719 357.011719 142.875 354.976562 143.089844 352.945312 C 143.300781 350.914062 143.609375 348.898438 144.019531 346.898438 C 144.429688 344.898438 144.933594 342.925781 145.535156 340.972656 C 146.136719 339.023438 146.832031 337.105469 147.617188 335.222656 C 148.40625 333.339844 149.285156 331.5 150.25 329.699219 C 151.21875 327.902344 152.269531 326.15625 153.410156 324.460938 C 154.546875 322.765625 155.761719 321.128906 157.058594 319.550781 C 158.355469 317.976562 159.726562 316.464844 161.171875 315.023438 C 162.617188 313.578125 164.128906 312.207031 165.703125 310.910156 C 167.28125 309.617188 168.917969 308.398438 170.617188 307.261719 C 172.3125 306.125 174.058594 305.074219 175.859375 304.105469 C 177.65625 303.140625 179.496094 302.261719 181.382812 301.472656 C 183.265625 300.6875 185.183594 299.992188 187.136719 299.390625 C 189.085938 298.789062 191.0625 298.285156 193.066406 297.875 C 195.066406 297.46875 197.082031 297.15625 199.113281 296.945312 C 201.144531 296.734375 203.179688 296.621094 205.222656 296.605469 C 207.265625 296.59375 209.304688 296.675781 211.335938 296.863281 C 213.371094 297.046875 215.390625 297.328125 217.398438 297.710938 C 219.40625 298.089844 221.386719 298.570312 223.347656 299.144531 C 225.308594 299.71875 227.234375 300.386719 229.128906 301.148438 C 231.023438 301.910156 232.878906 302.761719 234.6875 303.703125 C 236.5 304.644531 238.261719 305.671875 239.972656 306.789062 C 241.6875 307.902344 243.339844 309.09375 244.933594 310.371094 C 246.53125 311.644531 248.058594 312.992188 249.523438 314.417969 L 271.15625 336.027344 C 272.023438 336.894531 272.933594 337.71875 273.882812 338.5 C 274.835938 339.277344 275.820312 340.007812 276.84375 340.691406 C 277.863281 341.375 278.917969 342.003906 280 342.582031 C 281.085938 343.164062 282.195312 343.6875 283.332031 344.15625 C 284.464844 344.625 285.621094 345.039062 286.796875 345.398438 C 287.972656 345.753906 289.164062 346.050781 290.371094 346.292969 C 291.574219 346.53125 292.789062 346.710938 294.011719 346.832031 C 295.234375 346.953125 296.460938 347.011719 297.691406 347.011719 C 298.921875 347.011719 300.144531 346.953125 301.371094 346.832031 C 302.59375 346.710938 303.808594 346.53125 305.011719 346.292969 C 306.21875 346.050781 307.410156 345.753906 308.585938 345.398438 C 309.761719 345.039062 310.917969 344.625 312.050781 344.15625 C 313.1875 343.6875 314.296875 343.164062 315.382812 342.582031 C 316.464844 342.003906 317.519531 341.375 318.539062 340.691406 C 319.5625 340.007812 320.546875 339.277344 321.5 338.5 C 322.449219 337.71875 323.359375 336.894531 324.226562 336.027344 L 345.859375 314.40625 C 347.324219 312.980469 348.851562 311.632812 350.449219 310.355469 C 352.042969 309.082031 353.695312 307.886719 355.410156 306.773438 C 357.121094 305.660156 358.882812 304.632812 360.695312 303.691406 C 362.503906 302.75 364.359375 301.898438 366.253906 301.132812 C 368.148438 300.371094 370.074219 299.703125 372.035156 299.128906 C 373.996094 298.554688 375.976562 298.078125 377.984375 297.699219 C 379.992188 297.316406 382.011719 297.035156 384.046875 296.847656 C 386.078125 296.664062 388.117188 296.578125 390.160156 296.59375 C 392.203125 296.609375 394.238281 296.722656 396.269531 296.933594 C 398.300781 297.144531 400.316406 297.457031 402.316406 297.863281 C 404.320312 298.273438 406.296875 298.777344 408.246094 299.378906 C 410.199219 299.980469 412.117188 300.671875 414 301.460938 C 415.886719 302.25 417.726562 303.125 419.523438 304.09375 C 421.324219 305.058594 423.070312 306.113281 424.765625 307.25 C 426.464844 308.386719 428.101562 309.601562 429.679688 310.898438 C 431.253906 312.195312 432.765625 313.566406 434.210938 315.007812 C 435.65625 316.453125 437.023438 317.960938 438.324219 319.539062 C 439.621094 321.117188 440.835938 322.753906 441.972656 324.449219 C 443.113281 326.144531 444.164062 327.890625 445.132812 329.6875 C 446.097656 331.484375 446.976562 333.328125 447.765625 335.210938 C 448.550781 337.09375 449.246094 339.011719 449.847656 340.960938 C 450.449219 342.910156 450.953125 344.886719 451.363281 346.886719 C 451.773438 348.886719 452.082031 350.902344 452.292969 352.933594 C 452.507812 354.964844 452.621094 357 452.632812 359.039062 C 452.648438 361.082031 452.5625 363.121094 452.378906 365.152344 C 452.195312 367.183594 451.910156 369.203125 451.53125 371.210938 C 451.148438 373.214844 450.671875 375.199219 450.097656 377.15625 C 449.523438 379.117188 448.851562 381.042969 448.089844 382.9375 C 447.328125 384.828125 446.476562 386.683594 445.535156 388.492188 C 444.589844 390.304688 443.5625 392.066406 442.449219 393.777344 C 441.335938 395.488281 440.140625 397.140625 438.863281 398.734375 C 437.589844 400.328125 436.238281 401.855469 434.816406 403.320312 Z M 434.816406 403.332031 " fill-opacity="1" fill-rule="nonzero"/><path fill="#428dcc" d="M 488.242188 343.003906 C 487.457031 338.113281 486.308594 333.308594 484.796875 328.59375 L 487.179688 327.832031 C 488.730469 332.667969 489.90625 337.59375 490.710938 342.605469 Z M 479.230469 314.855469 C 477.03125 310.414062 474.507812 306.160156 471.664062 302.097656 L 473.714844 300.664062 C 476.628906 304.832031 479.214844 309.191406 481.472656 313.746094 Z M 462.265625 290.617188 C 461.675781 289.996094 461.074219 289.382812 460.46875 288.777344 C 457.605469 285.917969 454.582031 283.242188 451.394531 280.753906 L 452.933594 278.78125 C 456.203125 281.335938 459.304688 284.078125 462.234375 287.007812 C 462.859375 287.628906 463.472656 288.253906 464.078125 288.894531 Z M 439.042969 272.519531 C 434.707031 270.074219 430.210938 267.96875 425.554688 266.199219 L 426.441406 263.863281 C 431.214844 265.675781 435.824219 267.835938 440.273438 270.339844 Z M 411.277344 261.976562 C 406.433594 260.929688 401.539062 260.25 396.59375 259.9375 L 396.75 257.441406 C 401.820312 257.761719 406.839844 258.457031 411.808594 259.53125 Z M 381.710938 260.117188 C 376.765625 260.546875 371.878906 261.347656 367.054688 262.511719 L 366.464844 260.082031 C 371.414062 258.886719 376.421875 258.066406 381.492188 257.625 Z M 352.933594 267.0625 C 348.316406 268.941406 343.867188 271.15625 339.585938 273.703125 L 338.304688 271.554688 C 342.695312 268.941406 347.257812 266.671875 351.992188 264.746094 Z M 327.414062 282.25 C 324.90625 284.308594 322.503906 286.484375 320.207031 288.777344 L 316.65625 292.328125 L 314.886719 290.558594 L 318.4375 287.007812 C 320.792969 284.65625 323.253906 282.425781 325.824219 280.316406 Z M 306.039062 302.941406 L 297.691406 311.285156 L 293.652344 307.246094 L 295.425781 305.476562 L 298.578125 308.632812 L 297.691406 309.515625 L 296.808594 308.628906 L 304.269531 301.171875 Z M 283.042969 296.628906 L 275.199219 288.777344 C 274.3125 287.890625 273.40625 287.019531 272.484375 286.164062 L 274.1875 284.332031 C 275.132812 285.207031 276.058594 286.097656 276.96875 287.007812 L 284.816406 294.859375 Z M 260.808594 276.878906 C 256.726562 274.105469 252.457031 271.648438 248.003906 269.511719 L 249.085938 267.257812 C 253.652344 269.449219 258.027344 271.964844 262.214844 274.808594 Z M 234.1875 264.109375 C 229.429688 262.648438 224.589844 261.554688 219.667969 260.820312 L 220.035156 258.347656 C 225.082031 259.097656 230.046875 260.222656 234.921875 261.71875 Z M 204.839844 259.742188 C 199.871094 259.753906 194.933594 260.136719 190.023438 260.886719 L 189.644531 258.417969 C 194.679688 257.644531 199.742188 257.25 204.835938 257.238281 Z M 175.515625 264.246094 C 170.78125 265.722656 166.179688 267.546875 161.71875 269.710938 L 160.625 267.464844 C 165.199219 265.242188 169.914062 263.371094 174.769531 261.859375 Z M 148.960938 277.128906 C 144.847656 279.949219 140.96875 283.0625 137.328125 286.46875 L 135.617188 284.644531 C 139.351562 281.152344 143.328125 277.960938 147.546875 275.066406 Z M 127.425781 297.195312 C 124.335938 301.082031 121.554688 305.175781 119.078125 309.480469 L 116.910156 308.234375 C 119.445312 303.824219 122.300781 299.625 125.464844 295.640625 Z M 112.644531 322.917969 C 110.84375 327.546875 109.394531 332.289062 108.304688 337.132812 L 105.863281 336.585938 C 106.980469 331.617188 108.464844 326.757812 110.3125 322.011719 Z M 106.144531 351.804688 C 105.789062 356.765625 105.808594 361.726562 106.199219 366.683594 L 103.707031 366.878906 C 103.304688 361.796875 103.285156 356.714844 103.648438 351.628906 Z M 108.472656 381.34375 C 109.597656 386.179688 111.078125 390.902344 112.914062 395.511719 L 110.589844 396.4375 C 108.707031 391.707031 107.191406 386.867188 106.035156 381.910156 Z M 119.449219 408.90625 C 121.957031 413.195312 124.769531 417.269531 127.890625 421.132812 L 125.945312 422.707031 C 122.746094 418.742188 119.859375 414.5625 117.289062 410.167969 Z M 137.910156 431.941406 L 148.523438 442.554688 L 146.753906 444.320312 L 136.140625 433.710938 Z M 159.140625 453.164062 L 169.753906 463.777344 L 167.984375 465.546875 L 157.371094 454.933594 Z M 180.371094 474.390625 L 190.988281 485.003906 L 189.21875 486.769531 L 178.601562 476.160156 Z M 201.601562 495.613281 L 212.21875 506.226562 L 210.449219 507.996094 L 199.832031 497.382812 Z M 222.832031 516.839844 L 233.449219 527.453125 L 231.679688 529.21875 L 221.0625 518.609375 Z M 244.0625 538.0625 L 254.679688 548.675781 L 252.910156 550.445312 L 242.292969 539.832031 Z M 265.292969 559.289062 L 275.910156 569.902344 L 274.140625 571.667969 L 263.523438 561.058594 Z M 286.523438 580.511719 L 297.140625 591.125 L 295.371094 592.894531 L 284.753906 582.28125 Z M 305.972656 583.398438 L 316.589844 572.785156 L 318.359375 574.554688 L 307.742188 585.164062 Z M 327.207031 562.175781 L 337.824219 551.5625 L 339.589844 553.332031 L 328.976562 563.941406 Z M 348.4375 540.953125 L 359.054688 530.339844 L 360.824219 532.109375 L 350.207031 542.71875 Z M 369.671875 519.730469 L 380.289062 509.117188 L 382.054688 510.886719 L 371.441406 521.496094 Z M 390.902344 498.503906 L 401.519531 487.894531 L 403.289062 489.664062 L 392.671875 500.273438 Z M 412.136719 477.28125 L 422.75 466.671875 L 424.519531 468.441406 L 413.90625 479.050781 Z M 433.367188 456.058594 L 443.984375 445.449219 L 445.753906 447.21875 L 435.136719 457.828125 Z M 433.367188 456.058594 " fill-opacity="1" fill-rule="nonzero"/><path fill="#428dcc" d="M 454.894531 453.945312 L 461.351562 429.859375 L 437.253906 436.308594 Z M 454.894531 453.945312 " fill-opacity="1" fill-rule="nonzero"/><path fill="#428dcc" d="M 494.730469 351.757812 C 495.160156 352.621094 495.761719 353.335938 496.539062 353.898438 C 497.320312 354.464844 498.183594 354.820312 499.136719 354.960938 C 499.679688 355.039062 500.199219 355.1875 500.703125 355.410156 C 501.203125 355.632812 501.664062 355.921875 502.082031 356.273438 C 502.503906 356.625 502.867188 357.027344 503.175781 357.484375 C 503.480469 357.9375 503.71875 358.425781 503.890625 358.949219 C 504.058594 359.46875 504.152344 360.003906 504.171875 360.550781 C 504.191406 361.097656 504.132812 361.640625 504 362.171875 C 503.867188 362.703125 503.664062 363.207031 503.390625 363.679688 C 503.117188 364.15625 502.78125 364.585938 502.390625 364.964844 C 501.695312 365.636719 501.199219 366.429688 500.902344 367.34375 C 500.601562 368.261719 500.535156 369.191406 500.699219 370.144531 C 500.792969 370.679688 500.808594 371.222656 500.753906 371.765625 C 500.695312 372.308594 500.5625 372.832031 500.355469 373.339844 C 500.152344 373.847656 499.878906 374.316406 499.542969 374.746094 C 499.207031 375.175781 498.816406 375.550781 498.375 375.875 C 497.933594 376.195312 497.457031 376.449219 496.941406 376.636719 C 496.429688 376.824219 495.898438 376.9375 495.355469 376.976562 C 494.808594 377.015625 494.269531 376.980469 493.734375 376.871094 C 493.199219 376.757812 492.6875 376.574219 492.203125 376.320312 C 491.351562 375.871094 490.441406 375.644531 489.476562 375.644531 C 488.511719 375.644531 487.601562 375.871094 486.75 376.320312 C 486.265625 376.574219 485.757812 376.757812 485.222656 376.871094 C 484.6875 376.980469 484.144531 377.015625 483.601562 376.976562 C 483.054688 376.9375 482.527344 376.824219 482.011719 376.636719 C 481.5 376.449219 481.019531 376.195312 480.578125 375.875 C 480.136719 375.550781 479.746094 375.175781 479.410156 374.746094 C 479.074219 374.316406 478.804688 373.847656 478.597656 373.339844 C 478.390625 372.832031 478.261719 372.308594 478.203125 371.765625 C 478.144531 371.222656 478.160156 370.679688 478.253906 370.144531 C 478.417969 369.195312 478.351562 368.261719 478.054688 367.347656 C 477.757812 366.433594 477.265625 365.636719 476.578125 364.964844 C 476.183594 364.585938 475.847656 364.15625 475.574219 363.683594 C 475.300781 363.207031 475.097656 362.707031 474.964844 362.175781 C 474.832031 361.640625 474.773438 361.101562 474.792969 360.554688 C 474.8125 360.007812 474.90625 359.472656 475.074219 358.953125 C 475.242188 358.429688 475.480469 357.941406 475.785156 357.488281 C 476.09375 357.035156 476.453125 356.628906 476.875 356.277344 C 477.292969 355.925781 477.753906 355.636719 478.253906 355.414062 C 478.753906 355.1875 479.277344 355.039062 479.816406 354.960938 C 480.769531 354.820312 481.636719 354.464844 482.414062 353.898438 C 483.191406 353.335938 483.792969 352.621094 484.222656 351.757812 C 484.464844 351.269531 484.769531 350.820312 485.136719 350.414062 C 485.5 350.007812 485.917969 349.664062 486.382812 349.375 C 486.847656 349.085938 487.339844 348.863281 487.867188 348.714844 C 488.394531 348.5625 488.929688 348.488281 489.476562 348.488281 C 490.023438 348.488281 490.5625 348.5625 491.085938 348.714844 C 491.613281 348.863281 492.109375 349.085938 492.570312 349.375 C 493.035156 349.664062 493.453125 350.007812 493.820312 350.414062 C 494.1875 350.820312 494.492188 351.269531 494.730469 351.757812 Z M 494.730469 351.757812 " fill-opacity="1" fill-rule="nonzero"/></svg>