<svg xmlns="http://www.w3.org/2000/svg" xmlns:xlink="http://www.w3.org/1999/xlink" width="1200" zoomAndPan="magnify" viewBox="0 0 900 899.99999" height="1200" preserveAspectRatio="xMidYMid meet" version="1.0"><defs><clipPath id="3762d94569"><path d="M 38.570312 90 L 861.320312 90 L 861.320312 810 L 38.570312 810 Z M 38.570312 90 " clip-rule="nonzero"/></clipPath><clipPath id="470bff4993"><path d="M 71.191406 204.964844 C 4.476562 314.878906 51.476562 421.863281 110.546875 478.648438 L 455.917969 810 L 794 479.832031 C 848.9375 418.75 869.996094 353.957031 858.300781 281.808594 C 842.144531 182.007812 759.902344 104.578125 658.304688 93.519531 C 595.996094 86.8125 535.800781 104.445312 488.824219 143.484375 C 476.179688 153.988281 464.878906 165.730469 455.027344 178.492188 C 443.339844 163.960938 429.636719 150.667969 414.136719 138.886719 C 360.113281 97.828125 291.347656 81.527344 225.292969 94.207031 C 162.730469 106.292969 106.574219 146.648438 71.191406 204.964844 Z M 71.191406 204.964844 " clip-rule="nonzero"/></clipPath><clipPath id="712d908376"><path d="M 168.105469 203.347656 L 732 203.347656 L 732 696.652344 L 168.105469 696.652344 Z M 168.105469 203.347656 " clip-rule="nonzero"/></clipPath><clipPath id="1b3cdf9eec"><path d="M 190.457031 282.113281 C 144.746094 357.421875 176.949219 430.722656 217.417969 469.625 L 454.050781 696.652344 L 685.6875 470.4375 C 723.328125 428.585938 737.753906 384.195312 729.742188 334.761719 C 718.671875 266.382812 662.324219 213.332031 592.714844 205.757812 C 550.023438 201.160156 508.78125 213.242188 476.59375 239.988281 C 467.929688 247.1875 460.1875 255.230469 453.4375 263.976562 C 445.433594 254.019531 436.042969 244.910156 425.425781 236.839844 C 388.410156 208.710938 341.292969 197.539062 296.039062 206.226562 C 253.171875 214.507812 214.699219 242.15625 190.457031 282.113281 Z M 190.457031 282.113281 " clip-rule="nonzero"/></clipPath><clipPath id="0437b9bb06"><path d="M 377 165 L 411 165 L 411 203 L 377 203 Z M 377 165 " clip-rule="nonzero"/></clipPath><clipPath id="f39cc4b602"><path d="M 391.160156 203.332031 L 367.613281 190.125 L 387.792969 154.148438 L 411.339844 167.355469 Z M 391.160156 203.332031 " clip-rule="nonzero"/></clipPath><clipPath id="5451e3bd98"><path d="M 391.160156 203.332031 L 367.613281 190.125 L 387.792969 154.148438 L 411.339844 167.355469 Z M 391.160156 203.332031 " clip-rule="nonzero"/></clipPath><clipPath id="c2f6edb068"><path d="M 391.164062 203.328125 L 367.796875 190.21875 L 388.070312 154.082031 L 411.4375 167.1875 Z M 391.164062 203.328125 " clip-rule="nonzero"/></clipPath></defs><g clip-path="url(#3762d94569)"><g clip-path="url(#470bff4993)"><path stroke-linecap="butt" transform="matrix(0.75, 0, 0, 0.75, 38.57143, 90.000747)" fill="none" stroke-linejoin="miter" d="M 43.493304 153.28547 C -45.459825 299.837561 17.206845 442.483402 95.967265 518.196947 L 556.462081 959.999054 L 1007.238146 519.775072 C 1080.48815 438.33236 1108.566277 351.94173 1092.972526 255.743809 C 1071.430858 122.676093 961.774602 19.436505 826.311054 4.691712 C 743.232924 -4.250997 662.972503 19.259421 600.337083 71.311507 C 583.477708 85.316716 568.409998 100.972967 555.274581 117.988593 C 539.691247 98.613592 521.420413 80.889633 500.753745 65.181299 C 428.722491 10.436504 337.034986 -11.297872 248.962065 5.608379 C 165.545394 21.722963 90.67039 75.530258 43.493304 153.28547 Z M 43.493304 153.28547 " stroke="#000000" stroke-width="16" stroke-opacity="1" stroke-miterlimit="4"/></g></g><g clip-path="url(#712d908376)"><g clip-path="url(#1b3cdf9eec)"><path stroke-linecap="butt" transform="matrix(0.75, 0, 0, 0.75, 168.105538, 203.346014)" fill="none" stroke-linejoin="miter" d="M 29.801992 105.023028 C -31.145928 205.434492 11.791574 303.168872 65.749911 355.038666 L 381.260344 657.741807 L 690.109318 356.122 C 740.296821 300.319914 759.531197 241.13241 748.848905 175.220949 C 734.088487 84.049069 658.958275 13.31469 566.14577 3.215731 C 509.223892 -2.914477 454.234306 13.194898 411.317637 48.856359 C 399.765553 58.455318 389.442636 69.179276 380.442635 80.840735 C 369.77076 67.564693 357.249926 55.418859 343.093675 44.658442 C 293.739506 7.153231 230.916586 -7.742603 170.578041 3.840731 C 113.421788 14.882399 62.12491 51.746984 29.801992 105.023028 Z M 29.801992 105.023028 " stroke="#000000" stroke-width="16" stroke-opacity="1" stroke-miterlimit="4"/></g></g><g clip-path="url(#0437b9bb06)"><g clip-path="url(#f39cc4b602)"><g clip-path="url(#5451e3bd98)"><g clip-path="url(#c2f6edb068)"><path fill="#f1a131" d="M 377.8125 173.890625 L 388.472656 201.265625 C 389.277344 203.328125 392.328125 202.820312 392.417969 200.609375 L 393.195312 181.773438 C 393.222656 181.121094 393.558594 180.519531 394.097656 180.160156 L 409.773438 169.671875 C 411.609375 168.441406 410.453125 165.574219 408.277344 165.964844 L 379.355469 171.140625 C 378.089844 171.367188 377.34375 172.691406 377.8125 173.890625 " fill-opacity="1" fill-rule="nonzero"/></g></g></g></g><path fill="#f1a131" d="M 124.738281 436.917969 C 122.84375 424.492188 121.273438 412.46875 120.027344 400.855469 L 131.960938 399.574219 C 133.183594 411.015625 134.734375 422.859375 136.601562 435.105469 Z M 118.84375 388.824219 C 117.714844 376.242188 116.988281 364.15625 116.660156 352.570312 L 128.65625 352.230469 C 128.976562 363.574219 129.6875 375.414062 130.796875 387.75 Z M 116.464844 340.390625 C 116.421875 327.59375 116.894531 315.4375 117.890625 303.921875 L 129.847656 304.957031 C 128.882812 316.113281 128.421875 327.910156 128.464844 340.347656 Z M 119.171875 291.71875 C 120.769531 278.824219 123.078125 266.792969 126.097656 255.625 L 137.683594 258.757812 C 134.8125 269.378906 132.609375 280.859375 131.082031 293.195312 Z M 129.664062 243.804688 C 133.859375 231.292969 139.058594 219.996094 145.257812 209.910156 L 155.480469 216.195312 C 149.761719 225.5 144.949219 235.976562 141.042969 247.621094 Z M 152.308594 199.53125 C 160.054688 189.210938 169.046875 180.429688 179.285156 173.1875 L 186.214844 182.980469 C 177.003906 189.5 168.898438 197.417969 161.90625 206.738281 Z M 189.949219 166.449219 C 200.507812 160.523438 212.175781 156.015625 224.949219 152.933594 L 227.765625 164.597656 C 216.066406 167.421875 205.417969 171.527344 195.824219 176.914062 Z M 237.15625 150.472656 C 248.648438 148.59375 260.949219 147.75 274.054688 147.945312 L 273.878906 159.945312 C 261.480469 159.761719 249.886719 160.550781 239.09375 162.316406 Z M 286.296875 148.414062 C 297.847656 149.117188 309.988281 150.566406 322.714844 152.765625 L 320.671875 164.589844 C 308.378906 162.464844 296.679688 161.066406 285.566406 160.390625 Z M 334.636719 155.007812 C 345.988281 157.3125 357.785156 160.183594 370.03125 163.617188 L 366.789062 175.171875 C 354.828125 171.816406 343.3125 169.015625 332.246094 166.769531 Z M 334.636719 155.007812 " fill-opacity="1" fill-rule="nonzero"/><path fill="#f1a131" d="M 188.160156 489.582031 L 214.761719 513.835938 L 206.675781 522.703125 L 180.074219 498.449219 M 223.628906 521.921875 L 250.230469 546.175781 L 242.144531 555.042969 L 215.542969 530.789062 M 259.097656 554.261719 L 285.699219 578.515625 L 277.613281 587.386719 L 251.011719 563.128906 M 294.566406 586.601562 L 321.167969 610.859375 L 313.082031 619.726562 L 286.480469 595.46875 M 330.035156 618.945312 L 356.636719 643.199219 L 348.550781 652.066406 L 321.949219 627.8125 M 365.503906 651.285156 L 392.105469 675.539062 L 384.019531 684.40625 L 357.417969 660.152344 M 400.972656 683.625 L 427.574219 707.878906 L 419.492188 716.75 L 392.890625 692.492188 M 436.441406 715.964844 L 454.042969 732.011719 L 445.957031 740.878906 L 428.359375 724.832031 " fill-opacity="1" fill-rule="nonzero"/><path fill="#f1a131" d="M 706.730469 511.015625 L 680.777344 535.964844 L 672.460938 527.316406 L 698.414062 502.367188 M 672.128906 544.28125 L 646.175781 569.230469 L 637.859375 560.578125 L 663.8125 535.632812 M 637.523438 577.546875 L 611.570312 602.496094 L 603.253906 593.84375 L 629.207031 568.894531 M 602.917969 610.8125 L 576.964844 635.761719 L 568.648438 627.109375 L 594.601562 602.160156 M 568.316406 644.078125 L 542.363281 669.027344 L 534.046875 660.375 L 560 635.425781 M 533.710938 677.339844 L 507.757812 702.289062 L 499.441406 693.640625 L 525.394531 668.691406 M 499.105469 710.605469 L 473.152344 735.554688 L 464.835938 726.902344 L 490.789062 701.957031 " fill-opacity="1" fill-rule="nonzero"/><path fill="#f1a131" d="M 768.90625 367.933594 C 769.496094 355.492188 769.707031 343.609375 769.542969 332.28125 L 781.542969 332.109375 C 781.710938 343.683594 781.492188 355.8125 780.890625 368.5 Z M 769.226562 320.363281 C 768.730469 307.878906 767.746094 296.125 766.269531 285.101562 L 778.164062 283.507812 C 779.691406 294.902344 780.707031 307.03125 781.214844 319.890625 Z M 764.480469 273.445312 C 762.324219 261.105469 759.492188 249.785156 755.984375 239.488281 L 767.34375 235.617188 C 771.054688 246.507812 774.039062 258.425781 776.300781 271.382812 Z M 751.886719 228.660156 C 747.132812 217.3125 741.425781 207.417969 734.765625 198.976562 L 744.1875 191.542969 C 751.523438 200.84375 757.78125 211.671875 762.957031 224.023438 Z M 727.277344 190.496094 C 719.25 182.390625 710.050781 176 699.6875 171.320312 L 704.625 160.382812 C 716.339844 165.671875 726.730469 172.894531 735.804688 182.050781 Z M 689.132812 167.269531 C 678.894531 163.992188 667.644531 162.140625 655.378906 161.71875 L 655.792969 149.726562 C 669.167969 150.1875 681.5 152.226562 692.792969 155.84375 Z M 643.796875 161.734375 C 632.921875 162.117188 621.332031 163.519531 609.027344 165.941406 L 606.714844 154.164062 C 619.644531 151.625 631.863281 150.148438 643.375 149.742188 Z M 597.582031 168.433594 C 586.746094 171.019531 575.402344 174.339844 563.546875 178.394531 L 559.664062 167.039062 C 571.878906 162.863281 583.589844 159.4375 594.796875 156.761719 Z M 552.441406 182.351562 C 541.835938 186.28125 530.84375 190.765625 519.46875 195.808594 L 514.605469 184.839844 C 526.210938 179.695312 537.433594 175.113281 548.273438 171.097656 Z M 508.570312 200.757812 C 503.121094 203.289062 497.589844 205.9375 491.972656 208.714844 L 486.65625 197.957031 C 492.359375 195.136719 497.980469 192.445312 503.515625 189.875 Z M 508.570312 200.757812 " fill-opacity="1" fill-rule="nonzero"/></svg>