<svg xmlns="http://www.w3.org/2000/svg" xmlns:xlink="http://www.w3.org/1999/xlink" width="794" zoomAndPan="magnify" viewBox="0 0 594.95996 842.24997" height="1123" preserveAspectRatio="xMidYMid meet" version="1.0"><defs><clipPath id="9bc9d8e1b8"><path d="M 60 185.730469 L 526 185.730469 L 526 225.445312 L 60 225.445312 Z M 60 185.730469 " clip-rule="nonzero"/></clipPath><clipPath id="2ab682ca5b"><path d="M 486.921875 187.109375 L 526.636719 187.109375 L 526.636719 653.941406 L 486.921875 653.941406 Z M 486.921875 187.109375 " clip-rule="nonzero"/></clipPath><clipPath id="f6e6196578"><path d="M 59.683594 187.109375 L 99.398438 187.109375 L 99.398438 653.941406 L 59.683594 653.941406 Z M 59.683594 187.109375 " clip-rule="nonzero"/></clipPath><clipPath id="2ecdb37d1c"><path d="M 60 614.34375 L 526 614.34375 L 526 654.058594 L 60 654.058594 Z M 60 614.34375 " clip-rule="nonzero"/></clipPath></defs><g clip-path="url(#9bc9d8e1b8)"><path fill="#f5f4f4" d="M 80.394531 185.730469 L 505.859375 185.730469 C 506.507812 185.730469 507.15625 185.761719 507.804688 185.828125 C 508.449219 185.890625 509.09375 185.984375 509.730469 186.113281 C 510.367188 186.238281 510.996094 186.398438 511.617188 186.585938 C 512.242188 186.777344 512.851562 186.996094 513.453125 187.242188 C 514.050781 187.492188 514.640625 187.769531 515.210938 188.078125 C 515.785156 188.382812 516.34375 188.71875 516.882812 189.078125 C 517.421875 189.441406 517.945312 189.828125 518.445312 190.238281 C 518.949219 190.652344 519.429688 191.089844 519.890625 191.550781 C 520.347656 192.007812 520.785156 192.492188 521.195312 192.992188 C 521.609375 193.496094 521.996094 194.019531 522.355469 194.558594 C 522.71875 195.101562 523.050781 195.65625 523.359375 196.230469 C 523.664062 196.804688 523.941406 197.390625 524.191406 197.992188 C 524.441406 198.59375 524.660156 199.207031 524.847656 199.828125 C 525.035156 200.453125 525.191406 201.082031 525.320312 201.71875 C 525.445312 202.359375 525.542969 203 525.605469 203.648438 C 525.667969 204.296875 525.703125 204.945312 525.703125 205.59375 C 525.703125 206.246094 525.667969 206.894531 525.605469 207.542969 C 525.542969 208.1875 525.445312 208.832031 525.320312 209.46875 C 525.191406 210.109375 525.035156 210.738281 524.847656 211.359375 C 524.660156 211.984375 524.441406 212.59375 524.191406 213.195312 C 523.941406 213.796875 523.664062 214.382812 523.359375 214.957031 C 523.050781 215.53125 522.71875 216.089844 522.355469 216.628906 C 521.996094 217.171875 521.609375 217.691406 521.195312 218.195312 C 520.785156 218.699219 520.347656 219.179688 519.890625 219.640625 C 519.429688 220.101562 518.949219 220.535156 518.445312 220.949219 C 517.945312 221.363281 517.421875 221.75 516.882812 222.109375 C 516.34375 222.472656 515.785156 222.804688 515.210938 223.113281 C 514.640625 223.417969 514.050781 223.699219 513.453125 223.945312 C 512.851562 224.195312 512.242188 224.414062 511.617188 224.601562 C 510.996094 224.792969 510.367188 224.949219 509.730469 225.078125 C 509.09375 225.203125 508.449219 225.300781 507.804688 225.363281 C 507.15625 225.425781 506.507812 225.457031 505.859375 225.457031 L 80.394531 225.457031 C 79.746094 225.457031 79.097656 225.425781 78.449219 225.363281 C 77.804688 225.300781 77.160156 225.203125 76.523438 225.078125 C 75.886719 224.949219 75.257812 224.792969 74.636719 224.601562 C 74.011719 224.414062 73.402344 224.195312 72.800781 223.945312 C 72.203125 223.699219 71.613281 223.417969 71.042969 223.113281 C 70.46875 222.804688 69.910156 222.472656 69.371094 222.109375 C 68.832031 221.75 68.308594 221.363281 67.808594 220.949219 C 67.304688 220.535156 66.824219 220.101562 66.363281 219.640625 C 65.90625 219.179688 65.46875 218.699219 65.058594 218.195312 C 64.644531 217.691406 64.257812 217.171875 63.898438 216.628906 C 63.535156 216.089844 63.203125 215.53125 62.894531 214.957031 C 62.589844 214.382812 62.3125 213.796875 62.0625 213.195312 C 61.816406 212.59375 61.597656 211.984375 61.40625 211.359375 C 61.21875 210.738281 61.0625 210.109375 60.933594 209.46875 C 60.808594 208.832031 60.710938 208.1875 60.648438 207.542969 C 60.585938 206.894531 60.554688 206.246094 60.554688 205.59375 C 60.554688 204.945312 60.585938 204.296875 60.648438 203.648438 C 60.710938 203 60.808594 202.359375 60.933594 201.71875 C 61.0625 201.082031 61.21875 200.453125 61.40625 199.828125 C 61.597656 199.207031 61.816406 198.59375 62.0625 197.992188 C 62.3125 197.390625 62.589844 196.804688 62.894531 196.230469 C 63.203125 195.65625 63.535156 195.101562 63.898438 194.558594 C 64.257812 194.019531 64.644531 193.496094 65.058594 192.992188 C 65.46875 192.492188 65.90625 192.007812 66.363281 191.550781 C 66.824219 191.089844 67.304688 190.652344 67.808594 190.238281 C 68.308594 189.828125 68.832031 189.441406 69.371094 189.078125 C 69.910156 188.71875 70.46875 188.382812 71.042969 188.078125 C 71.613281 187.769531 72.203125 187.492188 72.800781 187.242188 C 73.402344 186.996094 74.011719 186.777344 74.636719 186.585938 C 75.257812 186.398438 75.886719 186.238281 76.523438 186.113281 C 77.160156 185.984375 77.804688 185.890625 78.449219 185.828125 C 79.097656 185.761719 79.746094 185.730469 80.394531 185.730469 Z M 80.394531 185.730469 " fill-opacity="1" fill-rule="nonzero"/></g><path fill="#428dcc" d="M 81.453125 204.976562 L 88.847656 204.976562 L 88.847656 206.210938 L 81.453125 206.210938 M 96.238281 204.976562 L 103.632812 204.976562 L 103.632812 206.210938 L 96.238281 206.210938 M 111.023438 204.976562 L 118.417969 204.976562 L 118.417969 206.210938 L 111.023438 206.210938 M 125.808594 204.976562 L 133.203125 204.976562 L 133.203125 206.210938 L 125.808594 206.210938 M 140.59375 204.976562 L 147.988281 204.976562 L 147.988281 206.210938 L 140.59375 206.210938 M 155.378906 204.976562 L 162.769531 204.976562 L 162.769531 206.210938 L 155.378906 206.210938 M 170.164062 204.976562 L 177.554688 204.976562 L 177.554688 206.210938 L 170.164062 206.210938 M 184.949219 204.976562 L 192.339844 204.976562 L 192.339844 206.210938 L 184.949219 206.210938 M 199.734375 204.976562 L 207.125 204.976562 L 207.125 206.210938 L 199.734375 206.210938 M 214.519531 204.976562 L 221.910156 204.976562 L 221.910156 206.210938 L 214.519531 206.210938 M 229.304688 204.976562 L 236.695312 204.976562 L 236.695312 206.210938 L 229.304688 206.210938 M 244.085938 204.976562 L 251.480469 204.976562 L 251.480469 206.210938 L 244.085938 206.210938 M 258.871094 204.976562 L 266.265625 204.976562 L 266.265625 206.210938 L 258.871094 206.210938 M 273.65625 204.976562 L 281.050781 204.976562 L 281.050781 206.210938 L 273.65625 206.210938 M 288.441406 204.976562 L 295.835938 204.976562 L 295.835938 206.210938 L 288.441406 206.210938 M 303.226562 204.976562 L 310.621094 204.976562 L 310.621094 206.210938 L 303.226562 206.210938 M 318.011719 204.976562 L 325.402344 204.976562 L 325.402344 206.210938 L 318.011719 206.210938 M 332.796875 204.976562 L 340.1875 204.976562 L 340.1875 206.210938 L 332.796875 206.210938 M 347.582031 204.976562 L 354.972656 204.976562 L 354.972656 206.210938 L 347.582031 206.210938 M 362.367188 204.976562 L 369.757812 204.976562 L 369.757812 206.210938 L 362.367188 206.210938 M 377.152344 204.976562 L 384.542969 204.976562 L 384.542969 206.210938 L 377.152344 206.210938 M 391.9375 204.976562 L 399.328125 204.976562 L 399.328125 206.210938 L 391.9375 206.210938 M 406.71875 204.976562 L 414.113281 204.976562 L 414.113281 206.210938 L 406.71875 206.210938 M 421.503906 204.976562 L 428.898438 204.976562 L 428.898438 206.210938 L 421.503906 206.210938 M 436.289062 204.976562 L 443.683594 204.976562 L 443.683594 206.210938 L 436.289062 206.210938 M 451.074219 204.976562 L 458.46875 204.976562 L 458.46875 206.210938 L 451.074219 206.210938 M 465.859375 204.976562 L 473.253906 204.976562 L 473.253906 206.210938 L 465.859375 206.210938 M 480.644531 204.976562 L 488.035156 204.976562 L 488.035156 206.210938 L 480.644531 206.210938 M 495.429688 204.976562 L 501.332031 204.976562 L 501.332031 206.210938 L 495.429688 206.210938 " fill-opacity="1" fill-rule="nonzero"/><path fill="#428dcc" d="M 499.53125 211.742188 L 510.171875 205.59375 L 499.53125 199.445312 Z M 499.53125 211.742188 " fill-opacity="1" fill-rule="nonzero"/><path fill="#428dcc" d="M 87.179688 198.945312 C 87.386719 199.375 87.683594 199.726562 88.066406 200.007812 C 88.449219 200.289062 88.875 200.460938 89.347656 200.53125 C 89.890625 200.609375 90.375 200.824219 90.796875 201.179688 C 91.21875 201.535156 91.515625 201.972656 91.6875 202.496094 C 91.855469 203.023438 91.875 203.550781 91.742188 204.085938 C 91.609375 204.621094 91.34375 205.082031 90.949219 205.464844 C 90.609375 205.796875 90.371094 206.183594 90.222656 206.632812 C 90.078125 207.082031 90.042969 207.539062 90.121094 208.007812 C 90.214844 208.546875 90.15625 209.070312 89.949219 209.582031 C 89.742188 210.089844 89.417969 210.503906 88.972656 210.828125 C 88.53125 211.148438 88.035156 211.332031 87.488281 211.371094 C 86.941406 211.410156 86.425781 211.300781 85.941406 211.046875 C 85.519531 210.824219 85.070312 210.714844 84.597656 210.714844 C 84.121094 210.714844 83.675781 210.824219 83.253906 211.046875 C 82.769531 211.300781 82.253906 211.410156 81.707031 211.371094 C 81.160156 211.332031 80.664062 211.148438 80.21875 210.828125 C 79.773438 210.503906 79.449219 210.089844 79.242188 209.582031 C 79.035156 209.070312 78.980469 208.546875 79.070312 208.007812 C 79.148438 207.539062 79.113281 207.082031 78.964844 206.632812 C 78.820312 206.183594 78.578125 205.796875 78.238281 205.464844 C 77.84375 205.082031 77.578125 204.625 77.445312 204.089844 C 77.3125 203.554688 77.328125 203.023438 77.5 202.5 C 77.667969 201.976562 77.964844 201.535156 78.386719 201.179688 C 78.804688 200.824219 79.289062 200.609375 79.835938 200.53125 C 80.304688 200.464844 80.730469 200.289062 81.113281 200.011719 C 81.496094 199.730469 81.792969 199.378906 82.003906 198.953125 C 82.246094 198.460938 82.597656 198.066406 83.066406 197.773438 C 83.53125 197.484375 84.039062 197.335938 84.589844 197.335938 C 85.136719 197.335938 85.644531 197.480469 86.113281 197.773438 C 86.582031 198.0625 86.933594 198.453125 87.179688 198.945312 Z M 87.179688 198.945312 " fill-opacity="1" fill-rule="nonzero"/><g clip-path="url(#2ab682ca5b)"><path fill="#f5f4f4" d="M 526.636719 207.785156 L 526.636719 633.246094 C 526.636719 633.898438 526.605469 634.546875 526.539062 635.191406 C 526.476562 635.839844 526.378906 636.480469 526.253906 637.117188 C 526.125 637.753906 525.96875 638.386719 525.78125 639.007812 C 525.589844 639.628906 525.371094 640.238281 525.125 640.839844 C 524.875 641.441406 524.597656 642.027344 524.289062 642.601562 C 523.984375 643.175781 523.648438 643.730469 523.289062 644.269531 C 522.925781 644.8125 522.539062 645.332031 522.125 645.835938 C 521.714844 646.335938 521.277344 646.820312 520.816406 647.277344 C 520.359375 647.738281 519.875 648.171875 519.375 648.585938 C 518.871094 648.996094 518.347656 649.382812 517.808594 649.746094 C 517.265625 650.105469 516.710938 650.441406 516.136719 650.746094 C 515.5625 651.054688 514.972656 651.332031 514.375 651.578125 C 513.773438 651.828125 513.160156 652.046875 512.539062 652.234375 C 511.914062 652.425781 511.285156 652.582031 510.648438 652.707031 C 510.007812 652.835938 509.367188 652.929688 508.71875 652.996094 C 508.070312 653.058594 507.421875 653.089844 506.773438 653.089844 C 506.121094 653.089844 505.472656 653.058594 504.824219 652.992188 C 504.175781 652.929688 503.535156 652.835938 502.898438 652.707031 C 502.257812 652.582031 501.628906 652.425781 501.007812 652.234375 C 500.382812 652.046875 499.773438 651.828125 499.171875 651.578125 C 498.570312 651.332031 497.980469 651.054688 497.410156 650.746094 C 496.835938 650.441406 496.277344 650.105469 495.738281 649.746094 C 495.195312 649.382812 494.671875 648.996094 494.171875 648.585938 C 493.667969 648.171875 493.1875 647.738281 492.726562 647.277344 C 492.265625 646.820312 491.832031 646.335938 491.417969 645.835938 C 491.003906 645.332031 490.617188 644.8125 490.257812 644.269531 C 489.894531 643.730469 489.5625 643.175781 489.253906 642.601562 C 488.949219 642.027344 488.667969 641.441406 488.421875 640.839844 C 488.171875 640.238281 487.953125 639.628906 487.765625 639.007812 C 487.574219 638.386719 487.417969 637.753906 487.289062 637.117188 C 487.164062 636.480469 487.066406 635.839844 487.003906 635.191406 C 486.941406 634.546875 486.910156 633.898438 486.910156 633.246094 L 486.910156 207.785156 C 486.910156 207.132812 486.941406 206.484375 487.003906 205.839844 C 487.066406 205.191406 487.164062 204.550781 487.289062 203.914062 C 487.417969 203.277344 487.574219 202.644531 487.765625 202.023438 C 487.953125 201.402344 488.171875 200.789062 488.421875 200.191406 C 488.667969 199.589844 488.949219 199.003906 489.253906 198.429688 C 489.5625 197.855469 489.894531 197.300781 490.257812 196.761719 C 490.617188 196.21875 491.003906 195.699219 491.417969 195.195312 C 491.832031 194.695312 492.265625 194.210938 492.726562 193.753906 C 493.1875 193.292969 493.667969 192.859375 494.171875 192.445312 C 494.671875 192.03125 495.195312 191.648438 495.738281 191.285156 C 496.277344 190.925781 496.835938 190.589844 497.410156 190.285156 C 497.980469 189.976562 498.570312 189.699219 499.171875 189.453125 C 499.773438 189.203125 500.382812 188.984375 501.007812 188.796875 C 501.628906 188.605469 502.257812 188.449219 502.898438 188.324219 C 503.535156 188.195312 504.175781 188.101562 504.824219 188.035156 C 505.472656 187.972656 506.121094 187.941406 506.773438 187.941406 C 507.421875 187.941406 508.070312 187.972656 508.71875 188.035156 C 509.367188 188.101562 510.007812 188.195312 510.648438 188.324219 C 511.285156 188.449219 511.914062 188.605469 512.539062 188.796875 C 513.160156 188.984375 513.773438 189.203125 514.375 189.453125 C 514.972656 189.699219 515.5625 189.976562 516.136719 190.285156 C 516.710938 190.589844 517.265625 190.925781 517.808594 191.285156 C 518.347656 191.648438 518.871094 192.03125 519.375 192.445312 C 519.875 192.859375 520.359375 193.292969 520.816406 193.753906 C 521.277344 194.210938 521.714844 194.695312 522.125 195.195312 C 522.539062 195.699219 522.925781 196.21875 523.289062 196.761719 C 523.648438 197.300781 523.984375 197.855469 524.289062 198.429688 C 524.597656 199.003906 524.875 199.589844 525.125 200.191406 C 525.371094 200.789062 525.589844 201.402344 525.78125 202.023438 C 525.96875 202.644531 526.125 203.277344 526.253906 203.914062 C 526.378906 204.550781 526.476562 205.191406 526.539062 205.839844 C 526.605469 206.484375 526.636719 207.132812 526.636719 207.785156 Z M 526.636719 207.785156 " fill-opacity="1" fill-rule="nonzero"/></g><path fill="#428dcc" d="M 507.390625 208.84375 L 507.390625 216.234375 L 506.15625 216.234375 L 506.15625 208.84375 M 507.390625 223.628906 L 507.390625 231.019531 L 506.15625 231.019531 L 506.15625 223.628906 M 507.390625 238.414062 L 507.390625 245.804688 L 506.15625 245.804688 L 506.15625 238.414062 M 507.390625 253.199219 L 507.390625 260.589844 L 506.15625 260.589844 L 506.15625 253.199219 M 507.390625 267.984375 L 507.390625 275.375 L 506.15625 275.375 L 506.15625 267.984375 M 507.390625 282.765625 L 507.390625 290.160156 L 506.15625 290.160156 L 506.15625 282.765625 M 507.390625 297.550781 L 507.390625 304.945312 L 506.15625 304.945312 L 506.15625 297.550781 M 507.390625 312.335938 L 507.390625 319.730469 L 506.15625 319.730469 L 506.15625 312.335938 M 507.390625 327.121094 L 507.390625 334.515625 L 506.15625 334.515625 L 506.15625 327.121094 M 507.390625 341.90625 L 507.390625 349.300781 L 506.15625 349.300781 L 506.15625 341.90625 M 507.390625 356.691406 L 507.390625 364.082031 L 506.15625 364.082031 L 506.15625 356.691406 M 507.390625 371.476562 L 507.390625 378.867188 L 506.15625 378.867188 L 506.15625 371.476562 M 507.390625 386.261719 L 507.390625 393.652344 L 506.15625 393.652344 L 506.15625 386.261719 M 507.390625 401.046875 L 507.390625 408.4375 L 506.15625 408.4375 L 506.15625 401.046875 M 507.390625 415.832031 L 507.390625 423.222656 L 506.15625 423.222656 L 506.15625 415.832031 M 507.390625 430.617188 L 507.390625 438.007812 L 506.15625 438.007812 L 506.15625 430.617188 M 507.390625 445.398438 L 507.390625 452.792969 L 506.15625 452.792969 L 506.15625 445.398438 M 507.390625 460.183594 L 507.390625 467.578125 L 506.15625 467.578125 L 506.15625 460.183594 M 507.390625 474.96875 L 507.390625 482.363281 L 506.15625 482.363281 L 506.15625 474.96875 M 507.390625 489.753906 L 507.390625 497.148438 L 506.15625 497.148438 L 506.15625 489.753906 M 507.390625 504.539062 L 507.390625 511.933594 L 506.15625 511.933594 L 506.15625 504.539062 M 507.390625 519.324219 L 507.390625 526.714844 L 506.15625 526.714844 L 506.15625 519.324219 M 507.390625 534.109375 L 507.390625 541.5 L 506.15625 541.5 L 506.15625 534.109375 M 507.390625 548.894531 L 507.390625 556.285156 L 506.15625 556.285156 L 506.15625 548.894531 M 507.390625 563.679688 L 507.390625 571.070312 L 506.15625 571.070312 L 506.15625 563.679688 M 507.390625 578.464844 L 507.390625 585.855469 L 506.15625 585.855469 L 506.15625 578.464844 M 507.390625 593.25 L 507.390625 600.640625 L 506.15625 600.640625 L 506.15625 593.25 M 507.390625 608.03125 L 507.390625 615.425781 L 506.15625 615.425781 L 506.15625 608.03125 M 507.390625 622.816406 L 507.390625 628.71875 L 506.15625 628.71875 L 506.15625 622.816406 " fill-opacity="1" fill-rule="nonzero"/><path fill="#428dcc" d="M 500.625 626.921875 L 506.773438 637.558594 L 512.921875 626.921875 Z M 500.625 626.921875 " fill-opacity="1" fill-rule="nonzero"/><path fill="#428dcc" d="M 513.421875 214.566406 C 512.992188 214.773438 512.640625 215.070312 512.359375 215.453125 C 512.078125 215.839844 511.90625 216.265625 511.835938 216.734375 C 511.757812 217.28125 511.542969 217.765625 511.1875 218.1875 C 510.832031 218.609375 510.394531 218.90625 509.871094 219.074219 C 509.34375 219.246094 508.816406 219.265625 508.28125 219.128906 C 507.742188 218.996094 507.285156 218.734375 506.902344 218.335938 C 506.570312 218 506.179688 217.757812 505.734375 217.613281 C 505.285156 217.464844 504.828125 217.433594 504.359375 217.511719 C 503.820312 217.601562 503.292969 217.546875 502.785156 217.339844 C 502.277344 217.132812 501.863281 216.808594 501.539062 216.363281 C 501.21875 215.917969 501.035156 215.421875 500.996094 214.875 C 500.957031 214.328125 501.066406 213.8125 501.320312 213.328125 C 501.542969 212.90625 501.652344 212.460938 501.652344 211.984375 C 501.652344 211.511719 501.542969 211.0625 501.320312 210.640625 C 501.066406 210.15625 500.957031 209.640625 500.996094 209.09375 C 501.035156 208.546875 501.21875 208.050781 501.539062 207.609375 C 501.863281 207.164062 502.277344 206.839844 502.785156 206.632812 C 503.292969 206.425781 503.820312 206.367188 504.359375 206.460938 C 504.828125 206.535156 505.285156 206.5 505.734375 206.355469 C 506.183594 206.207031 506.570312 205.964844 506.902344 205.628906 C 507.285156 205.230469 507.742188 204.964844 508.277344 204.832031 C 508.8125 204.699219 509.34375 204.71875 509.867188 204.886719 C 510.390625 205.058594 510.832031 205.351562 511.1875 205.773438 C 511.539062 206.195312 511.757812 206.679688 511.835938 207.222656 C 511.902344 207.691406 512.078125 208.117188 512.355469 208.503906 C 512.636719 208.886719 512.988281 209.183594 513.414062 209.390625 C 513.90625 209.632812 514.300781 209.988281 514.589844 210.453125 C 514.882812 210.917969 515.027344 211.425781 515.03125 211.976562 C 515.03125 212.527344 514.886719 213.035156 514.59375 213.5 C 514.304688 213.96875 513.914062 214.324219 513.421875 214.566406 Z M 513.421875 214.566406 " fill-opacity="1" fill-rule="nonzero"/><g clip-path="url(#f6e6196578)"><path fill="#f5f4f4" d="M 99.398438 207.785156 L 99.398438 633.246094 C 99.398438 633.898438 99.367188 634.546875 99.304688 635.191406 C 99.238281 635.839844 99.144531 636.480469 99.015625 637.117188 C 98.890625 637.753906 98.730469 638.386719 98.542969 639.007812 C 98.355469 639.628906 98.136719 640.238281 97.886719 640.839844 C 97.636719 641.441406 97.359375 642.027344 97.054688 642.601562 C 96.746094 643.175781 96.414062 643.730469 96.050781 644.269531 C 95.691406 644.8125 95.300781 645.332031 94.890625 645.835938 C 94.476562 646.335938 94.039062 646.820312 93.582031 647.277344 C 93.121094 647.738281 92.640625 648.171875 92.136719 648.585938 C 91.632812 648.996094 91.113281 649.382812 90.570312 649.746094 C 90.03125 650.105469 89.472656 650.441406 88.898438 650.746094 C 88.324219 651.054688 87.738281 651.332031 87.136719 651.578125 C 86.535156 651.828125 85.925781 652.046875 85.300781 652.234375 C 84.679688 652.425781 84.046875 652.582031 83.410156 652.707031 C 82.773438 652.835938 82.128906 652.929688 81.480469 652.996094 C 80.835938 653.058594 80.1875 653.089844 79.535156 653.089844 C 78.882812 653.089844 78.234375 653.058594 77.589844 652.992188 C 76.941406 652.929688 76.296875 652.835938 75.660156 652.707031 C 75.023438 652.582031 74.390625 652.425781 73.769531 652.234375 C 73.148438 652.046875 72.535156 651.828125 71.933594 651.578125 C 71.332031 651.332031 70.746094 651.054688 70.171875 650.746094 C 69.597656 650.441406 69.039062 650.105469 68.5 649.746094 C 67.957031 649.382812 67.4375 648.996094 66.933594 648.585938 C 66.429688 648.171875 65.949219 647.738281 65.488281 647.277344 C 65.03125 646.820312 64.59375 646.335938 64.179688 645.835938 C 63.769531 645.332031 63.378906 644.8125 63.019531 644.269531 C 62.65625 643.730469 62.324219 643.175781 62.015625 642.601562 C 61.710938 642.027344 61.433594 641.441406 61.183594 640.839844 C 60.933594 640.238281 60.714844 639.628906 60.527344 639.007812 C 60.339844 638.386719 60.179688 637.753906 60.054688 637.117188 C 59.925781 636.480469 59.832031 635.839844 59.765625 635.191406 C 59.703125 634.546875 59.671875 633.898438 59.671875 633.246094 L 59.671875 207.785156 C 59.671875 207.132812 59.703125 206.484375 59.765625 205.839844 C 59.832031 205.191406 59.925781 204.550781 60.054688 203.914062 C 60.179688 203.277344 60.339844 202.644531 60.527344 202.023438 C 60.714844 201.402344 60.933594 200.789062 61.183594 200.191406 C 61.433594 199.589844 61.710938 199.003906 62.015625 198.429688 C 62.324219 197.855469 62.65625 197.300781 63.019531 196.761719 C 63.378906 196.21875 63.769531 195.699219 64.179688 195.195312 C 64.59375 194.695312 65.03125 194.210938 65.488281 193.753906 C 65.949219 193.292969 66.429688 192.859375 66.933594 192.445312 C 67.4375 192.03125 67.957031 191.648438 68.5 191.285156 C 69.039062 190.925781 69.597656 190.589844 70.171875 190.285156 C 70.746094 189.976562 71.332031 189.699219 71.933594 189.453125 C 72.535156 189.203125 73.148438 188.984375 73.769531 188.796875 C 74.390625 188.605469 75.023438 188.449219 75.660156 188.324219 C 76.296875 188.195312 76.941406 188.101562 77.589844 188.035156 C 78.234375 187.972656 78.882812 187.941406 79.535156 187.941406 C 80.1875 187.941406 80.835938 187.972656 81.480469 188.035156 C 82.128906 188.101562 82.773438 188.195312 83.410156 188.324219 C 84.046875 188.449219 84.679688 188.605469 85.300781 188.796875 C 85.925781 188.984375 86.535156 189.203125 87.136719 189.453125 C 87.738281 189.699219 88.324219 189.976562 88.898438 190.285156 C 89.472656 190.589844 90.03125 190.925781 90.570312 191.285156 C 91.113281 191.648438 91.632812 192.03125 92.136719 192.445312 C 92.640625 192.859375 93.121094 193.292969 93.582031 193.753906 C 94.039062 194.210938 94.476562 194.695312 94.890625 195.195312 C 95.300781 195.699219 95.691406 196.21875 96.050781 196.761719 C 96.414062 197.300781 96.746094 197.855469 97.054688 198.429688 C 97.359375 199.003906 97.636719 199.589844 97.886719 200.191406 C 98.136719 200.789062 98.355469 201.402344 98.542969 202.023438 C 98.730469 202.644531 98.890625 203.277344 99.015625 203.914062 C 99.144531 204.550781 99.238281 205.191406 99.304688 205.839844 C 99.367188 206.484375 99.398438 207.132812 99.398438 207.785156 Z M 99.398438 207.785156 " fill-opacity="1" fill-rule="nonzero"/></g><path fill="#428dcc" d="M 80.152344 208.84375 L 80.152344 216.234375 L 78.917969 216.234375 L 78.917969 208.84375 M 80.152344 223.628906 L 80.152344 231.019531 L 78.917969 231.019531 L 78.917969 223.628906 M 80.152344 238.414062 L 80.152344 245.804688 L 78.917969 245.804688 L 78.917969 238.414062 M 80.152344 253.199219 L 80.152344 260.589844 L 78.917969 260.589844 L 78.917969 253.199219 M 80.152344 267.984375 L 80.152344 275.375 L 78.917969 275.375 L 78.917969 267.984375 M 80.152344 282.765625 L 80.152344 290.160156 L 78.917969 290.160156 L 78.917969 282.765625 M 80.152344 297.550781 L 80.152344 304.945312 L 78.917969 304.945312 L 78.917969 297.550781 M 80.152344 312.335938 L 80.152344 319.730469 L 78.917969 319.730469 L 78.917969 312.335938 M 80.152344 327.121094 L 80.152344 334.515625 L 78.917969 334.515625 L 78.917969 327.121094 M 80.152344 341.90625 L 80.152344 349.300781 L 78.917969 349.300781 L 78.917969 341.90625 M 80.152344 356.691406 L 80.152344 364.082031 L 78.917969 364.082031 L 78.917969 356.691406 M 80.152344 371.476562 L 80.152344 378.867188 L 78.917969 378.867188 L 78.917969 371.476562 M 80.152344 386.261719 L 80.152344 393.652344 L 78.917969 393.652344 L 78.917969 386.261719 M 80.152344 401.046875 L 80.152344 408.4375 L 78.917969 408.4375 L 78.917969 401.046875 M 80.152344 415.832031 L 80.152344 423.222656 L 78.917969 423.222656 L 78.917969 415.832031 M 80.152344 430.617188 L 80.152344 438.007812 L 78.917969 438.007812 L 78.917969 430.617188 M 80.152344 445.398438 L 80.152344 452.792969 L 78.917969 452.792969 L 78.917969 445.398438 M 80.152344 460.183594 L 80.152344 467.578125 L 78.917969 467.578125 L 78.917969 460.183594 M 80.152344 474.96875 L 80.152344 482.363281 L 78.917969 482.363281 L 78.917969 474.96875 M 80.152344 489.753906 L 80.152344 497.148438 L 78.917969 497.148438 L 78.917969 489.753906 M 80.152344 504.539062 L 80.152344 511.933594 L 78.917969 511.933594 L 78.917969 504.539062 M 80.152344 519.324219 L 80.152344 526.714844 L 78.917969 526.714844 L 78.917969 519.324219 M 80.152344 534.109375 L 80.152344 541.5 L 78.917969 541.5 L 78.917969 534.109375 M 80.152344 548.894531 L 80.152344 556.285156 L 78.917969 556.285156 L 78.917969 548.894531 M 80.152344 563.679688 L 80.152344 571.070312 L 78.917969 571.070312 L 78.917969 563.679688 M 80.152344 578.464844 L 80.152344 585.855469 L 78.917969 585.855469 L 78.917969 578.464844 M 80.152344 593.25 L 80.152344 600.640625 L 78.917969 600.640625 L 78.917969 593.25 M 80.152344 608.03125 L 80.152344 615.425781 L 78.917969 615.425781 L 78.917969 608.03125 M 80.152344 622.816406 L 80.152344 628.71875 L 78.917969 628.71875 L 78.917969 622.816406 " fill-opacity="1" fill-rule="nonzero"/><path fill="#428dcc" d="M 73.386719 626.921875 L 79.535156 637.558594 L 85.683594 626.921875 Z M 73.386719 626.921875 " fill-opacity="1" fill-rule="nonzero"/><path fill="#428dcc" d="M 86.183594 214.566406 C 85.757812 214.773438 85.402344 215.070312 85.121094 215.453125 C 84.84375 215.839844 84.667969 216.265625 84.597656 216.734375 C 84.519531 217.28125 84.304688 217.765625 83.949219 218.1875 C 83.597656 218.609375 83.15625 218.90625 82.632812 219.074219 C 82.109375 219.246094 81.578125 219.265625 81.042969 219.128906 C 80.507812 218.996094 80.046875 218.734375 79.664062 218.335938 C 79.335938 218 78.945312 217.757812 78.496094 217.613281 C 78.046875 217.464844 77.589844 217.433594 77.125 217.511719 C 76.582031 217.601562 76.058594 217.546875 75.550781 217.339844 C 75.042969 217.132812 74.625 216.808594 74.304688 216.363281 C 73.980469 215.917969 73.800781 215.421875 73.761719 214.875 C 73.71875 214.328125 73.828125 213.8125 74.082031 213.328125 C 74.304688 212.90625 74.417969 212.460938 74.417969 211.984375 C 74.417969 211.511719 74.304688 211.0625 74.082031 210.640625 C 73.828125 210.15625 73.71875 209.640625 73.761719 209.09375 C 73.800781 208.546875 73.980469 208.050781 74.304688 207.609375 C 74.625 207.164062 75.042969 206.839844 75.550781 206.632812 C 76.058594 206.425781 76.582031 206.367188 77.125 206.460938 C 77.589844 206.535156 78.046875 206.5 78.496094 206.355469 C 78.945312 206.207031 79.335938 205.964844 79.664062 205.628906 C 80.046875 205.230469 80.507812 204.964844 81.042969 204.832031 C 81.574219 204.699219 82.105469 204.71875 82.628906 204.886719 C 83.15625 205.058594 83.59375 205.351562 83.949219 205.773438 C 84.304688 206.195312 84.519531 206.679688 84.597656 207.222656 C 84.667969 207.691406 84.839844 208.117188 85.121094 208.503906 C 85.398438 208.886719 85.75 209.183594 86.175781 209.390625 C 86.671875 209.632812 87.0625 209.988281 87.355469 210.453125 C 87.644531 210.917969 87.792969 211.425781 87.792969 211.976562 C 87.792969 212.527344 87.648438 213.035156 87.359375 213.5 C 87.066406 213.96875 86.675781 214.324219 86.183594 214.566406 Z M 86.183594 214.566406 " fill-opacity="1" fill-rule="nonzero"/><g clip-path="url(#2ecdb37d1c)"><path fill="#f5f4f4" d="M 80.394531 614.34375 L 505.859375 614.34375 C 506.507812 614.34375 507.15625 614.375 507.804688 614.441406 C 508.449219 614.503906 509.09375 614.597656 509.730469 614.726562 C 510.367188 614.851562 510.996094 615.011719 511.617188 615.199219 C 512.242188 615.386719 512.851562 615.609375 513.453125 615.855469 C 514.050781 616.105469 514.640625 616.382812 515.210938 616.691406 C 515.785156 616.996094 516.34375 617.332031 516.882812 617.691406 C 517.421875 618.054688 517.945312 618.441406 518.445312 618.851562 C 518.949219 619.265625 519.429688 619.703125 519.890625 620.164062 C 520.347656 620.621094 520.785156 621.105469 521.195312 621.605469 C 521.609375 622.109375 521.996094 622.632812 522.355469 623.171875 C 522.71875 623.714844 523.050781 624.269531 523.359375 624.84375 C 523.664062 625.417969 523.941406 626.003906 524.191406 626.605469 C 524.441406 627.207031 524.660156 627.820312 524.847656 628.441406 C 525.035156 629.0625 525.191406 629.695312 525.320312 630.332031 C 525.445312 630.972656 525.542969 631.613281 525.605469 632.261719 C 525.667969 632.910156 525.703125 633.558594 525.703125 634.207031 C 525.703125 634.859375 525.667969 635.507812 525.605469 636.15625 C 525.542969 636.800781 525.445312 637.445312 525.320312 638.082031 C 525.191406 638.722656 525.035156 639.351562 524.847656 639.972656 C 524.660156 640.597656 524.441406 641.207031 524.191406 641.808594 C 523.941406 642.410156 523.664062 642.996094 523.359375 643.570312 C 523.050781 644.144531 522.71875 644.703125 522.355469 645.242188 C 521.996094 645.785156 521.609375 646.304688 521.195312 646.808594 C 520.785156 647.3125 520.347656 647.792969 519.890625 648.253906 C 519.429688 648.714844 518.949219 649.148438 518.445312 649.5625 C 517.945312 649.976562 517.421875 650.363281 516.882812 650.722656 C 516.34375 651.085938 515.785156 651.417969 515.210938 651.726562 C 514.640625 652.03125 514.050781 652.308594 513.453125 652.558594 C 512.851562 652.808594 512.242188 653.027344 511.617188 653.214844 C 510.996094 653.40625 510.367188 653.5625 509.730469 653.691406 C 509.09375 653.816406 508.449219 653.910156 507.804688 653.976562 C 507.15625 654.039062 506.507812 654.070312 505.859375 654.070312 L 80.394531 654.070312 C 79.746094 654.070312 79.097656 654.039062 78.449219 653.976562 C 77.804688 653.910156 77.160156 653.816406 76.523438 653.691406 C 75.886719 653.5625 75.257812 653.40625 74.636719 653.214844 C 74.011719 653.027344 73.402344 652.808594 72.800781 652.558594 C 72.203125 652.308594 71.613281 652.03125 71.042969 651.726562 C 70.46875 651.417969 69.910156 651.085938 69.371094 650.722656 C 68.832031 650.363281 68.308594 649.976562 67.808594 649.5625 C 67.304688 649.148438 66.824219 648.714844 66.363281 648.253906 C 65.90625 647.792969 65.46875 647.3125 65.058594 646.808594 C 64.644531 646.304688 64.257812 645.785156 63.898438 645.242188 C 63.535156 644.703125 63.203125 644.144531 62.894531 643.570312 C 62.589844 642.996094 62.3125 642.410156 62.0625 641.808594 C 61.816406 641.207031 61.597656 640.597656 61.40625 639.972656 C 61.21875 639.351562 61.0625 638.722656 60.933594 638.082031 C 60.808594 637.445312 60.710938 636.800781 60.648438 636.15625 C 60.585938 635.507812 60.554688 634.859375 60.554688 634.207031 C 60.554688 633.558594 60.585938 632.910156 60.648438 632.261719 C 60.710938 631.613281 60.808594 630.972656 60.933594 630.332031 C 61.0625 629.695312 61.21875 629.0625 61.40625 628.441406 C 61.597656 627.820312 61.816406 627.207031 62.0625 626.605469 C 62.3125 626.003906 62.589844 625.417969 62.894531 624.84375 C 63.203125 624.269531 63.535156 623.714844 63.898438 623.171875 C 64.257812 622.632812 64.644531 622.109375 65.058594 621.605469 C 65.46875 621.105469 65.90625 620.621094 66.363281 620.164062 C 66.824219 619.703125 67.304688 619.265625 67.808594 618.851562 C 68.308594 618.441406 68.832031 618.054688 69.371094 617.691406 C 69.910156 617.332031 70.46875 616.996094 71.042969 616.691406 C 71.613281 616.382812 72.203125 616.105469 72.800781 615.855469 C 73.402344 615.609375 74.011719 615.386719 74.636719 615.199219 C 75.257812 615.011719 75.886719 614.851562 76.523438 614.726562 C 77.160156 614.597656 77.804688 614.503906 78.449219 614.441406 C 79.097656 614.375 79.746094 614.34375 80.394531 614.34375 Z M 80.394531 614.34375 " fill-opacity="1" fill-rule="nonzero"/></g><path fill="#428dcc" d="M 81.453125 633.589844 L 88.847656 633.589844 L 88.847656 634.824219 L 81.453125 634.824219 M 96.238281 633.589844 L 103.632812 633.589844 L 103.632812 634.824219 L 96.238281 634.824219 M 111.023438 633.589844 L 118.417969 633.589844 L 118.417969 634.824219 L 111.023438 634.824219 M 125.808594 633.589844 L 133.203125 633.589844 L 133.203125 634.824219 L 125.808594 634.824219 M 140.59375 633.589844 L 147.988281 633.589844 L 147.988281 634.824219 L 140.59375 634.824219 M 155.378906 633.589844 L 162.769531 633.589844 L 162.769531 634.824219 L 155.378906 634.824219 M 170.164062 633.589844 L 177.554688 633.589844 L 177.554688 634.824219 L 170.164062 634.824219 M 184.949219 633.589844 L 192.339844 633.589844 L 192.339844 634.824219 L 184.949219 634.824219 M 199.734375 633.589844 L 207.125 633.589844 L 207.125 634.824219 L 199.734375 634.824219 M 214.519531 633.589844 L 221.910156 633.589844 L 221.910156 634.824219 L 214.519531 634.824219 M 229.304688 633.589844 L 236.695312 633.589844 L 236.695312 634.824219 L 229.304688 634.824219 M 244.085938 633.589844 L 251.480469 633.589844 L 251.480469 634.824219 L 244.085938 634.824219 M 258.871094 633.589844 L 266.265625 633.589844 L 266.265625 634.824219 L 258.871094 634.824219 M 273.65625 633.589844 L 281.050781 633.589844 L 281.050781 634.824219 L 273.65625 634.824219 M 288.441406 633.589844 L 295.835938 633.589844 L 295.835938 634.824219 L 288.441406 634.824219 M 303.226562 633.589844 L 310.621094 633.589844 L 310.621094 634.824219 L 303.226562 634.824219 M 318.011719 633.589844 L 325.402344 633.589844 L 325.402344 634.824219 L 318.011719 634.824219 M 332.796875 633.589844 L 340.1875 633.589844 L 340.1875 634.824219 L 332.796875 634.824219 M 347.582031 633.589844 L 354.972656 633.589844 L 354.972656 634.824219 L 347.582031 634.824219 M 362.367188 633.589844 L 369.757812 633.589844 L 369.757812 634.824219 L 362.367188 634.824219 M 377.152344 633.589844 L 384.542969 633.589844 L 384.542969 634.824219 L 377.152344 634.824219 M 391.9375 633.589844 L 399.328125 633.589844 L 399.328125 634.824219 L 391.9375 634.824219 M 406.71875 633.589844 L 414.113281 633.589844 L 414.113281 634.824219 L 406.71875 634.824219 M 421.503906 633.589844 L 428.898438 633.589844 L 428.898438 634.824219 L 421.503906 634.824219 M 436.289062 633.589844 L 443.683594 633.589844 L 443.683594 634.824219 L 436.289062 634.824219 M 451.074219 633.589844 L 458.46875 633.589844 L 458.46875 634.824219 L 451.074219 634.824219 M 465.859375 633.589844 L 473.253906 633.589844 L 473.253906 634.824219 L 465.859375 634.824219 M 480.644531 633.589844 L 488.035156 633.589844 L 488.035156 634.824219 L 480.644531 634.824219 M 495.429688 633.589844 L 501.332031 633.589844 L 501.332031 634.824219 L 495.429688 634.824219 " fill-opacity="1" fill-rule="nonzero"/><path fill="#428dcc" d="M 499.53125 640.355469 L 510.171875 634.207031 L 499.53125 628.058594 Z M 499.53125 640.355469 " fill-opacity="1" fill-rule="nonzero"/><path fill="#428dcc" d="M 87.179688 627.558594 C 87.386719 627.988281 87.683594 628.339844 88.066406 628.621094 C 88.449219 628.902344 88.875 629.074219 89.347656 629.144531 C 89.890625 629.222656 90.375 629.4375 90.796875 629.792969 C 91.21875 630.148438 91.515625 630.585938 91.6875 631.109375 C 91.855469 631.636719 91.875 632.164062 91.742188 632.699219 C 91.609375 633.234375 91.34375 633.695312 90.949219 634.078125 C 90.609375 634.410156 90.371094 634.796875 90.222656 635.246094 C 90.078125 635.695312 90.042969 636.152344 90.121094 636.617188 C 90.214844 637.160156 90.15625 637.683594 89.949219 638.195312 C 89.742188 638.703125 89.417969 639.117188 88.972656 639.441406 C 88.53125 639.761719 88.035156 639.945312 87.488281 639.984375 C 86.941406 640.023438 86.425781 639.914062 85.941406 639.660156 C 85.519531 639.4375 85.070312 639.328125 84.597656 639.328125 C 84.121094 639.328125 83.675781 639.4375 83.253906 639.660156 C 82.769531 639.914062 82.253906 640.023438 81.707031 639.984375 C 81.160156 639.945312 80.664062 639.761719 80.21875 639.441406 C 79.773438 639.117188 79.449219 638.703125 79.242188 638.195312 C 79.035156 637.683594 78.980469 637.160156 79.070312 636.617188 C 79.148438 636.152344 79.113281 635.695312 78.964844 635.246094 C 78.820312 634.796875 78.578125 634.410156 78.238281 634.078125 C 77.84375 633.695312 77.578125 633.238281 77.445312 632.703125 C 77.3125 632.167969 77.328125 631.636719 77.5 631.113281 C 77.667969 630.589844 77.964844 630.148438 78.386719 629.792969 C 78.804688 629.4375 79.289062 629.222656 79.835938 629.144531 C 80.304688 629.078125 80.730469 628.902344 81.113281 628.625 C 81.496094 628.34375 81.792969 627.992188 82.003906 627.566406 C 82.246094 627.070312 82.597656 626.679688 83.066406 626.386719 C 83.53125 626.097656 84.039062 625.949219 84.589844 625.949219 C 85.136719 625.949219 85.644531 626.09375 86.113281 626.382812 C 86.582031 626.675781 86.933594 627.066406 87.179688 627.558594 Z M 87.179688 627.558594 " fill-opacity="1" fill-rule="nonzero"/></svg>