<svg xmlns="http://www.w3.org/2000/svg" xmlns:xlink="http://www.w3.org/1999/xlink" width="794" zoomAndPan="magnify" viewBox="0 0 594.95996 842.24997" height="1123" preserveAspectRatio="xMidYMid meet" version="1.0"><defs><clipPath id="fb989277e6"><path d="M 57 202.105469 L 537 202.105469 L 537 638.964844 L 57 638.964844 Z M 57 202.105469 " clip-rule="nonzero"/></clipPath></defs><g clip-path="url(#fb989277e6)"><path fill="#f5f4f4" d="M 525.902344 516.449219 L 368.054688 242.988281 C 367.164062 241.445312 366.222656 239.933594 365.234375 238.453125 C 364.246094 236.96875 363.207031 235.523438 362.125 234.109375 C 361.039062 232.695312 359.910156 231.320312 358.738281 229.980469 C 357.5625 228.640625 356.34375 227.34375 355.085938 226.082031 C 353.828125 224.824219 352.527344 223.605469 351.1875 222.429688 C 349.851562 221.257812 348.472656 220.128906 347.0625 219.042969 C 345.648438 217.957031 344.203125 216.921875 342.722656 215.929688 C 341.242188 214.941406 339.730469 214 338.1875 213.109375 C 336.644531 212.21875 335.074219 211.382812 333.480469 210.59375 C 331.882812 209.804688 330.261719 209.070312 328.613281 208.390625 C 326.96875 207.707031 325.304688 207.078125 323.617188 206.507812 C 321.933594 205.933594 320.230469 205.417969 318.507812 204.957031 C 316.789062 204.496094 315.054688 204.089844 313.308594 203.742188 C 311.5625 203.394531 309.804688 203.105469 308.039062 202.875 C 306.277344 202.640625 304.503906 202.46875 302.726562 202.351562 C 300.949219 202.234375 299.171875 202.175781 297.390625 202.175781 C 295.609375 202.175781 293.832031 202.234375 292.054688 202.351562 C 290.277344 202.46875 288.507812 202.640625 286.742188 202.875 C 284.976562 203.105469 283.21875 203.394531 281.472656 203.742188 C 279.726562 204.089844 277.992188 204.496094 276.273438 204.957031 C 274.554688 205.417969 272.851562 205.933594 271.164062 206.507812 C 269.476562 207.078125 267.8125 207.707031 266.167969 208.390625 C 264.519531 209.070312 262.898438 209.804688 261.304688 210.59375 C 259.707031 211.382812 258.136719 212.21875 256.59375 213.109375 C 255.050781 214 253.539062 214.941406 252.058594 215.929688 C 250.578125 216.921875 249.132812 217.957031 247.71875 219.042969 C 246.308594 220.128906 244.929688 221.257812 243.59375 222.429688 C 242.253906 223.605469 240.953125 224.824219 239.695312 226.082031 C 238.4375 227.34375 237.21875 228.640625 236.046875 229.980469 C 234.871094 231.320312 233.742188 232.695312 232.65625 234.109375 C 231.574219 235.523438 230.539062 236.96875 229.546875 238.453125 C 228.558594 239.933594 227.617188 241.445312 226.726562 242.988281 L 68.867188 516.449219 C 67.082031 519.539062 65.507812 522.734375 64.144531 526.03125 C 62.777344 529.328125 61.636719 532.699219 60.710938 536.144531 C 59.789062 539.589844 59.09375 543.082031 58.628906 546.621094 C 58.164062 550.160156 57.933594 553.710938 57.933594 557.277344 C 57.933594 560.847656 58.167969 564.398438 58.632812 567.9375 C 59.101562 571.472656 59.796875 574.964844 60.71875 578.414062 C 61.644531 581.859375 62.789062 585.230469 64.152344 588.527344 C 65.519531 591.820312 67.09375 595.015625 68.878906 598.105469 C 70.664062 601.195312 72.640625 604.152344 74.8125 606.984375 C 76.984375 609.8125 79.332031 612.488281 81.855469 615.011719 C 84.378906 617.53125 87.054688 619.878906 89.886719 622.050781 C 92.714844 624.222656 95.675781 626.199219 98.765625 627.980469 C 101.855469 629.761719 105.046875 631.335938 108.34375 632.699219 C 111.640625 634.0625 115.011719 635.207031 118.457031 636.128906 C 121.902344 637.046875 125.390625 637.742188 128.929688 638.203125 C 132.464844 638.667969 136.015625 638.898438 139.582031 638.898438 L 455.238281 638.898438 C 458.804688 638.898438 462.359375 638.667969 465.894531 638.203125 C 469.429688 637.742188 472.921875 637.046875 476.367188 636.128906 C 479.8125 635.207031 483.183594 634.0625 486.480469 632.699219 C 489.773438 631.335938 492.96875 629.761719 496.054688 627.980469 C 499.144531 626.199219 502.105469 624.222656 504.9375 622.050781 C 507.765625 619.878906 510.445312 617.53125 512.964844 615.011719 C 515.488281 612.488281 517.835938 609.8125 520.007812 606.984375 C 522.179688 604.152344 524.160156 601.195312 525.945312 598.105469 C 527.726562 595.015625 529.304688 591.820312 530.667969 588.527344 C 532.035156 585.230469 533.179688 581.859375 534.105469 578.414062 C 535.027344 574.964844 535.722656 571.472656 536.1875 567.9375 C 536.65625 564.398438 536.886719 560.847656 536.890625 557.277344 C 536.890625 553.710938 536.65625 550.160156 536.191406 546.621094 C 535.726562 543.082031 535.03125 539.589844 534.109375 536.144531 C 533.1875 532.699219 532.042969 529.328125 530.679688 526.03125 C 529.3125 522.734375 527.742188 519.539062 525.957031 516.449219 Z M 297.335938 557.265625 L 139.582031 557.265625 L 218.460938 420.519531 L 297.335938 283.804688 L 376.214844 420.5625 L 455.089844 557.308594 Z M 297.335938 557.265625 " fill-opacity="1" fill-rule="nonzero"/></g><path fill="#428dcc" d="M 382.824219 330.875 C 383.285156 331.816406 383.941406 332.59375 384.785156 333.207031 C 385.632812 333.824219 386.574219 334.207031 387.609375 334.359375 C 388.199219 334.445312 388.765625 334.605469 389.308594 334.851562 C 389.855469 335.09375 390.355469 335.40625 390.808594 335.792969 C 391.265625 336.175781 391.660156 336.613281 391.992188 337.109375 C 392.324219 337.605469 392.582031 338.132812 392.765625 338.703125 C 392.949219 339.269531 393.050781 339.851562 393.070312 340.445312 C 393.09375 341.042969 393.03125 341.628906 392.886719 342.207031 C 392.742188 342.785156 392.519531 343.332031 392.222656 343.847656 C 391.925781 344.363281 391.5625 344.828125 391.132812 345.242188 C 390.386719 345.976562 389.851562 346.839844 389.527344 347.835938 C 389.207031 348.832031 389.132812 349.84375 389.308594 350.875 C 389.410156 351.460938 389.429688 352.050781 389.367188 352.640625 C 389.304688 353.234375 389.160156 353.804688 388.9375 354.355469 C 388.714844 354.90625 388.417969 355.414062 388.050781 355.882812 C 387.6875 356.351562 387.261719 356.761719 386.78125 357.109375 C 386.300781 357.460938 385.78125 357.738281 385.226562 357.941406 C 384.667969 358.144531 384.089844 358.269531 383.5 358.3125 C 382.90625 358.355469 382.320312 358.316406 381.738281 358.195312 C 381.15625 358.074219 380.601562 357.875 380.074219 357.597656 C 379.148438 357.105469 378.160156 356.863281 377.109375 356.863281 C 376.0625 356.863281 375.074219 357.105469 374.144531 357.597656 C 373.621094 357.875 373.066406 358.074219 372.484375 358.195312 C 371.902344 358.316406 371.316406 358.355469 370.722656 358.3125 C 370.128906 358.269531 369.554688 358.144531 368.996094 357.941406 C 368.4375 357.738281 367.917969 357.460938 367.4375 357.109375 C 366.957031 356.761719 366.535156 356.351562 366.167969 355.882812 C 365.804688 355.414062 365.507812 354.90625 365.285156 354.355469 C 365.0625 353.804688 364.917969 353.234375 364.855469 352.640625 C 364.792969 352.050781 364.8125 351.460938 364.914062 350.875 C 365.089844 349.84375 365.015625 348.828125 364.691406 347.832031 C 364.367188 346.835938 363.828125 345.972656 363.078125 345.242188 C 362.648438 344.828125 362.285156 344.363281 361.984375 343.847656 C 361.6875 343.332031 361.46875 342.78125 361.324219 342.203125 C 361.179688 341.625 361.117188 341.039062 361.136719 340.441406 C 361.160156 339.84375 361.261719 339.265625 361.445312 338.695312 C 361.628906 338.128906 361.890625 337.597656 362.222656 337.105469 C 362.554688 336.609375 362.949219 336.171875 363.40625 335.789062 C 363.863281 335.402344 364.363281 335.089844 364.910156 334.847656 C 365.453125 334.605469 366.023438 334.441406 366.613281 334.359375 C 367.648438 334.207031 368.589844 333.824219 369.433594 333.207031 C 370.28125 332.59375 370.9375 331.816406 371.398438 330.875 C 371.660156 330.34375 371.992188 329.855469 372.390625 329.414062 C 372.789062 328.972656 373.242188 328.59375 373.746094 328.28125 C 374.25 327.964844 374.789062 327.726562 375.359375 327.5625 C 375.933594 327.398438 376.515625 327.316406 377.109375 327.316406 C 377.707031 327.316406 378.289062 327.398438 378.859375 327.5625 C 379.433594 327.726562 379.96875 327.964844 380.476562 328.28125 C 380.980469 328.59375 381.433594 328.972656 381.832031 329.414062 C 382.230469 329.855469 382.558594 330.34375 382.824219 330.875 Z M 382.824219 330.875 " fill-opacity="1" fill-rule="nonzero"/><path fill="#428dcc" d="M 422.160156 415.664062 L 430.324219 429.800781 L 427.96875 431.160156 L 419.804688 417.023438 Z M 438.488281 443.9375 L 446.648438 458.074219 L 444.292969 459.433594 L 436.132812 445.296875 Z M 454.8125 472.210938 L 462.976562 486.347656 L 460.621094 487.710938 L 452.457031 473.570312 Z M 471.140625 500.484375 L 479.300781 514.621094 L 476.945312 515.984375 L 468.785156 501.847656 Z M 487.464844 528.757812 L 491.75 536.179688 C 493.09375 538.511719 494.207031 540.949219 495.082031 543.488281 L 492.511719 544.378906 C 491.691406 542 490.652344 539.722656 489.394531 537.539062 L 485.109375 530.121094 Z M 497.296875 560.117188 C 496.914062 565.808594 495.433594 571.195312 492.867188 576.285156 L 490.4375 575.054688 C 492.84375 570.296875 494.222656 565.257812 494.582031 559.933594 Z M 482.515625 589.484375 C 478.394531 593.046875 473.628906 595.886719 468.21875 598.011719 L 467.226562 595.476562 C 472.347656 593.46875 476.851562 590.785156 480.738281 587.425781 Z M 451.492188 599.441406 L 435.171875 599.441406 L 435.171875 596.722656 L 451.492188 596.722656 Z M 418.855469 599.441406 L 402.535156 599.441406 L 402.535156 596.722656 L 418.855469 596.722656 Z M 386.214844 599.441406 L 369.894531 599.441406 L 369.894531 596.722656 L 386.214844 596.722656 Z M 353.578125 599.441406 L 337.257812 599.441406 L 337.257812 596.722656 L 353.578125 596.722656 Z M 320.9375 599.441406 L 304.617188 599.441406 L 304.617188 596.722656 L 320.9375 596.722656 Z M 288.300781 599.441406 L 271.980469 599.441406 L 271.980469 596.722656 L 288.300781 596.722656 Z M 255.660156 599.441406 L 239.339844 599.441406 L 239.339844 596.722656 L 255.660156 596.722656 Z M 223.023438 599.441406 L 206.703125 599.441406 L 206.703125 596.722656 L 223.023438 596.722656 Z M 190.382812 599.441406 L 174.0625 599.441406 L 174.0625 596.722656 L 190.382812 596.722656 Z M 157.746094 599.441406 L 141.425781 599.441406 L 141.425781 596.722656 L 157.746094 596.722656 Z M 124.78125 597.273438 C 119.46875 594.972656 114.828125 591.949219 110.855469 588.210938 L 112.722656 586.230469 C 116.460938 589.75 120.839844 592.601562 125.863281 594.777344 Z M 101.089844 574.550781 C 98.753906 569.351562 97.523438 563.898438 97.398438 558.191406 L 100.117188 558.132812 C 100.234375 563.46875 101.386719 568.570312 103.570312 573.4375 Z M 100.367188 541.691406 C 101.121094 539.789062 102.007812 537.953125 103.03125 536.179688 L 108.246094 527.144531 L 110.601562 528.503906 L 105.386719 537.539062 C 104.429688 539.199219 103.601562 540.917969 102.894531 542.695312 Z M 116.410156 513.003906 L 124.570312 498.867188 L 126.925781 500.226562 L 118.761719 514.367188 Z M 132.730469 484.730469 L 140.890625 470.589844 L 143.246094 471.953125 L 135.085938 486.089844 Z M 149.050781 456.453125 L 157.210938 442.316406 L 159.566406 443.675781 L 151.40625 457.8125 Z M 165.375 428.175781 L 173.535156 414.039062 L 175.890625 415.398438 L 167.730469 429.539062 Z M 181.695312 399.898438 L 189.855469 385.761719 L 192.210938 387.121094 L 184.050781 401.261719 Z M 198.015625 371.625 L 206.179688 357.484375 L 208.53125 358.847656 L 200.371094 372.984375 Z M 214.339844 343.347656 L 222.5 329.210938 L 224.855469 330.570312 L 216.695312 344.707031 Z M 230.660156 315.070312 L 238.820312 300.933594 L 241.175781 302.292969 L 233.015625 316.433594 Z M 246.980469 286.792969 L 255.144531 272.65625 L 257.5 274.015625 L 249.335938 288.15625 Z M 263.59375 258.582031 C 267.019531 253.976562 271.210938 250.226562 276.167969 247.332031 L 277.539062 249.679688 C 272.902344 252.386719 268.980469 255.894531 265.777344 260.203125 Z M 292.144531 241.914062 C 293.894531 241.691406 295.652344 241.582031 297.417969 241.582031 C 301.289062 241.582031 305.089844 242.105469 308.820312 243.152344 L 308.082031 245.773438 C 304.59375 244.792969 301.039062 244.300781 297.417969 244.300781 C 295.765625 244.300781 294.121094 244.40625 292.484375 244.613281 Z M 323.789062 250.851562 C 327.921875 254.167969 331.3125 258.121094 333.957031 262.714844 L 334.519531 263.695312 L 332.164062 265.058594 L 331.597656 264.074219 C 329.125 259.777344 325.953125 256.078125 322.085938 252.972656 Z M 342.679688 277.835938 L 350.839844 291.972656 L 348.484375 293.335938 L 340.324219 279.195312 Z M 359 306.113281 L 367.160156 320.25 L 364.804688 321.613281 L 356.644531 307.472656 Z M 359 306.113281 " fill-opacity="1" fill-rule="nonzero"/><path fill="#428dcc" d="M 411.230469 426.5625 L 411.230469 399.433594 L 434.71875 412.996094 Z M 411.230469 426.5625 " fill-opacity="1" fill-rule="nonzero"/></svg>