<svg xmlns="http://www.w3.org/2000/svg" xmlns:xlink="http://www.w3.org/1999/xlink" width="794" zoomAndPan="magnify" viewBox="0 0 594.95996 842.24997" height="1123" preserveAspectRatio="xMidYMid meet" version="1.0"><defs><clipPath id="72edb0ed60"><path d="M 57.691406 199.140625 L 537.265625 199.140625 L 537.265625 641.996094 L 57.691406 641.996094 Z M 57.691406 199.140625 " clip-rule="nonzero"/></clipPath></defs><g clip-path="url(#72edb0ed60)"><path fill="#f5f4f4" d="M 477.25 328.476562 C 476.414062 328.109375 475.617188 327.683594 474.851562 327.191406 C 474.085938 326.695312 473.367188 326.148438 472.6875 325.539062 C 472.011719 324.933594 471.386719 324.277344 470.8125 323.570312 C 470.238281 322.863281 469.726562 322.113281 469.269531 321.328125 C 468.816406 320.539062 468.425781 319.71875 468.101562 318.867188 C 467.777344 318.019531 467.523438 317.148438 467.335938 316.257812 C 467.152344 315.367188 467.035156 314.464844 466.992188 313.558594 C 466.949219 312.648438 466.980469 311.742188 467.078125 310.835938 C 467.488281 307.347656 467.710938 303.847656 467.746094 300.335938 C 467.78125 296.824219 467.632812 293.320312 467.296875 289.824219 C 466.960938 286.328125 466.4375 282.859375 465.734375 279.417969 C 465.027344 275.976562 464.140625 272.585938 463.078125 269.238281 C 462.011719 265.890625 460.769531 262.609375 459.355469 259.398438 C 457.941406 256.183594 456.359375 253.050781 454.609375 250.007812 C 452.863281 246.960938 450.960938 244.015625 448.898438 241.171875 C 446.835938 238.328125 444.632812 235.601562 442.28125 232.996094 C 439.910156 230.347656 437.40625 227.832031 434.773438 225.449219 C 432.136719 223.066406 429.382812 220.828125 426.515625 218.730469 C 423.644531 216.636719 420.671875 214.699219 417.601562 212.914062 C 414.527344 211.132812 411.371094 209.515625 408.128906 208.0625 C 404.886719 206.613281 401.574219 205.335938 398.199219 204.230469 C 394.824219 203.125 391.398438 202.203125 387.925781 201.457031 C 384.449219 200.714844 380.949219 200.152344 377.414062 199.777344 C 373.882812 199.398438 370.339844 199.207031 366.789062 199.203125 C 361.496094 199.210938 356.234375 199.636719 351.011719 200.484375 C 345.785156 201.328125 340.660156 202.582031 335.632812 204.246094 C 330.609375 205.910156 325.746094 207.960938 321.046875 210.402344 C 316.347656 212.839844 311.875 215.636719 307.621094 218.789062 C 306.886719 219.324219 306.113281 219.800781 305.304688 220.214844 C 304.496094 220.628906 303.660156 220.976562 302.796875 221.257812 C 301.933594 221.542969 301.050781 221.753906 300.152344 221.894531 C 299.253906 222.039062 298.351562 222.109375 297.445312 222.109375 C 296.535156 222.109375 295.632812 222.039062 294.734375 221.894531 C 293.835938 221.753906 292.957031 221.542969 292.089844 221.257812 C 291.226562 220.976562 290.390625 220.628906 289.582031 220.214844 C 288.773438 219.800781 288 219.324219 287.265625 218.789062 C 283.015625 215.636719 278.539062 212.839844 273.839844 210.402344 C 269.140625 207.960938 264.277344 205.910156 259.253906 204.246094 C 254.226562 202.582031 249.101562 201.328125 243.875 200.484375 C 238.652344 199.636719 233.390625 199.210938 228.097656 199.203125 C 224.546875 199.210938 221.007812 199.402344 217.480469 199.78125 C 213.949219 200.164062 210.449219 200.726562 206.980469 201.472656 C 203.507812 202.21875 200.085938 203.144531 196.710938 204.25 C 193.339844 205.355469 190.03125 206.632812 186.792969 208.085938 C 183.554688 209.539062 180.398438 211.15625 177.328125 212.941406 C 174.257812 214.726562 171.289062 216.664062 168.421875 218.757812 C 165.558594 220.855469 162.808594 223.09375 160.175781 225.476562 C 157.542969 227.863281 155.042969 230.375 152.675781 233.023438 C 150.324219 235.632812 148.121094 238.355469 146.058594 241.199219 C 143.996094 244.042969 142.09375 246.988281 140.347656 250.035156 C 138.597656 253.082031 137.015625 256.210938 135.601562 259.425781 C 134.1875 262.640625 132.945312 265.917969 131.878906 269.265625 C 130.8125 272.613281 129.925781 276.003906 129.21875 279.445312 C 128.511719 282.886719 127.992188 286.355469 127.65625 289.851562 C 127.316406 293.347656 127.164062 296.851562 127.199219 300.363281 C 127.234375 303.875 127.457031 307.375 127.863281 310.863281 C 127.964844 311.769531 127.992188 312.675781 127.949219 313.582031 C 127.902344 314.488281 127.789062 315.386719 127.601562 316.277344 C 127.414062 317.167969 127.160156 318.035156 126.835938 318.886719 C 126.511719 319.734375 126.121094 320.554688 125.667969 321.339844 C 125.210938 322.125 124.699219 322.875 124.125 323.578125 C 123.550781 324.285156 122.925781 324.941406 122.25 325.546875 C 121.574219 326.152344 120.851562 326.699219 120.089844 327.191406 C 119.324219 327.683594 118.527344 328.113281 117.695312 328.476562 C 115.476562 329.453125 113.300781 330.511719 111.160156 331.648438 C 109.019531 332.78125 106.921875 333.992188 104.871094 335.28125 C 102.816406 336.566406 100.8125 337.925781 98.859375 339.359375 C 96.90625 340.789062 95.003906 342.289062 93.160156 343.859375 C 91.3125 345.429688 89.527344 347.0625 87.796875 348.761719 C 86.070312 350.457031 84.40625 352.21875 82.804688 354.035156 C 81.203125 355.855469 79.667969 357.730469 78.203125 359.65625 C 76.738281 361.585938 75.34375 363.566406 74.019531 365.597656 C 72.695312 367.628906 71.449219 369.703125 70.277344 371.824219 C 69.101562 373.945312 68.007812 376.105469 66.992188 378.304688 C 65.972656 380.503906 65.039062 382.738281 64.179688 385.003906 C 63.324219 387.273438 62.550781 389.566406 61.863281 391.890625 C 61.171875 394.214844 60.566406 396.558594 60.046875 398.925781 C 59.527344 401.292969 59.089844 403.675781 58.742188 406.074219 C 58.394531 408.472656 58.132812 410.882812 57.957031 413.296875 C 57.78125 415.714844 57.695312 418.136719 57.695312 420.558594 C 57.695312 422.984375 57.78125 425.402344 57.957031 427.820312 C 58.132812 430.238281 58.394531 432.648438 58.742188 435.046875 C 59.089844 437.445312 59.527344 439.828125 60.046875 442.191406 C 60.566406 444.558594 61.171875 446.90625 61.863281 449.230469 C 62.550781 451.550781 63.324219 453.847656 64.179688 456.113281 C 65.039062 458.382812 65.972656 460.617188 66.992188 462.816406 C 68.007812 465.015625 69.101562 467.175781 70.277344 469.296875 C 71.449219 471.414062 72.695312 473.492188 74.019531 475.523438 C 75.34375 477.550781 76.738281 479.53125 78.203125 481.460938 C 79.667969 483.390625 81.203125 485.265625 82.804688 487.082031 C 84.40625 488.902344 86.070312 490.660156 87.796875 492.359375 C 89.527344 494.058594 91.3125 495.691406 93.160156 497.261719 C 95.003906 498.828125 96.90625 500.328125 98.859375 501.761719 C 100.8125 503.195312 102.816406 504.554688 104.871094 505.839844 C 106.921875 507.125 109.019531 508.335938 111.160156 509.472656 C 113.300781 510.609375 115.476562 511.664062 117.695312 512.644531 C 118.527344 513.007812 119.328125 513.433594 120.09375 513.925781 C 120.859375 514.417969 121.578125 514.964844 122.257812 515.574219 C 122.933594 516.179688 123.5625 516.835938 124.132812 517.542969 C 124.707031 518.246094 125.222656 518.996094 125.675781 519.78125 C 126.132812 520.570312 126.519531 521.390625 126.84375 522.238281 C 127.167969 523.089844 127.425781 523.960938 127.609375 524.851562 C 127.796875 525.742188 127.910156 526.640625 127.953125 527.550781 C 127.996094 528.457031 127.964844 529.363281 127.863281 530.269531 C 127.457031 533.757812 127.234375 537.257812 127.199219 540.769531 C 127.164062 544.28125 127.316406 547.785156 127.652344 551.28125 C 127.992188 554.777344 128.511719 558.246094 129.21875 561.6875 C 129.925781 565.128906 130.808594 568.523438 131.878906 571.867188 C 132.945312 575.214844 134.183594 578.496094 135.601562 581.710938 C 137.015625 584.921875 138.597656 588.054688 140.34375 591.097656 C 142.09375 594.144531 143.996094 597.089844 146.058594 599.933594 C 148.121094 602.777344 150.324219 605.503906 152.675781 608.109375 C 155.042969 610.757812 157.542969 613.273438 160.175781 615.65625 C 162.804688 618.042969 165.554688 620.28125 168.421875 622.378906 C 171.289062 624.472656 174.257812 626.414062 177.324219 628.195312 C 180.394531 629.980469 183.550781 631.597656 186.789062 633.050781 C 190.03125 634.503906 193.335938 635.78125 196.710938 636.886719 C 200.085938 637.992188 203.507812 638.917969 206.976562 639.664062 C 210.449219 640.410156 213.949219 640.972656 217.480469 641.351562 C 221.007812 641.730469 224.546875 641.925781 228.097656 641.929688 C 233.390625 641.921875 238.652344 641.496094 243.875 640.652344 C 249.101562 639.804688 254.226562 638.550781 259.25 636.890625 C 264.277344 635.226562 269.136719 633.175781 273.835938 630.738281 C 278.535156 628.304688 283.011719 625.507812 287.265625 622.359375 C 288 621.820312 288.769531 621.34375 289.582031 620.925781 C 290.390625 620.511719 291.226562 620.160156 292.089844 619.878906 C 292.953125 619.59375 293.835938 619.382812 294.734375 619.238281 C 295.628906 619.09375 296.535156 619.023438 297.445312 619.023438 C 298.351562 619.023438 299.257812 619.09375 300.15625 619.238281 C 301.054688 619.382812 301.933594 619.59375 302.796875 619.878906 C 303.664062 620.160156 304.5 620.511719 305.308594 620.925781 C 306.117188 621.34375 306.886719 621.820312 307.621094 622.359375 C 311.875 625.511719 316.351562 628.304688 321.054688 630.742188 C 325.753906 633.179688 330.617188 635.230469 335.644531 636.890625 C 340.671875 638.554688 345.796875 639.808594 351.023438 640.652344 C 356.25 641.496094 361.507812 641.921875 366.800781 641.929688 C 370.351562 641.921875 373.890625 641.726562 377.421875 641.347656 C 380.953125 640.96875 384.453125 640.40625 387.921875 639.660156 C 391.390625 638.914062 394.8125 637.984375 398.1875 636.878906 C 401.5625 635.773438 404.867188 634.496094 408.105469 633.042969 C 411.347656 631.589844 414.5 629.972656 417.570312 628.1875 C 420.640625 626.40625 423.609375 624.464844 426.476562 622.371094 C 429.34375 620.277344 432.09375 618.039062 434.722656 615.65625 C 437.355469 613.269531 439.855469 610.757812 442.226562 608.109375 C 444.578125 605.503906 446.78125 602.777344 448.84375 599.933594 C 450.902344 597.089844 452.808594 594.144531 454.554688 591.097656 C 456.304688 588.054688 457.882812 584.921875 459.300781 581.707031 C 460.714844 578.496094 461.953125 575.214844 463.019531 571.867188 C 464.085938 568.519531 464.972656 565.128906 465.679688 561.6875 C 466.382812 558.246094 466.902344 554.777344 467.238281 551.28125 C 467.578125 547.785156 467.726562 544.28125 467.691406 540.769531 C 467.65625 537.257812 467.433594 533.757812 467.023438 530.269531 C 466.925781 529.363281 466.898438 528.457031 466.945312 527.550781 C 466.992188 526.640625 467.109375 525.742188 467.296875 524.851562 C 467.488281 523.960938 467.746094 523.09375 468.074219 522.242188 C 468.398438 521.394531 468.792969 520.578125 469.25 519.789062 C 469.707031 519.003906 470.222656 518.257812 470.796875 517.554688 C 471.371094 516.847656 472 516.195312 472.679688 515.589844 C 473.359375 514.984375 474.082031 514.4375 474.847656 513.949219 C 475.613281 513.460938 476.414062 513.03125 477.25 512.671875 C 479.464844 511.695312 481.644531 510.636719 483.785156 509.503906 C 485.925781 508.367188 488.023438 507.15625 490.078125 505.871094 C 492.132812 504.582031 494.136719 503.222656 496.09375 501.792969 C 498.046875 500.359375 499.949219 498.859375 501.796875 497.289062 C 503.644531 495.722656 505.429688 494.089844 507.160156 492.390625 C 508.890625 490.691406 510.554688 488.933594 512.15625 487.113281 C 513.757812 485.296875 515.292969 483.421875 516.761719 481.492188 C 518.226562 479.5625 519.621094 477.582031 520.945312 475.550781 C 522.269531 473.519531 523.519531 471.445312 524.691406 469.324219 C 525.863281 467.203125 526.960938 465.039062 527.976562 462.839844 C 528.996094 460.640625 529.933594 458.40625 530.789062 456.136719 C 531.644531 453.871094 532.417969 451.574219 533.109375 449.25 C 533.800781 446.925781 534.40625 444.582031 534.925781 442.214844 C 535.449219 439.847656 535.882812 437.460938 536.230469 435.0625 C 536.582031 432.664062 536.84375 430.253906 537.015625 427.835938 C 537.191406 425.417969 537.28125 423 537.28125 420.574219 C 537.28125 418.148438 537.191406 415.726562 537.015625 413.308594 C 536.84375 410.890625 536.582031 408.484375 536.230469 406.085938 C 535.882812 403.683594 535.449219 401.300781 534.925781 398.933594 C 534.40625 396.566406 533.800781 394.21875 533.109375 391.898438 C 532.417969 389.574219 531.644531 387.277344 530.789062 385.007812 C 529.933594 382.742188 528.996094 380.507812 527.976562 378.308594 C 526.960938 376.105469 525.863281 373.945312 524.691406 371.824219 C 523.519531 369.703125 522.269531 367.628906 520.945312 365.597656 C 519.621094 363.566406 518.226562 361.585938 516.761719 359.65625 C 515.292969 357.726562 513.757812 355.851562 512.15625 354.035156 C 510.554688 352.214844 508.890625 350.457031 507.160156 348.757812 C 505.429688 347.058594 503.644531 345.425781 501.796875 343.855469 C 499.949219 342.289062 498.046875 340.785156 496.09375 339.355469 C 494.136719 337.921875 492.132812 336.566406 490.078125 335.277344 C 488.023438 333.992188 485.925781 332.78125 483.785156 331.644531 C 481.644531 330.511719 479.464844 329.453125 477.25 328.476562 Z M 443.613281 436.328125 C 441.183594 437.394531 438.800781 438.550781 436.460938 439.804688 C 434.125 441.054688 431.839844 442.398438 429.605469 443.832031 C 427.375 445.265625 425.203125 446.789062 423.09375 448.394531 C 420.980469 450 418.9375 451.6875 416.960938 453.457031 C 414.984375 455.226562 413.082031 457.070312 411.25 458.992188 C 409.417969 460.910156 407.667969 462.902344 405.996094 464.960938 C 404.320312 467.019531 402.734375 469.140625 401.230469 471.328125 C 399.722656 473.511719 398.308594 475.753906 396.984375 478.054688 C 395.65625 480.351562 394.421875 482.699219 393.28125 485.09375 C 392.140625 487.488281 391.097656 489.925781 390.152344 492.40625 C 389.207031 494.886719 388.359375 497.398438 387.609375 499.945312 C 386.863281 502.488281 386.21875 505.0625 385.675781 507.660156 C 385.132812 510.257812 384.691406 512.871094 384.355469 515.503906 C 384.019531 518.136719 383.789062 520.777344 383.664062 523.429688 C 383.539062 526.078125 383.515625 528.730469 383.601562 531.382812 C 383.683594 534.035156 383.875 536.679688 384.167969 539.316406 C 384.335938 540.492188 384.375 541.667969 384.285156 542.847656 C 384.195312 544.027344 383.976562 545.1875 383.632812 546.320312 C 383.289062 547.453125 382.828125 548.535156 382.25 549.566406 C 381.667969 550.601562 380.984375 551.558594 380.195312 552.441406 C 379.347656 553.378906 378.410156 554.222656 377.390625 554.972656 C 376.367188 555.71875 375.28125 556.355469 374.128906 556.882812 C 372.980469 557.40625 371.785156 557.8125 370.550781 558.09375 C 369.316406 558.375 368.066406 558.53125 366.800781 558.554688 C 365 558.539062 363.25 558.234375 361.550781 557.636719 C 359.847656 557.042969 358.289062 556.191406 356.871094 555.082031 C 354.730469 553.515625 352.535156 552.035156 350.28125 550.644531 C 348.023438 549.25 345.71875 547.949219 343.363281 546.742188 C 341.003906 545.53125 338.601562 544.414062 336.15625 543.394531 C 333.710938 542.375 331.230469 541.453125 328.710938 540.628906 C 326.191406 539.804688 323.644531 539.082031 321.070312 538.460938 C 318.492188 537.839844 315.898438 537.320312 313.28125 536.902344 C 310.664062 536.484375 308.035156 536.171875 305.394531 535.960938 C 302.753906 535.753906 300.105469 535.648438 297.457031 535.648438 C 294.808594 535.648438 292.164062 535.753906 289.519531 535.960938 C 286.878906 536.171875 284.25 536.484375 281.632812 536.902344 C 279.019531 537.320312 276.421875 537.839844 273.847656 538.460938 C 271.269531 539.082031 268.722656 539.804688 266.203125 540.628906 C 263.6875 541.453125 261.203125 542.375 258.757812 543.394531 C 256.3125 544.414062 253.910156 545.53125 251.554688 546.742188 C 249.195312 547.949219 246.890625 549.25 244.636719 550.644531 C 242.378906 552.035156 240.183594 553.515625 238.046875 555.082031 C 236.625 556.1875 235.0625 557.039062 233.363281 557.632812 C 231.664062 558.230469 229.914062 558.535156 228.113281 558.554688 C 226.847656 558.53125 225.597656 558.378906 224.367188 558.09375 C 223.132812 557.8125 221.941406 557.410156 220.789062 556.882812 C 219.640625 556.359375 218.554688 555.722656 217.535156 554.972656 C 216.515625 554.222656 215.582031 553.378906 214.734375 552.441406 C 213.941406 551.558594 213.253906 550.601562 212.671875 549.570312 C 212.089844 548.539062 211.625 547.457031 211.28125 546.324219 C 210.9375 545.1875 210.71875 544.03125 210.628906 542.851562 C 210.539062 541.667969 210.578125 540.492188 210.746094 539.316406 C 211.039062 536.679688 211.230469 534.039062 211.3125 531.386719 C 211.398438 528.734375 211.375 526.085938 211.25 523.433594 C 211.125 520.785156 210.890625 518.144531 210.554688 515.511719 C 210.222656 512.882812 209.78125 510.265625 209.238281 507.671875 C 208.695312 505.074219 208.050781 502.503906 207.300781 499.957031 C 206.554688 497.414062 205.707031 494.902344 204.761719 492.421875 C 203.816406 489.945312 202.773438 487.507812 201.632812 485.113281 C 200.492188 482.71875 199.261719 480.371094 197.933594 478.074219 C 196.609375 475.777344 195.195312 473.535156 193.691406 471.351562 C 192.1875 469.167969 190.601562 467.046875 188.929688 464.984375 C 187.257812 462.925781 185.503906 460.9375 183.675781 459.019531 C 181.847656 457.097656 179.945312 455.253906 177.96875 453.484375 C 175.992188 451.714844 173.949219 450.027344 171.839844 448.421875 C 169.730469 446.816406 167.558594 445.296875 165.328125 443.863281 C 163.097656 442.429688 160.8125 441.085938 158.476562 439.832031 C 156.140625 438.578125 153.757812 437.421875 151.328125 436.359375 C 150.566406 436.023438 149.835938 435.632812 149.132812 435.191406 C 148.429688 434.75 147.761719 434.261719 147.128906 433.722656 C 146.492188 433.183594 145.902344 432.605469 145.355469 431.980469 C 144.804688 431.355469 144.304688 430.695312 143.851562 430 C 143.394531 429.304688 142.996094 428.578125 142.644531 427.824219 C 142.296875 427.070312 142.003906 426.292969 141.769531 425.496094 C 141.53125 424.699219 141.355469 423.890625 141.234375 423.066406 C 141.113281 422.246094 141.054688 421.417969 141.054688 420.585938 C 141.054688 419.757812 141.113281 418.929688 141.234375 418.105469 C 141.355469 417.285156 141.53125 416.476562 141.769531 415.679688 C 142.003906 414.882812 142.296875 414.105469 142.644531 413.351562 C 142.996094 412.597656 143.394531 411.871094 143.851562 411.175781 C 144.304688 410.480469 144.804688 409.820312 145.355469 409.195312 C 145.902344 408.570312 146.492188 407.992188 147.128906 407.453125 C 147.761719 406.914062 148.429688 406.425781 149.132812 405.984375 C 149.835938 405.542969 150.566406 405.152344 151.328125 404.816406 C 153.757812 403.753906 156.140625 402.59375 158.476562 401.34375 C 160.8125 400.089844 163.09375 398.746094 165.324219 397.3125 C 167.554688 395.875 169.726562 394.355469 171.835938 392.75 C 173.945312 391.140625 175.984375 389.453125 177.960938 387.6875 C 179.9375 385.917969 181.839844 384.074219 183.667969 382.152344 C 185.496094 380.234375 187.25 378.242188 188.917969 376.183594 C 190.589844 374.125 192.179688 372.003906 193.679688 369.820312 C 195.183594 367.632812 196.597656 365.394531 197.925781 363.09375 C 199.25 360.796875 200.480469 358.453125 201.621094 356.058594 C 202.761719 353.664062 203.804688 351.226562 204.75 348.746094 C 205.695312 346.269531 206.542969 343.757812 207.289062 341.214844 C 208.035156 338.667969 208.679688 336.097656 209.222656 333.5 C 209.765625 330.90625 210.207031 328.292969 210.542969 325.660156 C 210.878906 323.027344 211.109375 320.390625 211.234375 317.738281 C 211.363281 315.089844 211.382812 312.441406 211.300781 309.789062 C 211.214844 307.136719 211.027344 304.492188 210.734375 301.855469 C 210.5625 300.683594 210.519531 299.507812 210.609375 298.324219 C 210.695312 297.144531 210.910156 295.984375 211.25 294.851562 C 211.589844 293.71875 212.050781 292.632812 212.628906 291.597656 C 213.207031 290.566406 213.890625 289.605469 214.679688 288.722656 C 215.527344 287.78125 216.460938 286.941406 217.480469 286.191406 C 218.5 285.445312 219.585938 284.808594 220.738281 284.28125 C 221.886719 283.757812 223.078125 283.351562 224.3125 283.070312 C 225.542969 282.789062 226.792969 282.632812 228.058594 282.605469 C 229.859375 282.625 231.609375 282.933594 233.308594 283.527344 C 235.007812 284.121094 236.570312 284.972656 237.992188 286.082031 C 240.128906 287.644531 242.324219 289.125 244.578125 290.519531 C 246.835938 291.910156 249.140625 293.210938 251.5 294.421875 C 253.855469 295.628906 256.257812 296.746094 258.703125 297.765625 C 261.148438 298.785156 263.628906 299.707031 266.148438 300.53125 C 268.667969 301.355469 271.214844 302.078125 273.789062 302.699219 C 276.367188 303.324219 278.960938 303.84375 281.578125 304.257812 C 284.195312 304.675781 286.824219 304.988281 289.464844 305.199219 C 292.105469 305.410156 294.753906 305.511719 297.402344 305.511719 C 300.050781 305.511719 302.695312 305.410156 305.339844 305.199219 C 307.980469 304.988281 310.609375 304.675781 313.226562 304.257812 C 315.84375 303.84375 318.4375 303.324219 321.015625 302.699219 C 323.589844 302.078125 326.136719 301.355469 328.65625 300.53125 C 331.171875 299.707031 333.65625 298.785156 336.101562 297.765625 C 338.546875 296.746094 340.949219 295.628906 343.304688 294.421875 C 345.664062 293.210938 347.96875 291.910156 350.222656 290.519531 C 352.480469 289.125 354.675781 287.644531 356.8125 286.082031 C 358.234375 284.972656 359.796875 284.121094 361.496094 283.527344 C 363.195312 282.933594 364.945312 282.625 366.746094 282.605469 C 368.011719 282.632812 369.261719 282.789062 370.496094 283.070312 C 371.730469 283.355469 372.921875 283.757812 374.074219 284.285156 C 375.222656 284.808594 376.308594 285.445312 377.332031 286.191406 C 378.355469 286.941406 379.289062 287.785156 380.140625 288.722656 C 380.933594 289.601562 381.625 290.558594 382.207031 291.59375 C 382.792969 292.625 383.261719 293.707031 383.609375 294.84375 C 383.957031 295.976562 384.175781 297.136719 384.273438 298.320312 C 384.367188 299.503906 384.332031 300.683594 384.167969 301.855469 C 383.875 304.492188 383.6875 307.136719 383.601562 309.789062 C 383.519531 312.441406 383.539062 315.089844 383.664062 317.738281 C 383.792969 320.390625 384.023438 323.027344 384.359375 325.660156 C 384.695312 328.292969 385.132812 330.90625 385.675781 333.5 C 386.21875 336.097656 386.867188 338.667969 387.613281 341.214844 C 388.359375 343.757812 389.207031 346.269531 390.152344 348.746094 C 391.097656 351.226562 392.140625 353.664062 393.28125 356.058594 C 394.417969 358.453125 395.652344 360.796875 396.976562 363.09375 C 398.300781 365.394531 399.714844 367.632812 401.21875 369.820312 C 402.722656 372.003906 404.308594 374.125 405.980469 376.183594 C 407.652344 378.242188 409.402344 380.234375 411.234375 382.152344 C 413.0625 384.074219 414.964844 385.917969 416.941406 387.6875 C 418.914062 389.453125 420.957031 391.140625 423.066406 392.75 C 425.175781 394.355469 427.347656 395.875 429.574219 397.3125 C 431.804688 398.746094 434.089844 400.089844 436.425781 401.34375 C 438.761719 402.59375 441.144531 403.753906 443.574219 404.816406 C 444.332031 405.152344 445.066406 405.542969 445.769531 405.984375 C 446.472656 406.425781 447.140625 406.914062 447.773438 407.453125 C 448.40625 407.992188 449 408.570312 449.546875 409.195312 C 450.097656 409.820312 450.597656 410.480469 451.050781 411.175781 C 451.503906 411.871094 451.90625 412.597656 452.253906 413.351562 C 452.605469 414.105469 452.894531 414.882812 453.132812 415.679688 C 453.371094 416.476562 453.546875 417.285156 453.667969 418.105469 C 453.785156 418.929688 453.847656 419.757812 453.847656 420.585938 C 453.847656 421.417969 453.785156 422.246094 453.667969 423.066406 C 453.546875 423.890625 453.371094 424.699219 453.132812 425.496094 C 452.894531 426.292969 452.605469 427.070312 452.253906 427.824219 C 451.90625 428.578125 451.503906 429.304688 451.050781 430 C 450.597656 430.695312 450.097656 431.355469 449.546875 431.980469 C 449 432.605469 448.40625 433.183594 447.773438 433.722656 C 447.140625 434.261719 446.472656 434.75 445.769531 435.191406 C 445.066406 435.632812 444.332031 436.023438 443.574219 436.359375 Z M 443.613281 436.328125 " fill-opacity="1" fill-rule="nonzero"/></g><path fill="#428dcc" d="M 467.777344 472.261719 C 465.570312 473.574219 463.292969 474.75 460.945312 475.785156 C 458.253906 476.972656 455.667969 478.359375 453.1875 479.941406 L 451.691406 477.597656 C 454.292969 475.9375 457 474.488281 459.824219 473.242188 C 462.070312 472.253906 464.246094 471.128906 466.355469 469.871094 Z M 440.769531 490.648438 C 437.15625 494.804688 434.195312 499.382812 431.894531 504.386719 L 429.371094 503.222656 C 431.785156 497.976562 434.886719 493.179688 438.675781 488.824219 Z M 427.253906 519.980469 C 426.527344 524.859375 426.433594 529.75 426.964844 534.652344 C 427.023438 535.203125 427.078125 535.757812 427.125 536.3125 L 424.355469 536.542969 C 424.308594 536.015625 424.257812 535.484375 424.199219 534.949219 C 423.644531 529.8125 423.746094 524.6875 424.503906 519.574219 Z M 426.21875 553.28125 C 425.109375 558.917969 423.210938 564.273438 420.527344 569.34375 L 418.070312 568.042969 C 420.628906 563.214844 422.4375 558.113281 423.492188 552.742188 Z M 410.449219 583.125 C 406.453125 587.214844 401.953125 590.691406 396.953125 593.550781 L 395.574219 591.136719 C 400.351562 588.40625 404.644531 585.085938 408.464844 581.179688 Z M 381.128906 599.898438 C 375.527344 601.28125 369.882812 601.847656 364.191406 601.59375 L 364.316406 598.816406 C 369.738281 599.058594 375.121094 598.519531 380.460938 597.199219 Z M 347.472656 598.363281 C 342.160156 596.503906 337.128906 593.898438 332.375 590.542969 L 333.976562 588.273438 C 338.519531 591.476562 343.324219 593.964844 348.390625 595.738281 Z M 318.152344 582.601562 C 313.027344 580.621094 307.726562 579.402344 302.25 578.941406 L 302.484375 576.171875 C 308.222656 576.652344 313.777344 577.929688 319.152344 580.007812 Z M 286.015625 579.886719 C 280.597656 580.988281 275.441406 582.832031 270.554688 585.417969 L 269.257812 582.960938 C 274.378906 580.25 279.78125 578.316406 285.460938 577.164062 Z M 256.578125 594.257812 C 251.511719 597.054688 246.203125 599.0625 240.660156 600.285156 L 240.0625 597.570312 C 245.34375 596.40625 250.402344 594.492188 255.238281 591.824219 Z M 223.6875 601.488281 C 218.003906 601.0625 212.460938 599.839844 207.050781 597.824219 L 208.023438 595.21875 C 213.183594 597.144531 218.472656 598.308594 223.894531 598.714844 Z M 192.058594 589.730469 C 187.40625 586.320312 183.339844 582.359375 179.851562 577.847656 L 182.050781 576.144531 C 185.378906 580.449219 189.261719 584.230469 193.699219 587.488281 Z M 171.464844 562.964844 C 169.421875 557.648438 168.175781 552.117188 167.726562 546.363281 L 170.5 546.148438 C 170.925781 551.632812 172.109375 556.902344 174.054688 561.964844 Z M 168.25 529.574219 C 168.359375 524.097656 167.699219 518.714844 166.269531 513.425781 L 168.949219 512.699219 C 170.449219 518.242188 171.140625 523.886719 171.027344 529.628906 Z M 159.839844 498.460938 C 156.980469 493.773438 153.519531 489.582031 149.460938 485.886719 L 151.332031 483.832031 C 155.585938 487.703125 159.214844 492.097656 162.210938 497.011719 Z M 135.929688 476.707031 C 135.273438 476.386719 134.613281 476.082031 133.945312 475.785156 C 129.351562 473.757812 125.125 471.273438 121.261719 468.324219 L 122.945312 466.117188 C 126.632812 468.929688 130.671875 471.304688 135.066406 473.242188 C 135.761719 473.550781 136.457031 473.871094 137.144531 474.207031 Z M 109.371094 456.160156 C 106.023438 451.546875 103.390625 446.519531 101.472656 441.082031 L 104.09375 440.15625 C 105.921875 445.339844 108.433594 450.128906 111.621094 454.527344 Z M 98.097656 424.402344 C 97.746094 418.671875 98.175781 413.015625 99.390625 407.429688 L 102.105469 408.023438 C 100.945312 413.355469 100.535156 418.757812 100.871094 424.230469 Z M 105.304688 391.46875 C 108.046875 386.421875 111.449219 381.882812 115.515625 377.851562 L 117.46875 379.828125 C 113.597656 383.664062 110.355469 387.988281 107.746094 392.796875 Z M 129.167969 367.734375 C 130.714844 366.890625 132.308594 366.109375 133.945312 365.390625 C 137.355469 363.882812 140.589844 362.0625 143.648438 359.925781 L 145.238281 362.207031 C 142.035156 364.445312 138.640625 366.355469 135.066406 367.933594 C 133.5 368.625 131.976562 369.371094 130.496094 370.175781 Z M 155.613281 348.730469 C 159.054688 344.4375 161.824219 339.746094 163.917969 334.65625 L 166.488281 335.71875 C 164.289062 341.050781 161.386719 345.96875 157.78125 350.46875 Z M 167.929688 318.878906 C 168.375 314.757812 168.371094 310.632812 167.925781 306.511719 C 167.773438 305.140625 167.667969 303.769531 167.605469 302.40625 L 170.382812 302.28125 C 170.441406 303.585938 170.542969 304.894531 170.6875 306.210938 C 171.15625 310.53125 171.15625 314.855469 170.691406 319.179688 Z M 169.191406 285.488281 C 170.53125 279.910156 172.652344 274.640625 175.550781 269.679688 L 177.949219 271.082031 C 175.1875 275.808594 173.171875 280.824219 171.894531 286.136719 Z M 186.171875 256.332031 C 190.332031 252.402344 194.960938 249.109375 200.0625 246.449219 L 201.347656 248.914062 C 196.472656 251.453125 192.050781 254.601562 188.078125 258.355469 Z M 216.121094 240.730469 C 221.765625 239.570312 227.429688 239.234375 233.105469 239.722656 L 232.867188 242.492188 C 227.457031 242.027344 222.0625 242.347656 216.675781 243.453125 Z M 249.660156 243.632812 C 254.511719 245.558594 259.113281 248.113281 263.46875 251.304688 C 263.785156 251.535156 264.101562 251.761719 264.421875 251.988281 L 262.824219 254.261719 C 262.492188 254.027344 262.160156 253.789062 261.828125 253.550781 C 257.664062 250.496094 253.265625 248.054688 248.636719 246.21875 Z M 278.984375 259.375 C 284.160156 261.132812 289.484375 262.128906 294.945312 262.367188 L 294.824219 265.144531 C 289.097656 264.894531 283.519531 263.851562 278.089844 262.007812 Z M 311.136719 260.765625 C 316.503906 259.449219 321.574219 257.402344 326.351562 254.625 L 327.746094 257.027344 C 322.738281 259.941406 317.421875 262.085938 311.796875 263.464844 Z M 340.441406 245.777344 C 345.605469 243.191406 350.984375 241.402344 356.582031 240.40625 L 357.070312 243.144531 C 351.734375 244.089844 346.609375 245.796875 341.6875 248.265625 Z M 373.605469 239.902344 C 379.269531 240.558594 384.765625 242.003906 390.09375 244.230469 L 389.019531 246.796875 C 383.9375 244.667969 378.691406 243.292969 373.285156 242.664062 Z M 404.757812 252.90625 C 409.273438 256.496094 413.183594 260.617188 416.480469 265.265625 L 414.21875 266.875 C 411.070312 262.441406 407.339844 258.511719 403.027344 255.082031 Z M 424.246094 280.476562 C 426.066406 285.867188 427.082031 291.457031 427.300781 297.246094 L 424.523438 297.347656 C 424.316406 291.832031 423.347656 286.503906 421.613281 281.367188 Z M 426.640625 313.921875 C 426.757812 319.394531 427.632812 324.738281 429.269531 329.960938 L 426.621094 330.792969 C 424.902344 325.320312 423.984375 319.714844 423.863281 313.980469 Z M 436.308594 344.675781 C 439.359375 349.246094 442.984375 353.296875 447.191406 356.824219 L 445.40625 358.957031 C 440.996094 355.253906 437.195312 351.007812 434 346.21875 Z M 436.308594 344.675781 " fill-opacity="1" fill-rule="nonzero"/><path fill="#428dcc" d="M 454.855469 462.433594 L 482.234375 458.125 L 472.273438 483.996094 Z M 454.855469 462.433594 " fill-opacity="1" fill-rule="nonzero"/><path fill="#428dcc" d="M 475.972656 360.449219 C 476.445312 361.410156 477.113281 362.207031 477.980469 362.839844 C 478.847656 363.472656 479.8125 363.863281 480.875 364.019531 C 481.476562 364.105469 482.054688 364.273438 482.613281 364.523438 C 483.167969 364.769531 483.679688 365.089844 484.144531 365.484375 C 484.609375 365.875 485.011719 366.324219 485.351562 366.828125 C 485.691406 367.335938 485.957031 367.878906 486.144531 368.457031 C 486.332031 369.035156 486.433594 369.628906 486.453125 370.238281 C 486.476562 370.847656 486.414062 371.445312 486.265625 372.039062 C 486.117188 372.628906 485.890625 373.1875 485.585938 373.714844 C 485.28125 374.242188 484.910156 374.71875 484.472656 375.140625 C 483.707031 375.886719 483.15625 376.769531 482.824219 377.785156 C 482.492188 378.804688 482.417969 379.839844 482.597656 380.894531 C 482.699219 381.492188 482.71875 382.09375 482.65625 382.699219 C 482.589844 383.300781 482.445312 383.886719 482.214844 384.449219 C 481.988281 385.011719 481.6875 385.53125 481.3125 386.011719 C 480.9375 386.488281 480.507812 386.90625 480.015625 387.265625 C 479.523438 387.621094 478.996094 387.90625 478.425781 388.113281 C 477.855469 388.324219 477.265625 388.449219 476.660156 388.492188 C 476.054688 388.535156 475.457031 388.496094 474.863281 388.371094 C 474.265625 388.25 473.703125 388.042969 473.164062 387.761719 C 472.21875 387.261719 471.210938 387.011719 470.144531 387.011719 C 469.074219 387.011719 468.066406 387.261719 467.121094 387.761719 C 466.582031 388.042969 466.019531 388.246094 465.425781 388.371094 C 464.828125 388.496094 464.230469 388.535156 463.625 388.492188 C 463.019531 388.449219 462.429688 388.324219 461.859375 388.113281 C 461.289062 387.90625 460.761719 387.621094 460.269531 387.265625 C 459.777344 386.90625 459.347656 386.488281 458.972656 386.011719 C 458.597656 385.53125 458.296875 385.011719 458.070312 384.449219 C 457.839844 383.886719 457.695312 383.300781 457.628906 382.699219 C 457.566406 382.09375 457.585938 381.492188 457.6875 380.894531 C 457.867188 379.839844 457.792969 378.804688 457.460938 377.785156 C 457.128906 376.769531 456.578125 375.886719 455.8125 375.140625 C 455.375 374.71875 455.003906 374.242188 454.699219 373.714844 C 454.394531 373.1875 454.167969 372.628906 454.019531 372.039062 C 453.875 371.445312 453.808594 370.847656 453.832031 370.238281 C 453.851562 369.628906 453.957031 369.035156 454.144531 368.457031 C 454.332031 367.878906 454.59375 367.335938 454.933594 366.828125 C 455.273438 366.324219 455.675781 365.875 456.140625 365.484375 C 456.605469 365.089844 457.117188 364.769531 457.671875 364.523438 C 458.230469 364.273438 458.808594 364.105469 459.410156 364.019531 C 460.472656 363.863281 461.4375 363.472656 462.304688 362.839844 C 463.171875 362.207031 463.839844 361.410156 464.316406 360.449219 C 464.582031 359.902344 464.921875 359.40625 465.328125 358.957031 C 465.738281 358.507812 466.199219 358.125 466.710938 357.804688 C 467.226562 357.484375 467.777344 357.242188 468.359375 357.074219 C 468.941406 356.910156 469.535156 356.824219 470.144531 356.824219 C 470.75 356.824219 471.34375 356.910156 471.925781 357.074219 C 472.507812 357.242188 473.058594 357.484375 473.574219 357.804688 C 474.085938 358.125 474.550781 358.507812 474.957031 358.957031 C 475.363281 359.40625 475.703125 359.902344 475.972656 360.449219 Z M 475.972656 360.449219 " fill-opacity="1" fill-rule="nonzero"/></svg>