<svg xmlns="http://www.w3.org/2000/svg" xmlns:xlink="http://www.w3.org/1999/xlink" width="794" zoomAndPan="magnify" viewBox="0 0 594.95996 842.24997" height="1123" preserveAspectRatio="xMidYMid meet" version="1.0"><defs><clipPath id="f21689bf18"><path d="M 59.71875 173.9375 L 535.546875 173.9375 L 535.546875 666.996094 L 59.71875 666.996094 Z M 59.71875 173.9375 " clip-rule="nonzero"/></clipPath></defs><g clip-path="url(#f21689bf18)"><path fill="#f5f4f4" d="M 535.617188 411.777344 C 535.617188 280.632812 428.878906 173.945312 297.667969 173.945312 C 166.457031 173.945312 59.71875 280.632812 59.71875 411.777344 C 59.722656 414.707031 59.964844 417.613281 60.453125 420.503906 C 59.964844 423.390625 59.71875 426.296875 59.71875 429.226562 C 59.71875 560.375 166.457031 667.058594 297.667969 667.058594 C 428.878906 667.058594 535.617188 560.375 535.617188 429.226562 C 535.621094 426.296875 535.382812 423.390625 534.898438 420.503906 C 535.378906 417.613281 535.617188 414.707031 535.617188 411.777344 Z M 297.667969 562.292969 C 295.488281 562.289062 293.308594 562.234375 291.132812 562.125 C 288.957031 562.015625 286.785156 561.851562 284.613281 561.636719 C 282.445312 561.421875 280.285156 561.152344 278.128906 560.832031 C 275.972656 560.507812 273.824219 560.132812 271.6875 559.707031 C 269.550781 559.28125 267.425781 558.800781 265.3125 558.269531 C 263.199219 557.738281 261.097656 557.15625 259.015625 556.523438 C 256.929688 555.890625 254.859375 555.203125 252.808594 554.46875 C 250.757812 553.734375 248.726562 552.949219 246.710938 552.113281 C 244.699219 551.28125 242.707031 550.394531 240.738281 549.464844 C 238.765625 548.53125 236.820312 547.550781 234.898438 546.523438 C 232.976562 545.496094 231.082031 544.421875 229.214844 543.300781 C 227.34375 542.179688 225.503906 541.015625 223.691406 539.804688 C 221.882812 538.59375 220.101562 537.339844 218.347656 536.039062 C 216.597656 534.742188 214.882812 533.402344 213.199219 532.019531 C 211.511719 530.636719 209.863281 529.214844 208.25 527.75 C 206.632812 526.289062 205.054688 524.785156 203.515625 523.246094 C 201.972656 521.707031 200.46875 520.128906 199.007812 518.515625 C 197.542969 516.902344 196.121094 515.25 194.738281 513.566406 C 193.355469 511.882812 192.011719 510.167969 190.714844 508.417969 C 189.414062 506.667969 188.160156 504.886719 186.949219 503.078125 C 185.738281 501.265625 184.570312 499.425781 183.449219 497.558594 C 182.328125 495.691406 181.253906 493.796875 180.226562 491.875 C 179.199219 489.953125 178.21875 488.011719 177.285156 486.042969 C 176.351562 484.074219 175.46875 482.082031 174.632812 480.070312 C 173.796875 478.058594 173.011719 476.027344 172.277344 473.976562 C 171.539062 471.925781 170.855469 469.859375 170.222656 467.773438 C 169.585938 465.6875 169.003906 463.589844 168.472656 461.476562 C 167.941406 459.367188 167.460938 457.242188 167.035156 455.105469 C 166.609375 452.96875 166.234375 450.824219 165.914062 448.667969 C 165.589844 446.515625 165.320312 444.351562 165.105469 442.183594 C 164.890625 440.015625 164.726562 437.84375 164.617188 435.667969 C 164.507812 433.492188 164.453125 431.316406 164.449219 429.136719 C 164.449219 426.210938 164.207031 423.300781 163.71875 420.414062 C 164.203125 417.527344 164.449219 414.621094 164.449219 411.691406 C 164.449219 409.511719 164.503906 407.335938 164.609375 405.15625 C 164.71875 402.980469 164.878906 400.808594 165.089844 398.640625 C 165.304688 396.472656 165.570312 394.308594 165.890625 392.152344 C 166.210938 390 166.585938 387.851562 167.007812 385.714844 C 167.433594 383.578125 167.914062 381.453125 168.441406 379.339844 C 168.972656 377.222656 169.554688 375.125 170.1875 373.039062 C 170.820312 370.953125 171.503906 368.886719 172.238281 366.832031 C 172.972656 364.78125 173.757812 362.75 174.589844 360.734375 C 175.425781 358.722656 176.308594 356.730469 177.238281 354.761719 C 178.171875 352.792969 179.152344 350.84375 180.179688 348.921875 C 181.207031 347 182.28125 345.105469 183.402344 343.238281 C 184.523438 341.367188 185.691406 339.527344 186.902344 337.714844 C 188.113281 335.902344 189.367188 334.121094 190.667969 332.371094 C 191.964844 330.621094 193.304688 328.90625 194.6875 327.21875 C 196.070312 325.535156 197.496094 323.886719 198.960938 322.269531 C 200.425781 320.65625 201.925781 319.078125 203.46875 317.539062 C 205.011719 315.996094 206.589844 314.496094 208.203125 313.03125 C 209.820312 311.566406 211.46875 310.144531 213.15625 308.761719 C 214.839844 307.378906 216.558594 306.039062 218.308594 304.742188 C 220.0625 303.445312 221.84375 302.1875 223.65625 300.976562 C 225.46875 299.769531 227.308594 298.601562 229.179688 297.480469 C 231.050781 296.363281 232.945312 295.289062 234.867188 294.261719 C 236.792969 293.234375 238.738281 292.253906 240.710938 291.320312 C 242.679688 290.390625 244.671875 289.507812 246.6875 288.671875 C 248.703125 287.839844 250.734375 287.054688 252.789062 286.320312 C 254.839844 285.585938 256.910156 284.902344 258.996094 284.269531 C 261.082031 283.640625 263.183594 283.058594 265.296875 282.527344 C 267.414062 282 269.539062 281.523438 271.679688 281.097656 C 273.816406 280.671875 275.964844 280.300781 278.121094 279.980469 C 280.277344 279.660156 282.441406 279.394531 284.609375 279.179688 C 286.78125 278.964844 288.953125 278.804688 291.128906 278.699219 C 293.308594 278.589844 295.488281 278.539062 297.667969 278.539062 C 299.847656 278.539062 302.027344 278.589844 304.203125 278.699219 C 306.382812 278.804688 308.554688 278.964844 310.726562 279.179688 C 312.894531 279.394531 315.058594 279.660156 317.214844 279.980469 C 319.371094 280.300781 321.519531 280.671875 323.65625 281.097656 C 325.796875 281.523438 327.921875 282 330.035156 282.527344 C 332.152344 283.058594 334.25 283.640625 336.339844 284.269531 C 338.425781 284.902344 340.492188 285.585938 342.546875 286.320312 C 344.601562 287.054688 346.632812 287.839844 348.648438 288.671875 C 350.660156 289.507812 352.652344 290.390625 354.625 291.320312 C 356.597656 292.253906 358.542969 293.234375 360.464844 294.261719 C 362.386719 295.289062 364.285156 296.363281 366.15625 297.480469 C 368.023438 298.601562 369.867188 299.769531 371.679688 300.976562 C 373.492188 302.1875 375.273438 303.445312 377.023438 304.742188 C 378.777344 306.039062 380.496094 307.378906 382.179688 308.761719 C 383.863281 310.144531 385.515625 311.566406 387.128906 313.03125 C 388.746094 314.496094 390.324219 315.996094 391.867188 317.539062 C 393.40625 319.078125 394.910156 320.65625 396.375 322.269531 C 397.839844 323.886719 399.261719 325.535156 400.644531 327.21875 C 402.027344 328.90625 403.371094 330.621094 404.667969 332.371094 C 405.96875 334.121094 407.222656 335.902344 408.433594 337.714844 C 409.644531 339.527344 410.8125 341.367188 411.929688 343.238281 C 413.050781 345.105469 414.125 347 415.15625 348.921875 C 416.183594 350.84375 417.164062 352.792969 418.09375 354.761719 C 419.027344 356.730469 419.910156 358.722656 420.742188 360.734375 C 421.578125 362.75 422.363281 364.78125 423.097656 366.832031 C 423.832031 368.886719 424.515625 370.953125 425.148438 373.039062 C 425.78125 375.125 426.363281 377.222656 426.890625 379.339844 C 427.421875 381.453125 427.898438 383.578125 428.324219 385.714844 C 428.75 387.851562 429.121094 390 429.441406 392.152344 C 429.761719 394.308594 430.03125 396.472656 430.242188 398.640625 C 430.457031 400.808594 430.617188 402.980469 430.722656 405.15625 C 430.832031 407.335938 430.882812 409.511719 430.882812 411.691406 C 430.886719 414.621094 431.132812 417.527344 431.617188 420.414062 C 431.128906 423.300781 430.886719 426.210938 430.882812 429.136719 C 430.882812 431.316406 430.828125 433.496094 430.71875 435.671875 C 430.609375 437.847656 430.445312 440.019531 430.230469 442.183594 C 430.015625 444.351562 429.746094 446.515625 429.425781 448.667969 C 429.101562 450.824219 428.730469 452.96875 428.300781 455.105469 C 427.875 457.242188 427.394531 459.367188 426.863281 461.480469 C 426.332031 463.59375 425.75 465.691406 425.117188 467.777344 C 424.484375 469.859375 423.796875 471.925781 423.0625 473.976562 C 422.328125 476.027344 421.542969 478.058594 420.707031 480.074219 C 419.871094 482.085938 418.988281 484.074219 418.054688 486.042969 C 417.121094 488.011719 416.140625 489.957031 415.113281 491.878906 C 414.085938 493.800781 413.011719 495.695312 411.890625 497.5625 C 410.769531 499.429688 409.601562 501.269531 408.390625 503.082031 C 407.179688 504.894531 405.925781 506.671875 404.625 508.421875 C 403.328125 510.171875 401.984375 511.890625 400.601562 513.574219 C 399.21875 515.257812 397.796875 516.90625 396.332031 518.519531 C 394.867188 520.132812 393.367188 521.710938 391.824219 523.25 C 390.285156 524.792969 388.707031 526.292969 387.089844 527.757812 C 385.476562 529.21875 383.828125 530.644531 382.140625 532.023438 C 380.457031 533.40625 378.738281 534.746094 376.988281 536.046875 C 375.238281 537.34375 373.457031 538.597656 371.644531 539.808594 C 369.835938 541.019531 367.992188 542.183594 366.125 543.304688 C 364.253906 544.425781 362.359375 545.5 360.4375 546.527344 C 358.515625 547.554688 356.570312 548.535156 354.601562 549.46875 C 352.628906 550.402344 350.640625 551.285156 348.625 552.121094 C 346.613281 552.953125 344.578125 553.738281 342.527344 554.472656 C 340.476562 555.210938 338.40625 555.894531 336.324219 556.527344 C 334.238281 557.160156 332.136719 557.742188 330.023438 558.273438 C 327.910156 558.804688 325.785156 559.285156 323.648438 559.710938 C 321.507812 560.136719 319.363281 560.511719 317.207031 560.832031 C 315.050781 561.15625 312.890625 561.421875 310.71875 561.636719 C 308.550781 561.855469 306.378906 562.015625 304.203125 562.125 C 302.023438 562.234375 299.847656 562.289062 297.667969 562.292969 Z M 297.667969 562.292969 " fill-opacity="1" fill-rule="nonzero"/></g><path fill="#428dcc" d="M 110.339844 411.777344 C 110.339844 404.804688 110.730469 397.855469 111.511719 390.925781 L 114.980469 391.316406 C 114.214844 398.117188 113.832031 404.9375 113.832031 411.78125 Z M 115.105469 369.882812 C 116.6875 363.003906 118.652344 356.234375 121 349.578125 L 124.292969 350.738281 C 121.988281 357.269531 120.058594 363.914062 118.507812 370.664062 Z M 129.152344 330.0625 C 132.238281 323.710938 135.671875 317.554688 139.453125 311.589844 L 142.402344 313.457031 C 138.691406 319.3125 135.320312 325.351562 132.292969 331.585938 Z M 151.753906 294.421875 C 156.199219 288.902344 160.941406 283.65625 165.980469 278.675781 L 168.433594 281.15625 C 163.488281 286.042969 158.835938 291.195312 154.472656 296.609375 Z M 181.890625 264.644531 C 187.4375 260.285156 193.214844 256.253906 199.214844 252.546875 L 201.050781 255.515625 C 195.160156 259.152344 189.492188 263.109375 184.050781 267.386719 Z M 217.816406 242.46875 C 224.203125 239.457031 230.742188 236.820312 237.429688 234.550781 L 238.550781 237.851562 C 231.988281 240.082031 225.574219 242.671875 219.300781 245.625 Z M 257.800781 228.894531 C 264.773438 227.375 271.8125 226.257812 278.914062 225.542969 L 279.265625 229.015625 C 272.296875 229.71875 265.386719 230.8125 258.542969 232.304688 Z M 299.710938 224.617188 C 306.714844 224.691406 313.695312 225.160156 320.648438 226.019531 L 320.21875 229.480469 C 313.394531 228.636719 306.546875 228.179688 299.671875 228.105469 Z M 341.636719 229.835938 C 348.503906 231.492188 355.257812 233.53125 361.894531 235.953125 L 360.695312 239.230469 C 354.183594 236.855469 347.558594 234.855469 340.820312 233.226562 Z M 381.332031 244.316406 C 387.652344 247.46875 393.773438 250.96875 399.695312 254.8125 L 397.796875 257.738281 C 391.980469 253.964844 385.972656 250.53125 379.773438 247.4375 Z M 416.734375 267.292969 C 422.207031 271.796875 427.40625 276.59375 432.332031 281.6875 L 429.824219 284.113281 C 424.988281 279.113281 419.886719 274.40625 414.515625 269.984375 Z M 446.191406 297.738281 C 450.492188 303.328125 454.464844 309.144531 458.105469 315.1875 L 455.117188 316.988281 C 451.539062 311.058594 447.644531 305.351562 443.421875 299.863281 Z M 467.984375 333.882812 C 470.925781 340.300781 473.496094 346.863281 475.691406 353.570312 L 472.375 354.65625 C 470.21875 348.074219 467.695312 341.632812 464.8125 335.335938 Z M 481.125 373.980469 C 482.570312 380.972656 483.613281 388.027344 484.25 395.140625 L 480.773438 395.453125 C 480.144531 388.472656 479.125 381.550781 477.707031 374.6875 Z M 481.125 373.980469 " fill-opacity="1" fill-rule="nonzero"/><path fill="#428dcc" d="M 113.832031 429.136719 C 113.832031 435.992188 114.214844 442.824219 114.980469 449.636719 L 111.511719 450.027344 C 110.730469 443.085938 110.339844 436.125 110.339844 429.136719 Z M 118.472656 470.164062 C 120.027344 476.945312 121.960938 483.617188 124.273438 490.175781 L 120.980469 491.335938 C 118.625 484.652344 116.65625 477.855469 115.070312 470.945312 Z M 132.25 509.296875 C 135.292969 515.566406 138.679688 521.644531 142.414062 527.53125 L 139.46875 529.402344 C 135.660156 523.402344 132.210938 517.207031 129.109375 510.816406 Z M 154.496094 544.390625 C 158.859375 549.804688 163.511719 554.953125 168.460938 559.839844 L 166.007812 562.320312 C 160.964844 557.34375 156.222656 552.09375 151.777344 546.578125 Z M 184.046875 573.582031 C 189.519531 577.882812 195.214844 581.859375 201.140625 585.511719 L 199.304688 588.480469 C 193.269531 584.761719 187.464844 580.707031 181.890625 576.324219 Z M 219.328125 595.363281 C 225.652344 598.339844 232.121094 600.949219 238.742188 603.1875 L 237.625 606.492188 C 230.878906 604.210938 224.28125 601.554688 217.839844 598.519531 Z M 258.699219 608.710938 C 265.480469 610.179688 272.324219 611.265625 279.230469 611.960938 L 278.878906 615.433594 C 271.84375 614.722656 264.867188 613.617188 257.957031 612.121094 Z M 299.574219 612.878906 C 306.566406 612.808594 313.53125 612.335938 320.472656 611.472656 L 320.90625 614.933594 C 313.832031 615.816406 306.734375 616.292969 299.609375 616.367188 Z M 340.804688 607.761719 C 347.5625 606.132812 354.207031 604.125 360.738281 601.742188 L 361.9375 605.019531 C 355.28125 607.449219 348.511719 609.492188 341.625 611.15625 Z M 379.867188 593.507812 C 386.074219 590.40625 392.082031 586.96875 397.898438 583.1875 L 399.800781 586.113281 C 393.875 589.964844 387.75 593.46875 381.429688 596.628906 Z M 414.683594 570.878906 C 420.042969 566.457031 425.136719 561.75 429.964844 556.75 L 432.476562 559.175781 C 427.558594 564.265625 422.367188 569.066406 416.90625 573.570312 Z M 443.539062 541.003906 C 447.765625 535.5 451.667969 529.773438 455.246094 523.824219 L 458.238281 525.625 C 454.589844 531.683594 450.613281 537.519531 446.308594 543.128906 Z M 464.960938 505.382812 C 467.816406 499.125 470.3125 492.730469 472.449219 486.191406 L 475.765625 487.277344 C 473.589844 493.9375 471.046875 500.457031 468.136719 506.832031 Z M 477.816406 465.921875 C 478.632812 461.933594 479.3125 457.921875 479.863281 453.886719 L 483.320312 454.355469 C 482.761719 458.46875 482.066406 462.554688 481.234375 466.621094 Z M 477.816406 465.921875 " fill-opacity="1" fill-rule="nonzero"/><path fill="#428dcc" d="M 498.277344 460.523438 L 483.25 429.136719 L 463.578125 457.839844 Z M 498.277344 460.523438 " fill-opacity="1" fill-rule="nonzero"/><path fill="#428dcc" d="M 488.519531 377.546875 C 488.816406 378.140625 489.175781 378.691406 489.601562 379.199219 C 490.03125 379.707031 490.511719 380.152344 491.050781 380.542969 C 491.585938 380.933594 492.164062 381.25 492.777344 381.5 C 493.390625 381.75 494.027344 381.921875 494.683594 382.015625 C 495.441406 382.121094 496.167969 382.332031 496.867188 382.644531 C 497.5625 382.957031 498.207031 383.359375 498.789062 383.851562 C 499.375 384.34375 499.882812 384.90625 500.308594 385.539062 C 500.734375 386.175781 501.066406 386.855469 501.300781 387.582031 C 501.539062 388.308594 501.667969 389.054688 501.695312 389.820312 C 501.71875 390.582031 501.640625 391.335938 501.457031 392.078125 C 501.269531 392.820312 500.984375 393.519531 500.601562 394.183594 C 500.21875 394.84375 499.753906 395.441406 499.203125 395.972656 C 498.730469 396.4375 498.316406 396.949219 497.96875 397.511719 C 497.617188 398.074219 497.339844 398.671875 497.136719 399.304688 C 496.929688 399.933594 496.804688 400.578125 496.753906 401.242188 C 496.707031 401.902344 496.738281 402.558594 496.847656 403.210938 C 496.976562 403.964844 497 404.714844 496.914062 405.472656 C 496.832031 406.230469 496.648438 406.960938 496.359375 407.667969 C 496.074219 408.371094 495.695312 409.023438 495.222656 409.621094 C 494.753906 410.222656 494.210938 410.746094 493.59375 411.191406 C 492.976562 411.640625 492.3125 411.996094 491.597656 412.253906 C 490.882812 412.515625 490.144531 412.675781 489.382812 412.730469 C 488.625 412.785156 487.871094 412.734375 487.125 412.578125 C 486.378906 412.421875 485.667969 412.167969 484.996094 411.8125 C 484.410156 411.503906 483.796875 411.269531 483.15625 411.109375 C 482.511719 410.953125 481.859375 410.871094 481.199219 410.871094 C 480.539062 410.871094 479.886719 410.953125 479.242188 411.109375 C 478.601562 411.269531 477.988281 411.503906 477.402344 411.8125 C 476.726562 412.167969 476.019531 412.421875 475.273438 412.578125 C 474.527344 412.734375 473.773438 412.785156 473.015625 412.730469 C 472.253906 412.675781 471.515625 412.515625 470.800781 412.253906 C 470.085938 411.996094 469.421875 411.640625 468.804688 411.191406 C 468.1875 410.746094 467.644531 410.222656 467.175781 409.621094 C 466.703125 409.023438 466.324219 408.371094 466.039062 407.667969 C 465.75 406.960938 465.566406 406.230469 465.484375 405.472656 C 465.398438 404.714844 465.421875 403.964844 465.550781 403.210938 C 465.660156 402.558594 465.691406 401.902344 465.644531 401.242188 C 465.59375 400.578125 465.46875 399.933594 465.261719 399.304688 C 465.058594 398.671875 464.78125 398.074219 464.429688 397.511719 C 464.078125 396.949219 463.667969 396.4375 463.195312 395.972656 C 462.644531 395.441406 462.175781 394.84375 461.796875 394.183594 C 461.414062 393.519531 461.128906 392.820312 460.941406 392.078125 C 460.757812 391.335938 460.675781 390.582031 460.703125 389.820312 C 460.730469 389.054688 460.859375 388.308594 461.097656 387.582031 C 461.332031 386.855469 461.664062 386.175781 462.089844 385.539062 C 462.515625 384.90625 463.023438 384.34375 463.609375 383.851562 C 464.191406 383.359375 464.835938 382.957031 465.53125 382.644531 C 466.230469 382.332031 466.957031 382.121094 467.714844 382.015625 C 468.371094 381.921875 469.007812 381.75 469.621094 381.5 C 470.234375 381.25 470.8125 380.933594 471.347656 380.542969 C 471.886719 380.152344 472.367188 379.707031 472.792969 379.199219 C 473.222656 378.691406 473.582031 378.144531 473.875 377.546875 C 474.214844 376.867188 474.640625 376.242188 475.152344 375.679688 C 475.664062 375.117188 476.242188 374.632812 476.890625 374.230469 C 477.535156 373.832031 478.226562 373.523438 478.957031 373.316406 C 479.691406 373.105469 480.4375 373.003906 481.199219 373.003906 C 481.960938 373.003906 482.707031 373.105469 483.441406 373.316406 C 484.171875 373.523438 484.863281 373.832031 485.507812 374.230469 C 486.15625 374.632812 486.734375 375.117188 487.246094 375.679688 C 487.757812 376.242188 488.183594 376.867188 488.519531 377.546875 Z M 488.519531 377.546875 " fill-opacity="1" fill-rule="nonzero"/></svg>