<svg xmlns="http://www.w3.org/2000/svg" xmlns:xlink="http://www.w3.org/1999/xlink" width="1200" zoomAndPan="magnify" viewBox="0 0 900 899.99999" height="1200" preserveAspectRatio="xMidYMid meet" version="1.0"><defs><clipPath id="b7438b8207"><path d="M 90.007812 211.257812 L 809.992188 211.257812 L 809.992188 688.738281 L 90.007812 688.738281 Z M 90.007812 211.257812 " clip-rule="nonzero"/></clipPath><clipPath id="ba3b1ea42e"><path d="M 158.378906 266.273438 L 741.617188 266.273438 L 741.617188 633.726562 L 158.378906 633.726562 Z M 158.378906 266.273438 " clip-rule="nonzero"/></clipPath><clipPath id="51675e2067"><path d="M 103.875 227.722656 L 145.121094 227.722656 L 145.121094 254.515625 L 103.875 254.515625 Z M 103.875 227.722656 " clip-rule="nonzero"/></clipPath><clipPath id="d6e06b6a67"><path d="M 158.375 637.484375 L 185.167969 637.484375 L 185.167969 678.726562 L 158.375 678.726562 Z M 158.375 637.484375 " clip-rule="nonzero"/></clipPath><clipPath id="965173f1a3"><path d="M 704.8125 220.589844 L 731.605469 220.589844 L 731.605469 261.835938 L 704.8125 261.835938 Z M 704.8125 220.589844 " clip-rule="nonzero"/></clipPath><clipPath id="83308786c6"><path d="M 752.507812 606.929688 L 793.753906 606.929688 L 793.753906 633.722656 L 752.507812 633.722656 Z M 752.507812 606.929688 " clip-rule="nonzero"/></clipPath></defs><g clip-path="url(#b7438b8207)"><path stroke-linecap="butt" transform="matrix(0.75, 0, 0, 0.75, 90.005866, 211.256025)" fill="none" stroke-linejoin="miter" d="M 0.00259575 0.00238341 L 959.981813 0.00238341 L 959.981813 636.643042 L 0.00259575 636.643042 Z M 0.00259575 0.00238341 " stroke="#000000" stroke-width="16" stroke-opacity="1" stroke-miterlimit="4"/></g><g clip-path="url(#ba3b1ea42e)"><path stroke-linecap="butt" transform="matrix(0.75, 0, 0, 0.75, 158.377468, 266.271568)" fill="none" stroke-linejoin="miter" d="M 0.00191805 0.00249311 L 777.653 0.00249311 L 777.653 489.940019 L 0.00191805 489.940019 Z M 0.00191805 0.00249311 " stroke="#000000" stroke-width="16" stroke-opacity="1" stroke-miterlimit="4"/></g><g clip-path="url(#51675e2067)"><path fill="#f1a131" d="M 125.976562 253.769531 L 144.640625 231.078125 C 146.042969 229.367188 144.109375 226.957031 142.136719 227.957031 L 125.328125 236.496094 C 124.746094 236.792969 124.058594 236.792969 123.476562 236.496094 L 106.664062 227.957031 C 104.691406 226.957031 102.757812 229.367188 104.164062 231.074219 L 122.824219 253.769531 C 123.640625 254.761719 125.160156 254.761719 125.976562 253.769531 " fill-opacity="1" fill-rule="nonzero"/></g><g clip-path="url(#d6e06b6a67)"><path fill="#f1a131" d="M 184.421875 656.625 L 161.730469 637.964844 C 160.023438 636.5625 157.613281 638.496094 158.613281 640.46875 L 167.152344 657.277344 C 167.445312 657.859375 167.445312 658.546875 167.152344 659.128906 L 158.613281 675.941406 C 157.609375 677.914062 160.019531 679.847656 161.730469 678.441406 L 184.421875 659.78125 C 185.417969 658.964844 185.417969 657.445312 184.421875 656.625 " fill-opacity="1" fill-rule="nonzero"/></g><g clip-path="url(#965173f1a3)"><path fill="#f1a131" d="M 705.558594 242.691406 L 728.25 261.355469 C 729.960938 262.757812 732.371094 260.824219 731.371094 258.851562 L 722.832031 242.042969 C 722.535156 241.460938 722.535156 240.773438 722.832031 240.191406 L 731.371094 223.378906 C 732.371094 221.40625 729.960938 219.472656 728.253906 220.878906 L 705.558594 239.539062 C 704.566406 240.355469 704.566406 241.875 705.558594 242.691406 " fill-opacity="1" fill-rule="nonzero"/></g><g clip-path="url(#83308786c6)"><path fill="#f1a131" d="M 771.648438 607.675781 L 752.988281 630.367188 C 751.585938 632.074219 753.519531 634.488281 755.492188 633.484375 L 772.300781 624.945312 C 772.882812 624.652344 773.570312 624.652344 774.152344 624.945312 L 790.964844 633.484375 C 792.9375 634.488281 794.871094 632.078125 793.464844 630.367188 L 774.804688 607.675781 C 773.988281 606.683594 772.46875 606.683594 771.648438 607.675781 " fill-opacity="1" fill-rule="nonzero"/></g><path fill="#f1a131" d="M 118.402344 633.726562 L 118.402344 597.726562 L 130.402344 597.726562 L 130.402344 633.726562 M 118.402344 585.726562 L 118.402344 549.726562 L 130.402344 549.726562 L 130.402344 585.726562 M 118.402344 537.726562 L 118.402344 501.726562 L 130.402344 501.726562 L 130.402344 537.726562 M 118.402344 489.726562 L 118.402344 453.726562 L 130.402344 453.726562 L 130.402344 489.726562 M 118.402344 441.726562 L 118.402344 405.726562 L 130.402344 405.726562 L 130.402344 441.726562 M 118.402344 393.726562 L 118.402344 357.726562 L 130.402344 357.726562 L 130.402344 393.726562 M 118.402344 345.726562 L 118.402344 309.726562 L 130.402344 309.726562 L 130.402344 345.726562 M 118.402344 297.726562 L 118.402344 261.726562 L 130.402344 261.726562 L 130.402344 297.726562 " fill-opacity="1" fill-rule="nonzero"/><path fill="#f1a131" d="M 185.167969 652.207031 L 221.167969 652.207031 L 221.167969 664.207031 L 185.167969 664.207031 M 233.167969 652.207031 L 269.167969 652.207031 L 269.167969 664.207031 L 233.167969 664.207031 M 281.167969 652.207031 L 317.167969 652.207031 L 317.167969 664.207031 L 281.167969 664.207031 M 329.167969 652.207031 L 365.167969 652.207031 L 365.167969 664.207031 L 329.167969 664.207031 M 377.167969 652.207031 L 413.167969 652.207031 L 413.167969 664.207031 L 377.167969 664.207031 M 425.167969 652.207031 L 461.167969 652.207031 L 461.167969 664.207031 L 425.167969 664.207031 M 473.167969 652.207031 L 509.167969 652.207031 L 509.167969 664.207031 L 473.167969 664.207031 M 521.167969 652.207031 L 557.167969 652.207031 L 557.167969 664.207031 L 521.167969 664.207031 M 569.167969 652.207031 L 605.167969 652.207031 L 605.167969 664.207031 L 569.167969 664.207031 M 617.167969 652.207031 L 653.167969 652.207031 L 653.167969 664.207031 L 617.167969 664.207031 M 665.167969 652.207031 L 701.167969 652.207031 L 701.167969 664.207031 L 665.167969 664.207031 M 713.167969 652.207031 L 718.210938 652.207031 L 718.210938 664.207031 L 713.167969 664.207031 " fill-opacity="1" fill-rule="nonzero"/><path fill="#f1a131" d="M 185.175781 235.121094 L 221.175781 235.148438 L 221.164062 247.148438 L 185.164062 247.121094 M 233.175781 235.15625 L 269.175781 235.183594 L 269.164062 247.183594 L 233.164062 247.15625 M 281.175781 235.195312 L 317.175781 235.222656 L 317.164062 247.222656 L 281.164062 247.195312 M 329.175781 235.230469 L 365.175781 235.257812 L 365.164062 247.257812 L 329.164062 247.230469 M 377.175781 235.265625 L 413.175781 235.292969 L 413.164062 247.292969 L 377.164062 247.265625 M 425.175781 235.304688 L 461.175781 235.332031 L 461.164062 247.332031 L 425.164062 247.304688 M 473.175781 235.339844 L 509.175781 235.367188 L 509.164062 247.367188 L 473.164062 247.339844 M 521.175781 235.375 L 557.175781 235.40625 L 557.164062 247.40625 L 521.164062 247.375 M 569.175781 235.414062 L 605.175781 235.441406 L 605.164062 247.441406 L 569.164062 247.414062 M 617.175781 235.449219 L 653.175781 235.476562 L 653.164062 247.476562 L 617.164062 247.449219 M 665.175781 235.488281 L 701.175781 235.515625 L 701.164062 247.515625 L 665.164062 247.488281 " fill-opacity="1" fill-rule="nonzero"/><path fill="#f1a131" d="M 779.222656 266.277344 L 779.222656 302.277344 L 767.222656 302.277344 L 767.222656 266.277344 M 779.222656 314.277344 L 779.222656 350.277344 L 767.222656 350.277344 L 767.222656 314.277344 M 779.222656 362.277344 L 779.222656 398.277344 L 767.222656 398.277344 L 767.222656 362.277344 M 779.222656 410.277344 L 779.222656 446.277344 L 767.222656 446.277344 L 767.222656 410.277344 M 779.222656 458.277344 L 779.222656 494.277344 L 767.222656 494.277344 L 767.222656 458.277344 M 779.222656 506.277344 L 779.222656 542.277344 L 767.222656 542.277344 L 767.222656 506.277344 M 779.222656 554.277344 L 779.222656 590.277344 L 767.222656 590.277344 L 767.222656 554.277344 M 779.222656 602.277344 L 779.222656 606.941406 L 767.222656 606.941406 L 767.222656 602.277344 " fill-opacity="1" fill-rule="nonzero"/></svg>