<svg xmlns="http://www.w3.org/2000/svg" xmlns:xlink="http://www.w3.org/1999/xlink" width="1200" zoomAndPan="magnify" viewBox="0 0 900 899.99999" height="1200" preserveAspectRatio="xMidYMid meet" version="1.0"><defs><clipPath id="228ad4a2ca"><path d="M 50.925781 50.925781 L 848.925781 50.925781 L 848.925781 848.925781 L 50.925781 848.925781 Z M 50.925781 50.925781 " clip-rule="nonzero"/></clipPath><clipPath id="28a4e46dec"><path d="M 449.996094 50.925781 L 849.066406 449.996094 L 449.996094 849.066406 L 50.925781 449.996094 Z M 449.996094 50.925781 " clip-rule="nonzero"/></clipPath><clipPath id="c4bc1094b9"><path d="M 148.378906 148.378906 L 751.378906 148.378906 L 751.378906 751.378906 L 148.378906 751.378906 Z M 148.378906 148.378906 " clip-rule="nonzero"/></clipPath><clipPath id="19057eda1d"><path d="M 449.996094 148.378906 L 751.613281 449.996094 L 449.996094 751.613281 L 148.378906 449.996094 Z M 449.996094 148.378906 " clip-rule="nonzero"/></clipPath><clipPath id="b51e7e17e3"><path d="M 430 90 L 464 90 L 464 125 L 430 125 Z M 430 90 " clip-rule="nonzero"/></clipPath><clipPath id="f1288e33d5"><path d="M 464.777344 119.308594 L 445.683594 138.402344 L 416.515625 109.234375 L 435.609375 90.140625 Z M 464.777344 119.308594 " clip-rule="nonzero"/></clipPath><clipPath id="67a19fc4b3"><path d="M 464.777344 119.308594 L 445.683594 138.402344 L 416.515625 109.234375 L 435.609375 90.140625 Z M 464.777344 119.308594 " clip-rule="nonzero"/></clipPath><clipPath id="3cf731e444"><path d="M 464.773438 119.304688 L 445.828125 138.25 L 416.527344 108.949219 L 435.472656 90.003906 Z M 464.773438 119.304688 " clip-rule="nonzero"/></clipPath><clipPath id="03455d92d9"><path d="M 104 450 L 139 450 L 139 485 L 104 485 Z M 104 450 " clip-rule="nonzero"/></clipPath><clipPath id="e6058c7b30"><path d="M 133.394531 450 L 152.488281 469.09375 L 123.320312 498.261719 L 104.226562 479.167969 Z M 133.394531 450 " clip-rule="nonzero"/></clipPath><clipPath id="d926846292"><path d="M 133.394531 450 L 152.488281 469.09375 L 123.320312 498.261719 L 104.226562 479.167969 Z M 133.394531 450 " clip-rule="nonzero"/></clipPath><clipPath id="82ff394b78"><path d="M 133.390625 450.003906 L 152.335938 468.949219 L 123.035156 498.25 L 104.089844 479.304688 Z M 133.390625 450.003906 " clip-rule="nonzero"/></clipPath><clipPath id="935415c517"><path d="M 450 757 L 485 757 L 485 792 L 450 792 Z M 450 757 " clip-rule="nonzero"/></clipPath><clipPath id="5eee0efea8"><path d="M 450.003906 762.824219 L 469.09375 743.734375 L 498.261719 772.902344 L 479.171875 791.992188 Z M 450.003906 762.824219 " clip-rule="nonzero"/></clipPath><clipPath id="db86c46e41"><path d="M 450.003906 762.824219 L 469.09375 743.734375 L 498.261719 772.902344 L 479.171875 791.992188 Z M 450.003906 762.824219 " clip-rule="nonzero"/></clipPath><clipPath id="c1d33ce379"><path d="M 450.007812 762.828125 L 468.953125 743.886719 L 498.253906 773.183594 L 479.308594 792.128906 Z M 450.007812 762.828125 " clip-rule="nonzero"/></clipPath><clipPath id="707be627ee"><path d="M 761 415 L 795 415 L 795 450 L 761 450 Z M 761 415 " clip-rule="nonzero"/></clipPath><clipPath id="ab15c21f06"><path d="M 766.113281 449.992188 L 747.019531 430.898438 L 776.1875 401.730469 L 795.28125 420.824219 Z M 766.113281 449.992188 " clip-rule="nonzero"/></clipPath><clipPath id="dbab1fb422"><path d="M 766.113281 449.992188 L 747.019531 430.898438 L 776.1875 401.730469 L 795.28125 420.824219 Z M 766.113281 449.992188 " clip-rule="nonzero"/></clipPath><clipPath id="be9ae77e5c"><path d="M 766.117188 449.984375 L 747.171875 431.042969 L 776.472656 401.742188 L 795.417969 420.6875 Z M 766.117188 449.984375 " clip-rule="nonzero"/></clipPath></defs><g clip-path="url(#228ad4a2ca)"><g clip-path="url(#28a4e46dec)"><path stroke-linecap="butt" transform="matrix(0.75, 0, 0, 0.75, 50.924033, 50.924314)" fill="none" stroke-linejoin="miter" d="M 532.096109 0.00195615 L 1064.189887 532.095734 L 532.096109 1064.189512 L 0.00233162 532.095734 Z M 532.096109 0.00195615 " stroke="#000000" stroke-width="16" stroke-opacity="1" stroke-miterlimit="4"/></g></g><g clip-path="url(#c4bc1094b9)"><g clip-path="url(#19057eda1d)"><path stroke-linecap="butt" transform="matrix(0.75, 0, 0, 0.75, 148.380643, 148.380715)" fill="none" stroke-linejoin="miter" d="M 402.153956 -0.00241225 L 804.310227 402.153859 L 402.153956 804.31013 L -0.00231518 402.153859 Z M 402.153956 -0.00241225 " stroke="#000000" stroke-width="16" stroke-opacity="1" stroke-miterlimit="4"/></g></g><g clip-path="url(#b51e7e17e3)"><g clip-path="url(#f1288e33d5)"><g clip-path="url(#67a19fc4b3)"><g clip-path="url(#3cf731e444)"><path fill="#f1a131" d="M 432.820312 124.1875 L 462.0625 121.335938 C 464.261719 121.121094 464.597656 118.046875 462.496094 117.363281 L 444.574219 111.511719 C 443.953125 111.3125 443.46875 110.828125 443.265625 110.207031 L 437.414062 92.277344 C 436.726562 90.175781 433.65625 90.511719 433.441406 92.714844 L 430.589844 121.957031 C 430.464844 123.238281 431.539062 124.3125 432.820312 124.1875 " fill-opacity="1" fill-rule="nonzero"/></g></g></g></g><path fill="#f1a131" d="M 99.84375 445.75 L 125.328125 420.320312 L 133.804688 428.816406 L 108.320312 454.246094 M 133.824219 411.84375 L 159.304688 386.417969 L 167.78125 394.910156 L 142.300781 420.339844 M 167.800781 377.941406 L 193.285156 352.511719 L 201.757812 361.007812 L 176.277344 386.433594 M 201.777344 344.035156 L 227.261719 318.609375 L 235.738281 327.101562 L 210.253906 352.53125 M 235.753906 310.132812 L 261.238281 284.703125 L 269.714844 293.195312 L 244.230469 318.625 M 269.734375 276.226562 L 295.214844 250.796875 L 303.691406 259.292969 L 278.207031 284.722656 M 303.710938 242.320312 L 329.191406 216.894531 L 337.667969 225.386719 L 312.1875 250.816406 M 337.6875 208.417969 L 363.171875 182.988281 L 371.648438 191.484375 L 346.164062 216.910156 M 371.664062 174.511719 L 397.148438 149.082031 L 405.625 157.578125 L 380.140625 183.007812 M 405.640625 140.605469 L 426.941406 119.355469 L 435.417969 127.847656 L 414.117188 149.101562 " fill-opacity="1" fill-rule="nonzero"/><g clip-path="url(#03455d92d9)"><g clip-path="url(#e6058c7b30)"><g clip-path="url(#d926846292)"><g clip-path="url(#82ff394b78)"><path fill="#f1a131" d="M 138.273438 481.957031 L 135.425781 452.714844 C 135.207031 450.515625 132.136719 450.179688 131.449219 452.28125 L 125.601562 470.203125 C 125.398438 470.824219 124.914062 471.308594 124.292969 471.511719 L 106.367188 477.363281 C 104.261719 478.050781 104.601562 481.121094 106.800781 481.335938 L 136.042969 484.1875 C 137.324219 484.3125 138.398438 483.238281 138.273438 481.957031 " fill-opacity="1" fill-rule="nonzero"/></g></g></g></g><path fill="#f1a131" d="M 459.832031 814.933594 L 434.402344 789.453125 L 442.898438 780.976562 L 468.324219 806.457031 M 425.925781 780.957031 L 400.496094 755.472656 L 408.992188 747 L 434.421875 772.480469 M 392.019531 746.980469 L 366.59375 721.496094 L 375.085938 713.019531 L 400.515625 738.503906 M 358.117188 713.003906 L 332.6875 687.519531 L 341.183594 679.042969 L 366.609375 704.527344 M 324.210938 679.023438 L 298.785156 653.542969 L 307.277344 645.066406 L 332.707031 670.550781 M 290.308594 645.046875 L 264.878906 619.566406 L 273.371094 611.089844 L 298.800781 636.570312 M 256.402344 611.070312 L 230.972656 585.585938 L 239.46875 577.109375 L 264.898438 602.59375 M 222.496094 577.09375 L 197.070312 551.609375 L 205.5625 543.132812 L 230.992188 568.617188 M 188.59375 543.117188 L 163.164062 517.632812 L 171.660156 509.15625 L 197.085938 534.640625 M 154.6875 509.136719 L 133.433594 487.839844 L 141.929688 479.363281 L 163.183594 500.660156 " fill-opacity="1" fill-rule="nonzero"/><g clip-path="url(#935415c517)"><g clip-path="url(#5eee0efea8)"><g clip-path="url(#db86c46e41)"><g clip-path="url(#c1d33ce379)"><path fill="#f1a131" d="M 481.960938 757.945312 L 452.71875 760.796875 C 450.519531 761.011719 450.179688 764.085938 452.285156 764.769531 L 470.207031 770.621094 C 470.828125 770.820312 471.3125 771.308594 471.515625 771.929688 L 477.367188 789.855469 C 478.050781 791.957031 481.125 791.621094 481.339844 789.417969 L 484.191406 760.175781 C 484.316406 758.898438 483.242188 757.820312 481.960938 757.945312 " fill-opacity="1" fill-rule="nonzero"/></g></g></g></g><path fill="#f1a131" d="M 814.929688 436.394531 L 789.449219 461.820312 L 780.972656 453.328125 L 806.453125 427.898438 M 780.953125 470.296875 L 755.46875 495.726562 L 746.996094 487.230469 L 772.476562 461.804688 M 746.976562 504.203125 L 721.492188 529.628906 L 713.015625 521.136719 L 738.5 495.707031 M 713 538.105469 L 687.515625 563.535156 L 679.039062 555.042969 L 704.523438 529.613281 M 679.019531 572.011719 L 653.539062 597.441406 L 645.0625 588.945312 L 670.546875 563.515625 M 645.042969 605.917969 L 619.5625 631.34375 L 611.085938 622.851562 L 636.566406 597.421875 M 611.066406 639.820312 L 585.582031 665.25 L 577.105469 656.753906 L 602.589844 631.328125 M 577.089844 673.726562 L 551.605469 699.15625 L 543.128906 690.660156 L 568.613281 665.230469 M 543.113281 707.628906 L 517.628906 733.058594 L 509.152344 724.566406 L 534.636719 699.136719 M 509.132812 741.535156 L 487.835938 762.789062 L 479.359375 754.292969 L 500.65625 733.042969 " fill-opacity="1" fill-rule="nonzero"/><g clip-path="url(#707be627ee)"><g clip-path="url(#ab15c21f06)"><g clip-path="url(#dbab1fb422)"><g clip-path="url(#be9ae77e5c)"><path fill="#f1a131" d="M 761.234375 418.035156 L 764.085938 447.273438 C 764.300781 449.476562 767.371094 449.8125 768.058594 447.710938 L 773.90625 429.785156 C 774.109375 429.167969 774.59375 428.679688 775.214844 428.476562 L 793.140625 422.625 C 795.246094 421.941406 794.90625 418.871094 792.707031 418.652344 L 763.464844 415.804688 C 762.183594 415.679688 761.109375 416.753906 761.234375 418.035156 " fill-opacity="1" fill-rule="nonzero"/></g></g></g></g><path fill="#f1a131" d="M 502.539062 144.175781 L 527.78125 169.84375 L 519.222656 178.257812 L 493.980469 152.589844 M 536.195312 178.398438 L 561.4375 204.066406 L 552.878906 212.480469 L 527.636719 186.8125 M 569.851562 212.625 L 595.089844 238.292969 L 586.535156 246.707031 L 561.292969 221.039062 M 603.503906 246.847656 L 628.746094 272.515625 L 620.191406 280.929688 L 594.949219 255.261719 M 637.160156 281.074219 L 662.402344 306.742188 L 653.847656 315.15625 L 628.605469 289.488281 M 670.816406 315.296875 L 696.058594 340.964844 L 687.503906 349.378906 L 662.261719 323.710938 M 704.472656 349.519531 L 729.714844 375.1875 L 721.15625 383.601562 L 695.917969 357.933594 M 738.128906 383.746094 L 763.371094 409.414062 L 754.8125 417.828125 L 729.570312 392.160156 " fill-opacity="1" fill-rule="nonzero"/></svg>