<svg xmlns="http://www.w3.org/2000/svg" xmlns:xlink="http://www.w3.org/1999/xlink" width="1200" zoomAndPan="magnify" viewBox="0 0 900 899.99999" height="1200" preserveAspectRatio="xMidYMid meet" version="1.0"><defs><clipPath id="d525b7b347"><path d="M 39.628906 90.929688 L 860.128906 90.929688 L 860.128906 809.070312 L 39.628906 809.070312 Z M 39.628906 90.929688 " clip-rule="nonzero"/></clipPath><clipPath id="75d23219b2"><path d="M 449.996094 90.929688 L 860.363281 809.070312 L 39.628906 809.070312 Z M 449.996094 90.929688 " clip-rule="nonzero"/></clipPath><clipPath id="4ab22fc746"><path d="M 187.136719 262.03125 L 712.859375 262.03125 L 712.859375 721.78125 L 187.136719 721.78125 Z M 187.136719 262.03125 " clip-rule="nonzero"/></clipPath><clipPath id="c34618a677"><path d="M 450 262.03125 L 712.859375 722.039062 L 187.136719 722.039062 Z M 450 262.03125 " clip-rule="nonzero"/></clipPath><clipPath id="41f6ddc8c2"><path d="M 428 167 L 466 167 L 466 201 L 428 201 Z M 428 167 " clip-rule="nonzero"/></clipPath><clipPath id="2ce5b1b8e8"><path d="M 466.539062 185.554688 L 454.371094 209.660156 L 417.546875 191.074219 L 429.710938 166.96875 Z M 466.539062 185.554688 " clip-rule="nonzero"/></clipPath><clipPath id="c1b1d6b772"><path d="M 466.539062 185.554688 L 454.371094 209.660156 L 417.546875 191.074219 L 429.710938 166.96875 Z M 466.539062 185.554688 " clip-rule="nonzero"/></clipPath><clipPath id="df6ad80c02"><path d="M 466.53125 185.550781 L 454.460938 209.46875 L 417.46875 190.800781 L 429.539062 166.882812 Z M 466.53125 185.550781 " clip-rule="nonzero"/></clipPath><clipPath id="be14ac55fd"><path d="M 160.34375 736.292969 L 187.132812 736.292969 L 187.132812 777.535156 L 160.34375 777.535156 Z M 160.34375 736.292969 " clip-rule="nonzero"/></clipPath><clipPath id="dc824b8cb9"><path d="M 737 701 L 775 701 L 775 735 L 737 735 Z M 737 701 " clip-rule="nonzero"/></clipPath><clipPath id="ece4987f5c"><path d="M 739.242188 735.5625 L 725.582031 712.273438 L 761.160156 691.402344 L 774.824219 714.691406 Z M 739.242188 735.5625 " clip-rule="nonzero"/></clipPath><clipPath id="b00aaefcbb"><path d="M 739.242188 735.5625 L 725.582031 712.273438 L 761.160156 691.402344 L 774.824219 714.691406 Z M 739.242188 735.5625 " clip-rule="nonzero"/></clipPath><clipPath id="689ccee1db"><path d="M 739.246094 735.558594 L 725.691406 712.449219 L 761.433594 691.484375 L 774.988281 714.59375 Z M 739.246094 735.558594 " clip-rule="nonzero"/></clipPath></defs><g clip-path="url(#d525b7b347)"><g clip-path="url(#75d23219b2)"><path stroke-linecap="butt" transform="matrix(0.75, 0, 0, 0.75, 39.628684, 90.928023)" fill="none" stroke-linejoin="miter" d="M 547.156574 0.00221901 L 1094.312853 957.523102 L 0.000295792 957.523102 Z M 547.156574 0.00221901 " stroke="#000000" stroke-width="16" stroke-opacity="1" stroke-miterlimit="4"/></g></g><g clip-path="url(#4ab22fc746)"><g clip-path="url(#c34618a677)"><path stroke-linecap="butt" transform="matrix(0.75, 0, 0, 0.75, 187.136757, 262.030554)" fill="none" stroke-linejoin="miter" d="M 350.484342 0.000927617 L 700.963527 613.34471 L -0.000051542 613.34471 Z M 350.484342 0.000927617 " stroke="#000000" stroke-width="16" stroke-opacity="1" stroke-miterlimit="4"/></g></g><g clip-path="url(#41f6ddc8c2)"><g clip-path="url(#2ce5b1b8e8)"><g clip-path="url(#c1b1d6b772)"><g clip-path="url(#df6ad80c02)"><path fill="#f1a131" d="M 437.707031 200.179688 L 464.589844 188.332031 C 466.617188 187.4375 465.972656 184.414062 463.761719 184.417969 L 444.910156 184.46875 C 444.257812 184.46875 443.644531 184.160156 443.257812 183.632812 L 432.09375 168.4375 C 430.785156 166.652344 427.972656 167.933594 428.457031 170.09375 L 434.890625 198.757812 C 435.171875 200.015625 436.53125 200.699219 437.707031 200.179688 " fill-opacity="1" fill-rule="nonzero"/></g></g></g></g><path fill="#f1a131" d="M 122.277344 733.285156 L 140.277344 702.105469 L 150.667969 708.105469 L 132.667969 739.285156 M 146.277344 691.714844 L 164.277344 660.539062 L 174.667969 666.539062 L 156.667969 697.714844 M 170.277344 650.144531 L 188.277344 618.96875 L 198.667969 624.96875 L 180.667969 656.144531 M 194.277344 608.578125 L 212.277344 577.398438 L 222.667969 583.398438 L 204.667969 614.578125 M 218.277344 567.007812 L 236.277344 535.832031 L 246.667969 541.832031 L 228.667969 573.007812 M 242.277344 525.4375 L 260.277344 494.261719 L 270.667969 500.261719 L 252.667969 531.4375 M 266.277344 483.867188 L 284.277344 452.691406 L 294.667969 458.691406 L 276.667969 489.867188 M 290.277344 442.300781 L 308.277344 411.121094 L 318.667969 417.121094 L 300.667969 448.300781 M 314.277344 400.730469 L 332.277344 369.554688 L 342.667969 375.554688 L 324.667969 406.730469 M 338.277344 359.160156 L 356.277344 327.984375 L 366.667969 333.984375 L 348.667969 365.160156 M 362.277344 317.59375 L 380.277344 286.414062 L 390.667969 292.414062 L 372.667969 323.59375 M 386.277344 276.023438 L 404.277344 244.847656 L 414.667969 250.847656 L 396.667969 282.023438 M 410.277344 234.453125 L 423.484375 211.578125 L 433.875 217.578125 L 420.667969 240.453125 " fill-opacity="1" fill-rule="nonzero"/><g clip-path="url(#be14ac55fd)"><path fill="#f1a131" d="M 186.386719 755.433594 L 163.695312 736.773438 C 161.988281 735.367188 159.578125 737.300781 160.578125 739.273438 L 169.117188 756.082031 C 169.414062 756.664062 169.414062 757.351562 169.117188 757.933594 L 160.578125 774.746094 C 159.574219 776.71875 161.988281 778.652344 163.695312 777.246094 L 186.386719 758.585938 C 187.382812 757.769531 187.382812 756.25 186.386719 755.433594 " fill-opacity="1" fill-rule="nonzero"/></g><path fill="#f1a131" d="M 187.136719 751.011719 L 223.136719 751.011719 L 223.136719 763.011719 L 187.136719 763.011719 M 235.136719 751.011719 L 271.136719 751.011719 L 271.136719 763.011719 L 235.136719 763.011719 M 283.136719 751.011719 L 319.136719 751.011719 L 319.136719 763.011719 L 283.136719 763.011719 M 331.136719 751.011719 L 367.136719 751.011719 L 367.136719 763.011719 L 331.136719 763.011719 M 379.136719 751.011719 L 415.136719 751.011719 L 415.136719 763.011719 L 379.136719 763.011719 M 427.136719 751.011719 L 463.136719 751.011719 L 463.136719 763.011719 L 427.136719 763.011719 M 475.136719 751.011719 L 511.136719 751.011719 L 511.136719 763.011719 L 475.136719 763.011719 M 523.136719 751.011719 L 559.136719 751.011719 L 559.136719 763.011719 L 523.136719 763.011719 M 571.136719 751.011719 L 607.136719 751.011719 L 607.136719 763.011719 L 571.136719 763.011719 M 619.136719 751.011719 L 655.136719 751.011719 L 655.136719 763.011719 L 619.136719 763.011719 M 667.136719 751.011719 L 703.136719 751.011719 L 703.136719 763.011719 L 667.136719 763.011719 M 715.136719 751.011719 L 750.34375 751.011719 L 750.34375 763.011719 L 715.136719 763.011719 " fill-opacity="1" fill-rule="nonzero"/><g clip-path="url(#dc824b8cb9)"><g clip-path="url(#ece4987f5c)"><g clip-path="url(#b00aaefcbb)"><g clip-path="url(#689ccee1db)"><path fill="#f1a131" d="M 742.578125 703.40625 L 737.964844 732.421875 C 737.617188 734.605469 740.507812 735.707031 741.699219 733.84375 L 751.878906 717.976562 C 752.230469 717.425781 752.824219 717.078125 753.476562 717.039062 L 772.296875 715.898438 C 774.507812 715.765625 774.953125 712.707031 772.878906 711.941406 L 745.300781 701.8125 C 744.09375 701.367188 742.78125 702.136719 742.578125 703.40625 " fill-opacity="1" fill-rule="nonzero"/></g></g></g></g><path fill="#f1a131" d="M 738.324219 704.902344 L 720.707031 673.507812 L 731.171875 667.636719 L 748.789062 699.03125 M 714.835938 663.042969 L 697.21875 631.648438 L 707.683594 625.777344 L 725.300781 657.171875 M 691.34375 621.183594 L 673.726562 589.789062 L 684.191406 583.917969 L 701.808594 615.3125 M 667.855469 579.324219 L 650.234375 547.929688 L 660.699219 542.058594 L 678.320312 573.453125 M 644.363281 537.464844 L 626.746094 506.070312 L 637.210938 500.199219 L 654.828125 531.59375 M 620.875 495.605469 L 603.253906 464.210938 L 613.71875 458.339844 L 631.339844 489.734375 M 597.382812 453.746094 L 579.765625 422.351562 L 590.230469 416.480469 L 607.847656 447.875 M 573.894531 411.886719 L 556.273438 380.492188 L 566.738281 374.621094 L 584.359375 406.015625 M 550.402344 370.027344 L 532.785156 338.632812 L 543.25 332.761719 L 560.867188 364.15625 M 526.910156 328.167969 L 509.292969 296.773438 L 519.757812 290.902344 L 537.375 322.296875 M 503.421875 286.308594 L 491.441406 264.960938 L 501.90625 259.089844 L 513.886719 280.4375 " fill-opacity="1" fill-rule="nonzero"/></svg>