<svg xmlns="http://www.w3.org/2000/svg" xmlns:xlink="http://www.w3.org/1999/xlink" width="794" zoomAndPan="magnify" viewBox="0 0 594.95996 842.24997" height="1123" preserveAspectRatio="xMidYMid meet" version="1.0"><defs><clipPath id="2d3fb067ba"><path d="M 56 200.066406 L 539 200.066406 L 539 641.425781 L 56 641.425781 Z M 56 200.066406 " clip-rule="nonzero"/></clipPath></defs><g clip-path="url(#2d3fb067ba)"><path fill="#f5f4f4" d="M 532.042969 391.375 L 435.414062 223.867188 C 434.375 222.070312 433.222656 220.347656 431.960938 218.699219 C 430.699219 217.050781 429.332031 215.496094 427.863281 214.027344 C 426.398438 212.558594 424.839844 211.191406 423.191406 209.929688 C 421.546875 208.664062 419.824219 207.515625 418.027344 206.476562 C 416.230469 205.4375 414.371094 204.523438 412.453125 203.726562 C 410.535156 202.933594 408.574219 202.269531 406.570312 201.734375 C 404.566406 201.195312 402.535156 200.792969 400.476562 200.523438 C 398.421875 200.253906 396.355469 200.117188 394.277344 200.121094 L 201.03125 200.121094 C 198.953125 200.117188 196.886719 200.253906 194.832031 200.523438 C 192.773438 200.792969 190.742188 201.195312 188.738281 201.734375 C 186.734375 202.269531 184.773438 202.933594 182.855469 203.726562 C 180.9375 204.523438 179.078125 205.4375 177.28125 206.476562 C 175.484375 207.515625 173.761719 208.664062 172.117188 209.929688 C 170.46875 211.191406 168.910156 212.558594 167.445312 214.027344 C 165.976562 215.496094 164.609375 217.050781 163.347656 218.699219 C 162.085938 220.347656 160.933594 222.070312 159.894531 223.867188 L 63.25 391.375 C 61.976562 393.578125 60.890625 395.867188 59.988281 398.246094 C 59.085938 400.625 58.382812 403.058594 57.871094 405.550781 C 57.363281 408.042969 57.054688 410.558594 56.953125 413.097656 C 56.847656 415.640625 56.949219 418.171875 57.253906 420.699219 C 56.949219 423.222656 56.847656 425.757812 56.953125 428.296875 C 57.058594 430.839844 57.363281 433.355469 57.871094 435.847656 C 58.382812 438.335938 59.089844 440.773438 59.988281 443.148438 C 60.890625 445.527344 61.976562 447.816406 63.25 450.019531 L 159.894531 617.527344 C 160.933594 619.328125 162.085938 621.050781 163.347656 622.695312 C 164.609375 624.34375 165.976562 625.902344 167.445312 627.371094 C 168.910156 628.839844 170.46875 630.203125 172.117188 631.46875 C 173.761719 632.730469 175.484375 633.882812 177.28125 634.921875 C 179.078125 635.957031 180.9375 636.875 182.855469 637.667969 C 184.773438 638.460938 186.734375 639.128906 188.738281 639.664062 C 190.742188 640.199219 192.773438 640.605469 194.832031 640.875 C 196.886719 641.144531 198.953125 641.277344 201.03125 641.277344 L 394.308594 641.277344 C 396.386719 641.277344 398.453125 641.144531 400.507812 640.875 C 402.566406 640.605469 404.597656 640.199219 406.601562 639.664062 C 408.609375 639.128906 410.570312 638.460938 412.484375 637.667969 C 414.402344 636.875 416.261719 635.957031 418.058594 634.921875 C 419.855469 633.882812 421.578125 632.730469 423.226562 631.46875 C 424.871094 630.203125 426.429688 628.839844 427.894531 627.371094 C 429.363281 625.902344 430.730469 624.34375 431.992188 622.695312 C 433.257812 621.050781 434.40625 619.328125 435.445312 617.527344 L 532.078125 450.019531 C 533.351562 447.820312 534.4375 445.527344 535.34375 443.152344 C 536.246094 440.773438 536.957031 438.339844 537.46875 435.847656 C 537.980469 433.355469 538.289062 430.839844 538.394531 428.300781 C 538.503906 425.757812 538.40625 423.222656 538.105469 420.699219 C 538.402344 418.171875 538.5 415.636719 538.390625 413.09375 C 538.28125 410.554688 537.96875 408.035156 537.453125 405.546875 C 536.9375 403.054688 536.226562 400.621094 535.320312 398.242188 C 534.414062 395.867188 533.320312 393.578125 532.042969 391.375 Z M 366.910156 546.28125 L 228.429688 546.28125 L 155.972656 420.699219 L 228.429688 295.113281 L 366.910156 295.113281 L 439.351562 420.699219 Z M 366.910156 546.28125 " fill-opacity="1" fill-rule="nonzero"/></g><path fill="#428dcc" d="M 103.679688 425.480469 L 113.171875 441.933594 L 110.433594 443.515625 L 100.9375 427.0625 Z M 122.664062 458.386719 L 132.160156 474.839844 L 129.417969 476.421875 L 119.925781 459.96875 Z M 141.652344 491.292969 L 151.144531 507.746094 L 148.40625 509.328125 L 138.910156 492.875 Z M 160.636719 524.199219 L 170.132812 540.652344 L 167.390625 542.234375 L 157.898438 525.78125 Z M 179.625 557.105469 L 189.117188 573.558594 L 186.378906 575.140625 L 176.882812 558.6875 Z M 198.609375 590.011719 L 200.328125 592.988281 L 198.957031 593.777344 L 198.957031 592.195312 L 214.507812 592.195312 L 214.507812 595.363281 L 198.042969 595.363281 L 195.871094 591.59375 Z M 233.492188 592.195312 L 252.476562 592.195312 L 252.476562 595.363281 L 233.492188 595.363281 Z M 271.460938 592.195312 L 290.449219 592.195312 L 290.449219 595.363281 L 271.460938 595.363281 Z M 309.433594 592.195312 L 328.417969 592.195312 L 328.417969 595.363281 L 309.433594 595.363281 Z M 347.402344 592.195312 L 366.386719 592.195312 L 366.386719 595.363281 L 347.402344 595.363281 Z M 385.371094 592.195312 L 392.222656 592.195312 L 392.222656 593.777344 L 390.851562 592.988281 L 396.917969 582.472656 L 399.660156 584.054688 L 393.136719 595.363281 L 385.371094 595.363281 Z M 406.410156 566.019531 L 415.90625 549.566406 L 418.644531 551.148438 L 409.152344 567.601562 Z M 425.398438 533.109375 L 434.890625 516.65625 L 437.628906 518.242188 L 428.136719 534.695312 Z M 444.382812 500.203125 L 453.875 483.75 L 456.613281 485.335938 L 447.121094 501.789062 Z M 444.382812 500.203125 " fill-opacity="1" fill-rule="nonzero"/><path fill="#428dcc" d="M 473.585938 484.328125 L 473.570312 452.757812 L 446.25 468.542969 Z M 473.585938 484.328125 " fill-opacity="1" fill-rule="nonzero"/><path fill="#428dcc" d="M 100.9375 412.75 L 110.433594 396.296875 L 113.171875 397.878906 L 103.679688 414.332031 Z M 119.925781 379.84375 L 129.417969 363.390625 L 132.160156 364.972656 L 122.664062 381.425781 Z M 138.910156 346.9375 L 148.40625 330.484375 L 151.144531 332.066406 L 141.652344 348.519531 Z M 157.898438 314.03125 L 167.390625 297.578125 L 170.132812 299.160156 L 160.636719 315.613281 Z M 176.882812 281.125 L 186.378906 264.671875 L 189.117188 266.253906 L 179.625 282.707031 Z M 195.871094 248.21875 L 198.042969 244.453125 L 214.507812 244.453125 L 214.507812 247.617188 L 198.957031 247.617188 L 198.957031 246.035156 L 200.328125 246.824219 L 198.609375 249.800781 Z M 233.492188 244.453125 L 252.476562 244.453125 L 252.476562 247.617188 L 233.492188 247.617188 Z M 271.460938 244.453125 L 290.449219 244.453125 L 290.449219 247.617188 L 271.460938 247.617188 Z M 309.433594 244.453125 L 328.417969 244.453125 L 328.417969 247.617188 L 309.433594 247.617188 Z M 347.402344 244.453125 L 366.386719 244.453125 L 366.386719 247.617188 L 347.402344 247.617188 Z M 385.371094 244.453125 L 393.136719 244.453125 L 399.660156 255.757812 L 396.917969 257.34375 L 390.851562 246.824219 L 392.222656 246.035156 L 392.222656 247.617188 L 385.371094 247.617188 Z M 409.152344 272.210938 L 418.644531 288.667969 L 415.902344 290.25 L 406.410156 273.796875 Z M 428.132812 305.121094 L 437.625 321.574219 L 434.886719 323.15625 L 425.394531 306.703125 Z M 447.117188 338.027344 L 456.609375 354.480469 L 453.871094 356.066406 L 444.378906 339.609375 Z M 466.101562 370.9375 L 475.59375 387.390625 L 472.855469 388.972656 L 463.363281 372.519531 Z M 485.085938 403.84375 L 490.222656 412.75 L 487.484375 414.332031 L 482.347656 405.425781 Z M 485.085938 403.84375 " fill-opacity="1" fill-rule="nonzero"/><path fill="#428dcc" d="M 489.171875 394.6875 C 489.710938 395.78125 490.476562 396.6875 491.460938 397.402344 C 492.449219 398.121094 493.546875 398.566406 494.753906 398.738281 C 495.441406 398.835938 496.101562 399.027344 496.734375 399.308594 C 497.367188 399.59375 497.949219 399.957031 498.476562 400.40625 C 499.007812 400.851562 499.46875 401.363281 499.855469 401.9375 C 500.242188 402.515625 500.539062 403.132812 500.753906 403.792969 C 500.96875 404.453125 501.085938 405.128906 501.109375 405.820312 C 501.132812 406.515625 501.0625 407.199219 500.894531 407.871094 C 500.726562 408.542969 500.46875 409.179688 500.121094 409.78125 C 499.773438 410.382812 499.351562 410.921875 498.851562 411.40625 C 497.980469 412.253906 497.355469 413.257812 496.976562 414.417969 C 496.597656 415.578125 496.511719 416.757812 496.71875 417.960938 C 496.832031 418.640625 496.855469 419.324219 496.777344 420.011719 C 496.703125 420.699219 496.535156 421.363281 496.273438 422 C 496.015625 422.640625 495.671875 423.234375 495.246094 423.777344 C 494.820312 424.320312 494.328125 424.796875 493.769531 425.199219 C 493.210938 425.605469 492.605469 425.929688 491.957031 426.164062 C 491.308594 426.402344 490.640625 426.546875 489.953125 426.59375 C 489.261719 426.644531 488.582031 426.601562 487.90625 426.457031 C 487.230469 426.316406 486.585938 426.085938 485.976562 425.765625 C 484.898438 425.203125 483.75 424.921875 482.535156 424.921875 C 481.316406 424.921875 480.171875 425.203125 479.09375 425.765625 C 478.480469 426.085938 477.839844 426.316406 477.164062 426.457031 C 476.488281 426.601562 475.804688 426.644531 475.117188 426.59375 C 474.425781 426.546875 473.757812 426.402344 473.109375 426.164062 C 472.460938 425.929688 471.859375 425.605469 471.300781 425.199219 C 470.742188 424.796875 470.25 424.320312 469.824219 423.777344 C 469.394531 423.234375 469.054688 422.640625 468.792969 422 C 468.53125 421.363281 468.363281 420.699219 468.289062 420.011719 C 468.214844 419.324219 468.234375 418.640625 468.351562 417.960938 C 468.554688 416.757812 468.46875 415.578125 468.089844 414.417969 C 467.714844 413.257812 467.089844 412.253906 466.214844 411.40625 C 465.71875 410.921875 465.300781 410.378906 464.957031 409.777344 C 464.609375 409.179688 464.355469 408.542969 464.191406 407.871094 C 464.023438 407.199219 463.953125 406.515625 463.976562 405.824219 C 464 405.132812 464.121094 404.457031 464.332031 403.796875 C 464.546875 403.140625 464.84375 402.523438 465.230469 401.949219 C 465.617188 401.371094 466.074219 400.863281 466.601562 400.414062 C 467.128906 399.96875 467.710938 399.601562 468.339844 399.316406 C 468.96875 399.03125 469.628906 398.839844 470.3125 398.738281 C 471.519531 398.566406 472.617188 398.121094 473.605469 397.402344 C 474.59375 396.6875 475.355469 395.78125 475.898438 394.6875 C 476.203125 394.066406 476.589844 393.5 477.050781 392.988281 C 477.515625 392.476562 478.042969 392.039062 478.628906 391.675781 C 479.214844 391.3125 479.839844 391.035156 480.503906 390.84375 C 481.167969 390.65625 481.84375 390.5625 482.535156 390.5625 C 483.222656 390.5625 483.902344 390.65625 484.566406 390.84375 C 485.230469 391.035156 485.855469 391.3125 486.441406 391.675781 C 487.027344 392.039062 487.550781 392.476562 488.015625 392.988281 C 488.480469 393.5 488.863281 394.066406 489.171875 394.6875 Z M 489.171875 394.6875 " fill-opacity="1" fill-rule="nonzero"/></svg>