<svg xmlns="http://www.w3.org/2000/svg" xmlns:xlink="http://www.w3.org/1999/xlink" width="1200" zoomAndPan="magnify" viewBox="0 0 900 899.99999" height="1200" preserveAspectRatio="xMidYMid meet" version="1.0"><defs><clipPath id="04b61a899e"><path d="M 33.371094 52.902344 L 866.621094 52.902344 L 866.621094 847.09375 L 33.371094 847.09375 Z M 33.371094 52.902344 " clip-rule="nonzero"/></clipPath><clipPath id="d7593df34d"><path d="M 449.996094 52.902344 L 548.347656 356.253906 L 866.621094 356.253906 L 609.132812 543.738281 L 707.484375 847.09375 L 449.996094 659.609375 L 192.507812 847.09375 L 290.859375 543.738281 L 33.371094 356.253906 L 351.644531 356.253906 Z M 449.996094 52.902344 " clip-rule="nonzero"/></clipPath><clipPath id="f980e98c8a"><path d="M 235.300781 260.203125 L 664.695312 260.203125 L 664.695312 669.46875 L 235.300781 669.46875 Z M 235.300781 260.203125 " clip-rule="nonzero"/></clipPath><clipPath id="9fc12c1626"><path d="M 450 260.203125 L 500.683594 416.527344 L 664.695312 416.527344 L 532.003906 513.144531 L 582.6875 669.46875 L 450 572.855469 L 317.308594 669.46875 L 367.992188 513.144531 L 235.300781 416.527344 L 399.316406 416.527344 Z M 450 260.203125 " clip-rule="nonzero"/></clipPath><clipPath id="e7648f65ce"><path d="M 430 145 L 470 145 L 470 178 L 430 178 Z M 430 145 " clip-rule="nonzero"/></clipPath><clipPath id="d6abbbd503"><path d="M 470.214844 160.5 L 460.160156 185.558594 L 421.878906 170.199219 L 431.933594 145.140625 Z M 470.214844 160.5 " clip-rule="nonzero"/></clipPath><clipPath id="d261654e08"><path d="M 470.214844 160.5 L 460.160156 185.558594 L 421.878906 170.199219 L 431.933594 145.140625 Z M 470.214844 160.5 " clip-rule="nonzero"/></clipPath><clipPath id="89dba0d47d"><path d="M 470.210938 160.496094 L 460.234375 185.363281 L 421.777344 169.933594 L 431.753906 145.070312 Z M 470.210938 160.496094 " clip-rule="nonzero"/></clipPath><clipPath id="0a0a02bbcd"><path d="M 298 568 L 338 568 L 338 601 L 298 601 Z M 298 568 " clip-rule="nonzero"/></clipPath><clipPath id="0608f60e21"><path d="M 338.269531 582 L 329.386719 607.496094 L 290.433594 593.921875 L 299.320312 568.425781 Z M 338.269531 582 " clip-rule="nonzero"/></clipPath><clipPath id="f27cd201bd"><path d="M 338.269531 582 L 329.386719 607.496094 L 290.433594 593.921875 L 299.320312 568.425781 Z M 338.269531 582 " clip-rule="nonzero"/></clipPath><clipPath id="e7f8bf176c"><path d="M 338.265625 581.996094 L 329.449219 607.296875 L 290.320312 593.660156 L 299.136719 568.359375 Z M 338.265625 581.996094 " clip-rule="nonzero"/></clipPath><clipPath id="2f53eec31a"><path d="M 583 484 L 617 484 L 617 518 L 583 518 Z M 583 484 " clip-rule="nonzero"/></clipPath><clipPath id="1868b50c27"><path d="M 582.503906 486 L 603.886719 469.511719 L 629.074219 502.179688 L 607.691406 518.667969 Z M 582.503906 486 " clip-rule="nonzero"/></clipPath><clipPath id="d221c79d44"><path d="M 582.503906 486 L 603.886719 469.511719 L 629.074219 502.179688 L 607.691406 518.667969 Z M 582.503906 486 " clip-rule="nonzero"/></clipPath><clipPath id="50d5a6ac68"><path d="M 582.507812 486.003906 L 603.726562 469.644531 L 629.027344 502.460938 L 607.808594 518.820312 Z M 582.507812 486.003906 " clip-rule="nonzero"/></clipPath></defs><g clip-path="url(#04b61a899e)"><g clip-path="url(#d7593df34d)"><path stroke-linecap="butt" transform="matrix(0.75, 0, 0, 0.75, 33.371725, 52.901194)" fill="none" stroke-linejoin="miter" d="M 555.499187 0.00153296 L 686.63461 404.470304 L 1110.999216 404.470304 L 767.68149 654.449484 L 898.816913 1058.923463 L 555.499187 808.944284 L 212.181461 1058.923463 L 343.316884 654.449484 L -0.000842165 404.470304 L 424.363763 404.470304 Z M 555.499187 0.00153296 " stroke="#000000" stroke-width="16" stroke-opacity="1" stroke-miterlimit="4"/></g></g><g clip-path="url(#f980e98c8a)"><g clip-path="url(#9fc12c1626)"><path stroke-linecap="butt" transform="matrix(0.75, 0, 0, 0.75, 235.302076, 260.203629)" fill="none" stroke-linejoin="miter" d="M 286.263913 -0.00067171 L 353.842042 208.431631 L 572.524345 208.431631 L 395.60246 337.254554 L 463.180589 545.686857 L 286.263913 416.869142 L 109.342029 545.686857 L 176.920157 337.254554 L -0.00172698 208.431631 L 218.685784 208.431631 Z M 286.263913 -0.00067171 " stroke="#000000" stroke-width="16" stroke-opacity="1" stroke-miterlimit="4"/></g></g><g clip-path="url(#e7648f65ce)"><g clip-path="url(#d6abbbd503)"><g clip-path="url(#d261654e08)"><g clip-path="url(#89dba0d47d)"><path fill="#f1a131" d="M 442.746094 177.542969 L 468.515625 163.433594 C 470.453125 162.367188 469.554688 159.410156 467.351562 159.605469 L 448.574219 161.273438 C 447.921875 161.328125 447.285156 161.074219 446.855469 160.582031 L 434.429688 146.398438 C 432.972656 144.734375 430.28125 146.25 430.949219 148.359375 L 439.820312 176.371094 C 440.207031 177.59375 441.617188 178.160156 442.746094 177.542969 " fill-opacity="1" fill-rule="nonzero"/></g></g></g></g><path fill="#f1a131" d="M 369.652344 382.875 L 380.53125 348.558594 L 391.96875 352.183594 L 381.089844 386.5 M 384.15625 337.121094 L 395.035156 302.800781 L 406.472656 306.429688 L 395.597656 340.746094 M 398.660156 291.363281 L 409.539062 257.046875 L 420.980469 260.671875 L 410.101562 294.988281 M 413.164062 245.609375 L 424.042969 211.289062 L 435.484375 214.917969 L 424.605469 249.234375 M 427.671875 199.851562 L 435.285156 175.835938 L 446.722656 179.460938 L 439.109375 203.476562 " fill-opacity="1" fill-rule="nonzero"/><g clip-path="url(#0a0a02bbcd)"><g clip-path="url(#0608f60e21)"><g clip-path="url(#f27cd201bd)"><g clip-path="url(#e7f8bf176c)"><path fill="#f1a131" d="M 311.617188 600.292969 L 336.707031 585.007812 C 338.597656 583.855469 337.5625 580.941406 335.371094 581.238281 L 316.6875 583.769531 C 316.042969 583.859375 315.394531 583.632812 314.941406 583.160156 L 301.875 569.566406 C 300.339844 567.96875 297.722656 569.609375 298.488281 571.6875 L 308.640625 599.253906 C 309.085938 600.460938 310.519531 600.964844 311.617188 600.292969 " fill-opacity="1" fill-rule="nonzero"/></g></g></g></g><g clip-path="url(#2f53eec31a)"><g clip-path="url(#1868b50c27)"><g clip-path="url(#d221c79d44)"><g clip-path="url(#50d5a6ac68)"><path fill="#f1a131" d="M 614.824219 485.257812 L 585.457031 484.335938 C 583.246094 484.269531 582.519531 487.273438 584.515625 488.222656 L 601.542969 496.320312 C 602.132812 496.601562 602.550781 497.144531 602.671875 497.785156 L 606.175781 516.316406 C 606.585938 518.488281 609.675781 518.546875 610.171875 516.390625 L 616.75 487.757812 C 617.035156 486.503906 616.109375 485.300781 614.824219 485.257812 " fill-opacity="1" fill-rule="nonzero"/></g></g></g></g><path fill="#f1a131" d="M 114.695312 378.695312 L 150.695312 378.695312 L 150.695312 390.695312 L 114.695312 390.695312 M 162.695312 378.695312 L 198.695312 378.695312 L 198.695312 390.695312 L 162.695312 390.695312 M 210.695312 378.695312 L 246.695312 378.695312 L 246.695312 390.695312 L 210.695312 390.695312 M 258.695312 378.695312 L 294.695312 378.695312 L 294.695312 390.695312 L 258.695312 390.695312 M 306.695312 378.695312 L 342.695312 378.695312 L 342.695312 390.695312 L 306.695312 390.695312 " fill-opacity="1" fill-rule="nonzero"/><path fill="#f1a131" d="M 334.636719 538.554688 L 305.976562 516.769531 L 313.238281 507.214844 L 341.898438 529 M 296.421875 509.507812 L 267.761719 487.726562 L 275.019531 478.171875 L 303.683594 499.957031 M 258.207031 480.464844 L 229.542969 458.683594 L 236.804688 449.128906 L 265.46875 470.910156 M 219.992188 451.421875 L 191.328125 429.636719 L 198.589844 420.085938 L 227.25 441.867188 M 181.773438 422.378906 L 173.902344 416.394531 L 181.160156 406.839844 L 189.035156 412.824219 " fill-opacity="1" fill-rule="nonzero"/><path fill="#f1a131" d="M 264.6875 717.257812 L 276.058594 683.101562 L 287.441406 686.890625 L 276.070312 721.050781 M 279.847656 671.714844 L 291.21875 637.558594 L 302.605469 641.351562 L 291.234375 675.507812 M 295.007812 626.171875 L 304.191406 598.585938 L 315.578125 602.378906 L 306.394531 629.964844 " fill-opacity="1" fill-rule="nonzero"/><path fill="#f1a131" d="M 250.722656 750.757812 L 280.238281 730.144531 L 287.109375 739.984375 L 257.59375 760.59375 M 290.074219 723.273438 L 319.589844 702.660156 L 326.460938 712.5 L 296.945312 733.113281 M 329.425781 695.789062 L 358.941406 675.175781 L 365.8125 685.015625 L 336.296875 705.628906 M 368.78125 668.304688 L 398.292969 647.691406 L 405.164062 657.53125 L 375.652344 678.144531 M 408.132812 640.820312 L 437.648438 620.207031 L 444.519531 630.046875 L 415.003906 650.660156 " fill-opacity="1" fill-rule="nonzero"/><path fill="#f1a131" d="M 453.382812 616.742188 L 483.121094 637.03125 L 476.355469 646.945312 L 446.617188 626.65625 M 493.03125 643.792969 L 522.769531 664.082031 L 516.007812 673.996094 L 486.269531 653.707031 M 532.683594 670.847656 L 562.421875 691.136719 L 555.660156 701.046875 L 525.921875 680.757812 M 572.335938 697.898438 L 602.074219 718.1875 L 595.308594 728.097656 L 565.570312 707.808594 M 611.984375 724.949219 L 641.722656 745.238281 L 634.960938 755.152344 L 605.222656 734.863281 " fill-opacity="1" fill-rule="nonzero"/><path fill="#f1a131" d="M 572.1875 518.914062 L 583.78125 552.996094 L 572.417969 556.859375 L 560.828125 522.777344 M 587.644531 564.359375 L 599.234375 598.441406 L 587.875 602.304688 L 576.28125 568.222656 M 603.101562 609.800781 L 614.691406 643.882812 L 603.332031 647.746094 L 591.738281 613.664062 M 618.554688 655.246094 L 630.148438 689.328125 L 618.789062 693.191406 L 607.195312 659.109375 M 634.011719 700.6875 L 645.605469 734.769531 L 634.242188 738.632812 L 622.652344 704.550781 M 649.46875 746.132812 L 652.058594 753.75 L 640.699219 757.613281 L 638.109375 749.996094 " fill-opacity="1" fill-rule="nonzero"/><path fill="#f1a131" d="M 613.570312 481.773438 L 643.460938 461.707031 L 650.148438 471.671875 L 620.257812 491.734375 M 653.425781 455.019531 L 683.3125 434.953125 L 690.003906 444.917969 L 660.113281 464.984375 M 693.277344 428.265625 L 723.167969 408.203125 L 729.855469 418.164062 L 699.964844 438.230469 M 733.132812 401.515625 L 763.019531 381.449219 L 769.710938 391.414062 L 739.820312 411.476562 M 772.984375 374.761719 L 785.121094 366.613281 L 791.808594 376.578125 L 779.671875 384.726562 " fill-opacity="1" fill-rule="nonzero"/><path fill="#f1a131" d="M 524.707031 378.695312 L 560.707031 378.695312 L 560.707031 390.695312 L 524.707031 390.695312 M 572.707031 378.695312 L 608.707031 378.695312 L 608.707031 390.695312 L 572.707031 390.695312 M 620.707031 378.695312 L 656.707031 378.695312 L 656.707031 390.695312 L 620.707031 390.695312 M 668.707031 378.695312 L 704.707031 378.695312 L 704.707031 390.695312 L 668.707031 390.695312 M 716.707031 378.695312 L 727.1875 378.695312 L 727.1875 390.695312 L 716.707031 390.695312 " fill-opacity="1" fill-rule="nonzero"/><path fill="#f1a131" d="M 519.046875 386.683594 L 507.117188 352.71875 L 518.4375 348.738281 L 530.367188 382.707031 M 503.140625 341.394531 L 491.207031 307.429688 L 502.53125 303.453125 L 514.460938 337.417969 M 487.230469 296.109375 L 475.300781 262.140625 L 486.621094 258.164062 L 498.554688 292.128906 M 471.324219 250.820312 L 459.394531 216.855469 L 470.714844 212.878906 L 482.644531 246.84375 M 455.417969 205.53125 L 449.859375 189.710938 L 461.179688 185.734375 L 466.738281 201.554688 " fill-opacity="1" fill-rule="nonzero"/></svg>