<svg xmlns="http://www.w3.org/2000/svg" xmlns:xlink="http://www.w3.org/1999/xlink" width="1200" zoomAndPan="magnify" viewBox="0 0 900 899.99999" height="1200" preserveAspectRatio="xMidYMid meet" version="1.0"><defs><clipPath id="feac3098ad"><path d="M 85 85.003906 L 814.75 85.003906 L 814.75 814.75 L 85 814.75 Z M 85 85.003906 " clip-rule="nonzero"/></clipPath><clipPath id="2fc7cedccf"><path d="M 450 85.003906 C 248.417969 85.003906 85 248.417969 85 450 C 85 651.582031 248.417969 814.996094 450 814.996094 C 651.582031 814.996094 814.996094 651.582031 814.996094 450 C 814.996094 248.417969 651.582031 85.003906 450 85.003906 Z M 450 85.003906 " clip-rule="nonzero"/></clipPath><clipPath id="fb4f7160bc"><path d="M 156.128906 156.128906 L 743.859375 156.128906 L 743.859375 743.859375 L 156.128906 743.859375 Z M 156.128906 156.128906 " clip-rule="nonzero"/></clipPath><clipPath id="e5f8f09eae"><path d="M 449.996094 156.128906 C 287.699219 156.128906 156.128906 287.699219 156.128906 449.996094 C 156.128906 612.292969 287.699219 743.859375 449.996094 743.859375 C 612.292969 743.859375 743.859375 612.292969 743.859375 449.996094 C 743.859375 287.699219 612.292969 156.128906 449.996094 156.128906 Z M 449.996094 156.128906 " clip-rule="nonzero"/></clipPath><clipPath id="a8631b0d86"><path d="M 436.601562 103.203125 L 463.394531 103.203125 L 463.394531 144.445312 L 436.601562 144.445312 Z M 436.601562 103.203125 " clip-rule="nonzero"/></clipPath><clipPath id="79fc57f8f4"><path d="M 436.605469 755.878906 L 463.394531 755.878906 L 463.394531 797.121094 L 436.605469 797.121094 Z M 436.605469 755.878906 " clip-rule="nonzero"/></clipPath></defs><g clip-path="url(#feac3098ad)"><g clip-path="url(#2fc7cedccf)"><path stroke-linecap="butt" transform="matrix(0.75, 0, 0, 0.75, 85.001916, 85.001968)" fill="none" stroke-linejoin="miter" d="M 486.664168 0.00258493 C 217.888095 0.00258493 -0.00255514 217.888027 -0.00255514 486.6641 C -0.00255514 755.440173 217.888095 973.325615 486.664168 973.325615 C 755.440241 973.325615 973.325683 755.440173 973.325683 486.6641 C 973.325683 217.888027 755.440241 0.00258493 486.664168 0.00258493 Z M 486.664168 0.00258493 " stroke="#000000" stroke-width="16" stroke-opacity="1" stroke-miterlimit="4"/></g></g><g clip-path="url(#fb4f7160bc)"><g clip-path="url(#e5f8f09eae)"><path stroke-linecap="butt" transform="matrix(0.75, 0, 0, 0.75, 156.129503, 156.129504)" fill="none" stroke-linejoin="miter" d="M 391.822141 -0.000796772 C 175.426297 -0.000796772 -0.000795706 175.426296 -0.000795706 391.82214 C -0.000795706 608.217985 175.426297 783.639869 391.822141 783.639869 C 608.217986 783.639869 783.63987 608.217985 783.63987 391.82214 C 783.63987 175.426296 608.217986 -0.000796772 391.822141 -0.000796772 Z M 391.822141 -0.000796772 " stroke="#000000" stroke-width="16" stroke-opacity="1" stroke-miterlimit="4"/></g></g><g clip-path="url(#a8631b0d86)"><path fill="#f1a131" d="M 437.347656 125.304688 L 460.039062 143.964844 C 461.746094 145.371094 464.15625 143.433594 463.15625 141.464844 L 454.617188 124.652344 C 454.324219 124.074219 454.324219 123.386719 454.617188 122.804688 L 463.15625 105.988281 C 464.160156 104.019531 461.75 102.085938 460.039062 103.488281 L 437.347656 122.148438 C 436.351562 122.96875 436.351562 124.488281 437.347656 125.304688 " fill-opacity="1" fill-rule="nonzero"/></g><g clip-path="url(#79fc57f8f4)"><path fill="#f1a131" d="M 462.648438 775.019531 L 439.957031 756.359375 C 438.25 754.953125 435.839844 756.886719 436.839844 758.859375 L 445.378906 775.667969 C 445.671875 776.25 445.671875 776.9375 445.378906 777.519531 L 436.839844 794.332031 C 435.835938 796.304688 438.246094 798.238281 439.957031 796.832031 L 462.648438 778.171875 C 463.644531 777.355469 463.644531 775.835938 462.648438 775.019531 " fill-opacity="1" fill-rule="nonzero"/></g><path fill="#f1a131" d="M 116.984375 420.484375 C 119.125 408.230469 121.632812 396.339844 124.507812 384.8125 L 136.148438 387.71875 C 133.34375 398.96875 130.894531 410.578125 128.804688 422.550781 Z M 127.59375 373.074219 C 130.921875 361.082031 134.660156 349.496094 138.816406 338.320312 L 150.0625 342.503906 C 146.027344 353.359375 142.394531 364.617188 139.160156 376.28125 Z M 143.238281 326.96875 C 147.925781 315.464844 153.078125 304.417969 158.691406 293.832031 L 169.292969 299.453125 C 163.867188 309.6875 158.886719 320.367188 154.351562 331.5 Z M 164.609375 283.136719 C 170.800781 272.410156 177.496094 262.183594 184.695312 252.460938 L 194.339844 259.597656 C 187.410156 268.957031 180.964844 278.804688 175.003906 289.136719 Z M 192.164062 242.769531 C 199.859375 233.1875 208.074219 224.128906 216.816406 215.589844 L 225.203125 224.175781 C 216.804688 232.375 208.914062 241.078125 201.519531 250.285156 Z M 225.746094 207.214844 C 234.792969 199.070312 244.351562 191.441406 254.429688 184.332031 L 261.347656 194.140625 C 251.660156 200.972656 242.46875 208.304688 233.777344 216.132812 Z M 264.554688 177.480469 C 274.660156 170.917969 285.246094 164.84375 296.320312 159.257812 L 301.726562 169.972656 C 291.039062 175.359375 280.828125 181.21875 271.089844 187.542969 Z M 307.308594 153.949219 C 318.167969 148.925781 329.46875 144.351562 341.207031 140.21875 L 345.191406 151.539062 C 333.808594 155.546875 322.859375 159.980469 312.347656 164.839844 Z M 352.734375 136.351562 C 364.066406 132.730469 375.789062 129.503906 387.902344 126.671875 L 390.632812 138.355469 C 378.832031 141.113281 367.414062 144.257812 356.386719 147.78125 Z M 399.769531 124.046875 C 405.316406 122.894531 410.941406 121.816406 416.648438 120.820312 L 418.710938 132.640625 C 413.136719 133.613281 407.636719 134.667969 402.214844 135.796875 Z M 399.769531 124.046875 " fill-opacity="1" fill-rule="nonzero"/><path fill="#f1a131" d="M 376.421875 782.246094 C 364.738281 778.078125 353.441406 773.621094 342.535156 768.875 L 347.328125 757.871094 C 357.980469 762.511719 369.023438 766.867188 380.453125 770.945312 Z M 331.480469 763.898438 C 320.222656 758.664062 309.398438 753.105469 299.015625 747.21875 L 304.929688 736.78125 C 315.035156 742.507812 325.574219 747.917969 336.539062 753.019531 Z M 288.519531 741.074219 C 277.914062 734.652344 267.792969 727.871094 258.152344 720.734375 L 265.296875 711.089844 C 274.636719 718.007812 284.449219 724.582031 294.734375 730.808594 Z M 248.472656 713.3125 C 238.792969 705.640625 229.636719 697.578125 221.003906 689.128906 L 229.398438 680.550781 C 237.734375 688.710938 246.578125 696.496094 255.929688 703.910156 Z M 212.433594 680.429688 C 203.972656 671.527344 196.054688 662.222656 188.6875 652.511719 L 198.246094 645.257812 C 205.347656 654.613281 212.976562 663.582031 221.132812 672.164062 Z M 181.484375 642.640625 C 174.484375 632.671875 168.035156 622.296875 162.128906 611.523438 L 172.652344 605.757812 C 178.34375 616.144531 184.5625 626.140625 191.304688 635.75 Z M 156.453125 600.707031 C 151.035156 589.914062 146.140625 578.742188 141.769531 567.1875 L 152.992188 562.941406 C 157.21875 574.109375 161.945312 584.902344 167.175781 595.320312 Z M 137.644531 555.714844 C 133.769531 544.359375 130.378906 532.652344 127.472656 520.59375 L 139.136719 517.78125 C 141.957031 529.480469 145.246094 540.835938 149 551.835938 Z M 124.792969 508.738281 C 122.332031 497.070312 120.304688 485.082031 118.71875 472.777344 L 130.617188 471.242188 C 132.167969 483.230469 134.140625 494.902344 136.535156 506.261719 Z M 117.308594 460.703125 C 116.167969 449.777344 115.363281 438.609375 114.886719 427.199219 L 126.878906 426.699219 C 127.339844 437.859375 128.128906 448.78125 129.246094 459.457031 Z M 117.308594 460.703125 " fill-opacity="1" fill-rule="nonzero"/><path fill="#f1a131" d="M 782.746094 483.292969 C 780.605469 495.542969 778.097656 507.433594 775.222656 518.960938 L 763.582031 516.058594 C 766.386719 504.808594 768.835938 493.199219 770.925781 481.226562 Z M 772.132812 530.699219 C 768.808594 542.695312 765.070312 554.277344 760.914062 565.453125 L 749.667969 561.269531 C 753.703125 550.417969 757.335938 539.160156 760.570312 527.492188 Z M 756.492188 576.804688 C 751.804688 588.308594 746.652344 599.355469 741.039062 609.945312 L 730.4375 604.320312 C 735.863281 594.089844 740.84375 583.40625 745.378906 572.277344 Z M 735.121094 620.636719 C 728.929688 631.363281 722.234375 641.589844 715.035156 651.316406 L 705.390625 644.175781 C 712.316406 634.816406 718.765625 624.972656 724.726562 614.640625 Z M 707.566406 661.003906 C 699.871094 670.585938 691.652344 679.648438 682.910156 688.183594 L 674.527344 679.597656 C 682.921875 671.398438 690.816406 662.695312 698.210938 653.492188 Z M 673.984375 696.558594 C 664.9375 704.707031 655.378906 712.332031 645.300781 719.441406 L 638.382812 709.636719 C 648.070312 702.800781 657.261719 695.46875 665.953125 687.640625 Z M 635.175781 726.296875 C 625.070312 732.859375 614.480469 738.933594 603.410156 744.519531 L 598.003906 733.804688 C 608.6875 728.414062 618.902344 722.558594 628.640625 716.230469 Z M 592.417969 749.828125 C 581.5625 754.847656 570.261719 759.421875 558.523438 763.554688 L 554.539062 752.234375 C 565.921875 748.230469 576.867188 743.796875 587.382812 738.933594 Z M 546.996094 767.421875 C 535.664062 771.046875 523.941406 774.273438 511.828125 777.105469 L 509.097656 765.417969 C 520.898438 762.660156 532.316406 759.519531 543.34375 755.992188 Z M 499.960938 779.726562 C 494.414062 780.882812 488.789062 781.957031 483.082031 782.957031 L 481.015625 771.132812 C 486.59375 770.160156 492.09375 769.109375 497.515625 767.980469 Z M 499.960938 779.726562 " fill-opacity="1" fill-rule="nonzero"/><path fill="#f1a131" d="M 523.3125 121.535156 C 534.996094 125.699219 546.292969 130.160156 557.195312 134.90625 L 552.40625 145.910156 C 541.75 141.269531 530.707031 136.910156 519.28125 132.835938 Z M 568.253906 139.882812 C 579.511719 145.117188 590.332031 150.675781 600.71875 156.558594 L 594.800781 167 C 584.695312 161.273438 574.160156 155.863281 563.191406 150.761719 Z M 611.214844 162.707031 C 621.816406 169.128906 631.941406 175.90625 641.578125 183.046875 L 634.4375 192.691406 C 625.097656 185.773438 615.285156 179.199219 605 172.972656 Z M 651.261719 190.464844 C 660.9375 198.140625 670.09375 206.203125 678.726562 214.652344 L 670.335938 223.230469 C 662 215.070312 653.15625 207.285156 643.804688 199.867188 Z M 687.300781 223.351562 C 695.761719 232.253906 703.675781 241.558594 711.046875 251.269531 L 701.484375 258.523438 C 694.386719 249.167969 686.757812 240.199219 678.601562 231.617188 Z M 718.25 261.140625 C 725.246094 271.109375 731.699219 281.480469 737.601562 292.253906 L 727.078125 298.023438 C 721.386719 287.636719 715.171875 277.640625 708.429688 268.03125 Z M 743.28125 303.074219 C 748.699219 313.867188 753.59375 325.039062 757.964844 336.59375 L 746.742188 340.839844 C 742.515625 329.671875 737.789062 318.878906 732.554688 308.460938 Z M 762.089844 348.066406 C 765.964844 359.421875 769.355469 371.128906 772.261719 383.1875 L 760.597656 386 C 757.777344 374.296875 754.488281 362.945312 750.734375 351.941406 Z M 774.941406 395.042969 C 777.402344 406.710938 779.425781 418.699219 781.015625 431.003906 L 769.113281 432.539062 C 767.566406 420.550781 765.59375 408.875 763.199219 397.519531 Z M 782.421875 443.078125 C 783.5625 454.003906 784.371094 465.171875 784.84375 476.582031 L 772.855469 477.082031 C 772.390625 465.917969 771.601562 455 770.488281 444.320312 Z M 782.421875 443.078125 " fill-opacity="1" fill-rule="nonzero"/></svg>