<svg xmlns="http://www.w3.org/2000/svg" xmlns:xlink="http://www.w3.org/1999/xlink" width="794" zoomAndPan="magnify" viewBox="0 0 594.95996 842.24997" height="1123" preserveAspectRatio="xMidYMid meet" version="1.0"><defs><clipPath id="0b8d585ce1"><path d="M 59.71875 275.453125 L 535.546875 275.453125 L 535.546875 565.445312 L 59.71875 565.445312 Z M 59.71875 275.453125 " clip-rule="nonzero"/></clipPath></defs><g clip-path="url(#0b8d585ce1)"><path fill="#f5f4f4" d="M 483.230469 565.480469 C 481.515625 565.480469 479.804688 565.394531 478.097656 565.226562 C 476.390625 565.058594 474.695312 564.808594 473.015625 564.472656 C 471.332031 564.140625 469.671875 563.722656 468.03125 563.226562 C 466.390625 562.730469 464.777344 562.152344 463.191406 561.496094 C 461.609375 560.839844 460.058594 560.109375 458.546875 559.300781 C 457.035156 558.496094 455.566406 557.613281 454.140625 556.664062 C 452.714844 555.710938 451.339844 554.691406 450.011719 553.605469 C 448.6875 552.515625 447.417969 551.367188 446.207031 550.15625 C 444.992188 548.945312 443.84375 547.675781 442.753906 546.351562 C 441.667969 545.027344 440.648438 543.652344 439.695312 542.230469 C 438.742188 540.804688 437.859375 539.335938 437.054688 537.824219 C 436.246094 536.316406 435.511719 534.769531 434.855469 533.183594 C 434.199219 531.601562 433.621094 529.992188 433.125 528.351562 C 432.628906 526.710938 432.210938 525.050781 431.875 523.371094 C 431.542969 521.691406 431.289062 520 431.121094 518.292969 C 430.953125 516.589844 430.871094 514.878906 430.871094 513.164062 C 430.871094 510.988281 430.816406 508.8125 430.710938 506.636719 C 430.601562 504.460938 430.441406 502.289062 430.230469 500.121094 C 430.015625 497.953125 429.75 495.792969 429.429688 493.636719 C 429.109375 491.484375 428.734375 489.335938 428.3125 487.203125 C 427.886719 485.066406 427.40625 482.941406 426.878906 480.828125 C 426.347656 478.714844 425.765625 476.617188 425.132812 474.53125 C 424.5 472.449219 423.816406 470.378906 423.082031 468.332031 C 422.347656 466.28125 421.566406 464.246094 420.730469 462.234375 C 419.898438 460.222656 419.011719 458.234375 418.082031 456.265625 C 417.148438 454.292969 416.167969 452.351562 415.140625 450.429688 C 414.113281 448.507812 413.039062 446.613281 411.917969 444.746094 C 410.796875 442.878906 409.632812 441.039062 408.421875 439.226562 C 407.210938 437.414062 405.957031 435.636719 404.65625 433.886719 C 403.359375 432.136719 402.019531 430.421875 400.632812 428.738281 C 399.25 427.054688 397.828125 425.402344 396.363281 423.789062 C 394.898438 422.175781 393.398438 420.597656 391.855469 419.058594 C 390.316406 417.519531 388.734375 416.019531 387.121094 414.554688 C 385.503906 413.09375 383.855469 411.671875 382.171875 410.289062 C 380.484375 408.90625 378.765625 407.566406 377.015625 406.269531 C 375.265625 404.972656 373.484375 403.71875 371.671875 402.507812 C 369.859375 401.296875 368.015625 400.132812 366.148438 399.015625 C 364.277344 397.894531 362.382812 396.820312 360.457031 395.792969 C 358.535156 394.765625 356.589844 393.789062 354.617188 392.855469 C 352.648438 391.925781 350.65625 391.042969 348.640625 390.210938 C 346.628906 389.375 344.59375 388.59375 342.542969 387.859375 C 340.488281 387.125 338.421875 386.441406 336.335938 385.808594 C 334.246094 385.179688 332.148438 384.597656 330.03125 384.066406 C 327.917969 383.539062 325.792969 383.0625 323.652344 382.636719 C 321.515625 382.210938 319.367188 381.839844 317.210938 381.519531 C 315.054688 381.199219 312.894531 380.933594 310.722656 380.71875 C 308.554688 380.507812 306.378906 380.347656 304.203125 380.238281 C 302.027344 380.132812 299.847656 380.078125 297.667969 380.078125 C 295.488281 380.078125 293.308594 380.132812 291.132812 380.238281 C 288.953125 380.347656 286.78125 380.507812 284.609375 380.71875 C 282.441406 380.933594 280.277344 381.199219 278.121094 381.519531 C 275.964844 381.839844 273.820312 382.210938 271.679688 382.636719 C 269.542969 383.0625 267.417969 383.539062 265.300781 384.066406 C 263.1875 384.597656 261.085938 385.179688 259 385.808594 C 256.914062 386.441406 254.84375 387.125 252.792969 387.859375 C 250.738281 388.59375 248.707031 389.375 246.691406 390.210938 C 244.679688 391.042969 242.6875 391.925781 240.714844 392.855469 C 238.746094 393.789062 236.796875 394.765625 234.875 395.792969 C 232.953125 396.820312 231.058594 397.894531 229.1875 399.015625 C 227.316406 400.132812 225.476562 401.296875 223.664062 402.507812 C 221.851562 403.71875 220.070312 404.972656 218.316406 406.269531 C 216.566406 407.566406 214.847656 408.90625 213.164062 410.289062 C 211.480469 411.671875 209.828125 413.09375 208.214844 414.554688 C 206.597656 416.019531 205.019531 417.519531 203.476562 419.058594 C 201.9375 420.597656 200.433594 422.175781 198.96875 423.789062 C 197.507812 425.402344 196.082031 427.054688 194.699219 428.738281 C 193.316406 430.421875 191.976562 432.136719 190.675781 433.886719 C 189.378906 435.636719 188.125 437.414062 186.914062 439.226562 C 185.703125 441.039062 184.535156 442.878906 183.414062 444.746094 C 182.292969 446.613281 181.21875 448.507812 180.191406 450.429688 C 179.164062 452.351562 178.183594 454.292969 177.253906 456.265625 C 176.320312 458.234375 175.4375 460.222656 174.605469 462.234375 C 173.769531 464.246094 172.984375 466.28125 172.25 468.332031 C 171.515625 470.378906 170.832031 472.449219 170.199219 474.53125 C 169.566406 476.617188 168.984375 478.714844 168.457031 480.828125 C 167.925781 482.941406 167.449219 485.066406 167.023438 487.203125 C 166.597656 489.335938 166.226562 491.484375 165.90625 493.636719 C 165.585938 495.792969 165.320312 497.953125 165.105469 500.121094 C 164.890625 502.289062 164.730469 504.460938 164.625 506.636719 C 164.519531 508.8125 164.464844 510.988281 164.464844 513.164062 C 164.464844 514.878906 164.378906 516.589844 164.210938 518.292969 C 164.042969 520 163.792969 521.691406 163.457031 523.371094 C 163.125 525.050781 162.707031 526.710938 162.210938 528.351562 C 161.710938 529.992188 161.136719 531.601562 160.480469 533.183594 C 159.824219 534.769531 159.089844 536.316406 158.28125 537.824219 C 157.472656 539.335938 156.59375 540.804688 155.640625 542.230469 C 154.6875 543.652344 153.667969 545.027344 152.578125 546.351562 C 151.492188 547.675781 150.339844 548.945312 149.128906 550.15625 C 147.914062 551.367188 146.648438 552.515625 145.320312 553.605469 C 143.996094 554.691406 142.621094 555.710938 141.195312 556.664062 C 139.769531 557.613281 138.300781 558.496094 136.785156 559.300781 C 135.273438 560.109375 133.726562 560.839844 132.140625 561.496094 C 130.558594 562.152344 128.945312 562.730469 127.304688 563.226562 C 125.664062 563.722656 124 564.140625 122.320312 564.472656 C 120.636719 564.808594 118.941406 565.058594 117.238281 565.226562 C 115.53125 565.394531 113.820312 565.480469 112.105469 565.480469 C 110.390625 565.480469 108.679688 565.394531 106.972656 565.226562 C 105.265625 565.058594 103.570312 564.808594 101.890625 564.472656 C 100.207031 564.140625 98.546875 563.722656 96.90625 563.226562 C 95.265625 562.730469 93.652344 562.152344 92.066406 561.496094 C 90.484375 560.839844 88.933594 560.109375 87.421875 559.300781 C 85.910156 558.496094 84.441406 557.613281 83.015625 556.664062 C 81.589844 555.710938 80.214844 554.691406 78.886719 553.605469 C 77.5625 552.515625 76.292969 551.367188 75.082031 550.15625 C 73.867188 548.945312 72.71875 547.675781 71.628906 546.351562 C 70.542969 545.027344 69.523438 543.652344 68.570312 542.230469 C 67.617188 540.804688 66.734375 539.335938 65.925781 537.824219 C 65.117188 536.316406 64.386719 534.769531 63.730469 533.183594 C 63.074219 531.601562 62.496094 529.992188 62 528.351562 C 61.5 526.710938 61.085938 525.050781 60.75 523.371094 C 60.417969 521.691406 60.164062 520 59.996094 518.292969 C 59.828125 516.589844 59.746094 514.878906 59.746094 513.164062 C 59.746094 382.085938 166.472656 275.453125 297.667969 275.453125 C 428.863281 275.453125 535.589844 382.085938 535.589844 513.164062 C 535.589844 514.878906 535.503906 516.589844 535.335938 518.292969 C 535.167969 520 534.917969 521.691406 534.582031 523.371094 C 534.25 525.050781 533.832031 526.710938 533.335938 528.351562 C 532.835938 529.992188 532.261719 531.601562 531.605469 533.183594 C 530.949219 534.769531 530.214844 536.316406 529.40625 537.824219 C 528.597656 539.335938 527.71875 540.804688 526.765625 542.230469 C 525.8125 543.652344 524.792969 545.027344 523.703125 546.351562 C 522.617188 547.675781 521.464844 548.945312 520.253906 550.15625 C 519.042969 551.367188 517.773438 552.515625 516.445312 553.605469 C 515.121094 554.691406 513.746094 555.710938 512.320312 556.664062 C 510.894531 557.613281 509.425781 558.496094 507.914062 559.300781 C 506.398438 560.109375 504.851562 560.839844 503.265625 561.496094 C 501.683594 562.152344 500.070312 562.730469 498.429688 563.226562 C 496.789062 563.722656 495.125 564.140625 493.445312 564.472656 C 491.761719 564.808594 490.070312 565.058594 488.363281 565.226562 C 486.65625 565.394531 484.945312 565.480469 483.230469 565.480469 Z M 483.230469 565.480469 " fill-opacity="1" fill-rule="nonzero"/></g><path fill="#428dcc" d="M 110.359375 513.164062 C 110.359375 506.183594 110.75 499.226562 111.53125 492.289062 L 115 492.675781 C 114.234375 499.484375 113.851562 506.316406 113.851562 513.164062 Z M 115.089844 471.378906 C 116.675781 464.476562 118.644531 457.679688 121 451 L 124.292969 452.160156 C 121.980469 458.714844 120.046875 465.382812 118.492188 472.160156 Z M 129.128906 431.527344 C 132.226562 425.140625 135.679688 418.949219 139.484375 412.953125 L 142.433594 414.820312 C 138.699219 420.703125 135.308594 426.78125 132.269531 433.050781 Z M 151.792969 395.785156 C 156.238281 390.273438 160.980469 385.027344 166.019531 380.050781 L 168.472656 382.53125 C 163.527344 387.414062 158.871094 392.5625 154.511719 397.972656 Z M 181.902344 366.054688 C 187.476562 361.671875 193.28125 357.625 199.316406 353.902344 L 201.148438 356.871094 C 195.226562 360.523438 189.53125 364.496094 184.058594 368.792969 Z M 217.847656 343.871094 C 224.289062 340.839844 230.882812 338.179688 237.628906 335.902344 L 238.75 339.203125 C 232.128906 341.441406 225.660156 344.050781 219.335938 347.023438 Z M 257.960938 330.277344 C 264.871094 328.78125 271.84375 327.675781 278.878906 326.96875 L 279.230469 330.4375 C 272.328125 331.132812 265.484375 332.214844 258.703125 333.6875 Z M 299.609375 326.03125 C 306.734375 326.105469 313.832031 326.582031 320.902344 327.464844 L 320.46875 330.925781 C 313.53125 330.058594 306.566406 329.589844 299.574219 329.519531 Z M 341.621094 331.242188 C 348.503906 332.902344 355.273438 334.945312 361.929688 337.371094 L 360.730469 340.648438 C 354.203125 338.265625 347.558594 336.261719 340.800781 334.632812 Z M 381.417969 345.761719 C 387.742188 348.917969 393.867188 352.421875 399.792969 356.269531 L 397.886719 359.191406 C 392.074219 355.414062 386.0625 351.976562 379.859375 348.878906 Z M 416.890625 368.808594 C 422.355469 373.308594 427.542969 378.105469 432.460938 383.195312 L 429.949219 385.617188 C 425.125 380.621094 420.03125 375.917969 414.671875 371.5 Z M 446.289062 399.234375 C 450.597656 404.839844 454.574219 410.671875 458.21875 416.730469 L 455.226562 418.527344 C 451.648438 412.582031 447.75 406.859375 443.523438 401.359375 Z M 468.117188 435.511719 C 471.027344 441.886719 473.570312 448.398438 475.746094 455.058594 L 472.429688 456.140625 C 470.292969 449.605469 467.796875 443.214844 464.941406 436.960938 Z M 481.214844 475.703125 C 482.046875 479.765625 482.742188 483.851562 483.300781 487.960938 L 479.84375 488.429688 C 479.292969 484.398438 478.613281 480.390625 477.796875 476.402344 Z M 481.214844 475.703125 " fill-opacity="1" fill-rule="nonzero"/><path fill="#428dcc" d="M 463.558594 484.480469 L 483.230469 513.164062 L 498.257812 481.792969 Z M 463.558594 484.480469 " fill-opacity="1" fill-rule="nonzero"/><path fill="#428dcc" d="M 119.433594 504.308594 C 119.726562 504.898438 120.085938 505.449219 120.511719 505.953125 C 120.941406 506.460938 121.421875 506.90625 121.957031 507.296875 C 122.492188 507.683594 123.066406 508.003906 123.675781 508.253906 C 124.289062 508.503906 124.921875 508.675781 125.578125 508.769531 C 126.335938 508.878906 127.0625 509.085938 127.761719 509.398438 C 128.460938 509.707031 129.105469 510.109375 129.691406 510.601562 C 130.277344 511.09375 130.785156 511.65625 131.210938 512.289062 C 131.640625 512.921875 131.972656 513.601562 132.207031 514.328125 C 132.445312 515.058594 132.578125 515.800781 132.605469 516.566406 C 132.628906 517.332031 132.550781 518.082031 132.367188 518.824219 C 132.179688 519.566406 131.898438 520.269531 131.515625 520.929688 C 131.132812 521.59375 130.667969 522.191406 130.117188 522.722656 C 129.164062 523.660156 128.488281 524.765625 128.078125 526.039062 C 127.671875 527.3125 127.582031 528.605469 127.8125 529.921875 C 127.941406 530.671875 127.964844 531.425781 127.878906 532.183594 C 127.796875 532.941406 127.613281 533.671875 127.324219 534.375 C 127.039062 535.078125 126.660156 535.730469 126.1875 536.332031 C 125.71875 536.929688 125.175781 537.453125 124.558594 537.898438 C 123.941406 538.347656 123.277344 538.699219 122.5625 538.960938 C 121.847656 539.222656 121.109375 539.378906 120.347656 539.433594 C 119.589844 539.488281 118.835938 539.441406 118.089844 539.285156 C 117.347656 539.128906 116.636719 538.875 115.960938 538.519531 C 115.375 538.210938 114.761719 537.976562 114.117188 537.816406 C 113.472656 537.65625 112.820312 537.578125 112.15625 537.578125 C 111.492188 537.578125 110.839844 537.65625 110.195312 537.816406 C 109.554688 537.976562 108.9375 538.210938 108.351562 538.519531 C 107.675781 538.886719 106.960938 539.15625 106.210938 539.324219 C 105.460938 539.492188 104.699219 539.550781 103.929688 539.503906 C 103.164062 539.453125 102.417969 539.300781 101.691406 539.042969 C 100.964844 538.785156 100.292969 538.429688 99.667969 537.980469 C 99.042969 537.53125 98.492188 537.003906 98.015625 536.398438 C 97.539062 535.796875 97.15625 535.136719 96.867188 534.421875 C 96.578125 533.710938 96.394531 532.972656 96.3125 532.207031 C 96.234375 531.441406 96.261719 530.679688 96.398438 529.921875 C 96.507812 529.269531 96.542969 528.613281 96.492188 527.953125 C 96.445312 527.289062 96.320312 526.644531 96.113281 526.011719 C 95.910156 525.382812 95.632812 524.785156 95.28125 524.222656 C 94.929688 523.660156 94.515625 523.148438 94.039062 522.6875 C 93.488281 522.15625 93.023438 521.558594 92.640625 520.894531 C 92.257812 520.234375 91.976562 519.53125 91.789062 518.789062 C 91.605469 518.046875 91.527344 517.296875 91.554688 516.53125 C 91.578125 515.769531 91.710938 515.023438 91.949219 514.296875 C 92.183594 513.566406 92.515625 512.886719 92.945312 512.253906 C 93.371094 511.621094 93.878906 511.058594 94.464844 510.566406 C 95.050781 510.074219 95.695312 509.671875 96.394531 509.363281 C 97.09375 509.050781 97.820312 508.84375 98.578125 508.734375 C 99.234375 508.640625 99.867188 508.46875 100.480469 508.21875 C 101.09375 507.96875 101.664062 507.648438 102.199219 507.261719 C 102.734375 506.871094 103.214844 506.425781 103.644531 505.917969 C 104.070312 505.414062 104.429688 504.863281 104.722656 504.273438 C 105.058594 503.582031 105.480469 502.949219 105.996094 502.378906 C 106.507812 501.808594 107.089844 501.320312 107.742188 500.914062 C 108.394531 500.507812 109.089844 500.199219 109.828125 499.988281 C 110.566406 499.777344 111.320312 499.671875 112.089844 499.675781 C 112.859375 499.675781 113.609375 499.785156 114.347656 500 C 115.085938 500.214844 115.78125 500.523438 116.429688 500.933594 C 117.078125 501.34375 117.660156 501.835938 118.171875 502.410156 C 118.679688 502.980469 119.101562 503.613281 119.433594 504.308594 Z M 119.433594 504.308594 " fill-opacity="1" fill-rule="nonzero"/></svg>