<svg xmlns="http://www.w3.org/2000/svg" xmlns:xlink="http://www.w3.org/1999/xlink" width="794" zoomAndPan="magnify" viewBox="0 0 594.95996 842.24997" height="1123" preserveAspectRatio="xMidYMid meet" version="1.0"><defs><clipPath id="970bdf25bc"><path d="M 59.71875 402.429688 L 535.546875 402.429688 L 535.546875 475.117188 L 59.71875 475.117188 Z M 59.71875 402.429688 " clip-rule="nonzero"/></clipPath></defs><g clip-path="url(#970bdf25bc)"><path fill="#f5f4f4" d="M 516.613281 475.117188 C 488.136719 475.117188 473.144531 463.105469 461.097656 453.453125 C 451.007812 445.363281 444.339844 440.027344 429.027344 440.027344 C 413.710938 440.027344 407.070312 445.363281 396.949219 453.453125 C 384.902344 463.105469 369.914062 475.117188 341.433594 475.117188 C 312.953125 475.117188 297.957031 463.105469 285.917969 453.453125 C 275.828125 445.363281 269.15625 440.027344 253.84375 440.027344 C 238.53125 440.027344 231.859375 445.363281 221.769531 453.453125 C 209.726562 463.105469 194.730469 475.117188 166.238281 475.117188 C 137.746094 475.117188 122.785156 463.105469 110.734375 453.453125 C 100.644531 445.363281 93.976562 440.027344 78.664062 440.027344 C 78.050781 440.027344 77.4375 439.996094 76.824219 439.9375 C 76.214844 439.875 75.605469 439.785156 75.003906 439.664062 C 74.402344 439.546875 73.804688 439.394531 73.21875 439.21875 C 72.628906 439.039062 72.050781 438.832031 71.484375 438.59375 C 70.914062 438.359375 70.359375 438.097656 69.816406 437.808594 C 69.277344 437.515625 68.75 437.199219 68.238281 436.859375 C 67.726562 436.515625 67.234375 436.148438 66.757812 435.757812 C 66.285156 435.367188 65.828125 434.957031 65.394531 434.519531 C 64.960938 434.085938 64.546875 433.628906 64.160156 433.152344 C 63.769531 432.679688 63.402344 432.183594 63.0625 431.671875 C 62.71875 431.160156 62.402344 430.632812 62.113281 430.089844 C 61.824219 429.546875 61.5625 428.992188 61.328125 428.421875 C 61.09375 427.851562 60.886719 427.273438 60.707031 426.683594 C 60.527344 426.097656 60.378906 425.5 60.257812 424.894531 C 60.140625 424.292969 60.050781 423.683594 59.988281 423.070312 C 59.929688 422.457031 59.898438 421.84375 59.898438 421.226562 C 59.898438 420.613281 59.929688 420 59.988281 419.386719 C 60.050781 418.773438 60.140625 418.164062 60.257812 417.5625 C 60.378906 416.957031 60.527344 416.359375 60.707031 415.773438 C 60.886719 415.183594 61.09375 414.605469 61.328125 414.035156 C 61.5625 413.464844 61.824219 412.910156 62.113281 412.367188 C 62.402344 411.824219 62.71875 411.296875 63.0625 410.785156 C 63.402344 410.273438 63.769531 409.777344 64.160156 409.304688 C 64.546875 408.828125 64.960938 408.371094 65.394531 407.9375 C 65.828125 407.5 66.285156 407.089844 66.757812 406.699219 C 67.234375 406.308594 67.726562 405.941406 68.238281 405.597656 C 68.75 405.257812 69.277344 404.941406 69.816406 404.648438 C 70.359375 404.359375 70.914062 404.097656 71.484375 403.863281 C 72.050781 403.625 72.628906 403.417969 73.21875 403.238281 C 73.804688 403.0625 74.402344 402.910156 75.003906 402.792969 C 75.605469 402.671875 76.214844 402.582031 76.824219 402.519531 C 77.4375 402.460938 78.050781 402.429688 78.664062 402.429688 C 107.144531 402.429688 122.132812 414.441406 134.179688 424.09375 C 144.269531 432.179688 150.9375 437.519531 166.238281 437.519531 C 181.539062 437.519531 188.21875 432.179688 198.308594 424.09375 C 210.371094 414.441406 225.363281 402.429688 253.84375 402.429688 C 282.324219 402.429688 297.3125 414.441406 309.359375 424.09375 C 319.449219 432.179688 326.113281 437.519531 341.433594 437.519531 C 356.75 437.519531 363.414062 432.179688 373.503906 424.09375 C 385.550781 414.441406 400.546875 402.429688 429.027344 402.429688 C 457.507812 402.429688 472.492188 414.441406 484.542969 424.09375 C 494.644531 432.179688 501.300781 437.519531 516.613281 437.519531 C 517.226562 437.519531 517.839844 437.550781 518.453125 437.609375 C 519.0625 437.671875 519.671875 437.761719 520.273438 437.882812 C 520.875 438 521.472656 438.152344 522.058594 438.328125 C 522.648438 438.507812 523.226562 438.714844 523.792969 438.949219 C 524.363281 439.1875 524.917969 439.449219 525.457031 439.738281 C 526 440.03125 526.527344 440.347656 527.039062 440.6875 C 527.550781 441.03125 528.042969 441.394531 528.519531 441.785156 C 528.992188 442.175781 529.449219 442.589844 529.882812 443.027344 C 530.316406 443.460938 530.730469 443.917969 531.117188 444.394531 C 531.507812 444.867188 531.875 445.363281 532.214844 445.875 C 532.558594 446.386719 532.875 446.914062 533.164062 447.457031 C 533.453125 448 533.714844 448.554688 533.949219 449.125 C 534.183594 449.691406 534.390625 450.273438 534.570312 450.859375 C 534.75 451.449219 534.898438 452.046875 535.019531 452.652344 C 535.136719 453.253906 535.226562 453.863281 535.289062 454.476562 C 535.347656 455.089844 535.378906 455.703125 535.378906 456.316406 C 535.378906 456.933594 535.347656 457.546875 535.289062 458.160156 C 535.226562 458.773438 535.136719 459.382812 535.019531 459.984375 C 534.898438 460.589844 534.75 461.183594 534.570312 461.773438 C 534.390625 462.363281 534.183594 462.941406 533.949219 463.511719 C 533.714844 464.082031 533.453125 464.636719 533.164062 465.179688 C 532.875 465.722656 532.558594 466.25 532.214844 466.761719 C 531.875 467.273438 531.507812 467.765625 531.117188 468.242188 C 530.730469 468.71875 530.316406 469.175781 529.882812 469.609375 C 529.449219 470.046875 528.992188 470.457031 528.519531 470.847656 C 528.042969 471.238281 527.550781 471.605469 527.039062 471.949219 C 526.527344 472.289062 526 472.605469 525.457031 472.894531 C 524.917969 473.1875 524.363281 473.449219 523.792969 473.683594 C 523.226562 473.921875 522.648438 474.128906 522.058594 474.304688 C 521.472656 474.484375 520.875 474.632812 520.273438 474.753906 C 519.671875 474.875 519.0625 474.964844 518.453125 475.023438 C 517.839844 475.085938 517.226562 475.117188 516.613281 475.117188 Z M 516.613281 475.117188 " fill-opacity="1" fill-rule="nonzero"/></g><path fill="#428dcc" d="M 78.664062 420.601562 C 81.285156 420.601562 83.8125 420.726562 86.238281 420.976562 L 86.109375 422.222656 C 83.726562 421.976562 81.242188 421.855469 78.664062 421.855469 Z M 93.722656 422.210938 C 96.226562 422.792969 98.65625 423.535156 101.003906 424.445312 L 100.554688 425.613281 C 98.257812 424.726562 95.886719 424 93.441406 423.433594 Z M 107.917969 427.691406 C 109.964844 428.828125 112.082031 430.164062 114.265625 431.703125 L 113.546875 432.726562 C 111.398438 431.214844 109.320312 429.902344 107.308594 428.785156 Z M 120.296875 436.253906 L 122.839844 438.28125 L 126.148438 440.914062 L 125.371094 441.894531 L 122.0625 439.261719 L 119.519531 437.234375 Z M 132.136719 445.359375 C 134.292969 446.84375 136.402344 448.132812 138.457031 449.226562 L 137.867188 450.335938 C 135.773438 449.21875 133.625 447.902344 131.425781 446.394531 Z M 145.269531 452.277344 C 147.566406 453.117188 149.9375 453.796875 152.390625 454.320312 L 152.132812 455.546875 C 149.621094 455.007812 147.191406 454.3125 144.84375 453.457031 Z M 159.710938 455.410156 C 161.8125 455.597656 163.988281 455.691406 166.238281 455.691406 L 167.261719 455.683594 L 167.269531 456.9375 L 166.238281 456.945312 C 163.949219 456.945312 161.738281 456.847656 159.597656 456.660156 Z M 174.667969 455.214844 C 177.199219 454.914062 179.640625 454.46875 181.984375 453.878906 L 182.289062 455.09375 C 179.890625 455.695312 177.402344 456.152344 174.816406 456.457031 Z M 189.03125 451.574219 C 191.285156 450.65625 193.515625 449.558594 195.734375 448.28125 L 196.355469 449.367188 C 194.09375 450.671875 191.808594 451.792969 189.503906 452.734375 Z M 201.910156 444.257812 C 203.527344 443.09375 205.507812 441.578125 207.855469 439.707031 L 208.632812 440.6875 C 206.273438 442.570312 204.273438 444.097656 202.640625 445.273438 Z M 213.71875 435.046875 C 215.953125 433.308594 217.980469 431.828125 219.800781 430.613281 L 220.496094 431.652344 C 218.703125 432.855469 216.699219 434.316406 214.484375 436.035156 Z M 226.335938 426.746094 C 228.628906 425.574219 230.96875 424.578125 233.351562 423.757812 L 233.757812 424.945312 C 231.429688 425.746094 229.144531 426.714844 226.90625 427.859375 Z M 240.636719 421.808594 C 243.035156 421.335938 245.53125 421.003906 248.121094 420.808594 L 248.214844 422.058594 C 245.675781 422.25 243.230469 422.578125 240.878906 423.039062 Z M 255.871094 420.628906 C 258.476562 420.695312 260.988281 420.890625 263.402344 421.214844 L 263.234375 422.457031 C 260.867188 422.140625 258.398438 421.945312 255.835938 421.878906 Z M 270.832031 422.703125 C 273.285156 423.367188 275.671875 424.195312 277.988281 425.191406 L 277.496094 426.34375 C 275.230469 425.371094 272.902344 424.5625 270.507812 423.914062 Z M 284.785156 428.679688 C 286.757812 429.859375 288.832031 431.25 291.015625 432.855469 L 290.277344 433.863281 C 288.125 432.285156 286.082031 430.917969 284.144531 429.757812 Z M 296.96875 437.464844 C 297.199219 437.648438 297.539062 437.921875 297.992188 438.285156 C 300.128906 439.996094 301.738281 441.269531 302.828125 442.105469 L 302.066406 443.097656 C 300.972656 442.257812 299.351562 440.980469 297.210938 439.261719 C 296.757812 438.902344 296.417969 438.628906 296.1875 438.445312 Z M 308.863281 446.417969 C 311.058594 447.847656 313.226562 449.082031 315.371094 450.128906 L 314.824219 451.257812 C 312.632812 450.1875 310.417969 448.925781 308.183594 447.46875 Z M 322.21875 452.898438 C 324.523438 453.644531 326.910156 454.238281 329.382812 454.683594 L 329.160156 455.914062 C 326.632812 455.460938 324.191406 454.851562 321.835938 454.089844 Z M 336.738281 455.550781 C 338.25 455.644531 339.800781 455.691406 341.386719 455.691406 C 342.40625 455.691406 343.414062 455.671875 344.398438 455.632812 L 344.449219 456.886719 C 343.445312 456.925781 342.425781 456.945312 341.386719 456.945312 C 339.773438 456.945312 338.199219 456.898438 336.660156 456.800781 Z M 351.78125 454.949219 C 354.28125 454.570312 356.691406 454.042969 359.015625 453.371094 L 359.363281 454.574219 C 356.988281 455.261719 354.523438 455.800781 351.96875 456.1875 Z M 365.941406 450.816406 C 368.136719 449.828125 370.335938 448.648438 372.539062 447.289062 L 373.199219 448.355469 C 370.949219 449.746094 368.699219 450.945312 366.457031 451.960938 Z M 378.632812 443.101562 C 380.023438 442.0625 381.988281 440.527344 384.519531 438.496094 L 385.300781 439.472656 C 382.757812 441.511719 380.785156 443.058594 379.382812 444.105469 Z M 390.421875 433.851562 C 392.621094 432.191406 394.671875 430.757812 396.578125 429.550781 L 397.246094 430.613281 C 395.367188 431.796875 393.34375 433.210938 391.175781 434.851562 Z M 403.285156 425.867188 C 405.578125 424.796875 407.925781 423.898438 410.335938 423.164062 L 410.699219 424.363281 C 408.347656 425.078125 406.050781 425.957031 403.8125 427.003906 Z M 417.703125 421.464844 C 420.109375 421.074219 422.613281 420.816406 425.214844 420.691406 L 425.273438 421.941406 C 422.71875 422.066406 420.261719 422.320312 417.902344 422.703125 Z M 432.996094 420.703125 C 435.59375 420.839844 438.097656 421.105469 440.503906 421.507812 L 440.296875 422.742188 C 437.9375 422.351562 435.484375 422.085938 432.929688 421.957031 Z M 447.84375 423.230469 C 450.265625 423.976562 452.632812 424.894531 454.941406 425.984375 L 454.410156 427.121094 C 452.152344 426.054688 449.84375 425.160156 447.476562 424.429688 Z M 461.582031 429.664062 C 463.488281 430.875 465.546875 432.320312 467.761719 434 L 467.003906 434.996094 C 464.820312 433.339844 462.789062 431.914062 460.910156 430.722656 Z M 473.652344 438.640625 C 476.15625 440.644531 478.121094 442.175781 479.542969 443.238281 L 478.796875 444.242188 C 477.359375 443.175781 475.386719 441.632812 472.871094 439.617188 Z M 485.703125 447.441406 C 487.886719 448.777344 490.074219 449.933594 492.257812 450.910156 L 491.75 452.054688 C 489.515625 451.058594 487.28125 449.875 485.050781 448.507812 Z M 499.203125 453.433594 C 501.535156 454.101562 503.957031 454.617188 506.46875 454.984375 L 506.289062 456.226562 C 503.71875 455.847656 501.246094 455.320312 498.859375 454.640625 Z M 499.203125 453.433594 " fill-opacity="1" fill-rule="nonzero"/><path fill="#428dcc" d="M 505.390625 461.777344 L 516.617188 456.316406 L 506.285156 449.304688 Z M 505.390625 461.777344 " fill-opacity="1" fill-rule="nonzero"/><path fill="#428dcc" d="M 84.21875 414.335938 C 84.433594 414.769531 84.734375 415.128906 85.125 415.410156 C 85.515625 415.695312 85.949219 415.871094 86.425781 415.941406 C 86.980469 416.019531 87.472656 416.238281 87.898438 416.597656 C 88.328125 416.960938 88.628906 417.40625 88.800781 417.941406 C 88.972656 418.472656 88.988281 419.011719 88.855469 419.554688 C 88.71875 420.097656 88.449219 420.5625 88.046875 420.953125 C 87.703125 421.292969 87.457031 421.691406 87.308594 422.148438 C 87.160156 422.609375 87.128906 423.078125 87.210938 423.554688 C 87.304688 424.105469 87.246094 424.636719 87.035156 425.15625 C 86.824219 425.671875 86.496094 426.097656 86.042969 426.425781 C 85.589844 426.753906 85.085938 426.9375 84.53125 426.976562 C 83.972656 427.015625 83.449219 426.902344 82.957031 426.640625 C 82.53125 426.417969 82.078125 426.304688 81.59375 426.304688 C 81.113281 426.304688 80.660156 426.417969 80.234375 426.640625 C 79.742188 426.902344 79.21875 427.011719 78.660156 426.972656 C 78.105469 426.929688 77.605469 426.746094 77.152344 426.417969 C 76.703125 426.089844 76.371094 425.667969 76.160156 425.152344 C 75.953125 424.636719 75.894531 424.101562 75.988281 423.554688 C 76.066406 423.078125 76.03125 422.609375 75.882812 422.148438 C 75.734375 421.691406 75.488281 421.289062 75.144531 420.953125 C 74.742188 420.5625 74.472656 420.097656 74.335938 419.554688 C 74.199219 419.007812 74.21875 418.46875 74.394531 417.9375 C 74.566406 417.40625 74.867188 416.957031 75.296875 416.597656 C 75.722656 416.238281 76.214844 416.019531 76.769531 415.941406 C 77.246094 415.871094 77.679688 415.695312 78.066406 415.410156 C 78.457031 415.125 78.757812 414.769531 78.972656 414.335938 C 79.21875 413.835938 79.578125 413.4375 80.050781 413.144531 C 80.523438 412.851562 81.039062 412.703125 81.59375 412.703125 C 82.152344 412.703125 82.667969 412.851562 83.140625 413.144531 C 83.613281 413.4375 83.972656 413.835938 84.21875 414.335938 Z M 84.21875 414.335938 " fill-opacity="1" fill-rule="nonzero"/></svg>