<svg xmlns="http://www.w3.org/2000/svg" xmlns:xlink="http://www.w3.org/1999/xlink" width="794" zoomAndPan="magnify" viewBox="0 0 594.95996 842.24997" height="1123" preserveAspectRatio="xMidYMid meet" version="1.0"><defs><clipPath id="5b328900fb"><path d="M 59.71875 400.25 L 535.546875 400.25 L 535.546875 440.714844 L 59.71875 440.714844 Z M 59.71875 400.25 " clip-rule="nonzero"/></clipPath></defs><g clip-path="url(#5b328900fb)"><path fill="#f5f4f4" d="M 80.015625 400.28125 L 515.230469 400.28125 C 515.894531 400.28125 516.558594 400.3125 517.21875 400.378906 C 517.878906 400.441406 518.539062 400.539062 519.1875 400.667969 C 519.839844 400.796875 520.484375 400.957031 521.121094 401.148438 C 521.757812 401.34375 522.382812 401.566406 522.996094 401.816406 C 523.609375 402.070312 524.210938 402.355469 524.796875 402.667969 C 525.382812 402.976562 525.953125 403.316406 526.507812 403.6875 C 527.058594 404.054688 527.59375 404.445312 528.105469 404.867188 C 528.621094 405.285156 529.113281 405.730469 529.582031 406.199219 C 530.050781 406.667969 530.496094 407.15625 530.917969 407.667969 C 531.339844 408.179688 531.738281 408.710938 532.105469 409.261719 C 532.476562 409.8125 532.816406 410.378906 533.128906 410.960938 C 533.441406 411.546875 533.726562 412.144531 533.980469 412.753906 C 534.234375 413.367188 534.460938 413.988281 534.652344 414.621094 C 534.84375 415.253906 535.007812 415.898438 535.136719 416.546875 C 535.265625 417.195312 535.363281 417.847656 535.429688 418.507812 C 535.492188 419.164062 535.527344 419.824219 535.527344 420.488281 C 535.527344 421.148438 535.492188 421.808594 535.429688 422.46875 C 535.363281 423.128906 535.265625 423.78125 535.136719 424.429688 C 535.007812 425.078125 534.84375 425.71875 534.652344 426.355469 C 534.460938 426.988281 534.234375 427.609375 533.980469 428.222656 C 533.726562 428.832031 533.441406 429.429688 533.128906 430.015625 C 532.816406 430.597656 532.476562 431.164062 532.105469 431.714844 C 531.738281 432.265625 531.339844 432.796875 530.917969 433.308594 C 530.496094 433.820312 530.050781 434.308594 529.582031 434.777344 C 529.113281 435.246094 528.621094 435.6875 528.105469 436.109375 C 527.59375 436.527344 527.058594 436.921875 526.507812 437.289062 C 525.953125 437.65625 525.382812 437.996094 524.796875 438.308594 C 524.210938 438.621094 523.609375 438.90625 522.996094 439.15625 C 522.382812 439.410156 521.757812 439.632812 521.121094 439.824219 C 520.484375 440.019531 519.839844 440.179688 519.1875 440.308594 C 518.539062 440.4375 517.878906 440.535156 517.21875 440.597656 C 516.558594 440.664062 515.894531 440.695312 515.230469 440.695312 L 80.015625 440.695312 C 79.351562 440.695312 78.6875 440.664062 78.027344 440.597656 C 77.367188 440.535156 76.707031 440.4375 76.054688 440.308594 C 75.40625 440.179688 74.761719 440.019531 74.125 439.824219 C 73.488281 439.632812 72.863281 439.410156 72.25 439.15625 C 71.636719 438.90625 71.035156 438.621094 70.449219 438.308594 C 69.863281 437.996094 69.292969 437.65625 68.738281 437.289062 C 68.1875 436.921875 67.652344 436.527344 67.140625 436.109375 C 66.625 435.6875 66.132812 435.246094 65.664062 434.777344 C 65.195312 434.308594 64.75 433.820312 64.328125 433.308594 C 63.90625 432.796875 63.507812 432.265625 63.140625 431.714844 C 62.769531 431.164062 62.429688 430.597656 62.117188 430.015625 C 61.800781 429.429688 61.519531 428.832031 61.265625 428.222656 C 61.011719 427.609375 60.785156 426.988281 60.59375 426.355469 C 60.398438 425.71875 60.238281 425.078125 60.109375 424.429688 C 59.980469 423.78125 59.882812 423.128906 59.816406 422.46875 C 59.75 421.808594 59.71875 421.148438 59.71875 420.488281 C 59.71875 419.824219 59.75 419.164062 59.816406 418.507812 C 59.882812 417.847656 59.980469 417.195312 60.109375 416.546875 C 60.238281 415.898438 60.398438 415.253906 60.59375 414.621094 C 60.785156 413.988281 61.011719 413.367188 61.265625 412.753906 C 61.519531 412.144531 61.800781 411.546875 62.117188 410.960938 C 62.429688 410.378906 62.769531 409.8125 63.140625 409.261719 C 63.507812 408.710938 63.90625 408.179688 64.328125 407.667969 C 64.75 407.15625 65.195312 406.667969 65.664062 406.199219 C 66.132812 405.730469 66.625 405.285156 67.140625 404.867188 C 67.652344 404.445312 68.1875 404.054688 68.738281 403.6875 C 69.292969 403.316406 69.863281 402.976562 70.449219 402.667969 C 71.035156 402.355469 71.636719 402.070312 72.25 401.816406 C 72.863281 401.566406 73.488281 401.34375 74.125 401.148438 C 74.761719 400.957031 75.40625 400.796875 76.054688 400.667969 C 76.707031 400.539062 77.367188 400.441406 78.027344 400.378906 C 78.6875 400.3125 79.351562 400.28125 80.015625 400.28125 Z M 80.015625 400.28125 " fill-opacity="1" fill-rule="nonzero"/></g><path fill="#428dcc" d="M 81.101562 419.859375 L 88.660156 419.859375 L 88.660156 421.117188 L 81.101562 421.117188 M 96.222656 419.859375 L 103.785156 419.859375 L 103.785156 421.117188 L 96.222656 421.117188 M 111.347656 419.859375 L 118.910156 419.859375 L 118.910156 421.117188 L 111.347656 421.117188 M 126.472656 419.859375 L 134.03125 419.859375 L 134.03125 421.117188 L 126.472656 421.117188 M 141.59375 419.859375 L 149.15625 419.859375 L 149.15625 421.117188 L 141.59375 421.117188 M 156.71875 419.859375 L 164.28125 419.859375 L 164.28125 421.117188 L 156.71875 421.117188 M 171.84375 419.859375 L 179.402344 419.859375 L 179.402344 421.117188 L 171.84375 421.117188 M 186.964844 419.859375 L 194.527344 419.859375 L 194.527344 421.117188 L 186.964844 421.117188 M 202.089844 419.859375 L 209.652344 419.859375 L 209.652344 421.117188 L 202.089844 421.117188 M 217.210938 419.859375 L 224.773438 419.859375 L 224.773438 421.117188 L 217.210938 421.117188 M 232.335938 419.859375 L 239.898438 419.859375 L 239.898438 421.117188 L 232.335938 421.117188 M 247.460938 419.859375 L 255.023438 419.859375 L 255.023438 421.117188 L 247.460938 421.117188 M 262.582031 419.859375 L 270.144531 419.859375 L 270.144531 421.117188 L 262.582031 421.117188 M 277.707031 419.859375 L 285.269531 419.859375 L 285.269531 421.117188 L 277.707031 421.117188 M 292.832031 419.859375 L 300.390625 419.859375 L 300.390625 421.117188 L 292.832031 421.117188 M 307.953125 419.859375 L 315.515625 419.859375 L 315.515625 421.117188 L 307.953125 421.117188 M 323.078125 419.859375 L 330.640625 419.859375 L 330.640625 421.117188 L 323.078125 421.117188 M 338.203125 419.859375 L 345.761719 419.859375 L 345.761719 421.117188 L 338.203125 421.117188 M 353.324219 419.859375 L 360.886719 419.859375 L 360.886719 421.117188 L 353.324219 421.117188 M 368.449219 419.859375 L 376.011719 419.859375 L 376.011719 421.117188 L 368.449219 421.117188 M 383.570312 419.859375 L 391.132812 419.859375 L 391.132812 421.117188 L 383.570312 421.117188 M 398.695312 419.859375 L 406.257812 419.859375 L 406.257812 421.117188 L 398.695312 421.117188 M 413.820312 419.859375 L 421.382812 419.859375 L 421.382812 421.117188 L 413.820312 421.117188 M 428.941406 419.859375 L 436.503906 419.859375 L 436.503906 421.117188 L 428.941406 421.117188 M 444.066406 419.859375 L 451.628906 419.859375 L 451.628906 421.117188 L 444.066406 421.117188 M 459.191406 419.859375 L 466.753906 419.859375 L 466.753906 421.117188 L 459.191406 421.117188 M 474.3125 419.859375 L 481.875 419.859375 L 481.875 421.117188 L 474.3125 421.117188 M 489.4375 419.859375 L 497 419.859375 L 497 421.117188 L 489.4375 421.117188 M 504.5625 419.859375 L 510.597656 419.859375 L 510.597656 421.117188 L 504.5625 421.117188 " fill-opacity="1" fill-rule="nonzero"/><path fill="#428dcc" d="M 508.757812 426.742188 L 519.640625 420.488281 L 508.757812 414.234375 Z M 508.757812 426.742188 " fill-opacity="1" fill-rule="nonzero"/><path fill="#428dcc" d="M 86.953125 413.726562 C 87.167969 414.160156 87.472656 414.519531 87.863281 414.804688 C 88.253906 415.089844 88.691406 415.265625 89.171875 415.335938 C 89.730469 415.414062 90.226562 415.636719 90.65625 415.996094 C 91.089844 416.355469 91.390625 416.804688 91.566406 417.335938 C 91.742188 417.871094 91.757812 418.410156 91.625 418.953125 C 91.488281 419.5 91.214844 419.964844 90.8125 420.355469 C 90.464844 420.691406 90.21875 421.089844 90.070312 421.546875 C 89.921875 422.003906 89.886719 422.46875 89.964844 422.941406 C 90.0625 423.492188 90.003906 424.027344 89.789062 424.542969 C 89.578125 425.058594 89.246094 425.484375 88.792969 425.8125 C 88.339844 426.140625 87.832031 426.324219 87.273438 426.363281 C 86.710938 426.402344 86.183594 426.292969 85.6875 426.035156 C 85.257812 425.808594 84.800781 425.695312 84.3125 425.695312 C 83.828125 425.695312 83.371094 425.808594 82.941406 426.035156 C 82.445312 426.292969 81.914062 426.402344 81.355469 426.363281 C 80.796875 426.324219 80.289062 426.140625 79.835938 425.8125 C 79.382812 425.484375 79.050781 425.058594 78.835938 424.542969 C 78.625 424.027344 78.566406 423.492188 78.660156 422.941406 C 78.738281 422.46875 78.703125 422 78.554688 421.546875 C 78.402344 421.089844 78.15625 420.691406 77.8125 420.355469 C 77.40625 419.964844 77.132812 419.5 77 418.957031 C 76.863281 418.410156 76.878906 417.875 77.054688 417.339844 C 77.226562 416.804688 77.527344 416.359375 77.960938 415.996094 C 78.390625 415.636719 78.886719 415.417969 79.441406 415.335938 C 79.921875 415.265625 80.359375 415.089844 80.75 414.804688 C 81.144531 414.523438 81.445312 414.164062 81.660156 413.730469 C 81.910156 413.230469 82.269531 412.828125 82.746094 412.53125 C 83.222656 412.234375 83.742188 412.085938 84.304688 412.085938 C 84.867188 412.085938 85.386719 412.234375 85.863281 412.527344 C 86.34375 412.824219 86.707031 413.222656 86.953125 413.726562 Z M 86.953125 413.726562 " fill-opacity="1" fill-rule="nonzero"/></svg>