<svg xmlns="http://www.w3.org/2000/svg" xmlns:xlink="http://www.w3.org/1999/xlink" width="1200" zoomAndPan="magnify" viewBox="0 0 900 899.99999" height="1200" preserveAspectRatio="xMidYMid meet" version="1.0"><defs><clipPath id="03099ca717"><path d="M 33 33 L 677 33 L 677 711 L 33 711 Z M 33 33 " clip-rule="nonzero"/></clipPath><clipPath id="2f4fb2c4b4"><path d="M 118.257812 744.136719 L -0.0664062 633.492188 L 592.605469 -0.328125 L 710.933594 110.320312 Z M 118.257812 744.136719 " clip-rule="nonzero"/></clipPath><clipPath id="966782cd1b"><path d="M 118.257812 744.136719 L -0.0664062 633.492188 L 592.605469 -0.328125 L 710.933594 110.320312 Z M 118.257812 744.136719 " clip-rule="nonzero"/></clipPath><clipPath id="d1a2c489b8"><path d="M 75 105 L 608 105 L 608 669 L 75 669 Z M 75 105 " clip-rule="nonzero"/></clipPath><clipPath id="40989d1ce2"><path d="M 118.257812 744.136719 L -0.0664062 633.492188 L 592.605469 -0.328125 L 710.933594 110.320312 Z M 118.257812 744.136719 " clip-rule="nonzero"/></clipPath><clipPath id="60165a4796"><path d="M 118.257812 744.136719 L -0.0664062 633.492188 L 592.605469 -0.328125 L 710.933594 110.320312 Z M 118.257812 744.136719 " clip-rule="nonzero"/></clipPath><clipPath id="6ed93871bc"><path d="M 191 171 L 835 171 L 835 849 L 191 849 Z M 191 171 " clip-rule="nonzero"/></clipPath><clipPath id="8d3955029a"><path d="M 276.171875 881.792969 L 157.84375 771.144531 L 750.519531 137.324219 L 868.847656 247.972656 Z M 276.171875 881.792969 " clip-rule="nonzero"/></clipPath><clipPath id="e9fdd48c04"><path d="M 276.171875 881.792969 L 157.84375 771.144531 L 750.519531 137.324219 L 868.847656 247.972656 Z M 276.171875 881.792969 " clip-rule="nonzero"/></clipPath><clipPath id="39e39760ac"><path d="M 232 242 L 766 242 L 766 807 L 232 807 Z M 232 242 " clip-rule="nonzero"/></clipPath><clipPath id="8e88d76149"><path d="M 276.171875 881.792969 L 157.84375 771.144531 L 750.519531 137.324219 L 868.847656 247.972656 Z M 276.171875 881.792969 " clip-rule="nonzero"/></clipPath><clipPath id="91b565bc59"><path d="M 276.171875 881.792969 L 157.84375 771.144531 L 750.519531 137.324219 L 868.847656 247.972656 Z M 276.171875 881.792969 " clip-rule="nonzero"/></clipPath></defs><g clip-path="url(#03099ca717)"><g clip-path="url(#2f4fb2c4b4)"><g clip-path="url(#966782cd1b)"><path fill="#d83951" d="M 655.382812 169.671875 L 173.492188 685.019531 C 143.289062 717.320312 91.429688 719.050781 59.136719 688.855469 C 26.84375 658.65625 25.097656 606.804688 55.300781 574.5 L 537.195312 59.152344 C 567.390625 26.859375 619.253906 25.121094 651.546875 55.316406 C 683.839844 85.515625 685.582031 137.378906 655.382812 169.671875 Z M 643.832031 63.566406 C 614.972656 36.578125 572.425781 38.011719 545.445312 66.867188 L 63.550781 582.214844 C 36.5625 611.078125 38 653.625 66.851562 680.605469 C 95.707031 707.585938 138.261719 706.175781 165.25 677.3125 L 647.144531 161.964844 C 674.132812 133.101562 672.695312 90.554688 643.84375 63.574219 Z M 643.832031 63.566406 " fill-opacity="1" fill-rule="nonzero"/></g></g></g><g clip-path="url(#d1a2c489b8)"><g clip-path="url(#40989d1ce2)"><g clip-path="url(#60165a4796)"><path fill="#d83951" d="M 120.996094 666.78125 C 118.9375 664.855469 118.203125 662.875 117.46875 660.914062 L 108.640625 635.917969 L 83.109375 628.78125 C 81.09375 628.191406 79.765625 628.226562 77.703125 626.300781 C 74.265625 623.082031 74.09375 617.769531 77.304688 614.339844 C 78.585938 612.96875 80.566406 612.234375 83.21875 612.144531 L 123.105469 610.804688 C 126.445312 611.363281 128.425781 610.628906 130.484375 612.554688 C 133.234375 615.125 132.644531 617.140625 133.414062 620.445312 L 134.753906 660.332031 C 134.160156 662.347656 133.550781 664.367188 132.269531 665.734375 C 129.054688 669.175781 124.429688 669.992188 120.988281 666.773438 Z M 593.894531 161.054688 C 591.835938 159.128906 591.101562 157.148438 590.367188 155.1875 L 581.535156 130.1875 L 556.003906 123.054688 C 553.988281 122.460938 552.660156 122.5 550.601562 120.574219 C 547.160156 117.355469 546.992188 112.042969 550.199219 108.609375 C 551.480469 107.238281 553.460938 106.507812 556.113281 106.417969 L 596 105.078125 C 599.34375 105.632812 601.320312 104.898438 603.382812 106.828125 C 606.132812 109.398438 605.539062 111.414062 606.308594 114.71875 L 607.648438 154.605469 C 607.054688 156.621094 606.449219 158.636719 605.167969 160.007812 C 601.957031 163.441406 597.324219 164.261719 593.886719 161.046875 Z M 163.519531 585.484375 C 161.59375 587.546875 157.609375 587.679688 155.546875 585.753906 C 152.796875 583.179688 153.351562 579.839844 155.28125 577.777344 L 175.199219 556.476562 C 177.769531 553.726562 180.421875 553.636719 183.171875 556.210938 C 185.234375 558.136719 186.011719 561.433594 183.441406 564.183594 Z M 237.410156 506.46875 L 216.847656 528.457031 C 214.917969 530.519531 210.933594 530.652344 208.871094 528.726562 C 206.121094 526.15625 206.675781 522.8125 208.605469 520.753906 L 229.167969 498.761719 C 231.09375 496.699219 234.390625 495.921875 237.140625 498.492188 C 239.203125 500.417969 239.335938 504.40625 237.410156 506.46875 Z M 270.824219 470.734375 C 268.894531 472.792969 264.910156 472.929688 262.847656 471 C 260.097656 468.429688 260.65625 465.089844 262.582031 463.027344 L 282.5 441.726562 C 285.070312 438.976562 287.722656 438.886719 290.472656 441.457031 C 292.535156 443.386719 293.3125 446.683594 290.742188 449.433594 Z M 324.15625 413.699219 C 322.226562 415.761719 318.242188 415.894531 316.179688 413.96875 C 313.429688 411.394531 313.988281 408.054688 315.914062 405.992188 L 336.476562 384 C 338.402344 381.941406 341.699219 381.164062 344.449219 383.734375 C 346.511719 385.660156 346.644531 389.648438 344.71875 391.707031 Z M 378.125 355.984375 C 376.199219 358.042969 372.210938 358.179688 370.148438 356.25 C 367.398438 353.679688 367.957031 350.335938 369.882812 348.277344 L 389.800781 326.976562 C 392.371094 324.226562 395.027344 324.136719 397.777344 326.707031 C 399.835938 328.632812 400.613281 331.933594 398.042969 334.683594 Z M 431.457031 298.949219 C 429.53125 301.007812 425.542969 301.144531 423.480469 299.214844 C 420.730469 296.644531 421.289062 293.304688 423.214844 291.242188 L 443.777344 269.25 C 445.703125 267.191406 449.003906 266.410156 451.753906 268.984375 C 453.8125 270.910156 453.945312 274.898438 452.019531 276.957031 Z M 485.425781 241.234375 C 483.5 243.292969 479.511719 243.425781 477.453125 241.5 C 474.703125 238.929688 475.257812 235.585938 477.183594 233.527344 L 497.101562 212.222656 C 499.03125 210.164062 502.328125 209.386719 505.078125 211.957031 C 507.136719 213.882812 507.269531 217.871094 505.34375 219.929688 Z M 538.757812 184.199219 C 536.832031 186.257812 532.84375 186.390625 530.785156 184.464844 C 528.035156 181.894531 528.589844 178.550781 530.515625 176.492188 L 551.078125 154.5 C 553.007812 152.441406 556.304688 151.660156 559.054688 154.234375 C 561.113281 156.160156 561.246094 160.148438 559.320312 162.207031 Z M 538.757812 184.199219 " fill-opacity="1" fill-rule="nonzero"/></g></g></g><g clip-path="url(#6ed93871bc)"><g clip-path="url(#8d3955029a)"><g clip-path="url(#e9fdd48c04)"><path fill="#d83951" d="M 813.296875 307.324219 L 331.40625 822.671875 C 301.199219 854.972656 249.34375 856.707031 217.050781 826.507812 C 184.757812 796.3125 183.011719 744.457031 213.214844 712.15625 L 695.105469 196.804688 C 725.304688 164.511719 777.167969 162.773438 809.460938 192.96875 C 841.753906 223.167969 843.496094 275.03125 813.296875 307.324219 Z M 801.746094 201.21875 C 772.882812 174.230469 730.335938 175.667969 703.355469 204.519531 L 221.464844 719.867188 C 194.476562 748.730469 195.910156 791.277344 224.765625 818.257812 C 253.621094 845.238281 296.175781 843.828125 323.164062 814.964844 L 805.054688 299.617188 C 832.042969 270.753906 830.609375 228.207031 801.753906 201.226562 Z M 801.746094 201.21875 " fill-opacity="1" fill-rule="nonzero"/></g></g></g><g clip-path="url(#39e39760ac)"><g clip-path="url(#8e88d76149)"><g clip-path="url(#91b565bc59)"><path fill="#d83951" d="M 278.910156 804.4375 C 276.851562 802.507812 276.117188 800.53125 275.382812 798.566406 L 266.554688 773.570312 L 241.019531 766.433594 C 239.003906 765.84375 237.679688 765.878906 235.617188 763.953125 C 232.179688 760.738281 232.007812 755.421875 235.214844 751.992188 C 236.5 750.621094 238.476562 749.886719 241.128906 749.796875 L 281.015625 748.460938 C 284.359375 749.015625 286.339844 748.28125 288.398438 750.207031 C 291.148438 752.777344 290.554688 754.792969 291.328125 758.101562 L 292.664062 797.988281 C 292.074219 800.003906 291.464844 802.019531 290.183594 803.390625 C 286.964844 806.828125 282.34375 807.644531 278.902344 804.429688 Z M 751.808594 298.707031 C 749.746094 296.78125 749.011719 294.800781 748.277344 292.839844 L 739.449219 267.84375 L 713.917969 260.707031 C 711.902344 260.117188 710.574219 260.152344 708.515625 258.226562 C 705.074219 255.007812 704.90625 249.695312 708.113281 246.265625 C 709.394531 244.894531 711.375 244.160156 714.027344 244.070312 L 753.914062 242.730469 C 757.253906 243.289062 759.234375 242.554688 761.292969 244.480469 C 764.042969 247.050781 763.453125 249.066406 764.222656 252.375 L 765.5625 292.257812 C 764.96875 294.273438 764.359375 296.292969 763.078125 297.664062 C 759.871094 301.09375 755.238281 301.917969 751.800781 298.699219 Z M 321.433594 723.136719 C 319.507812 725.199219 315.519531 725.332031 313.460938 723.40625 C 310.710938 720.835938 311.265625 717.492188 313.191406 715.433594 L 333.113281 694.128906 C 335.683594 691.378906 338.335938 691.292969 341.085938 693.863281 C 343.144531 695.789062 343.925781 699.085938 341.351562 701.835938 Z M 395.324219 644.121094 L 374.757812 666.113281 C 372.832031 668.171875 368.84375 668.304688 366.785156 666.378906 C 364.035156 663.808594 364.589844 660.464844 366.515625 658.40625 L 387.082031 636.414062 C 389.007812 634.355469 392.304688 633.574219 395.054688 636.148438 C 397.117188 638.074219 397.25 642.058594 395.324219 644.121094 Z M 428.734375 608.386719 C 426.808594 610.449219 422.820312 610.582031 420.761719 608.65625 C 418.011719 606.082031 418.566406 602.742188 420.492188 600.679688 L 440.414062 579.378906 C 442.984375 576.628906 445.636719 576.539062 448.386719 579.113281 C 450.449219 581.039062 451.226562 584.335938 448.65625 587.085938 Z M 482.066406 551.351562 C 480.140625 553.414062 476.152344 553.546875 474.09375 551.621094 C 471.34375 549.050781 471.898438 545.707031 473.824219 543.644531 L 494.390625 521.65625 C 496.316406 519.59375 499.613281 518.816406 502.363281 521.386719 C 504.425781 523.3125 504.558594 527.300781 502.632812 529.363281 Z M 536.035156 493.636719 C 534.109375 495.699219 530.125 495.832031 528.0625 493.90625 C 525.3125 491.332031 525.867188 487.992188 527.796875 485.929688 L 547.714844 464.628906 C 550.285156 461.878906 552.9375 461.789062 555.6875 464.359375 C 557.75 466.289062 558.527344 469.585938 555.957031 472.335938 Z M 589.367188 436.601562 C 587.441406 438.664062 583.457031 438.796875 581.394531 436.871094 C 578.644531 434.296875 579.199219 430.957031 581.128906 428.894531 L 601.691406 406.90625 C 603.617188 404.84375 606.914062 404.066406 609.664062 406.636719 C 611.726562 408.5625 611.859375 412.550781 609.933594 414.609375 Z M 643.339844 378.886719 C 641.410156 380.945312 637.425781 381.082031 635.363281 379.152344 C 632.613281 376.582031 633.171875 373.238281 635.097656 371.179688 L 655.015625 349.878906 C 656.941406 347.816406 660.238281 347.039062 662.988281 349.609375 C 665.050781 351.535156 665.183594 355.523438 663.257812 357.585938 Z M 696.671875 321.851562 C 694.742188 323.910156 690.757812 324.046875 688.695312 322.121094 C 685.945312 319.546875 686.503906 316.207031 688.429688 314.144531 L 708.992188 292.152344 C 710.917969 290.09375 714.214844 289.316406 716.964844 291.886719 C 719.027344 293.8125 719.160156 297.800781 717.234375 299.859375 Z M 696.671875 321.851562 " fill-opacity="1" fill-rule="nonzero"/></g></g></g></svg>