<svg xmlns="http://www.w3.org/2000/svg" xmlns:xlink="http://www.w3.org/1999/xlink" width="794" zoomAndPan="magnify" viewBox="0 0 594.95996 842.24997" height="1123" preserveAspectRatio="xMidYMid meet" version="1.0"><defs><clipPath id="2975ddd167"><path d="M 127 250 L 468 250 L 468 591 L 127 591 Z M 127 250 " clip-rule="nonzero"/></clipPath><clipPath id="ced5828fc3"><path d="M 118.503906 571.617188 L 448.605469 241.515625 L 476.6875 269.597656 L 146.585938 599.699219 Z M 118.503906 571.617188 " clip-rule="nonzero"/></clipPath><clipPath id="a2e257caff"><path d="M 118.503906 571.617188 L 448.605469 241.515625 L 476.6875 269.597656 L 146.585938 599.699219 Z M 118.503906 571.617188 " clip-rule="nonzero"/></clipPath><clipPath id="cc8f50049d"><path d="M 118.503906 571.617188 L 448.605469 241.515625 L 476.6875 269.597656 L 146.585938 599.699219 Z M 118.503906 571.617188 " clip-rule="nonzero"/></clipPath><clipPath id="d81f601d60"><path d="M 147 272 L 446 272 L 446 571 L 147 571 Z M 147 272 " clip-rule="nonzero"/></clipPath><clipPath id="f8ff4fced3"><path d="M 118.503906 571.617188 L 448.605469 241.515625 L 476.6875 269.597656 L 146.585938 599.699219 Z M 118.503906 571.617188 " clip-rule="nonzero"/></clipPath><clipPath id="f1d58c7c4d"><path d="M 118.503906 571.617188 L 448.605469 241.515625 L 476.6875 269.597656 L 146.585938 599.699219 Z M 118.503906 571.617188 " clip-rule="nonzero"/></clipPath><clipPath id="8f220befb4"><path d="M 118.503906 571.617188 L 448.605469 241.515625 L 476.6875 269.597656 L 146.585938 599.699219 Z M 118.503906 571.617188 " clip-rule="nonzero"/></clipPath><clipPath id="e62514442f"><path d="M 439 267 L 452 267 L 452 280 L 439 280 Z M 439 267 " clip-rule="nonzero"/></clipPath><clipPath id="73e17887e7"><path d="M 118.503906 571.617188 L 448.605469 241.515625 L 476.6875 269.597656 L 146.585938 599.699219 Z M 118.503906 571.617188 " clip-rule="nonzero"/></clipPath><clipPath id="5a34d7545d"><path d="M 118.503906 571.617188 L 448.605469 241.515625 L 476.6875 269.597656 L 146.585938 599.699219 Z M 118.503906 571.617188 " clip-rule="nonzero"/></clipPath><clipPath id="938ad1ca25"><path d="M 118.503906 571.617188 L 448.605469 241.515625 L 476.6875 269.597656 L 146.585938 599.699219 Z M 118.503906 571.617188 " clip-rule="nonzero"/></clipPath><clipPath id="54f504af97"><path d="M 142 560 L 157 560 L 157 575 L 142 575 Z M 142 560 " clip-rule="nonzero"/></clipPath><clipPath id="61cf03eb5d"><path d="M 118.503906 571.617188 L 448.605469 241.515625 L 476.6875 269.597656 L 146.585938 599.699219 Z M 118.503906 571.617188 " clip-rule="nonzero"/></clipPath><clipPath id="3f888f7f85"><path d="M 118.503906 571.617188 L 448.605469 241.515625 L 476.6875 269.597656 L 146.585938 599.699219 Z M 118.503906 571.617188 " clip-rule="nonzero"/></clipPath><clipPath id="982d56aca5"><path d="M 118.503906 571.617188 L 448.605469 241.515625 L 476.6875 269.597656 L 146.585938 599.699219 Z M 118.503906 571.617188 " clip-rule="nonzero"/></clipPath></defs><g clip-path="url(#2975ddd167)"><g clip-path="url(#ced5828fc3)"><g clip-path="url(#a2e257caff)"><g clip-path="url(#cc8f50049d)"><path fill="#f5f4f4" d="M 133.125 556.996094 L 433.972656 256.148438 C 434.433594 255.6875 434.914062 255.253906 435.414062 254.839844 C 435.917969 254.429688 436.4375 254.042969 436.980469 253.679688 C 437.519531 253.320312 438.078125 252.988281 438.652344 252.679688 C 439.222656 252.375 439.8125 252.097656 440.410156 251.847656 C 441.011719 251.601562 441.625 251.382812 442.246094 251.191406 C 442.867188 251.003906 443.496094 250.847656 444.136719 250.71875 C 444.773438 250.59375 445.414062 250.5 446.0625 250.4375 C 446.707031 250.371094 447.359375 250.339844 448.007812 250.339844 C 448.65625 250.339844 449.308594 250.375 449.953125 250.4375 C 450.601562 250.5 451.242188 250.597656 451.882812 250.722656 C 452.519531 250.851562 453.148438 251.011719 453.769531 251.199219 C 454.394531 251.386719 455.003906 251.605469 455.605469 251.855469 C 456.207031 252.105469 456.792969 252.382812 457.367188 252.691406 C 457.941406 252.996094 458.5 253.332031 459.039062 253.691406 C 459.582031 254.054688 460.101562 254.441406 460.605469 254.855469 C 461.109375 255.265625 461.589844 255.703125 462.050781 256.164062 C 462.507812 256.625 462.945312 257.105469 463.359375 257.609375 C 463.769531 258.109375 464.15625 258.632812 464.519531 259.171875 C 464.882812 259.714844 465.214844 260.269531 465.523438 260.84375 C 465.828125 261.417969 466.105469 262.003906 466.355469 262.605469 C 466.605469 263.207031 466.824219 263.820312 467.011719 264.441406 C 467.203125 265.0625 467.359375 265.695312 467.488281 266.332031 C 467.613281 266.96875 467.710938 267.613281 467.773438 268.257812 C 467.839844 268.90625 467.871094 269.554688 467.871094 270.203125 C 467.871094 270.855469 467.839844 271.503906 467.777344 272.152344 C 467.714844 272.796875 467.617188 273.441406 467.492188 274.078125 C 467.367188 274.714844 467.207031 275.34375 467.019531 275.96875 C 466.832031 276.589844 466.613281 277.199219 466.363281 277.800781 C 466.117188 278.402344 465.839844 278.988281 465.53125 279.5625 C 465.226562 280.136719 464.890625 280.691406 464.53125 281.234375 C 464.171875 281.773438 463.785156 282.292969 463.371094 282.796875 C 462.960938 283.300781 462.523438 283.78125 462.0625 284.238281 L 161.214844 585.085938 C 160.757812 585.546875 160.277344 585.984375 159.773438 586.394531 C 159.269531 586.808594 158.75 587.195312 158.207031 587.554688 C 157.667969 587.914062 157.113281 588.25 156.539062 588.554688 C 155.964844 588.863281 155.378906 589.140625 154.777344 589.386719 C 154.175781 589.636719 153.566406 589.855469 152.945312 590.042969 C 152.320312 590.230469 151.691406 590.390625 151.054688 590.515625 C 150.417969 590.640625 149.773438 590.738281 149.125 590.800781 C 148.480469 590.863281 147.832031 590.894531 147.179688 590.894531 C 146.53125 590.894531 145.882812 590.863281 145.234375 590.796875 C 144.585938 590.734375 143.945312 590.636719 143.308594 590.511719 C 142.667969 590.382812 142.039062 590.226562 141.417969 590.035156 C 140.796875 589.847656 140.183594 589.628906 139.582031 589.378906 C 138.980469 589.128906 138.394531 588.851562 137.820312 588.546875 C 137.246094 588.238281 136.691406 587.90625 136.148438 587.542969 C 135.609375 587.183594 135.085938 586.792969 134.582031 586.382812 C 134.082031 585.96875 133.597656 585.53125 133.140625 585.074219 C 132.679688 584.613281 132.242188 584.132812 131.832031 583.628906 C 131.417969 583.125 131.03125 582.605469 130.667969 582.0625 C 130.308594 581.523438 129.972656 580.964844 129.667969 580.390625 C 129.359375 579.816406 129.082031 579.230469 128.832031 578.628906 C 128.582031 578.027344 128.363281 577.417969 128.175781 576.796875 C 127.984375 576.171875 127.828125 575.542969 127.699219 574.90625 C 127.574219 574.265625 127.476562 573.625 127.414062 572.976562 C 127.351562 572.332031 127.316406 571.683594 127.316406 571.03125 C 127.316406 570.382812 127.347656 569.734375 127.410156 569.085938 C 127.476562 568.4375 127.570312 567.796875 127.695312 567.160156 C 127.824219 566.519531 127.980469 565.890625 128.167969 565.269531 C 128.359375 564.648438 128.574219 564.035156 128.824219 563.433594 C 129.074219 562.835938 129.351562 562.246094 129.65625 561.675781 C 129.960938 561.101562 130.296875 560.542969 130.65625 560.003906 C 131.019531 559.464844 131.40625 558.941406 131.816406 558.4375 C 132.230469 557.9375 132.664062 557.457031 133.125 556.996094 Z M 133.125 556.996094 " fill-opacity="1" fill-rule="nonzero"/></g></g></g></g><g clip-path="url(#d81f601d60)"><g clip-path="url(#f8ff4fced3)"><g clip-path="url(#f1d58c7c4d)"><g clip-path="url(#8f220befb4)"><path fill="#428dcc" d="M 147.484375 569.855469 L 152.710938 564.628906 L 153.582031 565.5 L 148.355469 570.730469 M 157.9375 559.402344 L 163.164062 554.175781 L 164.039062 555.046875 L 158.808594 560.273438 M 168.390625 548.949219 L 173.621094 543.71875 L 174.492188 544.59375 L 169.265625 549.820312 M 178.847656 538.492188 L 184.074219 533.265625 L 184.945312 534.136719 L 179.71875 539.367188 M 189.300781 528.039062 L 194.527344 522.8125 L 195.402344 523.683594 L 190.171875 528.910156 M 199.753906 517.585938 L 204.984375 512.355469 L 205.855469 513.230469 L 200.628906 518.457031 M 210.210938 507.128906 L 215.4375 501.902344 L 216.308594 502.773438 L 211.082031 508.003906 M 220.664062 496.675781 L 225.890625 491.449219 L 226.765625 492.320312 L 221.535156 497.546875 M 231.117188 486.222656 L 236.347656 480.992188 L 237.21875 481.867188 L 231.992188 487.09375 M 241.574219 475.765625 L 246.800781 470.539062 L 247.671875 471.410156 L 242.445312 476.640625 M 252.027344 465.3125 L 257.253906 460.085938 L 258.128906 460.957031 L 252.898438 466.183594 M 262.480469 454.859375 L 267.710938 449.628906 L 268.582031 450.503906 L 263.355469 455.730469 M 272.9375 444.402344 L 278.164062 439.175781 L 279.035156 440.046875 L 273.808594 445.277344 M 283.390625 433.949219 L 288.617188 428.722656 L 289.492188 429.59375 L 284.261719 434.820312 M 293.84375 423.496094 L 299.074219 418.265625 L 299.945312 419.140625 L 294.71875 424.367188 M 304.300781 413.039062 L 309.527344 407.8125 L 310.398438 408.683594 L 305.171875 413.914062 M 314.753906 402.585938 L 319.980469 397.359375 L 320.855469 398.230469 L 315.625 403.457031 M 325.207031 392.132812 L 330.4375 386.902344 L 331.308594 387.777344 L 326.082031 393.003906 M 335.664062 381.675781 L 340.890625 376.449219 L 341.761719 377.320312 L 336.535156 382.550781 M 346.117188 371.222656 L 351.34375 365.996094 L 352.21875 366.867188 L 346.988281 372.09375 M 356.570312 360.769531 L 361.800781 355.539062 L 362.671875 356.414062 L 357.445312 361.640625 M 367.027344 350.3125 L 372.253906 345.085938 L 373.125 345.957031 L 367.898438 351.1875 M 377.480469 339.859375 L 382.707031 334.632812 L 383.582031 335.503906 L 378.351562 340.730469 M 387.933594 329.40625 L 393.164062 324.175781 L 394.035156 325.050781 L 388.808594 330.277344 M 398.390625 318.949219 L 403.617188 313.722656 L 404.488281 314.59375 L 399.261719 319.824219 M 408.84375 308.496094 L 414.070312 303.269531 L 414.945312 304.140625 L 409.714844 309.367188 M 419.296875 298.042969 L 424.527344 292.8125 L 425.398438 293.6875 L 420.171875 298.914062 M 429.753906 287.585938 L 434.980469 282.359375 L 435.851562 283.230469 L 430.625 288.460938 M 440.207031 277.132812 L 444.378906 272.960938 L 445.253906 273.832031 L 441.078125 278.003906 " fill-opacity="1" fill-rule="nonzero"/></g></g></g></g><g clip-path="url(#e62514442f)"><g clip-path="url(#73e17887e7)"><g clip-path="url(#5a34d7545d)"><g clip-path="url(#938ad1ca25)"><path fill="#428dcc" d="M 447.890625 279.015625 L 451.066406 267.144531 L 439.195312 270.320312 Z M 447.890625 279.015625 " fill-opacity="1" fill-rule="nonzero"/></g></g></g></g><g clip-path="url(#54f504af97)"><g clip-path="url(#61cf03eb5d)"><g clip-path="url(#3f888f7f85)"><g clip-path="url(#982d56aca5)"><path fill="#428dcc" d="M 147.265625 561.546875 C 147.714844 561.699219 148.175781 561.738281 148.644531 561.667969 C 149.113281 561.59375 149.539062 561.414062 149.917969 561.132812 C 150.359375 560.800781 150.855469 560.613281 151.402344 560.5625 C 151.953125 560.515625 152.472656 560.617188 152.964844 560.867188 C 153.457031 561.117188 153.84375 561.480469 154.128906 561.953125 C 154.414062 562.425781 154.550781 562.9375 154.539062 563.488281 C 154.535156 563.960938 154.640625 564.40625 154.855469 564.828125 C 155.070312 565.246094 155.367188 565.59375 155.753906 565.867188 C 156.203125 566.1875 156.53125 566.597656 156.746094 567.105469 C 156.957031 567.609375 157.023438 568.132812 156.9375 568.675781 C 156.851562 569.21875 156.628906 569.695312 156.269531 570.109375 C 155.910156 570.523438 155.46875 570.8125 154.945312 570.976562 C 154.492188 571.117188 154.097656 571.355469 153.761719 571.691406 C 153.425781 572.027344 153.1875 572.421875 153.046875 572.875 C 152.882812 573.398438 152.59375 573.839844 152.179688 574.199219 C 151.765625 574.558594 151.285156 574.78125 150.746094 574.867188 C 150.203125 574.953125 149.679688 574.886719 149.171875 574.675781 C 148.667969 574.460938 148.257812 574.132812 147.9375 573.683594 C 147.664062 573.300781 147.316406 573 146.894531 572.789062 C 146.472656 572.574219 146.027344 572.46875 145.554688 572.476562 C 145.003906 572.484375 144.492188 572.347656 144.019531 572.0625 C 143.546875 571.78125 143.183594 571.394531 142.933594 570.902344 C 142.683594 570.410156 142.582031 569.890625 142.628906 569.34375 C 142.675781 568.792969 142.863281 568.300781 143.195312 567.859375 C 143.476562 567.476562 143.65625 567.054688 143.730469 566.585938 C 143.804688 566.117188 143.761719 565.65625 143.609375 565.207031 C 143.433594 564.6875 143.40625 564.160156 143.527344 563.625 C 143.652344 563.089844 143.90625 562.625 144.296875 562.238281 C 144.683594 561.847656 145.144531 561.59375 145.679688 561.46875 C 146.214844 561.34375 146.746094 561.367188 147.265625 561.546875 Z M 147.265625 561.546875 " fill-opacity="1" fill-rule="nonzero"/></g></g></g></g></svg>