<svg xmlns="http://www.w3.org/2000/svg" xmlns:xlink="http://www.w3.org/1999/xlink" width="1200" zoomAndPan="magnify" viewBox="0 0 900 899.99999" height="1200" preserveAspectRatio="xMidYMid meet" version="1.0"><defs><clipPath id="294fa74da1"><path d="M 25 41 L 686 41 L 686 703 L 25 703 Z M 25 41 " clip-rule="nonzero"/></clipPath><clipPath id="abbf7ba84f"><path d="M 604.769531 8.160156 L 719.320312 122.710938 L 105.726562 736.304688 L -8.824219 621.753906 Z M 604.769531 8.160156 " clip-rule="nonzero"/></clipPath><clipPath id="8622b8d975"><path d="M 604.769531 8.160156 L 719.320312 122.710938 L 105.726562 736.304688 L -8.824219 621.753906 Z M 604.769531 8.160156 " clip-rule="nonzero"/></clipPath><clipPath id="451c65d80f"><path d="M 95 83 L 644 83 L 644 631 L 95 631 Z M 95 83 " clip-rule="nonzero"/></clipPath><clipPath id="68815fa7be"><path d="M 604.769531 8.160156 L 719.320312 122.710938 L 105.726562 736.304688 L -8.824219 621.753906 Z M 604.769531 8.160156 " clip-rule="nonzero"/></clipPath><clipPath id="0e4b4ca84d"><path d="M 604.769531 8.160156 L 719.320312 122.710938 L 105.726562 736.304688 L -8.824219 621.753906 Z M 604.769531 8.160156 " clip-rule="nonzero"/></clipPath><clipPath id="0c1e60b131"><path d="M 183 179 L 844 179 L 844 840 L 183 840 Z M 183 179 " clip-rule="nonzero"/></clipPath><clipPath id="2bd074bb2e"><path d="M 762.679688 145.8125 L 877.230469 260.363281 L 263.640625 873.957031 L 149.089844 759.40625 Z M 762.679688 145.8125 " clip-rule="nonzero"/></clipPath><clipPath id="57a4aadbe2"><path d="M 762.679688 145.8125 L 877.230469 260.363281 L 263.640625 873.957031 L 149.089844 759.40625 Z M 762.679688 145.8125 " clip-rule="nonzero"/></clipPath><clipPath id="83556b752b"><path d="M 253 220 L 802 220 L 802 769 L 253 769 Z M 253 220 " clip-rule="nonzero"/></clipPath><clipPath id="ab903d1718"><path d="M 762.679688 145.8125 L 877.230469 260.363281 L 263.640625 873.957031 L 149.089844 759.40625 Z M 762.679688 145.8125 " clip-rule="nonzero"/></clipPath><clipPath id="f460e36fca"><path d="M 762.679688 145.8125 L 877.230469 260.363281 L 263.640625 873.957031 L 149.089844 759.40625 Z M 762.679688 145.8125 " clip-rule="nonzero"/></clipPath></defs><g clip-path="url(#294fa74da1)"><g clip-path="url(#abbf7ba84f)"><g clip-path="url(#8622b8d975)"><path fill="#d83951" d="M 48.683594 564.296875 L 547.582031 65.394531 C 578.855469 34.125 630.738281 34.132812 662.003906 65.394531 C 693.265625 96.65625 693.273438 148.542969 662.003906 179.8125 L 163.101562 678.714844 C 131.839844 709.976562 79.945312 709.976562 48.683594 678.714844 C 17.421875 647.449219 17.421875 595.558594 48.683594 564.296875 Z M 56.667969 670.726562 C 84.609375 698.667969 127.183594 698.660156 155.113281 670.726562 L 654.015625 171.828125 C 681.957031 143.886719 681.949219 101.3125 654.015625 73.382812 C 626.082031 45.449219 583.503906 45.433594 555.5625 73.375 L 56.660156 572.273438 C 28.722656 600.214844 28.730469 642.785156 56.660156 670.71875 Z M 56.667969 670.726562 " fill-opacity="1" fill-rule="nonzero"/></g></g></g><g clip-path="url(#451c65d80f)"><g clip-path="url(#68815fa7be)"><g clip-path="url(#0e4b4ca84d)"><path fill="#d83951" d="M 599.4375 85.382812 C 601.429688 87.375 602.097656 89.378906 602.765625 91.363281 L 610.753906 116.644531 L 636.03125 124.628906 C 638.027344 125.289062 639.355469 125.296875 641.347656 127.292969 C 644.679688 130.621094 644.671875 135.9375 641.347656 139.261719 C 640.019531 140.585938 638.019531 141.253906 635.363281 141.253906 L 595.457031 141.253906 C 592.132812 140.585938 590.132812 141.253906 588.136719 139.261719 C 585.472656 136.597656 586.132812 134.605469 585.472656 131.273438 L 585.472656 91.363281 C 586.132812 89.371094 586.808594 87.375 588.136719 86.046875 C 591.464844 82.71875 596.113281 82.058594 599.445312 85.390625 Z M 109.851562 574.96875 C 111.84375 576.964844 112.511719 578.964844 113.179688 580.953125 L 121.164062 606.230469 L 146.445312 614.21875 C 148.4375 614.878906 149.765625 614.886719 151.761719 616.878906 C 155.089844 620.210938 155.082031 625.527344 151.761719 628.847656 C 150.433594 630.175781 148.429688 630.84375 145.777344 630.84375 L 105.867188 630.84375 C 102.546875 630.175781 100.542969 630.84375 98.550781 628.847656 C 95.886719 626.183594 96.546875 624.191406 95.886719 620.859375 L 95.886719 580.953125 C 96.546875 578.957031 97.222656 576.964844 98.550781 575.636719 C 101.871094 572.3125 106.527344 571.648438 109.859375 574.976562 Z M 554.210938 165.207031 C 556.207031 163.210938 560.195312 163.210938 562.191406 165.207031 C 564.851562 167.867188 564.183594 171.191406 562.191406 173.183594 L 541.566406 193.808594 C 538.90625 196.46875 536.25 196.46875 533.589844 193.808594 C 531.59375 191.8125 530.925781 188.492188 533.589844 185.828125 Z M 477.714844 241.703125 L 499.003906 220.414062 C 501 218.417969 504.988281 218.417969 506.984375 220.414062 C 509.644531 223.074219 508.976562 226.398438 506.984375 228.390625 L 485.695312 249.679688 C 483.699219 251.675781 480.378906 252.34375 477.714844 249.679688 C 475.722656 247.6875 475.722656 243.699219 477.714844 241.703125 Z M 443.125 276.296875 C 445.117188 274.300781 449.105469 274.300781 451.101562 276.296875 C 453.765625 278.957031 453.097656 282.277344 451.101562 284.273438 L 430.480469 304.894531 C 427.816406 307.558594 425.164062 307.558594 422.5 304.894531 C 420.507812 302.902344 419.839844 299.578125 422.5 296.917969 Z M 387.910156 331.507812 C 389.902344 329.515625 393.894531 329.515625 395.886719 331.507812 C 398.550781 334.171875 397.882812 337.492188 395.886719 339.488281 L 374.597656 360.777344 C 372.601562 362.773438 369.28125 363.441406 366.617188 360.777344 C 364.625 358.78125 364.625 354.792969 366.617188 352.800781 Z M 332.035156 387.382812 C 334.027344 385.390625 338.019531 385.390625 340.011719 387.382812 C 342.675781 390.046875 342.007812 393.367188 340.011719 395.363281 L 319.390625 415.984375 C 316.730469 418.648438 314.074219 418.648438 311.414062 415.984375 C 309.417969 413.988281 308.75 410.667969 311.414062 408.003906 Z M 276.820312 442.597656 C 278.816406 440.605469 282.804688 440.605469 284.796875 442.597656 C 287.460938 445.261719 286.792969 448.582031 284.796875 450.578125 L 263.507812 471.867188 C 261.515625 473.859375 258.191406 474.527344 255.53125 471.867188 C 253.535156 469.871094 253.535156 465.882812 255.53125 463.886719 Z M 220.945312 498.472656 C 222.941406 496.476562 226.929688 496.476562 228.925781 498.472656 C 231.585938 501.132812 230.917969 504.457031 228.925781 506.449219 L 208.304688 527.074219 C 206.308594 529.066406 202.984375 529.734375 200.324219 527.074219 C 198.328125 525.078125 198.328125 521.089844 200.324219 519.09375 Z M 165.730469 553.6875 C 167.726562 551.691406 171.714844 551.691406 173.710938 553.6875 C 176.371094 556.347656 175.703125 559.671875 173.710938 561.664062 L 152.421875 582.953125 C 150.425781 584.949219 147.105469 585.617188 144.441406 582.953125 C 142.449219 580.960938 142.449219 576.972656 144.441406 574.976562 Z M 165.730469 553.6875 " fill-opacity="1" fill-rule="nonzero"/></g></g></g><g clip-path="url(#0c1e60b131)"><g clip-path="url(#2bd074bb2e)"><g clip-path="url(#57a4aadbe2)"><path fill="#d83951" d="M 206.597656 701.949219 L 705.496094 203.046875 C 736.765625 171.777344 788.652344 171.785156 819.914062 203.046875 C 851.179688 234.3125 851.1875 286.195312 819.914062 317.464844 L 321.015625 816.367188 C 289.75 847.628906 237.859375 847.628906 206.597656 816.367188 C 175.332031 785.105469 175.332031 733.210938 206.597656 701.949219 Z M 214.582031 808.378906 C 242.523438 836.320312 285.09375 836.3125 313.027344 808.378906 L 811.929688 309.480469 C 839.871094 281.539062 839.863281 238.96875 811.929688 211.035156 C 783.996094 183.101562 741.417969 183.085938 713.476562 211.027344 L 214.574219 709.925781 C 186.632812 737.867188 186.640625 780.441406 214.574219 808.371094 Z M 214.582031 808.378906 " fill-opacity="1" fill-rule="nonzero"/></g></g></g><g clip-path="url(#83556b752b)"><g clip-path="url(#ab903d1718)"><g clip-path="url(#f460e36fca)"><path fill="#d83951" d="M 757.351562 223.035156 C 759.34375 225.027344 760.011719 227.03125 760.679688 229.019531 L 768.667969 254.296875 L 793.945312 262.285156 C 795.941406 262.941406 797.265625 262.953125 799.261719 264.945312 C 802.589844 268.277344 802.582031 273.59375 799.261719 276.914062 C 797.933594 278.242188 795.929688 278.910156 793.277344 278.910156 L 753.367188 278.910156 C 750.046875 278.242188 748.042969 278.910156 746.050781 276.914062 C 743.386719 274.25 744.046875 272.257812 743.386719 268.925781 L 743.386719 229.019531 C 744.046875 227.023438 744.722656 225.027344 746.050781 223.703125 C 749.378906 220.371094 754.027344 219.710938 757.359375 223.042969 Z M 267.761719 712.621094 C 269.757812 714.617188 270.425781 716.617188 271.09375 718.605469 L 279.078125 743.882812 L 304.359375 751.871094 C 306.351562 752.53125 307.679688 752.539062 309.675781 754.53125 C 313.003906 757.863281 312.996094 763.179688 309.675781 766.5 C 308.347656 767.828125 306.34375 768.496094 303.691406 768.496094 L 263.78125 768.496094 C 260.460938 767.828125 258.457031 768.496094 256.460938 766.5 C 253.800781 763.839844 254.460938 761.84375 253.800781 758.515625 L 253.800781 718.605469 C 254.460938 716.609375 255.136719 714.617188 256.460938 713.289062 C 259.785156 709.96875 264.441406 709.300781 267.769531 712.628906 Z M 712.125 302.859375 C 714.117188 300.867188 718.109375 300.867188 720.101562 302.859375 C 722.765625 305.523438 722.097656 308.84375 720.101562 310.839844 L 699.480469 331.460938 C 696.820312 334.121094 694.164062 334.121094 691.503906 331.460938 C 689.507812 329.464844 688.839844 326.144531 691.503906 323.480469 Z M 635.628906 379.355469 L 656.917969 358.066406 C 658.914062 356.070312 662.902344 356.070312 664.898438 358.066406 C 667.558594 360.730469 666.890625 364.050781 664.898438 366.046875 L 643.605469 387.335938 C 641.613281 389.328125 638.289062 389.996094 635.628906 387.335938 C 633.632812 385.339844 633.632812 381.351562 635.628906 379.355469 Z M 601.035156 413.949219 C 603.03125 411.953125 607.019531 411.953125 609.015625 413.949219 C 611.675781 416.609375 611.007812 419.933594 609.015625 421.925781 L 588.390625 442.550781 C 585.730469 445.210938 583.074219 445.210938 580.414062 442.550781 C 578.417969 440.554688 577.75 437.234375 580.414062 434.570312 Z M 545.820312 469.164062 C 547.816406 467.167969 551.804688 467.167969 553.800781 469.164062 C 556.460938 471.824219 555.792969 475.148438 553.800781 477.140625 L 532.511719 498.429688 C 530.515625 500.425781 527.195312 501.09375 524.53125 498.429688 C 522.539062 496.4375 522.539062 492.445312 524.53125 490.453125 Z M 489.949219 525.035156 C 491.941406 523.042969 495.929688 523.042969 497.925781 525.039062 C 500.589844 527.699219 499.921875 531.019531 497.925781 533.015625 L 477.304688 553.636719 C 474.640625 556.300781 471.988281 556.300781 469.324219 553.636719 C 467.332031 551.644531 466.664062 548.320312 469.324219 545.660156 Z M 434.734375 580.25 C 436.726562 578.257812 440.71875 578.257812 442.710938 580.25 C 445.375 582.914062 444.707031 586.234375 442.710938 588.230469 L 421.421875 609.519531 C 419.425781 611.515625 416.105469 612.183594 413.445312 609.519531 C 411.449219 607.523438 411.449219 603.535156 413.445312 601.542969 Z M 378.859375 636.125 C 380.855469 634.132812 384.84375 634.132812 386.835938 636.125 C 389.5 638.789062 388.832031 642.109375 386.835938 644.105469 L 366.214844 664.726562 C 364.222656 666.722656 360.898438 667.386719 358.238281 664.726562 C 356.242188 662.730469 356.242188 658.742188 358.238281 656.746094 Z M 323.644531 691.339844 C 325.640625 689.34375 329.628906 689.34375 331.625 691.339844 C 334.285156 694.003906 333.617188 697.324219 331.625 699.320312 L 310.332031 720.609375 C 308.339844 722.601562 305.015625 723.269531 302.355469 720.609375 C 300.359375 718.613281 300.359375 714.625 302.355469 712.628906 Z M 323.644531 691.339844 " fill-opacity="1" fill-rule="nonzero"/></g></g></g></svg>