<svg xmlns="http://www.w3.org/2000/svg" xmlns:xlink="http://www.w3.org/1999/xlink" width="794" zoomAndPan="magnify" viewBox="0 0 594.95996 842.24997" height="1123" preserveAspectRatio="xMidYMid meet" version="1.0"><defs><clipPath id="f5adf7297b"><path d="M 127 250 L 468 250 L 468 591 L 127 591 Z M 127 250 " clip-rule="nonzero"/></clipPath><clipPath id="66fb8df976"><path d="M 146.5625 241.457031 L 476.664062 571.558594 L 448.582031 599.640625 L 118.480469 269.539062 Z M 146.5625 241.457031 " clip-rule="nonzero"/></clipPath><clipPath id="20081fb07e"><path d="M 146.5625 241.457031 L 476.664062 571.558594 L 448.582031 599.640625 L 118.480469 269.539062 Z M 146.5625 241.457031 " clip-rule="nonzero"/></clipPath><clipPath id="319c3da5b2"><path d="M 146.5625 241.457031 L 476.664062 571.558594 L 448.582031 599.640625 L 118.480469 269.539062 Z M 146.5625 241.457031 " clip-rule="nonzero"/></clipPath><clipPath id="7186282d3d"><path d="M 147 270 L 446 270 L 446 569 L 147 569 Z M 147 270 " clip-rule="nonzero"/></clipPath><clipPath id="f9023fe948"><path d="M 146.5625 241.457031 L 476.664062 571.558594 L 448.582031 599.640625 L 118.480469 269.539062 Z M 146.5625 241.457031 " clip-rule="nonzero"/></clipPath><clipPath id="987735f3c4"><path d="M 146.5625 241.457031 L 476.664062 571.558594 L 448.582031 599.640625 L 118.480469 269.539062 Z M 146.5625 241.457031 " clip-rule="nonzero"/></clipPath><clipPath id="051feef609"><path d="M 146.5625 241.457031 L 476.664062 571.558594 L 448.582031 599.640625 L 118.480469 269.539062 Z M 146.5625 241.457031 " clip-rule="nonzero"/></clipPath><clipPath id="24977704ba"><path d="M 439 562 L 452 562 L 452 575 L 439 575 Z M 439 562 " clip-rule="nonzero"/></clipPath><clipPath id="0c01afed96"><path d="M 146.5625 241.457031 L 476.664062 571.558594 L 448.582031 599.640625 L 118.480469 269.539062 Z M 146.5625 241.457031 " clip-rule="nonzero"/></clipPath><clipPath id="22801eb2ab"><path d="M 146.5625 241.457031 L 476.664062 571.558594 L 448.582031 599.640625 L 118.480469 269.539062 Z M 146.5625 241.457031 " clip-rule="nonzero"/></clipPath><clipPath id="1335825f95"><path d="M 146.5625 241.457031 L 476.664062 571.558594 L 448.582031 599.640625 L 118.480469 269.539062 Z M 146.5625 241.457031 " clip-rule="nonzero"/></clipPath><clipPath id="3f1f4890ba"><path d="M 143 265 L 158 265 L 158 280 L 143 280 Z M 143 265 " clip-rule="nonzero"/></clipPath><clipPath id="9b9d76d861"><path d="M 146.5625 241.457031 L 476.664062 571.558594 L 448.582031 599.640625 L 118.480469 269.539062 Z M 146.5625 241.457031 " clip-rule="nonzero"/></clipPath><clipPath id="741a5be384"><path d="M 146.5625 241.457031 L 476.664062 571.558594 L 448.582031 599.640625 L 118.480469 269.539062 Z M 146.5625 241.457031 " clip-rule="nonzero"/></clipPath><clipPath id="d667f24551"><path d="M 146.5625 241.457031 L 476.664062 571.558594 L 448.582031 599.640625 L 118.480469 269.539062 Z M 146.5625 241.457031 " clip-rule="nonzero"/></clipPath></defs><g clip-path="url(#f5adf7297b)"><g clip-path="url(#66fb8df976)"><g clip-path="url(#20081fb07e)"><g clip-path="url(#319c3da5b2)"><path fill="#f5f4f4" d="M 161.183594 256.078125 L 462.03125 556.925781 C 462.488281 557.386719 462.925781 557.867188 463.339844 558.367188 C 463.75 558.871094 464.136719 559.390625 464.496094 559.933594 C 464.859375 560.472656 465.191406 561.03125 465.5 561.601562 C 465.804688 562.175781 466.082031 562.761719 466.332031 563.363281 C 466.578125 563.964844 466.796875 564.574219 466.984375 565.199219 C 467.175781 565.820312 467.332031 566.449219 467.457031 567.085938 C 467.585938 567.726562 467.679688 568.367188 467.742188 569.015625 C 467.804688 569.660156 467.839844 570.308594 467.835938 570.960938 C 467.835938 571.609375 467.804688 572.257812 467.742188 572.90625 C 467.675781 573.554688 467.582031 574.195312 467.453125 574.832031 C 467.328125 575.472656 467.167969 576.101562 466.980469 576.722656 C 466.789062 577.347656 466.570312 577.957031 466.324219 578.558594 C 466.074219 579.160156 465.796875 579.746094 465.488281 580.320312 C 465.183594 580.894531 464.847656 581.453125 464.484375 581.992188 C 464.125 582.53125 463.738281 583.054688 463.324219 583.558594 C 462.910156 584.058594 462.476562 584.542969 462.015625 585 C 461.554688 585.460938 461.074219 585.898438 460.570312 586.3125 C 460.070312 586.722656 459.546875 587.109375 459.003906 587.472656 C 458.464844 587.832031 457.90625 588.167969 457.335938 588.476562 C 456.761719 588.78125 456.171875 589.058594 455.574219 589.308594 C 454.972656 589.558594 454.359375 589.777344 453.738281 589.964844 C 453.117188 590.15625 452.484375 590.3125 451.847656 590.441406 C 451.210938 590.566406 450.566406 590.664062 449.921875 590.726562 C 449.273438 590.792969 448.625 590.824219 447.972656 590.824219 C 447.324219 590.824219 446.675781 590.792969 446.027344 590.730469 C 445.382812 590.667969 444.738281 590.570312 444.101562 590.445312 C 443.464844 590.316406 442.832031 590.160156 442.210938 589.972656 C 441.589844 589.785156 440.976562 589.566406 440.378906 589.316406 C 439.777344 589.066406 439.191406 588.789062 438.617188 588.484375 C 438.042969 588.179688 437.488281 587.84375 436.945312 587.484375 C 436.40625 587.125 435.882812 586.738281 435.382812 586.324219 C 434.878906 585.910156 434.398438 585.476562 433.9375 585.015625 L 133.089844 284.167969 C 132.632812 283.710938 132.195312 283.226562 131.785156 282.726562 C 131.371094 282.222656 130.984375 281.703125 130.625 281.160156 C 130.261719 280.621094 129.929688 280.0625 129.621094 279.492188 C 129.316406 278.917969 129.039062 278.332031 128.789062 277.730469 C 128.542969 277.128906 128.324219 276.519531 128.136719 275.894531 C 127.945312 275.273438 127.789062 274.644531 127.664062 274.007812 C 127.535156 273.367188 127.441406 272.726562 127.378906 272.078125 C 127.316406 271.433594 127.285156 270.785156 127.285156 270.132812 C 127.285156 269.484375 127.316406 268.835938 127.378906 268.1875 C 127.445312 267.539062 127.539062 266.898438 127.667969 266.261719 C 127.792969 265.621094 127.953125 264.992188 128.140625 264.371094 C 128.332031 263.746094 128.550781 263.136719 128.800781 262.535156 C 129.046875 261.933594 129.324219 261.347656 129.632812 260.773438 C 129.941406 260.199219 130.273438 259.644531 130.636719 259.101562 C 130.996094 258.5625 131.382812 258.039062 131.796875 257.535156 C 132.210938 257.035156 132.644531 256.550781 133.105469 256.09375 C 133.566406 255.632812 134.046875 255.195312 134.550781 254.78125 C 135.054688 254.371094 135.574219 253.984375 136.117188 253.621094 C 136.65625 253.261719 137.214844 252.925781 137.789062 252.621094 C 138.359375 252.3125 138.949219 252.035156 139.550781 251.785156 C 140.148438 251.535156 140.761719 251.316406 141.382812 251.128906 C 142.007812 250.9375 142.636719 250.78125 143.273438 250.652344 C 143.910156 250.527344 144.554688 250.429688 145.203125 250.367188 C 145.847656 250.300781 146.496094 250.269531 147.148438 250.269531 C 147.796875 250.269531 148.445312 250.300781 149.09375 250.363281 C 149.738281 250.429688 150.382812 250.523438 151.019531 250.648438 C 151.65625 250.777344 152.289062 250.933594 152.910156 251.121094 C 153.53125 251.308594 154.144531 251.527344 154.742188 251.777344 C 155.34375 252.027344 155.929688 252.304688 156.503906 252.609375 C 157.078125 252.914062 157.632812 253.25 158.175781 253.609375 C 158.714844 253.972656 159.238281 254.359375 159.738281 254.769531 C 160.242188 255.183594 160.722656 255.617188 161.183594 256.078125 Z M 161.183594 256.078125 " fill-opacity="1" fill-rule="nonzero"/></g></g></g></g><g clip-path="url(#7186282d3d)"><g clip-path="url(#f9023fe948)"><g clip-path="url(#987735f3c4)"><g clip-path="url(#051feef609)"><path fill="#428dcc" d="M 148.320312 270.4375 L 153.550781 275.664062 L 152.675781 276.535156 L 147.449219 271.308594 M 158.777344 280.890625 L 164.003906 286.117188 L 163.132812 286.988281 L 157.90625 281.761719 M 169.230469 291.34375 L 174.457031 296.570312 L 173.585938 297.445312 L 168.359375 292.21875 M 179.683594 301.800781 L 184.914062 307.027344 L 184.039062 307.898438 L 178.8125 302.671875 M 190.140625 312.253906 L 195.367188 317.480469 L 194.496094 318.351562 L 189.269531 313.125 M 200.59375 322.707031 L 205.820312 327.9375 L 204.949219 328.808594 L 199.722656 323.582031 M 211.046875 333.164062 L 216.277344 338.390625 L 215.402344 339.261719 L 210.175781 334.035156 M 221.503906 343.617188 L 226.730469 348.84375 L 225.859375 349.714844 L 220.632812 344.488281 M 231.957031 354.070312 L 237.183594 359.300781 L 236.3125 360.171875 L 231.085938 354.945312 M 242.410156 364.527344 L 247.640625 369.753906 L 246.765625 370.625 L 241.539062 365.398438 M 252.867188 374.980469 L 258.09375 380.207031 L 257.222656 381.078125 L 251.996094 375.851562 M 263.320312 385.433594 L 268.546875 390.664062 L 267.675781 391.535156 L 262.449219 386.308594 M 273.773438 395.890625 L 279.003906 401.117188 L 278.128906 401.988281 L 272.902344 396.761719 M 284.230469 406.34375 L 289.457031 411.570312 L 288.585938 412.441406 L 283.359375 407.214844 M 294.683594 416.796875 L 299.910156 422.027344 L 299.039062 422.898438 L 293.8125 417.671875 M 305.136719 427.253906 L 310.367188 432.480469 L 309.492188 433.351562 L 304.265625 428.125 M 315.59375 437.707031 L 320.820312 442.933594 L 319.949219 443.804688 L 314.722656 438.578125 M 326.046875 448.160156 L 331.273438 453.390625 L 330.402344 454.261719 L 325.175781 449.035156 M 336.5 458.617188 L 341.730469 463.84375 L 340.855469 464.714844 L 335.628906 459.488281 M 346.957031 469.070312 L 352.183594 474.296875 L 351.3125 475.167969 L 346.085938 469.941406 M 357.410156 479.523438 L 362.636719 484.753906 L 361.765625 485.625 L 356.539062 480.398438 M 367.863281 489.980469 L 373.09375 495.207031 L 372.21875 496.078125 L 366.992188 490.851562 M 378.320312 500.433594 L 383.546875 505.660156 L 382.675781 506.53125 L 377.449219 501.304688 M 388.773438 510.886719 L 394 516.117188 L 393.128906 516.988281 L 387.902344 511.761719 M 399.226562 521.34375 L 404.457031 526.570312 L 403.582031 527.441406 L 398.355469 522.214844 M 409.683594 531.796875 L 414.910156 537.023438 L 414.039062 537.894531 L 408.8125 532.667969 M 420.136719 542.25 L 425.363281 547.480469 L 424.492188 548.351562 L 419.265625 543.125 M 430.589844 552.707031 L 435.820312 557.933594 L 434.945312 558.804688 L 429.71875 553.578125 M 441.046875 563.160156 L 445.21875 567.332031 L 444.347656 568.207031 L 440.175781 564.03125 " fill-opacity="1" fill-rule="nonzero"/></g></g></g></g><g clip-path="url(#24977704ba)"><g clip-path="url(#0c01afed96)"><g clip-path="url(#22801eb2ab)"><g clip-path="url(#1335825f95)"><path fill="#428dcc" d="M 439.164062 570.84375 L 451.035156 574.019531 L 447.859375 562.148438 Z M 439.164062 570.84375 " fill-opacity="1" fill-rule="nonzero"/></g></g></g></g><g clip-path="url(#3f1f4890ba)"><g clip-path="url(#9b9d76d861)"><g clip-path="url(#741a5be384)"><g clip-path="url(#d667f24551)"><path fill="#428dcc" d="M 156.632812 270.21875 C 156.480469 270.667969 156.4375 271.128906 156.511719 271.597656 C 156.585938 272.066406 156.761719 272.492188 157.046875 272.871094 C 157.378906 273.3125 157.566406 273.808594 157.613281 274.355469 C 157.664062 274.90625 157.5625 275.425781 157.3125 275.917969 C 157.058594 276.410156 156.699219 276.796875 156.226562 277.082031 C 155.753906 277.363281 155.242188 277.503906 154.691406 277.492188 C 154.21875 277.488281 153.773438 277.59375 153.351562 277.808594 C 152.929688 278.023438 152.582031 278.320312 152.308594 278.707031 C 151.992188 279.152344 151.582031 279.484375 151.074219 279.699219 C 150.570312 279.910156 150.046875 279.976562 149.503906 279.890625 C 148.960938 279.804688 148.484375 279.582031 148.070312 279.222656 C 147.652344 278.863281 147.363281 278.421875 147.203125 277.898438 C 147.0625 277.445312 146.824219 277.050781 146.488281 276.714844 C 146.152344 276.378906 145.757812 276.140625 145.304688 276 C 144.78125 275.835938 144.339844 275.546875 143.980469 275.132812 C 143.621094 274.71875 143.398438 274.238281 143.3125 273.699219 C 143.226562 273.15625 143.289062 272.632812 143.503906 272.125 C 143.71875 271.621094 144.046875 271.207031 144.496094 270.890625 C 144.878906 270.617188 145.175781 270.269531 145.390625 269.847656 C 145.605469 269.425781 145.707031 268.980469 145.703125 268.507812 C 145.695312 267.957031 145.832031 267.445312 146.113281 266.972656 C 146.398438 266.5 146.785156 266.136719 147.277344 265.886719 C 147.769531 265.636719 148.289062 265.535156 148.835938 265.582031 C 149.386719 265.628906 149.878906 265.816406 150.320312 266.148438 C 150.699219 266.429688 151.125 266.609375 151.59375 266.683594 C 152.0625 266.753906 152.519531 266.714844 152.96875 266.5625 C 153.492188 266.386719 154.019531 266.359375 154.554688 266.480469 C 155.089844 266.605469 155.550781 266.859375 155.941406 267.25 C 156.328125 267.636719 156.585938 268.097656 156.710938 268.632812 C 156.835938 269.167969 156.808594 269.699219 156.632812 270.21875 Z M 156.632812 270.21875 " fill-opacity="1" fill-rule="nonzero"/></g></g></g></g></svg>