<svg xmlns="http://www.w3.org/2000/svg" xmlns:xlink="http://www.w3.org/1999/xlink" width="1200" zoomAndPan="magnify" viewBox="0 0 900 899.99999" height="1200" preserveAspectRatio="xMidYMid meet" version="1.0"><defs><clipPath id="b27dedb654"><path d="M 9.042969 16.304688 L 171 16.304688 L 171 884 L 9.042969 884 Z M 9.042969 16.304688 " clip-rule="nonzero"/></clipPath><clipPath id="95ae0fbc1f"><path d="M 192.671875 16.304688 L 354.671875 16.304688 L 354.671875 884 L 192.671875 884 Z M 192.671875 16.304688 " clip-rule="nonzero"/></clipPath><clipPath id="1d330436b7"><path d="M 376.300781 16.304688 L 538.300781 16.304688 L 538.300781 884 L 376.300781 884 Z M 376.300781 16.304688 " clip-rule="nonzero"/></clipPath><clipPath id="efd55da285"><path d="M 559.925781 16.304688 L 721.925781 16.304688 L 721.925781 884 L 559.925781 884 Z M 559.925781 16.304688 " clip-rule="nonzero"/></clipPath><clipPath id="09a4b9c38d"><path d="M 743.554688 16.304688 L 900 16.304688 L 900 884 L 743.554688 884 Z M 743.554688 16.304688 " clip-rule="nonzero"/></clipPath></defs><g clip-path="url(#b27dedb654)"><path fill="#d83951" d="M 9.078125 802.761719 L 9.078125 97.210938 C 9.078125 52.988281 45.773438 16.304688 89.984375 16.304688 C 134.199219 16.304688 170.890625 52.988281 170.890625 97.210938 L 170.890625 802.761719 C 170.890625 846.976562 134.199219 883.667969 89.984375 883.667969 C 45.773438 883.667969 9.078125 846.976562 9.078125 802.761719 Z M 89.984375 872.375 C 129.5 872.375 159.597656 842.265625 159.597656 802.761719 L 159.597656 97.210938 C 159.597656 57.695312 129.488281 27.601562 89.984375 27.601562 C 50.480469 27.601562 20.363281 57.695312 20.363281 97.210938 L 20.363281 802.761719 C 20.363281 842.277344 50.472656 872.375 89.972656 872.375 Z M 89.984375 872.375 " fill-opacity="1" fill-rule="nonzero"/></g><path fill="#d83951" d="M 59.878906 74.675781 C 62.699219 74.675781 64.585938 75.621094 66.464844 76.554688 L 89.984375 88.78125 L 113.507812 76.554688 C 115.382812 75.609375 116.328125 74.675781 119.148438 74.675781 C 123.859375 74.675781 127.613281 78.441406 127.613281 83.140625 C 127.613281 85.015625 126.667969 86.90625 124.792969 88.78125 L 96.570312 117 C 93.75 118.878906 92.804688 120.765625 89.984375 120.765625 C 86.21875 120.765625 85.277344 118.890625 82.457031 117 L 54.234375 88.78125 C 53.292969 86.90625 52.359375 85.015625 52.359375 83.140625 C 52.359375 78.429688 55.179688 74.675781 59.890625 74.675781 Z M 59.878906 767.058594 C 62.699219 767.058594 64.585938 768.003906 66.464844 768.933594 L 89.984375 781.164062 L 113.507812 768.933594 C 115.382812 767.992188 116.328125 767.058594 119.148438 767.058594 C 123.859375 767.058594 127.613281 770.824219 127.613281 775.519531 C 127.613281 777.398438 126.667969 779.285156 124.792969 781.164062 L 96.570312 809.382812 C 93.75 811.257812 92.804688 813.148438 89.984375 813.148438 C 86.21875 813.148438 85.277344 811.269531 82.457031 809.382812 L 54.234375 781.164062 C 53.292969 779.285156 52.359375 777.398438 52.359375 775.519531 C 52.359375 770.824219 55.179688 767.058594 59.890625 767.058594 Z M 84.34375 163.101562 C 84.34375 160.28125 87.164062 157.460938 89.984375 157.460938 C 93.75 157.460938 95.628906 160.28125 95.628906 163.101562 L 95.628906 192.265625 C 95.628906 196.03125 93.75 197.90625 89.984375 197.90625 C 87.164062 197.90625 84.34375 196.03125 84.34375 192.265625 Z M 84.34375 271.285156 L 84.34375 241.175781 C 84.34375 238.355469 87.164062 235.535156 89.984375 235.535156 C 93.75 235.535156 95.628906 238.355469 95.628906 241.175781 L 95.628906 271.285156 C 95.628906 274.105469 93.75 276.925781 89.984375 276.925781 C 87.164062 276.925781 84.34375 274.105469 84.34375 271.285156 Z M 84.34375 320.203125 C 84.34375 317.382812 87.164062 314.5625 89.984375 314.5625 C 93.75 314.5625 95.628906 317.382812 95.628906 320.203125 L 95.628906 349.367188 C 95.628906 353.132812 93.75 355.011719 89.984375 355.011719 C 87.164062 355.011719 84.34375 353.132812 84.34375 349.367188 Z M 84.34375 398.289062 C 84.34375 395.46875 87.164062 392.648438 89.984375 392.648438 C 93.75 392.648438 95.628906 395.46875 95.628906 398.289062 L 95.628906 428.398438 C 95.628906 431.21875 93.75 434.039062 89.984375 434.039062 C 87.164062 434.039062 84.34375 431.21875 84.34375 428.398438 Z M 84.34375 477.308594 C 84.34375 474.488281 87.164062 471.667969 89.984375 471.667969 C 93.75 471.667969 95.628906 474.488281 95.628906 477.308594 L 95.628906 506.472656 C 95.628906 510.238281 93.75 512.113281 89.984375 512.113281 C 87.164062 512.113281 84.34375 510.238281 84.34375 506.472656 Z M 84.34375 555.394531 C 84.34375 552.570312 87.164062 549.75 89.984375 549.75 C 93.75 549.75 95.628906 552.570312 95.628906 555.394531 L 95.628906 585.5 C 95.628906 588.320312 93.75 591.140625 89.984375 591.140625 C 87.164062 591.140625 84.34375 588.320312 84.34375 585.5 Z M 84.34375 634.410156 C 84.34375 631.589844 87.164062 628.769531 89.984375 628.769531 C 93.75 628.769531 95.628906 631.589844 95.628906 634.410156 L 95.628906 663.574219 C 95.628906 666.394531 93.75 669.214844 89.984375 669.214844 C 87.164062 669.214844 84.34375 666.394531 84.34375 663.574219 Z M 84.34375 712.496094 C 84.34375 709.675781 87.164062 706.855469 89.984375 706.855469 C 93.75 706.855469 95.628906 709.675781 95.628906 712.496094 L 95.628906 742.605469 C 95.628906 745.425781 93.75 748.246094 89.984375 748.246094 C 87.164062 748.246094 84.34375 745.425781 84.34375 742.605469 Z M 84.34375 712.496094 " fill-opacity="1" fill-rule="nonzero"/><g clip-path="url(#95ae0fbc1f)"><path fill="#d83951" d="M 192.707031 802.761719 L 192.707031 97.210938 C 192.707031 52.988281 229.402344 16.304688 273.613281 16.304688 C 317.824219 16.304688 354.519531 52.988281 354.519531 97.210938 L 354.519531 802.761719 C 354.519531 846.976562 317.824219 883.667969 273.613281 883.667969 C 229.402344 883.667969 192.707031 846.976562 192.707031 802.761719 Z M 273.613281 872.375 C 313.128906 872.375 343.222656 842.265625 343.222656 802.761719 L 343.222656 97.210938 C 343.222656 57.695312 313.117188 27.601562 273.613281 27.601562 C 234.109375 27.601562 203.992188 57.695312 203.992188 97.210938 L 203.992188 802.761719 C 203.992188 842.277344 234.097656 872.375 273.601562 872.375 Z M 273.613281 872.375 " fill-opacity="1" fill-rule="nonzero"/></g><path fill="#d83951" d="M 243.503906 74.675781 C 246.328125 74.675781 248.214844 75.621094 250.089844 76.554688 L 273.613281 88.78125 L 297.136719 76.554688 C 299.011719 75.609375 299.957031 74.675781 302.777344 74.675781 C 307.484375 74.675781 311.238281 78.441406 311.238281 83.140625 C 311.238281 85.015625 310.296875 86.90625 308.417969 88.78125 L 280.199219 117 C 277.378906 118.878906 276.433594 120.765625 273.613281 120.765625 C 269.847656 120.765625 268.90625 118.890625 266.082031 117 L 237.863281 88.78125 C 236.917969 86.90625 235.988281 85.015625 235.988281 83.140625 C 235.988281 78.429688 238.808594 74.675781 243.515625 74.675781 Z M 243.503906 767.058594 C 246.328125 767.058594 248.214844 768.003906 250.089844 768.933594 L 273.613281 781.164062 L 297.136719 768.933594 C 299.011719 767.992188 299.957031 767.058594 302.777344 767.058594 C 307.484375 767.058594 311.238281 770.824219 311.238281 775.519531 C 311.238281 777.398438 310.296875 779.285156 308.417969 781.164062 L 280.199219 809.382812 C 277.378906 811.257812 276.433594 813.148438 273.613281 813.148438 C 269.847656 813.148438 268.90625 811.269531 266.082031 809.382812 L 237.863281 781.164062 C 236.917969 779.285156 235.988281 777.398438 235.988281 775.519531 C 235.988281 770.824219 238.808594 767.058594 243.515625 767.058594 Z M 267.972656 163.101562 C 267.972656 160.28125 270.792969 157.460938 273.613281 157.460938 C 277.378906 157.460938 279.253906 160.28125 279.253906 163.101562 L 279.253906 192.265625 C 279.253906 196.03125 277.378906 197.90625 273.613281 197.90625 C 270.792969 197.90625 267.972656 196.03125 267.972656 192.265625 Z M 267.972656 271.285156 L 267.972656 241.175781 C 267.972656 238.355469 270.792969 235.535156 273.613281 235.535156 C 277.378906 235.535156 279.253906 238.355469 279.253906 241.175781 L 279.253906 271.285156 C 279.253906 274.105469 277.378906 276.925781 273.613281 276.925781 C 270.792969 276.925781 267.972656 274.105469 267.972656 271.285156 Z M 267.972656 320.203125 C 267.972656 317.382812 270.792969 314.5625 273.613281 314.5625 C 277.378906 314.5625 279.253906 317.382812 279.253906 320.203125 L 279.253906 349.367188 C 279.253906 353.132812 277.378906 355.011719 273.613281 355.011719 C 270.792969 355.011719 267.972656 353.132812 267.972656 349.367188 Z M 267.972656 398.289062 C 267.972656 395.46875 270.792969 392.648438 273.613281 392.648438 C 277.378906 392.648438 279.253906 395.46875 279.253906 398.289062 L 279.253906 428.398438 C 279.253906 431.21875 277.378906 434.039062 273.613281 434.039062 C 270.792969 434.039062 267.972656 431.21875 267.972656 428.398438 Z M 267.972656 477.308594 C 267.972656 474.488281 270.792969 471.667969 273.613281 471.667969 C 277.378906 471.667969 279.253906 474.488281 279.253906 477.308594 L 279.253906 506.472656 C 279.253906 510.238281 277.378906 512.113281 273.613281 512.113281 C 270.792969 512.113281 267.972656 510.238281 267.972656 506.472656 Z M 267.972656 555.394531 C 267.972656 552.570312 270.792969 549.75 273.613281 549.75 C 277.378906 549.75 279.253906 552.570312 279.253906 555.394531 L 279.253906 585.5 C 279.253906 588.320312 277.378906 591.140625 273.613281 591.140625 C 270.792969 591.140625 267.972656 588.320312 267.972656 585.5 Z M 267.972656 634.410156 C 267.972656 631.589844 270.792969 628.769531 273.613281 628.769531 C 277.378906 628.769531 279.253906 631.589844 279.253906 634.410156 L 279.253906 663.574219 C 279.253906 666.394531 277.378906 669.214844 273.613281 669.214844 C 270.792969 669.214844 267.972656 666.394531 267.972656 663.574219 Z M 267.972656 712.496094 C 267.972656 709.675781 270.792969 706.855469 273.613281 706.855469 C 277.378906 706.855469 279.253906 709.675781 279.253906 712.496094 L 279.253906 742.605469 C 279.253906 745.425781 277.378906 748.246094 273.613281 748.246094 C 270.792969 748.246094 267.972656 745.425781 267.972656 742.605469 Z M 267.972656 712.496094 " fill-opacity="1" fill-rule="nonzero"/><g clip-path="url(#1d330436b7)"><path fill="#d83951" d="M 376.335938 802.761719 L 376.335938 97.210938 C 376.335938 52.988281 413.027344 16.304688 457.242188 16.304688 C 501.453125 16.304688 538.148438 52.988281 538.148438 97.210938 L 538.148438 802.761719 C 538.148438 846.976562 501.453125 883.667969 457.242188 883.667969 C 413.027344 883.667969 376.335938 846.976562 376.335938 802.761719 Z M 457.242188 872.375 C 496.753906 872.375 526.851562 842.265625 526.851562 802.761719 L 526.851562 97.210938 C 526.851562 57.695312 496.746094 27.601562 457.242188 27.601562 C 417.738281 27.601562 387.617188 57.695312 387.617188 97.210938 L 387.617188 802.761719 C 387.617188 842.277344 417.726562 872.375 457.230469 872.375 Z M 457.242188 872.375 " fill-opacity="1" fill-rule="nonzero"/></g><path fill="#d83951" d="M 427.132812 74.675781 C 429.953125 74.675781 431.84375 75.621094 433.71875 76.554688 L 457.242188 88.78125 L 480.761719 76.554688 C 482.640625 75.609375 483.585938 74.675781 486.40625 74.675781 C 491.113281 74.675781 494.867188 78.441406 494.867188 83.140625 C 494.867188 85.015625 493.921875 86.90625 492.046875 88.78125 L 463.828125 117 C 461.007812 118.878906 460.0625 120.765625 457.242188 120.765625 C 453.476562 120.765625 452.53125 118.890625 449.710938 117 L 421.492188 88.78125 C 420.546875 86.90625 419.613281 85.015625 419.613281 83.140625 C 419.613281 78.429688 422.4375 74.675781 427.144531 74.675781 Z M 427.132812 767.058594 C 429.953125 767.058594 431.84375 768.003906 433.71875 768.933594 L 457.242188 781.164062 L 480.761719 768.933594 C 482.640625 767.992188 483.585938 767.058594 486.40625 767.058594 C 491.113281 767.058594 494.867188 770.824219 494.867188 775.519531 C 494.867188 777.398438 493.921875 779.285156 492.046875 781.164062 L 463.828125 809.382812 C 461.007812 811.257812 460.0625 813.148438 457.242188 813.148438 C 453.476562 813.148438 452.53125 811.269531 449.710938 809.382812 L 421.492188 781.164062 C 420.546875 779.285156 419.613281 777.398438 419.613281 775.519531 C 419.613281 770.824219 422.4375 767.058594 427.144531 767.058594 Z M 451.597656 163.101562 C 451.597656 160.28125 454.421875 157.460938 457.242188 157.460938 C 461.007812 157.460938 462.882812 160.28125 462.882812 163.101562 L 462.882812 192.265625 C 462.882812 196.03125 461.007812 197.90625 457.242188 197.90625 C 454.421875 197.90625 451.597656 196.03125 451.597656 192.265625 Z M 451.597656 271.285156 L 451.597656 241.175781 C 451.597656 238.355469 454.421875 235.535156 457.242188 235.535156 C 461.007812 235.535156 462.882812 238.355469 462.882812 241.175781 L 462.882812 271.285156 C 462.882812 274.105469 461.007812 276.925781 457.242188 276.925781 C 454.421875 276.925781 451.597656 274.105469 451.597656 271.285156 Z M 451.597656 320.203125 C 451.597656 317.382812 454.421875 314.5625 457.242188 314.5625 C 461.007812 314.5625 462.882812 317.382812 462.882812 320.203125 L 462.882812 349.367188 C 462.882812 353.132812 461.007812 355.011719 457.242188 355.011719 C 454.421875 355.011719 451.597656 353.132812 451.597656 349.367188 Z M 451.597656 398.289062 C 451.597656 395.46875 454.421875 392.648438 457.242188 392.648438 C 461.007812 392.648438 462.882812 395.46875 462.882812 398.289062 L 462.882812 428.398438 C 462.882812 431.21875 461.007812 434.039062 457.242188 434.039062 C 454.421875 434.039062 451.597656 431.21875 451.597656 428.398438 Z M 451.597656 477.308594 C 451.597656 474.488281 454.421875 471.667969 457.242188 471.667969 C 461.007812 471.667969 462.882812 474.488281 462.882812 477.308594 L 462.882812 506.472656 C 462.882812 510.238281 461.007812 512.113281 457.242188 512.113281 C 454.421875 512.113281 451.597656 510.238281 451.597656 506.472656 Z M 451.597656 555.394531 C 451.597656 552.570312 454.421875 549.75 457.242188 549.75 C 461.007812 549.75 462.882812 552.570312 462.882812 555.394531 L 462.882812 585.5 C 462.882812 588.320312 461.007812 591.140625 457.242188 591.140625 C 454.421875 591.140625 451.597656 588.320312 451.597656 585.5 Z M 451.597656 634.410156 C 451.597656 631.589844 454.421875 628.769531 457.242188 628.769531 C 461.007812 628.769531 462.882812 631.589844 462.882812 634.410156 L 462.882812 663.574219 C 462.882812 666.394531 461.007812 669.214844 457.242188 669.214844 C 454.421875 669.214844 451.597656 666.394531 451.597656 663.574219 Z M 451.597656 712.496094 C 451.597656 709.675781 454.421875 706.855469 457.242188 706.855469 C 461.007812 706.855469 462.882812 709.675781 462.882812 712.496094 L 462.882812 742.605469 C 462.882812 745.425781 461.007812 748.246094 457.242188 748.246094 C 454.421875 748.246094 451.597656 745.425781 451.597656 742.605469 Z M 451.597656 712.496094 " fill-opacity="1" fill-rule="nonzero"/><g clip-path="url(#efd55da285)"><path fill="#d83951" d="M 559.964844 802.761719 L 559.964844 97.210938 C 559.964844 52.988281 596.65625 16.304688 640.871094 16.304688 C 685.082031 16.304688 721.773438 52.988281 721.773438 97.210938 L 721.773438 802.761719 C 721.773438 846.976562 685.082031 883.667969 640.871094 883.667969 C 596.65625 883.667969 559.964844 846.976562 559.964844 802.761719 Z M 640.871094 872.375 C 680.382812 872.375 710.480469 842.265625 710.480469 802.761719 L 710.480469 97.210938 C 710.480469 57.695312 680.371094 27.601562 640.871094 27.601562 C 601.367188 27.601562 571.246094 57.695312 571.246094 97.210938 L 571.246094 802.761719 C 571.246094 842.277344 601.355469 872.375 640.859375 872.375 Z M 640.871094 872.375 " fill-opacity="1" fill-rule="nonzero"/></g><path fill="#d83951" d="M 610.761719 74.675781 C 613.582031 74.675781 615.46875 75.621094 617.347656 76.554688 L 640.871094 88.78125 L 664.390625 76.554688 C 666.269531 75.609375 667.210938 74.675781 670.03125 74.675781 C 674.742188 74.675781 678.496094 78.441406 678.496094 83.140625 C 678.496094 85.015625 677.550781 86.90625 675.675781 88.78125 L 647.453125 117 C 644.632812 118.878906 643.691406 120.765625 640.871094 120.765625 C 637.105469 120.765625 636.160156 118.890625 633.339844 117 L 605.121094 88.78125 C 604.175781 86.90625 603.242188 85.015625 603.242188 83.140625 C 603.242188 78.429688 606.0625 74.675781 610.773438 74.675781 Z M 610.761719 767.058594 C 613.582031 767.058594 615.46875 768.003906 617.347656 768.933594 L 640.871094 781.164062 L 664.390625 768.933594 C 666.269531 767.992188 667.210938 767.058594 670.03125 767.058594 C 674.742188 767.058594 678.496094 770.824219 678.496094 775.519531 C 678.496094 777.398438 677.550781 779.285156 675.675781 781.164062 L 647.453125 809.382812 C 644.632812 811.257812 643.691406 813.148438 640.871094 813.148438 C 637.105469 813.148438 636.160156 811.269531 633.339844 809.382812 L 605.121094 781.164062 C 604.175781 779.285156 603.242188 777.398438 603.242188 775.519531 C 603.242188 770.824219 606.0625 767.058594 610.773438 767.058594 Z M 635.226562 163.101562 C 635.226562 160.28125 638.046875 157.460938 640.871094 157.460938 C 644.632812 157.460938 646.511719 160.28125 646.511719 163.101562 L 646.511719 192.265625 C 646.511719 196.03125 644.632812 197.90625 640.871094 197.90625 C 638.046875 197.90625 635.226562 196.03125 635.226562 192.265625 Z M 635.226562 271.285156 L 635.226562 241.175781 C 635.226562 238.355469 638.046875 235.535156 640.871094 235.535156 C 644.632812 235.535156 646.511719 238.355469 646.511719 241.175781 L 646.511719 271.285156 C 646.511719 274.105469 644.632812 276.925781 640.871094 276.925781 C 638.046875 276.925781 635.226562 274.105469 635.226562 271.285156 Z M 635.226562 320.203125 C 635.226562 317.382812 638.046875 314.5625 640.871094 314.5625 C 644.632812 314.5625 646.511719 317.382812 646.511719 320.203125 L 646.511719 349.367188 C 646.511719 353.132812 644.632812 355.011719 640.871094 355.011719 C 638.046875 355.011719 635.226562 353.132812 635.226562 349.367188 Z M 635.226562 398.289062 C 635.226562 395.46875 638.046875 392.648438 640.871094 392.648438 C 644.632812 392.648438 646.511719 395.46875 646.511719 398.289062 L 646.511719 428.398438 C 646.511719 431.21875 644.632812 434.039062 640.871094 434.039062 C 638.046875 434.039062 635.226562 431.21875 635.226562 428.398438 Z M 635.226562 477.308594 C 635.226562 474.488281 638.046875 471.667969 640.871094 471.667969 C 644.632812 471.667969 646.511719 474.488281 646.511719 477.308594 L 646.511719 506.472656 C 646.511719 510.238281 644.632812 512.113281 640.871094 512.113281 C 638.046875 512.113281 635.226562 510.238281 635.226562 506.472656 Z M 635.226562 555.394531 C 635.226562 552.570312 638.046875 549.75 640.871094 549.75 C 644.632812 549.75 646.511719 552.570312 646.511719 555.394531 L 646.511719 585.5 C 646.511719 588.320312 644.632812 591.140625 640.871094 591.140625 C 638.046875 591.140625 635.226562 588.320312 635.226562 585.5 Z M 635.226562 634.410156 C 635.226562 631.589844 638.046875 628.769531 640.871094 628.769531 C 644.632812 628.769531 646.511719 631.589844 646.511719 634.410156 L 646.511719 663.574219 C 646.511719 666.394531 644.632812 669.214844 640.871094 669.214844 C 638.046875 669.214844 635.226562 666.394531 635.226562 663.574219 Z M 635.226562 712.496094 C 635.226562 709.675781 638.046875 706.855469 640.871094 706.855469 C 644.632812 706.855469 646.511719 709.675781 646.511719 712.496094 L 646.511719 742.605469 C 646.511719 745.425781 644.632812 748.246094 640.871094 748.246094 C 638.046875 748.246094 635.226562 745.425781 635.226562 742.605469 Z M 635.226562 712.496094 " fill-opacity="1" fill-rule="nonzero"/><g clip-path="url(#09a4b9c38d)"><path fill="#d83951" d="M 743.589844 802.761719 L 743.589844 97.210938 C 743.589844 52.988281 780.285156 16.304688 824.496094 16.304688 C 868.710938 16.304688 905.402344 52.988281 905.402344 97.210938 L 905.402344 802.761719 C 905.402344 846.976562 868.710938 883.667969 824.496094 883.667969 C 780.285156 883.667969 743.589844 846.976562 743.589844 802.761719 Z M 824.496094 872.375 C 864.011719 872.375 894.109375 842.265625 894.109375 802.761719 L 894.109375 97.210938 C 894.109375 57.695312 864 27.601562 824.496094 27.601562 C 784.992188 27.601562 754.875 57.695312 754.875 97.210938 L 754.875 802.761719 C 754.875 842.277344 784.984375 872.375 824.484375 872.375 Z M 824.496094 872.375 " fill-opacity="1" fill-rule="nonzero"/></g><path fill="#d83951" d="M 794.390625 74.675781 C 797.210938 74.675781 799.097656 75.621094 800.976562 76.554688 L 824.496094 88.78125 L 848.019531 76.554688 C 849.894531 75.609375 850.839844 74.675781 853.660156 74.675781 C 858.371094 74.675781 862.125 78.441406 862.125 83.140625 C 862.125 85.015625 861.179688 86.90625 859.300781 88.78125 L 831.082031 117 C 828.261719 118.878906 827.316406 120.765625 824.496094 120.765625 C 820.730469 120.765625 819.789062 118.890625 816.96875 117 L 788.746094 88.78125 C 787.804688 86.90625 786.871094 85.015625 786.871094 83.140625 C 786.871094 78.429688 789.691406 74.675781 794.398438 74.675781 Z M 794.390625 767.058594 C 797.210938 767.058594 799.097656 768.003906 800.976562 768.933594 L 824.496094 781.164062 L 848.019531 768.933594 C 849.894531 767.992188 850.839844 767.058594 853.660156 767.058594 C 858.371094 767.058594 862.125 770.824219 862.125 775.519531 C 862.125 777.398438 861.179688 779.285156 859.300781 781.164062 L 831.082031 809.382812 C 828.261719 811.257812 827.316406 813.148438 824.496094 813.148438 C 820.730469 813.148438 819.789062 811.269531 816.96875 809.382812 L 788.746094 781.164062 C 787.804688 779.285156 786.871094 777.398438 786.871094 775.519531 C 786.871094 770.824219 789.691406 767.058594 794.398438 767.058594 Z M 818.855469 163.101562 C 818.855469 160.28125 821.675781 157.460938 824.496094 157.460938 C 828.261719 157.460938 830.140625 160.28125 830.140625 163.101562 L 830.140625 192.265625 C 830.140625 196.03125 828.261719 197.90625 824.496094 197.90625 C 821.675781 197.90625 818.855469 196.03125 818.855469 192.265625 Z M 818.855469 271.285156 L 818.855469 241.175781 C 818.855469 238.355469 821.675781 235.535156 824.496094 235.535156 C 828.261719 235.535156 830.140625 238.355469 830.140625 241.175781 L 830.140625 271.285156 C 830.140625 274.105469 828.261719 276.925781 824.496094 276.925781 C 821.675781 276.925781 818.855469 274.105469 818.855469 271.285156 Z M 818.855469 320.203125 C 818.855469 317.382812 821.675781 314.5625 824.496094 314.5625 C 828.261719 314.5625 830.140625 317.382812 830.140625 320.203125 L 830.140625 349.367188 C 830.140625 353.132812 828.261719 355.011719 824.496094 355.011719 C 821.675781 355.011719 818.855469 353.132812 818.855469 349.367188 Z M 818.855469 398.289062 C 818.855469 395.46875 821.675781 392.648438 824.496094 392.648438 C 828.261719 392.648438 830.140625 395.46875 830.140625 398.289062 L 830.140625 428.398438 C 830.140625 431.21875 828.261719 434.039062 824.496094 434.039062 C 821.675781 434.039062 818.855469 431.21875 818.855469 428.398438 Z M 818.855469 477.308594 C 818.855469 474.488281 821.675781 471.667969 824.496094 471.667969 C 828.261719 471.667969 830.140625 474.488281 830.140625 477.308594 L 830.140625 506.472656 C 830.140625 510.238281 828.261719 512.113281 824.496094 512.113281 C 821.675781 512.113281 818.855469 510.238281 818.855469 506.472656 Z M 818.855469 555.394531 C 818.855469 552.570312 821.675781 549.75 824.496094 549.75 C 828.261719 549.75 830.140625 552.570312 830.140625 555.394531 L 830.140625 585.5 C 830.140625 588.320312 828.261719 591.140625 824.496094 591.140625 C 821.675781 591.140625 818.855469 588.320312 818.855469 585.5 Z M 818.855469 634.410156 C 818.855469 631.589844 821.675781 628.769531 824.496094 628.769531 C 828.261719 628.769531 830.140625 631.589844 830.140625 634.410156 L 830.140625 663.574219 C 830.140625 666.394531 828.261719 669.214844 824.496094 669.214844 C 821.675781 669.214844 818.855469 666.394531 818.855469 663.574219 Z M 818.855469 712.496094 C 818.855469 709.675781 821.675781 706.855469 824.496094 706.855469 C 828.261719 706.855469 830.140625 709.675781 830.140625 712.496094 L 830.140625 742.605469 C 830.140625 745.425781 828.261719 748.246094 824.496094 748.246094 C 821.675781 748.246094 818.855469 745.425781 818.855469 742.605469 Z M 818.855469 712.496094 " fill-opacity="1" fill-rule="nonzero"/></svg>