<svg xmlns="http://www.w3.org/2000/svg" xmlns:xlink="http://www.w3.org/1999/xlink" width="794" zoomAndPan="magnify" viewBox="0 0 594.95996 842.24997" height="1123" preserveAspectRatio="xMidYMid meet" version="1.0"><defs><clipPath id="87dadcc20c"><path d="M 59.71875 376.65625 L 535.546875 376.65625 L 535.546875 459 L 59.71875 459 Z M 59.71875 376.65625 " clip-rule="nonzero"/></clipPath></defs><g clip-path="url(#87dadcc20c)"><path fill="#f5f4f4" d="M 472.734375 458.414062 C 468.683594 458.414062 464.671875 458.027344 460.695312 457.253906 C 456.722656 456.476562 452.859375 455.328125 449.105469 453.804688 C 445.355469 452.28125 441.785156 450.414062 438.398438 448.199219 C 435.007812 445.984375 431.863281 443.464844 428.964844 440.640625 C 427.519531 442.046875 426.007812 443.382812 424.429688 444.640625 C 422.855469 445.902344 421.222656 447.085938 419.53125 448.1875 C 417.839844 449.292969 416.101562 450.3125 414.3125 451.25 C 412.523438 452.183594 410.691406 453.03125 408.820312 453.789062 C 406.949219 454.550781 405.046875 455.21875 403.109375 455.792969 C 401.171875 456.371094 399.214844 456.851562 397.230469 457.238281 C 395.25 457.625 393.253906 457.914062 391.242188 458.109375 C 389.230469 458.304688 387.214844 458.402344 385.195312 458.402344 C 383.175781 458.402344 381.160156 458.304688 379.148438 458.109375 C 377.140625 457.914062 375.140625 457.625 373.160156 457.238281 C 371.175781 456.851562 369.21875 456.371094 367.28125 455.792969 C 365.347656 455.21875 363.441406 454.550781 361.570312 453.789062 C 359.699219 453.03125 357.871094 452.183594 356.082031 451.25 C 354.292969 450.3125 352.550781 449.292969 350.859375 448.1875 C 349.171875 447.085938 347.535156 445.902344 345.960938 444.640625 C 344.382812 443.382812 342.871094 442.046875 341.425781 440.640625 C 339.976562 442.046875 338.464844 443.382812 336.890625 444.640625 C 335.3125 445.902344 333.679688 447.085938 331.988281 448.1875 C 330.296875 449.292969 328.558594 450.3125 326.769531 451.25 C 324.980469 452.183594 323.148438 453.03125 321.277344 453.792969 C 319.40625 454.550781 317.503906 455.21875 315.566406 455.792969 C 313.628906 456.371094 311.671875 456.851562 309.6875 457.238281 C 307.707031 457.625 305.707031 457.914062 303.699219 458.109375 C 301.6875 458.304688 299.671875 458.402344 297.652344 458.402344 C 295.632812 458.402344 293.617188 458.304688 291.605469 458.109375 C 289.59375 457.914062 287.597656 457.625 285.613281 457.238281 C 283.632812 456.851562 281.671875 456.371094 279.738281 455.792969 C 277.800781 455.21875 275.898438 454.550781 274.027344 453.792969 C 272.152344 453.03125 270.324219 452.183594 268.535156 451.25 C 266.746094 450.3125 265.003906 449.292969 263.3125 448.1875 C 261.625 447.085938 259.988281 445.902344 258.414062 444.640625 C 256.835938 443.382812 255.324219 442.046875 253.878906 440.640625 C 252.429688 442.046875 250.917969 443.382812 249.34375 444.640625 C 247.765625 445.902344 246.132812 447.085938 244.441406 448.1875 C 242.75 449.292969 241.011719 450.3125 239.222656 451.25 C 237.433594 452.183594 235.601562 453.03125 233.730469 453.789062 C 231.859375 454.550781 229.957031 455.21875 228.019531 455.792969 C 226.085938 456.371094 224.125 456.851562 222.144531 457.238281 C 220.160156 457.625 218.164062 457.914062 216.152344 458.109375 C 214.144531 458.304688 212.128906 458.402344 210.105469 458.402344 C 208.085938 458.402344 206.070312 458.304688 204.0625 458.109375 C 202.050781 457.914062 200.054688 457.625 198.070312 457.238281 C 196.089844 456.851562 194.128906 456.371094 192.195312 455.792969 C 190.257812 455.21875 188.355469 454.550781 186.484375 453.789062 C 184.613281 453.03125 182.78125 452.183594 180.992188 451.25 C 179.203125 450.3125 177.460938 449.292969 175.773438 448.1875 C 174.082031 447.085938 172.449219 445.902344 170.871094 444.640625 C 169.296875 443.382812 167.785156 442.046875 166.335938 440.640625 C 163.4375 443.464844 160.292969 445.984375 156.90625 448.199219 C 153.519531 450.414062 149.949219 452.28125 146.195312 453.804688 C 142.445312 455.328125 138.582031 456.476562 134.605469 457.253906 C 130.632812 458.027344 126.621094 458.414062 122.570312 458.414062 C 120.511719 458.410156 118.460938 458.304688 116.410156 458.101562 C 114.363281 457.898438 112.332031 457.59375 110.316406 457.191406 C 108.296875 456.789062 106.304688 456.285156 104.335938 455.6875 C 102.367188 455.089844 100.433594 454.398438 98.535156 453.609375 C 96.632812 452.824219 94.777344 451.945312 92.960938 450.976562 C 91.148438 450.003906 89.386719 448.949219 87.675781 447.808594 C 85.964844 446.667969 84.316406 445.445312 82.726562 444.140625 C 81.132812 442.839844 79.613281 441.460938 78.15625 440.007812 C 76.703125 438.554688 75.320312 437.035156 74.015625 435.449219 C 72.710938 433.859375 71.488281 432.214844 70.34375 430.507812 C 69.199219 428.800781 68.140625 427.039062 67.171875 425.230469 C 66.199219 423.417969 65.320312 421.566406 64.53125 419.667969 C 63.742188 417.773438 63.046875 415.839844 62.449219 413.875 C 61.847656 411.910156 61.347656 409.921875 60.945312 407.910156 C 60.539062 405.894531 60.234375 403.867188 60.03125 401.824219 C 59.828125 399.777344 59.722656 397.730469 59.71875 395.675781 C 59.71875 395.050781 59.75 394.429688 59.8125 393.808594 C 59.871094 393.1875 59.964844 392.574219 60.085938 391.960938 C 60.207031 391.351562 60.359375 390.746094 60.539062 390.148438 C 60.722656 389.550781 60.933594 388.964844 61.171875 388.390625 C 61.410156 387.8125 61.675781 387.25 61.972656 386.699219 C 62.265625 386.148438 62.585938 385.617188 62.933594 385.097656 C 63.28125 384.578125 63.652344 384.078125 64.050781 383.597656 C 64.445312 383.113281 64.863281 382.652344 65.304688 382.210938 C 65.75 381.769531 66.210938 381.351562 66.695312 380.957031 C 67.175781 380.5625 67.679688 380.191406 68.199219 379.84375 C 68.71875 379.496094 69.253906 379.175781 69.804688 378.882812 C 70.355469 378.589844 70.917969 378.324219 71.496094 378.082031 C 72.074219 377.84375 72.660156 377.636719 73.257812 377.453125 C 73.855469 377.273438 74.460938 377.121094 75.074219 377 C 75.6875 376.878906 76.304688 376.789062 76.925781 376.726562 C 77.546875 376.664062 78.171875 376.632812 78.796875 376.632812 C 79.421875 376.632812 80.042969 376.664062 80.664062 376.726562 C 81.289062 376.789062 81.90625 376.878906 82.515625 377 C 83.128906 377.121094 83.734375 377.273438 84.332031 377.453125 C 84.929688 377.636719 85.519531 377.84375 86.097656 378.082031 C 86.671875 378.324219 87.238281 378.589844 87.789062 378.882812 C 88.339844 379.175781 88.875 379.496094 89.394531 379.84375 C 89.914062 380.191406 90.414062 380.5625 90.898438 380.957031 C 91.378906 381.351562 91.84375 381.769531 92.285156 382.210938 C 92.726562 382.652344 93.144531 383.113281 93.542969 383.597656 C 93.9375 384.078125 94.308594 384.578125 94.65625 385.097656 C 95.003906 385.617188 95.324219 386.148438 95.621094 386.699219 C 95.914062 387.25 96.179688 387.8125 96.417969 388.390625 C 96.660156 388.964844 96.867188 389.550781 97.050781 390.148438 C 97.230469 390.746094 97.382812 391.351562 97.503906 391.960938 C 97.628906 392.574219 97.71875 393.1875 97.78125 393.808594 C 97.839844 394.429688 97.871094 395.050781 97.871094 395.675781 C 97.859375 396.492188 97.886719 397.304688 97.953125 398.117188 C 98.023438 398.933594 98.128906 399.738281 98.277344 400.542969 C 98.425781 401.34375 98.613281 402.136719 98.839844 402.921875 C 99.066406 403.703125 99.332031 404.472656 99.636719 405.230469 C 99.941406 405.988281 100.28125 406.730469 100.65625 407.453125 C 101.035156 408.175781 101.445312 408.878906 101.894531 409.5625 C 102.339844 410.246094 102.820312 410.902344 103.335938 411.539062 C 103.847656 412.175781 104.390625 412.78125 104.960938 413.363281 C 105.535156 413.945312 106.136719 414.496094 106.765625 415.019531 C 107.390625 415.539062 108.042969 416.03125 108.722656 416.488281 C 109.398438 416.945312 110.097656 417.367188 110.816406 417.753906 C 111.535156 418.144531 112.269531 418.496094 113.023438 418.808594 C 113.777344 419.125 114.542969 419.402344 115.324219 419.640625 C 116.105469 419.878906 116.898438 420.082031 117.699219 420.242188 C 118.5 420.402344 119.308594 420.523438 120.121094 420.605469 C 120.933594 420.683594 121.75 420.726562 122.566406 420.726562 C 123.382812 420.726562 124.199219 420.683594 125.011719 420.605469 C 125.824219 420.523438 126.632812 420.402344 127.433594 420.242188 C 128.234375 420.082031 129.023438 419.878906 129.804688 419.640625 C 130.585938 419.402344 131.355469 419.125 132.109375 418.808594 C 132.863281 418.496094 133.597656 418.144531 134.316406 417.753906 C 135.035156 417.367188 135.734375 416.945312 136.410156 416.488281 C 137.085938 416.03125 137.738281 415.539062 138.367188 415.019531 C 138.996094 414.496094 139.597656 413.945312 140.167969 413.363281 C 140.742188 412.78125 141.285156 412.175781 141.796875 411.539062 C 142.3125 410.902344 142.789062 410.246094 143.238281 409.5625 C 143.683594 408.878906 144.097656 408.175781 144.472656 407.453125 C 144.851562 406.730469 145.191406 405.988281 145.496094 405.230469 C 145.800781 404.472656 146.066406 403.703125 146.292969 402.921875 C 146.519531 402.136719 146.707031 401.34375 146.855469 400.542969 C 147.003906 399.738281 147.109375 398.933594 147.179688 398.117188 C 147.246094 397.304688 147.273438 396.492188 147.261719 395.675781 C 147.261719 395.050781 147.289062 394.429688 147.351562 393.808594 C 147.414062 393.1875 147.503906 392.574219 147.625 391.960938 C 147.75 391.351562 147.902344 390.746094 148.082031 390.148438 C 148.261719 389.550781 148.472656 388.964844 148.710938 388.390625 C 148.953125 387.8125 149.21875 387.25 149.511719 386.699219 C 149.808594 386.148438 150.128906 385.617188 150.476562 385.097656 C 150.824219 384.578125 151.195312 384.078125 151.589844 383.597656 C 151.988281 383.113281 152.40625 382.652344 152.847656 382.210938 C 153.289062 381.769531 153.75 381.351562 154.234375 380.957031 C 154.71875 380.5625 155.21875 380.191406 155.738281 379.84375 C 156.257812 379.496094 156.792969 379.175781 157.34375 378.882812 C 157.894531 378.589844 158.460938 378.324219 159.035156 378.082031 C 159.613281 377.84375 160.203125 377.636719 160.800781 377.453125 C 161.398438 377.273438 162.003906 377.121094 162.613281 377 C 163.226562 376.878906 163.84375 376.789062 164.46875 376.726562 C 165.089844 376.664062 165.710938 376.632812 166.335938 376.632812 C 166.960938 376.632812 167.585938 376.664062 168.207031 376.726562 C 168.828125 376.789062 169.445312 376.878906 170.058594 377 C 170.671875 377.121094 171.277344 377.273438 171.875 377.453125 C 172.472656 377.636719 173.058594 377.84375 173.636719 378.082031 C 174.214844 378.324219 174.777344 378.589844 175.328125 378.882812 C 175.878906 379.175781 176.414062 379.496094 176.933594 379.84375 C 177.453125 380.191406 177.957031 380.5625 178.4375 380.957031 C 178.921875 381.351562 179.382812 381.769531 179.824219 382.210938 C 180.265625 382.652344 180.6875 383.113281 181.082031 383.597656 C 181.480469 384.078125 181.851562 384.578125 182.199219 385.097656 C 182.546875 385.617188 182.867188 386.148438 183.160156 386.699219 C 183.453125 387.25 183.722656 387.8125 183.960938 388.390625 C 184.199219 388.964844 184.410156 389.550781 184.589844 390.148438 C 184.773438 390.746094 184.925781 391.351562 185.046875 391.960938 C 185.167969 392.574219 185.261719 393.1875 185.320312 393.808594 C 185.382812 394.429688 185.414062 395.050781 185.414062 395.675781 C 185.398438 396.492188 185.425781 397.304688 185.496094 398.117188 C 185.5625 398.933594 185.671875 399.738281 185.820312 400.542969 C 185.96875 401.34375 186.15625 402.136719 186.382812 402.921875 C 186.609375 403.703125 186.875 404.472656 187.175781 405.230469 C 187.480469 405.988281 187.820312 406.730469 188.199219 407.453125 C 188.574219 408.175781 188.988281 408.878906 189.433594 409.5625 C 189.882812 410.246094 190.363281 410.902344 190.875 411.539062 C 191.386719 412.175781 191.929688 412.78125 192.503906 413.363281 C 193.078125 413.945312 193.675781 414.496094 194.304688 415.019531 C 194.933594 415.539062 195.585938 416.03125 196.261719 416.488281 C 196.9375 416.945312 197.636719 417.367188 198.355469 417.753906 C 199.074219 418.144531 199.8125 418.496094 200.5625 418.808594 C 201.316406 419.125 202.085938 419.402344 202.867188 419.640625 C 203.648438 419.878906 204.4375 420.082031 205.242188 420.242188 C 206.042969 420.402344 206.847656 420.523438 207.660156 420.605469 C 208.476562 420.683594 209.289062 420.726562 210.105469 420.726562 C 210.925781 420.726562 211.738281 420.683594 212.550781 420.605469 C 213.367188 420.523438 214.171875 420.402344 214.972656 420.242188 C 215.773438 420.082031 216.566406 419.878906 217.347656 419.640625 C 218.128906 419.402344 218.894531 419.125 219.648438 418.808594 C 220.402344 418.496094 221.140625 418.144531 221.859375 417.753906 C 222.578125 417.367188 223.273438 416.945312 223.953125 416.488281 C 224.628906 416.03125 225.28125 415.539062 225.910156 415.019531 C 226.535156 414.496094 227.136719 413.945312 227.710938 413.363281 C 228.285156 412.78125 228.828125 412.175781 229.339844 411.539062 C 229.851562 410.902344 230.332031 410.246094 230.777344 409.5625 C 231.226562 408.878906 231.636719 408.175781 232.015625 407.453125 C 232.394531 406.730469 232.734375 405.988281 233.035156 405.230469 C 233.339844 404.472656 233.605469 403.703125 233.832031 402.921875 C 234.058594 402.136719 234.246094 401.34375 234.394531 400.542969 C 234.542969 399.738281 234.652344 398.933594 234.71875 398.117188 C 234.789062 397.304688 234.816406 396.492188 234.800781 395.675781 C 234.800781 395.050781 234.832031 394.429688 234.894531 393.808594 C 234.953125 393.1875 235.046875 392.574219 235.167969 391.960938 C 235.289062 391.351562 235.441406 390.746094 235.621094 390.148438 C 235.804688 389.550781 236.015625 388.964844 236.253906 388.390625 C 236.492188 387.8125 236.757812 387.25 237.054688 386.699219 C 237.347656 386.148438 237.667969 385.617188 238.015625 385.097656 C 238.363281 384.578125 238.734375 384.078125 239.132812 383.597656 C 239.527344 383.113281 239.945312 382.652344 240.390625 382.210938 C 240.832031 381.769531 241.292969 381.351562 241.777344 380.957031 C 242.257812 380.5625 242.761719 380.191406 243.28125 379.84375 C 243.800781 379.496094 244.335938 379.175781 244.886719 378.882812 C 245.4375 378.589844 246 378.324219 246.578125 378.082031 C 247.15625 377.84375 247.742188 377.636719 248.339844 377.453125 C 248.9375 377.273438 249.542969 377.121094 250.15625 377 C 250.769531 376.878906 251.386719 376.789062 252.007812 376.726562 C 252.628906 376.664062 253.253906 376.632812 253.878906 376.632812 C 254.503906 376.632812 255.125 376.664062 255.746094 376.726562 C 256.371094 376.789062 256.988281 376.878906 257.597656 377 C 258.210938 377.121094 258.816406 377.273438 259.414062 377.453125 C 260.011719 377.636719 260.601562 377.84375 261.179688 378.082031 C 261.753906 378.324219 262.320312 378.589844 262.871094 378.882812 C 263.421875 379.175781 263.957031 379.496094 264.476562 379.84375 C 264.996094 380.191406 265.496094 380.5625 265.980469 380.957031 C 266.460938 381.351562 266.925781 381.769531 267.367188 382.210938 C 267.808594 382.652344 268.226562 383.113281 268.625 383.597656 C 269.019531 384.078125 269.390625 384.578125 269.738281 385.097656 C 270.085938 385.617188 270.40625 386.148438 270.703125 386.699219 C 270.996094 387.25 271.261719 387.8125 271.5 388.390625 C 271.742188 388.964844 271.953125 389.550781 272.132812 390.148438 C 272.3125 390.746094 272.464844 391.351562 272.585938 391.960938 C 272.710938 392.574219 272.800781 393.1875 272.863281 393.808594 C 272.921875 394.429688 272.953125 395.050781 272.953125 395.675781 C 272.933594 396.496094 272.957031 397.3125 273.019531 398.128906 C 273.082031 398.945312 273.1875 399.757812 273.332031 400.5625 C 273.476562 401.371094 273.660156 402.167969 273.882812 402.957031 C 274.105469 403.742188 274.367188 404.519531 274.671875 405.28125 C 274.972656 406.042969 275.308594 406.789062 275.683594 407.515625 C 276.058594 408.246094 276.472656 408.953125 276.917969 409.640625 C 277.363281 410.328125 277.84375 410.992188 278.355469 411.628906 C 278.867188 412.269531 279.410156 412.882812 279.984375 413.46875 C 280.558594 414.054688 281.160156 414.609375 281.789062 415.136719 C 282.417969 415.664062 283.070312 416.15625 283.75 416.617188 C 284.429688 417.078125 285.128906 417.503906 285.847656 417.894531 C 286.570312 418.285156 287.308594 418.640625 288.066406 418.957031 C 288.820312 419.277344 289.589844 419.554688 290.375 419.796875 C 291.160156 420.039062 291.953125 420.238281 292.757812 420.402344 C 293.5625 420.5625 294.371094 420.683594 295.191406 420.765625 C 296.007812 420.847656 296.824219 420.886719 297.644531 420.886719 C 298.464844 420.886719 299.285156 420.847656 300.101562 420.765625 C 300.917969 420.683594 301.726562 420.5625 302.53125 420.402344 C 303.335938 420.238281 304.128906 420.039062 304.914062 419.796875 C 305.699219 419.554688 306.46875 419.277344 307.226562 418.957031 C 307.980469 418.640625 308.71875 418.285156 309.441406 417.894531 C 310.164062 417.503906 310.863281 417.078125 311.539062 416.617188 C 312.21875 416.15625 312.871094 415.664062 313.5 415.136719 C 314.132812 414.609375 314.730469 414.054688 315.304688 413.46875 C 315.878906 412.882812 316.421875 412.269531 316.933594 411.628906 C 317.449219 410.992188 317.925781 410.328125 318.371094 409.640625 C 318.820312 408.953125 319.230469 408.246094 319.605469 407.515625 C 319.980469 406.789062 320.320312 406.042969 320.621094 405.28125 C 320.921875 404.519531 321.183594 403.742188 321.40625 402.957031 C 321.632812 402.167969 321.816406 401.371094 321.957031 400.5625 C 322.101562 399.757812 322.207031 398.945312 322.269531 398.128906 C 322.332031 397.3125 322.355469 396.496094 322.335938 395.675781 C 322.335938 395.050781 322.367188 394.429688 322.429688 393.808594 C 322.488281 393.1875 322.582031 392.574219 322.703125 391.960938 C 322.824219 391.351562 322.976562 390.746094 323.15625 390.148438 C 323.339844 389.550781 323.550781 388.964844 323.789062 388.390625 C 324.027344 387.8125 324.292969 387.25 324.589844 386.699219 C 324.882812 386.148438 325.203125 385.617188 325.550781 385.097656 C 325.898438 384.578125 326.269531 384.078125 326.667969 383.597656 C 327.0625 383.113281 327.480469 382.652344 327.921875 382.210938 C 328.367188 381.769531 328.828125 381.351562 329.3125 380.957031 C 329.792969 380.5625 330.292969 380.191406 330.8125 379.84375 C 331.332031 379.496094 331.867188 379.175781 332.421875 378.882812 C 332.972656 378.589844 333.535156 378.324219 334.113281 378.082031 C 334.691406 377.84375 335.277344 377.636719 335.875 377.453125 C 336.472656 377.273438 337.078125 377.121094 337.691406 377 C 338.304688 376.878906 338.921875 376.789062 339.542969 376.726562 C 340.164062 376.664062 340.789062 376.632812 341.414062 376.632812 C 342.039062 376.632812 342.660156 376.664062 343.28125 376.726562 C 343.902344 376.789062 344.519531 376.878906 345.132812 377 C 345.746094 377.121094 346.351562 377.273438 346.949219 377.453125 C 347.546875 377.636719 348.136719 377.84375 348.710938 378.082031 C 349.289062 378.324219 349.855469 378.589844 350.40625 378.882812 C 350.957031 379.175781 351.492188 379.496094 352.011719 379.84375 C 352.53125 380.191406 353.03125 380.5625 353.515625 380.957031 C 353.996094 381.351562 354.460938 381.769531 354.902344 382.210938 C 355.34375 382.652344 355.761719 383.113281 356.160156 383.597656 C 356.554688 384.078125 356.925781 384.578125 357.273438 385.097656 C 357.621094 385.617188 357.941406 386.148438 358.234375 386.699219 C 358.53125 387.25 358.796875 387.8125 359.035156 388.390625 C 359.277344 388.964844 359.484375 389.550781 359.667969 390.148438 C 359.847656 390.746094 360 391.351562 360.121094 391.960938 C 360.242188 392.574219 360.335938 393.1875 360.398438 393.808594 C 360.457031 394.429688 360.488281 395.050781 360.488281 395.675781 C 360.476562 396.492188 360.503906 397.304688 360.570312 398.117188 C 360.640625 398.933594 360.746094 399.738281 360.894531 400.542969 C 361.042969 401.34375 361.230469 402.136719 361.457031 402.921875 C 361.683594 403.703125 361.949219 404.472656 362.253906 405.230469 C 362.558594 405.988281 362.898438 406.730469 363.273438 407.453125 C 363.652344 408.175781 364.0625 408.878906 364.511719 409.5625 C 364.957031 410.246094 365.4375 410.902344 365.949219 411.539062 C 366.464844 412.175781 367.007812 412.78125 367.578125 413.363281 C 368.152344 413.945312 368.753906 414.496094 369.382812 415.019531 C 370.007812 415.539062 370.660156 416.03125 371.339844 416.488281 C 372.015625 416.945312 372.714844 417.367188 373.429688 417.753906 C 374.148438 418.144531 374.886719 418.496094 375.640625 418.808594 C 376.394531 419.125 377.160156 419.402344 377.941406 419.640625 C 378.722656 419.878906 379.515625 420.082031 380.316406 420.242188 C 381.117188 420.402344 381.925781 420.523438 382.738281 420.605469 C 383.550781 420.683594 384.367188 420.726562 385.183594 420.726562 C 386 420.726562 386.816406 420.683594 387.628906 420.605469 C 388.441406 420.523438 389.25 420.402344 390.050781 420.242188 C 390.851562 420.082031 391.640625 419.878906 392.421875 419.640625 C 393.203125 419.402344 393.972656 419.125 394.726562 418.808594 C 395.480469 418.496094 396.214844 418.144531 396.933594 417.753906 C 397.652344 417.367188 398.351562 416.945312 399.027344 416.488281 C 399.703125 416.03125 400.355469 415.539062 400.984375 415.019531 C 401.613281 414.496094 402.214844 413.945312 402.785156 413.363281 C 403.359375 412.78125 403.902344 412.175781 404.414062 411.539062 C 404.925781 410.902344 405.40625 410.246094 405.855469 409.5625 C 406.300781 408.878906 406.714844 408.175781 407.089844 407.453125 C 407.46875 406.730469 407.808594 405.988281 408.113281 405.230469 C 408.417969 404.472656 408.679688 403.703125 408.910156 402.921875 C 409.136719 402.136719 409.324219 401.34375 409.472656 400.542969 C 409.621094 399.738281 409.726562 398.933594 409.796875 398.117188 C 409.863281 397.304688 409.890625 396.492188 409.878906 395.675781 C 409.878906 395.050781 409.90625 394.429688 409.96875 393.808594 C 410.03125 393.1875 410.121094 392.574219 410.242188 391.960938 C 410.367188 391.351562 410.515625 390.746094 410.699219 390.148438 C 410.878906 389.550781 411.089844 388.964844 411.328125 388.390625 C 411.570312 387.8125 411.835938 387.25 412.128906 386.699219 C 412.425781 386.148438 412.746094 385.617188 413.09375 385.097656 C 413.4375 384.578125 413.8125 384.078125 414.207031 383.597656 C 414.605469 383.113281 415.023438 382.652344 415.464844 382.210938 C 415.90625 381.769531 416.367188 381.351562 416.851562 380.957031 C 417.335938 380.5625 417.835938 380.191406 418.355469 379.84375 C 418.875 379.496094 419.410156 379.175781 419.960938 378.882812 C 420.511719 378.589844 421.078125 378.324219 421.652344 378.082031 C 422.230469 377.84375 422.816406 377.636719 423.417969 377.453125 C 424.015625 377.273438 424.621094 377.121094 425.230469 377 C 425.84375 376.878906 426.460938 376.789062 427.082031 376.726562 C 427.707031 376.664062 428.328125 376.632812 428.953125 376.632812 C 429.578125 376.632812 430.203125 376.664062 430.824219 376.726562 C 431.445312 376.789062 432.0625 376.878906 432.675781 377 C 433.289062 377.121094 433.894531 377.273438 434.492188 377.453125 C 435.089844 377.636719 435.675781 377.84375 436.253906 378.082031 C 436.832031 378.324219 437.394531 378.589844 437.945312 378.882812 C 438.496094 379.175781 439.03125 379.496094 439.550781 379.84375 C 440.070312 380.191406 440.574219 380.5625 441.054688 380.957031 C 441.539062 381.351562 442 381.769531 442.441406 382.210938 C 442.882812 382.652344 443.304688 383.113281 443.699219 383.597656 C 444.097656 384.078125 444.46875 384.578125 444.816406 385.097656 C 445.160156 385.617188 445.484375 386.148438 445.777344 386.699219 C 446.070312 387.25 446.339844 387.8125 446.578125 388.390625 C 446.816406 388.964844 447.027344 389.550781 447.207031 390.148438 C 447.390625 390.746094 447.542969 391.351562 447.664062 391.960938 C 447.785156 392.574219 447.875 393.1875 447.9375 393.808594 C 448 394.429688 448.03125 395.050781 448.03125 395.675781 C 448.015625 396.492188 448.042969 397.304688 448.113281 398.117188 C 448.179688 398.933594 448.289062 399.738281 448.4375 400.542969 C 448.585938 401.34375 448.773438 402.136719 449 402.921875 C 449.226562 403.703125 449.492188 404.472656 449.792969 405.230469 C 450.097656 405.988281 450.4375 406.730469 450.816406 407.453125 C 451.191406 408.175781 451.605469 408.878906 452.050781 409.5625 C 452.5 410.246094 452.980469 410.902344 453.492188 411.539062 C 454.003906 412.175781 454.546875 412.78125 455.121094 413.363281 C 455.695312 413.945312 456.292969 414.496094 456.921875 415.019531 C 457.550781 415.539062 458.203125 416.03125 458.878906 416.488281 C 459.554688 416.945312 460.253906 417.367188 460.972656 417.753906 C 461.691406 418.144531 462.425781 418.496094 463.179688 418.808594 C 463.933594 419.125 464.703125 419.402344 465.484375 419.640625 C 466.265625 419.878906 467.054688 420.082031 467.855469 420.242188 C 468.660156 420.402344 469.464844 420.523438 470.277344 420.605469 C 471.09375 420.683594 471.90625 420.726562 472.722656 420.726562 C 473.542969 420.726562 474.355469 420.683594 475.167969 420.605469 C 475.984375 420.523438 476.789062 420.402344 477.589844 420.242188 C 478.390625 420.082031 479.183594 419.878906 479.964844 419.640625 C 480.746094 419.402344 481.511719 419.125 482.265625 418.808594 C 483.019531 418.496094 483.757812 418.144531 484.476562 417.753906 C 485.195312 417.367188 485.890625 416.945312 486.570312 416.488281 C 487.246094 416.03125 487.898438 415.539062 488.527344 415.019531 C 489.152344 414.496094 489.753906 413.945312 490.328125 413.363281 C 490.902344 412.78125 491.445312 412.175781 491.957031 411.539062 C 492.46875 410.902344 492.949219 410.246094 493.394531 409.5625 C 493.84375 408.878906 494.253906 408.175781 494.632812 407.453125 C 495.007812 406.730469 495.351562 405.988281 495.652344 405.230469 C 495.957031 404.472656 496.222656 403.703125 496.449219 402.921875 C 496.675781 402.136719 496.863281 401.34375 497.011719 400.542969 C 497.160156 399.738281 497.269531 398.933594 497.335938 398.117188 C 497.402344 397.304688 497.429688 396.492188 497.417969 395.675781 C 497.417969 395.050781 497.449219 394.429688 497.511719 393.808594 C 497.570312 393.1875 497.664062 392.574219 497.785156 391.960938 C 497.90625 391.351562 498.058594 390.746094 498.238281 390.148438 C 498.421875 389.550781 498.632812 388.964844 498.871094 388.390625 C 499.109375 387.8125 499.375 387.25 499.671875 386.699219 C 499.964844 386.148438 500.285156 385.617188 500.632812 385.097656 C 500.980469 384.578125 501.351562 384.078125 501.75 383.597656 C 502.144531 383.113281 502.5625 382.652344 503.003906 382.210938 C 503.449219 381.769531 503.910156 381.351562 504.394531 380.957031 C 504.875 380.5625 505.375 380.191406 505.894531 379.84375 C 506.414062 379.496094 506.949219 379.175781 507.503906 378.882812 C 508.054688 378.589844 508.617188 378.324219 509.195312 378.082031 C 509.773438 377.84375 510.359375 377.636719 510.957031 377.453125 C 511.554688 377.273438 512.160156 377.121094 512.773438 377 C 513.386719 376.878906 514.003906 376.789062 514.625 376.726562 C 515.246094 376.664062 515.871094 376.632812 516.496094 376.632812 C 517.121094 376.632812 517.742188 376.664062 518.363281 376.726562 C 518.984375 376.789062 519.601562 376.878906 520.214844 377 C 520.828125 377.121094 521.433594 377.273438 522.03125 377.453125 C 522.628906 377.636719 523.21875 377.84375 523.792969 378.082031 C 524.371094 378.324219 524.9375 378.589844 525.488281 378.882812 C 526.039062 379.175781 526.574219 379.496094 527.09375 379.84375 C 527.613281 380.191406 528.113281 380.5625 528.597656 380.957031 C 529.078125 381.351562 529.542969 381.769531 529.984375 382.210938 C 530.425781 382.652344 530.84375 383.113281 531.242188 383.597656 C 531.636719 384.078125 532.007812 384.578125 532.355469 385.097656 C 532.703125 385.617188 533.023438 386.148438 533.320312 386.699219 C 533.613281 387.25 533.878906 387.8125 534.117188 388.390625 C 534.359375 388.964844 534.566406 389.550781 534.75 390.148438 C 534.929688 390.746094 535.082031 391.351562 535.203125 391.960938 C 535.328125 392.574219 535.417969 393.1875 535.480469 393.808594 C 535.539062 394.429688 535.570312 395.050781 535.570312 395.675781 C 535.566406 397.730469 535.464844 399.777344 535.257812 401.820312 C 535.054688 403.863281 534.75 405.894531 534.347656 407.90625 C 533.941406 409.921875 533.441406 411.910156 532.84375 413.875 C 532.242188 415.839844 531.550781 417.769531 530.761719 419.664062 C 529.972656 421.5625 529.09375 423.414062 528.121094 425.226562 C 527.152344 427.035156 526.09375 428.796875 524.949219 430.503906 C 523.808594 432.210938 522.582031 433.855469 521.277344 435.445312 C 519.972656 437.03125 518.59375 438.550781 517.136719 440.003906 C 515.683594 441.457031 514.160156 442.832031 512.570312 444.136719 C 510.980469 445.441406 509.332031 446.664062 507.621094 447.804688 C 505.910156 448.945312 504.148438 450 502.335938 450.972656 C 500.523438 451.941406 498.664062 452.820312 496.765625 453.605469 C 494.867188 454.394531 492.933594 455.085938 490.964844 455.6875 C 488.996094 456.285156 487.003906 456.785156 484.984375 457.1875 C 482.96875 457.589844 480.9375 457.894531 478.890625 458.101562 C 476.84375 458.304688 474.789062 458.410156 472.734375 458.414062 Z M 472.734375 458.414062 " fill-opacity="1" fill-rule="nonzero"/></g><path stroke-linecap="butt" transform="matrix(0.635876, 0, 0, 0.634727, 59.719263, 376.634451)" fill="none" stroke-linejoin="miter" d="M 716.880163 44.277004 C 716.462432 46.277124 715.958698 48.178777 715.381247 50.092738 " stroke="#428dcc" stroke-width="2" stroke-opacity="1" stroke-miterlimit="10"/><path fill="#428dcc" d="M 512.128906 416.148438 C 510.871094 418.5625 509.402344 420.839844 507.722656 422.984375 L 506.722656 422.199219 C 508.351562 420.117188 509.78125 417.90625 511.003906 415.5625 Z M 502.121094 428.914062 C 500.070312 430.722656 497.867188 432.328125 495.519531 433.726562 L 494.867188 432.636719 C 497.148438 431.277344 499.285156 429.71875 501.28125 427.964844 Z M 488.144531 437.25 C 485.582031 438.199219 482.953125 438.902344 480.257812 439.363281 L 480.042969 438.113281 C 482.660156 437.664062 485.214844 436.980469 487.703125 436.0625 Z M 472.117188 440 C 470.09375 439.972656 468.085938 439.808594 466.085938 439.503906 C 465.398438 439.402344 464.71875 439.28125 464.039062 439.148438 L 464.289062 437.902344 C 464.949219 438.035156 465.609375 438.148438 466.273438 438.25 C 468.21875 438.542969 470.171875 438.703125 472.136719 438.730469 Z M 456.210938 436.824219 C 453.671875 435.804688 451.246094 434.566406 448.933594 433.101562 L 449.613281 432.03125 C 451.859375 433.453125 454.214844 434.65625 456.683594 435.644531 Z M 442.464844 428.113281 C 440.464844 426.253906 438.648438 424.226562 437.023438 422.03125 L 438.046875 421.277344 C 439.625 423.40625 441.386719 425.375 443.332031 427.183594 Z M 432.789062 415.046875 C 431.589844 412.589844 430.628906 410.042969 429.90625 407.40625 L 431.132812 407.070312 C 431.835938 409.628906 432.769531 412.105469 433.929688 414.492188 Z M 432.789062 415.046875 " fill-opacity="1" fill-rule="nonzero"/><path stroke-linecap="butt" transform="matrix(0.635876, 0, 0, 0.634727, 59.719263, 376.634451)" fill="none" stroke-linejoin="miter" d="M 581.001004 35.999583 C 580.822855 33.999463 580.742994 31.999343 580.742994 29.999222 C 580.742994 31.999343 580.650848 33.999463 580.478841 35.999583 " stroke="#428dcc" stroke-width="2" stroke-opacity="1" stroke-miterlimit="10"/><path fill="#428dcc" d="M 428.097656 407.152344 C 427.429688 409.648438 426.546875 412.070312 425.449219 414.414062 L 424.296875 413.875 C 425.363281 411.601562 426.21875 409.25 426.871094 406.824219 Z M 421.570312 421.117188 C 420.082031 423.238281 418.417969 425.214844 416.582031 427.046875 L 415.683594 426.148438 C 417.46875 424.371094 419.082031 422.449219 420.53125 420.386719 Z M 410.628906 432.019531 C 408.5 433.503906 406.257812 434.792969 403.902344 435.882812 L 403.367188 434.734375 C 405.65625 433.671875 407.835938 432.421875 409.902344 430.980469 Z M 396.605469 438.519531 C 394.09375 439.1875 391.546875 439.628906 388.957031 439.847656 L 388.847656 438.585938 C 391.363281 438.371094 393.839844 437.941406 396.28125 437.292969 Z M 381.265625 439.835938 C 378.683594 439.605469 376.136719 439.152344 373.628906 438.480469 L 373.960938 437.253906 C 376.394531 437.910156 378.867188 438.347656 381.378906 438.570312 Z M 366.339844 435.8125 C 363.984375 434.710938 361.746094 433.414062 359.621094 431.921875 L 360.355469 430.882812 C 362.417969 432.332031 364.59375 433.59375 366.878906 434.664062 Z M 353.6875 426.917969 C 351.855469 425.078125 350.195312 423.089844 348.714844 420.960938 L 349.757812 420.234375 C 351.199219 422.304688 352.808594 424.234375 354.589844 426.023438 Z M 344.859375 414.230469 C 343.773438 411.875 342.898438 409.441406 342.238281 406.933594 L 343.46875 406.613281 C 344.109375 409.050781 344.957031 411.410156 346.015625 413.699219 Z M 344.859375 414.230469 " fill-opacity="1" fill-rule="nonzero"/><path stroke-linecap="butt" transform="matrix(0.635876, 0, 0, 0.634727, 59.719263, 376.634451)" fill="none" stroke-linejoin="miter" d="M 443.272774 35.999583 C 443.100767 33.999463 443.020907 31.999343 443.020907 29.999222 C 443.020907 31.999343 442.934903 33.999463 442.762897 35.999583 " stroke="#428dcc" stroke-width="2" stroke-opacity="1" stroke-miterlimit="10"/><path fill="#428dcc" d="M 340.558594 407.152344 C 339.886719 409.648438 339.003906 412.070312 337.90625 414.414062 L 336.753906 413.875 C 337.820312 411.597656 338.675781 409.25 339.328125 406.824219 Z M 334.027344 421.113281 C 332.535156 423.234375 330.871094 425.210938 329.035156 427.042969 L 328.136719 426.144531 C 329.921875 424.367188 331.539062 422.445312 332.984375 420.386719 Z M 323.082031 432.015625 C 320.953125 433.5 318.710938 434.789062 316.355469 435.878906 L 315.820312 434.726562 C 318.109375 433.667969 320.285156 432.417969 322.355469 430.976562 Z M 309.058594 438.515625 C 306.546875 439.179688 303.996094 439.621094 301.40625 439.839844 L 301.300781 438.578125 C 303.816406 438.363281 306.292969 437.933594 308.730469 437.285156 Z M 293.71875 439.824219 C 291.132812 439.597656 288.585938 439.144531 286.082031 438.46875 L 286.414062 437.242188 C 288.847656 437.898438 291.320312 438.339844 293.832031 438.5625 Z M 278.789062 435.804688 C 276.4375 434.703125 274.199219 433.402344 272.074219 431.910156 L 272.804688 430.871094 C 274.871094 432.324219 277.042969 433.582031 279.332031 434.652344 Z M 266.136719 426.90625 C 264.304688 425.066406 262.648438 423.082031 261.164062 420.949219 L 262.210938 420.226562 C 263.652344 422.296875 265.261719 424.222656 267.039062 426.011719 Z M 257.3125 414.21875 C 256.222656 411.863281 255.347656 409.433594 254.6875 406.925781 L 255.917969 406.601562 C 256.558594 409.039062 257.410156 411.398438 258.464844 413.6875 Z M 257.3125 414.21875 " fill-opacity="1" fill-rule="nonzero"/><path stroke-linecap="butt" transform="matrix(0.635876, 0, 0, 0.634727, 59.719263, 376.634451)" fill="none" stroke-linejoin="miter" d="M 305.599831 35.999583 C 305.433967 33.999463 305.347964 31.999343 305.341821 29.999222 C 305.341821 31.999343 305.255818 33.999463 305.089954 35.999583 " stroke="#428dcc" stroke-width="2" stroke-opacity="1" stroke-miterlimit="10"/><path fill="#428dcc" d="M 253.003906 407.152344 C 252.332031 409.648438 251.449219 412.070312 250.351562 414.414062 L 249.199219 413.875 C 250.265625 411.597656 251.125 409.25 251.777344 406.824219 Z M 246.472656 421.113281 C 244.980469 423.234375 243.316406 425.210938 241.480469 427.042969 L 240.582031 426.144531 C 242.367188 424.367188 243.984375 422.445312 245.429688 420.382812 Z M 235.527344 432.015625 C 233.398438 433.5 231.15625 434.785156 228.800781 435.875 L 228.265625 434.726562 C 230.550781 433.664062 232.730469 432.414062 234.800781 430.972656 Z M 221.5 438.511719 C 218.988281 439.175781 216.4375 439.617188 213.851562 439.835938 L 213.742188 438.570312 C 216.257812 438.359375 218.734375 437.929688 221.175781 437.285156 Z M 206.160156 439.820312 C 203.574219 439.589844 201.03125 439.136719 198.523438 438.460938 L 198.855469 437.234375 C 201.289062 437.890625 203.761719 438.332031 206.273438 438.554688 Z M 191.234375 435.792969 C 188.882812 434.691406 186.644531 433.390625 184.519531 431.898438 L 185.25 430.859375 C 187.316406 432.3125 189.488281 433.574219 191.773438 434.644531 Z M 178.585938 426.894531 C 176.753906 425.050781 175.097656 423.066406 173.613281 420.933594 L 174.660156 420.210938 C 176.097656 422.28125 177.707031 424.210938 179.488281 426 Z M 169.761719 414.203125 C 168.675781 411.847656 167.800781 409.414062 167.144531 406.90625 L 168.375 406.585938 C 169.015625 409.019531 169.863281 411.382812 170.917969 413.671875 Z M 169.761719 414.203125 " fill-opacity="1" fill-rule="nonzero"/><path stroke-linecap="butt" transform="matrix(0.635876, 0, 0, 0.634727, 59.719263, 376.634451)" fill="none" stroke-linejoin="miter" d="M 167.933031 35.999583 C 167.754881 33.999463 167.668878 31.999343 167.668878 29.999222 C 167.668878 31.999343 167.582875 33.999463 167.410868 35.999583 " stroke="#428dcc" stroke-width="2" stroke-opacity="1" stroke-miterlimit="10"/><path fill="#428dcc" d="M 165.46875 407.152344 C 164.800781 409.648438 163.921875 412.070312 162.828125 414.414062 L 161.675781 413.878906 C 162.738281 411.601562 163.589844 409.25 164.242188 406.824219 Z M 158.957031 421.121094 C 157.46875 423.246094 155.808594 425.222656 153.972656 427.058594 L 153.070312 426.160156 C 154.855469 424.378906 156.46875 422.457031 157.914062 420.394531 Z M 148.027344 432.039062 C 145.898438 433.523438 143.65625 434.8125 141.304688 435.910156 L 140.765625 434.757812 C 143.054688 433.695312 145.230469 432.441406 147.296875 430.996094 Z M 134.007812 438.550781 C 131.5 439.222656 128.949219 439.667969 126.359375 439.886719 L 126.253906 438.625 C 128.765625 438.40625 131.242188 437.976562 133.679688 437.324219 Z M 118.671875 439.882812 C 116.085938 439.65625 113.539062 439.207031 111.03125 438.53125 L 111.363281 437.308594 C 113.796875 437.960938 116.269531 438.398438 118.78125 438.617188 Z M 103.738281 435.875 C 101.382812 434.777344 99.144531 433.480469 97.015625 431.988281 L 97.75 430.949219 C 99.8125 432.398438 101.992188 433.660156 104.277344 434.726562 Z M 91.078125 426.992188 C 89.242188 425.152344 87.582031 423.167969 86.097656 421.039062 L 87.144531 420.316406 C 88.585938 422.382812 90.195312 424.3125 91.976562 426.097656 Z M 82.238281 414.3125 C 81.148438 411.960938 80.269531 409.527344 79.609375 407.023438 L 80.839844 406.699219 C 81.480469 409.132812 82.332031 411.496094 83.390625 413.78125 Z M 82.238281 414.3125 " fill-opacity="1" fill-rule="nonzero"/><path stroke-linecap="butt" transform="matrix(0.635876, 0, 0, 0.634727, 59.719263, 376.634451)" fill="none" stroke-linejoin="miter" d="M 30.260088 35.999583 C 30.088082 33.999463 30.002078 31.999343 30.002078 29.999222 " stroke="#428dcc" stroke-width="2" stroke-opacity="1" stroke-miterlimit="10"/><path fill="#428dcc" d="M 508.894531 405.800781 L 516.507812 395.675781 L 521.484375 407.316406 Z M 508.894531 405.800781 " fill-opacity="1" fill-rule="nonzero"/><path fill="#428dcc" d="M 80.199219 387.425781 C 80.417969 387.863281 80.722656 388.226562 81.121094 388.511719 C 81.515625 388.800781 81.953125 388.980469 82.4375 389.050781 C 83.003906 389.128906 83.5 389.351562 83.9375 389.714844 C 84.375 390.082031 84.679688 390.53125 84.855469 391.074219 C 85.03125 391.613281 85.050781 392.160156 84.914062 392.710938 C 84.773438 393.261719 84.5 393.734375 84.09375 394.128906 C 83.742188 394.472656 83.488281 394.878906 83.339844 395.347656 C 83.191406 395.816406 83.160156 396.289062 83.246094 396.773438 C 83.34375 397.332031 83.28125 397.871094 83.070312 398.394531 C 82.855469 398.917969 82.519531 399.34375 82.0625 399.675781 C 81.605469 400.007812 81.09375 400.195312 80.527344 400.238281 C 79.964844 400.277344 79.429688 400.167969 78.929688 399.902344 C 78.496094 399.675781 78.035156 399.5625 77.542969 399.5625 C 77.050781 399.5625 76.589844 399.675781 76.15625 399.902344 C 75.652344 400.175781 75.117188 400.296875 74.546875 400.261719 C 73.976562 400.226562 73.457031 400.042969 72.992188 399.707031 C 72.527344 399.375 72.1875 398.941406 71.972656 398.414062 C 71.757812 397.882812 71.699219 397.335938 71.800781 396.773438 C 71.882812 396.292969 71.851562 395.816406 71.699219 395.351562 C 71.550781 394.886719 71.296875 394.484375 70.949219 394.140625 C 70.539062 393.746094 70.265625 393.273438 70.128906 392.722656 C 69.992188 392.171875 70.007812 391.628906 70.183594 391.089844 C 70.359375 390.546875 70.664062 390.097656 71.097656 389.730469 C 71.535156 389.363281 72.03125 389.140625 72.597656 389.0625 C 73.085938 388.996094 73.53125 388.816406 73.933594 388.527344 C 74.332031 388.234375 74.640625 387.867188 74.859375 387.425781 C 75.109375 386.917969 75.476562 386.511719 75.957031 386.214844 C 76.4375 385.914062 76.964844 385.765625 77.53125 385.765625 C 78.097656 385.765625 78.621094 385.914062 79.101562 386.214844 C 79.585938 386.511719 79.949219 386.917969 80.199219 387.425781 Z M 80.199219 387.425781 " fill-opacity="1" fill-rule="nonzero"/></svg>