<svg xmlns="http://www.w3.org/2000/svg" xmlns:xlink="http://www.w3.org/1999/xlink" width="794" zoomAndPan="magnify" viewBox="0 0 594.95996 842.24997" height="1123" preserveAspectRatio="xMidYMid meet" version="1.0"><defs><clipPath id="b6fb1e3066"><path d="M 277.46875 182.675781 L 317.933594 182.675781 L 317.933594 658.5 L 277.46875 658.5 Z M 277.46875 182.675781 " clip-rule="nonzero"/></clipPath></defs><g clip-path="url(#b6fb1e3066)"><path fill="#f5f4f4" d="M 317.90625 202.972656 L 317.90625 638.183594 C 317.90625 638.847656 317.871094 639.511719 317.808594 640.171875 C 317.742188 640.835938 317.644531 641.492188 317.515625 642.144531 C 317.386719 642.796875 317.226562 643.441406 317.035156 644.074219 C 316.84375 644.710938 316.621094 645.335938 316.367188 645.953125 C 316.113281 646.566406 315.832031 647.164062 315.519531 647.753906 C 315.207031 648.339844 314.867188 648.90625 314.5 649.460938 C 314.132812 650.011719 313.738281 650.546875 313.316406 651.058594 C 312.898438 651.574219 312.453125 652.066406 311.984375 652.535156 C 311.515625 653.007812 311.027344 653.453125 310.515625 653.875 C 310.003906 654.296875 309.472656 654.691406 308.921875 655.0625 C 308.371094 655.429688 307.804688 655.769531 307.222656 656.085938 C 306.636719 656.398438 306.042969 656.683594 305.429688 656.9375 C 304.816406 657.191406 304.195312 657.414062 303.5625 657.605469 C 302.929688 657.800781 302.289062 657.960938 301.640625 658.089844 C 300.988281 658.222656 300.335938 658.320312 299.675781 658.382812 C 299.019531 658.449219 298.359375 658.480469 297.695312 658.480469 C 297.035156 658.480469 296.375 658.449219 295.714844 658.382812 C 295.058594 658.320312 294.402344 658.222656 293.753906 658.089844 C 293.105469 657.960938 292.464844 657.800781 291.832031 657.605469 C 291.195312 657.414062 290.574219 657.191406 289.964844 656.9375 C 289.351562 656.683594 288.753906 656.398438 288.171875 656.085938 C 287.585938 655.769531 287.019531 655.429688 286.46875 655.0625 C 285.917969 654.691406 285.386719 654.296875 284.875 653.875 C 284.363281 653.453125 283.875 653.007812 283.40625 652.535156 C 282.9375 652.066406 282.496094 651.574219 282.074219 651.058594 C 281.65625 650.546875 281.261719 650.011719 280.894531 649.460938 C 280.527344 648.90625 280.1875 648.339844 279.875 647.753906 C 279.5625 647.164062 279.28125 646.566406 279.027344 645.953125 C 278.773438 645.335938 278.550781 644.710938 278.359375 644.074219 C 278.167969 643.441406 278.003906 642.796875 277.875 642.144531 C 277.746094 641.492188 277.652344 640.835938 277.585938 640.171875 C 277.519531 639.511719 277.488281 638.847656 277.488281 638.183594 L 277.488281 202.972656 C 277.488281 202.304688 277.519531 201.644531 277.585938 200.980469 C 277.652344 200.320312 277.746094 199.664062 277.875 199.011719 C 278.003906 198.359375 278.167969 197.714844 278.359375 197.078125 C 278.550781 196.441406 278.773438 195.816406 279.027344 195.203125 C 279.28125 194.589844 279.5625 193.988281 279.875 193.402344 C 280.1875 192.816406 280.527344 192.246094 280.894531 191.695312 C 281.261719 191.140625 281.65625 190.609375 282.074219 190.09375 C 282.496094 189.582031 282.9375 189.089844 283.40625 188.617188 C 283.875 188.148438 284.363281 187.703125 284.875 187.28125 C 285.386719 186.859375 285.917969 186.464844 286.46875 186.09375 C 287.019531 185.726562 287.585938 185.382812 288.171875 185.070312 C 288.753906 184.757812 289.351562 184.472656 289.964844 184.21875 C 290.574219 183.964844 291.195312 183.742188 291.832031 183.546875 C 292.464844 183.355469 293.105469 183.195312 293.753906 183.0625 C 294.402344 182.933594 295.058594 182.835938 295.714844 182.773438 C 296.375 182.707031 297.035156 182.675781 297.695312 182.675781 C 298.359375 182.675781 299.019531 182.707031 299.675781 182.773438 C 300.335938 182.835938 300.988281 182.933594 301.640625 183.0625 C 302.289062 183.195312 302.929688 183.355469 303.5625 183.546875 C 304.195312 183.742188 304.816406 183.964844 305.429688 184.21875 C 306.042969 184.472656 306.636719 184.757812 307.222656 185.070312 C 307.804688 185.382812 308.371094 185.726562 308.921875 186.09375 C 309.472656 186.464844 310.003906 186.859375 310.515625 187.28125 C 311.027344 187.703125 311.515625 188.148438 311.984375 188.617188 C 312.453125 189.089844 312.898438 189.582031 313.316406 190.09375 C 313.738281 190.609375 314.132812 191.140625 314.5 191.695312 C 314.867188 192.246094 315.207031 192.816406 315.519531 193.402344 C 315.832031 193.988281 316.113281 194.589844 316.367188 195.203125 C 316.621094 195.816406 316.84375 196.441406 317.035156 197.078125 C 317.226562 197.714844 317.386719 198.359375 317.515625 199.011719 C 317.644531 199.664062 317.742188 200.320312 317.808594 200.980469 C 317.871094 201.644531 317.90625 202.304688 317.90625 202.972656 Z M 317.90625 202.972656 " fill-opacity="1" fill-rule="nonzero"/></g><path fill="#428dcc" d="M 298.324219 204.054688 L 298.324219 211.617188 L 297.070312 211.617188 L 297.070312 204.054688 M 298.324219 219.179688 L 298.324219 226.742188 L 297.070312 226.742188 L 297.070312 219.179688 M 298.324219 234.300781 L 298.324219 241.863281 L 297.070312 241.863281 L 297.070312 234.300781 M 298.324219 249.425781 L 298.324219 256.988281 L 297.070312 256.988281 L 297.070312 249.425781 M 298.324219 264.550781 L 298.324219 272.109375 L 297.070312 272.109375 L 297.070312 264.550781 M 298.324219 279.671875 L 298.324219 287.234375 L 297.070312 287.234375 L 297.070312 279.671875 M 298.324219 294.796875 L 298.324219 302.359375 L 297.070312 302.359375 L 297.070312 294.796875 M 298.324219 309.921875 L 298.324219 317.480469 L 297.070312 317.480469 L 297.070312 309.921875 M 298.324219 325.042969 L 298.324219 332.605469 L 297.070312 332.605469 L 297.070312 325.042969 M 298.324219 340.167969 L 298.324219 347.730469 L 297.070312 347.730469 L 297.070312 340.167969 M 298.324219 355.289062 L 298.324219 362.851562 L 297.070312 362.851562 L 297.070312 355.289062 M 298.324219 370.414062 L 298.324219 377.976562 L 297.070312 377.976562 L 297.070312 370.414062 M 298.324219 385.539062 L 298.324219 393.101562 L 297.070312 393.101562 L 297.070312 385.539062 M 298.324219 400.660156 L 298.324219 408.222656 L 297.070312 408.222656 L 297.070312 400.660156 M 298.324219 415.785156 L 298.324219 423.347656 L 297.070312 423.347656 L 297.070312 415.785156 M 298.324219 430.910156 L 298.324219 438.472656 L 297.070312 438.472656 L 297.070312 430.910156 M 298.324219 446.03125 L 298.324219 453.59375 L 297.070312 453.59375 L 297.070312 446.03125 M 298.324219 461.15625 L 298.324219 468.71875 L 297.070312 468.71875 L 297.070312 461.15625 M 298.324219 476.28125 L 298.324219 483.839844 L 297.070312 483.839844 L 297.070312 476.28125 M 298.324219 491.402344 L 298.324219 498.964844 L 297.070312 498.964844 L 297.070312 491.402344 M 298.324219 506.527344 L 298.324219 514.089844 L 297.070312 514.089844 L 297.070312 506.527344 M 298.324219 521.652344 L 298.324219 529.210938 L 297.070312 529.210938 L 297.070312 521.652344 M 298.324219 536.773438 L 298.324219 544.335938 L 297.070312 544.335938 L 297.070312 536.773438 M 298.324219 551.898438 L 298.324219 559.460938 L 297.070312 559.460938 L 297.070312 551.898438 M 298.324219 567.019531 L 298.324219 574.582031 L 297.070312 574.582031 L 297.070312 567.019531 M 298.324219 582.144531 L 298.324219 589.707031 L 297.070312 589.707031 L 297.070312 582.144531 M 298.324219 597.269531 L 298.324219 604.832031 L 297.070312 604.832031 L 297.070312 597.269531 M 298.324219 612.390625 L 298.324219 619.953125 L 297.070312 619.953125 L 297.070312 612.390625 M 298.324219 627.515625 L 298.324219 633.550781 L 297.070312 633.550781 L 297.070312 627.515625 " fill-opacity="1" fill-rule="nonzero"/><path fill="#428dcc" d="M 291.441406 631.710938 L 297.695312 642.59375 L 303.953125 631.710938 Z M 291.441406 631.710938 " fill-opacity="1" fill-rule="nonzero"/><path fill="#428dcc" d="M 304.460938 209.910156 C 304.023438 210.121094 303.664062 210.425781 303.378906 210.816406 C 303.09375 211.210938 302.917969 211.648438 302.847656 212.128906 C 302.769531 212.683594 302.550781 213.179688 302.1875 213.613281 C 301.828125 214.042969 301.382812 214.347656 300.847656 214.519531 C 300.3125 214.695312 299.773438 214.714844 299.230469 214.578125 C 298.683594 214.441406 298.21875 214.171875 297.828125 213.765625 C 297.492188 213.421875 297.09375 213.175781 296.640625 213.023438 C 296.183594 212.875 295.71875 212.839844 295.242188 212.921875 C 294.691406 213.015625 294.160156 212.957031 293.640625 212.746094 C 293.125 212.535156 292.703125 212.199219 292.375 211.746094 C 292.046875 211.292969 291.859375 210.785156 291.820312 210.226562 C 291.78125 209.667969 291.890625 209.140625 292.148438 208.640625 C 292.375 208.210938 292.488281 207.753906 292.488281 207.269531 C 292.488281 206.78125 292.375 206.324219 292.148438 205.894531 C 291.890625 205.398438 291.78125 204.871094 291.820312 204.3125 C 291.863281 203.75 292.046875 203.246094 292.375 202.789062 C 292.703125 202.335938 293.125 202.003906 293.640625 201.792969 C 294.160156 201.582031 294.691406 201.523438 295.242188 201.617188 C 295.71875 201.695312 296.183594 201.660156 296.640625 201.507812 C 297.097656 201.359375 297.492188 201.109375 297.828125 200.765625 C 298.21875 200.359375 298.683594 200.089844 299.226562 199.953125 C 299.773438 199.816406 300.3125 199.835938 300.84375 200.007812 C 301.378906 200.183594 301.824219 200.484375 302.1875 200.914062 C 302.546875 201.347656 302.769531 201.839844 302.847656 202.398438 C 302.917969 202.878906 303.09375 203.3125 303.378906 203.707031 C 303.660156 204.097656 304.019531 204.402344 304.453125 204.617188 C 304.957031 204.863281 305.355469 205.226562 305.652344 205.703125 C 305.949219 206.179688 306.097656 206.699219 306.097656 207.261719 C 306.097656 207.824219 305.949219 208.34375 305.65625 208.820312 C 305.359375 209.296875 304.960938 209.660156 304.460938 209.910156 Z M 304.460938 209.910156 " fill-opacity="1" fill-rule="nonzero"/></svg>