<svg xmlns="http://www.w3.org/2000/svg" xmlns:xlink="http://www.w3.org/1999/xlink" width="1200" zoomAndPan="magnify" viewBox="0 0 900 899.99999" height="1200" preserveAspectRatio="xMidYMid meet" version="1.0"><defs><clipPath id="af28167bbc"><path d="M 16.304688 0 L 884 0 L 884 161.90625 L 16.304688 161.90625 Z M 16.304688 0 " clip-rule="nonzero"/></clipPath><clipPath id="a81eb0273f"><path d="M 16.304688 179.351562 L 884 179.351562 L 884 341.351562 L 16.304688 341.351562 Z M 16.304688 179.351562 " clip-rule="nonzero"/></clipPath><clipPath id="da82abacbf"><path d="M 16.304688 358.792969 L 884 358.792969 L 884 520.792969 L 16.304688 520.792969 Z M 16.304688 358.792969 " clip-rule="nonzero"/></clipPath><clipPath id="76b385c8af"><path d="M 16.304688 538.234375 L 884 538.234375 L 884 700.234375 L 16.304688 700.234375 Z M 16.304688 538.234375 " clip-rule="nonzero"/></clipPath><clipPath id="8b3954e94b"><path d="M 16.304688 717.675781 L 884 717.675781 L 884 879.675781 L 16.304688 879.675781 Z M 16.304688 717.675781 " clip-rule="nonzero"/></clipPath></defs><g clip-path="url(#af28167bbc)"><path fill="#d83951" d="M 802.761719 161.871094 L 97.210938 161.871094 C 52.984375 161.871094 16.304688 125.179688 16.304688 80.964844 C 16.304688 36.753906 52.984375 0.0585938 97.210938 0.0585938 L 802.761719 0.0585938 C 846.972656 0.0585938 883.667969 36.753906 883.667969 80.964844 C 883.667969 125.179688 846.972656 161.871094 802.761719 161.871094 Z M 872.371094 80.964844 C 872.371094 41.453125 842.265625 11.355469 802.761719 11.355469 L 97.210938 11.355469 C 57.695312 11.355469 27.597656 41.460938 27.597656 80.964844 C 27.597656 120.46875 57.695312 150.589844 97.210938 150.589844 L 802.761719 150.589844 C 842.277344 150.589844 872.371094 120.480469 872.371094 80.976562 Z M 872.371094 80.964844 " fill-opacity="1" fill-rule="nonzero"/></g><path fill="#d83951" d="M 74.675781 111.074219 C 74.675781 108.253906 75.621094 106.363281 76.554688 104.488281 L 88.78125 80.964844 L 76.554688 57.445312 C 75.609375 55.566406 74.675781 54.621094 74.675781 51.800781 C 74.675781 47.09375 78.441406 43.339844 83.136719 43.339844 C 85.015625 43.339844 86.902344 44.285156 88.78125 46.160156 L 117 74.378906 C 118.878906 77.199219 120.765625 78.144531 120.765625 80.964844 C 120.765625 84.730469 118.886719 85.675781 117 88.496094 L 88.78125 116.714844 C 86.902344 117.660156 85.015625 118.59375 83.136719 118.59375 C 78.429688 118.59375 74.675781 115.773438 74.675781 111.0625 Z M 767.058594 111.074219 C 767.058594 108.253906 768 106.363281 768.933594 104.488281 L 781.160156 80.964844 L 768.933594 57.445312 C 767.988281 55.566406 767.058594 54.621094 767.058594 51.800781 C 767.058594 47.09375 770.820312 43.339844 775.519531 43.339844 C 777.394531 43.339844 779.285156 44.285156 781.160156 46.160156 L 809.382812 74.378906 C 811.257812 77.199219 813.144531 78.144531 813.144531 80.964844 C 813.144531 84.730469 811.269531 85.675781 809.382812 88.496094 L 781.160156 116.714844 C 779.285156 117.660156 777.398438 118.59375 775.519531 118.59375 C 770.820312 118.59375 767.058594 115.773438 767.058594 111.0625 Z M 163.101562 86.609375 C 160.28125 86.609375 157.457031 83.785156 157.457031 80.964844 C 157.457031 77.199219 160.28125 75.324219 163.101562 75.324219 L 192.265625 75.324219 C 196.03125 75.324219 197.90625 77.199219 197.90625 80.964844 C 197.90625 83.785156 196.03125 86.609375 192.265625 86.609375 Z M 271.28125 86.609375 L 241.175781 86.609375 C 238.351562 86.609375 235.53125 83.785156 235.53125 80.964844 C 235.53125 77.199219 238.351562 75.324219 241.175781 75.324219 L 271.28125 75.324219 C 274.101562 75.324219 276.925781 77.199219 276.925781 80.964844 C 276.925781 83.785156 274.101562 86.609375 271.28125 86.609375 Z M 320.203125 86.609375 C 317.382812 86.609375 314.5625 83.785156 314.5625 80.964844 C 314.5625 77.199219 317.382812 75.324219 320.203125 75.324219 L 349.367188 75.324219 C 353.132812 75.324219 355.007812 77.199219 355.007812 80.964844 C 355.007812 83.785156 353.132812 86.609375 349.367188 86.609375 Z M 398.289062 86.609375 C 395.46875 86.609375 392.648438 83.785156 392.648438 80.964844 C 392.648438 77.199219 395.46875 75.324219 398.289062 75.324219 L 428.394531 75.324219 C 431.21875 75.324219 434.039062 77.199219 434.039062 80.964844 C 434.039062 83.785156 431.21875 86.609375 428.394531 86.609375 Z M 477.304688 86.609375 C 474.484375 86.609375 471.664062 83.785156 471.664062 80.964844 C 471.664062 77.199219 474.484375 75.324219 477.304688 75.324219 L 506.46875 75.324219 C 510.234375 75.324219 512.113281 77.199219 512.113281 80.964844 C 512.113281 83.785156 510.234375 86.609375 506.46875 86.609375 Z M 555.390625 86.609375 C 552.570312 86.609375 549.75 83.785156 549.75 80.964844 C 549.75 77.199219 552.570312 75.324219 555.390625 75.324219 L 585.5 75.324219 C 588.320312 75.324219 591.140625 77.199219 591.140625 80.964844 C 591.140625 83.785156 588.320312 86.609375 585.5 86.609375 Z M 634.410156 86.609375 C 631.589844 86.609375 628.765625 83.785156 628.765625 80.964844 C 628.765625 77.199219 631.589844 75.324219 634.410156 75.324219 L 663.574219 75.324219 C 666.394531 75.324219 669.214844 77.199219 669.214844 80.964844 C 669.214844 83.785156 666.394531 86.609375 663.574219 86.609375 Z M 712.492188 86.609375 C 709.671875 86.609375 706.851562 83.785156 706.851562 80.964844 C 706.851562 77.199219 709.671875 75.324219 712.492188 75.324219 L 742.601562 75.324219 C 745.421875 75.324219 748.242188 77.199219 748.242188 80.964844 C 748.242188 83.785156 745.421875 86.609375 742.601562 86.609375 Z M 712.492188 86.609375 " fill-opacity="1" fill-rule="nonzero"/><g clip-path="url(#a81eb0273f)"><path fill="#d83951" d="M 802.761719 341.3125 L 97.210938 341.3125 C 52.984375 341.3125 16.304688 304.621094 16.304688 260.40625 C 16.304688 216.195312 52.984375 179.503906 97.210938 179.503906 L 802.761719 179.503906 C 846.972656 179.503906 883.667969 216.195312 883.667969 260.40625 C 883.667969 304.621094 846.972656 341.3125 802.761719 341.3125 Z M 872.371094 260.40625 C 872.371094 220.894531 842.265625 190.796875 802.761719 190.796875 L 97.210938 190.796875 C 57.695312 190.796875 27.597656 220.90625 27.597656 260.40625 C 27.597656 299.910156 57.695312 330.03125 97.210938 330.03125 L 802.761719 330.03125 C 842.277344 330.03125 872.371094 299.921875 872.371094 260.417969 Z M 872.371094 260.40625 " fill-opacity="1" fill-rule="nonzero"/></g><path fill="#d83951" d="M 74.675781 290.515625 C 74.675781 287.695312 75.621094 285.808594 76.554688 283.929688 L 88.78125 260.40625 L 76.554688 236.886719 C 75.609375 235.007812 74.675781 234.066406 74.675781 231.242188 C 74.675781 226.535156 78.441406 222.78125 83.136719 222.78125 C 85.015625 222.78125 86.902344 223.726562 88.78125 225.601562 L 117 253.820312 C 118.878906 256.644531 120.765625 257.585938 120.765625 260.40625 C 120.765625 264.171875 118.886719 265.117188 117 267.9375 L 88.78125 296.15625 C 86.902344 297.101562 85.015625 298.035156 83.136719 298.035156 C 78.429688 298.035156 74.675781 295.214844 74.675781 290.503906 Z M 767.058594 290.515625 C 767.058594 287.695312 768 285.808594 768.933594 283.929688 L 781.160156 260.40625 L 768.933594 236.886719 C 767.988281 235.007812 767.058594 234.066406 767.058594 231.242188 C 767.058594 226.535156 770.820312 222.78125 775.519531 222.78125 C 777.394531 222.78125 779.285156 223.726562 781.160156 225.601562 L 809.382812 253.820312 C 811.257812 256.644531 813.144531 257.585938 813.144531 260.40625 C 813.144531 264.171875 811.269531 265.117188 809.382812 267.9375 L 781.160156 296.15625 C 779.285156 297.101562 777.398438 298.035156 775.519531 298.035156 C 770.820312 298.035156 767.058594 295.214844 767.058594 290.503906 Z M 163.101562 266.050781 C 160.28125 266.050781 157.457031 263.230469 157.457031 260.40625 C 157.457031 256.644531 160.28125 254.765625 163.101562 254.765625 L 192.265625 254.765625 C 196.03125 254.765625 197.90625 256.644531 197.90625 260.40625 C 197.90625 263.230469 196.03125 266.050781 192.265625 266.050781 Z M 271.28125 266.050781 L 241.175781 266.050781 C 238.351562 266.050781 235.53125 263.230469 235.53125 260.40625 C 235.53125 256.644531 238.351562 254.765625 241.175781 254.765625 L 271.28125 254.765625 C 274.101562 254.765625 276.925781 256.644531 276.925781 260.40625 C 276.925781 263.230469 274.101562 266.050781 271.28125 266.050781 Z M 320.203125 266.050781 C 317.382812 266.050781 314.5625 263.230469 314.5625 260.40625 C 314.5625 256.644531 317.382812 254.765625 320.203125 254.765625 L 349.367188 254.765625 C 353.132812 254.765625 355.007812 256.644531 355.007812 260.40625 C 355.007812 263.230469 353.132812 266.050781 349.367188 266.050781 Z M 398.289062 266.050781 C 395.46875 266.050781 392.648438 263.230469 392.648438 260.40625 C 392.648438 256.644531 395.46875 254.765625 398.289062 254.765625 L 428.394531 254.765625 C 431.21875 254.765625 434.039062 256.644531 434.039062 260.40625 C 434.039062 263.230469 431.21875 266.050781 428.394531 266.050781 Z M 477.304688 266.050781 C 474.484375 266.050781 471.664062 263.230469 471.664062 260.40625 C 471.664062 256.644531 474.484375 254.765625 477.304688 254.765625 L 506.46875 254.765625 C 510.234375 254.765625 512.113281 256.644531 512.113281 260.40625 C 512.113281 263.230469 510.234375 266.050781 506.46875 266.050781 Z M 555.390625 266.050781 C 552.570312 266.050781 549.75 263.230469 549.75 260.40625 C 549.75 256.644531 552.570312 254.765625 555.390625 254.765625 L 585.5 254.765625 C 588.320312 254.765625 591.140625 256.644531 591.140625 260.40625 C 591.140625 263.230469 588.320312 266.050781 585.5 266.050781 Z M 634.410156 266.050781 C 631.589844 266.050781 628.765625 263.230469 628.765625 260.40625 C 628.765625 256.644531 631.589844 254.765625 634.410156 254.765625 L 663.574219 254.765625 C 666.394531 254.765625 669.214844 256.644531 669.214844 260.40625 C 669.214844 263.230469 666.394531 266.050781 663.574219 266.050781 Z M 712.492188 266.050781 C 709.671875 266.050781 706.851562 263.230469 706.851562 260.40625 C 706.851562 256.644531 709.671875 254.765625 712.492188 254.765625 L 742.601562 254.765625 C 745.421875 254.765625 748.242188 256.644531 748.242188 260.40625 C 748.242188 263.230469 745.421875 266.050781 742.601562 266.050781 Z M 712.492188 266.050781 " fill-opacity="1" fill-rule="nonzero"/><g clip-path="url(#da82abacbf)"><path fill="#d83951" d="M 802.761719 520.753906 L 97.210938 520.753906 C 52.984375 520.753906 16.304688 484.0625 16.304688 439.851562 C 16.304688 395.636719 52.984375 358.945312 97.210938 358.945312 L 802.761719 358.945312 C 846.972656 358.945312 883.667969 395.636719 883.667969 439.851562 C 883.667969 484.0625 846.972656 520.753906 802.761719 520.753906 Z M 872.371094 439.851562 C 872.371094 400.335938 842.265625 370.238281 802.761719 370.238281 L 97.210938 370.238281 C 57.695312 370.238281 27.597656 400.347656 27.597656 439.851562 C 27.597656 479.351562 57.695312 509.472656 97.210938 509.472656 L 802.761719 509.472656 C 842.277344 509.472656 872.371094 479.363281 872.371094 439.859375 Z M 872.371094 439.851562 " fill-opacity="1" fill-rule="nonzero"/></g><path fill="#d83951" d="M 74.675781 469.957031 C 74.675781 467.136719 75.621094 465.25 76.554688 463.371094 L 88.78125 439.851562 L 76.554688 416.328125 C 75.609375 414.449219 74.675781 413.507812 74.675781 410.6875 C 74.675781 405.976562 78.441406 402.222656 83.136719 402.222656 C 85.015625 402.222656 86.902344 403.167969 88.78125 405.042969 L 117 433.265625 C 118.878906 436.085938 120.765625 437.027344 120.765625 439.851562 C 120.765625 443.613281 118.886719 444.558594 117 447.378906 L 88.78125 475.597656 C 86.902344 476.542969 85.015625 477.476562 83.136719 477.476562 C 78.429688 477.476562 74.675781 474.65625 74.675781 469.945312 Z M 767.058594 469.957031 C 767.058594 467.136719 768 465.25 768.933594 463.371094 L 781.160156 439.851562 L 768.933594 416.328125 C 767.988281 414.449219 767.058594 413.507812 767.058594 410.6875 C 767.058594 405.976562 770.820312 402.222656 775.519531 402.222656 C 777.394531 402.222656 779.285156 403.167969 781.160156 405.042969 L 809.382812 433.265625 C 811.257812 436.085938 813.144531 437.027344 813.144531 439.851562 C 813.144531 443.613281 811.269531 444.558594 809.382812 447.378906 L 781.160156 475.597656 C 779.285156 476.542969 777.398438 477.476562 775.519531 477.476562 C 770.820312 477.476562 767.058594 474.65625 767.058594 469.945312 Z M 163.101562 445.492188 C 160.28125 445.492188 157.457031 442.671875 157.457031 439.851562 C 157.457031 436.085938 160.28125 434.207031 163.101562 434.207031 L 192.265625 434.207031 C 196.03125 434.207031 197.90625 436.085938 197.90625 439.851562 C 197.90625 442.671875 196.03125 445.492188 192.265625 445.492188 Z M 271.28125 445.492188 L 241.175781 445.492188 C 238.351562 445.492188 235.53125 442.671875 235.53125 439.851562 C 235.53125 436.085938 238.351562 434.207031 241.175781 434.207031 L 271.28125 434.207031 C 274.101562 434.207031 276.925781 436.085938 276.925781 439.851562 C 276.925781 442.671875 274.101562 445.492188 271.28125 445.492188 Z M 320.203125 445.492188 C 317.382812 445.492188 314.5625 442.671875 314.5625 439.851562 C 314.5625 436.085938 317.382812 434.207031 320.203125 434.207031 L 349.367188 434.207031 C 353.132812 434.207031 355.007812 436.085938 355.007812 439.851562 C 355.007812 442.671875 353.132812 445.492188 349.367188 445.492188 Z M 398.289062 445.492188 C 395.46875 445.492188 392.648438 442.671875 392.648438 439.851562 C 392.648438 436.085938 395.46875 434.207031 398.289062 434.207031 L 428.394531 434.207031 C 431.21875 434.207031 434.039062 436.085938 434.039062 439.851562 C 434.039062 442.671875 431.21875 445.492188 428.394531 445.492188 Z M 477.304688 445.492188 C 474.484375 445.492188 471.664062 442.671875 471.664062 439.851562 C 471.664062 436.085938 474.484375 434.207031 477.304688 434.207031 L 506.46875 434.207031 C 510.234375 434.207031 512.113281 436.085938 512.113281 439.851562 C 512.113281 442.671875 510.234375 445.492188 506.46875 445.492188 Z M 555.390625 445.492188 C 552.570312 445.492188 549.75 442.671875 549.75 439.851562 C 549.75 436.085938 552.570312 434.207031 555.390625 434.207031 L 585.5 434.207031 C 588.320312 434.207031 591.140625 436.085938 591.140625 439.851562 C 591.140625 442.671875 588.320312 445.492188 585.5 445.492188 Z M 634.410156 445.492188 C 631.589844 445.492188 628.765625 442.671875 628.765625 439.851562 C 628.765625 436.085938 631.589844 434.207031 634.410156 434.207031 L 663.574219 434.207031 C 666.394531 434.207031 669.214844 436.085938 669.214844 439.851562 C 669.214844 442.671875 666.394531 445.492188 663.574219 445.492188 Z M 712.492188 445.492188 C 709.671875 445.492188 706.851562 442.671875 706.851562 439.851562 C 706.851562 436.085938 709.671875 434.207031 712.492188 434.207031 L 742.601562 434.207031 C 745.421875 434.207031 748.242188 436.085938 748.242188 439.851562 C 748.242188 442.671875 745.421875 445.492188 742.601562 445.492188 Z M 712.492188 445.492188 " fill-opacity="1" fill-rule="nonzero"/><g clip-path="url(#76b385c8af)"><path fill="#d83951" d="M 802.761719 700.199219 L 97.210938 700.199219 C 52.984375 700.199219 16.304688 663.503906 16.304688 619.292969 C 16.304688 575.078125 52.984375 538.386719 97.210938 538.386719 L 802.761719 538.386719 C 846.972656 538.386719 883.667969 575.078125 883.667969 619.292969 C 883.667969 663.503906 846.972656 700.199219 802.761719 700.199219 Z M 872.371094 619.292969 C 872.371094 579.777344 842.265625 549.679688 802.761719 549.679688 L 97.210938 549.679688 C 57.695312 549.679688 27.597656 579.789062 27.597656 619.292969 C 27.597656 658.792969 57.695312 688.914062 97.210938 688.914062 L 802.761719 688.914062 C 842.277344 688.914062 872.371094 658.804688 872.371094 619.304688 Z M 872.371094 619.292969 " fill-opacity="1" fill-rule="nonzero"/></g><path fill="#d83951" d="M 74.675781 649.398438 C 74.675781 646.578125 75.621094 644.691406 76.554688 642.8125 L 88.78125 619.292969 L 76.554688 595.769531 C 75.609375 593.890625 74.675781 592.949219 74.675781 590.128906 C 74.675781 585.417969 78.441406 581.664062 83.136719 581.664062 C 85.015625 581.664062 86.902344 582.609375 88.78125 584.484375 L 117 612.707031 C 118.878906 615.527344 120.765625 616.46875 120.765625 619.292969 C 120.765625 623.054688 118.886719 624 117 626.820312 L 88.78125 655.042969 C 86.902344 655.984375 85.015625 656.917969 83.136719 656.917969 C 78.429688 656.917969 74.675781 654.097656 74.675781 649.386719 Z M 767.058594 649.398438 C 767.058594 646.578125 768 644.691406 768.933594 642.8125 L 781.160156 619.292969 L 768.933594 595.769531 C 767.988281 593.890625 767.058594 592.949219 767.058594 590.128906 C 767.058594 585.417969 770.820312 581.664062 775.519531 581.664062 C 777.394531 581.664062 779.285156 582.609375 781.160156 584.484375 L 809.382812 612.707031 C 811.257812 615.527344 813.144531 616.46875 813.144531 619.292969 C 813.144531 623.054688 811.269531 624 809.382812 626.820312 L 781.160156 655.042969 C 779.285156 655.984375 777.398438 656.917969 775.519531 656.917969 C 770.820312 656.917969 767.058594 654.097656 767.058594 649.386719 Z M 163.101562 624.933594 C 160.28125 624.933594 157.457031 622.113281 157.457031 619.292969 C 157.457031 615.527344 160.28125 613.648438 163.101562 613.648438 L 192.265625 613.648438 C 196.03125 613.648438 197.90625 615.527344 197.90625 619.292969 C 197.90625 622.113281 196.03125 624.933594 192.265625 624.933594 Z M 271.28125 624.933594 L 241.175781 624.933594 C 238.351562 624.933594 235.53125 622.113281 235.53125 619.292969 C 235.53125 615.527344 238.351562 613.648438 241.175781 613.648438 L 271.28125 613.648438 C 274.101562 613.648438 276.925781 615.527344 276.925781 619.292969 C 276.925781 622.113281 274.101562 624.933594 271.28125 624.933594 Z M 320.203125 624.933594 C 317.382812 624.933594 314.5625 622.113281 314.5625 619.292969 C 314.5625 615.527344 317.382812 613.648438 320.203125 613.648438 L 349.367188 613.648438 C 353.132812 613.648438 355.007812 615.527344 355.007812 619.292969 C 355.007812 622.113281 353.132812 624.933594 349.367188 624.933594 Z M 398.289062 624.933594 C 395.46875 624.933594 392.648438 622.113281 392.648438 619.292969 C 392.648438 615.527344 395.46875 613.648438 398.289062 613.648438 L 428.394531 613.648438 C 431.21875 613.648438 434.039062 615.527344 434.039062 619.292969 C 434.039062 622.113281 431.21875 624.933594 428.394531 624.933594 Z M 477.304688 624.933594 C 474.484375 624.933594 471.664062 622.113281 471.664062 619.292969 C 471.664062 615.527344 474.484375 613.648438 477.304688 613.648438 L 506.46875 613.648438 C 510.234375 613.648438 512.113281 615.527344 512.113281 619.292969 C 512.113281 622.113281 510.234375 624.933594 506.46875 624.933594 Z M 555.390625 624.933594 C 552.570312 624.933594 549.75 622.113281 549.75 619.292969 C 549.75 615.527344 552.570312 613.648438 555.390625 613.648438 L 585.5 613.648438 C 588.320312 613.648438 591.140625 615.527344 591.140625 619.292969 C 591.140625 622.113281 588.320312 624.933594 585.5 624.933594 Z M 634.410156 624.933594 C 631.589844 624.933594 628.765625 622.113281 628.765625 619.292969 C 628.765625 615.527344 631.589844 613.648438 634.410156 613.648438 L 663.574219 613.648438 C 666.394531 613.648438 669.214844 615.527344 669.214844 619.292969 C 669.214844 622.113281 666.394531 624.933594 663.574219 624.933594 Z M 712.492188 624.933594 C 709.671875 624.933594 706.851562 622.113281 706.851562 619.292969 C 706.851562 615.527344 709.671875 613.648438 712.492188 613.648438 L 742.601562 613.648438 C 745.421875 613.648438 748.242188 615.527344 748.242188 619.292969 C 748.242188 622.113281 745.421875 624.933594 742.601562 624.933594 Z M 712.492188 624.933594 " fill-opacity="1" fill-rule="nonzero"/><g clip-path="url(#8b3954e94b)"><path fill="#d83951" d="M 802.761719 879.640625 L 97.210938 879.640625 C 52.984375 879.640625 16.304688 842.945312 16.304688 798.734375 C 16.304688 754.519531 52.984375 717.828125 97.210938 717.828125 L 802.761719 717.828125 C 846.972656 717.828125 883.667969 754.519531 883.667969 798.734375 C 883.667969 842.945312 846.972656 879.640625 802.761719 879.640625 Z M 872.371094 798.734375 C 872.371094 759.21875 842.265625 729.121094 802.761719 729.121094 L 97.210938 729.121094 C 57.695312 729.121094 27.597656 759.230469 27.597656 798.734375 C 27.597656 838.238281 57.695312 868.355469 97.210938 868.355469 L 802.761719 868.355469 C 842.277344 868.355469 872.371094 838.246094 872.371094 798.746094 Z M 872.371094 798.734375 " fill-opacity="1" fill-rule="nonzero"/></g><path fill="#d83951" d="M 74.675781 828.839844 C 74.675781 826.019531 75.621094 824.132812 76.554688 822.253906 L 88.78125 798.734375 L 76.554688 775.210938 C 75.609375 773.335938 74.675781 772.390625 74.675781 769.570312 C 74.675781 764.859375 78.441406 761.105469 83.136719 761.105469 C 85.015625 761.105469 86.902344 762.050781 88.78125 763.929688 L 117 792.148438 C 118.878906 794.96875 120.765625 795.914062 120.765625 798.734375 C 120.765625 802.5 118.886719 803.441406 117 806.261719 L 88.78125 834.484375 C 86.902344 835.425781 85.015625 836.359375 83.136719 836.359375 C 78.429688 836.359375 74.675781 833.539062 74.675781 828.828125 Z M 767.058594 828.839844 C 767.058594 826.019531 768 824.132812 768.933594 822.253906 L 781.160156 798.734375 L 768.933594 775.210938 C 767.988281 773.335938 767.058594 772.390625 767.058594 769.570312 C 767.058594 764.859375 770.820312 761.105469 775.519531 761.105469 C 777.394531 761.105469 779.285156 762.050781 781.160156 763.929688 L 809.382812 792.148438 C 811.257812 794.96875 813.144531 795.914062 813.144531 798.734375 C 813.144531 802.5 811.269531 803.441406 809.382812 806.261719 L 781.160156 834.484375 C 779.285156 835.425781 777.398438 836.359375 775.519531 836.359375 C 770.820312 836.359375 767.058594 833.539062 767.058594 828.828125 Z M 163.101562 804.375 C 160.28125 804.375 157.457031 801.554688 157.457031 798.734375 C 157.457031 794.96875 160.28125 793.089844 163.101562 793.089844 L 192.265625 793.089844 C 196.03125 793.089844 197.90625 794.96875 197.90625 798.734375 C 197.90625 801.554688 196.03125 804.375 192.265625 804.375 Z M 271.28125 804.375 L 241.175781 804.375 C 238.351562 804.375 235.53125 801.554688 235.53125 798.734375 C 235.53125 794.96875 238.351562 793.089844 241.175781 793.089844 L 271.28125 793.089844 C 274.101562 793.089844 276.925781 794.96875 276.925781 798.734375 C 276.925781 801.554688 274.101562 804.375 271.28125 804.375 Z M 320.203125 804.375 C 317.382812 804.375 314.5625 801.554688 314.5625 798.734375 C 314.5625 794.96875 317.382812 793.089844 320.203125 793.089844 L 349.367188 793.089844 C 353.132812 793.089844 355.007812 794.96875 355.007812 798.734375 C 355.007812 801.554688 353.132812 804.375 349.367188 804.375 Z M 398.289062 804.375 C 395.46875 804.375 392.648438 801.554688 392.648438 798.734375 C 392.648438 794.96875 395.46875 793.089844 398.289062 793.089844 L 428.394531 793.089844 C 431.21875 793.089844 434.039062 794.96875 434.039062 798.734375 C 434.039062 801.554688 431.21875 804.375 428.394531 804.375 Z M 477.304688 804.375 C 474.484375 804.375 471.664062 801.554688 471.664062 798.734375 C 471.664062 794.96875 474.484375 793.089844 477.304688 793.089844 L 506.46875 793.089844 C 510.234375 793.089844 512.113281 794.96875 512.113281 798.734375 C 512.113281 801.554688 510.234375 804.375 506.46875 804.375 Z M 555.390625 804.375 C 552.570312 804.375 549.75 801.554688 549.75 798.734375 C 549.75 794.96875 552.570312 793.089844 555.390625 793.089844 L 585.5 793.089844 C 588.320312 793.089844 591.140625 794.96875 591.140625 798.734375 C 591.140625 801.554688 588.320312 804.375 585.5 804.375 Z M 634.410156 804.375 C 631.589844 804.375 628.765625 801.554688 628.765625 798.734375 C 628.765625 794.96875 631.589844 793.089844 634.410156 793.089844 L 663.574219 793.089844 C 666.394531 793.089844 669.214844 794.96875 669.214844 798.734375 C 669.214844 801.554688 666.394531 804.375 663.574219 804.375 Z M 712.492188 804.375 C 709.671875 804.375 706.851562 801.554688 706.851562 798.734375 C 706.851562 794.96875 709.671875 793.089844 712.492188 793.089844 L 742.601562 793.089844 C 745.421875 793.089844 748.242188 794.96875 748.242188 798.734375 C 748.242188 801.554688 745.421875 804.375 742.601562 804.375 Z M 712.492188 804.375 " fill-opacity="1" fill-rule="nonzero"/></svg>