<svg xmlns="http://www.w3.org/2000/svg" xmlns:xlink="http://www.w3.org/1999/xlink" width="794" zoomAndPan="magnify" viewBox="0 0 594.95996 842.24997" height="1123" preserveAspectRatio="xMidYMid meet" version="1.0"><defs><clipPath id="7b4a3af81f"><path d="M 51.496094 136.3125 L 543.808594 136.3125 L 543.808594 705 L 51.496094 705 Z M 51.496094 136.3125 " clip-rule="nonzero"/></clipPath></defs><g clip-path="url(#7b4a3af81f)"><path fill="#231f20" d="M 51.496094 420.691406 C 51.496094 221.25 158.5 136.433594 298.253906 136.433594 C 438.011719 136.433594 543.839844 255.164062 543.839844 420.691406 C 543.839844 586.21875 438.003906 704.945312 298.253906 704.945312 C 158.507812 704.945312 51.496094 585.050781 51.496094 420.691406 Z M 298.253906 697.929688 C 434.5 697.929688 536.824219 583.289062 536.824219 420.691406 C 536.824219 258.089844 434.5 143.453125 298.253906 143.453125 C 162.011719 143.453125 58.511719 225.339844 58.511719 420.691406 C 58.511719 582.125 160.261719 697.929688 298.253906 697.929688 Z M 298.253906 247.566406 C 382.460938 247.566406 432.746094 306.054688 432.746094 420.699219 C 432.746094 535.347656 382.460938 593.832031 298.253906 593.832031 C 214.050781 593.832031 162.601562 534.757812 162.601562 420.699219 C 162.601562 306.640625 213.472656 247.570312 298.253906 247.570312 Z M 298.253906 586.804688 C 378.359375 586.804688 425.730469 532.410156 425.730469 420.691406 C 425.730469 308.972656 378.367188 254.578125 298.253906 254.578125 C 218.144531 254.578125 169.617188 309.558594 169.617188 420.691406 C 169.617188 531.824219 217.566406 586.804688 298.253906 586.804688 Z M 298.253906 586.804688 " fill-opacity="1" fill-rule="nonzero"/></g><path fill="#231f20" d="M 92.855469 403.148438 C 94.609375 403.148438 95.78125 403.738281 96.945312 404.316406 L 111.566406 411.921875 L 126.1875 404.316406 C 127.351562 403.726562 127.9375 403.148438 129.691406 403.148438 C 132.613281 403.148438 134.953125 405.488281 134.953125 408.414062 C 134.953125 409.589844 134.367188 410.753906 133.203125 411.929688 L 115.65625 429.476562 C 113.90625 430.652344 113.316406 431.816406 111.566406 431.816406 C 109.226562 431.816406 108.640625 430.652344 106.890625 429.476562 L 89.34375 411.929688 C 88.757812 410.761719 88.171875 409.589844 88.171875 408.414062 C 88.171875 405.488281 89.921875 403.148438 92.847656 403.148438 Z M 113.328125 454.027344 C 115.078125 453.441406 116.832031 455.195312 116.832031 456.957031 C 118.003906 462.808594 118.582031 468.652344 119.757812 473.917969 C 119.757812 476.257812 118.589844 478.011719 116.832031 478.011719 L 116.242188 478.011719 C 114.492188 478.011719 113.316406 476.835938 112.730469 475.082031 C 111.566406 469.816406 110.980469 463.972656 109.804688 457.535156 C 109.804688 455.78125 110.980469 454.03125 113.316406 454.03125 Z M 112.738281 363.371094 C 113.328125 361.621094 115.078125 360.445312 116.832031 361.03125 C 119.167969 361.03125 120.34375 362.785156 119.757812 365.125 C 118.589844 370.390625 118.003906 376.234375 117.417969 382.085938 C 116.832031 383.839844 115.664062 385.011719 113.90625 385.011719 L 113.316406 385.011719 C 111.566406 385.011719 109.804688 383.261719 110.394531 380.921875 C 110.980469 375.078125 112.144531 369.222656 112.730469 363.371094 Z M 125.605469 317.75 C 126.195312 315.996094 128.53125 315.410156 130.285156 315.996094 C 132.035156 316.585938 132.625 318.921875 132.035156 320.675781 L 126.773438 337.050781 C 126.1875 338.226562 125.019531 339.390625 123.261719 339.390625 L 122.09375 339.390625 C 120.34375 338.804688 119.167969 336.464844 119.757812 334.710938 C 121.507812 328.859375 123.269531 323.601562 125.605469 317.75 Z M 122.09375 499.652344 C 123.847656 499.066406 125.597656 500.238281 126.1875 501.992188 C 127.9375 507.84375 129.691406 513.101562 132.027344 518.367188 C 132.613281 520.117188 131.441406 522.457031 129.691406 523.046875 L 128.515625 523.046875 C 127.351562 523.046875 125.589844 522.457031 125.011719 520.707031 L 119.746094 504.332031 C 119.160156 501.992188 120.335938 500.238281 122.085938 499.652344 Z M 139.054688 543.519531 C 140.804688 542.347656 142.566406 542.933594 143.730469 544.695312 C 146.070312 549.960938 148.996094 554.640625 152.5 559.316406 C 153.085938 561.070312 153.085938 563.410156 151.324219 564.582031 C 150.738281 564.582031 150.160156 565.171875 149.574219 565.171875 C 148.398438 565.171875 147.234375 564.582031 146.648438 563.417969 C 143.136719 558.738281 140.21875 553.472656 137.292969 548.207031 C 136.707031 546.457031 137.292969 544.117188 139.042969 543.53125 Z M 153.085938 279.734375 C 149.582031 284.410156 146.65625 289.089844 144.316406 294.355469 C 143.730469 295.523438 141.976562 296.109375 140.8125 296.109375 C 140.226562 296.109375 139.640625 296.109375 139.640625 295.523438 C 137.886719 294.933594 136.714844 292.59375 137.886719 290.84375 C 140.8125 285.578125 143.730469 280.898438 147.242188 275.632812 C 147.828125 273.878906 150.167969 273.878906 151.921875 274.457031 C 153.671875 275.632812 153.671875 277.972656 153.09375 279.722656 Z M 164.777344 582.125 C 165.953125 580.953125 168.292969 580.953125 169.457031 582.710938 C 172.960938 586.804688 177.058594 590.902344 181.152344 594.996094 C 182.902344 596.167969 182.902344 598.507812 181.738281 599.675781 C 180.5625 600.839844 179.984375 600.839844 178.8125 600.839844 C 178.226562 600.839844 177.058594 600.839844 176.472656 600.253906 L 164.191406 587.382812 C 163.019531 585.628906 163.019531 583.289062 164.777344 582.117188 Z M 177.058594 239.375 C 178.8125 237.625 181.152344 238.203125 182.324219 239.375 C 183.488281 240.542969 183.488281 242.882812 182.324219 244.054688 C 178.234375 248.148438 174.132812 252.246094 170.042969 256.925781 C 169.457031 257.511719 168.292969 258.089844 167.703125 258.089844 C 166.539062 258.089844 165.953125 257.503906 165.367188 256.925781 C 163.613281 255.753906 163.613281 253.414062 164.777344 252.246094 C 168.871094 247.566406 172.96875 243.476562 177.058594 239.375 Z M 203.371094 613.125 L 217.992188 621.894531 C 219.742188 622.480469 220.917969 624.820312 219.742188 626.574219 C 219.15625 627.746094 217.992188 628.324219 216.820312 628.324219 C 216.230469 628.324219 215.644531 628.324219 215.066406 627.738281 C 209.800781 625.398438 204.539062 621.886719 199.859375 618.96875 C 198.109375 617.804688 197.523438 615.464844 198.6875 613.703125 C 199.859375 611.949219 202.199219 611.949219 203.363281 613.117188 Z M 200.445312 220.660156 C 205.710938 217.148438 210.976562 214.230469 215.652344 211.304688 C 217.40625 210.71875 219.742188 211.304688 220.917969 213.054688 C 221.503906 214.808594 220.917969 216.570312 219.164062 217.734375 L 204.546875 226.503906 C 203.960938 227.09375 203.371094 227.09375 202.792969 227.09375 C 201.628906 227.09375 200.457031 226.503906 199.867188 225.339844 C 198.695312 224.167969 198.695312 221.828125 200.457031 220.660156 Z M 244.304688 633.003906 C 250.148438 634.757812 255.414062 636.519531 261.261719 637.683594 C 263.015625 638.269531 264.1875 640.023438 263.601562 641.773438 C 263.601562 643.527344 261.851562 644.703125 260.097656 644.703125 L 259.511719 644.703125 C 253.660156 642.949219 247.816406 641.773438 242.554688 639.4375 C 240.214844 638.847656 239.628906 637.097656 240.214844 635.34375 C 240.800781 633.589844 242.554688 632.417969 244.304688 633.003906 Z M 243.140625 200.183594 C 248.992188 198.433594 254.832031 196.671875 260.683594 195.507812 C 262.4375 194.917969 264.195312 196.09375 264.777344 197.847656 C 265.363281 200.183594 264.1875 201.9375 261.851562 201.9375 C 256.585938 203.101562 250.742188 204.863281 245.480469 206.617188 L 244.3125 206.617188 C 243.140625 206.617188 241.386719 206.03125 241.386719 204.277344 C 240.800781 202.523438 241.386719 200.765625 243.140625 200.183594 Z M 299.855469 172.113281 C 312.136719 172.113281 322.65625 182.644531 322.65625 195.507812 C 322.65625 208.367188 312.128906 218.902344 299.855469 218.902344 C 287.585938 218.902344 275.882812 207.789062 275.882812 195.507812 C 275.882812 183.222656 286.988281 172.113281 299.855469 172.113281 Z M 282.898438 660.5 L 290.5 645.875 L 282.898438 631.253906 C 282.3125 630.078125 281.726562 629.5 281.726562 627.738281 C 281.726562 624.8125 284.0625 622.472656 286.988281 622.472656 C 288.164062 622.472656 289.328125 623.058594 290.5 624.226562 L 308.046875 641.773438 C 309.210938 643.527344 310.386719 644.113281 310.386719 645.867188 C 310.386719 648.207031 309.210938 648.792969 308.046875 650.546875 L 290.5 668.09375 C 289.328125 668.683594 288.164062 669.269531 286.988281 669.269531 C 284.0625 669.269531 281.726562 667.515625 281.726562 664.589844 C 281.726562 662.839844 282.3125 661.664062 282.898438 660.5 Z M 292.839844 190.828125 C 293.425781 190.828125 294.59375 190.828125 295.179688 190.242188 L 297.519531 188.488281 L 297.519531 208.957031 C 297.519531 210.128906 298.691406 211.882812 300.445312 211.882812 C 302.195312 211.882812 303.367188 210.128906 303.367188 208.957031 L 303.367188 183.222656 C 303.367188 181.46875 302.195312 179.710938 300.445312 179.710938 C 299.855469 179.710938 299.277344 180.296875 298.105469 180.882812 L 291.089844 185.5625 C 290.5 186.148438 289.914062 187.316406 289.914062 187.902344 C 289.914062 190.242188 291.089844 190.828125 292.839844 190.828125 Z M 334.9375 638.269531 C 340.78125 637.105469 346.046875 635.34375 351.308594 633.589844 C 353.648438 633.003906 355.398438 634.179688 355.988281 635.929688 C 356.574219 637.683594 355.398438 639.445312 353.648438 640.023438 C 347.796875 642.363281 341.953125 643.535156 336.101562 644.703125 L 335.515625 644.703125 C 333.765625 644.703125 332.589844 643.535156 332.003906 642.363281 C 332.003906 640.023438 333.167969 638.269531 334.929688 638.269531 Z M 337.863281 194.929688 L 358.914062 182.644531 C 360.078125 182.058594 361.25 182.058594 362.425781 182.058594 C 365.351562 182.644531 367.101562 184.984375 366.515625 187.902344 C 365.929688 189.652344 365.34375 190.828125 364.761719 191.414062 L 353.65625 203.699219 L 357.746094 220.074219 C 357.746094 221.238281 358.335938 221.828125 357.746094 223.585938 C 357.160156 226.515625 354.234375 228.265625 351.316406 227.679688 C 350.144531 227.09375 348.980469 226.503906 348.390625 224.753906 L 335.523438 203.699219 C 334.9375 201.945312 333.773438 200.773438 334.351562 199.019531 C 334.9375 196.679688 336.101562 196.679688 337.863281 194.929688 Z M 377.621094 622.480469 C 382.886719 620.140625 387.5625 617.214844 392.828125 613.710938 C 394.003906 612.535156 396.332031 613.125 397.507812 614.875 C 398.679688 616.628906 398.09375 618.390625 396.332031 619.554688 C 391.65625 623.058594 386.390625 625.988281 381.125 628.914062 L 379.375 628.914062 C 378.210938 628.914062 377.035156 628.324219 376.449219 627.160156 C 375.285156 625.40625 375.863281 623.65625 377.621094 622.480469 Z M 382.886719 211.890625 C 388.152344 214.816406 392.828125 217.742188 398.09375 221.25 C 399.257812 222.421875 399.84375 224.761719 398.679688 225.925781 C 398.09375 227.09375 396.925781 227.679688 395.753906 227.679688 C 395.167969 227.679688 394.589844 227.679688 394.003906 227.09375 C 389.324219 223.585938 384.058594 220.660156 379.382812 218.320312 C 377.628906 217.148438 377.042969 215.394531 377.628906 213.644531 C 378.804688 211.890625 381.144531 211.304688 382.894531 211.890625 Z M 415.050781 596.160156 C 419.140625 592.070312 423.242188 587.96875 426.746094 583.878906 C 427.910156 582.125 430.257812 582.125 432.007812 583.289062 C 433.183594 584.464844 433.183594 586.804688 432.007812 588.554688 C 428.503906 592.648438 423.820312 597.328125 419.726562 601.425781 C 419.140625 602.015625 417.976562 602.015625 417.390625 602.015625 C 416.214844 602.015625 415.636719 602.015625 415.050781 600.839844 C 413.300781 599.675781 413.300781 597.328125 415.050781 596.160156 Z M 416.214844 239.964844 C 417.390625 238.789062 419.726562 238.789062 420.894531 239.964844 C 425.570312 244.054688 429.660156 248.734375 433.175781 252.835938 C 434.339844 254.585938 434.339844 256.925781 433.175781 258.101562 C 432.585938 258.6875 431.421875 258.6875 430.835938 258.6875 C 429.671875 258.6875 428.496094 258.6875 427.910156 257.519531 C 424.40625 253.429688 420.308594 249.328125 416.214844 245.238281 C 415.050781 244.0625 414.464844 241.722656 416.214844 239.972656 Z M 453.058594 545.859375 C 453.644531 544.109375 455.984375 543.519531 457.734375 544.695312 C 459.488281 545.28125 460.074219 547.621094 458.898438 549.375 C 456.5625 554.640625 453.058594 559.90625 450.132812 564.582031 C 449.546875 565.75 448.378906 566.335938 447.207031 566.335938 C 446.621094 566.335938 446.042969 566.335938 445.453125 565.75 C 443.703125 564.582031 443.117188 562.246094 444.28125 561.070312 L 453.050781 545.859375 Z M 446.042969 275.640625 C 447.792969 274.46875 450.132812 275.054688 451.304688 276.816406 L 460.074219 292.023438 C 460.660156 293.777344 460.074219 296.117188 458.320312 297.289062 L 456.570312 297.289062 C 455.394531 297.289062 454.230469 296.703125 453.644531 295.539062 C 451.304688 290.273438 448.378906 285.59375 444.875 280.914062 C 444.289062 279.164062 444.289062 276.824219 446.050781 275.648438 Z M 464.164062 423.03125 L 481.710938 405.480469 C 483.460938 404.308594 484.046875 403.140625 485.800781 403.140625 C 488.140625 403.140625 488.726562 404.308594 490.476562 405.480469 L 508.023438 423.03125 C 508.609375 424.195312 509.1875 425.371094 509.1875 426.542969 C 509.1875 429.46875 507.4375 431.808594 504.511719 431.808594 C 502.757812 431.808594 501.585938 431.222656 500.417969 430.644531 L 485.800781 423.039062 L 471.179688 430.644531 C 470.015625 431.230469 469.429688 431.808594 467.675781 431.808594 C 464.75 431.808594 462.414062 429.46875 462.414062 426.542969 C 462.414062 425.371094 463 424.203125 464.164062 423.03125 Z M 470.59375 503.164062 C 471.179688 501.414062 472.933594 500.824219 474.683594 500.824219 C 476.4375 501.414062 477.609375 503.75 477.023438 505.503906 C 475.273438 511.355469 473.511719 516.613281 471.171875 522.464844 C 470.585938 523.640625 469.421875 524.804688 468.246094 524.804688 C 467.660156 524.804688 467.074219 524.21875 467.074219 524.21875 C 465.320312 523.632812 464.148438 521.878906 464.734375 519.539062 C 467.074219 514.273438 468.824219 509.007812 470.578125 503.164062 Z M 467.675781 317.164062 C 469.429688 316.574219 471.179688 317.75 471.769531 319.503906 C 474.105469 324.769531 475.859375 330.613281 477.617188 336.464844 C 478.207031 338.21875 477.03125 339.976562 475.28125 340.558594 L 474.113281 340.558594 C 472.949219 340.558594 471.1875 339.96875 470.601562 338.21875 C 469.4375 332.363281 467.675781 327.105469 465.339844 321.839844 C 464.75 320.089844 465.925781 317.75 467.675781 317.164062 Z M 479.957031 458.128906 C 479.957031 456.378906 481.710938 455.203125 483.46875 455.203125 C 485.808594 455.789062 486.972656 457.542969 486.972656 459.296875 C 485.808594 465.148438 485.222656 470.992188 484.046875 476.84375 C 484.046875 478.597656 482.296875 479.769531 480.542969 479.769531 L 479.957031 479.769531 C 478.207031 479.183594 477.03125 477.429688 477.03125 475.679688 C 478.195312 469.828125 479.371094 463.980469 479.957031 458.128906 Z M 480.535156 362.207031 C 482.289062 361.621094 484.039062 363.378906 484.625 365.132812 C 485.214844 370.984375 486.378906 376.828125 486.964844 382.683594 C 486.964844 384.433594 485.800781 386.195312 484.039062 386.195312 L 483.453125 386.78125 C 481.699219 386.78125 479.941406 385.03125 479.941406 383.277344 C 479.355469 377.425781 478.1875 372.167969 477.601562 366.316406 C 477.015625 364.5625 478.1875 362.800781 480.527344 362.222656 Z M 480.535156 362.207031 " fill-opacity="1" fill-rule="nonzero"/></svg>