<svg xmlns="http://www.w3.org/2000/svg" xmlns:xlink="http://www.w3.org/1999/xlink" width="2400" zoomAndPan="magnify" viewBox="0 0 1800 1199.999942" height="1600" preserveAspectRatio="xMidYMid meet" version="1.0"><defs><clipPath id="7b8d415e69"><path d="M 921.230469 506.023438 L 992.199219 506.023438 L 992.199219 576.992188 L 921.230469 576.992188 Z M 921.230469 506.023438 " clip-rule="nonzero"/></clipPath><clipPath id="548de23914"><path d="M 956.714844 506.023438 C 937.117188 506.023438 921.230469 521.910156 921.230469 541.507812 C 921.230469 561.105469 937.117188 576.992188 956.714844 576.992188 C 976.3125 576.992188 992.199219 561.105469 992.199219 541.507812 C 992.199219 521.910156 976.3125 506.023438 956.714844 506.023438 Z M 956.714844 506.023438 " clip-rule="nonzero"/></clipPath></defs><path stroke-linecap="butt" transform="matrix(0.75, 0, 0, 0.75, 707.80954, -100.026573)" fill="none" stroke-linejoin="miter" d="M 269.60293 399.155258 L 414.826901 399.155258 L 414.826901 1332.999091 L 241.602927 1332.999091 L 241.602927 537.863603 L 56.654994 578.238607 L 44.936243 442.78547 Z M 269.60293 399.155258 " stroke="#e45828" stroke-width="21.672462" stroke-opacity="1" stroke-miterlimit="4"/><g clip-path="url(#7b8d415e69)"><g clip-path="url(#548de23914)"><path stroke-linecap="butt" transform="matrix(0.75, 0, 0, 0.75, 921.230769, 506.025175)" fill="none" stroke-linejoin="miter" d="M 47.312104 -0.00231617 C 21.181894 -0.00231617 -0.000399795 21.179977 -0.000399795 47.310188 C -0.000399795 73.440399 21.181894 94.622692 47.312104 94.622692 C 73.442315 94.622692 94.624609 73.440399 94.624609 47.310188 C 94.624609 21.179977 73.442315 -0.00231617 47.312104 -0.00231617 Z M 47.312104 -0.00231617 " stroke="#e45828" stroke-width="20" stroke-opacity="1" stroke-miterlimit="4"/></g></g></svg>