<svg xmlns="http://www.w3.org/2000/svg" xmlns:xlink="http://www.w3.org/1999/xlink" width="800" zoomAndPan="magnify" viewBox="0 0 600 899.99999" height="1200" preserveAspectRatio="xMidYMid meet" version="1.0"><defs><clipPath id="085275c298"><path d="M 320.179688 420 L 380.179688 420 L 380.179688 480 L 320.179688 480 Z M 320.179688 420 " clip-rule="nonzero"/></clipPath><clipPath id="ba4b8fc0dd"><path d="M 350.179688 420 C 333.609375 420 320.179688 433.429688 320.179688 450 C 320.179688 466.570312 333.609375 480 350.179688 480 C 366.746094 480 380.179688 466.570312 380.179688 450 C 380.179688 433.429688 366.746094 420 350.179688 420 Z M 350.179688 420 " clip-rule="nonzero"/></clipPath></defs><path stroke-linecap="butt" transform="matrix(0.656476, 0, 0, 0.656476, 131.775378, -162.820635)" fill="none" stroke-linejoin="miter" d="M 269.600519 399.154537 L 414.824258 399.154537 L 414.824258 1332.999233 L 241.598269 1332.999233 L 241.598269 537.862666 L 56.656081 578.241601 L 44.933932 442.788303 Z M 269.600519 399.154537 " stroke="#e45828" stroke-width="21.672462" stroke-opacity="1" stroke-miterlimit="4"/><g clip-path="url(#085275c298)"><g clip-path="url(#ba4b8fc0dd)"><path stroke-linecap="butt" transform="matrix(0.75, 0, 0, 0.75, 320.17941, 419.999998)" fill="none" stroke-linejoin="miter" d="M 40.000373 0.00000264 C 17.906621 0.00000264 0.000370475 17.906254 0.000370475 40.000005 C 0.000370475 62.093756 17.906621 80.000007 40.000373 80.000007 C 62.088915 80.000007 80.000375 62.093756 80.000375 40.000005 C 80.000375 17.906254 62.088915 0.00000264 40.000373 0.00000264 Z M 40.000373 0.00000264 " stroke="#e45828" stroke-width="10" stroke-opacity="1" stroke-miterlimit="4"/></g></g></svg>