<svg xmlns="http://www.w3.org/2000/svg" xmlns:xlink="http://www.w3.org/1999/xlink" width="794" zoomAndPan="magnify" viewBox="0 0 594.95996 842.24997" height="1123" preserveAspectRatio="xMidYMid meet" version="1.0"><defs><clipPath id="9e72513a24"><path d="M 302 194 L 310 194 L 310 640 L 302 640 Z M 302 194 " clip-rule="nonzero"/></clipPath><clipPath id="76fe2f9276"><path d="M 375.03125 632.253906 L 496.355469 632.253906 L 496.355469 751.015625 L 113.816406 751.015625 L 113.816406 632.253906 L 235.625 632.253906 L 235.625 247.402344 L 98.691406 287.453125 L 98.691406 181.761719 L 362.242188 90.519531 L 375.03125 90.519531 Z M 375.03125 632.253906 " clip-rule="nonzero"/></clipPath><clipPath id="297a78521d"><path d="M 282 635 L 330 635 L 330 673 L 282 673 Z M 282 635 " clip-rule="nonzero"/></clipPath><clipPath id="c7c75d1147"><path d="M 375.03125 632.253906 L 496.355469 632.253906 L 496.355469 751.015625 L 113.816406 751.015625 L 113.816406 632.253906 L 235.625 632.253906 L 235.625 247.402344 L 98.691406 287.453125 L 98.691406 181.761719 L 362.242188 90.519531 L 375.03125 90.519531 Z M 375.03125 632.253906 " clip-rule="nonzero"/></clipPath><clipPath id="f9339201e5"><path d="M 171 692 L 452 692 L 452 700 L 171 700 Z M 171 692 " clip-rule="nonzero"/></clipPath><clipPath id="8dd8e01660"><path d="M 375.03125 632.253906 L 496.355469 632.253906 L 496.355469 751.015625 L 113.816406 751.015625 L 113.816406 632.253906 L 235.625 632.253906 L 235.625 247.402344 L 98.691406 287.453125 L 98.691406 181.761719 L 362.242188 90.519531 L 375.03125 90.519531 Z M 375.03125 632.253906 " clip-rule="nonzero"/></clipPath><clipPath id="53682379ea"><path d="M 447 672 L 485 672 L 485 719 L 447 719 Z M 447 672 " clip-rule="nonzero"/></clipPath><clipPath id="4fbd334051"><path d="M 375.03125 632.253906 L 496.355469 632.253906 L 496.355469 751.015625 L 113.816406 751.015625 L 113.816406 632.253906 L 235.625 632.253906 L 235.625 247.402344 L 98.691406 287.453125 L 98.691406 181.761719 L 362.242188 90.519531 L 375.03125 90.519531 Z M 375.03125 632.253906 " clip-rule="nonzero"/></clipPath><clipPath id="fb482bafba"><path d="M 155 191 L 238 191 L 238 224 L 155 224 Z M 155 191 " clip-rule="nonzero"/></clipPath><clipPath id="5e35cab76e"><path d="M 375.03125 632.253906 L 496.355469 632.253906 L 496.355469 751.015625 L 113.816406 751.015625 L 113.816406 632.253906 L 235.625 632.253906 L 235.625 247.402344 L 98.691406 287.453125 L 98.691406 181.761719 L 362.242188 90.519531 L 375.03125 90.519531 Z M 375.03125 632.253906 " clip-rule="nonzero"/></clipPath><clipPath id="56909ee84d"><path d="M 242 169 L 286 169 L 286 213 L 242 213 Z M 242 169 " clip-rule="nonzero"/></clipPath><clipPath id="cb930a2e60"><path d="M 375.03125 632.253906 L 496.355469 632.253906 L 496.355469 751.015625 L 113.816406 751.015625 L 113.816406 632.253906 L 235.625 632.253906 L 235.625 247.402344 L 98.691406 287.453125 L 98.691406 181.761719 L 362.242188 90.519531 L 375.03125 90.519531 Z M 375.03125 632.253906 " clip-rule="nonzero"/></clipPath><clipPath id="ad5fc80bb7"><path d="M 108 211 L 143 211 L 143 246 L 108 246 Z M 108 211 " clip-rule="nonzero"/></clipPath><clipPath id="7d76f477c8"><path d="M 375.03125 632.253906 L 496.355469 632.253906 L 496.355469 751.015625 L 113.816406 751.015625 L 113.816406 632.253906 L 235.625 632.253906 L 235.625 247.402344 L 98.691406 287.453125 L 98.691406 181.761719 L 362.242188 90.519531 L 375.03125 90.519531 Z M 375.03125 632.253906 " clip-rule="nonzero"/></clipPath><clipPath id="2b8ca74efd"><path d="M 119 217 L 128 217 L 128 239 L 119 239 Z M 119 217 " clip-rule="nonzero"/></clipPath><clipPath id="b7147a85a6"><path d="M 375.03125 632.253906 L 496.355469 632.253906 L 496.355469 751.015625 L 113.816406 751.015625 L 113.816406 632.253906 L 235.625 632.253906 L 235.625 247.402344 L 98.691406 287.453125 L 98.691406 181.761719 L 362.242188 90.519531 L 375.03125 90.519531 Z M 375.03125 632.253906 " clip-rule="nonzero"/></clipPath><clipPath id="97cfdda2f6"><path d="M 108.628906 228.152344 C 108.628906 227.039062 108.738281 225.9375 108.953125 224.847656 C 109.167969 223.757812 109.492188 222.699219 109.914062 221.671875 C 110.339844 220.644531 110.863281 219.667969 111.480469 218.746094 C 112.097656 217.820312 112.796875 216.964844 113.582031 216.179688 C 114.367188 215.394531 115.222656 214.691406 116.144531 214.074219 C 117.070312 213.457031 118.042969 212.933594 119.070312 212.507812 C 120.097656 212.082031 121.15625 211.761719 122.242188 211.542969 C 123.332031 211.328125 124.433594 211.21875 125.542969 211.21875 C 126.65625 211.21875 127.753906 211.328125 128.84375 211.542969 C 129.933594 211.761719 130.992188 212.082031 132.019531 212.507812 C 133.042969 212.933594 134.019531 213.457031 134.941406 214.074219 C 135.867188 214.691406 136.71875 215.394531 137.503906 216.179688 C 138.292969 216.964844 138.992188 217.820312 139.609375 218.746094 C 140.226562 219.667969 140.746094 220.644531 141.171875 221.671875 C 141.597656 222.699219 141.917969 223.757812 142.136719 224.847656 C 142.351562 225.9375 142.460938 227.039062 142.460938 228.152344 C 142.460938 229.265625 142.351562 230.367188 142.136719 231.457031 C 141.917969 232.546875 141.597656 233.605469 141.171875 234.632812 C 140.746094 235.660156 140.226562 236.636719 139.609375 237.558594 C 138.992188 238.484375 138.292969 239.339844 137.503906 240.125 C 136.71875 240.910156 135.867188 241.613281 134.941406 242.230469 C 134.019531 242.847656 133.042969 243.371094 132.019531 243.796875 C 130.992188 244.222656 129.933594 244.542969 128.84375 244.761719 C 127.753906 244.976562 126.65625 245.085938 125.542969 245.085938 C 124.433594 245.085938 123.332031 244.976562 122.242188 244.761719 C 121.15625 244.542969 120.097656 244.222656 119.070312 243.796875 C 118.042969 243.371094 117.070312 242.847656 116.144531 242.230469 C 115.222656 241.613281 114.367188 240.910156 113.582031 240.125 C 112.796875 239.339844 112.097656 238.484375 111.480469 237.558594 C 110.863281 236.636719 110.339844 235.660156 109.914062 234.632812 C 109.492188 233.605469 109.167969 232.546875 108.953125 231.457031 C 108.738281 230.367188 108.628906 229.265625 108.628906 228.152344 Z M 108.628906 228.152344 " clip-rule="nonzero"/></clipPath><clipPath id="7c701d4aef"><path d="M 289 142 L 324 142 L 324 177 L 289 177 Z M 289 142 " clip-rule="nonzero"/></clipPath><clipPath id="dc095ec874"><path d="M 375.03125 632.253906 L 496.355469 632.253906 L 496.355469 751.015625 L 113.816406 751.015625 L 113.816406 632.253906 L 235.625 632.253906 L 235.625 247.402344 L 98.691406 287.453125 L 98.691406 181.761719 L 362.242188 90.519531 L 375.03125 90.519531 Z M 375.03125 632.253906 " clip-rule="nonzero"/></clipPath><clipPath id="fc6a9a715e"><path d="M 298 148 L 313 148 L 313 170 L 298 170 Z M 298 148 " clip-rule="nonzero"/></clipPath><clipPath id="feef6318b4"><path d="M 375.03125 632.253906 L 496.355469 632.253906 L 496.355469 751.015625 L 113.816406 751.015625 L 113.816406 632.253906 L 235.625 632.253906 L 235.625 247.402344 L 98.691406 287.453125 L 98.691406 181.761719 L 362.242188 90.519531 L 375.03125 90.519531 Z M 375.03125 632.253906 " clip-rule="nonzero"/></clipPath><clipPath id="f4f4c300ca"><path d="M 289.242188 159.4375 C 289.242188 158.324219 289.351562 157.222656 289.566406 156.132812 C 289.785156 155.042969 290.105469 153.984375 290.53125 152.957031 C 290.957031 151.929688 291.476562 150.953125 292.09375 150.027344 C 292.710938 149.105469 293.414062 148.25 294.199219 147.460938 C 294.984375 146.675781 295.835938 145.972656 296.761719 145.355469 C 297.683594 144.738281 298.660156 144.21875 299.6875 143.792969 C 300.710938 143.367188 301.769531 143.046875 302.859375 142.828125 C 303.949219 142.613281 305.046875 142.503906 306.160156 142.503906 C 307.269531 142.503906 308.371094 142.613281 309.460938 142.828125 C 310.546875 143.046875 311.605469 143.367188 312.632812 143.792969 C 313.660156 144.21875 314.632812 144.738281 315.558594 145.355469 C 316.480469 145.972656 317.335938 146.675781 318.121094 147.460938 C 318.90625 148.25 319.605469 149.105469 320.222656 150.027344 C 320.839844 150.953125 321.363281 151.929688 321.789062 152.957031 C 322.210938 153.984375 322.535156 155.042969 322.75 156.132812 C 322.96875 157.222656 323.074219 158.324219 323.074219 159.4375 C 323.074219 160.546875 322.96875 161.648438 322.75 162.738281 C 322.535156 163.828125 322.210938 164.890625 321.789062 165.914062 C 321.363281 166.941406 320.839844 167.917969 320.222656 168.84375 C 319.605469 169.769531 318.90625 170.625 318.121094 171.410156 C 317.335938 172.195312 316.480469 172.898438 315.558594 173.515625 C 314.632812 174.132812 313.660156 174.65625 312.632812 175.078125 C 311.605469 175.503906 310.546875 175.828125 309.460938 176.042969 C 308.371094 176.261719 307.269531 176.367188 306.160156 176.367188 C 305.046875 176.367188 303.949219 176.261719 302.859375 176.042969 C 301.769531 175.828125 300.710938 175.503906 299.6875 175.078125 C 298.660156 174.65625 297.683594 174.132812 296.761719 173.515625 C 295.835938 172.898438 294.984375 172.195312 294.199219 171.410156 C 293.414062 170.625 292.710938 169.769531 292.09375 168.84375 C 291.476562 167.917969 290.957031 166.941406 290.53125 165.914062 C 290.105469 164.890625 289.785156 163.828125 289.566406 162.738281 C 289.351562 161.648438 289.242188 160.546875 289.242188 159.4375 Z M 289.242188 159.4375 " clip-rule="nonzero"/></clipPath><clipPath id="738abe80db"><path d="M 127 679 L 162 679 L 162 714 L 127 714 Z M 127 679 " clip-rule="nonzero"/></clipPath><clipPath id="8f169c3837"><path d="M 375.03125 632.253906 L 496.355469 632.253906 L 496.355469 751.015625 L 113.816406 751.015625 L 113.816406 632.253906 L 235.625 632.253906 L 235.625 247.402344 L 98.691406 287.453125 L 98.691406 181.761719 L 362.242188 90.519531 L 375.03125 90.519531 Z M 375.03125 632.253906 " clip-rule="nonzero"/></clipPath><clipPath id="6de1631daa"><path d="M 136 685 L 151 685 L 151 708 L 136 708 Z M 136 685 " clip-rule="nonzero"/></clipPath><clipPath id="4a72e82d09"><path d="M 375.03125 632.253906 L 496.355469 632.253906 L 496.355469 751.015625 L 113.816406 751.015625 L 113.816406 632.253906 L 235.625 632.253906 L 235.625 247.402344 L 98.691406 287.453125 L 98.691406 181.761719 L 362.242188 90.519531 L 375.03125 90.519531 Z M 375.03125 632.253906 " clip-rule="nonzero"/></clipPath><clipPath id="5b5ef1ebe3"><path d="M 127.296875 696.433594 C 127.296875 695.320312 127.402344 694.21875 127.621094 693.128906 C 127.835938 692.039062 128.15625 690.980469 128.582031 689.953125 C 129.007812 688.925781 129.527344 687.949219 130.144531 687.023438 C 130.761719 686.101562 131.464844 685.246094 132.25 684.457031 C 133.035156 683.671875 133.890625 682.96875 134.8125 682.351562 C 135.738281 681.734375 136.710938 681.214844 137.738281 680.789062 C 138.765625 680.363281 139.820312 680.042969 140.910156 679.824219 C 142 679.609375 143.101562 679.5 144.210938 679.5 C 145.320312 679.5 146.421875 679.609375 147.511719 679.824219 C 148.601562 680.042969 149.660156 680.363281 150.683594 680.789062 C 151.710938 681.214844 152.6875 681.734375 153.609375 682.351562 C 154.53125 682.96875 155.386719 683.671875 156.171875 684.457031 C 156.957031 685.246094 157.660156 686.101562 158.277344 687.023438 C 158.894531 687.949219 159.414062 688.925781 159.839844 689.953125 C 160.265625 690.980469 160.585938 692.039062 160.800781 693.128906 C 161.019531 694.21875 161.128906 695.320312 161.128906 696.433594 C 161.128906 697.542969 161.019531 698.644531 160.800781 699.734375 C 160.585938 700.824219 160.265625 701.886719 159.839844 702.910156 C 159.414062 703.9375 158.894531 704.914062 158.277344 705.839844 C 157.660156 706.765625 156.957031 707.621094 156.171875 708.40625 C 155.386719 709.191406 154.53125 709.894531 153.609375 710.511719 C 152.6875 711.128906 151.710938 711.652344 150.683594 712.074219 C 149.660156 712.5 148.601562 712.824219 147.511719 713.039062 C 146.421875 713.257812 145.320312 713.363281 144.210938 713.363281 C 143.101562 713.363281 142 713.257812 140.910156 713.039062 C 139.820312 712.824219 138.765625 712.5 137.738281 712.074219 C 136.710938 711.652344 135.738281 711.128906 134.8125 710.511719 C 133.890625 709.894531 133.035156 709.191406 132.25 708.40625 C 131.464844 707.621094 130.761719 706.765625 130.144531 705.839844 C 129.527344 704.914062 129.007812 703.9375 128.582031 702.910156 C 128.15625 701.886719 127.835938 700.824219 127.621094 699.734375 C 127.402344 698.644531 127.296875 697.542969 127.296875 696.433594 Z M 127.296875 696.433594 " clip-rule="nonzero"/></clipPath><clipPath id="16e8c3e58a"><path d="M 95.207031 87 L 499.847656 87 L 499.847656 754.582031 L 95.207031 754.582031 Z M 95.207031 87 " clip-rule="nonzero"/></clipPath></defs><path fill="#ffffff" d="M 375.03125 632.253906 L 496.355469 632.253906 L 496.355469 751.015625 L 113.816406 751.015625 L 113.816406 632.253906 L 235.625 632.253906 L 235.625 247.402344 L 98.691406 287.453125 L 98.691406 181.761719 L 362.242188 90.519531 L 375.03125 90.519531 Z M 375.03125 632.253906 " fill-opacity="1" fill-rule="nonzero"/><g clip-path="url(#9e72513a24)"><g clip-path="url(#76fe2f9276)"><path fill="#000000" d="M 302.035156 633.402344 L 302.035156 635.351562 C 302.035156 637.4375 303.730469 639.132812 305.816406 639.132812 C 307.902344 639.132812 309.597656 637.4375 309.597656 635.351562 L 309.597656 633.402344 C 309.597656 631.3125 307.902344 629.617188 305.816406 629.617188 C 303.730469 629.617188 302.035156 631.3125 302.035156 633.402344 Z M 302.035156 599.917969 L 302.035156 611.742188 C 302.035156 613.828125 303.730469 615.523438 305.816406 615.523438 C 307.902344 615.523438 309.597656 613.828125 309.597656 611.742188 L 309.597656 599.917969 C 309.597656 597.828125 307.902344 596.132812 305.816406 596.132812 C 303.730469 596.132812 302.035156 597.828125 302.035156 599.917969 Z M 302.035156 566.4375 L 302.035156 578.257812 C 302.035156 580.347656 303.730469 582.042969 305.816406 582.042969 C 307.902344 582.042969 309.597656 580.347656 309.597656 578.257812 L 309.597656 566.4375 C 309.597656 564.347656 307.902344 562.652344 305.816406 562.652344 C 303.730469 562.652344 302.035156 564.347656 302.035156 566.4375 Z M 302.035156 532.953125 L 302.035156 544.773438 C 302.035156 546.863281 303.730469 548.558594 305.816406 548.558594 C 307.902344 548.558594 309.597656 546.863281 309.597656 544.773438 L 309.597656 532.953125 C 309.597656 530.863281 307.902344 529.167969 305.816406 529.167969 C 303.730469 529.167969 302.035156 530.863281 302.035156 532.953125 Z M 302.035156 499.46875 L 302.035156 511.292969 C 302.035156 513.382812 303.730469 515.078125 305.816406 515.078125 C 307.902344 515.078125 309.597656 513.382812 309.597656 511.292969 L 309.597656 499.46875 C 309.597656 497.382812 307.902344 495.6875 305.816406 495.6875 C 303.730469 495.6875 302.035156 497.382812 302.035156 499.46875 Z M 302.035156 465.984375 L 302.035156 477.808594 C 302.035156 479.898438 303.730469 481.59375 305.816406 481.59375 C 307.902344 481.59375 309.597656 479.898438 309.597656 477.808594 L 309.597656 465.984375 C 309.597656 463.898438 307.902344 462.203125 305.816406 462.203125 C 303.730469 462.203125 302.035156 463.898438 302.035156 465.984375 Z M 302.035156 432.503906 L 302.035156 444.328125 C 302.035156 446.417969 303.730469 448.109375 305.816406 448.109375 C 307.902344 448.109375 309.597656 446.417969 309.597656 444.328125 L 309.597656 432.503906 C 309.597656 430.417969 307.902344 428.722656 305.816406 428.722656 C 303.730469 428.722656 302.035156 430.417969 302.035156 432.503906 Z M 302.035156 399.019531 L 302.035156 410.84375 C 302.035156 412.929688 303.730469 414.625 305.816406 414.625 C 307.902344 414.625 309.597656 412.929688 309.597656 410.84375 L 309.597656 399.019531 C 309.597656 396.933594 307.902344 395.238281 305.816406 395.238281 C 303.730469 395.238281 302.035156 396.933594 302.035156 399.019531 Z M 302.035156 365.539062 L 302.035156 377.363281 C 302.035156 379.449219 303.730469 381.144531 305.816406 381.144531 C 307.902344 381.144531 309.597656 379.449219 309.597656 377.363281 L 309.597656 365.539062 C 309.597656 363.453125 307.902344 361.757812 305.816406 361.757812 C 303.730469 361.757812 302.035156 363.453125 302.035156 365.539062 Z M 302.035156 332.054688 L 302.035156 343.878906 C 302.035156 345.964844 303.730469 347.664062 305.816406 347.664062 C 307.902344 347.664062 309.597656 345.964844 309.597656 343.878906 L 309.597656 332.054688 C 309.597656 329.96875 307.902344 328.273438 305.816406 328.273438 C 303.730469 328.273438 302.035156 329.96875 302.035156 332.054688 Z M 302.035156 298.574219 L 302.035156 310.398438 C 302.035156 312.488281 303.730469 314.179688 305.816406 314.179688 C 307.902344 314.179688 309.597656 312.488281 309.597656 310.398438 L 309.597656 298.574219 C 309.597656 296.484375 307.902344 294.789062 305.816406 294.789062 C 303.730469 294.789062 302.035156 296.484375 302.035156 298.574219 Z M 302.035156 265.089844 L 302.035156 276.914062 C 302.035156 279.003906 303.730469 280.699219 305.816406 280.699219 C 307.902344 280.699219 309.597656 279.003906 309.597656 276.914062 L 309.597656 265.089844 C 309.597656 263.003906 307.902344 261.308594 305.816406 261.308594 C 303.730469 261.308594 302.035156 263.003906 302.035156 265.089844 Z M 302.035156 231.609375 L 302.035156 243.433594 C 302.035156 245.519531 303.730469 247.214844 305.816406 247.214844 C 307.902344 247.214844 309.597656 245.519531 309.597656 243.433594 L 309.597656 231.609375 C 309.597656 229.519531 307.902344 227.824219 305.816406 227.824219 C 303.730469 227.824219 302.035156 229.519531 302.035156 231.609375 Z M 302.035156 198.125 L 302.035156 209.949219 C 302.035156 212.035156 303.730469 213.730469 305.816406 213.730469 C 307.902344 213.730469 309.597656 212.035156 309.597656 209.949219 L 309.597656 198.125 C 309.597656 196.039062 307.902344 194.34375 305.816406 194.34375 C 303.730469 194.34375 302.035156 196.039062 302.035156 198.125 Z M 302.035156 198.125 " fill-opacity="1" fill-rule="evenodd"/></g></g><g clip-path="url(#297a78521d)"><g clip-path="url(#c7c75d1147)"><path fill="#000000" d="M 282.921875 635.347656 L 329.394531 635.347656 L 305.832031 672.59375 Z M 282.921875 635.347656 " fill-opacity="1" fill-rule="evenodd"/></g></g><g clip-path="url(#f9339201e5)"><g clip-path="url(#8dd8e01660)"><path fill="#000000" d="M 208.417969 699.808594 L 220.230469 699.808594 C 222.316406 699.808594 224.007812 698.113281 224.007812 696.023438 C 224.007812 693.9375 222.316406 692.242188 220.230469 692.242188 L 208.417969 692.242188 C 206.332031 692.242188 204.636719 693.9375 204.636719 696.023438 C 204.636719 698.113281 206.332031 699.808594 208.417969 699.808594 Z M 409.113281 699.808594 L 420.925781 699.808594 C 423.011719 699.808594 424.703125 698.113281 424.703125 696.023438 C 424.703125 693.9375 423.011719 692.242188 420.925781 692.242188 L 409.113281 692.242188 C 407.027344 692.242188 405.335938 693.9375 405.335938 696.023438 C 405.335938 698.113281 407.027344 699.808594 409.113281 699.808594 Z M 174.96875 699.808594 L 186.78125 699.808594 C 188.863281 699.808594 190.558594 698.113281 190.558594 696.023438 C 190.558594 693.9375 188.863281 692.242188 186.78125 692.242188 L 174.96875 692.242188 C 172.882812 692.242188 171.1875 693.9375 171.1875 696.023438 C 171.1875 698.113281 172.882812 699.808594 174.96875 699.808594 Z M 241.867188 699.808594 L 253.675781 699.808594 C 255.765625 699.808594 257.457031 698.113281 257.457031 696.023438 C 257.457031 693.9375 255.765625 692.242188 253.675781 692.242188 L 241.867188 692.242188 C 239.78125 692.242188 238.085938 693.9375 238.085938 696.023438 C 238.085938 698.113281 239.78125 699.808594 241.867188 699.808594 Z M 275.316406 699.808594 L 287.125 699.808594 C 289.214844 699.808594 290.90625 698.113281 290.90625 696.023438 C 290.90625 693.9375 289.214844 692.242188 287.125 692.242188 L 275.316406 692.242188 C 273.230469 692.242188 271.535156 693.9375 271.535156 696.023438 C 271.535156 698.113281 273.230469 699.808594 275.316406 699.808594 Z M 308.765625 699.808594 L 320.574219 699.808594 C 322.664062 699.808594 324.355469 698.113281 324.355469 696.023438 C 324.355469 693.9375 322.664062 692.242188 320.574219 692.242188 L 308.765625 692.242188 C 306.679688 692.242188 304.984375 693.9375 304.984375 696.023438 C 304.984375 698.113281 306.679688 699.808594 308.765625 699.808594 Z M 342.214844 699.808594 L 354.023438 699.808594 C 356.113281 699.808594 357.804688 698.113281 357.804688 696.023438 C 357.804688 693.9375 356.113281 692.242188 354.023438 692.242188 L 342.214844 692.242188 C 340.128906 692.242188 338.433594 693.9375 338.433594 696.023438 C 338.433594 698.113281 340.128906 699.808594 342.214844 699.808594 Z M 375.664062 699.808594 L 387.472656 699.808594 C 389.5625 699.808594 391.253906 698.113281 391.253906 696.023438 C 391.253906 693.9375 389.5625 692.242188 387.472656 692.242188 L 375.664062 692.242188 C 373.578125 692.242188 371.882812 693.9375 371.882812 696.023438 C 371.882812 698.113281 373.578125 699.808594 375.664062 699.808594 Z M 442.5625 699.808594 L 447.5625 699.808594 C 449.648438 699.808594 451.34375 698.113281 451.34375 696.023438 C 451.34375 693.9375 449.648438 692.242188 447.5625 692.242188 L 442.5625 692.242188 C 440.476562 692.242188 438.785156 693.9375 438.785156 696.023438 C 438.785156 698.113281 440.476562 699.808594 442.5625 699.808594 Z M 442.5625 699.808594 " fill-opacity="1" fill-rule="evenodd"/></g></g><g clip-path="url(#53682379ea)"><g clip-path="url(#4fbd334051)"><path fill="#000000" d="M 447.5625 718.925781 L 447.5625 672.40625 L 484.773438 695.992188 Z M 447.5625 718.925781 " fill-opacity="1" fill-rule="evenodd"/></g></g><g clip-path="url(#fb482bafba)"><g clip-path="url(#5e35cab76e)"><path fill="#000000" d="M 160.167969 222.832031 C 161.941406 222.277344 165.988281 221.011719 171.4375 219.304688 C 173.429688 218.679688 174.542969 216.554688 173.917969 214.5625 C 173.296875 212.570312 171.171875 211.457031 169.183594 212.082031 C 163.730469 213.789062 159.683594 215.058594 157.910156 215.613281 C 155.917969 216.234375 154.808594 218.359375 155.429688 220.351562 C 156.054688 222.34375 158.175781 223.457031 160.167969 222.832031 Z M 192.089844 212.835938 C 195.761719 211.683594 199.550781 210.496094 203.363281 209.304688 C 205.351562 208.679688 206.464844 206.558594 205.839844 204.5625 C 205.21875 202.570312 203.097656 201.460938 201.105469 202.082031 C 197.292969 203.273438 193.503906 204.464844 189.832031 205.613281 C 187.84375 206.238281 186.730469 208.359375 187.355469 210.351562 C 187.976562 212.347656 190.101562 213.460938 192.089844 212.835938 Z M 224.011719 202.835938 C 228.054688 201.570312 231.863281 200.378906 235.285156 199.304688 C 237.277344 198.683594 238.386719 196.558594 237.765625 194.566406 C 237.140625 192.574219 235.019531 191.460938 233.027344 192.085938 C 229.605469 193.15625 225.796875 194.351562 221.753906 195.613281 C 219.765625 196.238281 218.65625 198.363281 219.277344 200.355469 C 219.902344 202.347656 222.023438 203.460938 224.011719 202.835938 Z M 224.011719 202.835938 " fill-opacity="1" fill-rule="evenodd"/></g></g><g clip-path="url(#56909ee84d)"><g clip-path="url(#cb930a2e60)"><path fill="#000000" d="M 242.730469 169.003906 L 258.109375 212.902344 L 285.425781 178.320312 Z M 242.730469 169.003906 " fill-opacity="1" fill-rule="evenodd"/></g></g><g clip-path="url(#ad5fc80bb7)"><g clip-path="url(#7d76f477c8)"><path fill="#000000" d="M 142.460938 228.152344 C 142.460938 228.707031 142.433594 229.261719 142.378906 229.8125 C 142.324219 230.363281 142.242188 230.910156 142.136719 231.457031 C 142.027344 232 141.894531 232.535156 141.730469 233.066406 C 141.570312 233.597656 141.386719 234.121094 141.171875 234.632812 C 140.960938 235.144531 140.722656 235.644531 140.464844 236.132812 C 140.203125 236.625 139.917969 237.097656 139.609375 237.558594 C 139.300781 238.019531 138.972656 238.464844 138.621094 238.894531 C 138.269531 239.324219 137.898438 239.734375 137.503906 240.125 C 137.113281 240.519531 136.703125 240.890625 136.277344 241.242188 C 135.847656 241.59375 135.402344 241.921875 134.941406 242.230469 C 134.480469 242.539062 134.007812 242.824219 133.519531 243.085938 C 133.03125 243.347656 132.53125 243.585938 132.019531 243.796875 C 131.507812 244.007812 130.984375 244.195312 130.453125 244.355469 C 129.925781 244.515625 129.386719 244.652344 128.84375 244.761719 C 128.300781 244.867188 127.753906 244.949219 127.203125 245.003906 C 126.652344 245.058594 126.097656 245.085938 125.542969 245.085938 C 124.992188 245.085938 124.4375 245.058594 123.886719 245.003906 C 123.335938 244.949219 122.789062 244.867188 122.242188 244.761719 C 121.699219 244.652344 121.164062 244.515625 120.632812 244.355469 C 120.105469 244.195312 119.582031 244.007812 119.070312 243.796875 C 118.558594 243.585938 118.058594 243.347656 117.570312 243.085938 C 117.082031 242.824219 116.605469 242.539062 116.144531 242.230469 C 115.683594 241.921875 115.242188 241.59375 114.8125 241.242188 C 114.382812 240.890625 113.972656 240.519531 113.582031 240.125 C 113.191406 239.734375 112.820312 239.324219 112.46875 238.894531 C 112.117188 238.464844 111.785156 238.019531 111.480469 237.558594 C 111.171875 237.097656 110.886719 236.625 110.625 236.132812 C 110.363281 235.644531 110.128906 235.144531 109.914062 234.632812 C 109.703125 234.121094 109.515625 233.597656 109.355469 233.066406 C 109.195312 232.535156 109.0625 232 108.953125 231.457031 C 108.84375 230.910156 108.765625 230.363281 108.710938 229.8125 C 108.65625 229.261719 108.628906 228.707031 108.628906 228.152344 C 108.628906 227.597656 108.65625 227.042969 108.710938 226.492188 C 108.765625 225.941406 108.84375 225.394531 108.953125 224.847656 C 109.0625 224.304688 109.195312 223.769531 109.355469 223.238281 C 109.515625 222.707031 109.703125 222.183594 109.914062 221.671875 C 110.128906 221.160156 110.363281 220.660156 110.625 220.171875 C 110.886719 219.679688 111.171875 219.207031 111.480469 218.746094 C 111.785156 218.285156 112.117188 217.839844 112.46875 217.410156 C 112.820312 216.980469 113.191406 216.570312 113.582031 216.179688 C 113.972656 215.785156 114.382812 215.414062 114.8125 215.0625 C 115.242188 214.710938 115.683594 214.382812 116.144531 214.074219 C 116.605469 213.765625 117.082031 213.480469 117.570312 213.21875 C 118.058594 212.957031 118.558594 212.71875 119.070312 212.507812 C 119.582031 212.296875 120.105469 212.109375 120.632812 211.949219 C 121.164062 211.789062 121.699219 211.652344 122.242188 211.542969 C 122.789062 211.4375 123.335938 211.355469 123.886719 211.300781 C 124.4375 211.246094 124.992188 211.21875 125.542969 211.21875 C 126.097656 211.21875 126.652344 211.246094 127.203125 211.300781 C 127.753906 211.355469 128.300781 211.4375 128.84375 211.542969 C 129.386719 211.652344 129.925781 211.789062 130.453125 211.949219 C 130.984375 212.109375 131.507812 212.296875 132.019531 212.507812 C 132.53125 212.71875 133.03125 212.957031 133.519531 213.21875 C 134.007812 213.480469 134.480469 213.765625 134.941406 214.074219 C 135.402344 214.382812 135.847656 214.710938 136.277344 215.0625 C 136.703125 215.414062 137.113281 215.785156 137.503906 216.179688 C 137.898438 216.570312 138.269531 216.980469 138.621094 217.410156 C 138.972656 217.839844 139.300781 218.285156 139.609375 218.746094 C 139.917969 219.207031 140.203125 219.679688 140.464844 220.171875 C 140.722656 220.660156 140.960938 221.160156 141.171875 221.671875 C 141.386719 222.183594 141.570312 222.707031 141.730469 223.238281 C 141.894531 223.769531 142.027344 224.304688 142.136719 224.847656 C 142.242188 225.394531 142.324219 225.941406 142.378906 226.492188 C 142.433594 227.042969 142.460938 227.597656 142.460938 228.152344 Z M 142.460938 228.152344 " fill-opacity="1" fill-rule="nonzero"/></g></g><g clip-path="url(#2b8ca74efd)"><g clip-path="url(#b7147a85a6)"><g clip-path="url(#97cfdda2f6)"><path fill="#ffffff" d="M 127.296875 238.589844 L 124.644531 238.589844 L 124.644531 220.996094 L 119.328125 222.953125 L 119.328125 220.554688 L 126.882812 217.714844 L 127.296875 217.714844 Z M 127.296875 238.589844 " fill-opacity="1" fill-rule="nonzero"/></g></g></g><g clip-path="url(#7c701d4aef)"><g clip-path="url(#dc095ec874)"><path fill="#000000" d="M 323.074219 159.4375 C 323.074219 159.992188 323.046875 160.542969 322.992188 161.09375 C 322.941406 161.648438 322.859375 162.195312 322.75 162.738281 C 322.640625 163.285156 322.507812 163.820312 322.347656 164.351562 C 322.1875 164.882812 322 165.402344 321.789062 165.914062 C 321.574219 166.429688 321.339844 166.929688 321.078125 167.417969 C 320.816406 167.90625 320.53125 168.382812 320.222656 168.84375 C 319.917969 169.304688 319.585938 169.75 319.234375 170.179688 C 318.882812 170.605469 318.511719 171.015625 318.121094 171.410156 C 317.730469 171.800781 317.320312 172.171875 316.890625 172.523438 C 316.460938 172.878906 316.019531 173.207031 315.558594 173.515625 C 315.097656 173.824219 314.621094 174.109375 314.132812 174.371094 C 313.644531 174.632812 313.144531 174.867188 312.632812 175.078125 C 312.121094 175.292969 311.601562 175.480469 311.070312 175.640625 C 310.539062 175.800781 310.003906 175.933594 309.460938 176.042969 C 308.917969 176.152344 308.367188 176.234375 307.816406 176.289062 C 307.265625 176.339844 306.714844 176.367188 306.160156 176.367188 C 305.605469 176.367188 305.050781 176.339844 304.5 176.289062 C 303.949219 176.234375 303.402344 176.152344 302.859375 176.042969 C 302.316406 175.933594 301.777344 175.800781 301.25 175.640625 C 300.71875 175.480469 300.199219 175.292969 299.6875 175.078125 C 299.175781 174.867188 298.671875 174.632812 298.183594 174.371094 C 297.695312 174.109375 297.222656 173.824219 296.761719 173.515625 C 296.300781 173.207031 295.855469 172.878906 295.425781 172.523438 C 295 172.171875 294.589844 171.800781 294.199219 171.410156 C 293.804688 171.015625 293.433594 170.605469 293.082031 170.179688 C 292.730469 169.75 292.402344 169.304688 292.09375 168.84375 C 291.785156 168.382812 291.5 167.90625 291.242188 167.417969 C 290.980469 166.929688 290.742188 166.429688 290.53125 165.914062 C 290.320312 165.402344 290.132812 164.882812 289.972656 164.351562 C 289.8125 163.820312 289.675781 163.285156 289.566406 162.738281 C 289.460938 162.195312 289.378906 161.648438 289.324219 161.09375 C 289.269531 160.542969 289.242188 159.992188 289.242188 159.4375 C 289.242188 158.882812 289.269531 158.328125 289.324219 157.777344 C 289.378906 157.222656 289.460938 156.675781 289.566406 156.132812 C 289.675781 155.589844 289.8125 155.050781 289.972656 154.519531 C 290.132812 153.988281 290.320312 153.46875 290.53125 152.957031 C 290.742188 152.445312 290.980469 151.941406 291.242188 151.453125 C 291.5 150.964844 291.785156 150.488281 292.09375 150.027344 C 292.402344 149.566406 292.730469 149.121094 293.082031 148.695312 C 293.433594 148.265625 293.804688 147.855469 294.199219 147.460938 C 294.589844 147.070312 295 146.699219 295.429688 146.347656 C 295.855469 145.996094 296.300781 145.664062 296.761719 145.355469 C 297.222656 145.046875 297.695312 144.765625 298.183594 144.503906 C 298.671875 144.242188 299.175781 144.003906 299.6875 143.792969 C 300.199219 143.578125 300.71875 143.394531 301.25 143.230469 C 301.777344 143.070312 302.316406 142.9375 302.859375 142.828125 C 303.402344 142.71875 303.949219 142.640625 304.5 142.585938 C 305.050781 142.53125 305.605469 142.503906 306.160156 142.503906 C 306.714844 142.503906 307.265625 142.53125 307.816406 142.585938 C 308.367188 142.640625 308.917969 142.71875 309.460938 142.828125 C 310.003906 142.9375 310.539062 143.070312 311.070312 143.230469 C 311.601562 143.394531 312.121094 143.578125 312.632812 143.792969 C 313.144531 144.003906 313.644531 144.242188 314.132812 144.503906 C 314.621094 144.765625 315.097656 145.046875 315.558594 145.355469 C 316.019531 145.664062 316.460938 145.996094 316.890625 146.347656 C 317.320312 146.699219 317.730469 147.070312 318.121094 147.460938 C 318.511719 147.855469 318.882812 148.265625 319.234375 148.695312 C 319.585938 149.121094 319.917969 149.566406 320.222656 150.027344 C 320.53125 150.488281 320.816406 150.964844 321.078125 151.453125 C 321.339844 151.941406 321.574219 152.445312 321.789062 152.957031 C 322 153.46875 322.1875 153.988281 322.347656 154.519531 C 322.507812 155.050781 322.640625 155.589844 322.75 156.132812 C 322.859375 156.675781 322.941406 157.222656 322.992188 157.777344 C 323.046875 158.328125 323.074219 158.882812 323.074219 159.4375 Z M 323.074219 159.4375 " fill-opacity="1" fill-rule="nonzero"/></g></g><g clip-path="url(#fc6a9a715e)"><g clip-path="url(#feef6318b4)"><g clip-path="url(#f4f4c300ca)"><path fill="#ffffff" d="M 312.84375 169.875 L 299.242188 169.875 L 299.242188 167.976562 L 306.425781 159.984375 C 307.492188 158.777344 308.226562 157.796875 308.628906 157.039062 C 309.035156 156.28125 309.234375 155.5 309.234375 154.691406 C 309.234375 153.605469 308.90625 152.71875 308.253906 152.023438 C 307.597656 151.328125 306.722656 150.980469 305.628906 150.980469 C 304.316406 150.980469 303.296875 151.355469 302.570312 152.101562 C 301.84375 152.847656 301.480469 153.886719 301.480469 155.21875 L 298.84375 155.21875 C 298.84375 153.308594 299.460938 151.761719 300.691406 150.582031 C 301.921875 149.402344 303.566406 148.8125 305.628906 148.8125 C 307.558594 148.8125 309.082031 149.320312 310.207031 150.332031 C 311.328125 151.34375 311.886719 152.695312 311.886719 154.378906 C 311.886719 156.421875 310.585938 158.859375 307.980469 161.683594 L 302.421875 167.71875 L 312.84375 167.71875 Z M 312.84375 169.875 " fill-opacity="1" fill-rule="nonzero"/></g></g></g><g clip-path="url(#738abe80db)"><g clip-path="url(#8f169c3837)"><path fill="#000000" d="M 161.128906 696.433594 C 161.128906 696.988281 161.101562 697.539062 161.046875 698.09375 C 160.992188 698.644531 160.910156 699.191406 160.800781 699.734375 C 160.695312 700.28125 160.558594 700.816406 160.398438 701.347656 C 160.238281 701.878906 160.050781 702.398438 159.839844 702.910156 C 159.628906 703.425781 159.390625 703.925781 159.128906 704.414062 C 158.867188 704.902344 158.585938 705.378906 158.277344 705.839844 C 157.96875 706.300781 157.640625 706.746094 157.289062 707.175781 C 156.9375 707.601562 156.566406 708.011719 156.171875 708.40625 C 155.78125 708.796875 155.371094 709.167969 154.941406 709.523438 C 154.515625 709.875 154.070312 710.203125 153.609375 710.511719 C 153.148438 710.820312 152.675781 711.105469 152.1875 711.367188 C 151.695312 711.628906 151.195312 711.863281 150.683594 712.074219 C 150.171875 712.289062 149.652344 712.476562 149.121094 712.636719 C 148.59375 712.796875 148.054688 712.929688 147.511719 713.039062 C 146.96875 713.148438 146.421875 713.230469 145.871094 713.285156 C 145.316406 713.339844 144.765625 713.363281 144.210938 713.363281 C 143.65625 713.363281 143.105469 713.339844 142.554688 713.285156 C 142.003906 713.230469 141.453125 713.148438 140.910156 713.039062 C 140.367188 712.929688 139.832031 712.796875 139.300781 712.636719 C 138.769531 712.476562 138.25 712.289062 137.738281 712.074219 C 137.226562 711.863281 136.726562 711.628906 136.238281 711.367188 C 135.75 711.105469 135.273438 710.820312 134.8125 710.511719 C 134.351562 710.203125 133.910156 709.875 133.480469 709.523438 C 133.050781 709.167969 132.640625 708.796875 132.25 708.40625 C 131.859375 708.011719 131.488281 707.601562 131.136719 707.175781 C 130.785156 706.746094 130.453125 706.300781 130.144531 705.839844 C 129.839844 705.378906 129.554688 704.902344 129.292969 704.414062 C 129.03125 703.925781 128.796875 703.425781 128.582031 702.910156 C 128.371094 702.398438 128.183594 701.878906 128.023438 701.347656 C 127.863281 700.816406 127.726562 700.28125 127.621094 699.734375 C 127.511719 699.191406 127.429688 698.644531 127.375 698.09375 C 127.324219 697.539062 127.296875 696.988281 127.296875 696.433594 C 127.296875 695.878906 127.324219 695.324219 127.375 694.773438 C 127.429688 694.21875 127.511719 693.671875 127.621094 693.128906 C 127.726562 692.585938 127.863281 692.046875 128.023438 691.515625 C 128.183594 690.984375 128.371094 690.464844 128.582031 689.953125 C 128.796875 689.441406 129.03125 688.9375 129.292969 688.449219 C 129.554688 687.960938 129.839844 687.484375 130.144531 687.023438 C 130.453125 686.5625 130.785156 686.117188 131.136719 685.691406 C 131.488281 685.261719 131.859375 684.851562 132.25 684.457031 C 132.640625 684.066406 133.050781 683.695312 133.480469 683.34375 C 133.910156 682.992188 134.351562 682.660156 134.8125 682.351562 C 135.273438 682.042969 135.75 681.761719 136.238281 681.5 C 136.726562 681.238281 137.226562 681 137.738281 680.789062 C 138.25 680.574219 138.769531 680.390625 139.300781 680.226562 C 139.832031 680.066406 140.367188 679.933594 140.910156 679.824219 C 141.453125 679.714844 142.003906 679.636719 142.554688 679.582031 C 143.105469 679.527344 143.65625 679.5 144.210938 679.5 C 144.765625 679.5 145.316406 679.527344 145.871094 679.582031 C 146.421875 679.636719 146.96875 679.714844 147.511719 679.824219 C 148.054688 679.933594 148.59375 680.066406 149.121094 680.226562 C 149.652344 680.390625 150.171875 680.574219 150.683594 680.789062 C 151.195312 681 151.695312 681.238281 152.1875 681.5 C 152.675781 681.761719 153.148438 682.042969 153.609375 682.351562 C 154.070312 682.660156 154.515625 682.992188 154.941406 683.34375 C 155.371094 683.695312 155.78125 684.066406 156.171875 684.457031 C 156.566406 684.851562 156.9375 685.261719 157.289062 685.691406 C 157.640625 686.117188 157.96875 686.5625 158.277344 687.023438 C 158.585938 687.484375 158.867188 687.960938 159.128906 688.449219 C 159.390625 688.9375 159.628906 689.441406 159.839844 689.953125 C 160.050781 690.464844 160.238281 690.984375 160.398438 691.515625 C 160.558594 692.046875 160.695312 692.585938 160.800781 693.128906 C 160.910156 693.671875 160.992188 694.21875 161.046875 694.773438 C 161.101562 695.324219 161.128906 695.878906 161.128906 696.433594 Z M 161.128906 696.433594 " fill-opacity="1" fill-rule="nonzero"/></g></g><g clip-path="url(#6de1631daa)"><g clip-path="url(#4a72e82d09)"><g clip-path="url(#5b5ef1ebe3)"><path fill="#ffffff" d="M 141.128906 695.199219 L 143.109375 695.199219 C 144.355469 695.179688 145.335938 694.851562 146.046875 694.214844 C 146.761719 693.574219 147.117188 692.714844 147.117188 691.628906 C 147.117188 689.195312 145.90625 687.976562 143.480469 687.976562 C 142.339844 687.976562 141.429688 688.304688 140.753906 688.953125 C 140.074219 689.605469 139.734375 690.46875 139.734375 691.546875 L 137.09375 691.546875 C 137.09375 689.898438 137.695312 688.53125 138.898438 687.441406 C 140.101562 686.351562 141.628906 685.808594 143.480469 685.808594 C 145.441406 685.808594 146.972656 686.328125 148.085938 687.363281 C 149.199219 688.402344 149.753906 689.84375 149.753906 691.6875 C 149.753906 692.589844 149.460938 693.464844 148.878906 694.3125 C 148.292969 695.160156 147.496094 695.792969 146.488281 696.210938 C 147.628906 696.574219 148.511719 697.171875 149.132812 698.007812 C 149.757812 698.847656 150.066406 699.867188 150.066406 701.078125 C 150.066406 702.941406 149.460938 704.421875 148.242188 705.515625 C 147.027344 706.609375 145.445312 707.15625 143.496094 707.15625 C 141.546875 707.15625 139.964844 706.628906 138.742188 705.570312 C 137.519531 704.515625 136.910156 703.121094 136.910156 701.390625 L 139.5625 701.390625 C 139.5625 702.484375 139.917969 703.359375 140.632812 704.015625 C 141.34375 704.671875 142.296875 705 143.496094 705 C 144.769531 705 145.742188 704.667969 146.417969 704.003906 C 147.09375 703.335938 147.429688 702.378906 147.429688 701.132812 C 147.429688 699.925781 147.058594 699 146.320312 698.351562 C 145.578125 697.703125 144.507812 697.371094 143.109375 697.351562 L 141.128906 697.351562 Z M 141.128906 695.199219 " fill-opacity="1" fill-rule="nonzero"/></g></g></g><g clip-path="url(#16e8c3e58a)"><path fill="#000000" d="M 378.519531 628.761719 L 378.519531 90.519531 C 378.519531 88.589844 376.957031 87.027344 375.03125 87.027344 L 362.242188 87.027344 C 361.855469 87.027344 361.46875 87.09375 361.105469 87.21875 L 97.550781 178.460938 C 96.148438 178.949219 95.203125 180.273438 95.203125 181.761719 L 95.203125 287.453125 C 95.203125 288.550781 95.722656 289.585938 96.601562 290.246094 C 97.480469 290.90625 98.617188 291.113281 99.671875 290.804688 C 99.671875 290.804688 208.558594 258.960938 232.132812 252.0625 C 232.132812 252.0625 232.132812 628.761719 232.132812 628.761719 C 232.132812 628.761719 113.816406 628.761719 113.816406 628.761719 C 111.890625 628.761719 110.328125 630.324219 110.328125 632.253906 L 110.328125 751.015625 C 110.328125 752.945312 111.890625 754.507812 113.816406 754.507812 L 496.355469 754.507812 C 498.28125 754.507812 499.84375 752.945312 499.84375 751.015625 L 499.84375 632.253906 C 499.84375 630.324219 498.28125 628.761719 496.355469 628.761719 Z M 371.539062 632.253906 C 371.539062 634.183594 373.101562 635.746094 375.03125 635.746094 L 492.863281 635.746094 C 492.863281 635.746094 492.863281 728.25 492.863281 747.523438 C 492.863281 747.523438 117.304688 747.523438 117.304688 747.523438 C 117.304688 730.144531 117.304688 653.125 117.304688 635.746094 C 117.304688 635.746094 235.625 635.746094 235.625 635.746094 C 237.550781 635.746094 239.113281 634.183594 239.113281 632.253906 L 239.113281 247.402344 C 239.113281 246.304688 238.59375 245.269531 237.714844 244.609375 C 236.835938 243.953125 235.699219 243.742188 234.644531 244.050781 L 102.179688 282.792969 C 102.179688 282.792969 102.179688 184.25 102.179688 184.25 C 102.179688 184.25 362.832031 94.011719 362.832031 94.011719 C 362.832031 94.011719 371.539062 94.011719 371.539062 94.011719 C 371.539062 140.347656 371.539062 632.253906 371.539062 632.253906 Z M 371.539062 632.253906 " fill-opacity="1" fill-rule="evenodd"/></g></svg>