<svg xmlns="http://www.w3.org/2000/svg" xmlns:xlink="http://www.w3.org/1999/xlink" width="800" zoomAndPan="magnify" viewBox="0 0 600 899.99999" height="1200" preserveAspectRatio="xMidYMid meet" version="1.0"><defs><clipPath id="1fb1eae4fb"><path d="M 27.683594 293.734375 L 68.136719 293.734375 L 68.136719 334.1875 L 27.683594 334.1875 Z M 27.683594 293.734375 " clip-rule="nonzero"/></clipPath><clipPath id="277465b69e"><path d="M 47.910156 293.734375 C 36.742188 293.734375 27.683594 302.792969 27.683594 313.960938 C 27.683594 325.132812 36.742188 334.1875 47.910156 334.1875 C 59.082031 334.1875 68.136719 325.132812 68.136719 313.960938 C 68.136719 302.792969 59.082031 293.734375 47.910156 293.734375 Z M 47.910156 293.734375 " clip-rule="nonzero"/></clipPath><clipPath id="40e60f2a35"><path d="M 115.160156 293.734375 L 155.613281 293.734375 L 155.613281 334.1875 L 115.160156 334.1875 Z M 115.160156 293.734375 " clip-rule="nonzero"/></clipPath><clipPath id="a1522f90c8"><path d="M 135.386719 293.734375 C 124.21875 293.734375 115.160156 302.792969 115.160156 313.960938 C 115.160156 325.132812 124.21875 334.1875 135.386719 334.1875 C 146.558594 334.1875 155.613281 325.132812 155.613281 313.960938 C 155.613281 302.792969 146.558594 293.734375 135.386719 293.734375 Z M 135.386719 293.734375 " clip-rule="nonzero"/></clipPath><clipPath id="9a0a6593a3"><path d="M 115.160156 608.988281 L 155.613281 608.988281 L 155.613281 649.441406 L 115.160156 649.441406 Z M 115.160156 608.988281 " clip-rule="nonzero"/></clipPath><clipPath id="c13b82bdb7"><path d="M 135.386719 608.988281 C 124.21875 608.988281 115.160156 618.042969 115.160156 629.214844 C 115.160156 640.386719 124.21875 649.441406 135.386719 649.441406 C 146.558594 649.441406 155.613281 640.386719 155.613281 629.214844 C 155.613281 618.042969 146.558594 608.988281 135.386719 608.988281 Z M 135.386719 608.988281 " clip-rule="nonzero"/></clipPath><clipPath id="c8ff58df86"><path d="M 115.160156 451.363281 L 155.613281 451.363281 L 155.613281 491.816406 L 115.160156 491.816406 Z M 115.160156 451.363281 " clip-rule="nonzero"/></clipPath><clipPath id="3182de72a2"><path d="M 135.386719 451.363281 C 124.21875 451.363281 115.160156 460.417969 115.160156 471.589844 C 115.160156 482.757812 124.21875 491.816406 135.386719 491.816406 C 146.558594 491.816406 155.613281 482.757812 155.613281 471.589844 C 155.613281 460.417969 146.558594 451.363281 135.386719 451.363281 Z M 135.386719 451.363281 " clip-rule="nonzero"/></clipPath><clipPath id="8ca186900a"><path d="M 380.546875 290.257812 L 421 290.257812 L 421 330.710938 L 380.546875 330.710938 Z M 380.546875 290.257812 " clip-rule="nonzero"/></clipPath><clipPath id="b63d4bb3ef"><path d="M 400.773438 290.257812 C 389.601562 290.257812 380.546875 299.3125 380.546875 310.484375 C 380.546875 321.65625 389.601562 330.710938 400.773438 330.710938 C 411.945312 330.710938 421 321.65625 421 310.484375 C 421 299.3125 411.945312 290.257812 400.773438 290.257812 Z M 400.773438 290.257812 " clip-rule="nonzero"/></clipPath><clipPath id="3fe70e40d7"><path d="M 380.546875 618.988281 L 421 618.988281 L 421 659.441406 L 380.546875 659.441406 Z M 380.546875 618.988281 " clip-rule="nonzero"/></clipPath><clipPath id="522b4d2c35"><path d="M 400.773438 618.988281 C 389.601562 618.988281 380.546875 628.046875 380.546875 639.214844 C 380.546875 650.386719 389.601562 659.441406 400.773438 659.441406 C 411.945312 659.441406 421 650.386719 421 639.214844 C 421 628.046875 411.945312 618.988281 400.773438 618.988281 Z M 400.773438 618.988281 " clip-rule="nonzero"/></clipPath><clipPath id="a01d00a4a5"><path d="M 259.542969 534.078125 L 299.996094 534.078125 L 299.996094 574.53125 L 259.542969 574.53125 Z M 259.542969 534.078125 " clip-rule="nonzero"/></clipPath><clipPath id="98e448532b"><path d="M 279.769531 534.078125 C 268.597656 534.078125 259.542969 543.132812 259.542969 554.304688 C 259.542969 565.476562 268.597656 574.53125 279.769531 574.53125 C 290.941406 574.53125 299.996094 565.476562 299.996094 554.304688 C 299.996094 543.132812 290.941406 534.078125 279.769531 534.078125 Z M 279.769531 534.078125 " clip-rule="nonzero"/></clipPath><clipPath id="cbfc0fbfed"><path d="M 507.042969 365.605469 L 547.496094 365.605469 L 547.496094 406.058594 L 507.042969 406.058594 Z M 507.042969 365.605469 " clip-rule="nonzero"/></clipPath><clipPath id="9363687c78"><path d="M 527.269531 365.605469 C 516.097656 365.605469 507.042969 374.660156 507.042969 385.832031 C 507.042969 397 516.097656 406.058594 527.269531 406.058594 C 538.441406 406.058594 547.496094 397 547.496094 385.832031 C 547.496094 374.660156 538.441406 365.605469 527.269531 365.605469 Z M 527.269531 365.605469 " clip-rule="nonzero"/></clipPath><clipPath id="869c690a18"><path d="M 259.542969 365.605469 L 299.996094 365.605469 L 299.996094 406.058594 L 259.542969 406.058594 Z M 259.542969 365.605469 " clip-rule="nonzero"/></clipPath><clipPath id="4d71c4cc08"><path d="M 279.769531 365.605469 C 268.597656 365.605469 259.542969 374.660156 259.542969 385.832031 C 259.542969 397 268.597656 406.058594 279.769531 406.058594 C 290.941406 406.058594 299.996094 397 299.996094 385.832031 C 299.996094 374.660156 290.941406 365.605469 279.769531 365.605469 Z M 279.769531 365.605469 " clip-rule="nonzero"/></clipPath><clipPath id="1da9dcba8f"><path d="M 507.042969 534.078125 L 547.496094 534.078125 L 547.496094 574.53125 L 507.042969 574.53125 Z M 507.042969 534.078125 " clip-rule="nonzero"/></clipPath><clipPath id="10f03b8429"><path d="M 527.269531 534.078125 C 516.097656 534.078125 507.042969 543.132812 507.042969 554.304688 C 507.042969 565.476562 516.097656 574.53125 527.269531 574.53125 C 538.441406 574.53125 547.496094 565.476562 547.496094 554.304688 C 547.496094 543.132812 538.441406 534.078125 527.269531 534.078125 Z M 527.269531 534.078125 " clip-rule="nonzero"/></clipPath></defs><path stroke-linecap="butt" transform="matrix(0.414594, 0, 0, 0.414594, -28.038234, 112.226966)" fill="none" stroke-linejoin="miter" d="M 324.618914 399.156306 L 469.838108 399.156306 L 469.838108 1333.004383 L 296.617134 1333.004383 L 296.617134 537.864992 L 111.67536 578.23768 L 99.945139 442.78896 Z M 1047.464341 1342.765435 C 921.135985 1342.765435 821.49977 1299.792312 748.565119 1213.827222 C 675.621046 1127.871555 639.158431 1011.954358 639.158431 866.075634 C 639.158431 720.206331 675.621046 604.289135 748.565119 518.333467 C 821.49977 432.368378 921.135985 389.385833 1047.464341 389.385833 C 1173.368713 389.385833 1273.004928 432.368378 1346.372985 518.333467 C 1419.750464 604.289135 1456.429782 720.206331 1456.429782 866.075634 C 1456.429782 1011.954358 1419.750464 1127.871555 1346.372985 1213.827222 C 1273.004928 1299.792312 1173.368713 1342.765435 1047.464341 1342.765435 Z M 1047.464341 1183.875116 C 1125.175877 1183.875116 1184.439404 1155.110164 1225.25492 1097.589683 C 1266.061014 1040.05978 1286.468772 962.894711 1286.468772 866.075634 C 1286.468772 768.399167 1266.381357 691.121036 1226.225372 634.241242 C 1186.069386 577.370869 1126.589157 548.935683 1047.794106 548.935683 C 968.999055 548.935683 909.518826 577.370869 869.362841 634.241242 C 829.206855 691.121036 809.119441 768.399167 809.119441 866.075634 C 809.119441 963.328117 829.206855 1040.606248 869.362841 1097.910026 C 909.518826 1155.213805 968.885993 1183.875116 1047.464341 1183.875116 Z M 1047.464341 1183.875116 " stroke="#e45828" stroke-width="21.672462" stroke-opacity="1" stroke-miterlimit="4"/><g clip-path="url(#1fb1eae4fb)"><g clip-path="url(#277465b69e)"><path stroke-linecap="butt" transform="matrix(0.75, 0, 0, 0.75, 27.684954, 293.735277)" fill="none" stroke-linejoin="miter" d="M 26.966938 -0.00120324 C 12.076313 -0.00120324 -0.00181312 12.076922 -0.00181312 26.967548 C -0.00181312 41.863382 12.076313 53.9363 26.966938 53.9363 C 41.862772 53.9363 53.93569 41.863382 53.93569 26.967548 C 53.93569 12.076922 41.862772 -0.00120324 26.966938 -0.00120324 Z M 26.966938 -0.00120324 " stroke="#e45828" stroke-width="10" stroke-opacity="1" stroke-miterlimit="4"/></g></g><g clip-path="url(#40e60f2a35)"><g clip-path="url(#a1522f90c8)"><path stroke-linecap="butt" transform="matrix(0.75, 0, 0, 0.75, 115.161412, 293.735277)" fill="none" stroke-linejoin="miter" d="M 26.967077 -0.00120324 C 12.076451 -0.00120324 -0.00167483 12.076922 -0.00167483 26.967548 C -0.00167483 41.863382 12.076451 53.9363 26.967077 53.9363 C 41.862911 53.9363 53.935828 41.863382 53.935828 26.967548 C 53.935828 12.076922 41.862911 -0.00120324 26.967077 -0.00120324 Z M 26.967077 -0.00120324 " stroke="#e45828" stroke-width="10" stroke-opacity="1" stroke-miterlimit="4"/></g></g><g clip-path="url(#9a0a6593a3)"><g clip-path="url(#c13b82bdb7)"><path stroke-linecap="butt" transform="matrix(0.75, 0, 0, 0.75, 115.161412, 608.988852)" fill="none" stroke-linejoin="miter" d="M 26.967077 -0.000761173 C 12.076451 -0.000761173 -0.00167483 12.072156 -0.00167483 26.96799 C -0.00167483 41.863824 12.076451 53.936742 26.967077 53.936742 C 41.862911 53.936742 53.935828 41.863824 53.935828 26.96799 C 53.935828 12.072156 41.862911 -0.000761173 26.967077 -0.000761173 Z M 26.967077 -0.000761173 " stroke="#e45828" stroke-width="10" stroke-opacity="1" stroke-miterlimit="4"/></g></g><g clip-path="url(#c8ff58df86)"><g clip-path="url(#3182de72a2)"><path stroke-linecap="butt" transform="matrix(0.75, 0, 0, 0.75, 115.161412, 451.362068)" fill="none" stroke-linejoin="miter" d="M 26.967077 0.00161716 C 12.076451 0.00161716 -0.00167483 12.074534 -0.00167483 26.970369 C -0.00167483 41.860994 12.076451 53.93912 26.967077 53.93912 C 41.862911 53.93912 53.935828 41.860994 53.935828 26.970369 C 53.935828 12.074534 41.862911 0.00161716 26.967077 0.00161716 Z M 26.967077 0.00161716 " stroke="#e45828" stroke-width="10" stroke-opacity="1" stroke-miterlimit="4"/></g></g><g clip-path="url(#8ca186900a)"><g clip-path="url(#b63d4bb3ef)"><path stroke-linecap="butt" transform="matrix(0.75, 0, 0, 0.75, 380.546674, 290.25774)" fill="none" stroke-linejoin="miter" d="M 26.96902 0.0000966535 C 12.073186 0.0000966535 0.00026842 12.073014 0.00026842 26.968848 C 0.00026842 41.864682 12.073186 53.937599 26.96902 53.937599 C 41.864854 53.937599 53.937771 41.864682 53.937771 26.968848 C 53.937771 12.073014 41.864854 0.0000966535 26.96902 0.0000966535 Z M 26.96902 0.0000966535 " stroke="#e45828" stroke-width="10" stroke-opacity="1" stroke-miterlimit="4"/></g></g><g clip-path="url(#3fe70e40d7)"><g clip-path="url(#522b4d2c35)"><path stroke-linecap="butt" transform="matrix(0.75, 0, 0, 0.75, 380.546674, 618.989292)" fill="none" stroke-linejoin="miter" d="M 26.96902 -0.00134714 C 12.073186 -0.00134714 0.00026842 12.076778 0.00026842 26.967404 C 0.00026842 41.863238 12.073186 53.936156 26.96902 53.936156 C 41.864854 53.936156 53.937771 41.863238 53.937771 26.967404 C 53.937771 12.076778 41.864854 -0.00134714 26.96902 -0.00134714 Z M 26.96902 -0.00134714 " stroke="#e45828" stroke-width="10" stroke-opacity="1" stroke-miterlimit="4"/></g></g><g clip-path="url(#a01d00a4a5)"><g clip-path="url(#98e448532b)"><path stroke-linecap="butt" transform="matrix(0.75, 0, 0, 0.75, 259.542998, 534.07828)" fill="none" stroke-linejoin="miter" d="M 26.968713 -0.000206733 C 12.072879 -0.000206733 -0.0000384897 12.072711 -0.0000384897 26.968545 C -0.0000384897 41.864379 12.072879 53.937296 26.968713 53.937296 C 41.864547 53.937296 53.937464 41.864379 53.937464 26.968545 C 53.937464 12.072711 41.864547 -0.000206733 26.968713 -0.000206733 Z M 26.968713 -0.000206733 " stroke="#e45828" stroke-width="10" stroke-opacity="1" stroke-miterlimit="4"/></g></g><g clip-path="url(#cbfc0fbfed)"><g clip-path="url(#9363687c78)"><path stroke-linecap="butt" transform="matrix(0.75, 0, 0, 0.75, 507.042985, 365.604025)" fill="none" stroke-linejoin="miter" d="M 26.96873 0.00192518 C 12.072896 0.00192518 -0.0000212197 12.074842 -0.0000212197 26.970677 C -0.0000212197 41.861302 12.072896 53.939428 26.96873 53.939428 C 41.864564 53.939428 53.937482 41.861302 53.937482 26.970677 C 53.937482 12.074842 41.864564 0.00192518 26.96873 0.00192518 Z M 26.96873 0.00192518 " stroke="#e45828" stroke-width="10" stroke-opacity="1" stroke-miterlimit="4"/></g></g><g clip-path="url(#869c690a18)"><g clip-path="url(#4d71c4cc08)"><path stroke-linecap="butt" transform="matrix(0.75, 0, 0, 0.75, 259.542998, 365.604025)" fill="none" stroke-linejoin="miter" d="M 26.968713 0.00192518 C 12.072879 0.00192518 -0.0000384897 12.074842 -0.0000384897 26.970677 C -0.0000384897 41.861302 12.072879 53.939428 26.968713 53.939428 C 41.864547 53.939428 53.937464 41.861302 53.937464 26.970677 C 53.937464 12.074842 41.864547 0.00192518 26.968713 0.00192518 Z M 26.968713 0.00192518 " stroke="#e45828" stroke-width="10" stroke-opacity="1" stroke-miterlimit="4"/></g></g><g clip-path="url(#1da9dcba8f)"><g clip-path="url(#10f03b8429)"><path stroke-linecap="butt" transform="matrix(0.75, 0, 0, 0.75, 507.042985, 534.07828)" fill="none" stroke-linejoin="miter" d="M 26.96873 -0.000206733 C 12.072896 -0.000206733 -0.0000212197 12.072711 -0.0000212197 26.968545 C -0.0000212197 41.864379 12.072896 53.937296 26.96873 53.937296 C 41.864564 53.937296 53.937482 41.864379 53.937482 26.968545 C 53.937482 12.072711 41.864564 -0.000206733 26.96873 -0.000206733 Z M 26.96873 -0.000206733 " stroke="#e45828" stroke-width="10" stroke-opacity="1" stroke-miterlimit="4"/></g></g></svg>