<svg xmlns="http://www.w3.org/2000/svg" xmlns:xlink="http://www.w3.org/1999/xlink" width="2400" zoomAndPan="magnify" viewBox="0 0 1800 1199.999942" height="1600" preserveAspectRatio="xMidYMid meet" version="1.0"><defs><clipPath id="af4531c1a8"><path d="M 1052.113281 215.902344 L 1123.082031 215.902344 L 1123.082031 286.871094 L 1052.113281 286.871094 Z M 1052.113281 215.902344 " clip-rule="nonzero"/></clipPath><clipPath id="efb58e4229"><path d="M 1087.597656 215.902344 C 1068 215.902344 1052.113281 231.789062 1052.113281 251.386719 C 1052.113281 270.984375 1068 286.871094 1087.597656 286.871094 C 1107.195312 286.871094 1123.082031 270.984375 1123.082031 251.386719 C 1123.082031 231.789062 1107.195312 215.902344 1087.597656 215.902344 Z M 1087.597656 215.902344 " clip-rule="nonzero"/></clipPath><clipPath id="12601b368d"><path d="M 1052.113281 817.960938 L 1123.082031 817.960938 L 1123.082031 888.929688 L 1052.113281 888.929688 Z M 1052.113281 817.960938 " clip-rule="nonzero"/></clipPath><clipPath id="ac931dfe7f"><path d="M 1087.597656 817.960938 C 1068 817.960938 1052.113281 833.847656 1052.113281 853.445312 C 1052.113281 873.042969 1068 888.929688 1087.597656 888.929688 C 1107.195312 888.929688 1123.082031 873.042969 1123.082031 853.445312 C 1123.082031 833.847656 1107.195312 817.960938 1087.597656 817.960938 Z M 1087.597656 817.960938 " clip-rule="nonzero"/></clipPath><clipPath id="d240cb6f6d"><path d="M 415.15625 233.355469 L 486.125 233.355469 L 486.125 304.324219 L 415.15625 304.324219 Z M 415.15625 233.355469 " clip-rule="nonzero"/></clipPath><clipPath id="e3ee1f0742"><path d="M 450.640625 233.355469 C 431.042969 233.355469 415.15625 249.242188 415.15625 268.839844 C 415.15625 288.4375 431.042969 304.324219 450.640625 304.324219 C 470.234375 304.324219 486.125 288.4375 486.125 268.839844 C 486.125 249.242188 470.234375 233.355469 450.640625 233.355469 Z M 450.640625 233.355469 " clip-rule="nonzero"/></clipPath><clipPath id="4eb555a834"><path d="M 563.488281 215.902344 L 634.457031 215.902344 L 634.457031 286.871094 L 563.488281 286.871094 Z M 563.488281 215.902344 " clip-rule="nonzero"/></clipPath><clipPath id="4f91f9c177"><path d="M 598.972656 215.902344 C 579.375 215.902344 563.488281 231.789062 563.488281 251.386719 C 563.488281 270.984375 579.375 286.871094 598.972656 286.871094 C 618.570312 286.871094 634.457031 270.984375 634.457031 251.386719 C 634.457031 231.789062 618.570312 215.902344 598.972656 215.902344 Z M 598.972656 215.902344 " clip-rule="nonzero"/></clipPath><clipPath id="e7c3c975d8"><path d="M 563.488281 782.476562 L 634.457031 782.476562 L 634.457031 853.445312 L 563.488281 853.445312 Z M 563.488281 782.476562 " clip-rule="nonzero"/></clipPath><clipPath id="4d8f160294"><path d="M 598.972656 782.476562 C 579.375 782.476562 563.488281 798.363281 563.488281 817.960938 C 563.488281 837.558594 579.375 853.445312 598.972656 853.445312 C 618.570312 853.445312 634.457031 837.558594 634.457031 817.960938 C 634.457031 798.363281 618.570312 782.476562 598.972656 782.476562 Z M 598.972656 782.476562 " clip-rule="nonzero"/></clipPath><clipPath id="28d66de522"><path d="M 563.488281 499.191406 L 634.457031 499.191406 L 634.457031 570.160156 L 563.488281 570.160156 Z M 563.488281 499.191406 " clip-rule="nonzero"/></clipPath><clipPath id="2af8ccfdd9"><path d="M 598.972656 499.191406 C 579.375 499.191406 563.488281 515.078125 563.488281 534.675781 C 563.488281 554.273438 579.375 570.160156 598.972656 570.160156 C 618.570312 570.160156 634.457031 554.273438 634.457031 534.675781 C 634.457031 515.078125 618.570312 499.191406 598.972656 499.191406 Z M 598.972656 499.191406 " clip-rule="nonzero"/></clipPath><clipPath id="42295f38ea"><path d="M 829.03125 647.523438 L 900 647.523438 L 900 718.492188 L 829.03125 718.492188 Z M 829.03125 647.523438 " clip-rule="nonzero"/></clipPath><clipPath id="ee10abe793"><path d="M 864.515625 647.523438 C 844.917969 647.523438 829.03125 663.410156 829.03125 683.007812 C 829.03125 702.605469 844.917969 718.492188 864.515625 718.492188 C 884.113281 718.492188 900 702.605469 900 683.007812 C 900 663.410156 884.113281 647.523438 864.515625 647.523438 Z M 864.515625 647.523438 " clip-rule="nonzero"/></clipPath><clipPath id="c527e13374"><path d="M 1285.519531 383.867188 L 1356.488281 383.867188 L 1356.488281 454.835938 L 1285.519531 454.835938 Z M 1285.519531 383.867188 " clip-rule="nonzero"/></clipPath><clipPath id="91ff6bb5bd"><path d="M 1321.003906 383.867188 C 1301.40625 383.867188 1285.519531 399.753906 1285.519531 419.351562 C 1285.519531 438.949219 1301.40625 454.835938 1321.003906 454.835938 C 1340.601562 454.835938 1356.488281 438.949219 1356.488281 419.351562 C 1356.488281 399.753906 1340.601562 383.867188 1321.003906 383.867188 Z M 1321.003906 383.867188 " clip-rule="nonzero"/></clipPath><clipPath id="cc8ff9dc80"><path d="M 829.03125 383.867188 L 900 383.867188 L 900 454.835938 L 829.03125 454.835938 Z M 829.03125 383.867188 " clip-rule="nonzero"/></clipPath><clipPath id="6d3d6f1737"><path d="M 864.515625 383.867188 C 844.917969 383.867188 829.03125 399.753906 829.03125 419.351562 C 829.03125 438.949219 844.917969 454.835938 864.515625 454.835938 C 884.113281 454.835938 900 438.949219 900 419.351562 C 900 399.753906 884.113281 383.867188 864.515625 383.867188 Z M 864.515625 383.867188 " clip-rule="nonzero"/></clipPath><clipPath id="493c9e5e24"><path d="M 1285.519531 647.523438 L 1356.488281 647.523438 L 1356.488281 718.492188 L 1285.519531 718.492188 Z M 1285.519531 647.523438 " clip-rule="nonzero"/></clipPath><clipPath id="13b5e05f2e"><path d="M 1321.003906 647.523438 C 1301.40625 647.523438 1285.519531 663.410156 1285.519531 683.007812 C 1285.519531 702.605469 1301.40625 718.492188 1321.003906 718.492188 C 1340.601562 718.492188 1356.488281 702.605469 1356.488281 683.007812 C 1356.488281 663.410156 1340.601562 647.523438 1321.003906 647.523438 Z M 1321.003906 647.523438 " clip-rule="nonzero"/></clipPath></defs><path stroke-linecap="butt" transform="matrix(0.75, 0, 0, 0.75, 347.847667, -100.026808)" fill="none" stroke-linejoin="miter" d="M 269.604176 399.155571 L 414.822939 399.155571 L 414.822939 1332.999405 L 241.598965 1332.999405 L 241.598965 537.863917 L 56.65624 578.238921 L 44.932281 442.785783 Z M 992.453199 1342.770239 C 866.114646 1342.770239 766.479221 1299.78586 693.546923 1213.827519 C 620.609416 1127.869178 584.140663 1011.952501 584.140663 866.077488 C 584.140663 720.207683 620.609416 604.291006 693.546923 518.327457 C 766.479221 432.369116 866.114646 389.389945 992.453199 389.389945 C 1118.354252 389.389945 1217.989678 432.369116 1291.359476 518.327457 C 1364.729274 604.291006 1401.416778 720.207683 1401.416778 866.077488 C 1401.416778 1011.952501 1364.729274 1127.869178 1291.359476 1213.827519 C 1217.989678 1299.78586 1118.354252 1342.770239 992.453199 1342.770239 Z M 992.453199 1183.869183 C 1070.166748 1183.869183 1129.42717 1155.108764 1170.234465 1097.587926 C 1211.041761 1040.061879 1231.448012 962.889997 1231.448012 866.077488 C 1231.448012 768.395188 1211.369886 691.119139 1171.213632 634.244134 C 1131.05217 577.374337 1071.572998 548.936835 992.776116 548.936835 C 913.979234 548.936835 854.50527 577.374337 814.343808 634.244134 C 774.187555 691.119139 754.109428 768.395188 754.109428 866.077488 C 754.109428 963.327497 774.187555 1040.603545 814.343808 1097.910842 C 854.50527 1155.218139 913.875067 1183.869183 992.453199 1183.869183 Z M 992.453199 1183.869183 " stroke="#e45828" stroke-width="21.672462" stroke-opacity="1" stroke-miterlimit="4"/><g clip-path="url(#af4531c1a8)"><g clip-path="url(#efb58e4229)"><path stroke-linecap="butt" transform="matrix(0.75, 0, 0, 0.75, 1052.112597, 215.903867)" fill="none" stroke-linejoin="miter" d="M 47.313417 -0.00203105 C 21.183206 -0.00203105 0.000912519 21.180263 0.000912519 47.310473 C 0.000912519 73.440684 21.183206 94.622977 47.313417 94.622977 C 73.443627 94.622977 94.625921 73.440684 94.625921 47.310473 C 94.625921 21.180263 73.443627 -0.00203105 47.313417 -0.00203105 Z M 47.313417 -0.00203105 " stroke="#e45828" stroke-width="20" stroke-opacity="1" stroke-miterlimit="4"/></g></g><g clip-path="url(#12601b368d)"><g clip-path="url(#ac931dfe7f)"><path stroke-linecap="butt" transform="matrix(0.75, 0, 0, 0.75, 1052.112597, 817.960227)" fill="none" stroke-linejoin="miter" d="M 47.313417 0.000947792 C 21.183206 0.000947792 0.000912519 21.183241 0.000912519 47.313452 C 0.000912519 73.443663 21.183206 94.625956 47.313417 94.625956 C 73.443627 94.625956 94.625921 73.443663 94.625921 47.313452 C 94.625921 21.183241 73.443627 0.000947792 47.313417 0.000947792 Z M 47.313417 0.000947792 " stroke="#e45828" stroke-width="20" stroke-opacity="1" stroke-miterlimit="4"/></g></g><g clip-path="url(#d240cb6f6d)"><g clip-path="url(#e3ee1f0742)"><path stroke-linecap="butt" transform="matrix(0.75, 0, 0, 0.75, 415.154454, 233.354724)" fill="none" stroke-linejoin="miter" d="M 47.314899 0.000993166 C 21.184688 0.000993166 0.0023947 21.183287 0.0023947 47.313497 C 0.0023947 73.443708 21.184688 94.626002 47.314899 94.626002 C 73.439901 94.626002 94.627403 73.443708 94.627403 47.313497 C 94.627403 21.183287 73.439901 0.000993166 47.314899 0.000993166 Z M 47.314899 0.000993166 " stroke="#e45828" stroke-width="20" stroke-opacity="1" stroke-miterlimit="4"/></g></g><g clip-path="url(#4eb555a834)"><g clip-path="url(#4f91f9c177)"><path stroke-linecap="butt" transform="matrix(0.75, 0, 0, 0.75, 563.487185, 215.903867)" fill="none" stroke-linejoin="miter" d="M 47.313966 -0.00203105 C 21.183756 -0.00203105 0.0014621 21.180263 0.0014621 47.310473 C 0.0014621 73.440684 21.183756 94.622977 47.313966 94.622977 C 73.444177 94.622977 94.626471 73.440684 94.626471 47.310473 C 94.626471 21.180263 73.444177 -0.00203105 47.313966 -0.00203105 Z M 47.313966 -0.00203105 " stroke="#e45828" stroke-width="20" stroke-opacity="1" stroke-miterlimit="4"/></g></g><g clip-path="url(#e7c3c975d8)"><g clip-path="url(#4d8f160294)"><path stroke-linecap="butt" transform="matrix(0.75, 0, 0, 0.75, 563.487185, 782.47539)" fill="none" stroke-linejoin="miter" d="M 47.313966 0.00156355 C 21.183756 0.00156355 0.0014621 21.183857 0.0014621 47.314068 C 0.0014621 73.444278 21.183756 94.626572 47.313966 94.626572 C 73.444177 94.626572 94.626471 73.444278 94.626471 47.314068 C 94.626471 21.183857 73.444177 0.00156355 47.313966 0.00156355 Z M 47.313966 0.00156355 " stroke="#e45828" stroke-width="20" stroke-opacity="1" stroke-miterlimit="4"/></g></g><g clip-path="url(#28d66de522)"><g clip-path="url(#2af8ccfdd9)"><path stroke-linecap="butt" transform="matrix(0.75, 0, 0, 0.75, 563.487185, 499.189735)" fill="none" stroke-linejoin="miter" d="M 47.313966 0.00222801 C 21.183756 0.00222801 0.0014621 21.184522 0.0014621 47.314732 C 0.0014621 73.444943 21.183756 94.627236 47.313966 94.627236 C 73.444177 94.627236 94.626471 73.444943 94.626471 47.314732 C 94.626471 21.184522 73.444177 0.00222801 47.313966 0.00222801 Z M 47.313966 0.00222801 " stroke="#e45828" stroke-width="20" stroke-opacity="1" stroke-miterlimit="4"/></g></g><g clip-path="url(#42295f38ea)"><g clip-path="url(#ee10abe793)"><path stroke-linecap="butt" transform="matrix(0.75, 0, 0, 0.75, 829.030697, 647.522394)" fill="none" stroke-linejoin="miter" d="M 47.313242 0.00139142 C 21.183031 0.00139142 0.000737515 21.183685 0.000737515 47.313896 C 0.000737515 73.444106 21.183031 94.6264 47.313242 94.6264 C 73.443452 94.6264 94.625746 73.444106 94.625746 47.313896 C 94.625746 21.183685 73.443452 0.00139142 47.313242 0.00139142 Z M 47.313242 0.00139142 " stroke="#e45828" stroke-width="20" stroke-opacity="1" stroke-miterlimit="4"/></g></g><g clip-path="url(#c527e13374)"><g clip-path="url(#91ff6bb5bd)"><path stroke-linecap="butt" transform="matrix(0.75, 0, 0, 0.75, 1285.518552, 383.868812)" fill="none" stroke-linejoin="miter" d="M 47.31381 -0.00216597 C 21.183599 -0.00216597 0.00130576 21.180128 0.00130576 47.310338 C 0.00130576 73.440549 21.183599 94.622843 47.31381 94.622843 C 73.444021 94.622843 94.626314 73.440549 94.626314 47.310338 C 94.626314 21.180128 73.444021 -0.00216597 47.31381 -0.00216597 Z M 47.31381 -0.00216597 " stroke="#e45828" stroke-width="20" stroke-opacity="1" stroke-miterlimit="4"/></g></g><g clip-path="url(#cc8ff9dc80)"><g clip-path="url(#6d3d6f1737)"><path stroke-linecap="butt" transform="matrix(0.75, 0, 0, 0.75, 829.030697, 383.868812)" fill="none" stroke-linejoin="miter" d="M 47.313242 -0.00216597 C 21.183031 -0.00216597 0.000737515 21.180128 0.000737515 47.310338 C 0.000737515 73.440549 21.183031 94.622843 47.313242 94.622843 C 73.443452 94.622843 94.625746 73.440549 94.625746 47.310338 C 94.625746 21.180128 73.443452 -0.00216597 47.313242 -0.00216597 Z M 47.313242 -0.00216597 " stroke="#e45828" stroke-width="20" stroke-opacity="1" stroke-miterlimit="4"/></g></g><g clip-path="url(#493c9e5e24)"><g clip-path="url(#13b5e05f2e)"><path stroke-linecap="butt" transform="matrix(0.75, 0, 0, 0.75, 1285.518552, 647.522394)" fill="none" stroke-linejoin="miter" d="M 47.31381 0.00139142 C 21.183599 0.00139142 0.00130576 21.183685 0.00130576 47.313896 C 0.00130576 73.444106 21.183599 94.6264 47.31381 94.6264 C 73.444021 94.6264 94.626314 73.444106 94.626314 47.313896 C 94.626314 21.183685 73.444021 0.00139142 47.31381 0.00139142 Z M 47.31381 0.00139142 " stroke="#e45828" stroke-width="20" stroke-opacity="1" stroke-miterlimit="4"/></g></g></svg>