<svg xmlns="http://www.w3.org/2000/svg" xmlns:xlink="http://www.w3.org/1999/xlink" width="794" zoomAndPan="magnify" viewBox="0 0 594.95996 842.24997" height="1123" preserveAspectRatio="xMidYMid meet" version="1.0"><defs><clipPath id="a9c0db1bc2"><path d="M 174 156 L 426 156 L 426 598 L 174 598 Z M 174 156 " clip-rule="nonzero"/></clipPath><clipPath id="8319c66648"><path d="M 514.667969 727.246094 L 92.996094 727.246094 L 92.996094 635.914062 L 287.230469 431.648438 C 335.097656 377.121094 359.03125 333.804688 359.03125 301.699219 C 359.03125 275.679688 353.359375 255.890625 342.015625 242.328125 C 330.667969 228.765625 314.207031 221.984375 292.625 221.984375 C 271.320312 221.984375 254.027344 231.050781 240.746094 249.179688 C 227.464844 267.304688 220.824219 289.933594 220.824219 317.058594 L 80.546875 317.058594 C 80.546875 279.96875 89.8125 245.71875 108.351562 214.300781 C 126.890625 182.890625 152.621094 158.324219 185.546875 140.609375 C 218.472656 122.894531 255.273438 114.039062 295.945312 114.039062 C 361.242188 114.039062 411.53125 129.121094 446.808594 159.292969 C 482.085938 189.460938 499.726562 232.78125 499.726562 289.242188 C 499.726562 313.046875 495.300781 336.226562 486.445312 358.785156 C 477.589844 381.34375 463.824219 405.007812 445.148438 429.78125 C 426.472656 454.550781 396.382812 487.699219 354.878906 529.214844 L 276.855469 619.3125 L 514.667969 619.3125 Z M 514.667969 727.246094 " clip-rule="nonzero"/></clipPath><clipPath id="523b41fed5"><path d="M 168 592 L 208 592 L 208 633 L 168 633 Z M 168 592 " clip-rule="nonzero"/></clipPath><clipPath id="5d541bff13"><path d="M 514.667969 727.246094 L 92.996094 727.246094 L 92.996094 635.914062 L 287.230469 431.648438 C 335.097656 377.121094 359.03125 333.804688 359.03125 301.699219 C 359.03125 275.679688 353.359375 255.890625 342.015625 242.328125 C 330.667969 228.765625 314.207031 221.984375 292.625 221.984375 C 271.320312 221.984375 254.027344 231.050781 240.746094 249.179688 C 227.464844 267.304688 220.824219 289.933594 220.824219 317.058594 L 80.546875 317.058594 C 80.546875 279.96875 89.8125 245.71875 108.351562 214.300781 C 126.890625 182.890625 152.621094 158.324219 185.546875 140.609375 C 218.472656 122.894531 255.273438 114.039062 295.945312 114.039062 C 361.242188 114.039062 411.53125 129.121094 446.808594 159.292969 C 482.085938 189.460938 499.726562 232.78125 499.726562 289.242188 C 499.726562 313.046875 495.300781 336.226562 486.445312 358.785156 C 477.589844 381.34375 463.824219 405.007812 445.148438 429.78125 C 426.472656 454.550781 396.382812 487.699219 354.878906 529.214844 L 276.855469 619.3125 L 514.667969 619.3125 Z M 514.667969 727.246094 " clip-rule="nonzero"/></clipPath><clipPath id="258fef7814"><path d="M 165 678 L 454 678 L 454 686 L 165 686 Z M 165 678 " clip-rule="nonzero"/></clipPath><clipPath id="6b0ec16658"><path d="M 514.667969 727.246094 L 92.996094 727.246094 L 92.996094 635.914062 L 287.230469 431.648438 C 335.097656 377.121094 359.03125 333.804688 359.03125 301.699219 C 359.03125 275.679688 353.359375 255.890625 342.015625 242.328125 C 330.667969 228.765625 314.207031 221.984375 292.625 221.984375 C 271.320312 221.984375 254.027344 231.050781 240.746094 249.179688 C 227.464844 267.304688 220.824219 289.933594 220.824219 317.058594 L 80.546875 317.058594 C 80.546875 279.96875 89.8125 245.71875 108.351562 214.300781 C 126.890625 182.890625 152.621094 158.324219 185.546875 140.609375 C 218.472656 122.894531 255.273438 114.039062 295.945312 114.039062 C 361.242188 114.039062 411.53125 129.121094 446.808594 159.292969 C 482.085938 189.460938 499.726562 232.78125 499.726562 289.242188 C 499.726562 313.046875 495.300781 336.226562 486.445312 358.785156 C 477.589844 381.34375 463.824219 405.007812 445.148438 429.78125 C 426.472656 454.550781 396.382812 487.699219 354.878906 529.214844 L 276.855469 619.3125 L 514.667969 619.3125 Z M 514.667969 727.246094 " clip-rule="nonzero"/></clipPath><clipPath id="ec1f38b5c8"><path d="M 449 659 L 485 659 L 485 704 L 449 704 Z M 449 659 " clip-rule="nonzero"/></clipPath><clipPath id="b53d313642"><path d="M 514.667969 727.246094 L 92.996094 727.246094 L 92.996094 635.914062 L 287.230469 431.648438 C 335.097656 377.121094 359.03125 333.804688 359.03125 301.699219 C 359.03125 275.679688 353.359375 255.890625 342.015625 242.328125 C 330.667969 228.765625 314.207031 221.984375 292.625 221.984375 C 271.320312 221.984375 254.027344 231.050781 240.746094 249.179688 C 227.464844 267.304688 220.824219 289.933594 220.824219 317.058594 L 80.546875 317.058594 C 80.546875 279.96875 89.8125 245.71875 108.351562 214.300781 C 126.890625 182.890625 152.621094 158.324219 185.546875 140.609375 C 218.472656 122.894531 255.273438 114.039062 295.945312 114.039062 C 361.242188 114.039062 411.53125 129.121094 446.808594 159.292969 C 482.085938 189.460938 499.726562 232.78125 499.726562 289.242188 C 499.726562 313.046875 495.300781 336.226562 486.445312 358.785156 C 477.589844 381.34375 463.824219 405.007812 445.148438 429.78125 C 426.472656 454.550781 396.382812 487.699219 354.878906 529.214844 L 276.855469 619.3125 L 514.667969 619.3125 Z M 514.667969 727.246094 " clip-rule="nonzero"/></clipPath><clipPath id="b9e18f6402"><path d="M 135 232 L 167 232 L 167 264 L 135 264 Z M 135 232 " clip-rule="nonzero"/></clipPath><clipPath id="1bff3b7603"><path d="M 514.667969 727.246094 L 92.996094 727.246094 L 92.996094 635.914062 L 287.230469 431.648438 C 335.097656 377.121094 359.03125 333.804688 359.03125 301.699219 C 359.03125 275.679688 353.359375 255.890625 342.015625 242.328125 C 330.667969 228.765625 314.207031 221.984375 292.625 221.984375 C 271.320312 221.984375 254.027344 231.050781 240.746094 249.179688 C 227.464844 267.304688 220.824219 289.933594 220.824219 317.058594 L 80.546875 317.058594 C 80.546875 279.96875 89.8125 245.71875 108.351562 214.300781 C 126.890625 182.890625 152.621094 158.324219 185.546875 140.609375 C 218.472656 122.894531 255.273438 114.039062 295.945312 114.039062 C 361.242188 114.039062 411.53125 129.121094 446.808594 159.292969 C 482.085938 189.460938 499.726562 232.78125 499.726562 289.242188 C 499.726562 313.046875 495.300781 336.226562 486.445312 358.785156 C 477.589844 381.34375 463.824219 405.007812 445.148438 429.78125 C 426.472656 454.550781 396.382812 487.699219 354.878906 529.214844 L 276.855469 619.3125 L 514.667969 619.3125 Z M 514.667969 727.246094 " clip-rule="nonzero"/></clipPath><clipPath id="9d684334b0"><path d="M 145 238 L 153 238 L 153 258 L 145 258 Z M 145 238 " clip-rule="nonzero"/></clipPath><clipPath id="beba986740"><path d="M 514.667969 727.246094 L 92.996094 727.246094 L 92.996094 635.914062 L 287.230469 431.648438 C 335.097656 377.121094 359.03125 333.804688 359.03125 301.699219 C 359.03125 275.679688 353.359375 255.890625 342.015625 242.328125 C 330.667969 228.765625 314.207031 221.984375 292.625 221.984375 C 271.320312 221.984375 254.027344 231.050781 240.746094 249.179688 C 227.464844 267.304688 220.824219 289.933594 220.824219 317.058594 L 80.546875 317.058594 C 80.546875 279.96875 89.8125 245.71875 108.351562 214.300781 C 126.890625 182.890625 152.621094 158.324219 185.546875 140.609375 C 218.472656 122.894531 255.273438 114.039062 295.945312 114.039062 C 361.242188 114.039062 411.53125 129.121094 446.808594 159.292969 C 482.085938 189.460938 499.726562 232.78125 499.726562 289.242188 C 499.726562 313.046875 495.300781 336.226562 486.445312 358.785156 C 477.589844 381.34375 463.824219 405.007812 445.148438 429.78125 C 426.472656 454.550781 396.382812 487.699219 354.878906 529.214844 L 276.855469 619.3125 L 514.667969 619.3125 Z M 514.667969 727.246094 " clip-rule="nonzero"/></clipPath><clipPath id="149be1c7ed"><path d="M 135.246094 247.777344 C 135.246094 245.695312 135.644531 243.691406 136.441406 241.765625 C 137.238281 239.839844 138.371094 238.140625 139.84375 236.667969 C 141.316406 235.195312 143.015625 234.058594 144.9375 233.261719 C 146.863281 232.464844 148.867188 232.066406 150.949219 232.066406 C 153.03125 232.066406 155.035156 232.464844 156.960938 233.261719 C 158.882812 234.058594 160.582031 235.195312 162.054688 236.667969 C 163.527344 238.140625 164.660156 239.839844 165.457031 241.765625 C 166.253906 243.691406 166.652344 245.695312 166.652344 247.777344 C 166.652344 249.859375 166.253906 251.863281 165.457031 253.789062 C 164.660156 255.714844 163.527344 257.414062 162.054688 258.886719 C 160.582031 260.359375 158.882812 261.492188 156.960938 262.292969 C 155.035156 263.089844 153.03125 263.488281 150.949219 263.488281 C 148.867188 263.488281 146.863281 263.089844 144.9375 262.292969 C 143.015625 261.492188 141.316406 260.359375 139.84375 258.886719 C 138.371094 257.414062 137.238281 255.714844 136.441406 253.789062 C 135.644531 251.863281 135.246094 249.859375 135.246094 247.777344 Z M 135.246094 247.777344 " clip-rule="nonzero"/></clipPath><clipPath id="53d90558f0"><path d="M 121 665 L 153 665 L 153 698 L 121 698 Z M 121 665 " clip-rule="nonzero"/></clipPath><clipPath id="df9fce10b3"><path d="M 514.667969 727.246094 L 92.996094 727.246094 L 92.996094 635.914062 L 287.230469 431.648438 C 335.097656 377.121094 359.03125 333.804688 359.03125 301.699219 C 359.03125 275.679688 353.359375 255.890625 342.015625 242.328125 C 330.667969 228.765625 314.207031 221.984375 292.625 221.984375 C 271.320312 221.984375 254.027344 231.050781 240.746094 249.179688 C 227.464844 267.304688 220.824219 289.933594 220.824219 317.058594 L 80.546875 317.058594 C 80.546875 279.96875 89.8125 245.71875 108.351562 214.300781 C 126.890625 182.890625 152.621094 158.324219 185.546875 140.609375 C 218.472656 122.894531 255.273438 114.039062 295.945312 114.039062 C 361.242188 114.039062 411.53125 129.121094 446.808594 159.292969 C 482.085938 189.460938 499.726562 232.78125 499.726562 289.242188 C 499.726562 313.046875 495.300781 336.226562 486.445312 358.785156 C 477.589844 381.34375 463.824219 405.007812 445.148438 429.78125 C 426.472656 454.550781 396.382812 487.699219 354.878906 529.214844 L 276.855469 619.3125 L 514.667969 619.3125 Z M 514.667969 727.246094 " clip-rule="nonzero"/></clipPath><clipPath id="d6c0099856"><path d="M 129 671 L 143 671 L 143 692 L 129 692 Z M 129 671 " clip-rule="nonzero"/></clipPath><clipPath id="eebe4eb875"><path d="M 514.667969 727.246094 L 92.996094 727.246094 L 92.996094 635.914062 L 287.230469 431.648438 C 335.097656 377.121094 359.03125 333.804688 359.03125 301.699219 C 359.03125 275.679688 353.359375 255.890625 342.015625 242.328125 C 330.667969 228.765625 314.207031 221.984375 292.625 221.984375 C 271.320312 221.984375 254.027344 231.050781 240.746094 249.179688 C 227.464844 267.304688 220.824219 289.933594 220.824219 317.058594 L 80.546875 317.058594 C 80.546875 279.96875 89.8125 245.71875 108.351562 214.300781 C 126.890625 182.890625 152.621094 158.324219 185.546875 140.609375 C 218.472656 122.894531 255.273438 114.039062 295.945312 114.039062 C 361.242188 114.039062 411.53125 129.121094 446.808594 159.292969 C 482.085938 189.460938 499.726562 232.78125 499.726562 289.242188 C 499.726562 313.046875 495.300781 336.226562 486.445312 358.785156 C 477.589844 381.34375 463.824219 405.007812 445.148438 429.78125 C 426.472656 454.550781 396.382812 487.699219 354.878906 529.214844 L 276.855469 619.3125 L 514.667969 619.3125 Z M 514.667969 727.246094 " clip-rule="nonzero"/></clipPath><clipPath id="e43e30ea3d"><path d="M 121.050781 681.535156 C 121.050781 679.453125 121.449219 677.449219 122.246094 675.523438 C 123.042969 673.597656 124.175781 671.898438 125.648438 670.425781 C 127.121094 668.953125 128.820312 667.816406 130.742188 667.019531 C 132.667969 666.222656 134.671875 665.824219 136.753906 665.824219 C 138.835938 665.824219 140.839844 666.222656 142.765625 667.019531 C 144.6875 667.816406 146.386719 668.953125 147.859375 670.425781 C 149.332031 671.898438 150.464844 673.597656 151.261719 675.523438 C 152.058594 677.449219 152.457031 679.453125 152.457031 681.535156 C 152.457031 683.617188 152.058594 685.621094 151.261719 687.546875 C 150.464844 689.472656 149.332031 691.171875 147.859375 692.644531 C 146.386719 694.117188 144.6875 695.253906 142.765625 696.050781 C 140.839844 696.847656 138.835938 697.246094 136.753906 697.246094 C 134.671875 697.246094 132.667969 696.847656 130.742188 696.050781 C 128.820312 695.253906 127.121094 694.117188 125.648438 692.644531 C 124.175781 691.171875 123.042969 689.472656 122.246094 687.546875 C 121.449219 685.621094 121.050781 683.617188 121.050781 681.535156 Z M 121.050781 681.535156 " clip-rule="nonzero"/></clipPath><clipPath id="8e04d0f1be"><path d="M 77.289062 110.792969 L 517.898438 110.792969 L 517.898438 730.492188 L 77.289062 730.492188 Z M 77.289062 110.792969 " clip-rule="nonzero"/></clipPath></defs><path fill="#ffffff" d="M 514.667969 727.246094 L 92.996094 727.246094 L 92.996094 635.914062 L 287.230469 431.648438 C 335.097656 377.121094 359.03125 333.804688 359.03125 301.699219 C 359.03125 275.679688 353.359375 255.890625 342.015625 242.328125 C 330.667969 228.765625 314.207031 221.984375 292.625 221.984375 C 271.320312 221.984375 254.027344 231.050781 240.746094 249.179688 C 227.464844 267.304688 220.824219 289.933594 220.824219 317.058594 L 80.546875 317.058594 C 80.546875 279.96875 89.8125 245.71875 108.351562 214.300781 C 126.890625 182.890625 152.621094 158.324219 185.546875 140.609375 C 218.472656 122.894531 255.273438 114.039062 295.945312 114.039062 C 361.242188 114.039062 411.53125 129.121094 446.808594 159.292969 C 482.085938 189.460938 499.726562 232.78125 499.726562 289.242188 C 499.726562 313.046875 495.300781 336.226562 486.445312 358.785156 C 477.589844 381.34375 463.824219 405.007812 445.148438 429.78125 C 426.472656 454.550781 396.382812 487.699219 354.878906 529.214844 L 276.855469 619.3125 L 514.667969 619.3125 Z M 514.667969 727.246094 " fill-opacity="1" fill-rule="nonzero"/><g clip-path="url(#a9c0db1bc2)"><g clip-path="url(#8319c66648)"><path fill="#000000" d="M 208.585938 583.917969 C 205.832031 586.847656 203.3125 589.527344 201.074219 591.902344 C 199.746094 593.3125 199.8125 595.539062 201.222656 596.863281 C 202.632812 598.195312 204.855469 598.125 206.183594 596.71875 C 208.425781 594.335938 210.941406 591.660156 213.699219 588.726562 C 215.027344 587.316406 214.957031 585.089844 213.546875 583.765625 C 212.136719 582.4375 209.914062 582.507812 208.585938 583.917969 Z M 229.828125 561.265625 C 227.246094 564.027344 224.742188 566.699219 222.332031 569.269531 C 221.007812 570.683594 221.082031 572.90625 222.492188 574.230469 C 223.90625 575.558594 226.128906 575.484375 227.453125 574.074219 C 229.863281 571.5 232.367188 568.824219 234.953125 566.066406 C 236.277344 564.648438 236.199219 562.425781 234.789062 561.105469 C 233.375 559.777344 231.152344 559.851562 229.828125 561.265625 Z M 251.019531 538.570312 C 248.492188 541.285156 245.996094 543.960938 243.542969 546.589844 C 242.21875 548.007812 242.296875 550.230469 243.710938 551.550781 C 245.128906 552.875 247.351562 552.796875 248.671875 551.378906 C 251.128906 548.75 253.621094 546.070312 256.152344 543.355469 C 257.472656 541.9375 257.394531 539.714844 255.976562 538.394531 C 254.558594 537.074219 252.339844 537.152344 251.019531 538.570312 Z M 272.148438 515.820312 C 269.652344 518.511719 267.167969 521.195312 264.695312 523.859375 C 263.375 525.277344 263.457031 527.5 264.878906 528.820312 C 266.296875 530.136719 268.519531 530.054688 269.835938 528.636719 C 272.3125 525.972656 274.800781 523.285156 277.296875 520.589844 C 278.613281 519.167969 278.527344 516.945312 277.105469 515.628906 C 275.6875 514.3125 273.464844 514.398438 272.148438 515.820312 Z M 293.199219 493 C 290.738281 495.679688 288.261719 498.371094 285.777344 501.066406 C 284.460938 502.492188 284.554688 504.714844 285.976562 506.027344 C 287.402344 507.339844 289.621094 507.25 290.9375 505.824219 C 293.421875 503.128906 295.902344 500.433594 298.367188 497.75 C 299.675781 496.328125 299.585938 494.101562 298.15625 492.792969 C 296.730469 491.480469 294.511719 491.574219 293.199219 493 Z M 314.144531 470.089844 C 311.722656 472.757812 309.257812 475.460938 306.765625 478.195312 C 305.457031 479.625 305.558594 481.84375 306.988281 483.152344 C 308.417969 484.457031 310.640625 484.359375 311.945312 482.925781 C 314.441406 480.191406 316.910156 477.480469 319.335938 474.8125 C 320.636719 473.378906 320.53125 471.15625 319.101562 469.855469 C 317.667969 468.550781 315.445312 468.65625 314.144531 470.089844 Z M 334.910156 447.039062 C 332.554688 449.679688 330.117188 452.40625 327.605469 455.199219 C 326.308594 456.640625 326.429688 458.863281 327.867188 460.160156 C 329.308594 461.453125 331.527344 461.335938 332.824219 459.894531 C 335.34375 457.089844 337.789062 454.359375 340.148438 451.710938 C 341.4375 450.265625 341.308594 448.042969 339.863281 446.753906 C 338.417969 445.464844 336.199219 445.59375 334.910156 447.039062 Z M 355.054688 423.621094 C 352.808594 426.398438 350.492188 429.191406 348.105469 432 C 346.851562 433.472656 347.03125 435.691406 348.507812 436.945312 C 349.980469 438.199219 352.199219 438.019531 353.453125 436.546875 C 355.875 433.695312 358.226562 430.859375 360.507812 428.039062 C 361.726562 426.535156 361.496094 424.320312 359.988281 423.101562 C 358.484375 421.882812 356.273438 422.117188 355.054688 423.621094 Z M 373.515625 398.992188 C 371.496094 401.921875 369.398438 404.875 367.21875 407.84375 C 366.074219 409.410156 366.414062 411.605469 367.976562 412.75 C 369.539062 413.898438 371.734375 413.558594 372.878906 411.996094 C 375.097656 408.96875 377.238281 405.960938 379.292969 402.976562 C 380.394531 401.378906 379.992188 399.191406 378.398438 398.09375 C 376.804688 396.992188 374.617188 397.394531 373.515625 398.992188 Z M 389.796875 372.933594 C 388.066406 376.03125 386.242188 379.152344 384.332031 382.300781 C 383.328125 383.957031 383.855469 386.121094 385.511719 387.125 C 387.167969 388.128906 389.328125 387.601562 390.332031 385.945312 C 392.285156 382.722656 394.148438 379.53125 395.917969 376.363281 C 396.867188 374.671875 396.261719 372.535156 394.570312 371.585938 C 392.882812 370.640625 390.742188 371.246094 389.796875 372.933594 Z M 403.257812 345.40625 C 401.894531 348.667969 400.4375 351.960938 398.875 355.296875 C 398.050781 357.046875 398.804688 359.140625 400.558594 359.964844 C 402.3125 360.785156 404.40625 360.03125 405.226562 358.277344 C 406.832031 354.851562 408.335938 351.460938 409.730469 348.113281 C 410.480469 346.320312 409.632812 344.265625 407.847656 343.519531 C 406.058594 342.773438 404.003906 343.621094 403.257812 345.40625 Z M 413.046875 316.484375 C 412.167969 319.886719 411.179688 323.339844 410.070312 326.84375 C 409.484375 328.6875 410.511719 330.664062 412.359375 331.246094 C 414.207031 331.832031 416.179688 330.808594 416.761719 328.960938 C 417.910156 325.335938 418.933594 321.757812 419.839844 318.234375 C 420.324219 316.359375 419.195312 314.445312 417.316406 313.960938 C 415.441406 313.476562 413.527344 314.609375 413.046875 316.484375 Z M 418.0625 286.507812 C 417.808594 289.992188 417.429688 293.546875 416.914062 297.175781 C 416.644531 299.089844 417.980469 300.871094 419.894531 301.140625 C 421.8125 301.414062 423.589844 300.078125 423.863281 298.160156 C 424.398438 294.375 424.796875 290.660156 425.0625 287.019531 C 425.207031 285.085938 423.753906 283.402344 421.820312 283.261719 C 419.890625 283.121094 418.207031 284.574219 418.0625 286.507812 Z M 417.042969 256.300781 C 417.554688 259.734375 417.9375 263.277344 418.175781 266.910156 C 418.300781 268.84375 419.972656 270.3125 421.90625 270.183594 C 423.835938 270.058594 425.304688 268.386719 425.179688 266.453125 C 424.925781 262.621094 424.523438 258.886719 423.980469 255.257812 C 423.695312 253.34375 421.90625 252.019531 419.992188 252.308594 C 418.074219 252.59375 416.753906 254.382812 417.042969 256.300781 Z M 408.769531 227.433594 C 410.175781 230.59375 411.449219 233.894531 412.578125 237.335938 C 413.183594 239.175781 415.167969 240.183594 417.007812 239.574219 C 418.847656 238.972656 419.851562 236.984375 419.246094 235.144531 C 418.042969 231.476562 416.679688 227.953125 415.1875 224.582031 C 414.398438 222.8125 412.324219 222.011719 410.554688 222.800781 C 408.78125 223.585938 407.984375 225.660156 408.769531 227.433594 Z M 181.007812 226.007812 C 181.980469 224.679688 184.246094 221.695312 187.714844 217.710938 C 188.988281 216.25 188.835938 214.03125 187.375 212.757812 C 185.914062 211.488281 183.695312 211.640625 182.425781 213.101562 C 178.765625 217.304688 176.375 220.457031 175.347656 221.859375 C 174.203125 223.421875 174.539062 225.617188 176.101562 226.765625 C 177.664062 227.910156 179.859375 227.574219 181.007812 226.007812 Z M 392.574219 202.433594 C 394.894531 204.960938 397.109375 207.6875 399.203125 210.613281 C 400.332031 212.191406 402.523438 212.554688 404.097656 211.429688 C 405.675781 210.300781 406.039062 208.105469 404.914062 206.53125 C 402.648438 203.363281 400.25 200.414062 397.738281 197.683594 C 396.429688 196.257812 394.207031 196.164062 392.78125 197.472656 C 391.355469 198.785156 391.261719 201.007812 392.574219 202.433594 Z M 201.460938 203.601562 C 203.960938 201.300781 206.667969 198.933594 209.582031 196.550781 C 211.082031 195.328125 211.308594 193.113281 210.082031 191.613281 C 208.859375 190.113281 206.644531 189.890625 205.144531 191.113281 C 202.117188 193.585938 199.304688 196.046875 196.707031 198.4375 C 195.28125 199.753906 195.191406 201.972656 196.5 203.398438 C 197.8125 204.824219 200.035156 204.917969 201.460938 203.601562 Z M 368.777344 184.40625 C 371.820312 186.15625 374.886719 188.03125 377.980469 190.03125 C 379.605469 191.085938 381.78125 190.617188 382.832031 188.992188 C 383.882812 187.363281 383.417969 185.191406 381.792969 184.136719 C 378.59375 182.070312 375.421875 180.132812 372.28125 178.324219 C 370.601562 177.355469 368.457031 177.933594 367.488281 179.613281 C 366.523438 181.292969 367.101562 183.441406 368.777344 184.40625 Z M 225.503906 185 C 228.449219 183.121094 231.527344 181.289062 234.730469 179.542969 C 236.433594 178.617188 237.0625 176.484375 236.136719 174.78125 C 235.207031 173.082031 233.074219 172.453125 231.375 173.378906 C 228.023438 175.203125 224.808594 177.117188 221.730469 179.082031 C 220.097656 180.125 219.617188 182.296875 220.660156 183.929688 C 221.699219 185.5625 223.871094 186.042969 225.503906 185 Z M 341.253906 171.5 C 344.535156 172.6875 347.855469 174.011719 351.214844 175.488281 C 352.988281 176.269531 355.058594 175.460938 355.839844 173.6875 C 356.617188 171.914062 355.808594 169.839844 354.035156 169.0625 C 350.53125 167.519531 347.066406 166.136719 343.640625 164.898438 C 341.820312 164.238281 339.804688 165.183594 339.144531 167.007812 C 338.488281 168.828125 339.433594 170.84375 341.253906 171.5 Z M 252.53125 171.363281 C 255.808594 170.128906 259.191406 169.003906 262.664062 168.015625 C 264.527344 167.484375 265.605469 165.539062 265.078125 163.675781 C 264.546875 161.8125 262.601562 160.734375 260.742188 161.261719 C 257.078125 162.308594 253.515625 163.492188 250.058594 164.792969 C 248.246094 165.476562 247.328125 167.503906 248.011719 169.316406 C 248.691406 171.128906 250.714844 172.046875 252.53125 171.363281 Z M 311.902344 164.300781 C 315.351562 164.742188 318.863281 165.335938 322.425781 166.09375 C 324.320312 166.496094 326.183594 165.285156 326.585938 163.390625 C 326.988281 161.496094 325.777344 159.628906 323.882812 159.226562 C 320.128906 158.429688 316.433594 157.800781 312.792969 157.335938 C 310.871094 157.089844 309.113281 158.449219 308.867188 160.371094 C 308.621094 162.292969 309.980469 164.054688 311.902344 164.300781 Z M 281.789062 164.152344 C 285.257812 163.734375 288.796875 163.460938 292.414062 163.347656 C 294.347656 163.289062 295.871094 161.667969 295.8125 159.730469 C 295.75 157.792969 294.128906 156.269531 292.195312 156.332031 C 288.367188 156.449219 284.621094 156.742188 280.953125 157.179688 C 279.03125 157.410156 277.65625 159.160156 277.886719 161.082031 C 278.121094 163.007812 279.867188 164.378906 281.789062 164.152344 Z M 281.789062 164.152344 " fill-opacity="1" fill-rule="evenodd"/></g></g><g clip-path="url(#523b41fed5)"><g clip-path="url(#5d541bff13)"><path fill="#000000" d="M 176.277344 592.332031 L 207.972656 621.617188 L 168.460938 632.152344 Z M 176.277344 592.332031 " fill-opacity="1" fill-rule="evenodd"/></g></g><g clip-path="url(#258fef7814)"><g clip-path="url(#6b0ec16658)"><path fill="#000000" d="M 200.480469 685.375 L 211.449219 685.375 C 213.382812 685.375 214.957031 683.800781 214.957031 681.863281 C 214.957031 679.925781 213.382812 678.355469 211.449219 678.355469 L 200.480469 678.355469 C 198.542969 678.355469 196.972656 679.925781 196.972656 681.863281 C 196.972656 683.800781 198.542969 685.375 200.480469 685.375 Z M 293.640625 685.375 L 304.609375 685.375 C 306.546875 685.375 308.117188 683.800781 308.117188 681.863281 C 308.117188 679.925781 306.546875 678.355469 304.609375 678.355469 L 293.640625 678.355469 C 291.707031 678.355469 290.136719 679.925781 290.136719 681.863281 C 290.136719 683.800781 291.707031 685.375 293.640625 685.375 Z M 386.804688 685.375 L 397.769531 685.375 C 399.707031 685.375 401.277344 683.800781 401.277344 681.863281 C 401.277344 679.925781 399.707031 678.355469 397.769531 678.355469 L 386.804688 678.355469 C 384.867188 678.355469 383.296875 679.925781 383.296875 681.863281 C 383.296875 683.800781 384.867188 685.375 386.804688 685.375 Z M 417.859375 685.375 L 428.824219 685.375 C 430.757812 685.375 432.332031 683.800781 432.332031 681.863281 C 432.332031 679.925781 430.757812 678.355469 428.824219 678.355469 L 417.859375 678.355469 C 415.921875 678.355469 414.347656 679.925781 414.347656 681.863281 C 414.347656 683.800781 415.921875 685.375 417.859375 685.375 Z M 169.429688 685.375 L 180.394531 685.375 C 182.332031 685.375 183.902344 683.800781 183.902344 681.863281 C 183.902344 679.925781 182.332031 678.355469 180.394531 678.355469 L 169.429688 678.355469 C 167.492188 678.355469 165.921875 679.925781 165.921875 681.863281 C 165.921875 683.800781 167.492188 685.375 169.429688 685.375 Z M 231.539062 685.375 L 242.5 685.375 C 244.4375 685.375 246.011719 683.800781 246.011719 681.863281 C 246.011719 679.925781 244.4375 678.355469 242.5 678.355469 L 231.539062 678.355469 C 229.597656 678.355469 228.027344 679.925781 228.027344 681.863281 C 228.027344 683.800781 229.597656 685.375 231.539062 685.375 Z M 324.699219 685.375 L 335.660156 685.375 C 337.597656 685.375 339.171875 683.800781 339.171875 681.863281 C 339.171875 679.925781 337.597656 678.355469 335.660156 678.355469 L 324.699219 678.355469 C 322.757812 678.355469 321.1875 679.925781 321.1875 681.863281 C 321.1875 683.800781 322.757812 685.375 324.699219 685.375 Z M 355.75 685.375 L 366.714844 685.375 C 368.652344 685.375 370.226562 683.800781 370.226562 681.863281 C 370.226562 679.925781 368.652344 678.355469 366.714844 678.355469 L 355.75 678.355469 C 353.816406 678.355469 352.242188 679.925781 352.242188 681.863281 C 352.242188 683.800781 353.816406 685.375 355.75 685.375 Z M 448.914062 685.375 L 449.90625 685.375 C 451.839844 685.375 453.414062 683.800781 453.414062 681.863281 C 453.414062 679.925781 451.839844 678.355469 449.90625 678.355469 L 448.914062 678.355469 C 446.976562 678.355469 445.402344 679.925781 445.402344 681.863281 C 445.402344 683.800781 446.976562 685.375 448.914062 685.375 Z M 262.589844 685.375 L 273.554688 685.375 C 275.492188 685.375 277.066406 683.800781 277.066406 681.863281 C 277.066406 679.925781 275.492188 678.355469 273.554688 678.355469 L 262.589844 678.355469 C 260.65625 678.355469 259.082031 679.925781 259.082031 681.863281 C 259.082031 683.800781 260.65625 685.375 262.589844 685.375 Z M 262.589844 685.375 " fill-opacity="1" fill-rule="evenodd"/></g></g><g clip-path="url(#ec1f38b5c8)"><g clip-path="url(#b53d313642)"><path fill="#000000" d="M 449.90625 703.109375 L 449.90625 659.949219 L 484.453125 681.832031 Z M 449.90625 703.109375 " fill-opacity="1" fill-rule="evenodd"/></g></g><g clip-path="url(#b9e18f6402)"><g clip-path="url(#1bff3b7603)"><path fill="#000000" d="M 166.652344 247.777344 C 166.652344 248.808594 166.554688 249.832031 166.351562 250.84375 C 166.152344 251.855469 165.851562 252.835938 165.457031 253.789062 C 165.0625 254.742188 164.578125 255.648438 164.007812 256.503906 C 163.433594 257.363281 162.785156 258.15625 162.054688 258.886719 C 161.324219 259.613281 160.53125 260.265625 159.675781 260.839844 C 158.816406 261.414062 157.910156 261.898438 156.960938 262.292969 C 156.007812 262.6875 155.023438 262.984375 154.011719 263.183594 C 153 263.386719 151.980469 263.488281 150.949219 263.488281 C 149.917969 263.488281 148.898438 263.386719 147.886719 263.183594 C 146.875 262.984375 145.890625 262.6875 144.9375 262.292969 C 143.988281 261.898438 143.082031 261.414062 142.222656 260.839844 C 141.367188 260.265625 140.574219 259.613281 139.84375 258.886719 C 139.113281 258.15625 138.464844 257.363281 137.890625 256.503906 C 137.316406 255.648438 136.835938 254.742188 136.441406 253.789062 C 136.046875 252.835938 135.746094 251.855469 135.546875 250.84375 C 135.34375 249.832031 135.246094 248.808594 135.246094 247.777344 C 135.246094 246.746094 135.34375 245.722656 135.546875 244.710938 C 135.746094 243.699219 136.046875 242.71875 136.441406 241.765625 C 136.835938 240.8125 137.316406 239.90625 137.890625 239.046875 C 138.464844 238.191406 139.113281 237.398438 139.84375 236.667969 C 140.574219 235.9375 141.367188 235.289062 142.222656 234.714844 C 143.082031 234.140625 143.988281 233.65625 144.9375 233.261719 C 145.890625 232.867188 146.875 232.570312 147.886719 232.367188 C 148.898438 232.167969 149.917969 232.066406 150.949219 232.066406 C 151.980469 232.066406 153 232.167969 154.011719 232.367188 C 155.023438 232.570312 156.007812 232.867188 156.960938 233.261719 C 157.910156 233.65625 158.816406 234.140625 159.675781 234.714844 C 160.53125 235.289062 161.324219 235.9375 162.054688 236.667969 C 162.785156 237.398438 163.433594 238.191406 164.007812 239.046875 C 164.578125 239.90625 165.0625 240.8125 165.457031 241.765625 C 165.851562 242.71875 166.152344 243.699219 166.351562 244.710938 C 166.554688 245.722656 166.652344 246.746094 166.652344 247.777344 Z M 166.652344 247.777344 " fill-opacity="1" fill-rule="nonzero"/></g></g><g clip-path="url(#9d684334b0)"><g clip-path="url(#beba986740)"><g clip-path="url(#149be1c7ed)"><path fill="#ffffff" d="M 152.574219 257.460938 L 150.113281 257.460938 L 150.113281 241.136719 L 145.175781 242.953125 L 145.175781 240.726562 L 152.191406 238.09375 L 152.574219 238.09375 Z M 152.574219 257.460938 " fill-opacity="1" fill-rule="nonzero"/></g></g></g><g clip-path="url(#53d90558f0)"><g clip-path="url(#df9fce10b3)"><path fill="#000000" d="M 152.457031 681.535156 C 152.457031 682.566406 152.359375 683.589844 152.15625 684.601562 C 151.957031 685.613281 151.65625 686.59375 151.261719 687.546875 C 150.867188 688.5 150.382812 689.40625 149.8125 690.261719 C 149.238281 691.121094 148.589844 691.914062 147.859375 692.644531 C 147.128906 693.375 146.335938 694.023438 145.480469 694.597656 C 144.621094 695.171875 143.714844 695.65625 142.765625 696.050781 C 141.8125 696.445312 140.828125 696.742188 139.816406 696.945312 C 138.804688 697.144531 137.785156 697.246094 136.753906 697.246094 C 135.722656 697.246094 134.703125 697.144531 133.691406 696.945312 C 132.679688 696.742188 131.695312 696.445312 130.742188 696.050781 C 129.792969 695.65625 128.886719 695.171875 128.027344 694.597656 C 127.171875 694.023438 126.378906 693.375 125.648438 692.644531 C 124.917969 691.914062 124.269531 691.121094 123.695312 690.261719 C 123.121094 689.40625 122.640625 688.5 122.246094 687.546875 C 121.851562 686.59375 121.550781 685.613281 121.351562 684.601562 C 121.148438 683.589844 121.050781 682.566406 121.050781 681.535156 C 121.050781 680.503906 121.148438 679.480469 121.351562 678.46875 C 121.550781 677.457031 121.851562 676.476562 122.246094 675.523438 C 122.640625 674.570312 123.121094 673.664062 123.695312 672.808594 C 124.269531 671.949219 124.917969 671.15625 125.648438 670.425781 C 126.378906 669.695312 127.171875 669.046875 128.027344 668.472656 C 128.886719 667.898438 129.792969 667.414062 130.742188 667.019531 C 131.695312 666.625 132.679688 666.328125 133.691406 666.128906 C 134.703125 665.925781 135.722656 665.824219 136.753906 665.824219 C 137.785156 665.824219 138.804688 665.925781 139.816406 666.128906 C 140.828125 666.328125 141.8125 666.625 142.765625 667.019531 C 143.714844 667.414062 144.621094 667.898438 145.480469 668.472656 C 146.335938 669.046875 147.128906 669.695312 147.859375 670.425781 C 148.589844 671.15625 149.238281 671.949219 149.8125 672.808594 C 150.382812 673.664062 150.867188 674.570312 151.261719 675.523438 C 151.65625 676.476562 151.957031 677.457031 152.15625 678.46875 C 152.359375 679.480469 152.457031 680.503906 152.457031 681.535156 Z M 152.457031 681.535156 " fill-opacity="1" fill-rule="nonzero"/></g></g><g clip-path="url(#d6c0099856)"><g clip-path="url(#eebe4eb875)"><g clip-path="url(#e43e30ea3d)"><path fill="#ffffff" d="M 142.957031 691.21875 L 130.332031 691.21875 L 130.332031 689.460938 L 137.003906 682.046875 C 137.992188 680.925781 138.671875 680.011719 139.046875 679.3125 C 139.421875 678.609375 139.609375 677.882812 139.609375 677.132812 C 139.609375 676.128906 139.304688 675.300781 138.695312 674.65625 C 138.089844 674.011719 137.277344 673.691406 136.261719 673.691406 C 135.042969 673.691406 134.097656 674.039062 133.421875 674.730469 C 132.75 675.421875 132.410156 676.386719 132.410156 677.625 L 129.960938 677.625 C 129.960938 675.847656 130.535156 674.414062 131.675781 673.320312 C 132.820312 672.226562 134.347656 671.679688 136.261719 671.679688 C 138.054688 671.679688 139.46875 672.148438 140.511719 673.089844 C 141.550781 674.027344 142.070312 675.28125 142.070312 676.84375 C 142.070312 678.738281 140.863281 681 138.445312 683.621094 L 133.285156 689.222656 L 142.957031 689.222656 Z M 142.957031 691.21875 " fill-opacity="1" fill-rule="nonzero"/></g></g></g><g clip-path="url(#8e04d0f1be)"><path fill="#000000" d="M 514.667969 730.5 C 516.457031 730.5 517.90625 729.054688 517.90625 727.246094 L 517.90625 619.3125 C 517.90625 617.527344 516.457031 616.058594 514.667969 616.058594 L 283.945312 616.058594 C 283.945312 616.058594 354.613281 534.46875 357.253906 531.425781 C 398.851562 489.804688 429.007812 456.570312 447.734375 431.730469 C 466.609375 406.695312 480.511719 382.765625 489.457031 359.96875 C 498.464844 337.027344 502.964844 313.453125 502.964844 289.242188 C 502.964844 231.6875 484.875 187.582031 448.914062 156.832031 C 413.132812 126.230469 362.171875 110.796875 295.945312 110.796875 C 254.707031 110.796875 217.398438 119.796875 184.011719 137.757812 C 150.550781 155.757812 124.402344 180.730469 105.5625 212.65625 C 86.726562 244.574219 77.304688 279.375 77.304688 317.058594 C 77.304688 318.847656 78.757812 320.300781 80.546875 320.300781 L 220.824219 320.300781 C 222.613281 320.300781 224.0625 318.847656 224.0625 317.058594 C 224.0625 290.707031 230.457031 268.707031 243.359375 251.09375 C 255.976562 233.871094 272.386719 225.222656 292.625 225.222656 C 313.101562 225.222656 328.769531 231.539062 339.53125 244.40625 C 350.46875 257.484375 355.792969 276.609375 355.792969 301.699219 C 355.792969 333.304688 331.949219 375.789062 284.839844 429.464844 C 284.839844 429.464844 90.648438 633.679688 90.648438 633.679688 C 90.074219 634.277344 89.757812 635.082031 89.757812 635.914062 L 89.757812 727.246094 C 89.757812 729.054688 91.207031 730.5 92.996094 730.5 Z M 511.429688 724.015625 L 96.234375 724.015625 C 96.234375 724.015625 96.234375 648.09375 96.234375 637.210938 C 96.234375 637.210938 289.578125 433.882812 289.578125 433.882812 C 289.605469 433.851562 289.636719 433.816406 289.664062 433.785156 C 338.257812 378.429688 362.269531 334.292969 362.269531 301.699219 C 362.269531 274.75 356.246094 254.296875 344.496094 240.25 C 332.570312 225.992188 315.3125 218.746094 292.625 218.746094 C 270.257812 218.746094 252.078125 228.226562 238.132812 247.261719 C 225.007812 265.179688 218.132812 287.355469 217.617188 313.820312 C 217.617188 313.820312 83.808594 313.820312 83.808594 313.820312 C 84.332031 278.566406 93.441406 245.945312 111.140625 215.949219 C 129.378906 185.050781 154.695312 160.886719 187.082031 143.464844 C 219.546875 125.996094 255.839844 117.277344 295.945312 117.277344 C 360.316406 117.277344 409.929688 132.015625 444.703125 161.753906 C 479.300781 191.34375 496.488281 233.867188 496.488281 289.242188 C 496.488281 312.640625 492.132812 335.425781 483.429688 357.601562 C 474.671875 379.917969 461.039062 403.320312 442.5625 427.828125 C 423.949219 452.519531 393.953125 485.542969 352.589844 526.925781 C 352.535156 526.976562 352.484375 527.035156 352.433594 527.09375 L 274.40625 617.1875 C 273.574219 618.144531 273.382812 619.503906 273.910156 620.652344 C 274.4375 621.800781 275.585938 622.542969 276.855469 622.542969 L 511.429688 622.542969 Z M 511.429688 724.015625 " fill-opacity="1" fill-rule="evenodd"/></g></svg>