<svg xmlns="http://www.w3.org/2000/svg" xmlns:xlink="http://www.w3.org/1999/xlink" width="800" zoomAndPan="magnify" viewBox="0 0 600 899.99999" height="1200" preserveAspectRatio="xMidYMid meet" version="1.0"><defs><clipPath id="20b744aed8"><path d="M 119.488281 181.300781 L 179.488281 181.300781 L 179.488281 241.300781 L 119.488281 241.300781 Z M 119.488281 181.300781 " clip-rule="nonzero"/></clipPath><clipPath id="e9525aa116"><path d="M 149.488281 181.300781 C 132.917969 181.300781 119.488281 194.734375 119.488281 211.300781 C 119.488281 227.871094 132.917969 241.300781 149.488281 241.300781 C 166.058594 241.300781 179.488281 227.871094 179.488281 211.300781 C 179.488281 194.734375 166.058594 181.300781 149.488281 181.300781 Z M 149.488281 181.300781 " clip-rule="nonzero"/></clipPath><clipPath id="de7d1527fb"><path d="M 434.742188 636.726562 L 494.742188 636.726562 L 494.742188 696.726562 L 434.742188 696.726562 Z M 434.742188 636.726562 " clip-rule="nonzero"/></clipPath><clipPath id="7612a2754f"><path d="M 464.742188 636.726562 C 448.171875 636.726562 434.742188 650.15625 434.742188 666.726562 C 434.742188 683.292969 448.171875 696.726562 464.742188 696.726562 C 481.308594 696.726562 494.742188 683.292969 494.742188 666.726562 C 494.742188 650.15625 481.308594 636.726562 464.742188 636.726562 Z M 464.742188 636.726562 " clip-rule="nonzero"/></clipPath></defs><path stroke-linecap="butt" transform="matrix(0.656476, 0, 0, 0.656476, 13.996878, -162.820752)" fill="none" stroke-linejoin="miter" d="M 321.048829 1194.291284 L 774.29732 1194.291284 L 774.29732 1332.999412 L 107.449854 1332.999412 L 107.449854 1194.93987 L 106.801268 1194.93987 L 107.449854 1194.291284 C 230.312256 1096.610676 307.809346 1033.876353 339.935174 1006.088315 C 464.969446 898.423055 543.549496 808.989604 575.675324 737.787963 C 588.266221 709.137126 594.341508 682.437998 593.907134 657.690578 C 593.907134 617.311643 579.584691 584.971603 550.927904 560.658557 C 522.277068 536.345511 483.855791 524.188988 435.664074 524.188988 C 353.609031 524.188988 300.645149 564.347761 276.766477 644.665307 L 104.195024 630.99145 C 115.917173 552.4114 151.517994 492.390428 210.991536 450.928532 C 270.471029 409.466637 345.361875 388.73569 435.664074 388.73569 C 499.915731 388.73569 556.461711 397.530276 605.307965 415.1135 C 654.148269 432.696723 693.438294 460.806079 723.17804 499.441568 C 752.911836 538.083007 767.781709 585.185815 767.781709 640.755941 C 767.781709 669.847101 763.009545 699.25958 753.459266 728.999326 C 743.903037 758.739072 732.293945 786.193892 718.614137 811.375686 C 704.94028 836.55748 685.619561 863.690982 660.657929 892.776192 C 635.696297 921.867353 613.120747 946.828985 592.93128 967.667038 C 572.741812 988.505092 545.721366 1013.252512 511.858042 1041.909298 C 477.994717 1070.560134 450.533947 1093.135684 429.475731 1109.629997 C 408.423466 1126.13026 379.873785 1148.271436 343.844541 1176.059474 C 333.853938 1184.306631 326.261317 1190.381917 321.048829 1194.291284 Z M 321.048829 1194.291284 " stroke="#e45828" stroke-width="21.672462" stroke-opacity="1" stroke-miterlimit="4"/><g clip-path="url(#20b744aed8)"><g clip-path="url(#e9525aa116)"><path stroke-linecap="butt" transform="matrix(0.75, 0, 0, 0.75, 119.488255, 181.301495)" fill="none" stroke-linejoin="miter" d="M 40.000038 -0.000951016 C 17.906287 -0.000951016 0.0000356043 17.910508 0.0000356043 39.999051 C 0.0000356043 62.092802 17.906287 79.999053 40.000038 79.999053 C 62.093789 79.999053 80.00004 62.092802 80.00004 39.999051 C 80.00004 17.910508 62.093789 -0.000951016 40.000038 -0.000951016 Z M 40.000038 -0.000951016 " stroke="#e45828" stroke-width="10" stroke-opacity="1" stroke-miterlimit="4"/></g></g><g clip-path="url(#de7d1527fb)"><g clip-path="url(#7612a2754f)"><path stroke-linecap="butt" transform="matrix(0.75, 0, 0, 0.75, 434.741908, 636.725843)" fill="none" stroke-linejoin="miter" d="M 40.000374 0.000959763 C 17.906623 0.000959763 0.000372069 17.907211 0.000372069 40.000962 C 0.000372069 62.089505 17.906623 80.000964 40.000374 80.000964 C 62.088917 80.000964 80.000376 62.089505 80.000376 40.000962 C 80.000376 17.907211 62.088917 0.000959763 40.000374 0.000959763 Z M 40.000374 0.000959763 " stroke="#e45828" stroke-width="10" stroke-opacity="1" stroke-miterlimit="4"/></g></g></svg>