<svg xmlns="http://www.w3.org/2000/svg" xmlns:xlink="http://www.w3.org/1999/xlink" width="2400" zoomAndPan="magnify" viewBox="0 0 1800 1199.999942" height="1600" preserveAspectRatio="xMidYMid meet" version="1.0"><defs><clipPath id="8bcf2cdd4f"><path d="M 698.730469 287.890625 L 769.699219 287.890625 L 769.699219 358.859375 L 698.730469 358.859375 Z M 698.730469 287.890625 " clip-rule="nonzero"/></clipPath><clipPath id="1251f93e88"><path d="M 734.214844 287.890625 C 714.617188 287.890625 698.730469 303.777344 698.730469 323.375 C 698.730469 342.972656 714.617188 358.859375 734.214844 358.859375 C 753.8125 358.859375 769.699219 342.972656 769.699219 323.375 C 769.699219 303.777344 753.8125 287.890625 734.214844 287.890625 Z M 734.214844 287.890625 " clip-rule="nonzero"/></clipPath><clipPath id="7f5d0b3de2"><path d="M 1052.113281 815.777344 L 1123.082031 815.777344 L 1123.082031 886.746094 L 1052.113281 886.746094 Z M 1052.113281 815.777344 " clip-rule="nonzero"/></clipPath><clipPath id="e2fa0713f7"><path d="M 1087.597656 815.777344 C 1068 815.777344 1052.113281 831.664062 1052.113281 851.261719 C 1052.113281 870.859375 1068 886.746094 1087.597656 886.746094 C 1107.195312 886.746094 1123.082031 870.859375 1123.082031 851.261719 C 1123.082031 831.664062 1107.195312 815.777344 1087.597656 815.777344 Z M 1087.597656 815.777344 " clip-rule="nonzero"/></clipPath></defs><path stroke-linecap="butt" transform="matrix(0.75, 0, 0, 0.75, 573.251944, -100.026808)" fill="none" stroke-linejoin="miter" d="M 321.04952 1194.291059 L 774.294353 1194.291059 L 774.294353 1332.999405 L 107.450543 1332.999405 L 107.450543 1194.942101 L 106.799501 1194.942101 L 107.450543 1194.291059 C 230.315137 1096.608759 307.809936 1033.874378 339.934939 1006.087917 C 464.9662 898.421241 543.54954 808.988941 575.674543 737.791018 C 588.263086 709.134766 594.341212 682.436847 593.90892 657.686844 C 593.90892 617.311841 579.580794 584.968088 550.929749 560.655586 C 522.273497 536.348292 483.851618 524.192041 435.664114 524.192041 C 353.612023 524.192041 300.643269 564.348294 276.768266 644.66601 L 104.195334 630.988925 C 115.914085 552.410793 151.518255 492.389955 210.992219 450.926409 C 270.471391 409.468072 345.362023 388.738904 435.664114 388.738904 C 499.91412 388.738904 556.466208 397.530571 605.304754 415.113906 C 654.148509 432.692033 693.43497 460.806618 723.174556 499.442039 C 752.914142 538.082667 767.783935 585.186838 767.783935 640.75976 C 767.783935 669.843096 763.007893 699.259765 753.455809 728.999351 C 743.903725 758.733728 732.294349 786.197273 718.617264 811.374358 C 704.94018 836.556652 685.62247 863.692071 660.658926 892.780615 C 635.695382 921.863951 613.117255 946.827495 592.929753 967.666039 C 572.742251 988.504582 545.721416 1013.254585 511.856829 1041.905629 C 477.992243 1070.561881 450.533907 1093.1348 429.476613 1109.634802 C 408.41932 1126.129595 379.877651 1148.270222 343.841189 1176.056683 C 333.856813 1184.306683 326.257854 1190.384809 321.04952 1194.291059 Z M 321.04952 1194.291059 " stroke="#e45828" stroke-width="21.672462" stroke-opacity="1" stroke-miterlimit="4"/><g clip-path="url(#8bcf2cdd4f)"><g clip-path="url(#1251f93e88)"><path stroke-linecap="butt" transform="matrix(0.75, 0, 0, 0.75, 698.731685, 287.889096)" fill="none" stroke-linejoin="miter" d="M 47.310883 0.00203895 C 21.180673 0.00203895 -0.00162106 21.184333 -0.00162106 47.314543 C -0.00162106 73.444754 21.180673 94.627047 47.310883 94.627047 C 73.441094 94.627047 94.623387 73.444754 94.623387 47.314543 C 94.623387 21.184333 73.441094 0.00203895 47.310883 0.00203895 Z M 47.310883 0.00203895 " stroke="#e45828" stroke-width="20" stroke-opacity="1" stroke-miterlimit="4"/></g></g><g clip-path="url(#7f5d0b3de2)"><g clip-path="url(#e2fa0713f7)"><path stroke-linecap="butt" transform="matrix(0.75, 0, 0, 0.75, 1052.112597, 815.778651)" fill="none" stroke-linejoin="miter" d="M 47.313417 -0.0017428 C 21.183206 -0.0017428 0.000912519 21.180551 0.000912519 47.310761 C 0.000912519 73.440972 21.183206 94.623266 47.313417 94.623266 C 73.443627 94.623266 94.625921 73.440972 94.625921 47.310761 C 94.625921 21.180551 73.443627 -0.0017428 47.313417 -0.0017428 Z M 47.313417 -0.0017428 " stroke="#e45828" stroke-width="20" stroke-opacity="1" stroke-miterlimit="4"/></g></g></svg>