<svg xmlns="http://www.w3.org/2000/svg" xmlns:xlink="http://www.w3.org/1999/xlink" width="794" zoomAndPan="magnify" viewBox="0 0 594.95996 842.24997" height="1123" preserveAspectRatio="xMidYMid meet" version="1.0"><defs><clipPath id="615fd0823c"><path d="M 188 158 L 442 158 L 442 419 L 188 419 Z M 188 158 " clip-rule="nonzero"/></clipPath><clipPath id="95b1207303"><path d="M 223.65625 362.421875 L 289.351562 362.421875 C 341.410156 362.421875 367.441406 336.953125 367.441406 286.015625 C 367.441406 266.1875 361.246094 250.011719 348.847656 237.480469 C 336.453125 224.953125 318.960938 218.6875 296.375 218.6875 C 277.917969 218.6875 261.875 224.058594 248.238281 234.796875 C 234.601562 245.535156 227.785156 258.890625 227.785156 274.863281 L 88.542969 274.863281 C 88.542969 243.195312 97.355469 214.972656 114.984375 190.191406 C 132.617188 165.410156 157.0625 146.066406 188.328125 132.160156 C 219.589844 118.253906 253.953125 111.300781 291.417969 111.300781 C 358.351562 111.300781 410.964844 126.585938 449.253906 157.148438 C 487.539062 187.710938 506.683594 229.703125 506.683594 283.121094 C 506.683594 309.003906 498.765625 333.445312 482.925781 356.433594 C 467.085938 379.429688 444.019531 398.082031 413.71875 412.402344 C 445.671875 423.96875 470.738281 441.519531 488.917969 465.0625 C 507.097656 488.605469 516.1875 517.722656 516.1875 552.417969 C 516.1875 606.121094 495.53125 649.066406 454.210938 681.292969 C 412.894531 713.496094 358.628906 729.609375 291.417969 729.609375 C 252.027344 729.609375 215.460938 722.101562 181.714844 707.089844 C 147.972656 692.097656 122.421875 671.3125 105.070312 644.730469 C 87.71875 618.152344 79.039062 587.933594 79.039062 554.070312 L 219.109375 554.070312 C 219.109375 572.519531 226.546875 588.484375 241.421875 601.976562 C 256.296875 615.464844 274.613281 622.210938 296.375 622.210938 C 320.890625 622.210938 340.449219 615.402344 355.046875 601.785156 C 369.644531 588.148438 376.945312 570.722656 376.945312 549.527344 C 376.945312 519.238281 369.371094 497.761719 354.21875 485.09375 C 339.070312 472.429688 318.136719 466.09375 291.417969 466.09375 L 223.65625 466.09375 Z M 223.65625 362.421875 " clip-rule="nonzero"/></clipPath><clipPath id="a30bbc019a"><path d="M 248 394 L 284 394 L 284 438 L 248 438 Z M 248 394 " clip-rule="nonzero"/></clipPath><clipPath id="a7828f183d"><path d="M 223.65625 362.421875 L 289.351562 362.421875 C 341.410156 362.421875 367.441406 336.953125 367.441406 286.015625 C 367.441406 266.1875 361.246094 250.011719 348.847656 237.480469 C 336.453125 224.953125 318.960938 218.6875 296.375 218.6875 C 277.917969 218.6875 261.875 224.058594 248.238281 234.796875 C 234.601562 245.535156 227.785156 258.890625 227.785156 274.863281 L 88.542969 274.863281 C 88.542969 243.195312 97.355469 214.972656 114.984375 190.191406 C 132.617188 165.410156 157.0625 146.066406 188.328125 132.160156 C 219.589844 118.253906 253.953125 111.300781 291.417969 111.300781 C 358.351562 111.300781 410.964844 126.585938 449.253906 157.148438 C 487.539062 187.710938 506.683594 229.703125 506.683594 283.121094 C 506.683594 309.003906 498.765625 333.445312 482.925781 356.433594 C 467.085938 379.429688 444.019531 398.082031 413.71875 412.402344 C 445.671875 423.96875 470.738281 441.519531 488.917969 465.0625 C 507.097656 488.605469 516.1875 517.722656 516.1875 552.417969 C 516.1875 606.121094 495.53125 649.066406 454.210938 681.292969 C 412.894531 713.496094 358.628906 729.609375 291.417969 729.609375 C 252.027344 729.609375 215.460938 722.101562 181.714844 707.089844 C 147.972656 692.097656 122.421875 671.3125 105.070312 644.730469 C 87.71875 618.152344 79.039062 587.933594 79.039062 554.070312 L 219.109375 554.070312 C 219.109375 572.519531 226.546875 588.484375 241.421875 601.976562 C 256.296875 615.464844 274.613281 622.210938 296.375 622.210938 C 320.890625 622.210938 340.449219 615.402344 355.046875 601.785156 C 369.644531 588.148438 376.945312 570.722656 376.945312 549.527344 C 376.945312 519.238281 369.371094 497.761719 354.21875 485.09375 C 339.070312 472.429688 318.136719 466.09375 291.417969 466.09375 L 223.65625 466.09375 Z M 223.65625 362.421875 " clip-rule="nonzero"/></clipPath><clipPath id="f9d789e0da"><path d="M 168 443 L 443 443 L 443 683 L 168 683 Z M 168 443 " clip-rule="nonzero"/></clipPath><clipPath id="f6ef26beb0"><path d="M 223.65625 362.421875 L 289.351562 362.421875 C 341.410156 362.421875 367.441406 336.953125 367.441406 286.015625 C 367.441406 266.1875 361.246094 250.011719 348.847656 237.480469 C 336.453125 224.953125 318.960938 218.6875 296.375 218.6875 C 277.917969 218.6875 261.875 224.058594 248.238281 234.796875 C 234.601562 245.535156 227.785156 258.890625 227.785156 274.863281 L 88.542969 274.863281 C 88.542969 243.195312 97.355469 214.972656 114.984375 190.191406 C 132.617188 165.410156 157.0625 146.066406 188.328125 132.160156 C 219.589844 118.253906 253.953125 111.300781 291.417969 111.300781 C 358.351562 111.300781 410.964844 126.585938 449.253906 157.148438 C 487.539062 187.710938 506.683594 229.703125 506.683594 283.121094 C 506.683594 309.003906 498.765625 333.445312 482.925781 356.433594 C 467.085938 379.429688 444.019531 398.082031 413.71875 412.402344 C 445.671875 423.96875 470.738281 441.519531 488.917969 465.0625 C 507.097656 488.605469 516.1875 517.722656 516.1875 552.417969 C 516.1875 606.121094 495.53125 649.066406 454.210938 681.292969 C 412.894531 713.496094 358.628906 729.609375 291.417969 729.609375 C 252.027344 729.609375 215.460938 722.101562 181.714844 707.089844 C 147.972656 692.097656 122.421875 671.3125 105.070312 644.730469 C 87.71875 618.152344 79.039062 587.933594 79.039062 554.070312 L 219.109375 554.070312 C 219.109375 572.519531 226.546875 588.484375 241.421875 601.976562 C 256.296875 615.464844 274.613281 622.210938 296.375 622.210938 C 320.890625 622.210938 340.449219 615.402344 355.046875 601.785156 C 369.644531 588.148438 376.945312 570.722656 376.945312 549.527344 C 376.945312 519.238281 369.371094 497.761719 354.21875 485.09375 C 339.070312 472.429688 318.136719 466.09375 291.417969 466.09375 L 223.65625 466.09375 Z M 223.65625 362.421875 " clip-rule="nonzero"/></clipPath><clipPath id="9d5f14a658"><path d="M 151 601 L 192 601 L 192 641 L 151 641 Z M 151 601 " clip-rule="nonzero"/></clipPath><clipPath id="e7d13f40d6"><path d="M 223.65625 362.421875 L 289.351562 362.421875 C 341.410156 362.421875 367.441406 336.953125 367.441406 286.015625 C 367.441406 266.1875 361.246094 250.011719 348.847656 237.480469 C 336.453125 224.953125 318.960938 218.6875 296.375 218.6875 C 277.917969 218.6875 261.875 224.058594 248.238281 234.796875 C 234.601562 245.535156 227.785156 258.890625 227.785156 274.863281 L 88.542969 274.863281 C 88.542969 243.195312 97.355469 214.972656 114.984375 190.191406 C 132.617188 165.410156 157.0625 146.066406 188.328125 132.160156 C 219.589844 118.253906 253.953125 111.300781 291.417969 111.300781 C 358.351562 111.300781 410.964844 126.585938 449.253906 157.148438 C 487.539062 187.710938 506.683594 229.703125 506.683594 283.121094 C 506.683594 309.003906 498.765625 333.445312 482.925781 356.433594 C 467.085938 379.429688 444.019531 398.082031 413.71875 412.402344 C 445.671875 423.96875 470.738281 441.519531 488.917969 465.0625 C 507.097656 488.605469 516.1875 517.722656 516.1875 552.417969 C 516.1875 606.121094 495.53125 649.066406 454.210938 681.292969 C 412.894531 713.496094 358.628906 729.609375 291.417969 729.609375 C 252.027344 729.609375 215.460938 722.101562 181.714844 707.089844 C 147.972656 692.097656 122.421875 671.3125 105.070312 644.730469 C 87.71875 618.152344 79.039062 587.933594 79.039062 554.070312 L 219.109375 554.070312 C 219.109375 572.519531 226.546875 588.484375 241.421875 601.976562 C 256.296875 615.464844 274.613281 622.210938 296.375 622.210938 C 320.890625 622.210938 340.449219 615.402344 355.046875 601.785156 C 369.644531 588.148438 376.945312 570.722656 376.945312 549.527344 C 376.945312 519.238281 369.371094 497.761719 354.21875 485.09375 C 339.070312 472.429688 318.136719 466.09375 291.417969 466.09375 L 223.65625 466.09375 Z M 223.65625 362.421875 " clip-rule="nonzero"/></clipPath><clipPath id="2180aa8176"><path d="M 148 206 L 181 206 L 181 239 L 148 239 Z M 148 206 " clip-rule="nonzero"/></clipPath><clipPath id="a344485c39"><path d="M 223.65625 362.421875 L 289.351562 362.421875 C 341.410156 362.421875 367.441406 336.953125 367.441406 286.015625 C 367.441406 266.1875 361.246094 250.011719 348.847656 237.480469 C 336.453125 224.953125 318.960938 218.6875 296.375 218.6875 C 277.917969 218.6875 261.875 224.058594 248.238281 234.796875 C 234.601562 245.535156 227.785156 258.890625 227.785156 274.863281 L 88.542969 274.863281 C 88.542969 243.195312 97.355469 214.972656 114.984375 190.191406 C 132.617188 165.410156 157.0625 146.066406 188.328125 132.160156 C 219.589844 118.253906 253.953125 111.300781 291.417969 111.300781 C 358.351562 111.300781 410.964844 126.585938 449.253906 157.148438 C 487.539062 187.710938 506.683594 229.703125 506.683594 283.121094 C 506.683594 309.003906 498.765625 333.445312 482.925781 356.433594 C 467.085938 379.429688 444.019531 398.082031 413.71875 412.402344 C 445.671875 423.96875 470.738281 441.519531 488.917969 465.0625 C 507.097656 488.605469 516.1875 517.722656 516.1875 552.417969 C 516.1875 606.121094 495.53125 649.066406 454.210938 681.292969 C 412.894531 713.496094 358.628906 729.609375 291.417969 729.609375 C 252.027344 729.609375 215.460938 722.101562 181.714844 707.089844 C 147.972656 692.097656 122.421875 671.3125 105.070312 644.730469 C 87.71875 618.152344 79.039062 587.933594 79.039062 554.070312 L 219.109375 554.070312 C 219.109375 572.519531 226.546875 588.484375 241.421875 601.976562 C 256.296875 615.464844 274.613281 622.210938 296.375 622.210938 C 320.890625 622.210938 340.449219 615.402344 355.046875 601.785156 C 369.644531 588.148438 376.945312 570.722656 376.945312 549.527344 C 376.945312 519.238281 369.371094 497.761719 354.21875 485.09375 C 339.070312 472.429688 318.136719 466.09375 291.417969 466.09375 L 223.65625 466.09375 Z M 223.65625 362.421875 " clip-rule="nonzero"/></clipPath><clipPath id="36167f466c"><path d="M 158 212 L 167 212 L 167 233 L 158 233 Z M 158 212 " clip-rule="nonzero"/></clipPath><clipPath id="af38d3054d"><path d="M 223.65625 362.421875 L 289.351562 362.421875 C 341.410156 362.421875 367.441406 336.953125 367.441406 286.015625 C 367.441406 266.1875 361.246094 250.011719 348.847656 237.480469 C 336.453125 224.953125 318.960938 218.6875 296.375 218.6875 C 277.917969 218.6875 261.875 224.058594 248.238281 234.796875 C 234.601562 245.535156 227.785156 258.890625 227.785156 274.863281 L 88.542969 274.863281 C 88.542969 243.195312 97.355469 214.972656 114.984375 190.191406 C 132.617188 165.410156 157.0625 146.066406 188.328125 132.160156 C 219.589844 118.253906 253.953125 111.300781 291.417969 111.300781 C 358.351562 111.300781 410.964844 126.585938 449.253906 157.148438 C 487.539062 187.710938 506.683594 229.703125 506.683594 283.121094 C 506.683594 309.003906 498.765625 333.445312 482.925781 356.433594 C 467.085938 379.429688 444.019531 398.082031 413.71875 412.402344 C 445.671875 423.96875 470.738281 441.519531 488.917969 465.0625 C 507.097656 488.605469 516.1875 517.722656 516.1875 552.417969 C 516.1875 606.121094 495.53125 649.066406 454.210938 681.292969 C 412.894531 713.496094 358.628906 729.609375 291.417969 729.609375 C 252.027344 729.609375 215.460938 722.101562 181.714844 707.089844 C 147.972656 692.097656 122.421875 671.3125 105.070312 644.730469 C 87.71875 618.152344 79.039062 587.933594 79.039062 554.070312 L 219.109375 554.070312 C 219.109375 572.519531 226.546875 588.484375 241.421875 601.976562 C 256.296875 615.464844 274.613281 622.210938 296.375 622.210938 C 320.890625 622.210938 340.449219 615.402344 355.046875 601.785156 C 369.644531 588.148438 376.945312 570.722656 376.945312 549.527344 C 376.945312 519.238281 369.371094 497.761719 354.21875 485.09375 C 339.070312 472.429688 318.136719 466.09375 291.417969 466.09375 L 223.65625 466.09375 Z M 223.65625 362.421875 " clip-rule="nonzero"/></clipPath><clipPath id="c4e6b904b8"><path d="M 148.871094 222.492188 C 148.871094 220.417969 149.269531 218.425781 150.0625 216.511719 C 150.855469 214.59375 151.984375 212.90625 153.453125 211.441406 C 154.917969 209.972656 156.609375 208.84375 158.523438 208.050781 C 160.4375 207.257812 162.433594 206.863281 164.507812 206.863281 C 166.582031 206.863281 168.574219 207.257812 170.492188 208.050781 C 172.40625 208.84375 174.097656 209.972656 175.5625 211.441406 C 177.027344 212.90625 178.160156 214.59375 178.953125 216.511719 C 179.746094 218.425781 180.140625 220.417969 180.140625 222.492188 C 180.140625 224.5625 179.746094 226.558594 178.953125 228.472656 C 178.160156 230.386719 177.027344 232.078125 175.5625 233.542969 C 174.097656 235.007812 172.40625 236.136719 170.492188 236.929688 C 168.574219 237.722656 166.582031 238.121094 164.507812 238.121094 C 162.433594 238.121094 160.4375 237.722656 158.523438 236.929688 C 156.609375 236.136719 154.917969 235.007812 153.453125 233.542969 C 151.984375 232.078125 150.855469 230.386719 150.0625 228.472656 C 149.269531 226.558594 148.871094 224.5625 148.871094 222.492188 Z M 148.871094 222.492188 " clip-rule="nonzero"/></clipPath><clipPath id="091d9ec6a7"><path d="M 336 422 L 368 422 L 368 454 L 336 454 Z M 336 422 " clip-rule="nonzero"/></clipPath><clipPath id="93f4acb450"><path d="M 223.65625 362.421875 L 289.351562 362.421875 C 341.410156 362.421875 367.441406 336.953125 367.441406 286.015625 C 367.441406 266.1875 361.246094 250.011719 348.847656 237.480469 C 336.453125 224.953125 318.960938 218.6875 296.375 218.6875 C 277.917969 218.6875 261.875 224.058594 248.238281 234.796875 C 234.601562 245.535156 227.785156 258.890625 227.785156 274.863281 L 88.542969 274.863281 C 88.542969 243.195312 97.355469 214.972656 114.984375 190.191406 C 132.617188 165.410156 157.0625 146.066406 188.328125 132.160156 C 219.589844 118.253906 253.953125 111.300781 291.417969 111.300781 C 358.351562 111.300781 410.964844 126.585938 449.253906 157.148438 C 487.539062 187.710938 506.683594 229.703125 506.683594 283.121094 C 506.683594 309.003906 498.765625 333.445312 482.925781 356.433594 C 467.085938 379.429688 444.019531 398.082031 413.71875 412.402344 C 445.671875 423.96875 470.738281 441.519531 488.917969 465.0625 C 507.097656 488.605469 516.1875 517.722656 516.1875 552.417969 C 516.1875 606.121094 495.53125 649.066406 454.210938 681.292969 C 412.894531 713.496094 358.628906 729.609375 291.417969 729.609375 C 252.027344 729.609375 215.460938 722.101562 181.714844 707.089844 C 147.972656 692.097656 122.421875 671.3125 105.070312 644.730469 C 87.71875 618.152344 79.039062 587.933594 79.039062 554.070312 L 219.109375 554.070312 C 219.109375 572.519531 226.546875 588.484375 241.421875 601.976562 C 256.296875 615.464844 274.613281 622.210938 296.375 622.210938 C 320.890625 622.210938 340.449219 615.402344 355.046875 601.785156 C 369.644531 588.148438 376.945312 570.722656 376.945312 549.527344 C 376.945312 519.238281 369.371094 497.761719 354.21875 485.09375 C 339.070312 472.429688 318.136719 466.09375 291.417969 466.09375 L 223.65625 466.09375 Z M 223.65625 362.421875 " clip-rule="nonzero"/></clipPath><clipPath id="a042ca4785"><path d="M 344 427 L 358 427 L 358 448 L 344 448 Z M 344 427 " clip-rule="nonzero"/></clipPath><clipPath id="53f4de530d"><path d="M 223.65625 362.421875 L 289.351562 362.421875 C 341.410156 362.421875 367.441406 336.953125 367.441406 286.015625 C 367.441406 266.1875 361.246094 250.011719 348.847656 237.480469 C 336.453125 224.953125 318.960938 218.6875 296.375 218.6875 C 277.917969 218.6875 261.875 224.058594 248.238281 234.796875 C 234.601562 245.535156 227.785156 258.890625 227.785156 274.863281 L 88.542969 274.863281 C 88.542969 243.195312 97.355469 214.972656 114.984375 190.191406 C 132.617188 165.410156 157.0625 146.066406 188.328125 132.160156 C 219.589844 118.253906 253.953125 111.300781 291.417969 111.300781 C 358.351562 111.300781 410.964844 126.585938 449.253906 157.148438 C 487.539062 187.710938 506.683594 229.703125 506.683594 283.121094 C 506.683594 309.003906 498.765625 333.445312 482.925781 356.433594 C 467.085938 379.429688 444.019531 398.082031 413.71875 412.402344 C 445.671875 423.96875 470.738281 441.519531 488.917969 465.0625 C 507.097656 488.605469 516.1875 517.722656 516.1875 552.417969 C 516.1875 606.121094 495.53125 649.066406 454.210938 681.292969 C 412.894531 713.496094 358.628906 729.609375 291.417969 729.609375 C 252.027344 729.609375 215.460938 722.101562 181.714844 707.089844 C 147.972656 692.097656 122.421875 671.3125 105.070312 644.730469 C 87.71875 618.152344 79.039062 587.933594 79.039062 554.070312 L 219.109375 554.070312 C 219.109375 572.519531 226.546875 588.484375 241.421875 601.976562 C 256.296875 615.464844 274.613281 622.210938 296.375 622.210938 C 320.890625 622.210938 340.449219 615.402344 355.046875 601.785156 C 369.644531 588.148438 376.945312 570.722656 376.945312 549.527344 C 376.945312 519.238281 369.371094 497.761719 354.21875 485.09375 C 339.070312 472.429688 318.136719 466.09375 291.417969 466.09375 L 223.65625 466.09375 Z M 223.65625 362.421875 " clip-rule="nonzero"/></clipPath><clipPath id="f14567b0d6"><path d="M 336.109375 437.773438 C 336.109375 435.699219 336.507812 433.707031 337.300781 431.792969 C 338.09375 429.878906 339.222656 428.1875 340.691406 426.722656 C 342.15625 425.257812 343.847656 424.128906 345.761719 423.335938 C 347.675781 422.542969 349.671875 422.144531 351.746094 422.144531 C 353.820312 422.144531 355.8125 422.542969 357.730469 423.335938 C 359.644531 424.128906 361.335938 425.257812 362.800781 426.722656 C 364.265625 428.1875 365.398438 429.878906 366.191406 431.792969 C 366.984375 433.707031 367.378906 435.699219 367.378906 437.773438 C 367.378906 439.847656 366.984375 441.839844 366.191406 443.753906 C 365.398438 445.667969 364.265625 447.359375 362.800781 448.824219 C 361.335938 450.289062 359.644531 451.417969 357.730469 452.214844 C 355.8125 453.007812 353.820312 453.402344 351.746094 453.402344 C 349.671875 453.402344 347.675781 453.007812 345.761719 452.214844 C 343.847656 451.417969 342.15625 450.289062 340.691406 448.824219 C 339.222656 447.359375 338.09375 445.667969 337.300781 443.753906 C 336.507812 441.839844 336.109375 439.847656 336.109375 437.773438 Z M 336.109375 437.773438 " clip-rule="nonzero"/></clipPath><clipPath id="e453a30d33"><path d="M 75.804688 108 L 519.410156 108 L 519.410156 732.917969 L 75.804688 732.917969 Z M 75.804688 108 " clip-rule="nonzero"/></clipPath></defs><path fill="#ffffff" d="M 223.65625 362.421875 L 289.351562 362.421875 C 341.410156 362.421875 367.441406 336.953125 367.441406 286.015625 C 367.441406 266.1875 361.246094 250.011719 348.847656 237.480469 C 336.453125 224.953125 318.960938 218.6875 296.375 218.6875 C 277.917969 218.6875 261.875 224.058594 248.238281 234.796875 C 234.601562 245.535156 227.785156 258.890625 227.785156 274.863281 L 88.542969 274.863281 C 88.542969 243.195312 97.355469 214.972656 114.984375 190.191406 C 132.617188 165.410156 157.0625 146.066406 188.328125 132.160156 C 219.589844 118.253906 253.953125 111.300781 291.417969 111.300781 C 358.351562 111.300781 410.964844 126.585938 449.253906 157.148438 C 487.539062 187.710938 506.683594 229.703125 506.683594 283.121094 C 506.683594 309.003906 498.765625 333.445312 482.925781 356.433594 C 467.085938 379.429688 444.019531 398.082031 413.71875 412.402344 C 445.671875 423.96875 470.738281 441.519531 488.917969 465.0625 C 507.097656 488.605469 516.1875 517.722656 516.1875 552.417969 C 516.1875 606.121094 495.53125 649.066406 454.210938 681.292969 C 412.894531 713.496094 358.628906 729.609375 291.417969 729.609375 C 252.027344 729.609375 215.460938 722.101562 181.714844 707.089844 C 147.972656 692.097656 122.421875 671.3125 105.070312 644.730469 C 87.71875 618.152344 79.039062 587.933594 79.039062 554.070312 L 219.109375 554.070312 C 219.109375 572.519531 226.546875 588.484375 241.421875 601.976562 C 256.296875 615.464844 274.613281 622.210938 296.375 622.210938 C 320.890625 622.210938 340.449219 615.402344 355.046875 601.785156 C 369.644531 588.148438 376.945312 570.722656 376.945312 549.527344 C 376.945312 519.238281 369.371094 497.761719 354.21875 485.09375 C 339.070312 472.429688 318.136719 466.09375 291.417969 466.09375 L 223.65625 466.09375 Z M 223.65625 362.421875 " fill-opacity="1" fill-rule="nonzero"/><g clip-path="url(#615fd0823c)"><g clip-path="url(#95b1207303)"><path fill="#000000" d="M 299.28125 409.300781 C 295.445312 410.066406 291.898438 410.664062 288.703125 411.136719 C 286.792969 411.414062 285.472656 413.191406 285.753906 415.097656 C 286.035156 417.007812 287.8125 418.324219 289.71875 418.046875 C 293.019531 417.558594 296.6875 416.9375 300.648438 416.148438 C 302.539062 415.769531 303.765625 413.929688 303.390625 412.042969 C 303.015625 410.152344 301.171875 408.921875 299.28125 409.300781 Z M 328.613281 401.300781 C 325.121094 402.523438 321.703125 403.617188 318.390625 404.589844 C 316.539062 405.132812 315.480469 407.078125 316.023438 408.925781 C 316.570312 410.777344 318.515625 411.835938 320.363281 411.289062 C 323.785156 410.28125 327.3125 409.152344 330.917969 407.894531 C 332.738281 407.257812 333.699219 405.265625 333.0625 403.445312 C 332.429688 401.625 330.433594 400.664062 328.613281 401.300781 Z M 356.460938 389.203125 C 353.238281 390.902344 350.027344 392.480469 346.84375 393.949219 C 345.09375 394.753906 344.328125 396.828125 345.132812 398.582031 C 345.941406 400.332031 348.015625 401.097656 349.765625 400.292969 C 353.0625 398.773438 356.390625 397.136719 359.726562 395.375 C 361.429688 394.476562 362.082031 392.359375 361.179688 390.65625 C 360.28125 388.949219 358.164062 388.300781 356.460938 389.203125 Z M 382.007812 372.910156 C 379.128906 375.105469 376.222656 377.179688 373.304688 379.140625 C 371.703125 380.214844 371.277344 382.386719 372.355469 383.988281 C 373.429688 385.585938 375.601562 386.011719 377.203125 384.9375 C 380.234375 382.902344 383.253906 380.746094 386.246094 378.464844 C 387.777344 377.292969 388.074219 375.101562 386.902344 373.566406 C 385.734375 372.035156 383.539062 371.738281 382.007812 372.910156 Z M 404.359375 352.523438 C 401.914062 355.1875 399.417969 357.734375 396.886719 360.167969 C 395.496094 361.503906 395.449219 363.714844 396.789062 365.105469 C 398.121094 366.496094 400.335938 366.539062 401.726562 365.203125 C 404.363281 362.667969 406.960938 360.019531 409.507812 357.242188 C 410.8125 355.824219 410.714844 353.613281 409.296875 352.308594 C 407.875 351.007812 405.664062 351.101562 404.359375 352.523438 Z M 422.3125 328.445312 C 420.636719 331.433594 418.761719 334.414062 416.683594 337.375 C 415.574219 338.953125 415.957031 341.132812 417.535156 342.238281 C 419.113281 343.347656 421.292969 342.964844 422.402344 341.386719 C 424.621094 338.226562 426.617188 335.050781 428.40625 331.863281 C 429.351562 330.179688 428.75 328.050781 427.070312 327.109375 C 425.386719 326.164062 423.257812 326.761719 422.3125 328.445312 Z M 432.652344 300.625 C 431.980469 304.007812 431.113281 307.402344 430.027344 310.800781 C 429.4375 312.636719 430.453125 314.601562 432.289062 315.191406 C 434.125 315.777344 436.09375 314.765625 436.679688 312.929688 C 437.847656 309.269531 438.785156 305.617188 439.503906 301.980469 C 439.878906 300.089844 438.648438 298.25 436.757812 297.878906 C 434.867188 297.503906 433.023438 298.734375 432.652344 300.625 Z M 433.785156 270.933594 C 434.175781 274.394531 434.394531 277.90625 434.425781 281.460938 C 434.441406 283.386719 436.019531 284.9375 437.949219 284.925781 C 439.875 284.90625 441.429688 283.328125 441.410156 281.402344 C 441.378906 277.605469 441.144531 273.855469 440.730469 270.15625 C 440.515625 268.242188 438.785156 266.859375 436.867188 267.074219 C 434.953125 267.289062 433.570312 269.019531 433.785156 270.933594 Z M 426.550781 241.890625 C 427.808594 245.148438 428.949219 248.503906 429.949219 251.945312 C 430.488281 253.796875 432.429688 254.863281 434.277344 254.324219 C 436.128906 253.789062 437.195312 251.847656 436.660156 249.996094 C 435.601562 246.363281 434.394531 242.820312 433.074219 239.382812 C 432.382812 237.582031 430.359375 236.683594 428.558594 237.375 C 426.761719 238.070312 425.859375 240.089844 426.550781 241.890625 Z M 412.6875 215.210938 C 414.589844 218.050781 416.457031 221.078125 418.253906 224.273438 C 419.199219 225.953125 421.328125 226.554688 423.007812 225.609375 C 424.691406 224.667969 425.289062 222.535156 424.34375 220.855469 C 422.457031 217.496094 420.492188 214.3125 418.492188 211.324219 C 417.417969 209.722656 415.246094 209.292969 413.644531 210.367188 C 412.042969 211.4375 411.613281 213.609375 412.6875 215.210938 Z M 193.71875 201.996094 C 195.113281 201.121094 198.304688 199.175781 202.980469 196.617188 C 204.671875 195.691406 205.292969 193.566406 204.367188 191.878906 C 203.441406 190.1875 201.316406 189.566406 199.625 190.492188 C 194.769531 193.148438 191.457031 195.167969 190.011719 196.074219 C 188.375 197.097656 187.878906 199.253906 188.902344 200.886719 C 189.925781 202.523438 192.082031 203.019531 193.71875 201.996094 Z M 392.933594 193.046875 C 393.46875 193.46875 394 193.894531 394.535156 194.328125 C 396.457031 195.890625 398.515625 197.808594 400.648438 200.039062 C 401.980469 201.429688 404.195312 201.480469 405.585938 200.148438 C 406.980469 198.816406 407.035156 196.605469 405.699219 195.210938 C 403.347656 192.75 401.066406 190.632812 398.941406 188.90625 C 398.378906 188.453125 397.816406 188.003906 397.253906 187.558594 C 395.742188 186.367188 393.542969 186.628906 392.347656 188.144531 C 391.15625 189.65625 391.417969 191.855469 392.933594 193.046875 Z M 220.636719 187.792969 C 223.730469 186.382812 227.035156 184.941406 230.527344 183.507812 C 232.3125 182.773438 233.164062 180.734375 232.433594 178.949219 C 231.699219 177.167969 229.65625 176.316406 227.875 177.046875 C 224.292969 178.515625 220.90625 179.992188 217.734375 181.4375 C 215.980469 182.238281 215.207031 184.3125 216.007812 186.066406 C 216.808594 187.816406 218.882812 188.59375 220.636719 187.792969 Z M 367.324219 177.421875 C 370.503906 178.863281 373.660156 180.460938 376.785156 182.222656 C 378.46875 183.167969 380.597656 182.574219 381.546875 180.894531 C 382.492188 179.214844 381.898438 177.082031 380.214844 176.136719 C 376.910156 174.273438 373.574219 172.585938 370.214844 171.0625 C 368.457031 170.265625 366.386719 171.042969 365.589844 172.800781 C 364.792969 174.554688 365.570312 176.625 367.324219 177.421875 Z M 249.046875 176.683594 C 252.382812 175.59375 255.820312 174.546875 259.347656 173.5625 C 261.203125 173.046875 262.289062 171.121094 261.773438 169.261719 C 261.253906 167.40625 259.328125 166.320312 257.46875 166.835938 C 253.84375 167.847656 250.308594 168.925781 246.878906 170.042969 C 245.042969 170.640625 244.042969 172.617188 244.640625 174.445312 C 245.238281 176.28125 247.214844 177.28125 249.046875 176.683594 Z M 338.699219 168.40625 C 342.15625 169.066406 345.609375 169.863281 349.054688 170.8125 C 350.914062 171.324219 352.835938 170.234375 353.351562 168.375 C 353.863281 166.519531 352.773438 164.59375 350.914062 164.078125 C 347.285156 163.078125 343.648438 162.238281 340.003906 161.546875 C 338.109375 161.1875 336.28125 162.433594 335.921875 164.324219 C 335.5625 166.21875 336.804688 168.050781 338.699219 168.40625 Z M 278.515625 169.105469 C 281.996094 168.457031 285.53125 167.894531 289.113281 167.429688 C 291.023438 167.179688 292.375 165.425781 292.125 163.515625 C 291.878906 161.605469 290.125 160.253906 288.210938 160.503906 C 284.503906 160.984375 280.847656 161.566406 277.242188 162.238281 C 275.347656 162.585938 274.09375 164.410156 274.445312 166.304688 C 274.796875 168.203125 276.621094 169.453125 278.515625 169.105469 Z M 308.65625 165.960938 C 312.195312 165.894531 315.757812 165.945312 319.332031 166.125 C 321.257812 166.21875 322.902344 164.734375 322.996094 162.8125 C 323.09375 160.886719 321.605469 159.246094 319.679688 159.148438 C 315.945312 158.960938 312.226562 158.910156 308.53125 158.976562 C 306.601562 159.011719 305.066406 160.601562 305.101562 162.53125 C 305.136719 164.457031 306.730469 165.992188 308.65625 165.960938 Z M 308.65625 165.960938 " fill-opacity="1" fill-rule="evenodd"/></g></g><g clip-path="url(#a30bbc019a)"><g clip-path="url(#a7828f183d)"><path fill="#000000" d="M 281.652344 394.859375 L 283.214844 437.769531 L 248.054688 417.261719 Z M 281.652344 394.859375 " fill-opacity="1" fill-rule="evenodd"/></g></g><g clip-path="url(#f9d789e0da)"><g clip-path="url(#f6ef26beb0)"><path fill="#000000" d="M 282.976562 682.136719 C 286.632812 682.480469 290.347656 682.699219 294.113281 682.789062 C 296.039062 682.835938 297.640625 681.308594 297.6875 679.382812 C 297.734375 677.457031 296.207031 675.855469 294.277344 675.808594 C 290.675781 675.722656 287.125 675.507812 283.625 675.183594 C 281.703125 675.003906 280 676.417969 279.820312 678.335938 C 279.644531 680.253906 281.054688 681.957031 282.976562 682.136719 Z M 314.539062 681.941406 C 318.1875 681.546875 321.875 681.015625 325.589844 680.335938 C 327.488281 679.992188 328.746094 678.171875 328.402344 676.277344 C 328.054688 674.378906 326.234375 673.121094 324.335938 673.464844 C 320.789062 674.113281 317.269531 674.621094 313.785156 674.996094 C 311.871094 675.203125 310.480469 676.925781 310.691406 678.84375 C 310.898438 680.757812 312.621094 682.148438 314.539062 681.941406 Z M 252.011719 676.328125 C 255.53125 677.316406 259.132812 678.21875 262.808594 679.011719 C 264.695312 679.417969 266.554688 678.222656 266.964844 676.335938 C 267.371094 674.453125 266.171875 672.59375 264.285156 672.1875 C 260.75 671.421875 257.289062 670.554688 253.902344 669.605469 C 252.046875 669.082031 250.117188 670.164062 249.59375 672.019531 C 249.070312 673.875 250.15625 675.804688 252.011719 676.328125 Z M 345.449219 675.28125 C 348.890625 674.113281 352.382812 672.757812 355.898438 671.226562 C 357.667969 670.457031 358.472656 668.394531 357.703125 666.628906 C 356.929688 664.863281 354.871094 664.054688 353.105469 664.824219 C 349.773438 666.277344 346.464844 667.558594 343.203125 668.667969 C 341.378906 669.285156 340.398438 671.269531 341.019531 673.097656 C 341.640625 674.921875 343.625 675.898438 345.449219 675.28125 Z M 222.53125 665.433594 C 225.8125 666.9375 229.21875 668.402344 232.734375 669.796875 C 234.527344 670.507812 236.558594 669.628906 237.273438 667.839844 C 237.984375 666.046875 237.105469 664.015625 235.3125 663.304688 C 231.914062 661.957031 228.621094 660.542969 225.449219 659.085938 C 223.695312 658.28125 221.621094 659.050781 220.816406 660.800781 C 220.011719 662.554688 220.78125 664.628906 222.53125 665.433594 Z M 374.039062 661.777344 C 377.171875 659.867188 380.289062 657.824219 383.363281 655.652344 C 384.9375 654.539062 385.308594 652.355469 384.195312 650.78125 C 383.082031 649.210938 380.898438 648.839844 379.328125 649.949219 C 376.386719 652.03125 373.40625 653.984375 370.40625 655.808594 C 368.757812 656.8125 368.234375 658.960938 369.238281 660.609375 C 370.242188 662.253906 372.390625 662.777344 374.039062 661.777344 Z M 195.007812 650.382812 C 197.949219 652.261719 201.113281 654.191406 204.484375 656.125 C 206.15625 657.085938 208.292969 656.503906 209.253906 654.835938 C 210.210938 653.164062 209.632812 651.027344 207.960938 650.070312 C 204.691406 648.191406 201.625 646.320312 198.769531 644.496094 C 197.144531 643.460938 194.984375 643.933594 193.945312 645.558594 C 192.90625 647.183594 193.382812 649.34375 195.007812 650.382812 Z M 399.253906 642.816406 C 401.980469 640.3125 404.632812 637.699219 407.199219 634.972656 C 408.519531 633.566406 408.453125 631.355469 407.046875 630.035156 C 405.644531 628.714844 403.433594 628.78125 402.109375 630.1875 C 399.660156 632.785156 397.125 635.285156 394.527344 637.675781 C 393.105469 638.980469 393.015625 641.191406 394.320312 642.609375 C 395.625 644.03125 397.835938 644.121094 399.253906 642.816406 Z M 169.796875 631.574219 C 171.074219 632.722656 174.007812 635.292969 178.398438 638.695312 C 179.921875 639.878906 182.117188 639.601562 183.300781 638.078125 C 184.480469 636.554688 184.203125 634.359375 182.679688 633.179688 C 178.488281 629.929688 175.6875 627.480469 174.46875 626.382812 C 173.035156 625.09375 170.824219 625.210938 169.535156 626.644531 C 168.246094 628.078125 168.363281 630.285156 169.796875 631.574219 Z M 420.164062 619.128906 C 422.308594 616.085938 424.335938 612.949219 426.230469 609.714844 C 427.207031 608.050781 426.648438 605.910156 424.988281 604.9375 C 423.324219 603.960938 421.179688 604.519531 420.207031 606.179688 C 418.40625 609.246094 416.484375 612.222656 414.449219 615.105469 C 413.339844 616.683594 413.71875 618.863281 415.292969 619.972656 C 416.871094 621.082031 419.050781 620.703125 420.164062 619.128906 Z M 435.164062 591.214844 C 436.496094 587.738281 437.675781 584.179688 438.6875 580.539062 C 439.203125 578.683594 438.117188 576.757812 436.257812 576.238281 C 434.398438 575.722656 432.472656 576.8125 431.957031 578.671875 C 431.003906 582.09375 429.894531 585.441406 428.640625 588.710938 C 427.949219 590.511719 428.851562 592.53125 430.652344 593.222656 C 432.449219 593.914062 434.472656 593.011719 435.164062 591.214844 Z M 442.414062 560.289062 C 442.753906 556.609375 442.917969 552.863281 442.898438 549.054688 C 442.886719 547.125 441.316406 545.570312 439.386719 545.578125 C 437.460938 545.589844 435.902344 547.160156 435.914062 549.089844 C 435.929688 552.667969 435.773438 556.191406 435.453125 559.648438 C 435.277344 561.566406 436.691406 563.269531 438.613281 563.449219 C 440.53125 563.625 442.234375 562.210938 442.414062 560.289062 Z M 441.03125 528.574219 C 440.359375 524.789062 439.515625 521.136719 438.527344 517.609375 C 438.007812 515.753906 436.078125 514.667969 434.222656 515.1875 C 432.367188 515.707031 431.28125 517.636719 431.800781 519.492188 C 432.730469 522.804688 433.519531 526.238281 434.152344 529.796875 C 434.488281 531.695312 436.304688 532.960938 438.203125 532.625 C 440.101562 532.289062 441.371094 530.472656 441.03125 528.574219 Z M 431.238281 498.359375 C 429.570312 494.902344 427.773438 491.609375 425.890625 488.484375 C 424.898438 486.832031 422.75 486.296875 421.097656 487.292969 C 419.445312 488.285156 418.910156 490.433594 419.90625 492.085938 C 421.679688 495.03125 423.371094 498.136719 424.945312 501.398438 C 425.785156 503.132812 427.871094 503.863281 429.609375 503.023438 C 431.347656 502.1875 432.078125 500.097656 431.238281 498.359375 Z M 413.9375 471.800781 C 411.414062 468.808594 408.878906 466.050781 406.394531 463.535156 C 405.039062 462.164062 402.824219 462.152344 401.453125 463.507812 C 400.082031 464.863281 400.066406 467.074219 401.421875 468.445312 C 403.78125 470.832031 406.195312 473.449219 408.589844 476.296875 C 409.828125 477.773438 412.035156 477.964844 413.511719 476.722656 C 414.988281 475.484375 415.179688 473.277344 413.9375 471.800781 Z M 390.976562 450.042969 C 386.132812 446.402344 382.636719 444.292969 381.609375 443.695312 C 379.945312 442.722656 377.800781 443.28125 376.828125 444.945312 C 375.855469 446.609375 376.417969 448.75 378.082031 449.722656 C 379.039062 450.28125 382.28125 452.242188 386.773438 455.625 C 388.3125 456.78125 390.503906 456.472656 391.664062 454.933594 C 392.824219 453.394531 392.515625 451.203125 390.976562 450.042969 Z M 390.976562 450.042969 " fill-opacity="1" fill-rule="evenodd"/></g></g><g clip-path="url(#9d5f14a658)"><g clip-path="url(#e7d13f40d6)"><path fill="#000000" d="M 159.292969 640.761719 L 191.054688 611.855469 L 151.792969 601.09375 Z M 159.292969 640.761719 " fill-opacity="1" fill-rule="evenodd"/></g></g><g clip-path="url(#2180aa8176)"><g clip-path="url(#a344485c39)"><path fill="#000000" d="M 180.140625 222.492188 C 180.140625 223.515625 180.042969 224.535156 179.839844 225.539062 C 179.640625 226.546875 179.34375 227.523438 178.953125 228.472656 C 178.558594 229.421875 178.078125 230.320312 177.507812 231.175781 C 176.9375 232.027344 176.289062 232.816406 175.5625 233.542969 C 174.835938 234.269531 174.046875 234.914062 173.191406 235.484375 C 172.339844 236.054688 171.4375 236.539062 170.488281 236.929688 C 169.542969 237.324219 168.5625 237.621094 167.558594 237.820312 C 166.550781 238.019531 165.535156 238.121094 164.507812 238.121094 C 163.480469 238.121094 162.464844 238.019531 161.457031 237.820312 C 160.449219 237.621094 159.472656 237.324219 158.523438 236.929688 C 157.574219 236.539062 156.675781 236.054688 155.820312 235.484375 C 154.96875 234.914062 154.175781 234.269531 153.453125 233.542969 C 152.726562 232.816406 152.078125 232.027344 151.507812 231.175781 C 150.9375 230.320312 150.457031 229.421875 150.0625 228.472656 C 149.667969 227.523438 149.371094 226.546875 149.171875 225.539062 C 148.972656 224.535156 148.871094 223.515625 148.871094 222.492188 C 148.871094 221.464844 148.972656 220.449219 149.171875 219.441406 C 149.371094 218.433594 149.667969 217.457031 150.0625 216.511719 C 150.457031 215.5625 150.9375 214.660156 151.507812 213.808594 C 152.078125 212.953125 152.726562 212.164062 153.453125 211.441406 C 154.175781 210.714844 154.96875 210.066406 155.820312 209.496094 C 156.675781 208.925781 157.574219 208.445312 158.523438 208.050781 C 159.472656 207.660156 160.449219 207.363281 161.457031 207.164062 C 162.464844 206.960938 163.480469 206.863281 164.507812 206.863281 C 165.535156 206.863281 166.550781 206.960938 167.558594 207.164062 C 168.5625 207.363281 169.542969 207.660156 170.488281 208.050781 C 171.4375 208.445312 172.339844 208.925781 173.191406 209.496094 C 174.046875 210.066406 174.835938 210.714844 175.5625 211.441406 C 176.289062 212.164062 176.9375 212.953125 177.507812 213.808594 C 178.078125 214.660156 178.558594 215.5625 178.953125 216.511719 C 179.34375 217.457031 179.640625 218.433594 179.839844 219.441406 C 180.042969 220.449219 180.140625 221.464844 180.140625 222.492188 Z M 180.140625 222.492188 " fill-opacity="1" fill-rule="nonzero"/></g></g><g clip-path="url(#36167f466c)"><g clip-path="url(#af38d3054d)"><g clip-path="url(#c4e6b904b8)"><path fill="#ffffff" d="M 166.125 232.125 L 163.675781 232.125 L 163.675781 215.886719 L 158.761719 217.691406 L 158.761719 215.476562 L 165.742188 212.855469 L 166.125 212.855469 Z M 166.125 232.125 " fill-opacity="1" fill-rule="nonzero"/></g></g></g><g clip-path="url(#091d9ec6a7)"><g clip-path="url(#93f4acb450)"><path fill="#000000" d="M 367.378906 437.773438 C 367.378906 438.800781 367.28125 439.816406 367.078125 440.824219 C 366.878906 441.828125 366.582031 442.804688 366.191406 443.753906 C 365.796875 444.703125 365.316406 445.601562 364.746094 446.457031 C 364.175781 447.308594 363.527344 448.097656 362.800781 448.824219 C 362.074219 449.550781 361.285156 450.199219 360.429688 450.769531 C 359.578125 451.339844 358.675781 451.820312 357.730469 452.214844 C 356.78125 452.605469 355.800781 452.902344 354.796875 453.101562 C 353.789062 453.300781 352.773438 453.402344 351.746094 453.402344 C 350.71875 453.402344 349.703125 453.300781 348.695312 453.101562 C 347.6875 452.902344 346.710938 452.605469 345.761719 452.214844 C 344.8125 451.820312 343.914062 451.339844 343.058594 450.769531 C 342.207031 450.199219 341.414062 449.550781 340.691406 448.824219 C 339.964844 448.097656 339.316406 447.308594 338.746094 446.457031 C 338.175781 445.601562 337.695312 444.703125 337.300781 443.753906 C 336.90625 442.804688 336.609375 441.828125 336.410156 440.824219 C 336.210938 439.816406 336.109375 438.800781 336.109375 437.773438 C 336.109375 436.746094 336.210938 435.730469 336.410156 434.722656 C 336.609375 433.71875 336.90625 432.742188 337.300781 431.792969 C 337.695312 430.84375 338.175781 429.945312 338.746094 429.089844 C 339.316406 428.238281 339.964844 427.449219 340.691406 426.722656 C 341.414062 425.996094 342.207031 425.347656 343.058594 424.777344 C 343.914062 424.207031 344.8125 423.726562 345.761719 423.335938 C 346.710938 422.941406 347.6875 422.644531 348.695312 422.445312 C 349.703125 422.246094 350.71875 422.144531 351.746094 422.144531 C 352.773438 422.144531 353.789062 422.246094 354.796875 422.445312 C 355.800781 422.644531 356.78125 422.941406 357.730469 423.335938 C 358.675781 423.726562 359.578125 424.207031 360.429688 424.777344 C 361.285156 425.347656 362.074219 425.996094 362.800781 426.722656 C 363.527344 427.449219 364.175781 428.238281 364.746094 429.089844 C 365.316406 429.945312 365.796875 430.84375 366.191406 431.792969 C 366.582031 432.742188 366.878906 433.71875 367.078125 434.722656 C 367.28125 435.730469 367.378906 436.746094 367.378906 437.773438 Z M 367.378906 437.773438 " fill-opacity="1" fill-rule="nonzero"/></g></g><g clip-path="url(#a042ca4785)"><g clip-path="url(#53f4de530d)"><g clip-path="url(#f14567b0d6)"><path fill="#ffffff" d="M 357.921875 447.40625 L 345.351562 447.40625 L 345.351562 445.65625 L 351.992188 438.28125 C 352.976562 437.164062 353.65625 436.257812 354.027344 435.5625 C 354.402344 434.863281 354.589844 434.140625 354.589844 433.394531 C 354.589844 432.394531 354.285156 431.574219 353.679688 430.929688 C 353.074219 430.289062 352.265625 429.96875 351.253906 429.96875 C 350.042969 429.96875 349.101562 430.316406 348.429688 431.003906 C 347.757812 431.691406 347.421875 432.652344 347.421875 433.882812 L 344.984375 433.882812 C 344.984375 432.117188 345.550781 430.691406 346.691406 429.601562 C 347.828125 428.511719 349.347656 427.96875 351.253906 427.96875 C 353.039062 427.96875 354.449219 428.4375 355.484375 429.371094 C 356.519531 430.304688 357.039062 431.550781 357.039062 433.105469 C 357.039062 434.992188 355.835938 437.242188 353.429688 439.847656 L 348.292969 445.417969 L 357.921875 445.417969 Z M 357.921875 447.40625 " fill-opacity="1" fill-rule="nonzero"/></g></g></g><g clip-path="url(#e453a30d33)"><path fill="#000000" d="M 223.65625 359.199219 C 221.875 359.199219 220.429688 360.644531 220.429688 362.421875 L 220.429688 466.09375 C 220.429688 467.875 221.875 469.320312 223.65625 469.320312 L 291.417969 469.320312 C 317.242188 469.320312 337.507812 475.324219 352.152344 487.570312 C 366.699219 499.730469 373.722656 520.441406 373.722656 549.527344 C 373.722656 569.769531 366.78125 586.414062 352.84375 599.417969 C 338.800781 612.527344 319.957031 618.996094 296.375 618.996094 C 275.476562 618.996094 257.871094 612.546875 243.589844 599.585938 C 229.449219 586.773438 222.335938 571.609375 222.335938 554.070312 C 222.335938 552.289062 220.890625 550.847656 219.109375 550.847656 L 79.039062 550.847656 C 77.257812 550.847656 75.816406 552.289062 75.816406 554.070312 C 75.816406 588.589844 84.679688 619.398438 102.371094 646.488281 C 120.042969 673.554688 146.039062 694.761719 180.40625 710.050781 C 214.550781 725.234375 251.554688 732.824219 291.417969 732.824219 C 359.457031 732.824219 414.363281 716.4375 456.195312 683.828125 C 498.332031 650.96875 519.410156 607.175781 519.410156 552.417969 C 519.410156 516.933594 510.0625 487.171875 491.46875 463.09375 C 474.273438 440.828125 451.058594 423.789062 421.78125 412.027344 C 449.378906 397.90625 470.628906 379.96875 485.582031 358.265625 C 501.816406 334.699219 509.910156 309.648438 509.910156 283.121094 C 509.910156 228.625 490.328125 185.808594 451.265625 154.628906 C 412.480469 123.667969 359.21875 108.078125 291.417969 108.078125 C 253.476562 108.078125 218.679688 115.132812 187.015625 129.214844 C 155.183594 143.375 130.308594 163.089844 112.359375 188.324219 C 94.339844 213.652344 85.320312 242.496094 85.320312 274.863281 C 85.320312 276.640625 86.761719 278.085938 88.542969 278.085938 L 227.785156 278.085938 C 229.566406 278.085938 231.011719 276.640625 231.011719 274.863281 C 231.011719 259.890625 237.453125 247.394531 250.234375 237.328125 C 263.300781 227.039062 278.6875 221.910156 296.375 221.910156 C 317.957031 221.910156 334.710938 227.777344 346.554688 239.75 C 358.367188 251.6875 364.21875 267.121094 364.21875 286.015625 C 364.21875 310.433594 358.140625 328.808594 345.664062 341.019531 C 333.164062 353.25 314.355469 359.199219 289.351562 359.199219 Z M 226.878906 365.648438 L 289.351562 365.648438 C 316.40625 365.648438 336.644531 358.863281 350.175781 345.625 C 363.726562 332.363281 370.667969 312.53125 370.667969 286.015625 C 370.667969 265.253906 364.121094 248.335938 351.140625 235.214844 C 338.195312 222.128906 319.96875 215.464844 296.375 215.464844 C 277.152344 215.464844 260.445312 221.082031 246.242188 232.265625 C 232.683594 242.945312 225.511719 256.085938 224.652344 271.636719 C 224.652344 271.636719 112.476562 271.636719 91.800781 271.636719 C 92.378906 241.976562 100.976562 215.449219 117.617188 192.058594 C 134.921875 167.726562 158.941406 148.757812 189.636719 135.105469 C 220.503906 121.375 254.433594 114.523438 291.417969 114.523438 C 357.484375 114.523438 409.445312 129.496094 447.238281 159.667969 C 484.757812 189.613281 503.460938 230.78125 503.460938 283.121094 C 503.460938 308.363281 495.714844 332.183594 480.269531 354.609375 C 464.730469 377.167969 442.070312 395.4375 412.339844 409.488281 C 411.164062 410.042969 410.4375 411.253906 410.5 412.554688 C 410.558594 413.851562 411.398438 414.988281 412.621094 415.433594 C 443.949219 426.769531 468.542969 443.953125 486.367188 467.03125 C 504.132812 490.039062 512.964844 518.511719 512.964844 552.417969 C 512.964844 605.042969 492.730469 647.164062 452.226562 678.734375 C 411.417969 710.558594 357.800781 726.394531 291.417969 726.394531 C 252.496094 726.394531 216.367188 718.972656 183.027344 704.152344 C 149.90625 689.433594 124.804688 669.050781 107.769531 642.976562 C 91.308594 617.769531 82.824219 589.203125 82.292969 557.296875 C 101.246094 557.296875 197.277344 557.296875 215.957031 557.296875 C 216.777344 575.289062 224.515625 591 239.253906 604.367188 C 254.71875 618.40625 273.75 625.449219 296.375 625.449219 C 321.820312 625.449219 342.09375 618.277344 357.246094 604.132812 C 372.507812 589.878906 380.171875 571.695312 380.171875 549.527344 C 380.171875 518.035156 372.042969 495.792969 356.289062 482.621094 C 340.632812 469.53125 319.03125 462.871094 291.417969 462.871094 L 226.878906 462.871094 C 226.878906 462.871094 226.878906 365.648438 226.878906 365.648438 Z M 226.878906 365.648438 " fill-opacity="1" fill-rule="evenodd"/></g></svg>