<svg xmlns="http://www.w3.org/2000/svg" xmlns:xlink="http://www.w3.org/1999/xlink" width="800" zoomAndPan="magnify" viewBox="0 0 600 899.99999" height="1200" preserveAspectRatio="xMidYMid meet" version="1.0"><defs><clipPath id="2b931c01a7"><path d="M 95.226562 116.609375 L 155.226562 116.609375 L 155.226562 176.609375 L 95.226562 176.609375 Z M 95.226562 116.609375 " clip-rule="nonzero"/></clipPath><clipPath id="fd0a64a778"><path d="M 125.226562 116.609375 C 108.660156 116.609375 95.226562 130.039062 95.226562 146.609375 C 95.226562 163.175781 108.660156 176.609375 125.226562 176.609375 C 141.796875 176.609375 155.226562 163.175781 155.226562 146.609375 C 155.226562 130.039062 141.796875 116.609375 125.226562 116.609375 Z M 125.226562 116.609375 " clip-rule="nonzero"/></clipPath><clipPath id="7853bf2494"><path d="M 248.746094 340.210938 L 308.746094 340.210938 L 308.746094 400.210938 L 248.746094 400.210938 Z M 248.746094 340.210938 " clip-rule="nonzero"/></clipPath><clipPath id="23b0811a12"><path d="M 278.746094 340.210938 C 262.179688 340.210938 248.746094 353.644531 248.746094 370.210938 C 248.746094 386.78125 262.179688 400.210938 278.746094 400.210938 C 295.316406 400.210938 308.746094 386.78125 308.746094 370.210938 C 308.746094 353.644531 295.316406 340.210938 278.746094 340.210938 Z M 278.746094 340.210938 " clip-rule="nonzero"/></clipPath><clipPath id="6f6dad33ce"><path d="M 106.230469 559.25 L 166.230469 559.25 L 166.230469 619.25 L 106.230469 619.25 Z M 106.230469 559.25 " clip-rule="nonzero"/></clipPath><clipPath id="f549866396"><path d="M 136.230469 559.25 C 119.660156 559.25 106.230469 572.683594 106.230469 589.25 C 106.230469 605.820312 119.660156 619.25 136.230469 619.25 C 152.796875 619.25 166.230469 605.820312 166.230469 589.25 C 166.230469 572.683594 152.796875 559.25 136.230469 559.25 Z M 136.230469 559.25 " clip-rule="nonzero"/></clipPath></defs><path stroke-linecap="butt" transform="matrix(0.656476, 0, 0, 0.656476, 23.828635, -162.820752)" fill="none" stroke-linejoin="miter" d="M 481.249964 795.744171 C 568.511544 811.375686 638.51717 843.394409 691.26684 891.800338 C 744.01651 940.206268 770.38837 1001.095989 770.38837 1074.469501 C 770.38837 1130.474001 754.649749 1179.207199 723.172506 1220.663144 C 691.701214 1262.125039 649.91205 1293.167907 597.816917 1313.791749 C 545.721783 1334.40964 486.676664 1344.721561 420.687511 1344.721561 C 370.758297 1344.721561 324.738449 1338.967593 282.627968 1327.465606 C 240.517487 1315.957669 203.613544 1299.136088 171.92209 1276.994912 C 140.230635 1254.853736 115.590321 1226.524218 98.007098 1192.012308 C 80.423875 1157.494447 71.635238 1118.53169 71.635238 1075.118087 L 244.855277 1064.050474 C 244.855277 1110.064371 261.355541 1145.778248 294.350117 1171.174254 C 327.344694 1196.57026 369.455175 1209.268263 420.687511 1209.268263 C 472.348271 1209.268263 514.571808 1195.374244 547.346223 1167.592156 C 580.126587 1139.804117 596.513794 1102.906125 596.513794 1056.886277 C 596.513794 1001.750525 573.724033 958.65824 528.138559 927.615371 C 482.553086 896.578453 420.032975 883.225914 340.584177 887.569654 L 283.93109 789.234511 L 551.576907 537.214259 L 80.096606 537.214259 L 80.096606 398.50613 L 742.38612 398.50613 L 742.38612 537.214259 Z M 481.249964 795.744171 " stroke="#e45828" stroke-width="21.672462" stroke-opacity="1" stroke-miterlimit="4"/><g clip-path="url(#2b931c01a7)"><g clip-path="url(#fd0a64a778)"><path stroke-linecap="butt" transform="matrix(0.75, 0, 0, 0.75, 95.227959, 116.607436)" fill="none" stroke-linejoin="miter" d="M 39.99814 0.00258494 C 17.909597 0.00258494 -0.00186202 17.908836 -0.00186202 40.002587 C -0.00186202 62.09113 17.909597 80.002589 39.99814 80.002589 C 62.091891 80.002589 79.998142 62.09113 79.998142 40.002587 C 79.998142 17.908836 62.091891 0.00258494 39.99814 0.00258494 Z M 39.99814 0.00258494 " stroke="#e45828" stroke-width="10" stroke-opacity="1" stroke-miterlimit="4"/></g></g><g clip-path="url(#7853bf2494)"><g clip-path="url(#23b0811a12)"><path stroke-linecap="butt" transform="matrix(0.75, 0, 0, 0.75, 248.746308, 340.211253)" fill="none" stroke-linejoin="miter" d="M 39.999717 -0.000421194 C 17.911174 -0.000421194 -0.000285376 17.911038 -0.000285376 39.999581 C -0.000285376 62.093332 17.911174 79.999583 39.999717 79.999583 C 62.093468 79.999583 79.999719 62.093332 79.999719 39.999581 C 79.999719 17.911038 62.093468 -0.000421194 39.999717 -0.000421194 Z M 39.999717 -0.000421194 " stroke="#e45828" stroke-width="10" stroke-opacity="1" stroke-miterlimit="4"/></g></g><g clip-path="url(#6f6dad33ce)"><g clip-path="url(#f549866396)"><path stroke-linecap="butt" transform="matrix(0.75, 0, 0, 0.75, 106.228702, 559.250607)" fill="none" stroke-linejoin="miter" d="M 40.002358 -0.000808977 C 17.908607 -0.000808977 0.00235615 17.91065 0.00235615 39.999193 C 0.00235615 62.092944 17.908607 79.999195 40.002358 79.999195 C 62.090901 79.999195 80.00236 62.092944 80.00236 39.999193 C 80.00236 17.91065 62.090901 -0.000808977 40.002358 -0.000808977 Z M 40.002358 -0.000808977 " stroke="#e45828" stroke-width="10" stroke-opacity="1" stroke-miterlimit="4"/></g></g></svg>