<svg xmlns="http://www.w3.org/2000/svg" xmlns:xlink="http://www.w3.org/1999/xlink" width="2400" zoomAndPan="magnify" viewBox="0 0 1800 1199.999942" height="1600" preserveAspectRatio="xMidYMid meet" version="1.0"><defs><clipPath id="ea78533acc"><path d="M 668.191406 215.902344 L 739.160156 215.902344 L 739.160156 286.871094 L 668.191406 286.871094 Z M 668.191406 215.902344 " clip-rule="nonzero"/></clipPath><clipPath id="567e76fa27"><path d="M 703.675781 215.902344 C 684.078125 215.902344 668.191406 231.789062 668.191406 251.386719 C 668.191406 270.984375 684.078125 286.871094 703.675781 286.871094 C 723.273438 286.871094 739.160156 270.984375 739.160156 251.386719 C 739.160156 231.789062 723.273438 215.902344 703.675781 215.902344 Z M 703.675781 215.902344 " clip-rule="nonzero"/></clipPath><clipPath id="ea3fc320bc"><path d="M 842.703125 471.125 L 913.671875 471.125 L 913.671875 542.09375 L 842.703125 542.09375 Z M 842.703125 471.125 " clip-rule="nonzero"/></clipPath><clipPath id="abb541e94e"><path d="M 878.1875 471.125 C 858.589844 471.125 842.703125 487.011719 842.703125 506.609375 C 842.703125 526.207031 858.589844 542.09375 878.1875 542.09375 C 897.785156 542.09375 913.671875 526.207031 913.671875 506.609375 C 913.671875 487.011719 897.785156 471.125 878.1875 471.125 Z M 878.1875 471.125 " clip-rule="nonzero"/></clipPath><clipPath id="05bed01892"><path d="M 675.691406 721.980469 L 746.660156 721.980469 L 746.660156 792.949219 L 675.691406 792.949219 Z M 675.691406 721.980469 " clip-rule="nonzero"/></clipPath><clipPath id="dff61a244a"><path d="M 711.175781 721.980469 C 691.578125 721.980469 675.691406 737.867188 675.691406 757.464844 C 675.691406 777.0625 691.578125 792.949219 711.175781 792.949219 C 730.773438 792.949219 746.660156 777.0625 746.660156 757.464844 C 746.660156 737.867188 730.773438 721.980469 711.175781 721.980469 Z M 711.175781 721.980469 " clip-rule="nonzero"/></clipPath></defs><path stroke-linecap="butt" transform="matrix(0.75, 0, 0, 0.75, 584.484375, -100.027043)" fill="none" stroke-linejoin="miter" d="M 481.250043 795.744462 C 568.510468 811.374672 638.515683 843.395508 691.265687 891.801762 C 744.015692 940.208017 770.390694 1001.098647 770.390694 1074.468445 C 770.390694 1130.473659 754.65111 1179.20283 723.177148 1220.666375 C 691.697979 1262.124712 649.911517 1293.166382 597.817762 1313.791384 C 545.718799 1334.411177 486.677127 1344.723678 420.687538 1344.723678 C 370.76045 1344.723678 324.739613 1338.968469 282.630234 1327.46326 C 240.515647 1315.95805 203.614602 1299.135132 171.921891 1276.994505 C 140.22918 1254.853878 115.588552 1226.525751 98.010426 1192.010123 C 80.427091 1157.499703 71.635423 1118.530949 71.635423 1075.119487 L 244.859397 1064.046569 C 244.859397 1110.067407 261.35419 1145.775743 294.348985 1171.171579 C 327.34378 1196.572623 369.458367 1209.270541 420.687538 1209.270541 C 472.349001 1209.270541 514.567755 1195.374706 547.349008 1167.593454 C 580.125052 1139.806993 596.515679 1102.905948 596.515679 1056.88511 C 596.515679 1001.749689 573.718802 958.661143 528.135464 927.619474 C 482.552127 896.577804 420.036496 883.228845 340.583364 887.567387 L 283.932317 789.234045 L 551.578175 537.213189 L 80.098966 537.213189 L 80.098966 398.504843 L 742.385484 398.504843 L 742.385484 537.213189 Z M 481.250043 795.744462 " stroke="#e45828" stroke-width="21.672462" stroke-opacity="1" stroke-miterlimit="4"/><g clip-path="url(#ea78533acc)"><g clip-path="url(#567e76fa27)"><path stroke-linecap="butt" transform="matrix(0.75, 0, 0, 0.75, 668.192551, 215.903867)" fill="none" stroke-linejoin="miter" d="M 47.310978 -0.00203105 C 21.180767 -0.00203105 -0.00152671 21.180263 -0.00152671 47.310473 C -0.00152671 73.440684 21.180767 94.622977 47.310978 94.622977 C 73.441188 94.622977 94.623482 73.440684 94.623482 47.310473 C 94.623482 21.180263 73.441188 -0.00203105 47.310978 -0.00203105 Z M 47.310978 -0.00203105 " stroke="#e45828" stroke-width="20" stroke-opacity="1" stroke-miterlimit="4"/></g></g><g clip-path="url(#ea3fc320bc)"><g clip-path="url(#abb541e94e)"><path stroke-linecap="butt" transform="matrix(0.75, 0, 0, 0.75, 842.701672, 471.123226)" fill="none" stroke-linejoin="miter" d="M 47.314442 0.00236566 C 21.184231 0.00236566 0.00193782 21.184659 0.00193782 47.31487 C 0.00193782 73.439872 21.184231 94.627374 47.314442 94.627374 C 73.444653 94.627374 94.626946 73.439872 94.626946 47.31487 C 94.626946 21.184659 73.444653 0.00236566 47.314442 0.00236566 Z M 47.314442 0.00236566 " stroke="#e45828" stroke-width="20" stroke-opacity="1" stroke-miterlimit="4"/></g></g><g clip-path="url(#05bed01892)"><g clip-path="url(#dff61a244a)"><path stroke-linecap="butt" transform="matrix(0.75, 0, 0, 0.75, 675.692551, 721.980395)" fill="none" stroke-linejoin="miter" d="M 47.310978 0.0000979834 C 21.180768 0.0000979834 -0.00152582 21.182392 -0.00152582 47.312602 C -0.00152582 73.442813 21.180768 94.625106 47.310978 94.625106 C 73.441189 94.625106 94.623483 73.442813 94.623483 47.312602 C 94.623483 21.182392 73.441189 0.0000979834 47.310978 0.0000979834 Z M 47.310978 0.0000979834 " stroke="#e45828" stroke-width="20" stroke-opacity="1" stroke-miterlimit="4"/></g></g></svg>