<svg xmlns="http://www.w3.org/2000/svg" xmlns:xlink="http://www.w3.org/1999/xlink" width="800" zoomAndPan="magnify" viewBox="0 0 600 899.99999" height="1200" preserveAspectRatio="xMidYMid meet" version="1.0"><defs><clipPath id="b4de51d6e6"><path d="M 154.53125 131.433594 L 214.53125 131.433594 L 214.53125 191.433594 L 154.53125 191.433594 Z M 154.53125 131.433594 " clip-rule="nonzero"/></clipPath><clipPath id="a4c46b7d7e"><path d="M 184.53125 131.433594 C 167.960938 131.433594 154.53125 144.863281 154.53125 161.433594 C 154.53125 178 167.960938 191.433594 184.53125 191.433594 C 201.097656 191.433594 214.53125 178 214.53125 161.433594 C 214.53125 144.863281 201.097656 131.433594 184.53125 131.433594 Z M 184.53125 131.433594 " clip-rule="nonzero"/></clipPath><clipPath id="f425d4d83e"><path d="M 76.230469 499.25 L 136.230469 499.25 L 136.230469 559.25 L 76.230469 559.25 Z M 76.230469 499.25 " clip-rule="nonzero"/></clipPath><clipPath id="89d32d0011"><path d="M 106.230469 499.25 C 89.660156 499.25 76.230469 512.683594 76.230469 529.25 C 76.230469 545.820312 89.660156 559.25 106.230469 559.25 C 122.796875 559.25 136.230469 545.820312 136.230469 529.25 C 136.230469 512.683594 122.796875 499.25 106.230469 499.25 Z M 106.230469 499.25 " clip-rule="nonzero"/></clipPath><clipPath id="eaa3ef76d7"><path d="M 371.394531 233.734375 L 431.394531 233.734375 L 431.394531 293.734375 L 371.394531 293.734375 Z M 371.394531 233.734375 " clip-rule="nonzero"/></clipPath><clipPath id="65b29ebcc0"><path d="M 401.394531 233.734375 C 384.828125 233.734375 371.394531 247.167969 371.394531 263.734375 C 371.394531 280.304688 384.828125 293.734375 401.394531 293.734375 C 417.964844 293.734375 431.394531 280.304688 431.394531 263.734375 C 431.394531 247.167969 417.964844 233.734375 401.394531 233.734375 Z M 401.394531 233.734375 " clip-rule="nonzero"/></clipPath><clipPath id="8d29577c25"><path d="M 371.394531 629.988281 L 431.394531 629.988281 L 431.394531 689.988281 L 371.394531 689.988281 Z M 371.394531 629.988281 " clip-rule="nonzero"/></clipPath><clipPath id="481a6e4a65"><path d="M 401.394531 629.988281 C 384.828125 629.988281 371.394531 643.417969 371.394531 659.988281 C 371.394531 676.554688 384.828125 689.988281 401.394531 689.988281 C 417.964844 689.988281 431.394531 676.554688 431.394531 659.988281 C 431.394531 643.417969 417.964844 629.988281 401.394531 629.988281 Z M 401.394531 629.988281 " clip-rule="nonzero"/></clipPath></defs><path stroke-linecap="butt" transform="matrix(0.656476, 0, 0, 0.656476, -23.196604, -162.820577)" fill="none" stroke-linejoin="miter" d="M 887.606653 988.504825 L 887.606653 1127.212954 L 732.618423 1127.212954 L 732.618423 1332.999146 L 559.392434 1332.999146 L 559.392434 1127.212954 L 98.33116 1127.212954 L 252.022218 399.15445 L 425.242257 399.15445 L 290.443495 988.504825 L 560.04697 988.504825 L 560.04697 557.40346 L 732.618423 557.40346 L 732.618423 988.504825 Z M 887.606653 988.504825 " stroke="#e45828" stroke-width="21.672462" stroke-opacity="1" stroke-miterlimit="4"/><g clip-path="url(#b4de51d6e6)"><g clip-path="url(#a4c46b7d7e)"><path stroke-linecap="butt" transform="matrix(0.75, 0, 0, 0.75, 154.530888, 131.43309)" fill="none" stroke-linejoin="miter" d="M 40.000485 0.000671771 C 17.906734 0.000671771 0.000482783 17.906923 0.000482783 40.000674 C 0.000482783 62.089217 17.906734 80.000676 40.000485 80.000676 C 62.089028 80.000676 80.000487 62.089217 80.000487 40.000674 C 80.000487 17.906923 62.089028 0.000671771 40.000485 0.000671771 Z M 40.000485 0.000671771 " stroke="#e45828" stroke-width="10" stroke-opacity="1" stroke-miterlimit="4"/></g></g><g clip-path="url(#f425d4d83e)"><g clip-path="url(#89d32d0011)"><path stroke-linecap="butt" transform="matrix(0.75, 0, 0, 0.75, 76.228703, 499.250682)" fill="none" stroke-linejoin="miter" d="M 40.002356 -0.000909163 C 17.908605 -0.000909163 0.00235405 17.91055 0.00235405 39.999093 C 0.00235405 62.092844 17.908605 79.999095 40.002356 79.999095 C 62.090899 79.999095 80.002358 62.092844 80.002358 39.999093 C 80.002358 17.91055 62.090899 -0.000909163 40.002356 -0.000909163 Z M 40.002356 -0.000909163 " stroke="#e45828" stroke-width="10" stroke-opacity="1" stroke-miterlimit="4"/></g></g><g clip-path="url(#eaa3ef76d7)"><g clip-path="url(#65b29ebcc0)"><path stroke-linecap="butt" transform="matrix(0.75, 0, 0, 0.75, 371.395589, 233.735281)" fill="none" stroke-linejoin="miter" d="M 39.998591 -0.00120742 C 17.910048 -0.00120742 -0.00141082 17.910252 -0.00141082 39.998795 C -0.00141082 62.092546 17.910048 79.998797 39.998591 79.998797 C 62.092342 79.998797 79.998593 62.092546 79.998593 39.998795 C 79.998593 17.910252 62.092342 -0.00120742 39.998591 -0.00120742 Z M 39.998591 -0.00120742 " stroke="#e45828" stroke-width="10" stroke-opacity="1" stroke-miterlimit="4"/></g></g><g clip-path="url(#8d29577c25)"><g clip-path="url(#481a6e4a65)"><path stroke-linecap="butt" transform="matrix(0.75, 0, 0, 0.75, 371.395589, 629.986691)" fill="none" stroke-linejoin="miter" d="M 39.998591 0.00212029 C 17.910048 0.00212029 -0.00141082 17.908371 -0.00141082 40.002122 C -0.00141082 62.090665 17.910048 80.002124 39.998591 80.002124 C 62.092342 80.002124 79.998593 62.090665 79.998593 40.002122 C 79.998593 17.908371 62.092342 0.00212029 39.998591 0.00212029 Z M 39.998591 0.00212029 " stroke="#e45828" stroke-width="10" stroke-opacity="1" stroke-miterlimit="4"/></g></g></svg>