<svg xmlns="http://www.w3.org/2000/svg" xmlns:xlink="http://www.w3.org/1999/xlink" width="794" zoomAndPan="magnify" viewBox="0 0 594.95996 842.24997" height="1123" preserveAspectRatio="xMidYMid meet" version="1.0"><defs><clipPath id="8f3b62b6bc"><path d="M 67.007812 116.804688 L 528.597656 116.804688 L 528.597656 724.511719 L 67.007812 724.511719 Z M 67.007812 116.804688 " clip-rule="nonzero"/></clipPath></defs><g clip-path="url(#8f3b62b6bc)"><path fill="#231f20" d="M 406.386719 724.484375 C 371.257812 724.484375 341.886719 695.121094 341.886719 660.019531 L 341.886719 563.632812 L 131.769531 563.632812 C 96.640625 563.632812 67.269531 534.265625 67.269531 499.164062 C 67.269531 485.117188 72.378906 471.710938 79.398438 461.5 L 310.59375 143.617188 C 322.09375 127.015625 341.246094 116.804688 362.960938 116.804688 C 398.09375 116.804688 427.464844 146.167969 427.464844 181.273438 C 427.464844 195.320312 422.355469 208.726562 415.332031 218.9375 L 400.648438 239.363281 L 406.394531 239.363281 C 441.527344 239.363281 470.894531 268.726562 470.894531 303.828125 L 470.894531 435.328125 C 502.832031 438.519531 528.375 466.605469 528.375 499.15625 C 528.375 531.703125 502.832031 559.796875 470.894531 562.992188 L 470.894531 660.019531 C 470.894531 695.128906 441.515625 724.484375 406.394531 724.484375 Z M 131.769531 555.972656 L 349.550781 555.972656 L 349.550781 660.019531 C 349.550781 691.9375 374.460938 716.828125 406.386719 716.828125 C 438.3125 716.828125 463.222656 691.9375 463.222656 660.019531 L 463.222656 555.972656 C 495.160156 555.972656 520.703125 530.441406 520.703125 499.164062 C 520.703125 467.886719 495.160156 442.355469 463.222656 442.355469 L 463.222656 303.839844 C 463.222656 271.921875 438.320312 247.03125 406.386719 247.03125 C 401.277344 247.03125 396.808594 247.671875 382.117188 252.136719 L 408.941406 215.113281 C 415.964844 204.898438 419.800781 194.046875 419.800781 181.28125 C 419.800781 149.363281 394.898438 124.472656 362.960938 124.472656 C 343.800781 124.472656 327.203125 133.414062 316.984375 147.449219 L 85.789062 465.332031 C 78.765625 475.546875 74.929688 486.398438 74.929688 499.164062 C 74.929688 531.082031 99.84375 555.972656 131.769531 555.972656 Z M 349.550781 296.8125 L 349.550781 442.347656 L 243.539062 442.347656 Z M 341.886719 434.6875 L 341.886719 319.789062 L 258.863281 434.6875 Z M 341.886719 434.6875 " fill-opacity="1" fill-rule="nonzero"/></g><path fill="#231f20" d="M 123.941406 466.605469 C 125.855469 464.050781 129.050781 463.410156 131.605469 465.324219 C 133.515625 466.605469 133.515625 467.238281 134.15625 468.519531 L 143.101562 483.835938 L 160.984375 485.75 C 162.257812 486.390625 164.179688 486.390625 165.453125 487.03125 C 168.007812 488.941406 168.648438 492.136719 166.722656 494.6875 C 166.082031 495.96875 164.8125 496.601562 163.527344 497.242188 L 136.703125 502.988281 C 134.789062 502.988281 133.507812 503.628906 131.59375 502.347656 C 129.679688 501.066406 129.679688 499.796875 129.039062 497.882812 L 123.289062 471.070312 C 123.289062 469.160156 123.289062 467.878906 123.929688 466.605469 Z M 164.179688 449.375 C 165.460938 447.460938 168.015625 447.460938 169.929688 448.734375 C 171.84375 450.003906 171.84375 451.925781 170.570312 453.839844 L 159.710938 468.519531 C 159.070312 469.800781 157.796875 470.429688 156.515625 470.429688 C 155.875 470.429688 155.234375 470.429688 154.601562 469.789062 C 152.6875 468.507812 152.6875 465.957031 153.960938 464.042969 L 164.179688 449.363281 Z M 206.960938 473.625 C 220.375 473.625 231.867188 485.117188 231.867188 499.15625 C 231.867188 513.191406 220.375 524.6875 206.960938 524.6875 C 193.550781 524.6875 180.777344 512.5625 180.777344 499.15625 C 180.777344 485.75 192.910156 473.625 206.960938 473.625 Z M 193.550781 409.796875 C 194.832031 407.882812 196.746094 407.882812 198.660156 409.15625 C 200.570312 410.4375 200.570312 412.351562 199.300781 414.261719 L 188.441406 428.941406 C 187.800781 430.210938 186.527344 430.851562 185.886719 430.851562 C 184.605469 430.851562 183.972656 430.210938 183.332031 430.210938 C 181.417969 428.941406 181.417969 426.378906 182.691406 424.464844 L 193.550781 409.789062 Z M 198.027344 516.394531 L 215.90625 516.394531 C 217.820312 516.394531 219.101562 514.484375 219.101562 512.5625 C 219.101562 510.640625 217.828125 510.007812 215.90625 510.007812 L 205.691406 510.007812 L 212.710938 502.347656 C 215.90625 499.15625 218.460938 495.960938 218.460938 491.496094 C 218.460938 485.75 213.992188 481.285156 206.332031 481.285156 C 200.582031 481.285156 194.839844 485.75 194.839844 492.777344 C 194.839844 494.6875 196.753906 495.96875 198.667969 495.96875 C 199.949219 495.96875 201.863281 494.6875 201.863281 492.777344 C 201.863281 489.582031 203.144531 488.3125 206.332031 488.3125 C 209.515625 488.3125 212.082031 489.59375 212.082031 491.503906 C 212.082031 493.417969 210.796875 494.699219 208.246094 497.25 L 196.113281 510.015625 C 194.839844 511.296875 194.199219 511.929688 194.199219 512.570312 C 194.199219 514.484375 195.480469 516.402344 198.035156 516.402344 Z M 222.289062 370.21875 C 223.570312 368.308594 225.484375 368.308594 227.398438 369.578125 C 229.3125 370.859375 229.3125 372.773438 228.039062 374.683594 L 217.820312 389.363281 C 216.546875 390.644531 215.90625 391.273438 214.625 391.273438 C 213.34375 391.273438 212.710938 390.632812 212.070312 390.632812 C 210.15625 389.355469 210.15625 386.800781 211.429688 384.886719 L 222.289062 370.210938 Z M 251.027344 330.640625 C 252.300781 328.730469 254.863281 328.730469 256.136719 330 C 258.050781 331.28125 258.691406 333.195312 257.410156 335.105469 L 246.550781 349.785156 C 245.269531 351.058594 244.636719 351.699219 243.355469 351.699219 L 240.800781 351.058594 C 239.519531 349.785156 238.886719 347.230469 240.160156 345.308594 L 251.019531 330.632812 Z M 281.6875 499.164062 C 281.6875 501.078125 279.777344 503 277.851562 503 L 259.972656 503 C 258.058594 503 256.136719 501.085938 256.136719 499.164062 C 256.136719 497.242188 258.050781 495.328125 259.972656 495.328125 L 277.851562 495.328125 C 279.765625 495.328125 281.6875 497.242188 281.6875 499.164062 Z M 279.765625 291.0625 C 281.046875 289.152344 283.59375 289.152344 284.875 290.421875 C 286.789062 291.0625 287.429688 293.617188 286.148438 295.53125 L 275.289062 310.207031 C 274.648438 311.488281 273.375 312.121094 272.09375 312.121094 L 269.539062 311.480469 C 268.265625 310.199219 267.625 307.644531 268.898438 305.734375 L 279.757812 291.054688 Z M 308.503906 251.488281 C 309.789062 249.574219 312.34375 249.574219 313.613281 250.207031 C 315.527344 251.488281 316.167969 254.039062 314.894531 255.953125 L 304.039062 270.628906 C 303.398438 271.910156 302.125 272.542969 300.84375 272.542969 C 300.203125 272.542969 299.570312 271.902344 298.289062 271.261719 C 297.007812 269.988281 296.375 268.066406 297.648438 266.15625 L 308.503906 251.476562 Z M 310.429688 495.328125 L 328.308594 495.328125 C 330.222656 495.328125 332.144531 497.242188 332.144531 499.164062 C 332.144531 501.085938 330.230469 503 328.308594 503 L 310.429688 503 C 308.515625 503 306.601562 501.085938 306.601562 499.164062 C 306.601562 497.242188 308.515625 495.328125 310.429688 495.328125 Z M 337.246094 211.917969 C 338.515625 210.007812 341.082031 209.367188 342.996094 210.636719 C 344.277344 211.917969 344.90625 214.472656 343.636719 216.382812 L 332.777344 231.0625 C 332.136719 232.34375 330.863281 232.972656 329.582031 232.972656 C 328.941406 232.972656 328.308594 232.332031 327.667969 231.703125 C 325.753906 230.421875 325.113281 228.507812 326.386719 226.597656 Z M 364.710938 155.742188 C 378.125 155.742188 389.625 167.234375 389.625 181.273438 C 389.625 195.308594 378.125 206.804688 364.710938 206.804688 C 351.296875 206.804688 338.527344 194.679688 338.527344 181.273438 C 338.527344 167.867188 350.65625 155.742188 364.710938 155.742188 Z M 357.046875 176.164062 C 357.6875 176.164062 358.960938 176.164062 359.601562 175.527344 L 362.15625 173.613281 L 362.15625 195.949219 C 362.15625 197.230469 363.4375 199.144531 365.351562 199.144531 C 367.265625 199.144531 368.546875 197.230469 368.546875 195.949219 L 368.546875 167.867188 C 368.546875 165.953125 367.273438 164.03125 365.351562 164.03125 C 364.710938 164.03125 364.078125 164.671875 362.796875 165.3125 L 355.132812 170.417969 C 354.492188 171.058594 353.863281 172.332031 353.863281 172.972656 C 353.863281 175.527344 355.132812 176.164062 357.058594 176.164062 Z M 360.875 495.328125 L 378.753906 495.328125 C 380.667969 495.328125 382.582031 497.242188 382.582031 499.164062 C 382.582031 501.085938 380.667969 503 378.753906 503 L 360.875 503 C 358.960938 503 357.046875 501.085938 357.046875 499.164062 C 357.046875 497.242188 358.960938 495.328125 360.875 495.328125 Z M 408.136719 278.296875 C 421.546875 278.296875 433.046875 289.792969 433.046875 303.828125 C 433.046875 317.867188 421.546875 329.359375 408.136719 329.359375 C 394.722656 329.359375 381.949219 317.234375 381.949219 303.828125 C 381.949219 290.421875 394.082031 278.296875 408.136719 278.296875 Z M 387.699219 632.566406 C 389.613281 632.566406 390.253906 633.207031 391.535156 633.847656 L 407.503906 642.144531 L 423.472656 633.847656 C 424.742188 633.207031 426.027344 632.566406 427.9375 632.566406 C 431.132812 632.566406 433.046875 635.117188 433.046875 638.3125 C 433.046875 639.585938 432.40625 640.863281 431.773438 642.144531 L 412.613281 661.300781 C 410.699219 662.570312 410.058594 663.851562 407.503906 663.851562 C 405.589844 663.851562 404.949219 662.570312 403.035156 661.300781 L 383.875 642.144531 C 382.59375 640.863281 381.960938 639.59375 381.960938 638.3125 C 381.960938 635.117188 384.515625 632.566406 387.710938 632.566406 Z M 407.503906 321.070312 C 414.527344 321.070312 420.277344 316.605469 420.277344 310.21875 C 420.277344 307.023438 419.003906 304.46875 416.441406 302.558594 C 418.351562 301.277344 418.992188 298.722656 418.992188 296.171875 C 418.992188 290.421875 414.527344 286.597656 407.496094 286.597656 C 403.027344 286.597656 398.550781 289.152344 396.636719 293.617188 L 396.636719 294.890625 C 396.636719 296.800781 397.917969 298.082031 399.832031 298.082031 C 401.113281 298.082031 401.746094 296.800781 403.027344 296.171875 C 404.308594 293.617188 405.582031 292.976562 407.496094 292.976562 C 410.691406 292.976562 412.605469 294.257812 412.605469 296.171875 C 412.605469 298.082031 411.332031 299.363281 407.496094 299.363281 L 404.941406 299.363281 C 403.660156 299.363281 401.746094 301.277344 401.746094 302.558594 C 401.746094 305.109375 403.660156 306.390625 404.941406 306.390625 L 407.496094 306.390625 C 411.960938 306.390625 413.246094 308.304688 413.246094 310.21875 C 413.246094 312.769531 410.691406 314.683594 407.496094 314.683594 C 404.300781 314.683594 402.386719 312.769531 401.746094 310.859375 C 401.105469 308.945312 400.464844 307.023438 398.550781 307.023438 C 396.636719 307.023438 394.714844 308.296875 394.714844 310.859375 C 394.714844 317.246094 401.105469 321.070312 407.484375 321.070312 Z M 403.667969 345.328125 C 403.667969 343.417969 405.582031 341.496094 407.503906 341.496094 C 409.425781 341.496094 411.339844 343.40625 411.339844 345.328125 L 411.339844 364.480469 C 411.339844 366.394531 409.425781 368.308594 407.503906 368.308594 C 405.582031 368.308594 403.667969 366.394531 403.667969 364.480469 Z M 403.667969 395.75 C 403.667969 393.835938 405.582031 392.554688 407.503906 392.554688 C 409.425781 392.554688 411.339844 393.828125 411.339844 395.75 L 411.339844 414.902344 C 411.339844 417.457031 409.425781 418.738281 407.503906 418.738281 C 405.582031 418.738281 403.667969 417.457031 403.667969 414.902344 Z M 403.667969 446.820312 C 403.667969 444.910156 405.582031 442.988281 407.503906 442.988281 C 409.425781 442.988281 411.339844 444.898438 411.339844 446.820312 L 411.339844 465.972656 C 411.339844 467.886719 409.425781 469.808594 407.503906 469.808594 C 405.582031 469.808594 403.667969 467.894531 403.667969 465.972656 Z M 403.667969 497.882812 C 403.667969 495.328125 405.582031 494.046875 407.503906 494.046875 C 408.785156 494.046875 409.417969 494.6875 410.699219 495.320312 L 426.027344 495.320312 C 427.9375 495.320312 429.851562 497.234375 429.851562 499.15625 C 429.851562 501.078125 427.9375 502.988281 426.027344 502.988281 L 411.339844 502.988281 L 411.339844 517.035156 C 411.339844 518.949219 409.425781 520.859375 407.503906 520.859375 C 405.582031 520.859375 403.667969 518.949219 403.667969 517.035156 Z M 403.667969 548.3125 C 403.667969 546.402344 405.582031 544.480469 407.503906 544.480469 C 409.425781 544.480469 411.339844 546.390625 411.339844 548.3125 L 411.339844 567.464844 C 411.339844 570.019531 409.425781 571.300781 407.503906 571.300781 C 405.582031 571.300781 403.667969 570.019531 403.667969 567.464844 Z M 403.667969 599.375 C 403.667969 597.460938 405.582031 595.539062 407.503906 595.539062 C 409.425781 595.539062 411.339844 597.453125 411.339844 599.375 L 411.339844 618.527344 C 411.339844 620.441406 409.425781 622.351562 407.503906 622.351562 C 405.582031 622.351562 403.667969 620.441406 403.667969 618.527344 Z M 438.796875 515.125 L 447.101562 499.164062 L 438.796875 483.203125 C 438.15625 481.921875 437.515625 480.652344 437.515625 478.738281 C 437.515625 475.546875 440.070312 473.632812 443.265625 473.632812 C 444.546875 473.632812 445.820312 474.273438 447.09375 474.914062 L 466.253906 494.066406 C 467.527344 495.980469 468.808594 496.621094 468.808594 499.171875 C 468.808594 501.085938 467.535156 501.726562 466.253906 503.640625 L 447.09375 522.792969 C 445.820312 524.074219 444.539062 524.703125 443.265625 524.703125 C 440.070312 524.703125 437.515625 522.152344 437.515625 518.957031 C 437.515625 517.042969 438.15625 516.402344 438.796875 515.132812 Z M 438.796875 515.125 " fill-opacity="1" fill-rule="nonzero"/></svg>