<svg xmlns="http://www.w3.org/2000/svg" xmlns:xlink="http://www.w3.org/1999/xlink" width="2400" zoomAndPan="magnify" viewBox="0 0 1800 1199.999942" height="1600" preserveAspectRatio="xMidYMid meet" version="1.0"><defs><clipPath id="92fbdf471e"><path d="M 729.613281 226.8125 L 810.390625 226.8125 L 810.390625 307.589844 L 729.613281 307.589844 Z M 729.613281 226.8125 " clip-rule="nonzero"/></clipPath><clipPath id="f8ba917ad5"><path d="M 770.003906 226.8125 C 747.699219 226.8125 729.613281 244.894531 729.613281 267.199219 C 729.613281 289.503906 747.699219 307.589844 770.003906 307.589844 C 792.308594 307.589844 810.390625 289.503906 810.390625 267.199219 C 810.390625 244.894531 792.308594 226.8125 770.003906 226.8125 Z M 770.003906 226.8125 " clip-rule="nonzero"/></clipPath><clipPath id="b39c537405"><path d="M 975.019531 343.515625 L 1055.796875 343.515625 L 1055.796875 424.292969 L 975.019531 424.292969 Z M 975.019531 343.515625 " clip-rule="nonzero"/></clipPath><clipPath id="570024188a"><path d="M 1015.410156 343.515625 C 993.105469 343.515625 975.019531 361.597656 975.019531 383.90625 C 975.019531 406.210938 993.105469 424.292969 1015.410156 424.292969 C 1037.714844 424.292969 1055.796875 406.210938 1055.796875 383.90625 C 1055.796875 361.597656 1037.714844 343.515625 1015.410156 343.515625 Z M 1015.410156 343.515625 " clip-rule="nonzero"/></clipPath><clipPath id="06b950cf1b"><path d="M 975.019531 559.605469 L 1055.796875 559.605469 L 1055.796875 640.382812 L 975.019531 640.382812 Z M 975.019531 559.605469 " clip-rule="nonzero"/></clipPath><clipPath id="0cc4873b2f"><path d="M 1015.410156 559.605469 C 993.105469 559.605469 975.019531 577.691406 975.019531 599.996094 C 975.019531 622.300781 993.105469 640.382812 1015.410156 640.382812 C 1037.714844 640.382812 1055.796875 622.300781 1055.796875 599.996094 C 1055.796875 577.691406 1037.714844 559.605469 1015.410156 559.605469 Z M 1015.410156 559.605469 " clip-rule="nonzero"/></clipPath><clipPath id="f09a986664"><path d="M 975.019531 775.394531 L 1055.796875 775.394531 L 1055.796875 856.171875 L 975.019531 856.171875 Z M 975.019531 775.394531 " clip-rule="nonzero"/></clipPath><clipPath id="638b483081"><path d="M 1015.410156 775.394531 C 993.105469 775.394531 975.019531 793.476562 975.019531 815.78125 C 975.019531 838.085938 993.105469 856.171875 1015.410156 856.171875 C 1037.714844 856.171875 1055.796875 838.085938 1055.796875 815.78125 C 1055.796875 793.476562 1037.714844 775.394531 1015.410156 775.394531 Z M 1015.410156 775.394531 " clip-rule="nonzero"/></clipPath></defs><path stroke-linecap="butt" transform="matrix(0.75, 0, 0, 0.75, 530.759756, -100.026765)" fill="none" stroke-linejoin="miter" d="M 887.606864 988.504525 L 887.606864 1127.218079 L 732.617267 1127.218079 L 732.617267 1332.999347 L 559.393293 1332.999347 L 559.393293 1127.218079 L 98.33596 1127.218079 L 252.018265 399.155514 L 425.242239 399.155514 L 290.440144 988.504525 L 560.044334 988.504525 L 560.044334 557.400319 L 732.617267 557.400319 L 732.617267 988.504525 Z M 887.606864 988.504525 " stroke="#e45828" stroke-width="21.672462" stroke-opacity="1" stroke-miterlimit="4"/><g clip-path="url(#92fbdf471e)"><g clip-path="url(#f8ba917ad5)"><path stroke-linecap="butt" transform="matrix(0.75, 0, 0, 0.75, 729.615026, 226.810668)" fill="none" stroke-linejoin="miter" d="M 53.851849 0.00244205 C 24.112261 0.00244205 -0.00232604 24.111821 -0.00232604 53.851409 C -0.00232604 83.590997 24.112261 107.705584 53.851849 107.705584 C 83.591437 107.705584 107.700816 83.590997 107.700816 53.851409 C 107.700816 24.111821 83.591437 0.00244205 53.851849 0.00244205 Z M 53.851849 0.00244205 " stroke="#e45828" stroke-width="20" stroke-opacity="1" stroke-miterlimit="4"/></g></g><g clip-path="url(#b39c537405)"><g clip-path="url(#570024188a)"><path stroke-linecap="butt" transform="matrix(0.75, 0, 0, 0.75, 975.020932, 343.51612)" fill="none" stroke-linejoin="miter" d="M 53.852308 -0.000660531 C 24.11272 -0.000660531 -0.00186736 24.108718 -0.00186736 53.853514 C -0.00186736 83.593102 24.11272 107.702481 53.852308 107.702481 C 83.591895 107.702481 107.701274 83.593102 107.701274 53.853514 C 107.701274 24.108718 83.591895 -0.000660531 53.852308 -0.000660531 Z M 53.852308 -0.000660531 " stroke="#e45828" stroke-width="20" stroke-opacity="1" stroke-miterlimit="4"/></g></g><g clip-path="url(#06b950cf1b)"><g clip-path="url(#0cc4873b2f)"><path stroke-linecap="butt" transform="matrix(0.75, 0, 0, 0.75, 975.020932, 559.60721)" fill="none" stroke-linejoin="miter" d="M 53.852308 -0.00232143 C 24.11272 -0.00232143 -0.00186736 24.112266 -0.00186736 53.851854 C -0.00186736 83.591441 24.11272 107.70082 53.852308 107.70082 C 83.591895 107.70082 107.701274 83.591441 107.701274 53.851854 C 107.701274 24.112266 83.591895 -0.00232143 53.852308 -0.00232143 Z M 53.852308 -0.00232143 " stroke="#e45828" stroke-width="20" stroke-opacity="1" stroke-miterlimit="4"/></g></g><g clip-path="url(#f09a986664)"><g clip-path="url(#638b483081)"><path stroke-linecap="butt" transform="matrix(0.75, 0, 0, 0.75, 975.020932, 775.39263)" fill="none" stroke-linejoin="miter" d="M 53.852308 0.00253437 C 24.11272 0.00253437 -0.00186736 24.111913 -0.00186736 53.851501 C -0.00186736 83.591089 24.11272 107.705676 53.852308 107.705676 C 83.591895 107.705676 107.701274 83.591089 107.701274 53.851501 C 107.701274 24.111913 83.591895 0.00253437 53.852308 0.00253437 Z M 53.852308 0.00253437 " stroke="#e45828" stroke-width="20" stroke-opacity="1" stroke-miterlimit="4"/></g></g></svg>