<svg xmlns="http://www.w3.org/2000/svg" xmlns:xlink="http://www.w3.org/1999/xlink" width="800" zoomAndPan="magnify" viewBox="0 0 600 899.99999" height="1200" preserveAspectRatio="xMidYMid meet" version="1.0"><defs><clipPath id="1f7ed6b2a4"><path d="M 127.574219 119.304688 L 187.574219 119.304688 L 187.574219 179.304688 L 127.574219 179.304688 Z M 127.574219 119.304688 " clip-rule="nonzero"/></clipPath><clipPath id="7d2d7f0b11"><path d="M 157.574219 119.304688 C 141.007812 119.304688 127.574219 132.734375 127.574219 149.304688 C 127.574219 165.871094 141.007812 179.304688 157.574219 179.304688 C 174.144531 179.304688 187.574219 165.871094 187.574219 149.304688 C 187.574219 132.734375 174.144531 119.304688 157.574219 119.304688 Z M 157.574219 119.304688 " clip-rule="nonzero"/></clipPath><clipPath id="50f26b4aae"><path d="M 97.574219 528.902344 L 157.574219 528.902344 L 157.574219 588.902344 L 97.574219 588.902344 Z M 97.574219 528.902344 " clip-rule="nonzero"/></clipPath><clipPath id="dcdff61406"><path d="M 127.574219 528.902344 C 111.007812 528.902344 97.574219 542.332031 97.574219 558.902344 C 97.574219 575.46875 111.007812 588.902344 127.574219 588.902344 C 144.144531 588.902344 157.574219 575.46875 157.574219 558.902344 C 157.574219 542.332031 144.144531 528.902344 127.574219 528.902344 Z M 127.574219 528.902344 " clip-rule="nonzero"/></clipPath><clipPath id="7f87e869ea"><path d="M 421.265625 119.304688 L 481.265625 119.304688 L 481.265625 179.304688 L 421.265625 179.304688 Z M 421.265625 119.304688 " clip-rule="nonzero"/></clipPath><clipPath id="f0026135be"><path d="M 451.265625 119.304688 C 434.695312 119.304688 421.265625 132.734375 421.265625 149.304688 C 421.265625 165.871094 434.695312 179.304688 451.265625 179.304688 C 467.832031 179.304688 481.265625 165.871094 481.265625 149.304688 C 481.265625 132.734375 467.832031 119.304688 451.265625 119.304688 Z M 451.265625 119.304688 " clip-rule="nonzero"/></clipPath><clipPath id="2b482d24ff"><path d="M 115.445312 324.101562 L 175.445312 324.101562 L 175.445312 384.101562 L 115.445312 384.101562 Z M 115.445312 324.101562 " clip-rule="nonzero"/></clipPath><clipPath id="ddc4dfff1c"><path d="M 145.445312 324.101562 C 128.875 324.101562 115.445312 337.535156 115.445312 354.101562 C 115.445312 370.671875 128.875 384.101562 145.445312 384.101562 C 162.011719 384.101562 175.445312 370.671875 175.445312 354.101562 C 175.445312 337.535156 162.011719 324.101562 145.445312 324.101562 Z M 145.445312 324.101562 " clip-rule="nonzero"/></clipPath><clipPath id="358ee1de81"><path d="M 451.265625 498.902344 L 511.265625 498.902344 L 511.265625 558.902344 L 451.265625 558.902344 Z M 451.265625 498.902344 " clip-rule="nonzero"/></clipPath><clipPath id="6b3379165f"><path d="M 481.265625 498.902344 C 464.695312 498.902344 451.265625 512.332031 451.265625 528.902344 C 451.265625 545.46875 464.695312 558.902344 481.265625 558.902344 C 497.832031 558.902344 511.265625 545.46875 511.265625 528.902344 C 511.265625 512.332031 497.832031 498.902344 481.265625 498.902344 Z M 481.265625 498.902344 " clip-rule="nonzero"/></clipPath></defs><path stroke-linecap="butt" transform="matrix(0.656476, 0, 0, 0.656476, 10.576022, -162.820577)" fill="none" stroke-linejoin="miter" d="M 756.712544 537.213992 L 310.62825 537.213992 L 295.002685 742.345648 C 327.562887 728.023205 366.960018 717.598228 413.194077 711.088568 C 459.434087 704.578907 503.609333 704.144533 545.719814 709.785445 C 624.734238 720.204472 688.771683 754.287959 737.826199 812.029956 C 786.886664 869.766002 811.413922 936.189529 811.413922 1011.300537 C 811.413922 1106.809274 776.360532 1185.823698 706.24185 1248.343809 C 636.129119 1310.85797 547.891684 1342.11505 441.523596 1342.11505 C 335.161458 1342.11505 246.918073 1310.965076 176.805341 1248.665127 C 106.69261 1186.365178 71.633269 1107.243648 71.633269 1011.300537 L 244.859259 1011.300537 C 244.859259 1071.208453 263.85271 1120.596187 301.839613 1159.451838 C 339.826516 1198.307489 386.387844 1217.735315 441.523596 1217.735315 C 496.224974 1217.735315 542.679196 1198.307489 580.886261 1159.451838 C 619.087375 1120.596187 638.193883 1071.208453 638.193883 1011.300537 C 638.193883 957.902281 619.414643 915.030157 581.862115 882.684167 C 544.309586 850.338176 497.528096 832.868009 441.523596 830.261765 C 384.215973 828.089895 332.769425 841.763752 287.183952 871.289286 L 112.006254 871.289286 L 145.220993 398.505864 L 756.712544 398.505864 Z M 756.712544 537.213992 " stroke="#e45828" stroke-width="21.672462" stroke-opacity="1" stroke-miterlimit="4"/><g clip-path="url(#1f7ed6b2a4)"><g clip-path="url(#7d2d7f0b11)"><path stroke-linecap="butt" transform="matrix(0.75, 0, 0, 0.75, 127.575025, 119.302982)" fill="none" stroke-linejoin="miter" d="M 39.998927 0.00227432 C 17.910384 0.00227432 -0.00107543 17.908525 -0.00107543 40.002276 C -0.00107543 62.090819 17.910384 80.002279 39.998927 80.002279 C 62.092678 80.002279 79.998929 62.090819 79.998929 40.002276 C 79.998929 17.908525 62.092678 0.00227432 39.998927 0.00227432 Z M 39.998927 0.00227432 " stroke="#e45828" stroke-width="10" stroke-opacity="1" stroke-miterlimit="4"/></g></g><g clip-path="url(#50f26b4aae)"><g clip-path="url(#dcdff61406)"><path stroke-linecap="butt" transform="matrix(0.75, 0, 0, 0.75, 97.575027, 528.902104)" fill="none" stroke-linejoin="miter" d="M 39.998925 0.000319239 C 17.910382 0.000319239 -0.00107752 17.90657 -0.00107752 40.000321 C -0.00107752 62.088864 17.910382 80.000323 39.998925 80.000323 C 62.092676 80.000323 79.998927 62.088864 79.998927 40.000321 C 79.998927 17.90657 62.092676 0.000319239 39.998925 0.000319239 Z M 39.998925 0.000319239 " stroke="#e45828" stroke-width="10" stroke-opacity="1" stroke-miterlimit="4"/></g></g><g clip-path="url(#7f87e869ea)"><g clip-path="url(#f0026135be)"><path stroke-linecap="butt" transform="matrix(0.75, 0, 0, 0.75, 421.263965, 119.302982)" fill="none" stroke-linejoin="miter" d="M 40.002215 0.00227432 C 17.908464 0.00227432 0.00221313 17.908525 0.00221313 40.002276 C 0.00221313 62.090819 17.908464 80.002279 40.002215 80.002279 C 62.090758 80.002279 80.002217 62.090819 80.002217 40.002276 C 80.002217 17.908525 62.090758 0.00227432 40.002215 0.00227432 Z M 40.002215 0.00227432 " stroke="#e45828" stroke-width="10" stroke-opacity="1" stroke-miterlimit="4"/></g></g><g clip-path="url(#2b482d24ff)"><g clip-path="url(#ddc4dfff1c)"><path stroke-linecap="butt" transform="matrix(0.75, 0, 0, 0.75, 115.444867, 324.102543)" fill="none" stroke-linejoin="miter" d="M 40.000596 -0.00130738 C 17.906845 -0.00130738 0.000594322 17.910152 0.000594322 39.998695 C 0.000594322 62.092446 17.906845 79.998697 40.000596 79.998697 C 62.089139 79.998697 80.000599 62.092446 80.000599 39.998695 C 80.000599 17.910152 62.089139 -0.00130738 40.000596 -0.00130738 Z M 40.000596 -0.00130738 " stroke="#e45828" stroke-width="10" stroke-opacity="1" stroke-miterlimit="4"/></g></g><g clip-path="url(#358ee1de81)"><g clip-path="url(#6b3379165f)"><path stroke-linecap="butt" transform="matrix(0.75, 0, 0, 0.75, 451.263964, 498.902106)" fill="none" stroke-linejoin="miter" d="M 40.002217 0.000317146 C 17.908466 0.000317146 0.00221522 17.906568 0.00221522 40.000319 C 0.00221522 62.088862 17.908466 80.000321 40.002217 80.000321 C 62.09076 80.000321 80.002219 62.088862 80.002219 40.000319 C 80.002219 17.906568 62.09076 0.000317146 40.002217 0.000317146 Z M 40.002217 0.000317146 " stroke="#e45828" stroke-width="10" stroke-opacity="1" stroke-miterlimit="4"/></g></g></svg>