<svg xmlns="http://www.w3.org/2000/svg" xmlns:xlink="http://www.w3.org/1999/xlink" width="2400" zoomAndPan="magnify" viewBox="0 0 1800 1199.999942" height="1600" preserveAspectRatio="xMidYMid meet" version="1.0"><defs><clipPath id="1b6aa03eb1"><path d="M 1015.375 209.359375 L 1096.152344 209.359375 L 1096.152344 290.136719 L 1015.375 290.136719 Z M 1015.375 209.359375 " clip-rule="nonzero"/></clipPath><clipPath id="9a1339445a"><path d="M 1055.761719 209.359375 C 1033.457031 209.359375 1015.375 227.441406 1015.375 249.75 C 1015.375 272.054688 1033.457031 290.136719 1055.761719 290.136719 C 1078.066406 290.136719 1096.152344 272.054688 1096.152344 249.75 C 1096.152344 227.441406 1078.066406 209.359375 1055.761719 209.359375 Z M 1055.761719 209.359375 " clip-rule="nonzero"/></clipPath><clipPath id="4398449486"><path d="M 703.4375 209.59375 L 784.214844 209.59375 L 784.214844 290.371094 L 703.4375 290.371094 Z M 703.4375 209.59375 " clip-rule="nonzero"/></clipPath><clipPath id="99c1161d21"><path d="M 743.828125 209.59375 C 721.519531 209.59375 703.4375 227.675781 703.4375 249.980469 C 703.4375 272.289062 721.519531 290.371094 743.828125 290.371094 C 766.132812 290.371094 784.214844 272.289062 784.214844 249.980469 C 784.214844 227.675781 766.132812 209.59375 743.828125 209.59375 Z M 743.828125 209.59375 " clip-rule="nonzero"/></clipPath><clipPath id="095c40ce03"><path d="M 681.625 447.128906 L 762.402344 447.128906 L 762.402344 527.90625 L 681.625 527.90625 Z M 681.625 447.128906 " clip-rule="nonzero"/></clipPath><clipPath id="7260d275a7"><path d="M 722.015625 447.128906 C 699.707031 447.128906 681.625 465.210938 681.625 487.515625 C 681.625 509.824219 699.707031 527.90625 722.015625 527.90625 C 744.320312 527.90625 762.402344 509.824219 762.402344 487.515625 C 762.402344 465.210938 744.320312 447.128906 722.015625 447.128906 Z M 722.015625 447.128906 " clip-rule="nonzero"/></clipPath><clipPath id="4abd445550"><path d="M 663.046875 684.898438 L 743.824219 684.898438 L 743.824219 765.675781 L 663.046875 765.675781 Z M 663.046875 684.898438 " clip-rule="nonzero"/></clipPath><clipPath id="152c07a8b1"><path d="M 703.433594 684.898438 C 681.128906 684.898438 663.046875 702.980469 663.046875 725.285156 C 663.046875 747.589844 681.128906 765.675781 703.433594 765.675781 C 725.742188 765.675781 743.824219 747.589844 743.824219 725.285156 C 743.824219 702.980469 725.742188 684.898438 703.433594 684.898438 Z M 703.433594 684.898438 " clip-rule="nonzero"/></clipPath><clipPath id="159fe25ecf"><path d="M 1069.90625 628.179688 L 1150.683594 628.179688 L 1150.683594 708.957031 L 1069.90625 708.957031 Z M 1069.90625 628.179688 " clip-rule="nonzero"/></clipPath><clipPath id="326a782f1b"><path d="M 1110.296875 628.179688 C 1087.992188 628.179688 1069.90625 646.265625 1069.90625 668.570312 C 1069.90625 690.875 1087.992188 708.957031 1110.296875 708.957031 C 1132.601562 708.957031 1150.683594 690.875 1150.683594 668.570312 C 1150.683594 646.265625 1132.601562 628.179688 1110.296875 628.179688 Z M 1110.296875 628.179688 " clip-rule="nonzero"/></clipPath></defs><path stroke-linecap="butt" transform="matrix(0.75, 0, 0, 0.75, 569.343736, -100.026808)" fill="none" stroke-linejoin="miter" d="M 756.713628 537.212875 L 310.630255 537.212875 L 295.000045 742.34831 C 327.562548 728.020184 366.958385 717.603516 413.197972 711.087891 C 459.432351 704.577474 503.609439 704.145182 545.718817 709.785807 C 624.734449 720.207683 688.770914 754.285811 737.82821 812.0254 C 786.885506 869.770197 811.416758 936.192078 811.416758 1011.301459 C 811.416758 1106.811885 776.359463 1185.827517 706.244873 1248.343147 C 636.130284 1310.858778 547.890693 1342.119197 441.5261 1342.119197 C 335.161507 1342.119197 246.921916 1310.968153 176.807326 1248.666064 C 106.692736 1186.369183 71.635442 1107.244176 71.635442 1011.301459 L 244.859415 1011.301459 C 244.859415 1071.212923 263.849 1120.593136 301.838587 1159.452514 C 339.828174 1198.306685 386.38547 1217.73377 441.5261 1217.73377 C 496.224021 1217.73377 542.682359 1198.306685 580.885487 1159.452514 C 619.088616 1120.593136 638.192784 1071.212923 638.192784 1011.301459 C 638.192784 957.900413 619.416741 915.025409 581.859446 882.686865 C 544.307359 850.343112 497.531313 832.863943 441.5261 830.259777 C 384.218803 828.09311 332.770882 841.764986 287.187544 871.285822 L 112.010445 871.285822 L 145.218781 398.50453 L 756.713628 398.50453 Z M 756.713628 537.212875 " stroke="#e45828" stroke-width="21.672462" stroke-opacity="1" stroke-miterlimit="4"/><g clip-path="url(#1b6aa03eb1)"><g clip-path="url(#9a1339445a)"><path stroke-linecap="butt" transform="matrix(0.75, 0, 0, 0.75, 1015.373616, 209.359766)" fill="none" stroke-linejoin="miter" d="M 53.850812 -0.00052137 C 24.111224 -0.00052137 0.00184513 24.108857 0.00184513 53.853654 C 0.00184513 83.593241 24.111224 107.70262 53.850812 107.70262 C 83.5904 107.70262 107.704987 83.593241 107.704987 53.853654 C 107.704987 24.108857 83.5904 -0.00052137 53.850812 -0.00052137 Z M 53.850812 -0.00052137 " stroke="#e45828" stroke-width="20" stroke-opacity="1" stroke-miterlimit="4"/></g></g><g clip-path="url(#4398449486)"><g clip-path="url(#99c1161d21)"><path stroke-linecap="butt" transform="matrix(0.75, 0, 0, 0.75, 703.438636, 209.592969)" fill="none" stroke-linejoin="miter" d="M 53.85266 0.00104106 C 24.107864 0.00104106 -0.00151483 24.11042 -0.00151483 53.850008 C -0.00151483 83.594804 24.107864 107.704183 53.85266 107.704183 C 83.592248 107.704183 107.701627 83.594804 107.701627 53.850008 C 107.701627 24.11042 83.592248 0.00104106 53.85266 0.00104106 Z M 53.85266 0.00104106 " stroke="#e45828" stroke-width="20" stroke-opacity="1" stroke-miterlimit="4"/></g></g><g clip-path="url(#095c40ce03)"><g clip-path="url(#7260d275a7)"><path stroke-linecap="butt" transform="matrix(0.75, 0, 0, 0.75, 681.62499, 447.128484)" fill="none" stroke-linejoin="miter" d="M 53.84898 0.000563123 C 24.109392 0.000563123 0.0000132254 24.109942 0.0000132254 53.84953 C 0.0000132254 83.594326 24.109392 107.703705 53.84898 107.703705 C 83.593776 107.703705 107.703155 83.594326 107.703155 53.84953 C 107.703155 24.109942 83.593776 0.000563123 53.84898 0.000563123 Z M 53.84898 0.000563123 " stroke="#e45828" stroke-width="20" stroke-opacity="1" stroke-miterlimit="4"/></g></g><g clip-path="url(#4abd445550)"><g clip-path="url(#152c07a8b1)"><path stroke-linecap="butt" transform="matrix(0.75, 0, 0, 0.75, 663.04592, 684.896991)" fill="none" stroke-linejoin="miter" d="M 53.85024 0.00192922 C 24.110652 0.00192922 0.00127367 24.111308 0.00127367 53.850896 C 0.00127367 83.590484 24.110652 107.705071 53.85024 107.705071 C 83.595037 107.705071 107.704415 83.590484 107.704415 53.850896 C 107.704415 24.111308 83.595037 0.00192922 53.85024 0.00192922 Z M 53.85024 0.00192922 " stroke="#e45828" stroke-width="20" stroke-opacity="1" stroke-miterlimit="4"/></g></g><g clip-path="url(#159fe25ecf)"><g clip-path="url(#326a782f1b)"><path stroke-linecap="butt" transform="matrix(0.75, 0, 0, 0.75, 1069.907755, 628.181516)" fill="none" stroke-linejoin="miter" d="M 53.852168 -0.00243756 C 24.11258 -0.00243756 -0.00200702 24.112149 -0.00200702 53.851737 C -0.00200702 83.591325 24.11258 107.700704 53.852168 107.700704 C 83.591756 107.700704 107.701135 83.591325 107.701135 53.851737 C 107.701135 24.112149 83.591756 -0.00243756 53.852168 -0.00243756 Z M 53.852168 -0.00243756 " stroke="#e45828" stroke-width="20" stroke-opacity="1" stroke-miterlimit="4"/></g></g></svg>