<svg xmlns="http://www.w3.org/2000/svg" xmlns:xlink="http://www.w3.org/1999/xlink" width="794" zoomAndPan="magnify" viewBox="0 0 594.95996 842.24997" height="1123" preserveAspectRatio="xMidYMid meet" version="1.0"><defs><clipPath id="1e8c71f467"><path d="M 59.207031 100.183594 L 535.78125 100.183594 L 535.78125 740.863281 L 59.207031 740.863281 Z M 59.207031 100.183594 " clip-rule="nonzero"/></clipPath></defs><g clip-path="url(#1e8c71f467)"><path fill="#231f20" d="M 304.101562 100.183594 C 387.214844 100.183594 457.132812 140.390625 498.03125 210.921875 C 503.972656 220.804688 507.269531 232.675781 507.269531 244.542969 C 507.269531 280.800781 476.925781 311.113281 440.652344 311.113281 C 416.246094 311.113281 397.113281 295.957031 383.261719 278.816406 C 356.878906 243.882812 339.0625 233.335938 304.101562 233.335938 C 256.613281 233.335938 223.628906 257.0625 205.816406 317.710938 C 235.496094 305.191406 268.480469 297.933594 304.101562 297.933594 C 434.714844 297.933594 535.628906 396.152344 535.628906 519.410156 C 535.628906 642.671875 434.050781 740.890625 310.695312 740.890625 C 163.601562 740.878906 59.382812 629.488281 59.382812 431.078125 C 59.382812 232.664062 160.964844 100.183594 304.101562 100.183594 Z M 310.703125 732.972656 C 430.761719 732.972656 527.726562 639.375 527.726562 519.402344 C 527.726562 399.429688 431.421875 305.832031 304.113281 305.832031 C 263.214844 305.832031 226.941406 315.71875 193.957031 332.195312 C 210.449219 256.390625 249.359375 225.417969 304.113281 225.417969 C 341.710938 225.417969 362.15625 237.285156 389.863281 273.535156 C 402.390625 290.675781 418.882812 303.195312 440.652344 303.195312 C 473.636719 303.195312 499.355469 277.484375 499.355469 244.535156 C 499.355469 233.988281 496.054688 223.441406 491.441406 214.871094 C 451.867188 146.324219 384.585938 108.089844 304.101562 108.089844 C 165.585938 108.089844 67.300781 231.351562 67.300781 431.078125 C 67.300781 630.800781 167.5625 732.972656 310.703125 732.972656 Z M 193.285156 519.410156 C 193.285156 456.789062 232.207031 423.175781 304.101562 423.175781 C 368.085938 423.175781 410.304688 457.449219 410.304688 519.410156 C 410.304688 581.371094 368.746094 615.644531 310.703125 615.644531 C 248.035156 615.644531 209.777344 591.257812 193.285156 522.699219 L 193.285156 519.402344 Z M 310.703125 607.734375 C 365.457031 607.734375 402.390625 578.074219 402.390625 519.410156 C 402.390625 460.75 364.792969 431.085938 304.101562 431.085938 C 235.496094 431.085938 201.199219 461.410156 201.199219 519.410156 L 201.199219 521.386719 C 217.03125 585.984375 251.328125 607.734375 310.695312 607.734375 Z M 310.703125 607.734375 " fill-opacity="1" fill-rule="nonzero"/></g><path fill="#231f20" d="M 123.195312 430.425781 L 123.195312 421.191406 C 123.195312 418.554688 125.171875 417.234375 127.15625 417.234375 C 129.144531 417.234375 131.121094 419.207031 131.121094 421.191406 L 131.121094 440.308594 C 131.121094 442.945312 129.796875 444.921875 127.15625 444.921875 C 124.519531 444.921875 123.195312 442.945312 123.195312 440.960938 L 123.195312 430.414062 Z M 127.15625 368.464844 C 127.15625 366.488281 129.132812 365.167969 131.121094 365.167969 C 133.757812 365.167969 135.082031 367.140625 134.417969 369.777344 L 132.441406 388.894531 C 132.441406 390.867188 131.121094 392.851562 128.480469 392.851562 L 128.480469 392.191406 C 126.503906 392.191406 124.519531 390.21875 124.519531 388.234375 C 125.179688 381.636719 125.84375 375.050781 127.15625 368.453125 Z M 131.773438 496.335938 L 131.109375 496.335938 C 129.132812 496.335938 127.808594 495.011719 127.148438 493.039062 L 125.171875 473.921875 C 125.171875 471.285156 126.496094 469.308594 128.472656 469.308594 C 131.109375 469.308594 133.085938 470.625 133.085938 472.609375 L 135.0625 492.386719 C 135.726562 494.359375 133.738281 496.34375 131.761719 496.34375 Z M 137.046875 317.050781 C 137.046875 315.074219 139.6875 313.75 141.664062 313.75 C 143.640625 314.414062 144.964844 317.050781 144.300781 319.023438 L 139.6875 337.480469 C 139.6875 339.453125 137.710938 340.777344 136.386719 340.777344 L 135.0625 340.777344 C 133.085938 340.117188 131.761719 338.140625 132.425781 336.164062 C 133.75 329.570312 135.0625 322.984375 137.039062 317.050781 Z M 135.726562 520.726562 C 135.0625 520.0625 135.0625 519.402344 135.0625 518.75 L 135.0625 508.203125 C 135.726562 506.230469 137.699219 504.246094 139.675781 504.90625 C 141.652344 504.90625 143.640625 506.882812 142.976562 508.855469 L 142.976562 518.742188 C 142.976562 520.0625 141.652344 521.375 140.339844 522.039062 C 141 522.699219 141 523.359375 141 524.011719 C 142.976562 529.949219 144.300781 536.535156 146.277344 542.46875 C 146.941406 544.441406 146.277344 546.417969 143.640625 547.078125 C 143.640625 547.742188 142.976562 547.742188 142.976562 547.742188 C 141 547.742188 139.675781 546.417969 139.015625 544.441406 C 137.039062 538.507812 135.054688 531.921875 133.738281 525.328125 C 133.078125 524.003906 134.402344 522.027344 135.714844 520.714844 Z M 148.261719 456.128906 C 148.925781 454.152344 151.5625 452.828125 153.539062 454.152344 C 155.515625 454.8125 156.179688 456.789062 155.515625 458.765625 C 152.878906 464.699219 150.902344 470.632812 148.917969 477.21875 C 148.253906 478.542969 146.941406 479.855469 144.953125 479.855469 L 143.628906 479.855469 C 141.652344 479.195312 140.328125 476.558594 140.992188 474.582031 C 142.96875 467.988281 145.605469 462.0625 148.246094 456.128906 Z M 154.855469 266.949219 C 155.515625 264.972656 158.15625 264.3125 160.132812 265.625 C 162.109375 266.285156 162.769531 268.261719 162.109375 270.234375 C 158.808594 276.171875 156.832031 282.105469 154.191406 288.03125 C 153.53125 290.003906 152.214844 290.664062 150.230469 290.664062 L 148.90625 290.664062 C 146.929688 290.003906 146.269531 287.367188 146.929688 285.394531 C 149.570312 279.457031 151.546875 272.871094 154.84375 266.9375 Z M 152.878906 570.164062 C 154.855469 569.503906 156.839844 570.164062 158.15625 572.140625 C 160.792969 578.074219 164.09375 584.007812 166.730469 589.28125 C 168.054688 591.257812 167.394531 593.230469 165.40625 594.554688 C 164.746094 595.214844 164.09375 595.214844 163.429688 595.214844 C 162.117188 595.214844 160.792969 594.554688 160.132812 593.242188 C 156.832031 587.304688 153.53125 581.371094 150.890625 575.445312 C 150.230469 573.472656 150.890625 571.496094 152.867188 570.175781 Z M 177.945312 411.308594 C 179.269531 409.996094 181.910156 409.996094 183.222656 411.308594 C 185.199219 412.632812 185.199219 415.269531 183.222656 417.242188 C 179.261719 421.855469 174.648438 426.476562 171.347656 431.746094 C 170.683594 432.410156 169.371094 433.0625 168.046875 433.0625 C 167.382812 433.0625 166.070312 433.0625 165.40625 432.398438 C 164.09375 431.078125 163.429688 428.441406 164.746094 427.128906 C 168.707031 421.855469 173.324219 416.582031 177.9375 411.308594 Z M 182.5625 222.128906 C 183.886719 220.152344 186.523438 220.152344 187.839844 221.46875 C 189.816406 222.789062 189.816406 225.425781 188.5 227.402344 C 184.539062 232.011719 180.585938 237.285156 177.285156 242.558594 C 176.621094 243.882812 175.308594 244.535156 173.984375 244.535156 C 173.324219 244.535156 172.660156 243.871094 172.007812 243.871094 C 170.03125 242.550781 169.371094 239.914062 170.683594 237.9375 L 182.5625 222.117188 Z M 179.921875 614.984375 C 181.898438 613.007812 183.886719 613.671875 185.863281 614.984375 C 189.824219 619.59375 194.4375 624.214844 199.054688 628.828125 C 200.378906 630.152344 200.378906 632.785156 199.054688 634.101562 C 198.390625 635.414062 197.078125 635.414062 196.414062 635.414062 C 195.089844 635.414062 194.4375 635.414062 193.777344 634.753906 C 188.5 630.140625 183.886719 625.519531 179.921875 620.246094 C 177.945312 618.273438 178.597656 616.289062 179.921875 614.972656 Z M 203.007812 390.21875 C 208.945312 386.257812 214.222656 382.96875 220.160156 379.671875 C 222.136719 378.359375 224.773438 379.671875 225.4375 381.644531 C 226.761719 383.621094 226.097656 385.605469 224.121094 386.917969 C 218.183594 389.554688 212.90625 392.851562 207.628906 396.804688 C 206.96875 396.804688 206.316406 397.464844 205.652344 397.464844 C 204.339844 397.464844 203.015625 396.804688 202.355469 395.488281 C 201.03125 393.515625 201.691406 390.878906 203.015625 390.21875 Z M 205.644531 198.402344 C 210.921875 193.789062 216.199219 189.828125 221.472656 186.53125 C 223.449219 185.21875 226.089844 185.21875 227.414062 187.195312 C 228.074219 189.167969 228.074219 191.804688 226.089844 193.128906 C 220.8125 196.425781 215.535156 200.375 210.921875 204.335938 C 210.257812 204.996094 208.945312 205.65625 208.28125 205.65625 C 206.957031 205.65625 205.644531 204.996094 204.980469 203.683594 C 203.660156 202.359375 203.660156 199.722656 205.644531 198.410156 Z M 224.773438 647.28125 C 230.050781 650.582031 235.328125 653.21875 241.265625 655.851562 C 243.242188 657.167969 244.566406 659.152344 243.242188 661.125 C 243.242188 662.449219 241.265625 663.761719 239.941406 663.761719 C 239.28125 663.761719 238.617188 663.761719 238.617188 663.101562 C 232.019531 660.464844 226.089844 657.828125 220.148438 654.53125 C 218.828125 653.207031 218.175781 650.570312 218.828125 648.597656 C 220.148438 647.28125 222.789062 646.621094 224.765625 647.28125 Z M 251.167969 367.140625 C 257.765625 365.167969 264.359375 363.84375 270.957031 362.53125 C 272.933594 362.53125 274.921875 363.84375 275.574219 365.828125 C 275.574219 367.800781 274.25 369.785156 272.273438 370.4375 C 265.671875 371.761719 259.742188 373.074219 253.804688 375.050781 L 252.480469 375.050781 C 250.503906 375.050781 249.179688 373.738281 248.519531 372.414062 C 247.855469 369.777344 249.179688 367.800781 251.15625 367.140625 Z M 251.820312 171.375 C 257.757812 168.738281 264.347656 166.761719 270.949219 165.441406 C 272.925781 164.777344 274.910156 166.101562 275.5625 168.738281 C 276.226562 170.714844 274.902344 172.699219 272.265625 173.351562 C 266.324219 174.671875 261.046875 175.984375 255.109375 177.960938 L 252.472656 178.621094 C 250.496094 179.285156 249.832031 177.960938 249.171875 175.984375 C 248.507812 174.011719 249.171875 172.035156 251.808594 171.375 Z M 271.609375 665.738281 C 278.210938 667.058594 284.140625 667.710938 290.742188 668.375 C 292.71875 669.035156 294.703125 670.347656 294.042969 672.984375 C 294.042969 674.960938 292.71875 676.945312 290.078125 676.285156 C 283.480469 674.960938 276.886719 674.308594 270.289062 672.984375 C 268.3125 672.984375 266.988281 671.011719 266.988281 668.375 C 267.648438 666.398438 269.625 665.074219 271.601562 665.738281 Z M 303.933594 161.480469 C 310.535156 161.480469 317.125 162.144531 323.726562 162.804688 C 326.363281 162.804688 327.6875 164.777344 327.6875 166.753906 C 327.023438 168.730469 325.710938 170.714844 323.726562 170.714844 L 323.0625 170.714844 C 317.125 170.050781 310.535156 169.398438 303.933594 169.398438 C 301.292969 169.398438 299.96875 168.078125 299.96875 165.441406 C 299.96875 163.464844 301.945312 161.480469 303.933594 161.480469 Z M 302.617188 359.230469 L 322.410156 339.453125 C 323.734375 338.792969 325.046875 338.140625 326.371094 338.140625 C 329.671875 338.140625 332.3125 340.117188 332.3125 343.414062 C 332.3125 345.386719 331.648438 346.710938 330.988281 348.023438 L 322.410156 364.503906 L 330.988281 380.984375 C 331.648438 382.296875 332.3125 382.960938 332.3125 384.945312 C 332.3125 388.242188 329.671875 390.878906 326.371094 390.878906 C 325.046875 390.878906 323.734375 390.21875 322.410156 388.902344 L 302.617188 369.125 C 301.292969 367.152344 299.980469 366.488281 299.980469 364.515625 C 299.980469 361.878906 301.304688 361.214844 302.617188 359.242188 Z M 310.535156 690.789062 L 319.109375 674.308594 L 310.535156 657.828125 C 309.871094 656.503906 309.210938 655.851562 309.210938 653.867188 C 309.210938 650.570312 311.847656 647.933594 315.148438 647.933594 C 316.472656 647.933594 317.785156 648.597656 319.109375 649.910156 L 338.902344 669.6875 C 340.226562 671.664062 341.539062 672.324219 341.539062 674.300781 C 341.539062 676.933594 340.214844 677.597656 338.902344 679.570312 L 319.109375 699.347656 C 317.785156 700.011719 316.472656 700.671875 315.148438 700.671875 C 311.847656 700.671875 309.210938 698.699219 309.210938 695.398438 C 309.210938 693.425781 309.871094 692.101562 310.535156 690.789062 Z M 356.707031 169.398438 C 363.308594 171.375 369.238281 173.351562 375.175781 176.648438 C 377.152344 177.308594 378.476562 179.945312 377.152344 181.921875 C 376.492188 183.242188 375.175781 183.894531 373.851562 183.894531 C 373.191406 183.894531 372.527344 183.894531 371.875 183.234375 C 366.601562 180.597656 360.660156 178.621094 354.070312 176.636719 C 352.09375 175.976562 350.769531 174 351.433594 172.027344 C 352.09375 169.390625 354.730469 168.730469 356.707031 169.390625 Z M 356.707031 366.480469 C 363.308594 368.453125 369.238281 370.4375 375.839844 373.074219 C 377.816406 373.738281 378.476562 376.375 377.816406 378.347656 C 377.152344 379.660156 375.839844 380.984375 373.851562 380.984375 C 373.410156 380.984375 372.96875 380.765625 372.527344 380.324219 C 366.589844 378.347656 360.652344 375.710938 354.722656 374.390625 C 352.085938 373.726562 351.421875 371.089844 351.421875 369.117188 C 352.085938 367.140625 354.722656 365.816406 356.699219 366.480469 Z M 371.875 657.828125 C 377.816406 655.851562 383.753906 652.554688 389.03125 649.917969 C 391.007812 648.597656 393.644531 649.257812 394.96875 651.242188 C 395.628906 653.21875 394.96875 655.851562 392.992188 656.515625 C 387.054688 659.8125 381.113281 662.449219 375.1875 665.085938 C 374.523438 665.746094 373.863281 665.746094 373.863281 665.746094 C 371.886719 665.746094 370.5625 664.433594 369.898438 663.109375 C 369.238281 661.136719 369.898438 658.5 371.875 657.835938 Z M 404.199219 193.78125 C 409.472656 197.730469 414.089844 202.351562 419.367188 206.960938 C 420.691406 208.285156 420.691406 210.921875 419.367188 212.234375 C 418.042969 213.546875 417.390625 213.546875 416.066406 213.546875 C 415.402344 213.546875 414.089844 213.546875 413.425781 212.234375 C 408.8125 208.273438 404.1875 203.664062 398.910156 199.714844 C 397.597656 198.402344 396.933594 196.417969 398.25 194.441406 C 399.5625 192.464844 402.210938 192.464844 404.1875 193.78125 Z M 404.859375 388.894531 C 410.796875 392.851562 416.074219 396.804688 420.691406 401.414062 C 422.664062 402.738281 422.664062 405.375 421.351562 406.6875 C 420.691406 407.347656 419.375 408.011719 418.050781 408.011719 C 417.390625 408.011719 416.726562 408.011719 415.414062 407.347656 C 410.796875 402.738281 405.523438 398.777344 400.246094 395.480469 C 398.921875 394.167969 398.269531 391.53125 399.582031 390.207031 C 400.90625 388.234375 402.882812 387.570312 404.859375 388.882812 Z M 415.414062 631.464844 C 420.027344 627.503906 424.652344 622.894531 428.605469 618.28125 C 430.582031 616.308594 432.566406 616.308594 434.542969 617.621094 C 435.867188 618.941406 436.519531 621.578125 434.542969 623.554688 C 430.582031 628.167969 425.304688 632.785156 420.691406 637.398438 C 420.027344 638.058594 418.714844 638.058594 418.050781 638.058594 C 416.726562 638.058594 415.414062 638.058594 414.75 636.738281 C 413.425781 635.414062 413.425781 632.777344 415.414062 631.464844 Z M 442.457031 217.515625 C 456.3125 217.515625 468.179688 229.386719 468.179688 243.882812 C 468.179688 258.375 456.300781 270.246094 442.457031 270.246094 C 428.613281 270.246094 415.414062 257.726562 415.414062 243.882812 C 415.414062 230.039062 427.941406 217.515625 442.457031 217.515625 Z M 434.542969 238.609375 C 435.203125 238.609375 436.519531 238.609375 437.179688 237.945312 L 439.820312 235.972656 L 439.820312 259.039062 C 439.820312 260.359375 441.132812 262.335938 443.121094 262.335938 C 445.105469 262.335938 446.421875 260.363281 446.421875 259.039062 L 446.421875 230.039062 C 446.421875 228.0625 445.097656 226.078125 443.121094 226.078125 C 442.457031 226.078125 441.796875 226.738281 440.480469 227.402344 L 432.566406 232.675781 C 431.90625 233.335938 431.242188 234.648438 431.242188 235.3125 C 431.242188 237.945312 432.566406 238.609375 434.542969 238.609375 Z M 437.832031 424.492188 C 439.808594 423.175781 442.449219 423.828125 443.773438 425.8125 C 447.734375 431.085938 451.023438 436.359375 454.324219 442.292969 C 455.648438 444.269531 454.988281 446.90625 453.011719 447.566406 C 452.347656 448.226562 451.6875 448.226562 451.035156 448.226562 C 449.710938 448.226562 448.394531 447.566406 447.734375 446.253906 C 444.433594 440.980469 441.132812 435.707031 437.179688 430.433594 C 435.855469 428.460938 436.519531 425.824219 437.84375 424.5 Z M 455.648438 574.777344 C 456.3125 572.800781 458.949219 572.140625 460.925781 572.800781 C 462.902344 573.460938 463.5625 576.097656 462.902344 578.074219 C 460.265625 584.007812 457.625 590.59375 454.324219 595.867188 C 453.664062 597.179688 452.347656 597.84375 450.363281 597.84375 L 449.039062 597.84375 C 447.0625 596.519531 446.402344 593.882812 447.0625 591.910156 C 450.363281 586.636719 453 580.699219 455.640625 574.765625 Z M 462.902344 470.632812 C 464.878906 469.972656 466.863281 471.292969 467.515625 473.269531 C 469.492188 479.203125 470.816406 485.789062 472.132812 492.386719 C 472.792969 495.023438 470.816406 496.996094 468.832031 496.996094 L 468.167969 496.996094 C 466.191406 496.996094 464.871094 495.683594 464.207031 493.699219 C 463.546875 487.765625 462.230469 481.179688 460.246094 475.242188 C 459.582031 473.269531 460.90625 471.292969 462.882812 470.632812 Z M 466.203125 525.335938 C 466.203125 523.359375 468.179688 522.039062 470.164062 522.039062 C 472.804688 522.039062 474.125 524.011719 474.125 525.996094 C 474.125 532.59375 472.804688 539.179688 472.152344 545.777344 C 471.488281 547.75 470.175781 549.074219 468.1875 549.074219 L 467.527344 549.074219 C 465.550781 549.074219 463.5625 546.4375 464.226562 544.460938 C 465.539062 538.527344 466.203125 531.941406 466.203125 525.34375 Z M 466.203125 525.335938 " fill-opacity="1" fill-rule="nonzero"/></svg>