<svg xmlns="http://www.w3.org/2000/svg" xmlns:xlink="http://www.w3.org/1999/xlink" width="2400" zoomAndPan="magnify" viewBox="0 0 1800 1199.999942" height="1600" preserveAspectRatio="xMidYMid meet" version="1.0"><defs><clipPath id="0f478fa2de"><path d="M 864.515625 242.082031 L 935.484375 242.082031 L 935.484375 313.050781 L 864.515625 313.050781 Z M 864.515625 242.082031 " clip-rule="nonzero"/></clipPath><clipPath id="b169d2434d"><path d="M 900 242.082031 C 880.402344 242.082031 864.515625 257.96875 864.515625 277.566406 C 864.515625 297.164062 880.402344 313.050781 900 313.050781 C 919.597656 313.050781 935.484375 297.164062 935.484375 277.566406 C 935.484375 257.96875 919.597656 242.082031 900 242.082031 Z M 900 242.082031 " clip-rule="nonzero"/></clipPath><clipPath id="8fb637deef"><path d="M 760.902344 402.414062 L 831.871094 402.414062 L 831.871094 473.382812 L 760.902344 473.382812 Z M 760.902344 402.414062 " clip-rule="nonzero"/></clipPath><clipPath id="9143c65567"><path d="M 796.386719 402.414062 C 776.789062 402.414062 760.902344 418.300781 760.902344 437.898438 C 760.902344 457.496094 776.789062 473.382812 796.386719 473.382812 C 815.984375 473.382812 831.871094 457.496094 831.871094 437.898438 C 831.871094 418.300781 815.984375 402.414062 796.386719 402.414062 Z M 796.386719 402.414062 " clip-rule="nonzero"/></clipPath><clipPath id="88fd35d9fc"><path d="M 654.015625 600.097656 L 724.984375 600.097656 L 724.984375 671.066406 L 654.015625 671.066406 Z M 654.015625 600.097656 " clip-rule="nonzero"/></clipPath><clipPath id="e1f08f5697"><path d="M 689.5 600.097656 C 669.902344 600.097656 654.015625 615.984375 654.015625 635.582031 C 654.015625 655.179688 669.902344 671.066406 689.5 671.066406 C 709.097656 671.066406 724.984375 655.179688 724.984375 635.582031 C 724.984375 615.984375 709.097656 600.097656 689.5 600.097656 Z M 689.5 600.097656 " clip-rule="nonzero"/></clipPath><clipPath id="32a3a2dd99"><path d="M 727.601562 781.976562 L 796.601562 781.976562 L 796.601562 852.933594 L 727.601562 852.933594 Z M 727.601562 781.976562 " clip-rule="nonzero"/></clipPath><clipPath id="c72351c311"><path d="M 761.988281 781.976562 C 742.996094 781.976562 727.601562 797.859375 727.601562 817.453125 C 727.601562 837.050781 742.996094 852.933594 761.988281 852.933594 C 780.980469 852.933594 796.378906 837.050781 796.378906 817.453125 C 796.378906 797.859375 780.980469 781.976562 761.988281 781.976562 Z M 761.988281 781.976562 " clip-rule="nonzero"/></clipPath><clipPath id="a43a7ad119"><path d="M 1003.035156 781.96875 L 1074.003906 781.96875 L 1074.003906 852.9375 L 1003.035156 852.9375 Z M 1003.035156 781.96875 " clip-rule="nonzero"/></clipPath><clipPath id="348508bd62"><path d="M 1038.519531 781.96875 C 1018.921875 781.96875 1003.035156 797.855469 1003.035156 817.453125 C 1003.035156 837.050781 1018.921875 852.9375 1038.519531 852.9375 C 1058.117188 852.9375 1074.003906 837.050781 1074.003906 817.453125 C 1074.003906 797.855469 1058.117188 781.96875 1038.519531 781.96875 Z M 1038.519531 781.96875 " clip-rule="nonzero"/></clipPath><clipPath id="a1739cc1d6"><path d="M 1038.519531 504.9375 L 1109.488281 504.9375 L 1109.488281 575.90625 L 1038.519531 575.90625 Z M 1038.519531 504.9375 " clip-rule="nonzero"/></clipPath><clipPath id="6b36444588"><path d="M 1074.003906 504.9375 C 1054.40625 504.9375 1038.519531 520.824219 1038.519531 540.421875 C 1038.519531 560.019531 1054.40625 575.90625 1074.003906 575.90625 C 1093.601562 575.90625 1109.488281 560.019531 1109.488281 540.421875 C 1109.488281 520.824219 1093.601562 504.9375 1074.003906 504.9375 Z M 1074.003906 504.9375 " clip-rule="nonzero"/></clipPath></defs><path stroke-linecap="butt" transform="matrix(0.75, 0, 0, 0.75, 569.343736, -100.026573)" fill="none" stroke-linejoin="miter" d="M 598.468822 399.155258 L 389.427137 714.342786 C 429.80214 700.019868 481.901103 696.545909 545.718817 703.926118 C 625.599033 713.910494 689.854247 747.775081 738.479251 805.514669 C 787.104256 863.254258 811.416758 931.853222 811.416758 1011.301146 C 811.416758 1106.811571 776.359463 1185.717828 706.244873 1248.014709 C 636.130284 1310.316798 547.890693 1341.467842 441.5261 1341.467842 C 334.724007 1341.467842 246.375041 1310.426173 176.479201 1248.342834 C 106.583361 1186.259495 71.635442 1107.243863 71.635442 1011.301146 C 71.635442 947.045932 93.776069 880.837592 138.057323 812.676128 L 411.567764 399.155258 Z M 441.5261 1217.733456 C 496.224021 1217.733456 542.682359 1198.306371 580.885487 1159.452201 C 619.088616 1120.592822 638.192784 1071.21261 638.192784 1011.301146 C 638.192784 960.504266 618.869866 916.764679 580.234445 880.077176 C 541.593817 843.394881 495.359438 825.051129 441.5261 825.051129 C 387.255262 825.051129 340.911507 843.504256 302.489629 880.405301 C 264.06775 917.306346 244.859415 960.936558 244.859415 1011.301146 C 244.859415 1071.21261 263.849 1120.592822 301.838587 1159.452201 C 339.828174 1198.306371 386.38547 1217.733456 441.5261 1217.733456 Z M 441.5261 1217.733456 " stroke="#e45828" stroke-width="21.672462" stroke-opacity="1" stroke-miterlimit="4"/><g clip-path="url(#0f478fa2de)"><g clip-path="url(#b169d2434d)"><path stroke-linecap="butt" transform="matrix(0.75, 0, 0, 0.75, 864.515294, 242.080271)" fill="none" stroke-linejoin="miter" d="M 47.312946 0.00234688 C 21.182735 0.00234688 0.000441758 21.18464 0.000441758 47.314851 C 0.000441758 73.445062 21.182735 94.627355 47.312946 94.627355 C 73.443157 94.627355 94.62545 73.445062 94.62545 47.314851 C 94.62545 21.18464 73.443157 0.00234688 47.312946 0.00234688 Z M 47.312946 0.00234688 " stroke="#e45828" stroke-width="20" stroke-opacity="1" stroke-miterlimit="4"/></g></g><g clip-path="url(#8fb637deef)"><g clip-path="url(#9143c65567)"><path stroke-linecap="butt" transform="matrix(0.75, 0, 0, 0.75, 760.903031, 402.412912)" fill="none" stroke-linejoin="miter" d="M 47.311588 0.00153411 C 21.181377 0.00153411 -0.000916297 21.183828 -0.000916297 47.314038 C -0.000916297 73.444249 21.181377 94.626543 47.311588 94.626543 C 73.441799 94.626543 94.624092 73.444249 94.624092 47.314038 C 94.624092 21.183828 73.441799 0.00153411 47.311588 0.00153411 Z M 47.311588 0.00153411 " stroke="#e45828" stroke-width="20" stroke-opacity="1" stroke-miterlimit="4"/></g></g><g clip-path="url(#88fd35d9fc)"><g clip-path="url(#e1f08f5697)"><path stroke-linecap="butt" transform="matrix(0.75, 0, 0, 0.75, 654.016209, 600.098134)" fill="none" stroke-linejoin="miter" d="M 47.311726 -0.000637255 C 21.181515 -0.000637255 -0.000778075 21.181656 -0.000778075 47.311867 C -0.000778075 73.442078 21.181515 94.624371 47.311726 94.624371 C 73.441937 94.624371 94.62423 73.442078 94.62423 47.311867 C 94.62423 21.181656 73.441937 -0.000637255 47.311726 -0.000637255 Z M 47.311726 -0.000637255 " stroke="#e45828" stroke-width="20" stroke-opacity="1" stroke-miterlimit="4"/></g></g><g clip-path="url(#32a3a2dd99)"><g clip-path="url(#c72351c311)"><path stroke-linecap="butt" transform="matrix(0.75, 0, 0, 0.75, 727.59977, 781.975278)" fill="none" stroke-linejoin="miter" d="M 45.85135 0.00171282 C 20.528432 0.00171282 0.00239006 21.178797 0.00239006 47.303797 C 0.00239006 73.434006 20.528432 94.61109 45.85135 94.61109 C 71.174267 94.61109 91.705517 73.434006 91.705517 47.303797 C 91.705517 21.178797 71.174267 0.00171282 45.85135 0.00171282 Z M 45.85135 0.00171282 " stroke="#e45828" stroke-width="20" stroke-opacity="1" stroke-miterlimit="4"/></g></g><g clip-path="url(#a43a7ad119)"><g clip-path="url(#348508bd62)"><path stroke-linecap="butt" transform="matrix(0.75, 0, 0, 0.75, 1003.034377, 781.97007)" fill="none" stroke-linejoin="miter" d="M 47.313543 -0.00175984 C 21.183332 -0.00175984 0.00103865 21.180534 0.00103865 47.310744 C 0.00103865 73.440955 21.183332 94.623249 47.313543 94.623249 C 73.443754 94.623249 94.626047 73.440955 94.626047 47.310744 C 94.626047 21.180534 73.443754 -0.00175984 47.313543 -0.00175984 Z M 47.313543 -0.00175984 " stroke="#e45828" stroke-width="20" stroke-opacity="1" stroke-miterlimit="4"/></g></g><g clip-path="url(#a1739cc1d6)"><g clip-path="url(#6b36444588)"><path stroke-linecap="butt" transform="matrix(0.75, 0, 0, 0.75, 1038.519094, 504.936967)" fill="none" stroke-linejoin="miter" d="M 47.313087 0.000711035 C 21.182876 0.000711035 0.000582894 21.183005 0.000582894 47.313215 C 0.000582894 73.443426 21.182876 94.62572 47.313087 94.62572 C 73.443298 94.62572 94.625591 73.443426 94.625591 47.313215 C 94.625591 21.183005 73.443298 0.000711035 47.313087 0.000711035 Z M 47.313087 0.000711035 " stroke="#e45828" stroke-width="20" stroke-opacity="1" stroke-miterlimit="4"/></g></g></svg>