<svg xmlns="http://www.w3.org/2000/svg" xmlns:xlink="http://www.w3.org/1999/xlink" width="800" zoomAndPan="magnify" viewBox="0 0 600 899.99999" height="1200" preserveAspectRatio="xMidYMid meet" version="1.0"><defs><clipPath id="1f9e7c618f"><path d="M 270 128.738281 L 330 128.738281 L 330 188.738281 L 270 188.738281 Z M 270 128.738281 " clip-rule="nonzero"/></clipPath><clipPath id="318f8e94c6"><path d="M 300 128.738281 C 283.429688 128.738281 270 142.167969 270 158.738281 C 270 175.304688 283.429688 188.738281 300 188.738281 C 316.570312 188.738281 330 175.304688 330 158.738281 C 330 142.167969 316.570312 128.738281 300 128.738281 Z M 300 128.738281 " clip-rule="nonzero"/></clipPath><clipPath id="c9b6a6e2c2"><path d="M 84.316406 492.511719 L 144.316406 492.511719 L 144.316406 552.511719 L 84.316406 552.511719 Z M 84.316406 492.511719 " clip-rule="nonzero"/></clipPath><clipPath id="a624039701"><path d="M 114.316406 492.511719 C 97.746094 492.511719 84.316406 505.941406 84.316406 522.511719 C 84.316406 539.082031 97.746094 552.511719 114.316406 552.511719 C 130.882812 552.511719 144.316406 539.082031 144.316406 522.511719 C 144.316406 505.941406 130.882812 492.511719 114.316406 492.511719 Z M 114.316406 492.511719 " clip-rule="nonzero"/></clipPath><clipPath id="eee5427b05"><path d="M 158.445312 298.429688 L 218.445312 298.429688 L 218.445312 358.429688 L 158.445312 358.429688 Z M 158.445312 298.429688 " clip-rule="nonzero"/></clipPath><clipPath id="4f534eb703"><path d="M 188.445312 298.429688 C 171.875 298.429688 158.445312 311.859375 158.445312 328.429688 C 158.445312 344.996094 171.875 358.429688 188.445312 358.429688 C 205.011719 358.429688 218.445312 344.996094 218.445312 328.429688 C 218.445312 311.859375 205.011719 298.429688 188.445312 298.429688 Z M 188.445312 298.429688 " clip-rule="nonzero"/></clipPath><clipPath id="e5cfd11e81"><path d="M 259.527344 648.855469 L 319.527344 648.855469 L 319.527344 708.855469 L 259.527344 708.855469 Z M 259.527344 648.855469 " clip-rule="nonzero"/></clipPath><clipPath id="40eb3237d8"><path d="M 289.527344 648.855469 C 272.960938 648.855469 259.527344 662.289062 259.527344 678.855469 C 259.527344 695.425781 272.960938 708.855469 289.527344 708.855469 C 306.097656 708.855469 319.527344 695.425781 319.527344 678.855469 C 319.527344 662.289062 306.097656 648.855469 289.527344 648.855469 Z M 289.527344 648.855469 " clip-rule="nonzero"/></clipPath><clipPath id="20770d97f9"><path d="M 370.953125 328.429688 L 430.953125 328.429688 L 430.953125 388.429688 L 370.953125 388.429688 Z M 370.953125 328.429688 " clip-rule="nonzero"/></clipPath><clipPath id="c1efa6fc58"><path d="M 400.953125 328.429688 C 384.386719 328.429688 370.953125 341.859375 370.953125 358.429688 C 370.953125 374.996094 384.386719 388.429688 400.953125 388.429688 C 417.523438 388.429688 430.953125 374.996094 430.953125 358.429688 C 430.953125 341.859375 417.523438 328.429688 400.953125 328.429688 Z M 400.953125 328.429688 " clip-rule="nonzero"/></clipPath><clipPath id="afed2df0be"><path d="M 453.167969 492.511719 L 513.167969 492.511719 L 513.167969 552.511719 L 453.167969 552.511719 Z M 453.167969 492.511719 " clip-rule="nonzero"/></clipPath><clipPath id="fff3e64c98"><path d="M 483.167969 492.511719 C 466.601562 492.511719 453.167969 505.941406 453.167969 522.511719 C 453.167969 539.082031 466.601562 552.511719 483.167969 552.511719 C 499.738281 552.511719 513.167969 539.082031 513.167969 522.511719 C 513.167969 505.941406 499.738281 492.511719 483.167969 492.511719 Z M 483.167969 492.511719 " clip-rule="nonzero"/></clipPath></defs><path stroke-linecap="butt" transform="matrix(0.656476, 0, 0, 0.656476, 10.576022, -162.820635)" fill="none" stroke-linejoin="miter" d="M 598.469484 399.154537 L 389.428462 714.343486 C 429.801447 700.021043 481.902531 696.54605 545.719814 703.924459 C 625.602986 713.909112 689.854643 747.772436 738.480735 805.514433 C 787.100876 863.256429 811.413922 931.851826 811.413922 1011.300625 C 811.413922 1106.809362 776.360532 1185.71668 706.24185 1248.016629 C 636.129119 1310.316578 547.891684 1341.466552 441.523596 1341.466552 C 334.727084 1341.466552 246.376593 1310.423684 176.478073 1248.343897 C 106.579554 1186.25816 71.633269 1107.243736 71.633269 1011.300625 C 71.633269 947.048968 93.774445 880.839652 138.056796 812.678629 L 411.569638 399.154537 Z M 441.523596 1217.735402 C 496.224974 1217.735402 542.679196 1198.307577 580.886261 1159.451926 C 619.087375 1120.596275 638.193883 1071.208541 638.193883 1011.300625 C 638.193883 960.502663 618.873164 916.761791 580.231724 880.07801 C 541.596236 843.39423 495.356226 825.049364 441.523596 825.049364 C 387.256592 825.049364 340.909476 843.501336 302.488199 880.405278 C 264.066922 917.309221 244.859259 960.937037 244.859259 1011.300625 C 244.859259 1071.208541 263.85271 1120.596275 301.839613 1159.451926 C 339.826516 1198.307577 386.387844 1217.735402 441.523596 1217.735402 Z M 441.523596 1217.735402 " stroke="#e45828" stroke-width="21.672462" stroke-opacity="1" stroke-miterlimit="4"/><g clip-path="url(#1f9e7c618f)"><g clip-path="url(#318f8e94c6)"><path stroke-linecap="butt" transform="matrix(0.75, 0, 0, 0.75, 269.999989, 128.737396)" fill="none" stroke-linejoin="miter" d="M 40.000017 0.00118078 C 17.906266 0.00118078 0.0000145733 17.907432 0.0000145733 40.001183 C 0.0000145733 62.089726 17.906266 80.001185 40.000017 80.001185 C 62.093768 80.001185 80.000019 62.089726 80.000019 40.001183 C 80.000019 17.907432 62.093768 0.00118078 40.000017 0.00118078 Z M 40.000017 0.00118078 " stroke="#e45828" stroke-width="10" stroke-opacity="1" stroke-miterlimit="4"/></g></g><g clip-path="url(#c9b6a6e2c2)"><g clip-path="url(#a624039701)"><path stroke-linecap="butt" transform="matrix(0.75, 0, 0, 0.75, 84.315467, 492.511866)" fill="none" stroke-linejoin="miter" d="M 40.001255 -0.000196634 C 17.907504 -0.000196634 0.00125262 17.906054 0.00125262 39.999805 C 0.00125262 62.093557 17.907504 79.999808 40.001255 79.999808 C 62.089798 79.999808 80.001257 62.093557 80.001257 39.999805 C 80.001257 17.906054 62.089798 -0.000196634 40.001255 -0.000196634 Z M 40.001255 -0.000196634 " stroke="#e45828" stroke-width="10" stroke-opacity="1" stroke-miterlimit="4"/></g></g><g clip-path="url(#eee5427b05)"><g clip-path="url(#4f534eb703)"><path stroke-linecap="butt" transform="matrix(0.75, 0, 0, 0.75, 158.444131, 298.429224)" fill="none" stroke-linejoin="miter" d="M 40.001578 0.000618557 C 17.907826 0.000618557 0.00157546 17.906869 0.00157546 40.000621 C 0.00157546 62.089163 17.907826 80.000623 40.001578 80.000623 C 62.09012 80.000623 80.00158 62.089163 80.00158 40.000621 C 80.00158 17.906869 62.09012 0.000618557 40.001578 0.000618557 Z M 40.001578 0.000618557 " stroke="#e45828" stroke-width="10" stroke-opacity="1" stroke-miterlimit="4"/></g></g><g clip-path="url(#e5cfd11e81)"><g clip-path="url(#40eb3237d8)"><path stroke-linecap="butt" transform="matrix(0.75, 0, 0, 0.75, 259.528701, 648.855922)" fill="none" stroke-linejoin="miter" d="M 39.998193 -0.000604391 C 17.90965 -0.000604391 -0.00180942 17.910855 -0.00180942 39.999398 C -0.00180942 62.093149 17.90965 79.9994 39.998193 79.9994 C 62.091944 79.9994 79.998195 62.093149 79.998195 39.999398 C 79.998195 17.910855 62.091944 -0.000604391 39.998193 -0.000604391 Z M 39.998193 -0.000604391 " stroke="#e45828" stroke-width="10" stroke-opacity="1" stroke-miterlimit="4"/></g></g><g clip-path="url(#20770d97f9)"><g clip-path="url(#c1efa6fc58)"><path stroke-linecap="butt" transform="matrix(0.75, 0, 0, 0.75, 370.954378, 328.429222)" fill="none" stroke-linejoin="miter" d="M 39.998331 0.00062065 C 17.909788 0.00062065 -0.00167092 17.906872 -0.00167092 40.000623 C -0.00167092 62.089166 17.909788 80.000625 39.998331 80.000625 C 62.092082 80.000625 79.998333 62.089166 79.998333 40.000623 C 79.998333 17.906872 62.092082 0.00062065 39.998331 0.00062065 Z M 39.998331 0.00062065 " stroke="#e45828" stroke-width="10" stroke-opacity="1" stroke-miterlimit="4"/></g></g><g clip-path="url(#afed2df0be)"><g clip-path="url(#fff3e64c98)"><path stroke-linecap="butt" transform="matrix(0.75, 0, 0, 0.75, 453.169803, 492.511866)" fill="none" stroke-linejoin="miter" d="M 39.997556 -0.000196634 C 17.909013 -0.000196634 -0.00244631 17.906054 -0.00244631 39.999805 C -0.00244631 62.093557 17.909013 79.999808 39.997556 79.999808 C 62.091307 79.999808 79.997558 62.093557 79.997558 39.999805 C 79.997558 17.906054 62.091307 -0.000196634 39.997556 -0.000196634 Z M 39.997556 -0.000196634 " stroke="#e45828" stroke-width="10" stroke-opacity="1" stroke-miterlimit="4"/></g></g></svg>