<svg xmlns="http://www.w3.org/2000/svg" xmlns:xlink="http://www.w3.org/1999/xlink" width="800" zoomAndPan="magnify" viewBox="0 0 600 899.99999" height="1200" preserveAspectRatio="xMidYMid meet" version="1.0"><defs><clipPath id="87c1939293"><path d="M 106.230469 115.257812 L 166.230469 115.257812 L 166.230469 175.257812 L 106.230469 175.257812 Z M 106.230469 115.257812 " clip-rule="nonzero"/></clipPath><clipPath id="558bf518c8"><path d="M 136.230469 115.257812 C 119.660156 115.257812 106.230469 128.691406 106.230469 145.257812 C 106.230469 161.828125 119.660156 175.257812 136.230469 175.257812 C 152.796875 175.257812 166.230469 161.828125 166.230469 145.257812 C 166.230469 128.691406 152.796875 115.257812 136.230469 115.257812 Z M 136.230469 115.257812 " clip-rule="nonzero"/></clipPath><clipPath id="f64de10e62"><path d="M 411.828125 115.257812 L 471.828125 115.257812 L 471.828125 175.257812 L 411.828125 175.257812 Z M 411.828125 115.257812 " clip-rule="nonzero"/></clipPath><clipPath id="e0284eb4e2"><path d="M 441.828125 115.257812 C 425.261719 115.257812 411.828125 128.691406 411.828125 145.257812 C 411.828125 161.828125 425.261719 175.257812 441.828125 175.257812 C 458.398438 175.257812 471.828125 161.828125 471.828125 145.257812 C 471.828125 128.691406 458.398438 115.257812 441.828125 115.257812 Z M 441.828125 115.257812 " clip-rule="nonzero"/></clipPath><clipPath id="7ac4662087"><path d="M 270 115.257812 L 330 115.257812 L 330 175.257812 L 270 175.257812 Z M 270 115.257812 " clip-rule="nonzero"/></clipPath><clipPath id="68294c3c35"><path d="M 300 115.257812 C 283.429688 115.257812 270 128.691406 270 145.257812 C 270 161.828125 283.429688 175.257812 300 175.257812 C 316.570312 175.257812 330 161.828125 330 145.257812 C 330 128.691406 316.570312 115.257812 300 115.257812 Z M 300 115.257812 " clip-rule="nonzero"/></clipPath><clipPath id="f0edde2e3c"><path d="M 220.441406 642.117188 L 280.441406 642.117188 L 280.441406 702.117188 L 220.441406 702.117188 Z M 220.441406 642.117188 " clip-rule="nonzero"/></clipPath><clipPath id="4863aeadd0"><path d="M 250.441406 642.117188 C 233.875 642.117188 220.441406 655.546875 220.441406 672.117188 C 220.441406 688.683594 233.875 702.117188 250.441406 702.117188 C 267.011719 702.117188 280.441406 688.683594 280.441406 672.117188 C 280.441406 655.546875 267.011719 642.117188 250.441406 642.117188 Z M 250.441406 642.117188 " clip-rule="nonzero"/></clipPath><clipPath id="31e6af318d"><path d="M 270 519.335938 L 330 519.335938 L 330 579.335938 L 270 579.335938 Z M 270 519.335938 " clip-rule="nonzero"/></clipPath><clipPath id="2a62e20f17"><path d="M 300 519.335938 C 283.429688 519.335938 270 532.769531 270 549.335938 C 270 565.90625 283.429688 579.335938 300 579.335938 C 316.570312 579.335938 330 565.90625 330 549.335938 C 330 532.769531 316.570312 519.335938 300 519.335938 Z M 300 519.335938 " clip-rule="nonzero"/></clipPath><clipPath id="0758782128"><path d="M 318.703125 380.515625 L 378.703125 380.515625 L 378.703125 440.515625 L 318.703125 440.515625 Z M 318.703125 380.515625 " clip-rule="nonzero"/></clipPath><clipPath id="e177c1f87f"><path d="M 348.703125 380.515625 C 332.132812 380.515625 318.703125 393.945312 318.703125 410.515625 C 318.703125 427.082031 332.132812 440.515625 348.703125 440.515625 C 365.269531 440.515625 378.703125 427.082031 378.703125 410.515625 C 378.703125 393.945312 365.269531 380.515625 348.703125 380.515625 Z M 348.703125 380.515625 " clip-rule="nonzero"/></clipPath><clipPath id="e5579133b8"><path d="M 369.917969 247.886719 L 429.917969 247.886719 L 429.917969 307.886719 L 369.917969 307.886719 Z M 369.917969 247.886719 " clip-rule="nonzero"/></clipPath><clipPath id="1ebe2f3d58"><path d="M 399.917969 247.886719 C 383.347656 247.886719 369.917969 261.320312 369.917969 277.886719 C 369.917969 294.457031 383.347656 307.886719 399.917969 307.886719 C 416.484375 307.886719 429.917969 294.457031 429.917969 277.886719 C 429.917969 261.320312 416.484375 247.886719 399.917969 247.886719 Z M 399.917969 247.886719 " clip-rule="nonzero"/></clipPath></defs><path stroke-linecap="butt" transform="matrix(0.656476, 0, 0, 0.656476, 45.417987, -162.820752)" fill="none" stroke-linejoin="miter" d="M 731.313306 399.154716 L 373.799665 1332.999412 L 199.925089 1332.999412 L 504.040475 537.862845 L 71.635988 537.862845 L 71.635988 399.154716 Z M 731.313306 399.154716 " stroke="#e45828" stroke-width="21.672462" stroke-opacity="1" stroke-miterlimit="4"/><g clip-path="url(#87c1939293)"><g clip-path="url(#558bf518c8)"><path stroke-linecap="butt" transform="matrix(0.75, 0, 0, 0.75, 106.228702, 115.259546)" fill="none" stroke-linejoin="miter" d="M 40.002358 -0.00231129 C 17.908607 -0.00231129 0.00235615 17.909148 0.00235615 39.997691 C 0.00235615 62.091442 17.908607 79.997693 40.002358 79.997693 C 62.090901 79.997693 80.00236 62.091442 80.00236 39.997691 C 80.00236 17.909148 62.090901 -0.00231129 40.002358 -0.00231129 Z M 40.002358 -0.00231129 " stroke="#e45828" stroke-width="10" stroke-opacity="1" stroke-miterlimit="4"/></g></g><g clip-path="url(#f64de10e62)"><g clip-path="url(#e0284eb4e2)"><path stroke-linecap="butt" transform="matrix(0.75, 0, 0, 0.75, 411.829398, 115.259546)" fill="none" stroke-linejoin="miter" d="M 39.998305 -0.00231129 C 17.909762 -0.00231129 -0.00169686 17.909148 -0.00169686 39.997691 C -0.00169686 62.091442 17.909762 79.997693 39.998305 79.997693 C 62.092056 79.997693 79.998307 62.091442 79.998307 39.997691 C 79.998307 17.909148 62.092056 -0.00231129 39.998305 -0.00231129 Z M 39.998305 -0.00231129 " stroke="#e45828" stroke-width="10" stroke-opacity="1" stroke-miterlimit="4"/></g></g><g clip-path="url(#7ac4662087)"><g clip-path="url(#68294c3c35)"><path stroke-linecap="butt" transform="matrix(0.75, 0, 0, 0.75, 269.999989, 115.259546)" fill="none" stroke-linejoin="miter" d="M 40.000017 -0.00231129 C 17.906266 -0.00231129 0.0000145733 17.909148 0.0000145733 39.997691 C 0.0000145733 62.091442 17.906266 79.997693 40.000017 79.997693 C 62.093768 79.997693 80.000019 62.091442 80.000019 39.997691 C 80.000019 17.909148 62.093768 -0.00231129 40.000017 -0.00231129 Z M 40.000017 -0.00231129 " stroke="#e45828" stroke-width="10" stroke-opacity="1" stroke-miterlimit="4"/></g></g><g clip-path="url(#f0edde2e3c)"><g clip-path="url(#4863aeadd0)"><path stroke-linecap="butt" transform="matrix(0.75, 0, 0, 0.75, 220.442658, 642.116698)" fill="none" stroke-linejoin="miter" d="M 39.998333 0.000652139 C 17.90979 0.000652139 -0.00166908 17.906903 -0.00166908 40.000654 C -0.00166908 62.089197 17.90979 80.000656 39.998333 80.000656 C 62.092084 80.000656 79.998335 62.089197 79.998335 40.000654 C 79.998335 17.906903 62.092084 0.000652139 39.998333 0.000652139 Z M 39.998333 0.000652139 " stroke="#e45828" stroke-width="10" stroke-opacity="1" stroke-miterlimit="4"/></g></g><g clip-path="url(#31e6af318d)"><g clip-path="url(#2a62e20f17)"><path stroke-linecap="butt" transform="matrix(0.75, 0, 0, 0.75, 269.999989, 519.337721)" fill="none" stroke-linejoin="miter" d="M 40.000017 -0.00237776 C 17.906266 -0.00237776 0.0000145733 17.909082 0.0000145733 39.997624 C 0.0000145733 62.091375 17.906266 79.997626 40.000017 79.997626 C 62.093768 79.997626 80.000019 62.091375 80.000019 39.997624 C 80.000019 17.909082 62.093768 -0.00237776 40.000017 -0.00237776 Z M 40.000017 -0.00237776 " stroke="#e45828" stroke-width="10" stroke-opacity="1" stroke-miterlimit="4"/></g></g><g clip-path="url(#0758782128)"><g clip-path="url(#e177c1f87f)"><path stroke-linecap="butt" transform="matrix(0.75, 0, 0, 0.75, 318.701471, 380.514845)" fill="none" stroke-linejoin="miter" d="M 40.002208 0.00104015 C 17.908457 0.00104015 0.00220597 17.907291 0.00220597 40.001042 C 0.00220597 62.089585 17.908457 80.001044 40.002208 80.001044 C 62.090751 80.001044 80.00221 62.089585 80.00221 40.001042 C 80.00221 17.907291 62.090751 0.00104015 40.002208 0.00104015 Z M 40.002208 0.00104015 " stroke="#e45828" stroke-width="10" stroke-opacity="1" stroke-miterlimit="4"/></g></g><g clip-path="url(#e5579133b8)"><g clip-path="url(#1ebe2f3d58)"><path stroke-linecap="butt" transform="matrix(0.75, 0, 0, 0.75, 369.91765, 247.887194)" fill="none" stroke-linejoin="miter" d="M 40.000427 -0.00063397 C 17.906676 -0.00063397 0.000424679 17.910825 0.000424679 39.999368 C 0.000424679 62.093119 17.906676 79.99937 40.000427 79.99937 C 62.08897 79.99937 80.000429 62.093119 80.000429 39.999368 C 80.000429 17.910825 62.08897 -0.00063397 40.000427 -0.00063397 Z M 40.000427 -0.00063397 " stroke="#e45828" stroke-width="10" stroke-opacity="1" stroke-miterlimit="4"/></g></g></svg>