<svg xmlns="http://www.w3.org/2000/svg" xmlns:xlink="http://www.w3.org/1999/xlink" width="2400" zoomAndPan="magnify" viewBox="0 0 1800 1199.999942" height="1600" preserveAspectRatio="xMidYMid meet" version="1.0"><defs><clipPath id="bd38dc3d0e"><path d="M 687.824219 215.902344 L 758.792969 215.902344 L 758.792969 286.871094 L 687.824219 286.871094 Z M 687.824219 215.902344 " clip-rule="nonzero"/></clipPath><clipPath id="58adfe4e32"><path d="M 723.308594 215.902344 C 703.710938 215.902344 687.824219 231.789062 687.824219 251.386719 C 687.824219 270.984375 703.710938 286.871094 723.308594 286.871094 C 742.90625 286.871094 758.792969 270.984375 758.792969 251.386719 C 758.792969 231.789062 742.90625 215.902344 723.308594 215.902344 Z M 723.308594 215.902344 " clip-rule="nonzero"/></clipPath><clipPath id="99246d7121"><path d="M 864.515625 215.902344 L 935.484375 215.902344 L 935.484375 286.871094 L 864.515625 286.871094 Z M 864.515625 215.902344 " clip-rule="nonzero"/></clipPath><clipPath id="a9df9178e3"><path d="M 900 215.902344 C 880.402344 215.902344 864.515625 231.789062 864.515625 251.386719 C 864.515625 270.984375 880.402344 286.871094 900 286.871094 C 919.597656 286.871094 935.484375 270.984375 935.484375 251.386719 C 935.484375 231.789062 919.597656 215.902344 900 215.902344 Z M 900 215.902344 " clip-rule="nonzero"/></clipPath><clipPath id="6ff360e7e9"><path d="M 1041.234375 215.902344 L 1112.203125 215.902344 L 1112.203125 286.871094 L 1041.234375 286.871094 Z M 1041.234375 215.902344 " clip-rule="nonzero"/></clipPath><clipPath id="79394d0a3d"><path d="M 1076.71875 215.902344 C 1057.121094 215.902344 1041.234375 231.789062 1041.234375 251.386719 C 1041.234375 270.984375 1057.121094 286.871094 1076.71875 286.871094 C 1096.316406 286.871094 1112.203125 270.984375 1112.203125 251.386719 C 1112.203125 231.789062 1096.316406 215.902344 1076.71875 215.902344 Z M 1076.71875 215.902344 " clip-rule="nonzero"/></clipPath><clipPath id="8bcd20e8e5"><path d="M 979.542969 366.417969 L 1050.511719 366.417969 L 1050.511719 437.386719 L 979.542969 437.386719 Z M 979.542969 366.417969 " clip-rule="nonzero"/></clipPath><clipPath id="5599ac2122"><path d="M 1015.027344 366.417969 C 995.429688 366.417969 979.542969 382.304688 979.542969 401.902344 C 979.542969 421.5 995.429688 437.386719 1015.027344 437.386719 C 1034.625 437.386719 1050.511719 421.5 1050.511719 401.902344 C 1050.511719 382.304688 1034.625 366.417969 1015.027344 366.417969 Z M 1015.027344 366.417969 " clip-rule="nonzero"/></clipPath><clipPath id="8d627a967f"><path d="M 927.984375 516.886719 L 998.953125 516.886719 L 998.953125 587.855469 L 927.984375 587.855469 Z M 927.984375 516.886719 " clip-rule="nonzero"/></clipPath><clipPath id="b99424abb3"><path d="M 963.46875 516.886719 C 943.871094 516.886719 927.984375 532.773438 927.984375 552.371094 C 927.984375 571.96875 943.871094 587.855469 963.46875 587.855469 C 983.066406 587.855469 998.953125 571.96875 998.953125 552.371094 C 998.953125 532.773438 983.066406 516.886719 963.46875 516.886719 Z M 963.46875 516.886719 " clip-rule="nonzero"/></clipPath><clipPath id="692bc43271"><path d="M 864.515625 667.445312 L 935.484375 667.445312 L 935.484375 738.414062 L 864.515625 738.414062 Z M 864.515625 667.445312 " clip-rule="nonzero"/></clipPath><clipPath id="a0d35520b9"><path d="M 900 667.445312 C 880.402344 667.445312 864.515625 683.332031 864.515625 702.929688 C 864.515625 722.527344 880.402344 738.414062 900 738.414062 C 919.597656 738.414062 935.484375 722.527344 935.484375 702.929688 C 935.484375 683.332031 919.597656 667.445312 900 667.445312 Z M 900 667.445312 " clip-rule="nonzero"/></clipPath><clipPath id="b36823db46"><path d="M 809.980469 809.234375 L 880.949219 809.234375 L 880.949219 880.203125 L 809.980469 880.203125 Z M 809.980469 809.234375 " clip-rule="nonzero"/></clipPath><clipPath id="ac4f3d15c3"><path d="M 845.464844 809.234375 C 825.867188 809.234375 809.980469 825.121094 809.980469 844.71875 C 809.980469 864.316406 825.867188 880.203125 845.464844 880.203125 C 865.0625 880.203125 880.949219 864.316406 880.949219 844.71875 C 880.949219 825.121094 865.0625 809.234375 845.464844 809.234375 Z M 845.464844 809.234375 " clip-rule="nonzero"/></clipPath></defs><path stroke-linecap="butt" transform="matrix(0.75, 0, 0, 0.75, 609.149413, -100.026808)" fill="none" stroke-linejoin="miter" d="M 731.316474 399.155571 L 373.795608 1332.999405 L 199.925801 1332.999405 L 504.040412 537.863917 L 71.634123 537.863917 L 71.634123 399.155571 Z M 731.316474 399.155571 " stroke="#e45828" stroke-width="21.672462" stroke-opacity="1" stroke-miterlimit="4"/><g clip-path="url(#bd38dc3d0e)"><g clip-path="url(#58adfe4e32)"><path stroke-linecap="butt" transform="matrix(0.75, 0, 0, 0.75, 687.824862, 215.904102)" fill="none" stroke-linejoin="miter" d="M 47.311647 -0.00234465 C 21.181437 -0.00234465 -0.000857033 21.179949 -0.000857033 47.31016 C -0.000857033 73.44037 21.181437 94.622664 47.311647 94.622664 C 73.441858 94.622664 94.624151 73.44037 94.624151 47.31016 C 94.624151 21.179949 73.441858 -0.00234465 47.311647 -0.00234465 Z M 47.311647 -0.00234465 " stroke="#e45828" stroke-width="20" stroke-opacity="1" stroke-miterlimit="4"/></g></g><g clip-path="url(#99246d7121)"><g clip-path="url(#a9df9178e3)"><path stroke-linecap="butt" transform="matrix(0.75, 0, 0, 0.75, 864.515294, 215.904102)" fill="none" stroke-linejoin="miter" d="M 47.312946 -0.00234465 C 21.182735 -0.00234465 0.000441758 21.179949 0.000441758 47.31016 C 0.000441758 73.44037 21.182735 94.622664 47.312946 94.622664 C 73.443157 94.622664 94.62545 73.44037 94.62545 47.31016 C 94.62545 21.179949 73.443157 -0.00234465 47.312946 -0.00234465 Z M 47.312946 -0.00234465 " stroke="#e45828" stroke-width="20" stroke-opacity="1" stroke-miterlimit="4"/></g></g><g clip-path="url(#6ff360e7e9)"><g clip-path="url(#79394d0a3d)"><path stroke-linecap="butt" transform="matrix(0.75, 0, 0, 0.75, 1041.23455, 215.904102)" fill="none" stroke-linejoin="miter" d="M 47.312271 -0.00234465 C 21.18206 -0.00234465 -0.000233115 21.179949 -0.000233115 47.31016 C -0.000233115 73.44037 21.18206 94.622664 47.312271 94.622664 C 73.442482 94.622664 94.624775 73.44037 94.624775 47.31016 C 94.624775 21.179949 73.442482 -0.00234465 47.312271 -0.00234465 Z M 47.312271 -0.00234465 " stroke="#e45828" stroke-width="20" stroke-opacity="1" stroke-miterlimit="4"/></g></g><g clip-path="url(#8bcd20e8e5)"><g clip-path="url(#5599ac2122)"><path stroke-linecap="butt" transform="matrix(0.75, 0, 0, 0.75, 979.544715, 366.417602)" fill="none" stroke-linejoin="miter" d="M 47.310175 0.000488541 C 21.179965 0.000488541 -0.00232882 21.182782 -0.00232882 47.312993 C -0.00232882 73.443203 21.179965 94.625497 47.310175 94.625497 C 73.440386 94.625497 94.62268 73.443203 94.62268 47.312993 C 94.62268 21.182782 73.440386 0.000488541 47.310175 0.000488541 Z M 47.310175 0.000488541 " stroke="#e45828" stroke-width="20" stroke-opacity="1" stroke-miterlimit="4"/></g></g><g clip-path="url(#8d627a967f)"><g clip-path="url(#b99424abb3)"><path stroke-linecap="butt" transform="matrix(0.75, 0, 0, 0.75, 927.984632, 516.887286)" fill="none" stroke-linejoin="miter" d="M 47.312162 -0.00075587 C 21.181951 -0.00075587 -0.000342654 21.181538 -0.000342654 47.311748 C -0.000342654 73.441959 21.181951 94.624253 47.312162 94.624253 C 73.442372 94.624253 94.624666 73.441959 94.624666 47.311748 C 94.624666 21.181538 73.442372 -0.00075587 47.312162 -0.00075587 Z M 47.312162 -0.00075587 " stroke="#e45828" stroke-width="20" stroke-opacity="1" stroke-miterlimit="4"/></g></g><g clip-path="url(#692bc43271)"><g clip-path="url(#a0d35520b9)"><path stroke-linecap="butt" transform="matrix(0.75, 0, 0, 0.75, 864.515294, 667.446016)" fill="none" stroke-linejoin="miter" d="M 47.312946 -0.000938203 C 21.182735 -0.000938203 0.000441758 21.181355 0.000441758 47.311566 C 0.000441758 73.441777 21.182735 94.62407 47.312946 94.62407 C 73.443157 94.62407 94.62545 73.441777 94.62545 47.311566 C 94.62545 21.181355 73.443157 -0.000938203 47.312946 -0.000938203 Z M 47.312946 -0.000938203 " stroke="#e45828" stroke-width="20" stroke-opacity="1" stroke-miterlimit="4"/></g></g><g clip-path="url(#b36823db46)"><g clip-path="url(#ac4f3d15c3)"><path stroke-linecap="butt" transform="matrix(0.75, 0, 0, 0.75, 809.981227, 809.234427)" fill="none" stroke-linejoin="miter" d="M 47.311494 -0.0000699182 C 21.181283 -0.0000699182 -0.00101043 21.182224 -0.00101043 47.312434 C -0.00101043 73.442645 21.181283 94.624939 47.311494 94.624939 C 73.441704 94.624939 94.623998 73.442645 94.623998 47.312434 C 94.623998 21.182224 73.441704 -0.0000699182 47.311494 -0.0000699182 Z M 47.311494 -0.0000699182 " stroke="#e45828" stroke-width="20" stroke-opacity="1" stroke-miterlimit="4"/></g></g></svg>