<svg xmlns="http://www.w3.org/2000/svg" xmlns:xlink="http://www.w3.org/1999/xlink" width="794" zoomAndPan="magnify" viewBox="0 0 594.95996 842.24997" height="1123" preserveAspectRatio="xMidYMid meet" version="1.0"><defs><clipPath id="87709c4b3b"><path d="M 242 190 L 458 190 L 458 665 L 242 665 Z M 242 190 " clip-rule="nonzero"/></clipPath><clipPath id="c3bdec7536"><path d="M 530.484375 177.140625 L 288.878906 744.265625 L 130.765625 744.265625 L 372.816406 212.699219 L 64.589844 212.699219 L 64.589844 97.136719 L 530.484375 97.136719 Z M 530.484375 177.140625 " clip-rule="nonzero"/></clipPath><clipPath id="7d347ade42"><path d="M 219 665 L 262 665 L 262 709 L 219 709 Z M 219 665 " clip-rule="nonzero"/></clipPath><clipPath id="b34143369d"><path d="M 530.484375 177.140625 L 288.878906 744.265625 L 130.765625 744.265625 L 372.816406 212.699219 L 64.589844 212.699219 L 64.589844 97.136719 L 530.484375 97.136719 Z M 530.484375 177.140625 " clip-rule="nonzero"/></clipPath><clipPath id="13ada5f0b3"><path d="M 133 150 L 386 150 L 386 162 L 133 162 Z M 133 150 " clip-rule="nonzero"/></clipPath><clipPath id="4657071459"><path d="M 530.484375 177.140625 L 288.878906 744.265625 L 130.765625 744.265625 L 372.816406 212.699219 L 64.589844 212.699219 L 64.589844 97.136719 L 530.484375 97.136719 Z M 530.484375 177.140625 " clip-rule="nonzero"/></clipPath><clipPath id="9b6921adfb"><path d="M 386 131 L 425 131 L 425 178 L 386 178 Z M 386 131 " clip-rule="nonzero"/></clipPath><clipPath id="bdec06eda4"><path d="M 530.484375 177.140625 L 288.878906 744.265625 L 130.765625 744.265625 L 372.816406 212.699219 L 64.589844 212.699219 L 64.589844 97.136719 L 530.484375 97.136719 Z M 530.484375 177.140625 " clip-rule="nonzero"/></clipPath><clipPath id="139568d2dc"><path d="M 87 139 L 121 139 L 121 174 L 87 174 Z M 87 139 " clip-rule="nonzero"/></clipPath><clipPath id="10b186a7ed"><path d="M 530.484375 177.140625 L 288.878906 744.265625 L 130.765625 744.265625 L 372.816406 212.699219 L 64.589844 212.699219 L 64.589844 97.136719 L 530.484375 97.136719 Z M 530.484375 177.140625 " clip-rule="nonzero"/></clipPath><clipPath id="8630509fad"><path d="M 97 145 L 107 145 L 107 167 L 97 167 Z M 97 145 " clip-rule="nonzero"/></clipPath><clipPath id="94d046fc72"><path d="M 530.484375 177.140625 L 288.878906 744.265625 L 130.765625 744.265625 L 372.816406 212.699219 L 64.589844 212.699219 L 64.589844 97.136719 L 530.484375 97.136719 Z M 530.484375 177.140625 " clip-rule="nonzero"/></clipPath><clipPath id="553e4e3cdf"><path d="M 87.3125 156.753906 C 87.285156 155.648438 87.367188 154.554688 87.558594 153.464844 C 87.746094 152.378906 88.039062 151.316406 88.4375 150.289062 C 88.835938 149.257812 89.328125 148.277344 89.917969 147.34375 C 90.511719 146.410156 91.1875 145.542969 91.945312 144.746094 C 92.707031 143.945312 93.539062 143.226562 94.441406 142.59375 C 95.34375 141.957031 96.300781 141.414062 97.308594 140.96875 C 98.320312 140.523438 99.359375 140.175781 100.4375 139.9375 C 101.515625 139.695312 102.605469 139.558594 103.707031 139.535156 C 104.8125 139.507812 105.90625 139.585938 106.992188 139.777344 C 108.082031 139.964844 109.140625 140.257812 110.167969 140.65625 C 111.199219 141.054688 112.179688 141.550781 113.109375 142.140625 C 114.042969 142.730469 114.90625 143.410156 115.707031 144.171875 C 116.507812 144.933594 117.222656 145.765625 117.859375 146.667969 C 118.492188 147.570312 119.035156 148.527344 119.480469 149.535156 C 119.925781 150.546875 120.273438 151.589844 120.511719 152.667969 C 120.753906 153.746094 120.886719 154.835938 120.914062 155.941406 C 120.941406 157.042969 120.859375 158.140625 120.671875 159.226562 C 120.484375 160.316406 120.1875 161.375 119.792969 162.40625 C 119.394531 163.433594 118.898438 164.417969 118.308594 165.347656 C 117.71875 166.28125 117.042969 167.148438 116.28125 167.949219 C 115.519531 168.746094 114.6875 169.464844 113.785156 170.101562 C 112.882812 170.734375 111.929688 171.277344 110.917969 171.722656 C 109.910156 172.171875 108.867188 172.515625 107.789062 172.757812 C 106.714844 173 105.625 173.132812 104.519531 173.160156 C 103.417969 173.1875 102.324219 173.105469 101.234375 172.917969 C 100.148438 172.726562 99.089844 172.433594 98.058594 172.035156 C 97.03125 171.636719 96.050781 171.144531 95.117188 170.550781 C 94.1875 169.960938 93.320312 169.285156 92.523438 168.523438 C 91.722656 167.761719 91.003906 166.929688 90.371094 166.027344 C 89.734375 165.121094 89.195312 164.167969 88.746094 163.15625 C 88.300781 162.148438 87.957031 161.101562 87.714844 160.027344 C 87.472656 158.949219 87.339844 157.855469 87.3125 156.753906 Z M 87.3125 156.753906 " clip-rule="nonzero"/></clipPath><clipPath id="0795a57c7f"><path d="M 444 137 L 479 137 L 479 172 L 444 172 Z M 444 137 " clip-rule="nonzero"/></clipPath><clipPath id="a1a4170507"><path d="M 530.484375 177.140625 L 288.878906 744.265625 L 130.765625 744.265625 L 372.816406 212.699219 L 64.589844 212.699219 L 64.589844 97.136719 L 530.484375 97.136719 Z M 530.484375 177.140625 " clip-rule="nonzero"/></clipPath><clipPath id="d8fda0f8fb"><path d="M 453 144 L 469 144 L 469 166 L 453 166 Z M 453 144 " clip-rule="nonzero"/></clipPath><clipPath id="c703f77a44"><path d="M 530.484375 177.140625 L 288.878906 744.265625 L 130.765625 744.265625 L 372.816406 212.699219 L 64.589844 212.699219 L 64.589844 97.136719 L 530.484375 97.136719 Z M 530.484375 177.140625 " clip-rule="nonzero"/></clipPath><clipPath id="e725d3bba6"><path d="M 444.417969 155.101562 C 444.390625 153.996094 444.472656 152.898438 444.660156 151.8125 C 444.851562 150.722656 445.144531 149.664062 445.542969 148.636719 C 445.9375 147.605469 446.433594 146.625 447.023438 145.691406 C 447.613281 144.757812 448.289062 143.890625 449.050781 143.09375 C 449.8125 142.292969 450.644531 141.574219 451.546875 140.941406 C 452.449219 140.304688 453.40625 139.761719 454.414062 139.316406 C 455.421875 138.867188 456.464844 138.523438 457.542969 138.28125 C 458.621094 138.039062 459.710938 137.90625 460.8125 137.878906 C 461.914062 137.851562 463.011719 137.933594 464.097656 138.125 C 465.183594 138.3125 466.242188 138.605469 467.273438 139.003906 C 468.300781 139.402344 469.28125 139.898438 470.214844 140.488281 C 471.148438 141.078125 472.011719 141.753906 472.8125 142.515625 C 473.609375 143.277344 474.328125 144.109375 474.960938 145.015625 C 475.597656 145.917969 476.136719 146.875 476.585938 147.882812 C 477.03125 148.894531 477.375 149.9375 477.617188 151.015625 C 477.859375 152.09375 477.992188 153.183594 478.019531 154.285156 C 478.046875 155.390625 477.964844 156.488281 477.777344 157.574219 C 477.585938 158.664062 477.292969 159.722656 476.894531 160.75 C 476.5 161.78125 476.003906 162.761719 475.414062 163.695312 C 474.824219 164.628906 474.148438 165.496094 473.386719 166.292969 C 472.625 167.09375 471.792969 167.8125 470.890625 168.449219 C 469.988281 169.082031 469.03125 169.625 468.023438 170.070312 C 467.015625 170.519531 465.972656 170.863281 464.894531 171.105469 C 463.816406 171.347656 462.726562 171.480469 461.625 171.507812 C 460.523438 171.535156 459.425781 171.453125 458.339844 171.261719 C 457.253906 171.074219 456.195312 170.78125 455.164062 170.382812 C 454.136719 169.984375 453.15625 169.492188 452.222656 168.898438 C 451.289062 168.308594 450.425781 167.632812 449.625 166.871094 C 448.828125 166.109375 448.109375 165.277344 447.476562 164.371094 C 446.839844 163.46875 446.300781 162.511719 445.851562 161.503906 C 445.40625 160.492188 445.0625 159.449219 444.820312 158.371094 C 444.578125 157.296875 444.445312 156.203125 444.417969 155.101562 Z M 444.417969 155.101562 " clip-rule="nonzero"/></clipPath><clipPath id="b2e07d6ddd"><path d="M 61.117188 93.613281 L 533.949219 93.613281 L 533.949219 747.78125 L 61.117188 747.78125 Z M 61.117188 93.613281 " clip-rule="nonzero"/></clipPath></defs><path fill="#ffffff" d="M 530.484375 177.140625 L 288.878906 744.265625 L 130.765625 744.265625 L 372.816406 212.699219 L 64.589844 212.699219 L 64.589844 97.136719 L 530.484375 97.136719 Z M 530.484375 177.140625 " fill-opacity="1" fill-rule="nonzero"/><g clip-path="url(#87709c4b3b)"><g clip-path="url(#c3bdec7536)"><path fill="#000000" d="M 247.59375 648.628906 L 242.832031 659.363281 C 241.992188 661.257812 242.847656 663.480469 244.742188 664.320312 C 246.632812 665.164062 248.855469 664.308594 249.695312 662.414062 L 254.457031 651.679688 C 255.296875 649.785156 254.445312 647.5625 252.550781 646.722656 C 250.65625 645.878906 248.433594 646.734375 247.59375 648.628906 Z M 261.078125 618.238281 L 256.316406 628.96875 C 255.476562 630.863281 256.332031 633.085938 258.226562 633.929688 C 260.121094 634.769531 262.339844 633.914062 263.183594 632.019531 L 267.945312 621.285156 C 268.785156 619.390625 267.929688 617.167969 266.035156 616.328125 C 264.140625 615.484375 261.921875 616.339844 261.078125 618.238281 Z M 274.566406 587.84375 L 269.804688 598.574219 C 268.960938 600.472656 269.816406 602.691406 271.710938 603.535156 C 273.605469 604.375 275.824219 603.519531 276.667969 601.625 L 281.429688 590.894531 C 282.269531 588.996094 281.414062 586.773438 279.523438 585.933594 C 277.628906 585.089844 275.40625 585.945312 274.566406 587.84375 Z M 288.050781 557.449219 C 286.441406 561.078125 284.851562 564.65625 283.289062 568.179688 C 282.449219 570.074219 283.304688 572.296875 285.199219 573.140625 C 287.09375 573.980469 289.3125 573.125 290.152344 571.230469 L 294.914062 560.496094 C 295.757812 558.605469 294.902344 556.378906 293.007812 555.539062 C 291.113281 554.695312 288.890625 555.554688 288.050781 557.449219 Z M 301.539062 527.054688 L 296.777344 537.785156 C 295.933594 539.683594 296.789062 541.902344 298.683594 542.746094 C 300.578125 543.585938 302.796875 542.730469 303.640625 540.835938 L 308.402344 530.105469 C 309.242188 528.207031 308.386719 525.984375 306.496094 525.144531 C 304.597656 524.300781 302.378906 525.15625 301.539062 527.054688 Z M 315.023438 496.660156 L 310.261719 507.390625 C 309.421875 509.285156 310.277344 511.507812 312.171875 512.351562 C 314.0625 513.191406 316.285156 512.335938 317.125 510.441406 C 318.703125 506.886719 320.289062 503.308594 321.886719 499.707031 C 322.726562 497.816406 321.871094 495.59375 319.980469 494.75 C 318.085938 493.910156 315.863281 494.765625 315.023438 496.660156 Z M 328.507812 466.265625 L 323.746094 476.996094 C 322.90625 478.894531 323.761719 481.117188 325.65625 481.957031 C 327.550781 482.796875 329.769531 481.941406 330.613281 480.046875 L 335.375 469.316406 C 336.214844 467.417969 335.359375 465.195312 333.464844 464.355469 C 331.570312 463.511719 329.351562 464.367188 328.507812 466.265625 Z M 341.996094 435.871094 L 337.234375 446.605469 C 336.394531 448.496094 337.246094 450.71875 339.144531 451.5625 C 341.035156 452.402344 343.257812 451.546875 344.097656 449.652344 L 348.859375 438.917969 C 349.699219 437.027344 348.84375 434.804688 346.953125 433.960938 C 345.058594 433.121094 342.835938 433.976562 341.996094 435.871094 Z M 355.480469 405.476562 L 350.71875 416.207031 C 349.878906 418.105469 350.734375 420.328125 352.628906 421.167969 C 354.523438 422.011719 356.742188 421.15625 357.582031 419.257812 L 362.34375 408.527344 C 363.1875 406.628906 362.332031 404.40625 360.4375 403.566406 C 358.542969 402.722656 356.324219 403.582031 355.480469 405.476562 Z M 368.96875 375.082031 L 364.207031 385.816406 C 363.363281 387.710938 364.21875 389.933594 366.113281 390.773438 C 368.007812 391.617188 370.226562 390.761719 371.070312 388.863281 L 375.832031 378.132812 C 376.671875 376.238281 375.816406 374.015625 373.925781 373.171875 C 372.027344 372.332031 369.808594 373.1875 368.96875 375.082031 Z M 382.453125 344.6875 L 377.691406 355.421875 C 376.851562 357.316406 377.707031 359.539062 379.601562 360.378906 C 381.492188 361.222656 383.714844 360.367188 384.554688 358.472656 L 389.316406 347.738281 C 390.160156 345.839844 389.304688 343.621094 387.410156 342.777344 C 385.515625 341.9375 383.292969 342.792969 382.453125 344.6875 Z M 395.9375 314.292969 C 394.371094 317.828125 392.78125 321.40625 391.175781 325.027344 C 390.335938 326.917969 391.191406 329.144531 393.085938 329.988281 C 394.980469 330.828125 397.199219 329.96875 398.042969 328.074219 L 402.804688 317.34375 C 403.644531 315.449219 402.789062 313.226562 400.894531 312.382812 C 399 311.542969 396.78125 312.398438 395.9375 314.292969 Z M 409.425781 283.898438 C 407.867188 287.410156 406.28125 290.988281 404.664062 294.632812 C 403.824219 296.527344 404.675781 298.75 406.574219 299.589844 C 408.464844 300.433594 410.6875 299.578125 411.527344 297.683594 C 413.144531 294.039062 414.730469 290.460938 416.289062 286.949219 C 417.128906 285.054688 416.277344 282.832031 414.382812 281.988281 C 412.488281 281.148438 410.265625 282.003906 409.425781 283.898438 Z M 422.910156 253.503906 C 421.375 256.972656 419.785156 260.550781 418.148438 264.238281 C 417.308594 266.132812 418.164062 268.355469 420.058594 269.199219 C 421.953125 270.039062 424.171875 269.183594 425.011719 267.285156 L 429.773438 256.554688 C 430.617188 254.660156 429.761719 252.4375 427.867188 251.597656 C 425.972656 250.753906 423.753906 251.609375 422.910156 253.503906 Z M 436.394531 223.113281 C 434.910156 226.460938 433.320312 230.046875 431.632812 233.84375 C 430.792969 235.738281 431.648438 237.960938 433.542969 238.804688 C 435.4375 239.644531 437.65625 238.789062 438.5 236.894531 C 440.183594 233.097656 441.773438 229.511719 443.261719 226.164062 C 444.101562 224.265625 443.246094 222.042969 441.351562 221.203125 C 439.457031 220.359375 437.238281 221.214844 436.394531 223.113281 Z M 449.882812 192.714844 C 449.164062 194.339844 447.53125 198.011719 445.121094 203.449219 C 444.28125 205.34375 445.136719 207.566406 447.03125 208.410156 C 448.921875 209.25 451.144531 208.394531 451.984375 206.5 C 454.398438 201.0625 456.027344 197.386719 456.746094 195.765625 C 457.585938 193.871094 456.734375 191.648438 454.839844 190.808594 C 452.945312 189.964844 450.722656 190.824219 449.882812 192.714844 Z M 449.882812 192.714844 " fill-opacity="1" fill-rule="evenodd"/></g></g><g clip-path="url(#7d347ade42)"><g clip-path="url(#b34143369d)"><path fill="#000000" d="M 219.175781 665.851562 L 261.371094 684.601562 L 224.972656 708.90625 Z M 219.175781 665.851562 " fill-opacity="1" fill-rule="evenodd"/></g></g><g clip-path="url(#13ada5f0b3)"><g clip-path="url(#4657071459)"><path fill="#000000" d="M 137.535156 161.390625 C 139.332031 161.363281 143.40625 161.308594 149.269531 161.222656 C 151.339844 161.191406 153 159.484375 152.972656 157.410156 C 152.941406 155.335938 151.234375 153.679688 149.160156 153.707031 C 143.296875 153.792969 139.222656 153.851562 137.429688 153.875 C 135.355469 153.90625 133.699219 155.613281 133.726562 157.6875 C 133.757812 159.761719 135.464844 161.421875 137.535156 161.390625 Z M 170.765625 160.914062 C 174.457031 160.859375 178.378906 160.804688 182.496094 160.746094 C 184.570312 160.714844 186.226562 159.007812 186.199219 156.9375 C 186.167969 154.863281 184.460938 153.203125 182.386719 153.230469 C 178.269531 153.292969 174.347656 153.34375 170.65625 153.398438 C 168.582031 153.429688 166.925781 155.136719 166.953125 157.210938 C 166.984375 159.285156 168.691406 160.945312 170.765625 160.914062 Z M 203.992188 160.4375 C 207.816406 160.382812 211.734375 160.328125 215.726562 160.269531 C 217.796875 160.238281 219.457031 158.53125 219.425781 156.457031 C 219.394531 154.386719 217.6875 152.722656 215.613281 152.757812 C 211.628906 152.8125 207.710938 152.867188 203.882812 152.925781 C 201.8125 152.953125 200.152344 154.660156 200.183594 156.734375 C 200.210938 158.808594 201.917969 160.464844 203.992188 160.4375 Z M 237.21875 159.960938 C 241.101562 159.90625 245.019531 159.847656 248.953125 159.792969 C 251.023438 159.765625 252.683594 158.054688 252.652344 155.980469 C 252.625 153.910156 250.917969 152.25 248.847656 152.28125 C 244.910156 152.335938 240.996094 152.390625 237.113281 152.445312 C 235.039062 152.476562 233.378906 154.183594 233.414062 156.257812 C 233.441406 158.332031 235.148438 159.992188 237.21875 159.960938 Z M 270.445312 159.484375 C 274.371094 159.429688 278.289062 159.375 282.179688 159.316406 C 284.25 159.289062 285.910156 157.582031 285.878906 155.507812 C 285.851562 153.433594 284.144531 151.773438 282.074219 151.800781 C 278.183594 151.859375 274.265625 151.914062 270.339844 151.96875 C 268.269531 152 266.609375 153.710938 266.640625 155.78125 C 266.667969 157.855469 268.375 159.515625 270.445312 159.484375 Z M 303.671875 159.007812 C 307.65625 158.953125 311.574219 158.898438 315.40625 158.839844 C 317.480469 158.8125 319.140625 157.105469 319.105469 155.03125 C 319.078125 152.957031 317.375 151.296875 315.300781 151.324219 C 311.464844 151.382812 307.546875 151.4375 303.566406 151.496094 C 301.496094 151.523438 299.835938 153.234375 299.867188 155.304688 C 299.898438 157.378906 301.601562 159.039062 303.671875 159.007812 Z M 336.90625 158.535156 C 340.988281 158.476562 344.910156 158.417969 348.636719 158.363281 C 350.707031 158.335938 352.367188 156.628906 352.335938 154.554688 C 352.308594 152.480469 350.601562 150.820312 348.527344 150.851562 C 344.800781 150.902344 340.878906 150.960938 336.796875 151.019531 C 334.722656 151.046875 333.066406 152.757812 333.09375 154.828125 C 333.125 156.902344 334.832031 158.5625 336.90625 158.535156 Z M 370.132812 158.058594 C 374.921875 157.988281 378.886719 157.933594 381.863281 157.890625 C 383.9375 157.859375 385.59375 156.152344 385.566406 154.078125 C 385.535156 152.003906 383.828125 150.34375 381.753906 150.375 C 378.777344 150.417969 374.8125 150.472656 370.023438 150.542969 C 367.949219 150.570312 366.292969 152.277344 366.320312 154.355469 C 366.351562 156.429688 368.058594 158.085938 370.132812 158.058594 Z M 370.132812 158.058594 " fill-opacity="1" fill-rule="evenodd"/></g></g><g clip-path="url(#9b6921adfb)"><g clip-path="url(#bdec06eda4)"><path fill="#000000" d="M 386.925781 131.308594 L 389.15625 177.460938 L 424.949219 152.273438 Z M 386.925781 131.308594 " fill-opacity="1" fill-rule="evenodd"/></g></g><g clip-path="url(#139568d2dc)"><g clip-path="url(#10b186a7ed)"><path fill="#000000" d="M 120.914062 155.941406 C 120.929688 156.492188 120.914062 157.039062 120.875 157.589844 C 120.832031 158.140625 120.765625 158.683594 120.671875 159.226562 C 120.578125 159.769531 120.457031 160.308594 120.308594 160.839844 C 120.164062 161.367188 119.988281 161.890625 119.792969 162.40625 C 119.59375 162.917969 119.371094 163.421875 119.121094 163.914062 C 118.875 164.40625 118.605469 164.882812 118.308594 165.347656 C 118.015625 165.816406 117.699219 166.265625 117.359375 166.699219 C 117.019531 167.132812 116.660156 167.550781 116.28125 167.949219 C 115.902344 168.347656 115.503906 168.726562 115.085938 169.085938 C 114.671875 169.445312 114.238281 169.785156 113.785156 170.101562 C 113.335938 170.417969 112.871094 170.710938 112.394531 170.984375 C 111.914062 171.253906 111.421875 171.5 110.917969 171.722656 C 110.414062 171.949219 109.902344 172.144531 109.378906 172.316406 C 108.859375 172.492188 108.328125 172.636719 107.789062 172.757812 C 107.253906 172.878906 106.710938 172.972656 106.164062 173.039062 C 105.621094 173.105469 105.070312 173.148438 104.519531 173.160156 C 103.96875 173.171875 103.421875 173.160156 102.871094 173.117188 C 102.324219 173.078125 101.777344 173.011719 101.234375 172.917969 C 100.691406 172.820312 100.15625 172.699219 99.625 172.554688 C 99.097656 172.40625 98.574219 172.234375 98.058594 172.035156 C 97.546875 171.835938 97.042969 171.613281 96.554688 171.367188 C 96.0625 171.117188 95.582031 170.847656 95.117188 170.550781 C 94.652344 170.257812 94.203125 169.941406 93.769531 169.601562 C 93.335938 169.261719 92.921875 168.902344 92.523438 168.523438 C 92.125 168.144531 91.746094 167.746094 91.386719 167.328125 C 91.027344 166.910156 90.6875 166.476562 90.371094 166.027344 C 90.054688 165.574219 89.761719 165.109375 89.488281 164.632812 C 89.21875 164.152344 88.972656 163.660156 88.746094 163.15625 C 88.523438 162.652344 88.328125 162.140625 88.15625 161.617188 C 87.980469 161.09375 87.835938 160.5625 87.714844 160.027344 C 87.59375 159.488281 87.5 158.945312 87.433594 158.398438 C 87.367188 157.851562 87.328125 157.304688 87.3125 156.753906 C 87.300781 156.203125 87.3125 155.652344 87.355469 155.101562 C 87.394531 154.554688 87.460938 154.007812 87.558594 153.464844 C 87.652344 152.921875 87.773438 152.386719 87.917969 151.855469 C 88.066406 151.324219 88.238281 150.800781 88.4375 150.289062 C 88.636719 149.773438 88.859375 149.269531 89.105469 148.78125 C 89.351562 148.289062 89.625 147.808594 89.917969 147.34375 C 90.214844 146.878906 90.53125 146.429688 90.871094 145.996094 C 91.207031 145.5625 91.566406 145.144531 91.945312 144.746094 C 92.328125 144.347656 92.726562 143.96875 93.140625 143.609375 C 93.558594 143.25 93.992188 142.910156 94.441406 142.59375 C 94.890625 142.277344 95.355469 141.980469 95.835938 141.710938 C 96.316406 141.4375 96.804688 141.191406 97.308594 140.96875 C 97.8125 140.746094 98.324219 140.546875 98.847656 140.375 C 99.371094 140.203125 99.902344 140.054688 100.4375 139.9375 C 100.976562 139.816406 101.515625 139.722656 102.0625 139.652344 C 102.609375 139.585938 103.15625 139.546875 103.707031 139.535156 C 104.257812 139.519531 104.808594 139.535156 105.355469 139.574219 C 105.90625 139.613281 106.449219 139.683594 106.992188 139.777344 C 107.535156 139.871094 108.070312 139.992188 108.601562 140.140625 C 109.132812 140.285156 109.65625 140.460938 110.167969 140.65625 C 110.683594 140.855469 111.183594 141.078125 111.675781 141.328125 C 112.167969 141.574219 112.644531 141.847656 113.109375 142.140625 C 113.574219 142.4375 114.023438 142.753906 114.457031 143.089844 C 114.890625 143.429688 115.308594 143.789062 115.707031 144.171875 C 116.105469 144.550781 116.484375 144.949219 116.84375 145.367188 C 117.203125 145.78125 117.542969 146.21875 117.859375 146.667969 C 118.175781 147.117188 118.46875 147.582031 118.738281 148.0625 C 119.011719 148.542969 119.257812 149.03125 119.480469 149.535156 C 119.703125 150.039062 119.902344 150.554688 120.074219 151.078125 C 120.246094 151.601562 120.394531 152.128906 120.511719 152.667969 C 120.632812 153.203125 120.726562 153.746094 120.792969 154.292969 C 120.863281 154.839844 120.902344 155.390625 120.914062 155.941406 Z M 120.914062 155.941406 " fill-opacity="1" fill-rule="nonzero"/></g></g><g clip-path="url(#8630509fad)"><g clip-path="url(#94d046fc72)"><g clip-path="url(#553e4e3cdf)"><path fill="#ffffff" d="M 106.105469 166.667969 L 103.46875 166.734375 L 103.046875 149.261719 L 97.8125 151.332031 L 97.757812 148.953125 L 105.191406 145.949219 L 105.601562 145.941406 Z M 106.105469 166.667969 " fill-opacity="1" fill-rule="nonzero"/></g></g></g><g clip-path="url(#0795a57c7f)"><g clip-path="url(#a1a4170507)"><path fill="#000000" d="M 478.019531 154.285156 C 478.03125 154.835938 478.019531 155.386719 477.980469 155.9375 C 477.9375 156.484375 477.871094 157.03125 477.777344 157.574219 C 477.683594 158.117188 477.5625 158.652344 477.414062 159.183594 C 477.265625 159.714844 477.09375 160.238281 476.894531 160.75 C 476.699219 161.265625 476.476562 161.769531 476.226562 162.261719 C 475.980469 162.753906 475.707031 163.230469 475.414062 163.695312 C 475.121094 164.160156 474.800781 164.609375 474.464844 165.046875 C 474.125 165.480469 473.765625 165.894531 473.386719 166.292969 C 473.007812 166.695312 472.609375 167.074219 472.191406 167.433594 C 471.773438 167.792969 471.339844 168.128906 470.890625 168.449219 C 470.441406 168.765625 469.976562 169.058594 469.496094 169.328125 C 469.019531 169.601562 468.527344 169.847656 468.023438 170.070312 C 467.519531 170.292969 467.007812 170.492188 466.484375 170.664062 C 465.960938 170.835938 465.433594 170.984375 464.894531 171.105469 C 464.359375 171.226562 463.816406 171.320312 463.269531 171.386719 C 462.722656 171.453125 462.175781 171.492188 461.625 171.507812 C 461.074219 171.519531 460.523438 171.507812 459.976562 171.464844 C 459.425781 171.425781 458.882812 171.359375 458.339844 171.261719 C 457.796875 171.167969 457.261719 171.046875 456.730469 170.902344 C 456.199219 170.753906 455.679688 170.582031 455.164062 170.382812 C 454.652344 170.183594 454.148438 169.960938 453.65625 169.714844 C 453.164062 169.464844 452.6875 169.195312 452.222656 168.898438 C 451.757812 168.605469 451.308594 168.289062 450.875 167.949219 C 450.441406 167.609375 450.023438 167.25 449.625 166.871094 C 449.226562 166.488281 448.847656 166.089844 448.488281 165.675781 C 448.128906 165.257812 447.792969 164.824219 447.476562 164.371094 C 447.160156 163.921875 446.863281 163.457031 446.59375 162.976562 C 446.320312 162.5 446.074219 162.007812 445.851562 161.503906 C 445.628906 161 445.433594 160.488281 445.257812 159.964844 C 445.085938 159.441406 444.941406 158.910156 444.820312 158.371094 C 444.699219 157.835938 444.605469 157.292969 444.539062 156.746094 C 444.472656 156.199219 444.429688 155.652344 444.417969 155.101562 C 444.40625 154.550781 444.417969 154 444.457031 153.449219 C 444.5 152.902344 444.566406 152.355469 444.660156 151.8125 C 444.753906 151.269531 444.875 150.734375 445.023438 150.203125 C 445.171875 149.671875 445.34375 149.148438 445.542969 148.636719 C 445.738281 148.121094 445.960938 147.617188 446.210938 147.125 C 446.457031 146.632812 446.730469 146.15625 447.023438 145.691406 C 447.316406 145.226562 447.636719 144.777344 447.972656 144.339844 C 448.3125 143.90625 448.671875 143.492188 449.050781 143.09375 C 449.429688 142.695312 449.828125 142.3125 450.246094 141.953125 C 450.664062 141.59375 451.097656 141.257812 451.546875 140.941406 C 451.996094 140.621094 452.460938 140.328125 452.941406 140.058594 C 453.417969 139.785156 453.910156 139.539062 454.414062 139.316406 C 454.917969 139.09375 455.429688 138.894531 455.953125 138.722656 C 456.476562 138.550781 457.003906 138.402344 457.542969 138.28125 C 458.078125 138.160156 458.621094 138.066406 459.167969 138 C 459.714844 137.933594 460.261719 137.894531 460.8125 137.878906 C 461.363281 137.867188 461.914062 137.878906 462.460938 137.921875 C 463.011719 137.960938 463.554688 138.03125 464.097656 138.125 C 464.640625 138.21875 465.175781 138.339844 465.707031 138.484375 C 466.238281 138.632812 466.757812 138.804688 467.273438 139.003906 C 467.785156 139.203125 468.289062 139.425781 468.78125 139.671875 C 469.273438 139.921875 469.75 140.191406 470.214844 140.488281 C 470.679688 140.78125 471.128906 141.097656 471.5625 141.4375 C 471.996094 141.777344 472.414062 142.136719 472.8125 142.515625 C 473.210938 142.898438 473.589844 143.296875 473.949219 143.710938 C 474.308594 144.128906 474.644531 144.5625 474.960938 145.015625 C 475.277344 145.464844 475.574219 145.929688 475.84375 146.410156 C 476.117188 146.886719 476.363281 147.378906 476.585938 147.882812 C 476.808594 148.386719 477.003906 148.902344 477.179688 149.421875 C 477.351562 149.945312 477.496094 150.476562 477.617188 151.015625 C 477.738281 151.550781 477.832031 152.09375 477.898438 152.640625 C 477.964844 153.1875 478.007812 153.734375 478.019531 154.285156 Z M 478.019531 154.285156 " fill-opacity="1" fill-rule="nonzero"/></g></g><g clip-path="url(#d8fda0f8fb)"><g clip-path="url(#c703f77a44)"><g clip-path="url(#e725d3bba6)"><path fill="#ffffff" d="M 468.105469 164.898438 L 454.601562 165.222656 L 454.554688 163.339844 L 461.5 155.234375 C 462.527344 154.007812 463.230469 153.015625 463.613281 152.253906 C 464 151.492188 464.179688 150.710938 464.160156 149.910156 C 464.132812 148.832031 463.789062 147.957031 463.121094 147.28125 C 462.453125 146.609375 461.574219 146.285156 460.488281 146.3125 C 459.1875 146.34375 458.183594 146.738281 457.480469 147.496094 C 456.773438 148.257812 456.4375 149.296875 456.472656 150.621094 L 453.851562 150.683594 C 453.804688 148.785156 454.378906 147.234375 455.574219 146.035156 C 456.769531 144.832031 458.390625 144.207031 460.4375 144.15625 C 462.355469 144.113281 463.878906 144.578125 465.019531 145.558594 C 466.15625 146.535156 466.746094 147.859375 466.785156 149.53125 C 466.835938 151.5625 465.601562 154.011719 463.082031 156.882812 L 457.707031 163.007812 L 468.054688 162.757812 Z M 468.105469 164.898438 " fill-opacity="1" fill-rule="nonzero"/></g></g></g><g clip-path="url(#b2e07d6ddd)"><path fill="#000000" d="M 533.671875 178.5 C 533.855469 178.070312 533.949219 177.609375 533.949219 177.140625 L 533.949219 97.136719 C 533.949219 95.222656 532.398438 93.671875 530.484375 93.671875 L 64.589844 93.671875 C 62.675781 93.671875 61.125 95.222656 61.125 97.136719 L 61.125 212.699219 C 61.125 214.613281 62.675781 216.167969 64.589844 216.167969 L 367.429688 216.167969 C 367.429688 216.167969 127.609375 742.832031 127.609375 742.832031 C 127.121094 743.898438 127.214844 745.152344 127.851562 746.152344 C 128.488281 747.132812 129.585938 747.746094 130.765625 747.746094 L 288.878906 747.746094 C 290.265625 747.746094 291.519531 746.902344 292.066406 745.628906 Z M 527.015625 176.433594 L 286.585938 740.804688 C 286.585938 740.804688 136.152344 740.804688 136.152344 740.804688 C 136.152344 740.804688 375.972656 214.136719 375.972656 214.136719 C 376.460938 213.0625 376.367188 211.8125 375.730469 210.820312 C 375.09375 209.828125 373.996094 209.230469 372.816406 209.230469 L 68.054688 209.230469 C 68.054688 192.207031 68.054688 117.628906 68.054688 100.609375 C 68.054688 100.609375 527.015625 100.609375 527.015625 100.609375 Z M 527.015625 176.433594 " fill-opacity="1" fill-rule="evenodd"/></g></svg>