<svg xmlns="http://www.w3.org/2000/svg" xmlns:xlink="http://www.w3.org/1999/xlink" width="2400" zoomAndPan="magnify" viewBox="0 0 1800 1199.999942" height="1600" preserveAspectRatio="xMidYMid meet" version="1.0"><defs><clipPath id="449066058c"><path d="M 864.515625 196.269531 L 935.484375 196.269531 L 935.484375 267.238281 L 864.515625 267.238281 Z M 864.515625 196.269531 " clip-rule="nonzero"/></clipPath><clipPath id="3f7d7aa8fe"><path d="M 900 196.269531 C 880.402344 196.269531 864.515625 212.15625 864.515625 231.753906 C 864.515625 251.351562 880.402344 267.238281 900 267.238281 C 919.597656 267.238281 935.484375 251.351562 935.484375 231.753906 C 935.484375 212.15625 919.597656 196.269531 900 196.269531 Z M 900 196.269531 " clip-rule="nonzero"/></clipPath><clipPath id="dc98b9e213"><path d="M 666.011719 314.066406 L 736.980469 314.066406 L 736.980469 385.035156 L 666.011719 385.035156 Z M 666.011719 314.066406 " clip-rule="nonzero"/></clipPath><clipPath id="43c5e87811"><path d="M 701.496094 314.066406 C 681.898438 314.066406 666.011719 329.953125 666.011719 349.550781 C 666.011719 369.148438 681.898438 385.035156 701.496094 385.035156 C 721.09375 385.035156 736.980469 369.148438 736.980469 349.550781 C 736.980469 329.953125 721.09375 314.066406 701.496094 314.066406 Z M 701.496094 314.066406 " clip-rule="nonzero"/></clipPath><clipPath id="159a087c82"><path d="M 1063.019531 314.066406 L 1133.988281 314.066406 L 1133.988281 385.035156 L 1063.019531 385.035156 Z M 1063.019531 314.066406 " clip-rule="nonzero"/></clipPath><clipPath id="82884a2421"><path d="M 1098.503906 314.066406 C 1078.90625 314.066406 1063.019531 329.953125 1063.019531 349.550781 C 1063.019531 369.148438 1078.90625 385.035156 1098.503906 385.035156 C 1118.101562 385.035156 1133.988281 369.148438 1133.988281 349.550781 C 1133.988281 329.953125 1118.101562 314.066406 1098.503906 314.066406 Z M 1098.503906 314.066406 " clip-rule="nonzero"/></clipPath><clipPath id="c7632221ee"><path d="M 864.515625 835.410156 L 935.484375 835.410156 L 935.484375 906.378906 L 864.515625 906.378906 Z M 864.515625 835.410156 " clip-rule="nonzero"/></clipPath><clipPath id="3743817917"><path d="M 900 835.410156 C 880.402344 835.410156 864.515625 851.296875 864.515625 870.894531 C 864.515625 890.492188 880.402344 906.378906 900 906.378906 C 919.597656 906.378906 935.484375 890.492188 935.484375 870.894531 C 935.484375 851.296875 919.597656 835.410156 900 835.410156 Z M 900 835.410156 " clip-rule="nonzero"/></clipPath><clipPath id="a66fe75254"><path d="M 652.921875 671.808594 L 723.890625 671.808594 L 723.890625 742.777344 L 652.921875 742.777344 Z M 652.921875 671.808594 " clip-rule="nonzero"/></clipPath><clipPath id="9e7d18ceec"><path d="M 688.40625 671.808594 C 668.808594 671.808594 652.921875 687.695312 652.921875 707.292969 C 652.921875 726.890625 668.808594 742.777344 688.40625 742.777344 C 708.003906 742.777344 723.890625 726.890625 723.890625 707.292969 C 723.890625 687.695312 708.003906 671.808594 688.40625 671.808594 Z M 688.40625 671.808594 " clip-rule="nonzero"/></clipPath><clipPath id="c16ae7f37c"><path d="M 1078.289062 671.808594 L 1149.257812 671.808594 L 1149.257812 742.777344 L 1078.289062 742.777344 Z M 1078.289062 671.808594 " clip-rule="nonzero"/></clipPath><clipPath id="be26c4b9be"><path d="M 1113.773438 671.808594 C 1094.175781 671.808594 1078.289062 687.695312 1078.289062 707.292969 C 1078.289062 726.890625 1094.175781 742.777344 1113.773438 742.777344 C 1133.371094 742.777344 1149.257812 726.890625 1149.257812 707.292969 C 1149.257812 687.695312 1133.371094 671.808594 1113.773438 671.808594 Z M 1113.773438 671.808594 " clip-rule="nonzero"/></clipPath><clipPath id="fdbb7dbd68"><path d="M 793.546875 499.480469 L 864.515625 499.480469 L 864.515625 570.449219 L 793.546875 570.449219 Z M 793.546875 499.480469 " clip-rule="nonzero"/></clipPath><clipPath id="f6f8dca29d"><path d="M 829.03125 499.480469 C 809.433594 499.480469 793.546875 515.367188 793.546875 534.964844 C 793.546875 554.5625 809.433594 570.449219 829.03125 570.449219 C 848.628906 570.449219 864.515625 554.5625 864.515625 534.964844 C 864.515625 515.367188 848.628906 499.480469 829.03125 499.480469 Z M 829.03125 499.480469 " clip-rule="nonzero"/></clipPath><clipPath id="1d1832881b"><path d="M 935.484375 499.480469 L 1006.453125 499.480469 L 1006.453125 570.449219 L 935.484375 570.449219 Z M 935.484375 499.480469 " clip-rule="nonzero"/></clipPath><clipPath id="e4783dbe2d"><path d="M 970.96875 499.480469 C 951.371094 499.480469 935.484375 515.367188 935.484375 534.964844 C 935.484375 554.5625 951.371094 570.449219 970.96875 570.449219 C 990.566406 570.449219 1006.453125 554.5625 1006.453125 534.964844 C 1006.453125 515.367188 990.566406 499.480469 970.96875 499.480469 Z M 970.96875 499.480469 " clip-rule="nonzero"/></clipPath></defs><path stroke-linecap="butt" transform="matrix(0.75, 0, 0, 0.75, 567.635728, -100.027043)" fill="none" stroke-linejoin="miter" d="M 631.027419 843.286133 C 685.730549 856.312176 730.230553 883.442387 764.527431 924.687182 C 798.824309 965.931977 815.975352 1015.859065 815.975352 1074.468445 C 815.975352 1160.426786 782.001391 1226.958042 714.058676 1274.067422 C 646.115962 1321.171593 555.923245 1344.723678 443.480527 1344.723678 C 331.0326 1344.723678 240.949259 1321.062217 173.225294 1273.739297 C 105.496122 1226.416376 71.631535 1159.994495 71.631535 1074.468445 C 71.631535 1015.859065 88.782579 965.931977 123.079457 924.687182 C 157.376335 883.442387 201.876339 856.312176 256.579469 843.286133 C 208.824256 831.999674 169.860711 808.447588 139.683625 772.629877 C 109.511747 736.812165 94.428412 694.155911 94.428412 644.666324 C 94.428412 563.478816 126.121124 500.640269 189.501338 456.140265 C 252.88676 411.640261 337.548226 389.390259 443.480527 389.390259 C 549.40762 389.390259 634.173252 411.640261 697.777425 456.140265 C 761.381597 500.640269 793.178475 563.478816 793.178475 644.666324 C 793.178475 694.155911 777.985765 736.812165 747.595138 772.629877 C 717.20451 808.447588 678.35034 831.999674 631.027419 843.286133 Z M 577.303456 536.562147 C 542.355536 510.947562 497.746157 498.140269 443.480527 498.140269 C 389.209689 498.140269 344.60031 511.056937 309.65239 536.890272 C 274.70447 562.718399 257.23051 599.728819 257.23051 647.921532 C 257.23051 693.50487 274.813845 728.999664 309.980515 754.3955 C 345.141977 779.791336 389.641981 792.489253 443.480527 792.489253 C 496.876365 792.489253 541.266994 779.791336 576.652414 754.3955 C 612.032625 728.999664 629.725335 693.50487 629.725335 647.921532 C 629.725335 599.296528 612.251375 562.176733 577.303456 536.562147 Z M 298.584681 1187.452831 C 336.569059 1214.58825 384.865938 1228.155959 443.480527 1228.155959 C 502.089907 1228.155959 550.496162 1214.478875 588.69929 1187.129914 C 626.902418 1159.775745 646.006587 1120.921575 646.006587 1070.562195 C 646.006587 1017.161149 627.011793 976.567395 589.022207 948.780934 C 551.037828 920.999682 502.522199 907.103847 443.480527 907.103847 C 384.433647 907.103847 336.027392 920.999682 298.256556 948.780934 C 260.485719 976.567395 241.600301 1017.161149 241.600301 1070.562195 C 241.600301 1121.353866 260.595094 1160.317411 298.584681 1187.452831 Z M 298.584681 1187.452831 " stroke="#e45828" stroke-width="21.672462" stroke-opacity="1" stroke-miterlimit="4"/><g clip-path="url(#449066058c)"><g clip-path="url(#3f7d7aa8fe)"><path stroke-linecap="butt" transform="matrix(0.75, 0, 0, 0.75, 864.515294, 196.271214)" fill="none" stroke-linejoin="miter" d="M 47.312946 -0.00224313 C 21.182735 -0.00224313 0.000441758 21.18005 0.000441758 47.310261 C 0.000441758 73.440472 21.182735 94.622765 47.312946 94.622765 C 73.443157 94.622765 94.62545 73.440472 94.62545 47.310261 C 94.62545 21.18005 73.443157 -0.00224313 47.312946 -0.00224313 Z M 47.312946 -0.00224313 " stroke="#e45828" stroke-width="20" stroke-opacity="1" stroke-miterlimit="4"/></g></g><g clip-path="url(#dc98b9e213)"><g clip-path="url(#43c5e87811)"><path stroke-linecap="butt" transform="matrix(0.75, 0, 0, 0.75, 666.011239, 314.065265)" fill="none" stroke-linejoin="miter" d="M 47.313143 0.00152215 C 21.182933 0.00152215 0.000639025 21.183816 0.000639025 47.314026 C 0.000639025 73.444237 21.182933 94.626531 47.313143 94.626531 C 73.443354 94.626531 94.625648 73.444237 94.625648 47.314026 C 94.625648 21.183816 73.443354 0.00152215 47.313143 0.00152215 Z M 47.313143 0.00152215 " stroke="#e45828" stroke-width="20" stroke-opacity="1" stroke-miterlimit="4"/></g></g><g clip-path="url(#159a087c82)"><g clip-path="url(#82884a2421)"><path stroke-linecap="butt" transform="matrix(0.75, 0, 0, 0.75, 1063.019372, 314.065265)" fill="none" stroke-linejoin="miter" d="M 47.312717 0.00152215 C 21.182506 0.00152215 0.00021249 21.183816 0.00021249 47.314026 C 0.00021249 73.444237 21.182506 94.626531 47.312717 94.626531 C 73.442927 94.626531 94.625221 73.444237 94.625221 47.314026 C 94.625221 21.183816 73.442927 0.00152215 47.312717 0.00152215 Z M 47.312717 0.00152215 " stroke="#e45828" stroke-width="20" stroke-opacity="1" stroke-miterlimit="4"/></g></g><g clip-path="url(#c7632221ee)"><g clip-path="url(#3743817917)"><path stroke-linecap="butt" transform="matrix(0.75, 0, 0, 0.75, 864.515294, 835.411321)" fill="none" stroke-linejoin="miter" d="M 47.312946 -0.00155312 C 21.182735 -0.00155312 0.000441758 21.18074 0.000441758 47.310951 C 0.000441758 73.441162 21.182735 94.623455 47.312946 94.623455 C 73.443157 94.623455 94.62545 73.441162 94.62545 47.310951 C 94.62545 21.18074 73.443157 -0.00155312 47.312946 -0.00155312 Z M 47.312946 -0.00155312 " stroke="#e45828" stroke-width="20" stroke-opacity="1" stroke-miterlimit="4"/></g></g><g clip-path="url(#a66fe75254)"><g clip-path="url(#9e7d18ceec)"><path stroke-linecap="butt" transform="matrix(0.75, 0, 0, 0.75, 652.923033, 671.808664)" fill="none" stroke-linejoin="miter" d="M 47.310961 -0.0000933482 C 21.18075 -0.0000933482 -0.00154354 21.1822 -0.00154354 47.312411 C -0.00154354 73.442622 21.18075 94.624915 47.310961 94.624915 C 73.441171 94.624915 94.623465 73.442622 94.623465 47.312411 C 94.623465 21.1822 73.441171 -0.0000933482 47.310961 -0.0000933482 Z M 47.310961 -0.0000933482 " stroke="#e45828" stroke-width="20" stroke-opacity="1" stroke-miterlimit="4"/></g></g><g clip-path="url(#c16ae7f37c)"><g clip-path="url(#be26c4b9be)"><path stroke-linecap="butt" transform="matrix(0.75, 0, 0, 0.75, 1078.288891, 671.808664)" fill="none" stroke-linejoin="miter" d="M 47.312734 -0.0000933482 C 21.182523 -0.0000933482 0.000229315 21.1822 0.000229315 47.312411 C 0.000229315 73.442622 21.182523 94.624915 47.312734 94.624915 C 73.442944 94.624915 94.625238 73.442622 94.625238 47.312411 C 94.625238 21.1822 73.442944 -0.0000933482 47.312734 -0.0000933482 Z M 47.312734 -0.0000933482 " stroke="#e45828" stroke-width="20" stroke-opacity="1" stroke-miterlimit="4"/></g></g><g clip-path="url(#fdbb7dbd68)"><g clip-path="url(#f6f8dca29d)"><path stroke-linecap="butt" transform="matrix(0.75, 0, 0, 0.75, 793.546028, 499.481191)" fill="none" stroke-linejoin="miter" d="M 47.313634 -0.000963284 C 21.183423 -0.000963284 0.00112927 21.18133 0.00112927 47.311541 C 0.00112927 73.441752 21.183423 94.624045 47.313634 94.624045 C 73.443844 94.624045 94.626138 73.441752 94.626138 47.311541 C 94.626138 21.18133 73.443844 -0.000963284 47.313634 -0.000963284 Z M 47.313634 -0.000963284 " stroke="#e45828" stroke-width="20" stroke-opacity="1" stroke-miterlimit="4"/></g></g><g clip-path="url(#1d1832881b)"><g clip-path="url(#e4783dbe2d)"><path stroke-linecap="butt" transform="matrix(0.75, 0, 0, 0.75, 935.484631, 499.481191)" fill="none" stroke-linejoin="miter" d="M 47.312162 -0.000963284 C 21.181952 -0.000963284 -0.000341758 21.18133 -0.000341758 47.311541 C -0.000341758 73.441752 21.181952 94.624045 47.312162 94.624045 C 73.442373 94.624045 94.624667 73.441752 94.624667 47.311541 C 94.624667 21.18133 73.442373 -0.000963284 47.312162 -0.000963284 Z M 47.312162 -0.000963284 " stroke="#e45828" stroke-width="20" stroke-opacity="1" stroke-miterlimit="4"/></g></g></svg>