<svg xmlns="http://www.w3.org/2000/svg" xmlns:xlink="http://www.w3.org/1999/xlink" width="800" zoomAndPan="magnify" viewBox="0 0 600 899.99999" height="1200" preserveAspectRatio="xMidYMid meet" version="1.0"><defs><clipPath id="3df1bdf2e8"><path d="M 270 101.78125 L 330 101.78125 L 330 161.78125 L 270 161.78125 Z M 270 101.78125 " clip-rule="nonzero"/></clipPath><clipPath id="8b8de84b5a"><path d="M 300 101.78125 C 283.429688 101.78125 270 115.214844 270 131.78125 C 270 148.351562 283.429688 161.78125 300 161.78125 C 316.570312 161.78125 330 148.351562 330 131.78125 C 330 115.214844 316.570312 101.78125 300 101.78125 Z M 300 101.78125 " clip-rule="nonzero"/></clipPath><clipPath id="d97dc5d384"><path d="M 441.480469 220.257812 L 501.480469 220.257812 L 501.480469 280.257812 L 441.480469 280.257812 Z M 441.480469 220.257812 " clip-rule="nonzero"/></clipPath><clipPath id="61815862d0"><path d="M 471.480469 220.257812 C 454.914062 220.257812 441.480469 233.6875 441.480469 250.257812 C 441.480469 266.824219 454.914062 280.257812 471.480469 280.257812 C 488.050781 280.257812 501.480469 266.824219 501.480469 250.257812 C 501.480469 233.6875 488.050781 220.257812 471.480469 220.257812 Z M 471.480469 220.257812 " clip-rule="nonzero"/></clipPath><clipPath id="4e8084b5e9"><path d="M 97.792969 220.257812 L 157.792969 220.257812 L 157.792969 280.257812 L 97.792969 280.257812 Z M 97.792969 220.257812 " clip-rule="nonzero"/></clipPath><clipPath id="741444d992"><path d="M 127.792969 220.257812 C 111.226562 220.257812 97.792969 233.6875 97.792969 250.257812 C 97.792969 266.824219 111.226562 280.257812 127.792969 280.257812 C 144.363281 280.257812 157.792969 266.824219 157.792969 250.257812 C 157.792969 233.6875 144.363281 220.257812 127.792969 220.257812 Z M 127.792969 220.257812 " clip-rule="nonzero"/></clipPath><clipPath id="897dc3c320"><path d="M 210 364.472656 L 270 364.472656 L 270 424.472656 L 210 424.472656 Z M 210 364.472656 " clip-rule="nonzero"/></clipPath><clipPath id="59cf5ce08d"><path d="M 240 364.472656 C 223.429688 364.472656 210 377.902344 210 394.472656 C 210 411.039062 223.429688 424.472656 240 424.472656 C 256.570312 424.472656 270 411.039062 270 394.472656 C 270 377.902344 256.570312 364.472656 240 364.472656 Z M 240 364.472656 " clip-rule="nonzero"/></clipPath><clipPath id="c3c4600f90"><path d="M 330 364.472656 L 390 364.472656 L 390 424.472656 L 330 424.472656 Z M 330 364.472656 " clip-rule="nonzero"/></clipPath><clipPath id="d0121545bd"><path d="M 360 364.472656 C 343.429688 364.472656 330 377.902344 330 394.472656 C 330 411.039062 343.429688 424.472656 360 424.472656 C 376.570312 424.472656 390 411.039062 390 394.472656 C 390 377.902344 376.570312 364.472656 360 364.472656 Z M 360 364.472656 " clip-rule="nonzero"/></clipPath><clipPath id="901a799d3a"><path d="M 270 652.769531 L 330 652.769531 L 330 712.769531 L 270 712.769531 Z M 270 652.769531 " clip-rule="nonzero"/></clipPath><clipPath id="1400267bac"><path d="M 300 652.769531 C 283.429688 652.769531 270 666.199219 270 682.769531 C 270 699.335938 283.429688 712.769531 300 712.769531 C 316.570312 712.769531 330 699.335938 330 682.769531 C 330 666.199219 316.570312 652.769531 300 652.769531 Z M 300 652.769531 " clip-rule="nonzero"/></clipPath><clipPath id="dccf397ef9"><path d="M 82.835938 509.902344 L 142.835938 509.902344 L 142.835938 569.902344 L 82.835938 569.902344 Z M 82.835938 509.902344 " clip-rule="nonzero"/></clipPath><clipPath id="bc4f5f9a31"><path d="M 112.835938 509.902344 C 96.269531 509.902344 82.835938 523.335938 82.835938 539.902344 C 82.835938 556.472656 96.269531 569.902344 112.835938 569.902344 C 129.40625 569.902344 142.835938 556.472656 142.835938 539.902344 C 142.835938 523.335938 129.40625 509.902344 112.835938 509.902344 Z M 112.835938 509.902344 " clip-rule="nonzero"/></clipPath><clipPath id="d9c94cb0fc"><path d="M 459.351562 509.902344 L 519.351562 509.902344 L 519.351562 569.902344 L 459.351562 569.902344 Z M 459.351562 509.902344 " clip-rule="nonzero"/></clipPath><clipPath id="3a17ec7428"><path d="M 489.351562 509.902344 C 472.78125 509.902344 459.351562 523.335938 459.351562 539.902344 C 459.351562 556.472656 472.78125 569.902344 489.351562 569.902344 C 505.917969 569.902344 519.351562 556.472656 519.351562 539.902344 C 519.351562 523.335938 505.917969 509.902344 489.351562 509.902344 Z M 489.351562 509.902344 " clip-rule="nonzero"/></clipPath></defs><path stroke-linecap="butt" transform="matrix(0.656476, 0, 0, 0.656476, 9.080999, -162.820752)" fill="none" stroke-linejoin="miter" d="M 631.028054 843.287303 C 685.729433 856.312574 730.231946 883.446076 764.529645 924.687809 C 798.827343 965.929542 815.976193 1015.858756 815.976193 1074.469501 C 815.976193 1160.427959 781.999812 1226.958592 714.058951 1274.06735 C 646.112139 1321.170158 555.922997 1344.721561 443.479622 1344.721561 C 331.036247 1344.721561 240.94826 1321.063052 173.221611 1273.740082 C 105.494962 1226.417112 71.631637 1159.993585 71.631637 1074.469501 C 71.631637 1015.858756 88.780487 965.929542 123.078185 924.687809 C 157.375884 883.446076 201.878397 856.312574 256.579776 843.287303 C 208.822432 831.999528 169.859675 808.448124 139.685555 772.627141 C 109.511434 736.812109 94.427349 694.160147 94.427349 644.665307 C 94.427349 563.479013 126.118803 500.637584 189.501712 456.135071 C 252.890571 411.638507 337.545908 389.390226 443.479622 389.390226 C 549.407386 389.390226 634.175779 411.638507 697.77885 456.135071 C 761.381921 500.637584 793.180481 563.479013 793.180481 644.665307 C 793.180481 694.160147 777.98334 736.812109 747.595007 772.627141 C 717.206675 808.448124 678.351024 831.999528 631.028054 843.287303 Z M 577.30253 536.565673 C 542.356246 510.949505 497.746626 498.138446 443.479622 498.138446 C 389.212618 498.138446 344.602998 511.056611 309.650763 536.886991 C 274.704479 562.717371 257.228361 599.72842 257.228361 647.920138 C 257.228361 693.505611 274.811585 728.999326 309.978032 754.395332 C 345.144478 779.791338 389.646992 792.489341 443.479622 792.489341 C 496.877878 792.489341 541.267335 779.791338 576.653944 754.395332 C 612.034603 728.999326 629.724932 693.505611 629.724932 647.920138 C 629.724932 599.294046 612.248815 562.175891 577.30253 536.565673 Z M 298.583151 1187.454355 C 336.570054 1214.587857 384.868877 1228.154608 443.479622 1228.154608 C 502.084416 1228.154608 550.496296 1214.480751 588.697411 1187.127087 C 626.904476 1159.779373 646.005033 1120.923722 646.005033 1070.560134 C 646.005033 1017.161878 627.011582 976.568731 589.024679 948.780693 C 551.037776 920.998605 502.51879 907.104586 443.479622 907.104586 C 384.434503 907.104586 336.028574 920.998605 298.255883 948.780693 C 260.489142 976.568731 241.602796 1017.161878 241.602796 1070.560134 C 241.602796 1121.352146 260.596248 1160.320853 298.583151 1187.454355 Z M 298.583151 1187.454355 " stroke="#e45828" stroke-width="21.672462" stroke-opacity="1" stroke-miterlimit="4"/><g clip-path="url(#3df1bdf2e8)"><g clip-path="url(#8b8de84b5a)"><path stroke-linecap="butt" transform="matrix(0.75, 0, 0, 0.75, 269.999989, 101.781811)" fill="none" stroke-linejoin="miter" d="M 40.000017 -0.000748631 C 17.906266 -0.000748631 0.0000145733 17.910711 0.0000145733 39.999253 C 0.0000145733 62.093005 17.906266 79.999256 40.000017 79.999256 C 62.093768 79.999256 80.000019 62.093005 80.000019 39.999253 C 80.000019 17.910711 62.093768 -0.000748631 40.000017 -0.000748631 Z M 40.000017 -0.000748631 " stroke="#e45828" stroke-width="10" stroke-opacity="1" stroke-miterlimit="4"/></g></g><g clip-path="url(#d97dc5d384)"><g clip-path="url(#61815862d0)"><path stroke-linecap="butt" transform="matrix(0.75, 0, 0, 0.75, 441.480868, 220.257196)" fill="none" stroke-linejoin="miter" d="M 39.99947 0.000822436 C 17.910927 0.000822436 -0.000532461 17.907073 -0.000532461 40.000825 C -0.000532461 62.089367 17.910927 80.000827 39.99947 80.000827 C 62.093221 80.000827 79.999472 62.089367 79.999472 40.000825 C 79.999472 17.907073 62.093221 0.000822436 39.99947 0.000822436 Z M 39.99947 0.000822436 " stroke="#e45828" stroke-width="10" stroke-opacity="1" stroke-miterlimit="4"/></g></g><g clip-path="url(#4e8084b5e9)"><g clip-path="url(#741444d992)"><path stroke-linecap="butt" transform="matrix(0.75, 0, 0, 0.75, 97.793398, 220.257196)" fill="none" stroke-linejoin="miter" d="M 39.99943 0.000822436 C 17.910887 0.000822436 -0.000572443 17.907073 -0.000572443 40.000825 C -0.000572443 62.089367 17.910887 80.000827 39.99943 80.000827 C 62.093181 80.000827 79.999432 62.089367 79.999432 40.000825 C 79.999432 17.907073 62.093181 0.000822436 39.99943 0.000822436 Z M 39.99943 0.000822436 " stroke="#e45828" stroke-width="10" stroke-opacity="1" stroke-miterlimit="4"/></g></g><g clip-path="url(#897dc3c320)"><g clip-path="url(#59cf5ce08d)"><path stroke-linecap="butt" transform="matrix(0.75, 0, 0, 0.75, 209.999992, 364.471407)" fill="none" stroke-linejoin="miter" d="M 40.000012 0.00166523 C 17.906261 0.00166523 0.0000103867 17.907916 0.0000103867 40.001667 C 0.0000103867 62.09021 17.906261 80.001669 40.000012 80.001669 C 62.093764 80.001669 80.000015 62.09021 80.000015 40.001667 C 80.000015 17.907916 62.093764 0.00166523 40.000012 0.00166523 Z M 40.000012 0.00166523 " stroke="#e45828" stroke-width="10" stroke-opacity="1" stroke-miterlimit="4"/></g></g><g clip-path="url(#c3c4600f90)"><g clip-path="url(#d0121545bd)"><path stroke-linecap="butt" transform="matrix(0.75, 0, 0, 0.75, 329.999986, 364.471407)" fill="none" stroke-linejoin="miter" d="M 40.000021 0.00166523 C 17.90627 0.00166523 0.00001876 17.907916 0.00001876 40.001667 C 0.00001876 62.09021 17.90627 80.001669 40.000021 80.001669 C 62.093772 80.001669 80.000023 62.09021 80.000023 40.001667 C 80.000023 17.907916 62.093772 0.00166523 40.000021 0.00166523 Z M 40.000021 0.00166523 " stroke="#e45828" stroke-width="10" stroke-opacity="1" stroke-miterlimit="4"/></g></g><g clip-path="url(#901a799d3a)"><g clip-path="url(#1400267bac)"><path stroke-linecap="butt" transform="matrix(0.75, 0, 0, 0.75, 269.999989, 652.76905)" fill="none" stroke-linejoin="miter" d="M 40.000017 0.000641882 C 17.906266 0.000641882 0.0000145733 17.906893 0.0000145733 40.000644 C 0.0000145733 62.089187 17.906266 80.000646 40.000017 80.000646 C 62.093768 80.000646 80.000019 62.089187 80.000019 40.000644 C 80.000019 17.906893 62.093768 0.000641882 40.000017 0.000641882 Z M 40.000017 0.000641882 " stroke="#e45828" stroke-width="10" stroke-opacity="1" stroke-miterlimit="4"/></g></g><g clip-path="url(#dccf397ef9)"><g clip-path="url(#bc4f5f9a31)"><path stroke-linecap="butt" transform="matrix(0.75, 0, 0, 0.75, 82.837528, 509.902961)" fill="none" stroke-linejoin="miter" d="M 39.997882 -0.00082342 C 17.909339 -0.00082342 -0.00212022 17.910636 -0.00212022 39.999179 C -0.00212022 62.09293 17.909339 79.999181 39.997882 79.999181 C 62.091633 79.999181 79.997884 62.09293 79.997884 39.999179 C 79.997884 17.910636 62.091633 -0.00082342 39.997882 -0.00082342 Z M 39.997882 -0.00082342 " stroke="#e45828" stroke-width="10" stroke-opacity="1" stroke-miterlimit="4"/></g></g><g clip-path="url(#d9c94cb0fc)"><g clip-path="url(#3a17ec7428)"><path stroke-linecap="butt" transform="matrix(0.75, 0, 0, 0.75, 459.350715, 509.902961)" fill="none" stroke-linejoin="miter" d="M 40.001132 -0.00082342 C 17.907381 -0.00082342 0.00112979 17.910636 0.00112979 39.999179 C 0.00112979 62.09293 17.907381 79.999181 40.001132 79.999181 C 62.089675 79.999181 80.001134 62.09293 80.001134 39.999179 C 80.001134 17.910636 62.089675 -0.00082342 40.001132 -0.00082342 Z M 40.001132 -0.00082342 " stroke="#e45828" stroke-width="10" stroke-opacity="1" stroke-miterlimit="4"/></g></g></svg>