<svg xmlns="http://www.w3.org/2000/svg" xmlns:xlink="http://www.w3.org/1999/xlink" width="794" zoomAndPan="magnify" viewBox="0 0 594.95996 842.24997" height="1123" preserveAspectRatio="xMidYMid meet" version="1.0"><defs><clipPath id="cfd3cc9ef3"><path d="M 151 159 L 443 159 L 443 690 L 151 690 Z M 151 159 " clip-rule="nonzero"/></clipPath><clipPath id="ea42f48106"><path d="M 500.390625 277.207031 C 500.390625 307.140625 492.980469 333.542969 478.160156 356.414062 C 463.339844 379.289062 442.941406 397.640625 416.972656 411.480469 C 446.332031 425.878906 469.621094 445.574219 486.839844 470.566406 C 504.058594 495.554688 512.667969 525.136719 512.667969 559.304688 C 512.667969 614.367188 493.683594 657.847656 455.71875 689.765625 C 417.75 721.664062 365.453125 737.625 298.832031 737.625 C 231.929688 737.625 179.144531 721.601562 140.46875 689.550781 C 101.796875 657.5 82.457031 614.085938 82.457031 559.304688 C 82.457031 526.265625 90.925781 497.039062 107.867188 471.625 C 124.800781 446.210938 148.796875 426.160156 179.851562 411.480469 C 153.59375 397.640625 132.988281 379.289062 118.027344 356.414062 C 103.066406 333.542969 95.585938 307.140625 95.585938 277.207031 C 95.585938 223.554688 113.792969 181.199219 150.210938 150.136719 C 186.625 119.078125 235.742188 103.542969 297.5625 103.542969 C 359.949219 103.542969 409.351562 119.078125 445.765625 150.136719 C 482.183594 181.199219 500.390625 223.554688 500.390625 277.207031 Z M 369.546875 547.867188 C 369.546875 522.453125 362.984375 502.898438 349.855469 489.203125 C 336.730469 475.507812 319.441406 468.660156 297.988281 468.660156 C 276.535156 468.660156 259.171875 475.507812 245.90625 489.203125 C 232.636719 502.898438 226.003906 522.453125 226.003906 547.867188 C 226.003906 572.429688 232.707031 591.839844 246.117188 606.105469 C 259.523438 620.375 277.097656 627.488281 298.832031 627.488281 C 320.007812 627.488281 337.085938 620.441406 350.070312 606.324219 C 363.054688 592.207031 369.546875 572.710938 369.546875 547.867188 Z M 297.5625 213.671875 C 278.367188 213.671875 263.757812 219.953125 253.738281 232.519531 C 243.71875 245.085938 238.707031 262.523438 238.707031 284.832031 C 238.707031 306.855469 243.785156 324.648438 253.949219 338.203125 C 264.113281 351.753906 279.074219 358.535156 298.832031 358.535156 C 318.3125 358.535156 332.921875 351.753906 342.660156 338.203125 C 352.398438 324.648438 357.269531 306.855469 357.269531 284.832031 C 357.269531 262.804688 352.257812 245.441406 342.234375 232.734375 C 332.214844 220.027344 317.324219 213.671875 297.5625 213.671875 Z M 297.5625 213.671875 " clip-rule="nonzero"/></clipPath><clipPath id="525d542ede"><path d="M 151 189 L 443 189 L 443 554 L 151 554 Z M 151 189 " clip-rule="nonzero"/></clipPath><clipPath id="17246fa082"><path d="M 500.390625 277.207031 C 500.390625 307.140625 492.980469 333.542969 478.160156 356.414062 C 463.339844 379.289062 442.941406 397.640625 416.972656 411.480469 C 446.332031 425.878906 469.621094 445.574219 486.839844 470.566406 C 504.058594 495.554688 512.667969 525.136719 512.667969 559.304688 C 512.667969 614.367188 493.683594 657.847656 455.71875 689.765625 C 417.75 721.664062 365.453125 737.625 298.832031 737.625 C 231.929688 737.625 179.144531 721.601562 140.46875 689.550781 C 101.796875 657.5 82.457031 614.085938 82.457031 559.304688 C 82.457031 526.265625 90.925781 497.039062 107.867188 471.625 C 124.800781 446.210938 148.796875 426.160156 179.851562 411.480469 C 153.59375 397.640625 132.988281 379.289062 118.027344 356.414062 C 103.066406 333.542969 95.585938 307.140625 95.585938 277.207031 C 95.585938 223.554688 113.792969 181.199219 150.210938 150.136719 C 186.625 119.078125 235.742188 103.542969 297.5625 103.542969 C 359.949219 103.542969 409.351562 119.078125 445.765625 150.136719 C 482.183594 181.199219 500.390625 223.554688 500.390625 277.207031 Z M 369.546875 547.867188 C 369.546875 522.453125 362.984375 502.898438 349.855469 489.203125 C 336.730469 475.507812 319.441406 468.660156 297.988281 468.660156 C 276.535156 468.660156 259.171875 475.507812 245.90625 489.203125 C 232.636719 502.898438 226.003906 522.453125 226.003906 547.867188 C 226.003906 572.429688 232.707031 591.839844 246.117188 606.105469 C 259.523438 620.375 277.097656 627.488281 298.832031 627.488281 C 320.007812 627.488281 337.085938 620.441406 350.070312 606.324219 C 363.054688 592.207031 369.546875 572.710938 369.546875 547.867188 Z M 297.5625 213.671875 C 278.367188 213.671875 263.757812 219.953125 253.738281 232.519531 C 243.71875 245.085938 238.707031 262.523438 238.707031 284.832031 C 238.707031 306.855469 243.785156 324.648438 253.949219 338.203125 C 264.113281 351.753906 279.074219 358.535156 298.832031 358.535156 C 318.3125 358.535156 332.921875 351.753906 342.660156 338.203125 C 352.398438 324.648438 357.269531 306.855469 357.269531 284.832031 C 357.269531 262.804688 352.257812 245.441406 342.234375 232.734375 C 332.214844 220.027344 317.324219 213.671875 297.5625 213.671875 Z M 297.5625 213.671875 " clip-rule="nonzero"/></clipPath><clipPath id="8161b414fa"><path d="M 186 627 L 227 627 L 227 669 L 186 669 Z M 186 627 " clip-rule="nonzero"/></clipPath><clipPath id="b5aa4772f4"><path d="M 500.390625 277.207031 C 500.390625 307.140625 492.980469 333.542969 478.160156 356.414062 C 463.339844 379.289062 442.941406 397.640625 416.972656 411.480469 C 446.332031 425.878906 469.621094 445.574219 486.839844 470.566406 C 504.058594 495.554688 512.667969 525.136719 512.667969 559.304688 C 512.667969 614.367188 493.683594 657.847656 455.71875 689.765625 C 417.75 721.664062 365.453125 737.625 298.832031 737.625 C 231.929688 737.625 179.144531 721.601562 140.46875 689.550781 C 101.796875 657.5 82.457031 614.085938 82.457031 559.304688 C 82.457031 526.265625 90.925781 497.039062 107.867188 471.625 C 124.800781 446.210938 148.796875 426.160156 179.851562 411.480469 C 153.59375 397.640625 132.988281 379.289062 118.027344 356.414062 C 103.066406 333.542969 95.585938 307.140625 95.585938 277.207031 C 95.585938 223.554688 113.792969 181.199219 150.210938 150.136719 C 186.625 119.078125 235.742188 103.542969 297.5625 103.542969 C 359.949219 103.542969 409.351562 119.078125 445.765625 150.136719 C 482.183594 181.199219 500.390625 223.554688 500.390625 277.207031 Z M 369.546875 547.867188 C 369.546875 522.453125 362.984375 502.898438 349.855469 489.203125 C 336.730469 475.507812 319.441406 468.660156 297.988281 468.660156 C 276.535156 468.660156 259.171875 475.507812 245.90625 489.203125 C 232.636719 502.898438 226.003906 522.453125 226.003906 547.867188 C 226.003906 572.429688 232.707031 591.839844 246.117188 606.105469 C 259.523438 620.375 277.097656 627.488281 298.832031 627.488281 C 320.007812 627.488281 337.085938 620.441406 350.070312 606.324219 C 363.054688 592.207031 369.546875 572.710938 369.546875 547.867188 Z M 297.5625 213.671875 C 278.367188 213.671875 263.757812 219.953125 253.738281 232.519531 C 243.71875 245.085938 238.707031 262.523438 238.707031 284.832031 C 238.707031 306.855469 243.785156 324.648438 253.949219 338.203125 C 264.113281 351.753906 279.074219 358.535156 298.832031 358.535156 C 318.3125 358.535156 332.921875 351.753906 342.660156 338.203125 C 352.398438 324.648438 357.269531 306.855469 357.269531 284.832031 C 357.269531 262.804688 352.257812 245.441406 342.234375 232.734375 C 332.214844 220.027344 317.324219 213.671875 297.5625 213.671875 Z M 297.5625 213.671875 " clip-rule="nonzero"/></clipPath><clipPath id="1890a373e7"><path d="M 370 171 L 412 171 L 412 211 L 370 211 Z M 370 171 " clip-rule="nonzero"/></clipPath><clipPath id="2863a4edee"><path d="M 500.390625 277.207031 C 500.390625 307.140625 492.980469 333.542969 478.160156 356.414062 C 463.339844 379.289062 442.941406 397.640625 416.972656 411.480469 C 446.332031 425.878906 469.621094 445.574219 486.839844 470.566406 C 504.058594 495.554688 512.667969 525.136719 512.667969 559.304688 C 512.667969 614.367188 493.683594 657.847656 455.71875 689.765625 C 417.75 721.664062 365.453125 737.625 298.832031 737.625 C 231.929688 737.625 179.144531 721.601562 140.46875 689.550781 C 101.796875 657.5 82.457031 614.085938 82.457031 559.304688 C 82.457031 526.265625 90.925781 497.039062 107.867188 471.625 C 124.800781 446.210938 148.796875 426.160156 179.851562 411.480469 C 153.59375 397.640625 132.988281 379.289062 118.027344 356.414062 C 103.066406 333.542969 95.585938 307.140625 95.585938 277.207031 C 95.585938 223.554688 113.792969 181.199219 150.210938 150.136719 C 186.625 119.078125 235.742188 103.542969 297.5625 103.542969 C 359.949219 103.542969 409.351562 119.078125 445.765625 150.136719 C 482.183594 181.199219 500.390625 223.554688 500.390625 277.207031 Z M 369.546875 547.867188 C 369.546875 522.453125 362.984375 502.898438 349.855469 489.203125 C 336.730469 475.507812 319.441406 468.660156 297.988281 468.660156 C 276.535156 468.660156 259.171875 475.507812 245.90625 489.203125 C 232.636719 502.898438 226.003906 522.453125 226.003906 547.867188 C 226.003906 572.429688 232.707031 591.839844 246.117188 606.105469 C 259.523438 620.375 277.097656 627.488281 298.832031 627.488281 C 320.007812 627.488281 337.085938 620.441406 350.070312 606.324219 C 363.054688 592.207031 369.546875 572.710938 369.546875 547.867188 Z M 297.5625 213.671875 C 278.367188 213.671875 263.757812 219.953125 253.738281 232.519531 C 243.71875 245.085938 238.707031 262.523438 238.707031 284.832031 C 238.707031 306.855469 243.785156 324.648438 253.949219 338.203125 C 264.113281 351.753906 279.074219 358.535156 298.832031 358.535156 C 318.3125 358.535156 332.921875 351.753906 342.660156 338.203125 C 352.398438 324.648438 357.269531 306.855469 357.269531 284.832031 C 357.269531 262.804688 352.257812 245.441406 342.234375 232.734375 C 332.214844 220.027344 317.324219 213.671875 297.5625 213.671875 Z M 297.5625 213.671875 " clip-rule="nonzero"/></clipPath><clipPath id="6180e7697d"><path d="M 296 149 L 329 149 L 329 182 L 296 182 Z M 296 149 " clip-rule="nonzero"/></clipPath><clipPath id="cdd09323e5"><path d="M 500.390625 277.207031 C 500.390625 307.140625 492.980469 333.542969 478.160156 356.414062 C 463.339844 379.289062 442.941406 397.640625 416.972656 411.480469 C 446.332031 425.878906 469.621094 445.574219 486.839844 470.566406 C 504.058594 495.554688 512.667969 525.136719 512.667969 559.304688 C 512.667969 614.367188 493.683594 657.847656 455.71875 689.765625 C 417.75 721.664062 365.453125 737.625 298.832031 737.625 C 231.929688 737.625 179.144531 721.601562 140.46875 689.550781 C 101.796875 657.5 82.457031 614.085938 82.457031 559.304688 C 82.457031 526.265625 90.925781 497.039062 107.867188 471.625 C 124.800781 446.210938 148.796875 426.160156 179.851562 411.480469 C 153.59375 397.640625 132.988281 379.289062 118.027344 356.414062 C 103.066406 333.542969 95.585938 307.140625 95.585938 277.207031 C 95.585938 223.554688 113.792969 181.199219 150.210938 150.136719 C 186.625 119.078125 235.742188 103.542969 297.5625 103.542969 C 359.949219 103.542969 409.351562 119.078125 445.765625 150.136719 C 482.183594 181.199219 500.390625 223.554688 500.390625 277.207031 Z M 369.546875 547.867188 C 369.546875 522.453125 362.984375 502.898438 349.855469 489.203125 C 336.730469 475.507812 319.441406 468.660156 297.988281 468.660156 C 276.535156 468.660156 259.171875 475.507812 245.90625 489.203125 C 232.636719 502.898438 226.003906 522.453125 226.003906 547.867188 C 226.003906 572.429688 232.707031 591.839844 246.117188 606.105469 C 259.523438 620.375 277.097656 627.488281 298.832031 627.488281 C 320.007812 627.488281 337.085938 620.441406 350.070312 606.324219 C 363.054688 592.207031 369.546875 572.710938 369.546875 547.867188 Z M 297.5625 213.671875 C 278.367188 213.671875 263.757812 219.953125 253.738281 232.519531 C 243.71875 245.085938 238.707031 262.523438 238.707031 284.832031 C 238.707031 306.855469 243.785156 324.648438 253.949219 338.203125 C 264.113281 351.753906 279.074219 358.535156 298.832031 358.535156 C 318.3125 358.535156 332.921875 351.753906 342.660156 338.203125 C 352.398438 324.648438 357.269531 306.855469 357.269531 284.832031 C 357.269531 262.804688 352.257812 245.441406 342.234375 232.734375 C 332.214844 220.027344 317.324219 213.671875 297.5625 213.671875 Z M 297.5625 213.671875 " clip-rule="nonzero"/></clipPath><clipPath id="1193c6dc11"><path d="M 306 155 L 315 155 L 315 176 L 306 176 Z M 306 155 " clip-rule="nonzero"/></clipPath><clipPath id="011b812a20"><path d="M 500.390625 277.207031 C 500.390625 307.140625 492.980469 333.542969 478.160156 356.414062 C 463.339844 379.289062 442.941406 397.640625 416.972656 411.480469 C 446.332031 425.878906 469.621094 445.574219 486.839844 470.566406 C 504.058594 495.554688 512.667969 525.136719 512.667969 559.304688 C 512.667969 614.367188 493.683594 657.847656 455.71875 689.765625 C 417.75 721.664062 365.453125 737.625 298.832031 737.625 C 231.929688 737.625 179.144531 721.601562 140.46875 689.550781 C 101.796875 657.5 82.457031 614.085938 82.457031 559.304688 C 82.457031 526.265625 90.925781 497.039062 107.867188 471.625 C 124.800781 446.210938 148.796875 426.160156 179.851562 411.480469 C 153.59375 397.640625 132.988281 379.289062 118.027344 356.414062 C 103.066406 333.542969 95.585938 307.140625 95.585938 277.207031 C 95.585938 223.554688 113.792969 181.199219 150.210938 150.136719 C 186.625 119.078125 235.742188 103.542969 297.5625 103.542969 C 359.949219 103.542969 409.351562 119.078125 445.765625 150.136719 C 482.183594 181.199219 500.390625 223.554688 500.390625 277.207031 Z M 369.546875 547.867188 C 369.546875 522.453125 362.984375 502.898438 349.855469 489.203125 C 336.730469 475.507812 319.441406 468.660156 297.988281 468.660156 C 276.535156 468.660156 259.171875 475.507812 245.90625 489.203125 C 232.636719 502.898438 226.003906 522.453125 226.003906 547.867188 C 226.003906 572.429688 232.707031 591.839844 246.117188 606.105469 C 259.523438 620.375 277.097656 627.488281 298.832031 627.488281 C 320.007812 627.488281 337.085938 620.441406 350.070312 606.324219 C 363.054688 592.207031 369.546875 572.710938 369.546875 547.867188 Z M 297.5625 213.671875 C 278.367188 213.671875 263.757812 219.953125 253.738281 232.519531 C 243.71875 245.085938 238.707031 262.523438 238.707031 284.832031 C 238.707031 306.855469 243.785156 324.648438 253.949219 338.203125 C 264.113281 351.753906 279.074219 358.535156 298.832031 358.535156 C 318.3125 358.535156 332.921875 351.753906 342.660156 338.203125 C 352.398438 324.648438 357.269531 306.855469 357.269531 284.832031 C 357.269531 262.804688 352.257812 245.441406 342.234375 232.734375 C 332.214844 220.027344 317.324219 213.671875 297.5625 213.671875 Z M 297.5625 213.671875 " clip-rule="nonzero"/></clipPath><clipPath id="08ff643ac3"><path d="M 296.265625 165.730469 C 296.242188 164.679688 296.316406 163.636719 296.5 162.597656 C 296.679688 161.5625 296.957031 160.550781 297.335938 159.570312 C 297.714844 158.589844 298.1875 157.652344 298.75 156.765625 C 299.3125 155.875 299.957031 155.050781 300.683594 154.289062 C 301.410156 153.527344 302.203125 152.84375 303.0625 152.238281 C 303.921875 151.632812 304.835938 151.117188 305.796875 150.6875 C 306.757812 150.261719 307.753906 149.933594 308.777344 149.703125 C 309.804688 149.472656 310.84375 149.347656 311.898438 149.320312 C 312.949219 149.296875 313.992188 149.375 315.027344 149.554688 C 316.066406 149.734375 317.074219 150.011719 318.054688 150.394531 C 319.039062 150.773438 319.972656 151.242188 320.859375 151.804688 C 321.75 152.371094 322.574219 153.015625 323.335938 153.738281 C 324.097656 154.464844 324.78125 155.257812 325.386719 156.121094 C 325.992188 156.980469 326.507812 157.890625 326.933594 158.855469 C 327.359375 159.816406 327.6875 160.8125 327.917969 161.839844 C 328.148438 162.863281 328.277344 163.90625 328.300781 164.957031 C 328.328125 166.007812 328.25 167.054688 328.070312 168.089844 C 327.890625 169.125 327.609375 170.136719 327.230469 171.117188 C 326.851562 172.097656 326.382812 173.035156 325.816406 173.925781 C 325.253906 174.8125 324.609375 175.636719 323.882812 176.398438 C 323.160156 177.160156 322.367188 177.847656 321.503906 178.453125 C 320.644531 179.058594 319.734375 179.574219 318.773438 180 C 317.808594 180.425781 316.816406 180.753906 315.789062 180.984375 C 314.761719 181.214844 313.722656 181.34375 312.671875 181.367188 C 311.621094 181.394531 310.574219 181.316406 309.539062 181.136719 C 308.503906 180.953125 307.492188 180.675781 306.511719 180.296875 C 305.53125 179.917969 304.597656 179.445312 303.707031 178.882812 C 302.820312 178.320312 301.992188 177.675781 301.230469 176.949219 C 300.46875 176.222656 299.785156 175.429688 299.179688 174.570312 C 298.574219 173.707031 298.058594 172.796875 297.632812 171.835938 C 297.207031 170.871094 296.878906 169.878906 296.648438 168.851562 C 296.417969 167.824219 296.292969 166.785156 296.265625 165.730469 Z M 296.265625 165.730469 " clip-rule="nonzero"/></clipPath><clipPath id="49d6d916d6"><path d="M 144 574 L 177 574 L 177 607 L 144 607 Z M 144 574 " clip-rule="nonzero"/></clipPath><clipPath id="e96e875c2d"><path d="M 500.390625 277.207031 C 500.390625 307.140625 492.980469 333.542969 478.160156 356.414062 C 463.339844 379.289062 442.941406 397.640625 416.972656 411.480469 C 446.332031 425.878906 469.621094 445.574219 486.839844 470.566406 C 504.058594 495.554688 512.667969 525.136719 512.667969 559.304688 C 512.667969 614.367188 493.683594 657.847656 455.71875 689.765625 C 417.75 721.664062 365.453125 737.625 298.832031 737.625 C 231.929688 737.625 179.144531 721.601562 140.46875 689.550781 C 101.796875 657.5 82.457031 614.085938 82.457031 559.304688 C 82.457031 526.265625 90.925781 497.039062 107.867188 471.625 C 124.800781 446.210938 148.796875 426.160156 179.851562 411.480469 C 153.59375 397.640625 132.988281 379.289062 118.027344 356.414062 C 103.066406 333.542969 95.585938 307.140625 95.585938 277.207031 C 95.585938 223.554688 113.792969 181.199219 150.210938 150.136719 C 186.625 119.078125 235.742188 103.542969 297.5625 103.542969 C 359.949219 103.542969 409.351562 119.078125 445.765625 150.136719 C 482.183594 181.199219 500.390625 223.554688 500.390625 277.207031 Z M 369.546875 547.867188 C 369.546875 522.453125 362.984375 502.898438 349.855469 489.203125 C 336.730469 475.507812 319.441406 468.660156 297.988281 468.660156 C 276.535156 468.660156 259.171875 475.507812 245.90625 489.203125 C 232.636719 502.898438 226.003906 522.453125 226.003906 547.867188 C 226.003906 572.429688 232.707031 591.839844 246.117188 606.105469 C 259.523438 620.375 277.097656 627.488281 298.832031 627.488281 C 320.007812 627.488281 337.085938 620.441406 350.070312 606.324219 C 363.054688 592.207031 369.546875 572.710938 369.546875 547.867188 Z M 297.5625 213.671875 C 278.367188 213.671875 263.757812 219.953125 253.738281 232.519531 C 243.71875 245.085938 238.707031 262.523438 238.707031 284.832031 C 238.707031 306.855469 243.785156 324.648438 253.949219 338.203125 C 264.113281 351.753906 279.074219 358.535156 298.832031 358.535156 C 318.3125 358.535156 332.921875 351.753906 342.660156 338.203125 C 352.398438 324.648438 357.269531 306.855469 357.269531 284.832031 C 357.269531 262.804688 352.257812 245.441406 342.234375 232.734375 C 332.214844 220.027344 317.324219 213.671875 297.5625 213.671875 Z M 297.5625 213.671875 " clip-rule="nonzero"/></clipPath><clipPath id="e78084b27c"><path d="M 153 580 L 167 580 L 167 601 L 153 601 Z M 153 580 " clip-rule="nonzero"/></clipPath><clipPath id="ef93ccd4e7"><path d="M 500.390625 277.207031 C 500.390625 307.140625 492.980469 333.542969 478.160156 356.414062 C 463.339844 379.289062 442.941406 397.640625 416.972656 411.480469 C 446.332031 425.878906 469.621094 445.574219 486.839844 470.566406 C 504.058594 495.554688 512.667969 525.136719 512.667969 559.304688 C 512.667969 614.367188 493.683594 657.847656 455.71875 689.765625 C 417.75 721.664062 365.453125 737.625 298.832031 737.625 C 231.929688 737.625 179.144531 721.601562 140.46875 689.550781 C 101.796875 657.5 82.457031 614.085938 82.457031 559.304688 C 82.457031 526.265625 90.925781 497.039062 107.867188 471.625 C 124.800781 446.210938 148.796875 426.160156 179.851562 411.480469 C 153.59375 397.640625 132.988281 379.289062 118.027344 356.414062 C 103.066406 333.542969 95.585938 307.140625 95.585938 277.207031 C 95.585938 223.554688 113.792969 181.199219 150.210938 150.136719 C 186.625 119.078125 235.742188 103.542969 297.5625 103.542969 C 359.949219 103.542969 409.351562 119.078125 445.765625 150.136719 C 482.183594 181.199219 500.390625 223.554688 500.390625 277.207031 Z M 369.546875 547.867188 C 369.546875 522.453125 362.984375 502.898438 349.855469 489.203125 C 336.730469 475.507812 319.441406 468.660156 297.988281 468.660156 C 276.535156 468.660156 259.171875 475.507812 245.90625 489.203125 C 232.636719 502.898438 226.003906 522.453125 226.003906 547.867188 C 226.003906 572.429688 232.707031 591.839844 246.117188 606.105469 C 259.523438 620.375 277.097656 627.488281 298.832031 627.488281 C 320.007812 627.488281 337.085938 620.441406 350.070312 606.324219 C 363.054688 592.207031 369.546875 572.710938 369.546875 547.867188 Z M 297.5625 213.671875 C 278.367188 213.671875 263.757812 219.953125 253.738281 232.519531 C 243.71875 245.085938 238.707031 262.523438 238.707031 284.832031 C 238.707031 306.855469 243.785156 324.648438 253.949219 338.203125 C 264.113281 351.753906 279.074219 358.535156 298.832031 358.535156 C 318.3125 358.535156 332.921875 351.753906 342.660156 338.203125 C 352.398438 324.648438 357.269531 306.855469 357.269531 284.832031 C 357.269531 262.804688 352.257812 245.441406 342.234375 232.734375 C 332.214844 220.027344 317.324219 213.671875 297.5625 213.671875 Z M 297.5625 213.671875 " clip-rule="nonzero"/></clipPath><clipPath id="b5d9eac994"><path d="M 144.335938 590.597656 C 144.308594 589.546875 144.386719 588.5 144.566406 587.464844 C 144.75 586.429688 145.027344 585.417969 145.40625 584.4375 C 145.785156 583.457031 146.257812 582.519531 146.820312 581.628906 C 147.382812 580.742188 148.027344 579.917969 148.753906 579.15625 C 149.480469 578.394531 150.273438 577.707031 151.132812 577.101562 C 151.992188 576.496094 152.902344 575.980469 153.867188 575.554688 C 154.828125 575.128906 155.820312 574.800781 156.847656 574.570312 C 157.875 574.339844 158.914062 574.214844 159.964844 574.1875 C 161.019531 574.164062 162.0625 574.238281 163.097656 574.417969 C 164.136719 574.601562 165.144531 574.878906 166.125 575.257812 C 167.105469 575.636719 168.042969 576.109375 168.929688 576.671875 C 169.820312 577.234375 170.644531 577.878906 171.40625 578.605469 C 172.167969 579.332031 172.851562 580.125 173.457031 580.988281 C 174.0625 581.847656 174.578125 582.757812 175.003906 583.722656 C 175.429688 584.683594 175.757812 585.675781 175.988281 586.703125 C 176.21875 587.730469 176.347656 588.769531 176.371094 589.824219 C 176.398438 590.875 176.320312 591.917969 176.140625 592.957031 C 175.960938 593.992188 175.679688 595.003906 175.300781 595.984375 C 174.921875 596.964844 174.449219 597.902344 173.886719 598.789062 C 173.324219 599.679688 172.679688 600.503906 171.953125 601.265625 C 171.226562 602.027344 170.433594 602.710938 169.574219 603.316406 C 168.714844 603.921875 167.804688 604.4375 166.839844 604.867188 C 165.878906 605.292969 164.886719 605.621094 163.859375 605.851562 C 162.832031 606.082031 161.792969 606.207031 160.742188 606.234375 C 159.6875 606.257812 158.644531 606.179688 157.609375 606 C 156.570312 605.820312 155.5625 605.542969 154.582031 605.164062 C 153.601562 604.78125 152.664062 604.3125 151.777344 603.75 C 150.886719 603.183594 150.0625 602.539062 149.300781 601.816406 C 148.539062 601.089844 147.855469 600.296875 147.25 599.433594 C 146.644531 598.574219 146.128906 597.664062 145.703125 596.699219 C 145.277344 595.738281 144.949219 594.742188 144.71875 593.714844 C 144.488281 592.691406 144.359375 591.648438 144.335938 590.597656 Z M 144.335938 590.597656 " clip-rule="nonzero"/></clipPath><clipPath id="0932cfb679"><path d="M 79.121094 100.234375 L 515.980469 100.234375 L 515.980469 740.914062 L 79.121094 740.914062 Z M 79.121094 100.234375 " clip-rule="nonzero"/></clipPath></defs><path fill="#ffffff" d="M 500.390625 277.207031 C 500.390625 307.140625 492.980469 333.542969 478.160156 356.414062 C 463.339844 379.289062 442.941406 397.640625 416.972656 411.480469 C 446.332031 425.878906 469.621094 445.578125 486.839844 470.566406 C 504.058594 495.554688 512.667969 525.136719 512.667969 559.304688 C 512.667969 614.367188 493.683594 657.847656 455.71875 689.765625 C 417.75 721.664062 365.453125 737.625 298.832031 737.625 C 231.929688 737.625 179.144531 721.601562 140.46875 689.550781 C 101.796875 657.5 82.457031 614.085938 82.457031 559.304688 C 82.457031 526.265625 90.925781 497.039062 107.867188 471.625 C 124.800781 446.210938 148.796875 426.160156 179.847656 411.480469 C 153.59375 397.640625 132.988281 379.289062 118.027344 356.414062 C 103.066406 333.542969 95.585938 307.140625 95.585938 277.207031 C 95.585938 223.554688 113.792969 181.199219 150.210938 150.136719 C 186.625 119.078125 235.742188 103.542969 297.5625 103.542969 C 359.949219 103.542969 409.351562 119.078125 445.765625 150.136719 C 482.183594 181.199219 500.390625 223.554688 500.390625 277.207031 Z M 369.546875 547.867188 C 369.546875 522.453125 362.984375 502.898438 349.855469 489.203125 C 336.730469 475.507812 319.441406 468.660156 297.988281 468.660156 C 276.535156 468.660156 259.171875 475.507812 245.90625 489.203125 C 232.636719 502.898438 226.003906 522.453125 226.003906 547.867188 C 226.003906 572.429688 232.707031 591.839844 246.117188 606.105469 C 259.523438 620.375 277.097656 627.488281 298.832031 627.488281 C 320.007812 627.488281 337.085938 620.441406 350.070312 606.324219 C 363.054688 592.207031 369.546875 572.710938 369.546875 547.867188 Z M 297.5625 213.671875 C 278.367188 213.671875 263.757812 219.953125 253.738281 232.519531 C 243.71875 245.085938 238.707031 262.523438 238.707031 284.832031 C 238.707031 306.855469 243.785156 324.648438 253.949219 338.203125 C 264.113281 351.753906 279.074219 358.535156 298.832031 358.535156 C 318.3125 358.535156 332.921875 351.753906 342.660156 338.203125 C 352.398438 324.648438 357.269531 306.855469 357.269531 284.832031 C 357.269531 262.804688 352.257812 245.441406 342.234375 232.734375 C 332.214844 220.027344 317.324219 213.671875 297.5625 213.671875 Z M 297.5625 213.671875 " fill-opacity="1" fill-rule="nonzero"/><g clip-path="url(#cfd3cc9ef3)"><g clip-path="url(#ea42f48106)"><path fill="#000000" d="M 306.230469 682.65625 C 302.589844 682.542969 298.972656 682.253906 295.394531 681.824219 C 293.429688 681.585938 291.648438 682.992188 291.414062 684.953125 C 291.175781 686.914062 292.574219 688.699219 294.539062 688.9375 C 298.324219 689.390625 302.152344 689.695312 306.003906 689.816406 C 307.980469 689.878906 309.632812 688.324219 309.695312 686.351562 C 309.757812 684.375 308.207031 682.71875 306.230469 682.65625 Z M 336.890625 680.003906 C 333.339844 680.734375 329.75 681.320312 326.140625 681.757812 C 324.183594 681.996094 322.78125 683.78125 323.019531 685.742188 C 323.257812 687.703125 325.042969 689.105469 327.003906 688.867188 C 330.808594 688.40625 334.589844 687.789062 338.332031 687.019531 C 340.265625 686.621094 341.515625 684.726562 341.117188 682.789062 C 340.71875 680.851562 338.824219 679.605469 336.890625 680.003906 Z M 275.761719 678.042969 C 272.175781 677.105469 268.667969 676.058594 265.25 674.933594 C 263.371094 674.3125 261.347656 675.335938 260.730469 677.214844 C 260.113281 679.09375 261.132812 681.117188 263.011719 681.738281 C 266.566406 682.910156 270.21875 683.996094 273.949219 684.96875 C 275.863281 685.472656 277.820312 684.324219 278.320312 682.414062 C 278.820312 680.5 277.671875 678.542969 275.761719 678.042969 Z M 366.085938 670.308594 C 362.804688 671.851562 359.453125 673.253906 356.054688 674.519531 C 354.199219 675.203125 353.253906 677.269531 353.941406 679.121094 C 354.628906 680.972656 356.6875 681.917969 358.542969 681.234375 C 362.136719 679.902344 365.671875 678.417969 369.132812 676.789062 C 370.921875 675.945312 371.691406 673.808594 370.847656 672.019531 C 370.007812 670.234375 367.871094 669.464844 366.085938 670.308594 Z M 246.472656 667.664062 C 242.96875 666.109375 239.640625 664.523438 236.519531 662.953125 C 234.753906 662.066406 232.601562 662.777344 231.714844 664.546875 C 230.828125 666.3125 231.539062 668.464844 233.300781 669.351562 C 236.519531 670.96875 239.953125 672.609375 243.570312 674.210938 C 245.378906 675.015625 247.496094 674.195312 248.296875 672.390625 C 249.097656 670.582031 248.28125 668.464844 246.472656 667.664062 Z M 392.058594 653.910156 C 389.253906 656.210938 386.355469 658.386719 383.371094 660.429688 C 381.738281 661.546875 381.316406 663.777344 382.429688 665.40625 C 383.546875 667.039062 385.773438 667.457031 387.402344 666.34375 C 390.570312 664.183594 393.636719 661.878906 396.605469 659.4375 C 398.132812 658.183594 398.351562 655.921875 397.097656 654.398438 C 395.839844 652.871094 393.582031 652.652344 392.058594 653.910156 Z M 218.894531 653.125 C 214.207031 650.234375 211.03125 648.03125 209.742188 647.113281 C 208.132812 645.96875 205.894531 646.34375 204.75 647.953125 C 203.605469 649.566406 203.984375 651.800781 205.59375 652.949219 C 206.9375 653.90625 210.25 656.207031 215.136719 659.222656 C 216.820312 660.257812 219.027344 659.734375 220.0625 658.050781 C 221.101562 656.371094 220.578125 654.160156 218.894531 653.125 Z M 413.011719 631.519531 C 410.894531 634.476562 408.652344 637.324219 406.292969 640.039062 C 405 641.53125 405.15625 643.796875 406.652344 645.09375 C 408.144531 646.386719 410.410156 646.226562 411.699219 644.730469 C 414.203125 641.847656 416.585938 638.828125 418.832031 635.6875 C 419.984375 634.082031 419.613281 631.84375 418.007812 630.6875 C 416.402344 629.539062 414.164062 629.910156 413.011719 631.519531 Z M 427.445312 604.457031 C 426.152344 607.886719 424.71875 611.210938 423.160156 614.4375 C 422.296875 616.214844 423.042969 618.359375 424.816406 619.222656 C 426.597656 620.082031 428.738281 619.339844 429.601562 617.558594 C 431.257812 614.144531 432.773438 610.617188 434.144531 606.984375 C 434.84375 605.136719 433.90625 603.066406 432.058594 602.367188 C 430.210938 601.671875 428.140625 602.605469 427.445312 604.457031 Z M 434.683594 574.566406 C 434.242188 578.234375 433.660156 581.820312 432.945312 585.324219 C 432.546875 587.257812 433.800781 589.152344 435.738281 589.546875 C 437.671875 589.941406 439.566406 588.695312 439.960938 586.753906 C 440.710938 583.0625 441.328125 579.289062 441.792969 575.425781 C 442.03125 573.464844 440.628906 571.675781 438.667969 571.4375 C 436.707031 571.203125 434.921875 572.601562 434.683594 574.566406 Z M 435 543.796875 C 435.332031 546.582031 435.542969 549.386719 435.632812 552.210938 C 435.660156 553.007812 435.675781 553.800781 435.691406 554.59375 C 435.726562 556.570312 437.355469 558.144531 439.332031 558.117188 C 441.304688 558.082031 442.882812 556.453125 442.851562 554.476562 C 442.835938 553.648438 442.816406 552.816406 442.789062 551.980469 C 442.691406 548.949219 442.464844 545.9375 442.109375 542.949219 C 441.871094 540.984375 440.089844 539.582031 438.128906 539.816406 C 436.167969 540.050781 434.761719 541.832031 435 543.796875 Z M 426.832031 514.394531 C 428.304688 517.71875 429.597656 521.089844 430.714844 524.503906 C 431.328125 526.382812 433.351562 527.410156 435.230469 526.796875 C 437.105469 526.179688 438.132812 524.15625 437.519531 522.277344 C 436.332031 518.636719 434.949219 515.046875 433.382812 511.5 C 432.582031 509.691406 430.46875 508.875 428.660156 509.671875 C 426.855469 510.472656 426.035156 512.589844 426.832031 514.394531 Z M 410.910156 488.121094 C 413.175781 491.015625 415.296875 493.960938 417.277344 496.964844 C 418.363281 498.613281 420.585938 499.066406 422.238281 497.980469 C 423.886719 496.894531 424.34375 494.667969 423.253906 493.019531 C 421.167969 489.859375 418.929688 486.75 416.546875 483.707031 C 415.328125 482.148438 413.074219 481.875 411.523438 483.097656 C 409.964844 484.3125 409.691406 486.570312 410.910156 488.121094 Z M 389.433594 465.875 C 392.242188 468.273438 394.941406 470.730469 397.527344 473.253906 C 398.941406 474.632812 401.210938 474.605469 402.589844 473.191406 C 403.96875 471.773438 403.941406 469.503906 402.523438 468.125 C 399.828125 465.496094 397.011719 462.929688 394.085938 460.425781 C 392.585938 459.144531 390.320312 459.320312 389.035156 460.824219 C 387.753906 462.328125 387.933594 464.589844 389.433594 465.875 Z M 364.203125 447.746094 C 367.371094 449.660156 370.457031 451.644531 373.457031 453.683594 C 375.085938 454.796875 377.316406 454.375 378.429688 452.742188 C 379.542969 451.109375 379.117188 448.878906 377.484375 447.765625 C 374.382812 445.652344 371.1875 443.601562 367.910156 441.617188 C 366.21875 440.59375 364.015625 441.140625 362.992188 442.828125 C 361.96875 444.519531 362.511719 446.722656 364.203125 447.746094 Z M 336.457031 433.570312 C 339.863281 435.027344 343.210938 436.550781 346.484375 438.140625 C 348.261719 439 350.40625 438.257812 351.265625 436.476562 C 352.125 434.695312 351.386719 432.554688 349.605469 431.691406 C 346.230469 430.054688 342.78125 428.484375 339.273438 426.984375 C 337.453125 426.207031 335.351562 427.054688 334.574219 428.871094 C 333.796875 430.6875 334.640625 432.792969 336.457031 433.570312 Z M 307.03125 423.140625 C 310.597656 424.164062 314.109375 425.25 317.574219 426.410156 C 319.445312 427.03125 321.476562 426.015625 322.101562 424.140625 C 322.726562 422.265625 321.710938 420.238281 319.835938 419.609375 C 316.28125 418.425781 312.671875 417.304688 309.007812 416.257812 C 307.109375 415.710938 305.125 416.8125 304.578125 418.707031 C 304.035156 420.609375 305.136719 422.59375 307.03125 423.140625 Z M 276.625 413.558594 C 280.109375 414.78125 283.671875 415.976562 287.308594 417.15625 C 289.183594 417.765625 291.207031 416.730469 291.8125 414.851562 C 292.425781 412.972656 291.390625 410.949219 289.507812 410.339844 C 285.933594 409.183594 282.425781 408 278.988281 406.800781 C 277.121094 406.148438 275.078125 407.128906 274.425781 408.996094 C 273.773438 410.859375 274.757812 412.910156 276.625 413.558594 Z M 246.886719 401.796875 C 250.261719 403.3125 253.726562 404.796875 257.28125 406.25 C 259.109375 406.996094 261.203125 406.117188 261.949219 404.289062 C 262.695312 402.460938 261.820312 400.367188 259.988281 399.621094 C 256.511719 398.199219 253.121094 396.746094 249.820312 395.261719 C 248.011719 394.453125 245.890625 395.261719 245.085938 397.0625 C 244.273438 398.863281 245.082031 400.984375 246.886719 401.796875 Z M 218.414062 386.945312 C 221.585938 388.882812 224.871094 390.765625 228.265625 392.613281 C 230 393.558594 232.175781 392.914062 233.121094 391.175781 C 234.0625 389.4375 233.417969 387.261719 231.679688 386.316406 C 228.394531 384.53125 225.214844 382.703125 222.140625 380.828125 C 220.457031 379.800781 218.25 380.332031 217.222656 382.019531 C 216.191406 383.707031 216.726562 385.914062 218.414062 386.945312 Z M 192.40625 367.78125 C 195.195312 370.296875 198.125 372.742188 201.191406 375.125 C 202.753906 376.332031 205.003906 376.046875 206.214844 374.488281 C 207.425781 372.925781 207.140625 370.675781 205.582031 369.460938 C 202.652344 367.191406 199.855469 364.855469 197.199219 362.460938 C 195.730469 361.136719 193.464844 361.257812 192.140625 362.726562 C 190.816406 364.191406 190.9375 366.460938 192.40625 367.78125 Z M 171.082031 343.242188 C 173.1875 346.433594 175.457031 349.535156 177.894531 352.546875 C 179.136719 354.082031 181.390625 354.320312 182.929688 353.078125 C 184.464844 351.835938 184.703125 349.578125 183.460938 348.039062 C 181.171875 345.210938 179.035156 342.296875 177.054688 339.296875 C 175.964844 337.648438 173.742188 337.191406 172.09375 338.28125 C 170.445312 339.371094 169.988281 341.59375 171.082031 343.242188 Z M 157.152344 313.773438 C 158.304688 317.488281 159.621094 321.101562 161.105469 324.617188 C 161.871094 326.4375 163.972656 327.289062 165.792969 326.523438 C 167.613281 325.753906 168.46875 323.652344 167.703125 321.835938 C 166.308594 318.53125 165.070312 315.140625 163.992188 311.652344 C 163.40625 309.765625 161.402344 308.710938 159.511719 309.292969 C 157.625 309.878906 156.566406 311.886719 157.152344 313.773438 Z M 151.558594 281.75 C 151.746094 285.507812 152.097656 289.324219 152.632812 293.199219 C 152.898438 295.160156 154.707031 296.527344 156.664062 296.261719 C 158.621094 295.992188 159.992188 294.183594 159.722656 292.226562 C 159.222656 288.5625 158.886719 284.953125 158.714844 281.398438 C 158.613281 279.425781 156.929688 277.898438 154.957031 277.996094 C 152.988281 278.097656 151.460938 279.773438 151.558594 281.75 Z M 154.328125 249.296875 C 153.476562 253 152.804688 256.792969 152.320312 260.667969 C 152.078125 262.628906 153.46875 264.421875 155.429688 264.667969 C 157.390625 264.910156 159.183594 263.519531 159.425781 261.554688 C 159.878906 257.925781 160.507812 254.371094 161.304688 250.898438 C 161.746094 248.96875 160.542969 247.046875 158.617188 246.605469 C 156.691406 246.164062 154.765625 247.367188 154.328125 249.296875 Z M 166.238281 218.910156 C 164.324219 222.234375 162.574219 225.671875 161 229.222656 C 160.199219 231.027344 161.015625 233.144531 162.820312 233.945312 C 164.628906 234.746094 166.746094 233.929688 167.546875 232.125 C 169.015625 228.804688 170.652344 225.59375 172.441406 222.488281 C 173.429688 220.777344 172.839844 218.582031 171.128906 217.597656 C 169.417969 216.609375 167.226562 217.199219 166.238281 218.910156 Z M 186.492188 193.347656 C 183.6875 195.988281 181.023438 198.769531 178.507812 201.683594 C 177.210938 203.175781 177.375 205.4375 178.871094 206.734375 C 180.359375 208.027344 182.625 207.863281 183.917969 206.367188 C 186.277344 203.640625 188.777344 201.035156 191.40625 198.554688 C 192.84375 197.195312 192.910156 194.929688 191.550781 193.492188 C 190.195312 192.054688 187.929688 191.988281 186.492188 193.347656 Z M 212.992188 174.441406 C 209.582031 176.242188 206.273438 178.195312 203.074219 180.289062 C 201.417969 181.367188 200.953125 183.589844 202.035156 185.242188 C 203.113281 186.898438 205.335938 187.363281 206.988281 186.28125 C 210.007812 184.308594 213.125 182.46875 216.335938 180.769531 C 218.085938 179.847656 218.753906 177.679688 217.832031 175.929688 C 216.90625 174.183594 214.738281 173.515625 212.992188 174.441406 Z M 243.410156 163 C 239.65625 163.898438 235.972656 164.957031 232.359375 166.164062 C 230.484375 166.789062 229.472656 168.820312 230.097656 170.695312 C 230.722656 172.570312 232.753906 173.585938 234.625 172.957031 C 238.046875 171.8125 241.535156 170.8125 245.082031 169.960938 C 247 169.5 248.1875 167.566406 247.726562 165.644531 C 247.261719 163.722656 245.328125 162.539062 243.410156 163 Z M 275.640625 159.222656 C 271.785156 159.21875 267.960938 159.375 264.175781 159.683594 C 262.203125 159.84375 260.734375 161.574219 260.894531 163.542969 C 261.054688 165.515625 262.785156 166.984375 264.753906 166.820312 C 268.347656 166.53125 271.976562 166.382812 275.636719 166.382812 C 277.609375 166.386719 279.21875 164.785156 279.21875 162.804688 C 279.21875 160.832031 277.617188 159.226562 275.640625 159.222656 Z M 275.640625 159.222656 " fill-opacity="1" fill-rule="evenodd"/></g></g><g clip-path="url(#525d542ede)"><g clip-path="url(#17246fa082)"><path fill="#000000" d="M 152.777344 538.625 C 152.164062 542.425781 151.753906 546.269531 151.5625 550.144531 C 151.464844 552.117188 152.988281 553.800781 154.960938 553.898438 C 156.933594 553.996094 158.617188 552.472656 158.714844 550.5 C 158.890625 546.890625 159.269531 543.3125 159.847656 539.769531 C 160.160156 537.816406 158.835938 535.976562 156.882812 535.660156 C 154.933594 535.34375 153.09375 536.675781 152.777344 538.625 Z M 162.722656 507.558594 C 161.027344 511.042969 159.519531 514.578125 158.1875 518.164062 C 157.503906 520.019531 158.453125 522.078125 160.304688 522.765625 C 162.15625 523.453125 164.21875 522.503906 164.90625 520.652344 C 166.152344 517.285156 167.574219 513.964844 169.164062 510.6875 C 170.027344 508.910156 169.285156 506.765625 167.507812 505.902344 C 165.730469 505.039062 163.589844 505.78125 162.722656 507.558594 Z M 180.445312 480.34375 C 177.972656 483.320312 175.644531 486.351562 173.460938 489.445312 C 172.324219 491.058594 172.710938 493.296875 174.324219 494.433594 C 175.9375 495.574219 178.171875 495.1875 179.3125 493.570312 C 181.386719 490.632812 183.601562 487.75 185.953125 484.921875 C 187.214844 483.402344 187.007812 481.144531 185.484375 479.878906 C 183.964844 478.617188 181.710938 478.824219 180.445312 480.34375 Z M 203.496094 457.671875 C 200.507812 460.105469 197.636719 462.597656 194.875 465.15625 C 193.425781 466.5 193.339844 468.769531 194.683594 470.21875 C 196.027344 471.667969 198.292969 471.753906 199.742188 470.410156 C 202.390625 467.957031 205.152344 465.5625 208.015625 463.226562 C 209.546875 461.976562 209.777344 459.71875 208.53125 458.1875 C 207.285156 456.65625 205.027344 456.421875 203.496094 457.671875 Z M 230.0625 439.433594 C 226.742188 441.351562 223.507812 443.339844 220.363281 445.386719 C 218.707031 446.46875 218.238281 448.683594 219.316406 450.34375 C 220.394531 452 222.613281 452.46875 224.269531 451.390625 C 227.308594 449.410156 230.433594 447.492188 233.640625 445.640625 C 235.351562 444.648438 235.9375 442.457031 234.949219 440.746094 C 233.960938 439.035156 231.769531 438.445312 230.0625 439.433594 Z M 258.953125 425.335938 C 255.417969 426.777344 251.945312 428.285156 248.542969 429.859375 C 246.75 430.6875 245.96875 432.820312 246.796875 434.613281 C 247.625 436.40625 249.753906 437.191406 251.546875 436.359375 C 254.851562 434.835938 258.222656 433.367188 261.65625 431.96875 C 263.484375 431.226562 264.367188 429.132812 263.621094 427.304688 C 262.878906 425.472656 260.785156 424.59375 258.953125 425.335938 Z M 289.308594 415.089844 C 288.097656 415.445312 286.882812 415.796875 285.660156 416.144531 C 283.253906 416.828125 280.867188 417.546875 278.503906 418.292969 C 276.621094 418.890625 275.570312 420.902344 276.167969 422.785156 C 276.761719 424.671875 278.777344 425.71875 280.660156 425.121094 C 282.960938 424.394531 285.277344 423.703125 287.621094 423.03125 C 288.859375 422.679688 290.089844 422.324219 291.3125 421.96875 C 293.207031 421.414062 294.296875 419.425781 293.746094 417.527344 C 293.191406 415.628906 291.203125 414.539062 289.308594 415.089844 Z M 319.230469 405.402344 C 315.808594 406.636719 312.3125 407.84375 308.746094 409.035156 C 306.867188 409.660156 305.851562 411.691406 306.480469 413.566406 C 307.105469 415.441406 309.132812 416.453125 311.007812 415.832031 C 314.632812 414.625 318.183594 413.390625 321.660156 412.136719 C 323.519531 411.46875 324.484375 409.414062 323.8125 407.550781 C 323.144531 405.695312 321.089844 404.730469 319.230469 405.402344 Z M 348.25 393.53125 C 344.96875 395.058594 341.601562 396.554688 338.140625 398.019531 C 336.320312 398.789062 335.46875 400.894531 336.242188 402.710938 C 337.007812 404.53125 339.109375 405.386719 340.929688 404.613281 C 344.46875 403.117188 347.914062 401.585938 351.273438 400.023438 C 353.0625 399.1875 353.839844 397.058594 353.007812 395.265625 C 352.171875 393.472656 350.039062 392.695312 348.25 393.53125 Z M 375.648438 378.632812 C 372.617188 380.574219 369.476562 382.460938 366.226562 384.304688 C 364.507812 385.28125 363.902344 387.46875 364.878906 389.183594 C 365.851562 390.902344 368.039062 391.507812 369.757812 390.535156 C 373.121094 388.628906 376.367188 386.675781 379.503906 384.671875 C 381.167969 383.605469 381.660156 381.390625 380.59375 379.726562 C 379.53125 378.058594 377.316406 377.570312 375.648438 378.632812 Z M 400.089844 359.664062 C 397.507812 362.140625 394.78125 364.546875 391.917969 366.894531 C 390.390625 368.148438 390.164062 370.40625 391.417969 371.933594 C 392.671875 373.460938 394.929688 373.683594 396.457031 372.433594 C 399.460938 369.972656 402.324219 367.441406 405.042969 364.839844 C 406.46875 363.472656 406.519531 361.207031 405.15625 359.777344 C 403.789062 358.347656 401.519531 358.300781 400.089844 359.664062 Z M 419.410156 335.847656 C 417.539062 338.925781 415.515625 341.910156 413.332031 344.816406 C 412.144531 346.394531 412.464844 348.644531 414.042969 349.832031 C 415.621094 351.019531 417.867188 350.699219 419.054688 349.121094 C 421.378906 346.027344 423.535156 342.84375 425.527344 339.570312 C 426.554688 337.878906 426.015625 335.675781 424.328125 334.652344 C 422.636719 333.625 420.4375 334.160156 419.410156 335.847656 Z M 431.425781 307.730469 C 430.46875 311.257812 429.355469 314.695312 428.089844 318.042969 C 427.390625 319.890625 428.324219 321.960938 430.171875 322.660156 C 432.019531 323.359375 434.089844 322.425781 434.785156 320.578125 C 436.132812 317.015625 437.316406 313.359375 438.335938 309.601562 C 438.851562 307.695312 437.722656 305.726562 435.820312 305.207031 C 433.910156 304.691406 431.941406 305.820312 431.425781 307.730469 Z M 435.695312 277.304688 C 435.644531 280.863281 435.429688 284.480469 435.042969 288.15625 C 434.839844 290.117188 436.265625 291.882812 438.230469 292.089844 C 440.199219 292.292969 441.960938 290.867188 442.164062 288.898438 C 442.574219 285.007812 442.796875 281.179688 442.855469 277.414062 C 442.886719 275.4375 441.304688 273.808594 439.332031 273.78125 C 437.355469 273.75 435.726562 275.332031 435.695312 277.304688 Z M 431.980469 246.941406 C 432.914062 250.382812 433.679688 253.910156 434.269531 257.515625 C 434.589844 259.464844 436.429688 260.789062 438.378906 260.472656 C 440.328125 260.152344 441.652344 258.3125 441.335938 256.359375 C 440.703125 252.507812 439.886719 248.746094 438.894531 245.070312 C 438.375 243.164062 436.40625 242.035156 434.503906 242.546875 C 432.59375 243.0625 431.464844 245.03125 431.980469 246.941406 Z M 419.730469 219 C 421.644531 222.035156 423.40625 225.183594 425.003906 228.433594 C 425.878906 230.207031 428.027344 230.9375 429.800781 230.066406 C 431.570312 229.191406 432.304688 227.042969 431.429688 225.269531 C 429.71875 221.792969 427.835938 218.425781 425.785156 215.179688 C 424.734375 213.507812 422.519531 213.007812 420.847656 214.0625 C 419.175781 215.117188 418.675781 217.328125 419.730469 219 Z M 399.851562 195.804688 C 402.570312 198.191406 405.167969 200.703125 407.628906 203.335938 C 408.980469 204.78125 411.246094 204.855469 412.691406 203.507812 C 414.132812 202.15625 414.207031 199.890625 412.859375 198.445312 C 410.234375 195.636719 407.464844 192.960938 404.566406 190.421875 C 403.082031 189.117188 400.816406 189.269531 399.511719 190.753906 C 398.210938 192.242188 398.363281 194.503906 399.851562 195.804688 Z M 399.851562 195.804688 " fill-opacity="1" fill-rule="evenodd"/></g></g><g clip-path="url(#8161b414fa)"><g clip-path="url(#b5aa4772f4)"><path fill="#000000" d="M 195.546875 668.273438 L 226.902344 637.371094 L 186.265625 627.925781 Z M 195.546875 668.273438 " fill-opacity="1" fill-rule="evenodd"/></g></g><g clip-path="url(#1890a373e7)"><g clip-path="url(#2863a4edee)"><path fill="#000000" d="M 392.183594 210.433594 L 411.96875 171.101562 L 370.453125 175.199219 Z M 392.183594 210.433594 " fill-opacity="1" fill-rule="evenodd"/></g></g><g clip-path="url(#6180e7697d)"><g clip-path="url(#cdd09323e5)"><path fill="#000000" d="M 328.300781 164.957031 C 328.316406 165.480469 328.300781 166.003906 328.261719 166.527344 C 328.222656 167.050781 328.160156 167.574219 328.070312 168.089844 C 327.980469 168.605469 327.863281 169.117188 327.726562 169.625 C 327.585938 170.128906 327.421875 170.628906 327.230469 171.117188 C 327.042969 171.609375 326.828125 172.085938 326.59375 172.554688 C 326.355469 173.023438 326.097656 173.480469 325.816406 173.925781 C 325.535156 174.367188 325.234375 174.796875 324.910156 175.210938 C 324.589844 175.625 324.246094 176.019531 323.882812 176.398438 C 323.523438 176.78125 323.144531 177.140625 322.746094 177.484375 C 322.347656 177.828125 321.933594 178.148438 321.503906 178.453125 C 321.078125 178.753906 320.632812 179.035156 320.175781 179.292969 C 319.71875 179.550781 319.25 179.785156 318.773438 180 C 318.292969 180.210938 317.804688 180.398438 317.304688 180.566406 C 316.804688 180.730469 316.300781 180.867188 315.789062 180.984375 C 315.277344 181.097656 314.761719 181.1875 314.238281 181.253906 C 313.71875 181.316406 313.195312 181.355469 312.671875 181.367188 C 312.148438 181.378906 311.625 181.367188 311.101562 181.328125 C 310.578125 181.289062 310.054688 181.226562 309.539062 181.136719 C 309.023438 181.046875 308.511719 180.929688 308.003906 180.789062 C 307.5 180.648438 307 180.484375 306.511719 180.296875 C 306.023438 180.105469 305.542969 179.894531 305.074219 179.65625 C 304.605469 179.421875 304.152344 179.164062 303.707031 178.882812 C 303.265625 178.601562 302.835938 178.300781 302.421875 177.976562 C 302.007812 177.652344 301.613281 177.308594 301.230469 176.949219 C 300.851562 176.585938 300.492188 176.207031 300.148438 175.808594 C 299.804688 175.410156 299.484375 174.996094 299.179688 174.570312 C 298.878906 174.140625 298.597656 173.695312 298.339844 173.238281 C 298.082031 172.78125 297.847656 172.3125 297.632812 171.835938 C 297.421875 171.355469 297.234375 170.863281 297.070312 170.367188 C 296.902344 169.867188 296.765625 169.363281 296.648438 168.851562 C 296.535156 168.339844 296.445312 167.820312 296.382812 167.300781 C 296.316406 166.78125 296.277344 166.257812 296.265625 165.730469 C 296.253906 165.207031 296.265625 164.683594 296.304688 164.160156 C 296.34375 163.636719 296.410156 163.117188 296.5 162.597656 C 296.589844 162.082031 296.703125 161.570312 296.84375 161.0625 C 296.984375 160.558594 297.148438 160.058594 297.335938 159.570312 C 297.527344 159.082031 297.738281 158.601562 297.976562 158.132812 C 298.210938 157.664062 298.46875 157.207031 298.75 156.765625 C 299.03125 156.320312 299.332031 155.894531 299.65625 155.480469 C 299.980469 155.066406 300.320312 154.667969 300.683594 154.289062 C 301.046875 153.910156 301.425781 153.546875 301.824219 153.203125 C 302.21875 152.863281 302.632812 152.539062 303.0625 152.238281 C 303.492188 151.933594 303.933594 151.65625 304.390625 151.394531 C 304.847656 151.136719 305.316406 150.902344 305.796875 150.6875 C 306.277344 150.476562 306.765625 150.289062 307.261719 150.125 C 307.761719 149.960938 308.265625 149.820312 308.777344 149.703125 C 309.292969 149.589844 309.808594 149.5 310.328125 149.4375 C 310.847656 149.371094 311.371094 149.332031 311.898438 149.320312 C 312.421875 149.308594 312.945312 149.320312 313.46875 149.359375 C 313.992188 149.398438 314.511719 149.464844 315.027344 149.554688 C 315.546875 149.644531 316.058594 149.757812 316.5625 149.898438 C 317.070312 150.039062 317.566406 150.203125 318.054688 150.394531 C 318.546875 150.582031 319.023438 150.792969 319.492188 151.03125 C 319.960938 151.265625 320.417969 151.523438 320.859375 151.804688 C 321.304688 152.085938 321.734375 152.390625 322.144531 152.710938 C 322.558594 153.035156 322.957031 153.378906 323.335938 153.738281 C 323.714844 154.101562 324.078125 154.480469 324.421875 154.878906 C 324.761719 155.277344 325.085938 155.691406 325.386719 156.121094 C 325.6875 156.550781 325.96875 156.992188 326.226562 157.449219 C 326.488281 157.90625 326.722656 158.375 326.933594 158.855469 C 327.148438 159.335938 327.335938 159.824219 327.5 160.320312 C 327.664062 160.820312 327.804688 161.324219 327.917969 161.839844 C 328.035156 162.351562 328.121094 162.867188 328.1875 163.386719 C 328.25 163.910156 328.289062 164.433594 328.300781 164.957031 Z M 328.300781 164.957031 " fill-opacity="1" fill-rule="nonzero"/></g></g><g clip-path="url(#1193c6dc11)"><g clip-path="url(#011b812a20)"><g clip-path="url(#08ff643ac3)"><path fill="#ffffff" d="M 314.179688 175.179688 L 311.671875 175.242188 L 311.269531 158.59375 L 306.277344 160.566406 L 306.222656 158.296875 L 313.3125 155.4375 L 313.703125 155.425781 Z M 314.179688 175.179688 " fill-opacity="1" fill-rule="nonzero"/></g></g></g><g clip-path="url(#49d6d916d6)"><g clip-path="url(#e96e875c2d)"><path fill="#000000" d="M 176.371094 589.824219 C 176.382812 590.347656 176.371094 590.871094 176.332031 591.394531 C 176.292969 591.917969 176.230469 592.4375 176.140625 592.957031 C 176.050781 593.472656 175.933594 593.984375 175.792969 594.492188 C 175.652344 594.996094 175.488281 595.496094 175.300781 595.984375 C 175.113281 596.472656 174.898438 596.953125 174.664062 597.421875 C 174.425781 597.890625 174.167969 598.347656 173.886719 598.789062 C 173.605469 599.234375 173.304688 599.664062 172.980469 600.074219 C 172.660156 600.488281 172.316406 600.886719 171.953125 601.265625 C 171.59375 601.648438 171.210938 602.007812 170.816406 602.351562 C 170.417969 602.695312 170.003906 603.015625 169.574219 603.316406 C 169.144531 603.621094 168.703125 603.898438 168.246094 604.160156 C 167.789062 604.417969 167.320312 604.652344 166.839844 604.867188 C 166.363281 605.078125 165.871094 605.265625 165.375 605.429688 C 164.875 605.59375 164.371094 605.734375 163.859375 605.851562 C 163.347656 605.964844 162.832031 606.054688 162.308594 606.117188 C 161.789062 606.183594 161.265625 606.222656 160.742188 606.234375 C 160.214844 606.246094 159.691406 606.234375 159.167969 606.195312 C 158.644531 606.15625 158.125 606.089844 157.609375 606 C 157.089844 605.910156 156.582031 605.796875 156.074219 605.65625 C 155.570312 605.515625 155.070312 605.351562 154.582031 605.164062 C 154.09375 604.972656 153.613281 604.761719 153.144531 604.523438 C 152.675781 604.289062 152.21875 604.03125 151.777344 603.75 C 151.332031 603.46875 150.90625 603.164062 150.492188 602.84375 C 150.078125 602.519531 149.679688 602.175781 149.300781 601.816406 C 148.921875 601.453125 148.558594 601.074219 148.21875 600.675781 C 147.875 600.277344 147.550781 599.863281 147.25 599.433594 C 146.949219 599.003906 146.667969 598.5625 146.410156 598.105469 C 146.152344 597.648438 145.914062 597.179688 145.703125 596.699219 C 145.492188 596.21875 145.300781 595.730469 145.136719 595.234375 C 144.972656 594.734375 144.832031 594.230469 144.71875 593.714844 C 144.605469 593.203125 144.515625 592.6875 144.449219 592.167969 C 144.386719 591.644531 144.347656 591.121094 144.335938 590.597656 C 144.324219 590.074219 144.335938 589.550781 144.375 589.027344 C 144.414062 588.503906 144.476562 587.980469 144.566406 587.464844 C 144.65625 586.949219 144.773438 586.4375 144.914062 585.929688 C 145.054688 585.425781 145.21875 584.925781 145.40625 584.4375 C 145.597656 583.949219 145.808594 583.46875 146.042969 583 C 146.28125 582.53125 146.539062 582.074219 146.820312 581.632812 C 147.101562 581.1875 147.402344 580.757812 147.726562 580.34375 C 148.050781 579.929688 148.390625 579.535156 148.753906 579.15625 C 149.117188 578.773438 149.496094 578.414062 149.890625 578.070312 C 150.289062 577.726562 150.703125 577.40625 151.132812 577.101562 C 151.5625 576.800781 152.003906 576.519531 152.460938 576.261719 C 152.917969 576.003906 153.386719 575.769531 153.867188 575.554688 C 154.347656 575.34375 154.835938 575.15625 155.332031 574.988281 C 155.832031 574.824219 156.335938 574.6875 156.847656 574.570312 C 157.359375 574.457031 157.878906 574.367188 158.398438 574.304688 C 158.917969 574.238281 159.441406 574.199219 159.964844 574.1875 C 160.492188 574.175781 161.015625 574.1875 161.539062 574.226562 C 162.0625 574.265625 162.582031 574.328125 163.097656 574.417969 C 163.617188 574.511719 164.128906 574.625 164.632812 574.765625 C 165.136719 574.90625 165.636719 575.070312 166.125 575.257812 C 166.613281 575.449219 167.09375 575.660156 167.5625 575.898438 C 168.03125 576.132812 168.488281 576.390625 168.929688 576.671875 C 169.375 576.953125 169.800781 577.253906 170.214844 577.578125 C 170.628906 577.902344 171.027344 578.246094 171.40625 578.605469 C 171.785156 578.96875 172.148438 579.347656 172.488281 579.746094 C 172.832031 580.144531 173.15625 580.558594 173.457031 580.988281 C 173.757812 581.414062 174.039062 581.859375 174.296875 582.316406 C 174.554688 582.773438 174.792969 583.242188 175.003906 583.722656 C 175.214844 584.199219 175.40625 584.691406 175.570312 585.1875 C 175.734375 585.6875 175.875 586.191406 175.988281 586.703125 C 176.101562 587.214844 176.191406 587.734375 176.257812 588.253906 C 176.320312 588.773438 176.359375 589.296875 176.371094 589.824219 Z M 176.371094 589.824219 " fill-opacity="1" fill-rule="nonzero"/></g></g><g clip-path="url(#e78084b27c)"><g clip-path="url(#ef93ccd4e7)"><g clip-path="url(#b5d9eac994)"><path fill="#ffffff" d="M 166.921875 599.933594 L 154.042969 600.246094 L 154 598.449219 L 160.621094 590.722656 C 161.601562 589.558594 162.273438 588.609375 162.636719 587.886719 C 163.003906 587.160156 163.175781 586.414062 163.160156 585.652344 C 163.132812 584.625 162.804688 583.789062 162.164062 583.148438 C 161.527344 582.507812 160.691406 582.199219 159.660156 582.222656 C 158.417969 582.253906 157.460938 582.628906 156.789062 583.351562 C 156.117188 584.074219 155.796875 585.066406 155.828125 586.328125 L 153.332031 586.386719 C 153.285156 584.578125 153.832031 583.101562 154.972656 581.957031 C 156.109375 580.8125 157.65625 580.21875 159.609375 580.171875 C 161.4375 580.125 162.890625 580.570312 163.976562 581.503906 C 165.0625 582.4375 165.625 583.699219 165.660156 585.292969 C 165.707031 587.226562 164.53125 589.5625 162.128906 592.296875 L 157.003906 598.132812 L 166.871094 597.894531 Z M 166.921875 599.933594 " fill-opacity="1" fill-rule="nonzero"/></g></g></g><g clip-path="url(#0932cfb679)"><path fill="#000000" d="M 503.695312 277.207031 C 503.695312 222.480469 485.054688 179.304688 447.910156 147.621094 C 410.960938 116.105469 360.867188 100.238281 297.5625 100.238281 C 234.828125 100.238281 185.019531 116.101562 148.066406 147.621094 C 110.921875 179.304688 92.28125 222.480469 92.28125 277.207031 C 92.28125 307.824219 99.957031 334.828125 115.261719 358.226562 C 129.433594 379.894531 148.566406 397.597656 172.675781 411.316406 C 143.820312 425.992188 121.308594 445.492188 105.113281 469.792969 C 87.820312 495.738281 79.15625 525.570312 79.15625 559.304688 C 79.15625 615.171875 98.925781 659.40625 138.363281 692.085938 C 177.558594 724.570312 231.027344 740.921875 298.832031 740.921875 C 366.371094 740.921875 419.351562 724.636719 457.84375 692.304688 C 496.554688 659.753906 515.972656 615.453125 515.972656 559.304688 C 515.972656 524.410156 507.148438 494.210938 489.558594 468.691406 C 473.132812 444.851562 451.292969 425.734375 424.019531 411.355469 C 447.910156 397.628906 466.875 379.90625 480.929688 358.210938 C 496.089844 334.820312 503.695312 307.820312 503.695312 277.207031 Z M 497.082031 277.207031 C 497.082031 306.457031 489.871094 332.265625 475.386719 354.617188 C 460.863281 377.027344 440.867188 395.003906 415.417969 408.558594 C 414.324219 409.144531 413.648438 410.292969 413.667969 411.535156 C 413.6875 412.773438 414.402344 413.898438 415.519531 414.445312 C 444.339844 428.582031 467.214844 447.90625 484.117188 472.441406 C 500.972656 496.902344 509.363281 525.863281 509.363281 559.304688 C 509.363281 613.285156 490.8125 655.9375 453.589844 687.230469 C 416.148438 718.695312 364.539062 734.328125 298.832031 734.328125 C 232.835938 734.328125 180.726562 718.628906 142.578125 687.011719 C 104.664062 655.589844 85.761719 613.003906 85.761719 559.304688 C 85.761719 526.960938 94.03125 498.339844 110.613281 473.457031 C 127.234375 448.523438 150.792969 428.875 181.261719 414.46875 C 182.390625 413.933594 183.125 412.800781 183.152344 411.550781 C 183.179688 410.296875 182.496094 409.136719 181.390625 408.554688 C 155.660156 394.996094 135.457031 377.019531 120.792969 354.605469 C 106.175781 332.253906 98.890625 306.453125 98.890625 277.207031 C 98.890625 224.628906 116.667969 183.09375 152.351562 152.652344 C 188.230469 122.050781 236.65625 106.851562 297.5625 106.851562 C 359.035156 106.851562 407.742188 122.046875 443.621094 152.652344 C 479.308594 183.09375 497.082031 224.628906 497.082031 277.207031 Z M 372.851562 547.867188 C 372.851562 521.441406 365.894531 501.15625 352.242188 486.917969 C 338.507812 472.585938 320.4375 465.355469 297.988281 465.355469 C 275.546875 465.355469 257.410156 472.574219 243.53125 486.902344 C 229.734375 501.144531 222.699219 521.4375 222.699219 547.867188 C 222.699219 573.40625 229.773438 593.550781 243.707031 608.363281 C 257.738281 623.28125 276.09375 630.804688 298.832031 630.804688 C 321.019531 630.804688 338.894531 623.347656 352.503906 608.558594 C 365.992188 593.898438 372.851562 573.6875 372.851562 547.867188 Z M 366.242188 547.867188 C 366.242188 571.757812 360.117188 590.515625 347.636719 604.089844 C 335.273438 617.535156 318.992188 624.191406 298.832031 624.191406 C 278.097656 624.191406 261.3125 617.449219 248.523438 603.851562 C 235.644531 590.148438 229.308594 571.453125 229.308594 547.867188 C 229.308594 523.46875 235.539062 504.652344 248.277344 491.503906 C 260.933594 478.4375 277.519531 471.964844 297.988281 471.964844 C 318.445312 471.964844 334.957031 478.429688 347.472656 491.488281 C 360.078125 504.640625 366.242188 523.464844 366.242188 547.867188 Z M 297.5625 210.367188 C 277.214844 210.367188 261.777344 217.140625 251.15625 230.457031 C 240.730469 243.527344 235.402344 261.628906 235.402344 284.832031 C 235.402344 307.6875 240.761719 326.121094 251.308594 340.183594 C 262.078125 354.550781 277.886719 361.839844 298.832031 361.839844 C 319.527344 361.839844 334.996094 354.53125 345.34375 340.128906 C 355.4375 326.078125 360.574219 307.664062 360.574219 284.832031 C 360.574219 261.925781 355.253906 243.898438 344.832031 230.6875 C 334.214844 217.222656 318.496094 210.367188 297.5625 210.367188 Z M 297.5625 216.976562 C 316.152344 216.976562 330.214844 222.828125 339.644531 234.78125 C 349.261719 246.980469 353.964844 263.6875 353.964844 284.832031 C 353.964844 306.050781 349.359375 323.214844 339.976562 336.273438 C 330.847656 348.980469 317.097656 355.226562 298.832031 355.226562 C 280.257812 355.226562 266.148438 348.960938 256.59375 336.21875 C 246.8125 323.175781 242.011719 306.027344 242.011719 284.832031 C 242.011719 263.417969 246.703125 246.644531 256.320312 234.582031 C 265.742188 222.769531 279.519531 216.976562 297.5625 216.976562 Z M 297.5625 216.976562 " fill-opacity="1" fill-rule="evenodd"/></g></svg>