<svg xmlns="http://www.w3.org/2000/svg" xmlns:xlink="http://www.w3.org/1999/xlink" width="2400" zoomAndPan="magnify" viewBox="0 0 1800 1199.999942" height="1600" preserveAspectRatio="xMidYMid meet" version="1.0"><defs><clipPath id="260c09881c"><path d="M 849.246094 809.234375 L 920.214844 809.234375 L 920.214844 880.203125 L 849.246094 880.203125 Z M 849.246094 809.234375 " clip-rule="nonzero"/></clipPath><clipPath id="96121c6f50"><path d="M 884.730469 809.234375 C 865.132812 809.234375 849.246094 825.121094 849.246094 844.71875 C 849.246094 864.316406 865.132812 880.203125 884.730469 880.203125 C 904.328125 880.203125 920.214844 864.316406 920.214844 844.71875 C 920.214844 825.121094 904.328125 809.234375 884.730469 809.234375 Z M 884.730469 809.234375 " clip-rule="nonzero"/></clipPath><clipPath id="72f68a3904"><path d="M 935.484375 669.628906 L 1006.453125 669.628906 L 1006.453125 740.597656 L 935.484375 740.597656 Z M 935.484375 669.628906 " clip-rule="nonzero"/></clipPath><clipPath id="4c89572b86"><path d="M 970.96875 669.628906 C 951.371094 669.628906 935.484375 685.515625 935.484375 705.113281 C 935.484375 724.710938 951.371094 740.597656 970.96875 740.597656 C 990.566406 740.597656 1006.453125 724.710938 1006.453125 705.113281 C 1006.453125 685.515625 990.566406 669.628906 970.96875 669.628906 Z M 970.96875 669.628906 " clip-rule="nonzero"/></clipPath><clipPath id="95503b0cee"><path d="M 1017.582031 542.527344 L 1088.550781 542.527344 L 1088.550781 613.496094 L 1017.582031 613.496094 Z M 1017.582031 542.527344 " clip-rule="nonzero"/></clipPath><clipPath id="f5e670fd3b"><path d="M 1053.066406 542.527344 C 1033.472656 542.527344 1017.582031 558.414062 1017.582031 578.011719 C 1017.582031 597.609375 1033.472656 613.496094 1053.066406 613.496094 C 1072.664062 613.496094 1088.550781 597.609375 1088.550781 578.011719 C 1088.550781 558.414062 1072.664062 542.527344 1053.066406 542.527344 Z M 1053.066406 542.527344 " clip-rule="nonzero"/></clipPath><clipPath id="07f2b3bc55"><path d="M 792.53125 209.792969 L 863.5 209.792969 L 863.5 280.761719 L 792.53125 280.761719 Z M 792.53125 209.792969 " clip-rule="nonzero"/></clipPath><clipPath id="3d7b66c0eb"><path d="M 828.015625 209.792969 C 808.417969 209.792969 792.53125 225.679688 792.53125 245.277344 C 792.53125 264.875 808.417969 280.761719 828.015625 280.761719 C 847.613281 280.761719 863.5 264.875 863.5 245.277344 C 863.5 225.679688 847.613281 209.792969 828.015625 209.792969 Z M 828.015625 209.792969 " clip-rule="nonzero"/></clipPath><clipPath id="f9fe33cb69"><path d="M 670.375 338.492188 L 741.34375 338.492188 L 741.34375 409.460938 L 670.375 409.460938 Z M 670.375 338.492188 " clip-rule="nonzero"/></clipPath><clipPath id="c77f44567a"><path d="M 705.859375 338.492188 C 686.261719 338.492188 670.375 354.378906 670.375 373.976562 C 670.375 393.574219 686.261719 409.460938 705.859375 409.460938 C 725.457031 409.460938 741.34375 393.574219 741.34375 373.976562 C 741.34375 354.378906 725.457031 338.492188 705.859375 338.492188 Z M 705.859375 338.492188 " clip-rule="nonzero"/></clipPath><clipPath id="002999a2aa"><path d="M 849.246094 591.15625 L 920.214844 591.15625 L 920.214844 662.125 L 849.246094 662.125 Z M 849.246094 591.15625 " clip-rule="nonzero"/></clipPath><clipPath id="667cf22c29"><path d="M 884.730469 591.15625 C 865.132812 591.15625 849.246094 607.046875 849.246094 626.640625 C 849.246094 646.238281 865.132812 662.125 884.730469 662.125 C 904.328125 662.125 920.214844 646.238281 920.214844 626.640625 C 920.214844 607.046875 904.328125 591.15625 884.730469 591.15625 Z M 884.730469 591.15625 " clip-rule="nonzero"/></clipPath><clipPath id="186430f8a2"><path d="M 1066.15625 373.976562 L 1137.125 373.976562 L 1137.125 444.945312 L 1066.15625 444.945312 Z M 1066.15625 373.976562 " clip-rule="nonzero"/></clipPath><clipPath id="1ccf1b0138"><path d="M 1101.640625 373.976562 C 1082.042969 373.976562 1066.15625 389.863281 1066.15625 409.460938 C 1066.15625 429.058594 1082.042969 444.945312 1101.640625 444.945312 C 1121.238281 444.945312 1137.125 429.058594 1137.125 409.460938 C 1137.125 389.863281 1121.238281 373.976562 1101.640625 373.976562 Z M 1101.640625 373.976562 " clip-rule="nonzero"/></clipPath><clipPath id="f718435d83"><path d="M 982.097656 227.828125 L 1053.066406 227.828125 L 1053.066406 298.796875 L 982.097656 298.796875 Z M 982.097656 227.828125 " clip-rule="nonzero"/></clipPath><clipPath id="f64962788b"><path d="M 1017.582031 227.828125 C 997.984375 227.828125 982.097656 243.714844 982.097656 263.3125 C 982.097656 282.90625 997.984375 298.796875 1017.582031 298.796875 C 1037.179688 298.796875 1053.066406 282.90625 1053.066406 263.3125 C 1053.066406 243.714844 1037.179688 227.828125 1017.582031 227.828125 Z M 1017.582031 227.828125 " clip-rule="nonzero"/></clipPath><clipPath id="4b724f7615"><path d="M 683.460938 507.039062 L 754.429688 507.039062 L 754.429688 578.007812 L 683.460938 578.007812 Z M 683.460938 507.039062 " clip-rule="nonzero"/></clipPath><clipPath id="084f573971"><path d="M 718.945312 507.039062 C 699.347656 507.039062 683.460938 522.929688 683.460938 542.523438 C 683.460938 562.121094 699.347656 578.007812 718.945312 578.007812 C 738.542969 578.007812 754.429688 562.121094 754.429688 542.523438 C 754.429688 522.929688 738.542969 507.039062 718.945312 507.039062 Z M 718.945312 507.039062 " clip-rule="nonzero"/></clipPath></defs><path stroke-linecap="butt" transform="matrix(0.75, 0, 0, 0.75, 569.100568, -100.026765)" fill="none" stroke-linejoin="miter" d="M 284.579476 1331.697264 L 493.621162 1017.160777 C 453.246158 1031.488904 401.147195 1034.744112 337.329481 1026.926403 C 257.449266 1016.942027 193.194051 983.082649 144.569047 925.337852 C 95.944043 867.598264 71.631541 799.004508 71.631541 719.556584 C 71.631541 624.04095 106.688835 545.139902 176.803425 482.837813 C 246.918015 420.535724 335.157606 389.389888 441.522199 389.389888 C 548.324292 389.389888 636.673258 420.535724 706.569097 482.837813 C 776.464937 545.139902 811.412857 624.04095 811.412857 719.556584 C 811.412857 783.80659 789.27223 850.014929 744.990976 918.176394 L 471.480535 1331.697264 Z M 441.522199 513.770107 C 386.824277 513.770107 340.371148 533.197192 302.162811 572.056571 C 263.959683 610.910741 244.855514 660.077412 244.855514 719.556584 C 244.855514 770.348255 264.178433 814.197218 302.813853 851.098262 C 341.454481 888.004516 387.688861 906.452434 441.522199 906.452434 C 495.793037 906.452434 542.136791 888.004516 580.558669 851.098262 C 618.980548 814.197218 638.188883 770.348255 638.188883 719.556584 C 638.188883 659.64512 619.199298 610.369074 581.209711 571.728446 C 543.220124 533.087817 496.662829 513.770107 441.522199 513.770107 Z M 441.522199 513.770107 " stroke="#e45828" stroke-width="21.672462" stroke-opacity="1" stroke-miterlimit="4"/><g clip-path="url(#260c09881c)"><g clip-path="url(#96121c6f50)"><path stroke-linecap="butt" transform="matrix(0.75, 0, 0, 0.75, 849.245775, 809.234739)" fill="none" stroke-linejoin="miter" d="M 47.312929 -0.000485918 C 21.182718 -0.000485918 0.000424932 21.181808 0.000424932 47.312018 C 0.000424932 73.442229 21.182718 94.624523 47.312929 94.624523 C 73.44314 94.624523 94.625433 73.442229 94.625433 47.312018 C 94.625433 21.181808 73.44314 -0.000485918 47.312929 -0.000485918 Z M 47.312929 -0.000485918 " stroke="#e45828" stroke-width="20" stroke-opacity="1" stroke-miterlimit="4"/></g></g><g clip-path="url(#72f68a3904)"><g clip-path="url(#4c89572b86)"><path stroke-linecap="butt" transform="matrix(0.75, 0, 0, 0.75, 935.484631, 669.627448)" fill="none" stroke-linejoin="miter" d="M 47.312162 0.00194439 C 21.181952 0.00194439 -0.000341758 21.184238 -0.000341758 47.314449 C -0.000341758 73.444659 21.181952 94.626953 47.312162 94.626953 C 73.442373 94.626953 94.624667 73.444659 94.624667 47.314449 C 94.624667 21.184238 73.442373 0.00194439 47.312162 0.00194439 Z M 47.312162 0.00194439 " stroke="#e45828" stroke-width="20" stroke-opacity="1" stroke-miterlimit="4"/></g></g><g clip-path="url(#95503b0cee)"><g clip-path="url(#f5e670fd3b)"><path stroke-linecap="butt" transform="matrix(0.75, 0, 0, 0.75, 1017.583896, 542.525547)" fill="none" stroke-linejoin="miter" d="M 47.310018 0.0023952 C 21.185016 0.0023952 -0.00248628 21.184689 -0.00248628 47.314899 C -0.00248628 73.439902 21.185016 94.627404 47.310018 94.627404 C 73.440229 94.627404 94.622522 73.439902 94.622522 47.314899 C 94.622522 21.184689 73.440229 0.0023952 47.310018 0.0023952 Z M 47.310018 0.0023952 " stroke="#e45828" stroke-width="20" stroke-opacity="1" stroke-miterlimit="4"/></g></g><g clip-path="url(#07f2b3bc55)"><g clip-path="url(#3d7b66c0eb)"><path stroke-linecap="butt" transform="matrix(0.75, 0, 0, 0.75, 792.530372, 209.792613)" fill="none" stroke-linejoin="miter" d="M 47.313675 0.000474082 C 21.183464 0.000474082 0.00117048 21.182768 0.00117048 47.312978 C 0.00117048 73.443189 21.183464 94.625483 47.313675 94.625483 C 73.443885 94.625483 94.626179 73.443189 94.626179 47.312978 C 94.626179 21.182768 73.443885 0.000474082 47.313675 0.000474082 Z M 47.313675 0.000474082 " stroke="#e45828" stroke-width="20" stroke-opacity="1" stroke-miterlimit="4"/></g></g><g clip-path="url(#f9fe33cb69)"><g clip-path="url(#c77f44567a)"><path stroke-linecap="butt" transform="matrix(0.75, 0, 0, 0.75, 670.373959, 338.493055)" fill="none" stroke-linejoin="miter" d="M 47.313892 -0.001157 C 21.183681 -0.001157 0.00138788 21.181137 0.00138788 47.311347 C 0.00138788 73.441558 21.183681 94.623851 47.313892 94.623851 C 73.444103 94.623851 94.626396 73.441558 94.626396 47.311347 C 94.626396 21.181137 73.444103 -0.001157 47.313892 -0.001157 Z M 47.313892 -0.001157 " stroke="#e45828" stroke-width="20" stroke-opacity="1" stroke-miterlimit="4"/></g></g><g clip-path="url(#002999a2aa)"><g clip-path="url(#667cf22c29)"><path stroke-linecap="butt" transform="matrix(0.75, 0, 0, 0.75, 849.245775, 591.158183)" fill="none" stroke-linejoin="miter" d="M 47.312929 -0.00257732 C 21.182718 -0.00257732 0.000424932 21.184925 0.000424932 47.309927 C 0.000424932 73.440138 21.182718 94.622431 47.312929 94.622431 C 73.44314 94.622431 94.625433 73.440138 94.625433 47.309927 C 94.625433 21.184925 73.44314 -0.00257732 47.312929 -0.00257732 Z M 47.312929 -0.00257732 " stroke="#e45828" stroke-width="20" stroke-opacity="1" stroke-miterlimit="4"/></g></g><g clip-path="url(#186430f8a2)"><g clip-path="url(#1ccf1b0138)"><path stroke-linecap="butt" transform="matrix(0.75, 0, 0, 0.75, 1066.15658, 373.977719)" fill="none" stroke-linejoin="miter" d="M 47.312065 -0.00154236 C 21.181854 -0.00154236 -0.000439468 21.180751 -0.000439468 47.310962 C -0.000439468 73.441173 21.181854 94.623466 47.312065 94.623466 C 73.442275 94.623466 94.624569 73.441173 94.624569 47.310962 C 94.624569 21.180751 73.442275 -0.00154236 47.312065 -0.00154236 Z M 47.312065 -0.00154236 " stroke="#e45828" stroke-width="20" stroke-opacity="1" stroke-miterlimit="4"/></g></g><g clip-path="url(#f718435d83)"><g clip-path="url(#f64962788b)"><path stroke-linecap="butt" transform="matrix(0.75, 0, 0, 0.75, 982.099227, 227.826346)" fill="none" stroke-linejoin="miter" d="M 47.31041 0.00237204 C 21.180199 0.00237204 -0.00209452 21.184666 -0.00209452 47.314876 C -0.00209452 73.439879 21.180199 94.627381 47.31041 94.627381 C 73.44062 94.627381 94.622914 73.439879 94.622914 47.314876 C 94.622914 21.184666 73.44062 0.00237204 47.31041 0.00237204 Z M 47.31041 0.00237204 " stroke="#e45828" stroke-width="20" stroke-opacity="1" stroke-miterlimit="4"/></g></g><g clip-path="url(#4b724f7615)"><g clip-path="url(#084f573971)"><path stroke-linecap="butt" transform="matrix(0.75, 0, 0, 0.75, 683.462142, 507.040903)" fill="none" stroke-linejoin="miter" d="M 47.310898 -0.00245338 C 21.180688 -0.00245338 -0.00160589 21.185049 -0.00160589 47.310051 C -0.00160589 73.440262 21.180688 94.622555 47.310898 94.622555 C 73.441109 94.622555 94.623403 73.440262 94.623403 47.310051 C 94.623403 21.185049 73.441109 -0.00245338 47.310898 -0.00245338 Z M 47.310898 -0.00245338 " stroke="#e45828" stroke-width="20" stroke-opacity="1" stroke-miterlimit="4"/></g></g></svg>