<svg xmlns="http://www.w3.org/2000/svg" xmlns:xlink="http://www.w3.org/1999/xlink" width="800" zoomAndPan="magnify" viewBox="0 0 600 899.99999" height="1200" preserveAspectRatio="xMidYMid meet" version="1.0"><defs><clipPath id="317a7864eb"><path d="M 455.089844 290.472656 L 515.089844 290.472656 L 515.089844 350.472656 L 455.089844 350.472656 Z M 455.089844 290.472656 " clip-rule="nonzero"/></clipPath><clipPath id="1db05bb30a"><path d="M 485.089844 290.472656 C 468.519531 290.472656 455.089844 303.902344 455.089844 320.472656 C 455.089844 337.042969 468.519531 350.472656 485.089844 350.472656 C 501.65625 350.472656 515.089844 337.042969 515.089844 320.472656 C 515.089844 303.902344 501.65625 290.472656 485.089844 290.472656 Z M 485.089844 290.472656 " clip-rule="nonzero"/></clipPath><clipPath id="b4039be251"><path d="M 255.484375 638.074219 L 315.484375 638.074219 L 315.484375 698.074219 L 255.484375 698.074219 Z M 255.484375 638.074219 " clip-rule="nonzero"/></clipPath><clipPath id="8f891de086"><path d="M 285.484375 638.074219 C 268.917969 638.074219 255.484375 651.503906 255.484375 668.074219 C 255.484375 684.640625 268.917969 698.074219 285.484375 698.074219 C 302.054688 698.074219 315.484375 684.640625 315.484375 668.074219 C 315.484375 651.503906 302.054688 638.074219 285.484375 638.074219 Z M 285.484375 638.074219 " clip-rule="nonzero"/></clipPath><clipPath id="3e24e1d96f"><path d="M 395.089844 420 L 455.089844 420 L 455.089844 480 L 395.089844 480 Z M 395.089844 420 " clip-rule="nonzero"/></clipPath><clipPath id="04a7606573"><path d="M 425.089844 420 C 408.519531 420 395.089844 433.429688 395.089844 450 C 395.089844 466.570312 408.519531 480 425.089844 480 C 441.65625 480 455.089844 466.570312 455.089844 450 C 455.089844 433.429688 441.65625 420 425.089844 420 Z M 425.089844 420 " clip-rule="nonzero"/></clipPath><clipPath id="e8761061fc"><path d="M 325.570312 531.597656 L 385.570312 531.597656 L 385.570312 591.597656 L 325.570312 591.597656 Z M 325.570312 531.597656 " clip-rule="nonzero"/></clipPath><clipPath id="88a9ee4d8f"><path d="M 355.570312 531.597656 C 339.003906 531.597656 325.570312 545.027344 325.570312 561.597656 C 325.570312 578.167969 339.003906 591.597656 355.570312 591.597656 C 372.140625 591.597656 385.570312 578.167969 385.570312 561.597656 C 385.570312 545.027344 372.140625 531.597656 355.570312 531.597656 Z M 355.570312 531.597656 " clip-rule="nonzero"/></clipPath><clipPath id="ca0bd3b70c"><path d="M 409.132812 160.722656 L 469.132812 160.722656 L 469.132812 220.722656 L 409.132812 220.722656 Z M 409.132812 160.722656 " clip-rule="nonzero"/></clipPath><clipPath id="2382327707"><path d="M 439.132812 160.722656 C 422.566406 160.722656 409.132812 174.152344 409.132812 190.722656 C 409.132812 207.292969 422.566406 220.722656 439.132812 220.722656 C 455.703125 220.722656 469.132812 207.292969 469.132812 190.722656 C 469.132812 174.152344 455.703125 160.722656 439.132812 160.722656 Z M 439.132812 160.722656 " clip-rule="nonzero"/></clipPath><clipPath id="c40fe05fc0"><path d="M 285.484375 100.722656 L 345.484375 100.722656 L 345.484375 160.722656 L 285.484375 160.722656 Z M 285.484375 100.722656 " clip-rule="nonzero"/></clipPath><clipPath id="997dd72bcc"><path d="M 315.484375 100.722656 C 298.917969 100.722656 285.484375 114.152344 285.484375 130.722656 C 285.484375 147.292969 298.917969 160.722656 315.484375 160.722656 C 332.054688 160.722656 345.484375 147.292969 345.484375 130.722656 C 345.484375 114.152344 332.054688 100.722656 315.484375 100.722656 Z M 315.484375 100.722656 " clip-rule="nonzero"/></clipPath><clipPath id="64cf55726b"><path d="M 130.140625 160.722656 L 190.140625 160.722656 L 190.140625 220.722656 L 130.140625 220.722656 Z M 130.140625 160.722656 " clip-rule="nonzero"/></clipPath><clipPath id="99eea04a7c"><path d="M 160.140625 160.722656 C 143.570312 160.722656 130.140625 174.152344 130.140625 190.722656 C 130.140625 207.292969 143.570312 220.722656 160.140625 220.722656 C 176.710938 220.722656 190.140625 207.292969 190.140625 190.722656 C 190.140625 174.152344 176.710938 160.722656 160.140625 160.722656 Z M 160.140625 160.722656 " clip-rule="nonzero"/></clipPath><clipPath id="7ced26ad73"><path d="M 89.707031 290.472656 L 149.707031 290.472656 L 149.707031 350.472656 L 89.707031 350.472656 Z M 89.707031 290.472656 " clip-rule="nonzero"/></clipPath><clipPath id="2bc1974930"><path d="M 119.707031 290.472656 C 103.136719 290.472656 89.707031 303.902344 89.707031 320.472656 C 89.707031 337.042969 103.136719 350.472656 119.707031 350.472656 C 136.273438 350.472656 149.707031 337.042969 149.707031 320.472656 C 149.707031 303.902344 136.273438 290.472656 119.707031 290.472656 Z M 119.707031 290.472656 " clip-rule="nonzero"/></clipPath><clipPath id="c62b078541"><path d="M 160.140625 420 L 220.140625 420 L 220.140625 480 L 160.140625 480 Z M 160.140625 420 " clip-rule="nonzero"/></clipPath><clipPath id="8c626e5901"><path d="M 190.140625 420 C 173.570312 420 160.140625 433.429688 160.140625 450 C 160.140625 466.570312 173.570312 480 190.140625 480 C 206.710938 480 220.140625 466.570312 220.140625 450 C 220.140625 433.429688 206.710938 420 190.140625 420 Z M 190.140625 420 " clip-rule="nonzero"/></clipPath></defs><path stroke-linecap="butt" transform="matrix(0.656476, 0, 0, 0.656476, 10.36318, -162.820577)" fill="none" stroke-linejoin="miter" d="M 284.580608 1331.696023 L 493.62163 1017.161611 C 453.248645 1031.490005 401.147561 1034.744835 337.330278 1026.926102 C 257.447106 1016.941449 193.195449 983.078125 144.569358 925.336128 C 95.943266 867.600082 71.63617 799.004685 71.63617 719.555886 C 71.63617 624.041199 106.689561 545.139831 176.802292 482.839882 C 246.920974 420.539933 335.158408 389.389959 441.526497 389.389959 C 548.323009 389.389959 636.6735 420.539933 706.572019 482.839882 C 776.464588 545.139831 811.416823 624.041199 811.416823 719.555886 C 811.416823 783.807543 789.275647 850.016858 744.993296 918.177882 L 471.480455 1331.696023 Z M 441.526497 513.769694 C 386.825118 513.769694 340.370897 533.19752 302.163832 572.053171 C 263.956767 610.908822 244.856209 660.076394 244.856209 719.555886 C 244.856209 770.347898 264.176929 814.195875 302.812418 851.099818 C 341.453857 888.003761 387.687916 906.455733 441.526497 906.455733 C 495.793501 906.455733 542.134666 888.003761 580.555943 851.099818 C 618.98317 814.195875 638.190834 770.347898 638.190834 719.555886 C 638.190834 659.64202 619.197382 610.367342 581.210479 571.725903 C 543.223576 533.090414 496.662249 513.769694 441.526497 513.769694 Z M 441.526497 513.769694 " stroke="#e45828" stroke-width="21.672462" stroke-opacity="1" stroke-miterlimit="4"/><g clip-path="url(#317a7864eb)"><g clip-path="url(#1db05bb30a)"><path stroke-linecap="butt" transform="matrix(0.75, 0, 0, 0.75, 455.088939, 290.472778)" fill="none" stroke-linejoin="miter" d="M 40.001208 -0.000161798 C 17.907457 -0.000161798 0.00120582 17.906089 0.00120582 39.99984 C 0.00120582 62.093591 17.907457 79.999842 40.001208 79.999842 C 62.089751 79.999842 80.00121 62.093591 80.00121 39.99984 C 80.00121 17.906089 62.089751 -0.000161798 40.001208 -0.000161798 Z M 40.001208 -0.000161798 " stroke="#e45828" stroke-width="10" stroke-opacity="1" stroke-miterlimit="4"/></g></g><g clip-path="url(#b4039be251)"><g clip-path="url(#8f891de086)"><path stroke-linecap="butt" transform="matrix(0.75, 0, 0, 0.75, 255.485323, 638.073491)" fill="none" stroke-linejoin="miter" d="M 39.998739 0.000970857 C 17.910196 0.000970857 -0.00126351 17.907222 -0.00126351 40.000973 C -0.00126351 62.089516 17.910196 80.000975 39.998739 80.000975 C 62.09249 80.000975 79.998741 62.089516 79.998741 40.000973 C 79.998741 17.907222 62.09249 0.000970857 39.998739 0.000970857 Z M 39.998739 0.000970857 " stroke="#e45828" stroke-width="10" stroke-opacity="1" stroke-miterlimit="4"/></g></g><g clip-path="url(#3e24e1d96f)"><g clip-path="url(#04a7606573)"><path stroke-linecap="butt" transform="matrix(0.75, 0, 0, 0.75, 395.088938, 419.999998)" fill="none" stroke-linejoin="miter" d="M 40.00121 0.00000264 C 17.907459 0.00000264 0.00120804 17.906254 0.00120804 40.000005 C 0.00120804 62.093756 17.907459 80.000007 40.00121 80.000007 C 62.089753 80.000007 80.001212 62.093756 80.001212 40.000005 C 80.001212 17.906254 62.089753 0.00000264 40.00121 0.00000264 Z M 40.00121 0.00000264 " stroke="#e45828" stroke-width="10" stroke-opacity="1" stroke-miterlimit="4"/></g></g><g clip-path="url(#e8761061fc)"><g clip-path="url(#88a9ee4d8f)"><path stroke-linecap="butt" transform="matrix(0.75, 0, 0, 0.75, 325.570592, 531.59776)" fill="none" stroke-linejoin="miter" d="M 39.99963 -0.000138573 C 17.911087 -0.000138573 -0.000372349 17.906112 -0.000372349 39.999864 C -0.000372349 62.093615 17.911087 79.999866 39.99963 79.999866 C 62.093381 79.999866 79.999632 62.093615 79.999632 39.999864 C 79.999632 17.906112 62.093381 -0.000138573 39.99963 -0.000138573 Z M 39.99963 -0.000138573 " stroke="#e45828" stroke-width="10" stroke-opacity="1" stroke-miterlimit="4"/></g></g><g clip-path="url(#ca0bd3b70c)"><g clip-path="url(#2382327707)"><path stroke-linecap="butt" transform="matrix(0.75, 0, 0, 0.75, 409.133838, 160.722799)" fill="none" stroke-linejoin="miter" d="M 39.998635 -0.000190052 C 17.910092 -0.000190052 -0.00136705 17.906061 -0.00136705 39.999812 C -0.00136705 62.093563 17.910092 79.999814 39.998635 79.999814 C 62.092386 79.999814 79.998637 62.093563 79.998637 39.999812 C 79.998637 17.906061 62.092386 -0.000190052 39.998635 -0.000190052 Z M 39.998635 -0.000190052 " stroke="#e45828" stroke-width="10" stroke-opacity="1" stroke-miterlimit="4"/></g></g><g clip-path="url(#c40fe05fc0)"><g clip-path="url(#997dd72bcc)"><path stroke-linecap="butt" transform="matrix(0.75, 0, 0, 0.75, 285.485321, 100.722795)" fill="none" stroke-linejoin="miter" d="M 39.998741 -0.000184638 C 17.910198 -0.000184638 -0.00126141 17.906066 -0.00126141 39.999817 C -0.00126141 62.093569 17.910198 79.99982 39.998741 79.99982 C 62.092492 79.99982 79.998743 62.093569 79.998743 39.999817 C 79.998743 17.906066 62.092492 -0.000184638 39.998741 -0.000184638 Z M 39.998741 -0.000184638 " stroke="#e45828" stroke-width="10" stroke-opacity="1" stroke-miterlimit="4"/></g></g><g clip-path="url(#64cf55726b)"><g clip-path="url(#99eea04a7c)"><path stroke-linecap="butt" transform="matrix(0.75, 0, 0, 0.75, 130.14045, 160.722799)" fill="none" stroke-linejoin="miter" d="M 40.000235 -0.000190052 C 17.906484 -0.000190052 0.000233348 17.906061 0.000233348 39.999812 C 0.000233348 62.093563 17.906484 79.999814 40.000235 79.999814 C 62.093987 79.999814 80.000238 62.093563 80.000238 39.999812 C 80.000238 17.906061 62.093987 -0.000190052 40.000235 -0.000190052 Z M 40.000235 -0.000190052 " stroke="#e45828" stroke-width="10" stroke-opacity="1" stroke-miterlimit="4"/></g></g><g clip-path="url(#7ced26ad73)"><g clip-path="url(#2bc1974930)"><path stroke-linecap="butt" transform="matrix(0.75, 0, 0, 0.75, 89.706642, 290.472778)" fill="none" stroke-linejoin="miter" d="M 40.000521 -0.000161798 C 17.90677 -0.000161798 0.000519393 17.906089 0.000519393 39.99984 C 0.000519393 62.093591 17.90677 79.999842 40.000521 79.999842 C 62.089064 79.999842 80.000524 62.093591 80.000524 39.99984 C 80.000524 17.906089 62.089064 -0.000161798 40.000521 -0.000161798 Z M 40.000521 -0.000161798 " stroke="#e45828" stroke-width="10" stroke-opacity="1" stroke-miterlimit="4"/></g></g><g clip-path="url(#c62b078541)"><g clip-path="url(#8c626e5901)"><path stroke-linecap="butt" transform="matrix(0.75, 0, 0, 0.75, 160.140448, 419.999998)" fill="none" stroke-linejoin="miter" d="M 40.000238 0.00000264 C 17.906486 0.00000264 0.000235441 17.906254 0.000235441 40.000005 C 0.000235441 62.093756 17.906486 80.000007 40.000238 80.000007 C 62.093989 80.000007 80.00024 62.093756 80.00024 40.000005 C 80.00024 17.906254 62.093989 0.00000264 40.000238 0.00000264 Z M 40.000238 0.00000264 " stroke="#e45828" stroke-width="10" stroke-opacity="1" stroke-miterlimit="4"/></g></g></svg>