<svg xmlns="http://www.w3.org/2000/svg" xmlns:xlink="http://www.w3.org/1999/xlink" width="794" zoomAndPan="magnify" viewBox="0 0 594.95996 842.24997" height="1123" preserveAspectRatio="xMidYMid meet" version="1.0"><defs><clipPath id="e8ce518d14"><path d="M 131 158 L 446 158 L 446 482 L 131 482 Z M 131 158 " clip-rule="nonzero"/></clipPath><clipPath id="8b9950dfd8"><path d="M 369.476562 492.519531 C 337.96875 520.871094 302.703125 535.050781 263.679688 535.050781 C 206.441406 535.050781 161.058594 515.664062 127.527344 476.894531 C 93.996094 438.128906 77.230469 386.339844 77.230469 321.535156 C 77.230469 281.03125 86.625 243.417969 105.414062 208.703125 C 124.203125 173.984375 150.582031 146.5 184.546875 126.246094 C 218.511719 105.996094 256.019531 95.867188 297.066406 95.867188 C 338.691406 95.867188 376.34375 106.359375 410.015625 127.332031 C 443.695312 148.308594 469.925781 177.960938 488.71875 216.296875 C 507.507812 254.628906 517.191406 298.824219 517.769531 348.875 L 517.769531 404.859375 C 517.769531 474.582031 504.109375 535.050781 476.792969 586.246094 C 449.476562 637.457031 410.523438 676.804688 359.9375 704.289062 C 309.351562 731.769531 250.382812 745.523438 183.03125 745.523438 L 173.921875 745.523438 L 173.921875 628.347656 L 201.675781 627.925781 C 302.269531 622.996094 358.203125 577.871094 369.476562 492.519531 Z M 303.136719 429.59375 C 334.933594 429.59375 357.769531 415.851562 371.644531 388.367188 L 371.644531 327.609375 C 371.644531 287.105469 364.851562 257.164062 351.265625 237.777344 C 337.679688 218.394531 319.324219 208.703125 296.195312 208.703125 C 275.675781 208.703125 258.476562 219.695312 244.597656 241.683594 C 230.726562 263.671875 223.789062 290.289062 223.789062 321.535156 C 223.789062 354.515625 230.871094 380.773438 245.035156 400.300781 C 259.195312 419.828125 278.566406 429.59375 303.136719 429.59375 Z M 303.136719 429.59375 " clip-rule="nonzero"/></clipPath><clipPath id="c6a56512d9"><path d="M 222 443 L 471 443 L 471 688 L 222 688 Z M 222 443 " clip-rule="nonzero"/></clipPath><clipPath id="9359c93cdc"><path d="M 369.476562 492.519531 C 337.96875 520.871094 302.703125 535.050781 263.679688 535.050781 C 206.441406 535.050781 161.058594 515.664062 127.527344 476.894531 C 93.996094 438.128906 77.230469 386.339844 77.230469 321.535156 C 77.230469 281.03125 86.625 243.417969 105.414062 208.703125 C 124.203125 173.984375 150.582031 146.5 184.546875 126.246094 C 218.511719 105.996094 256.019531 95.867188 297.066406 95.867188 C 338.691406 95.867188 376.34375 106.359375 410.015625 127.332031 C 443.695312 148.308594 469.925781 177.960938 488.71875 216.296875 C 507.507812 254.628906 517.191406 298.824219 517.769531 348.875 L 517.769531 404.859375 C 517.769531 474.582031 504.109375 535.050781 476.792969 586.246094 C 449.476562 637.457031 410.523438 676.804688 359.9375 704.289062 C 309.351562 731.769531 250.382812 745.523438 183.03125 745.523438 L 173.921875 745.523438 L 173.921875 628.347656 L 201.675781 627.925781 C 302.269531 622.996094 358.203125 577.871094 369.476562 492.519531 Z M 303.136719 429.59375 C 334.933594 429.59375 357.769531 415.851562 371.644531 388.367188 L 371.644531 327.609375 C 371.644531 287.105469 364.851562 257.164062 351.265625 237.777344 C 337.679688 218.394531 319.324219 208.703125 296.195312 208.703125 C 275.675781 208.703125 258.476562 219.695312 244.597656 241.683594 C 230.726562 263.671875 223.789062 290.289062 223.789062 321.535156 C 223.789062 354.515625 230.871094 380.773438 245.035156 400.300781 C 259.195312 419.828125 278.566406 429.59375 303.136719 429.59375 Z M 303.136719 429.59375 " clip-rule="nonzero"/></clipPath><clipPath id="2cae386af8"><path d="M 422 271 L 466 271 L 466 313 L 422 313 Z M 422 271 " clip-rule="nonzero"/></clipPath><clipPath id="c41a04f92e"><path d="M 369.476562 492.519531 C 337.96875 520.871094 302.703125 535.050781 263.679688 535.050781 C 206.441406 535.050781 161.058594 515.664062 127.527344 476.894531 C 93.996094 438.128906 77.230469 386.339844 77.230469 321.535156 C 77.230469 281.03125 86.625 243.417969 105.414062 208.703125 C 124.203125 173.984375 150.582031 146.5 184.546875 126.246094 C 218.511719 105.996094 256.019531 95.867188 297.066406 95.867188 C 338.691406 95.867188 376.34375 106.359375 410.015625 127.332031 C 443.695312 148.308594 469.925781 177.960938 488.71875 216.296875 C 507.507812 254.628906 517.191406 298.824219 517.769531 348.875 L 517.769531 404.859375 C 517.769531 474.582031 504.109375 535.050781 476.792969 586.246094 C 449.476562 637.457031 410.523438 676.804688 359.9375 704.289062 C 309.351562 731.769531 250.382812 745.523438 183.03125 745.523438 L 173.921875 745.523438 L 173.921875 628.347656 L 201.675781 627.925781 C 302.269531 622.996094 358.203125 577.871094 369.476562 492.519531 Z M 303.136719 429.59375 C 334.933594 429.59375 357.769531 415.851562 371.644531 388.367188 L 371.644531 327.609375 C 371.644531 287.105469 364.851562 257.164062 351.265625 237.777344 C 337.679688 218.394531 319.324219 208.703125 296.195312 208.703125 C 275.675781 208.703125 258.476562 219.695312 244.597656 241.683594 C 230.726562 263.671875 223.789062 290.289062 223.789062 321.535156 C 223.789062 354.515625 230.871094 380.773438 245.035156 400.300781 C 259.195312 419.828125 278.566406 429.59375 303.136719 429.59375 Z M 303.136719 429.59375 " clip-rule="nonzero"/></clipPath><clipPath id="e3b59d0679"><path d="M 192 660 L 231 660 L 231 706 L 192 706 Z M 192 660 " clip-rule="nonzero"/></clipPath><clipPath id="fc28d5b26d"><path d="M 369.476562 492.519531 C 337.96875 520.871094 302.703125 535.050781 263.679688 535.050781 C 206.441406 535.050781 161.058594 515.664062 127.527344 476.894531 C 93.996094 438.128906 77.230469 386.339844 77.230469 321.535156 C 77.230469 281.03125 86.625 243.417969 105.414062 208.703125 C 124.203125 173.984375 150.582031 146.5 184.546875 126.246094 C 218.511719 105.996094 256.019531 95.867188 297.066406 95.867188 C 338.691406 95.867188 376.34375 106.359375 410.015625 127.332031 C 443.695312 148.308594 469.925781 177.960938 488.71875 216.296875 C 507.507812 254.628906 517.191406 298.824219 517.769531 348.875 L 517.769531 404.859375 C 517.769531 474.582031 504.109375 535.050781 476.792969 586.246094 C 449.476562 637.457031 410.523438 676.804688 359.9375 704.289062 C 309.351562 731.769531 250.382812 745.523438 183.03125 745.523438 L 173.921875 745.523438 L 173.921875 628.347656 L 201.675781 627.925781 C 302.269531 622.996094 358.203125 577.871094 369.476562 492.519531 Z M 303.136719 429.59375 C 334.933594 429.59375 357.769531 415.851562 371.644531 388.367188 L 371.644531 327.609375 C 371.644531 287.105469 364.851562 257.164062 351.265625 237.777344 C 337.679688 218.394531 319.324219 208.703125 296.195312 208.703125 C 275.675781 208.703125 258.476562 219.695312 244.597656 241.683594 C 230.726562 263.671875 223.789062 290.289062 223.789062 321.535156 C 223.789062 354.515625 230.871094 380.773438 245.035156 400.300781 C 259.195312 419.828125 278.566406 429.59375 303.136719 429.59375 Z M 303.136719 429.59375 " clip-rule="nonzero"/></clipPath><clipPath id="d79ca00fc0"><path d="M 400 206 L 434 206 L 434 240 L 400 240 Z M 400 206 " clip-rule="nonzero"/></clipPath><clipPath id="985e80870c"><path d="M 369.476562 492.519531 C 337.96875 520.871094 302.703125 535.050781 263.679688 535.050781 C 206.441406 535.050781 161.058594 515.664062 127.527344 476.894531 C 93.996094 438.128906 77.230469 386.339844 77.230469 321.535156 C 77.230469 281.03125 86.625 243.417969 105.414062 208.703125 C 124.203125 173.984375 150.582031 146.5 184.546875 126.246094 C 218.511719 105.996094 256.019531 95.867188 297.066406 95.867188 C 338.691406 95.867188 376.34375 106.359375 410.015625 127.332031 C 443.695312 148.308594 469.925781 177.960938 488.71875 216.296875 C 507.507812 254.628906 517.191406 298.824219 517.769531 348.875 L 517.769531 404.859375 C 517.769531 474.582031 504.109375 535.050781 476.792969 586.246094 C 449.476562 637.457031 410.523438 676.804688 359.9375 704.289062 C 309.351562 731.769531 250.382812 745.523438 183.03125 745.523438 L 173.921875 745.523438 L 173.921875 628.347656 L 201.675781 627.925781 C 302.269531 622.996094 358.203125 577.871094 369.476562 492.519531 Z M 303.136719 429.59375 C 334.933594 429.59375 357.769531 415.851562 371.644531 388.367188 L 371.644531 327.609375 C 371.644531 287.105469 364.851562 257.164062 351.265625 237.777344 C 337.679688 218.394531 319.324219 208.703125 296.195312 208.703125 C 275.675781 208.703125 258.476562 219.695312 244.597656 241.683594 C 230.726562 263.671875 223.789062 290.289062 223.789062 321.535156 C 223.789062 354.515625 230.871094 380.773438 245.035156 400.300781 C 259.195312 419.828125 278.566406 429.59375 303.136719 429.59375 Z M 303.136719 429.59375 " clip-rule="nonzero"/></clipPath><clipPath id="0dd8dae530"><path d="M 410 212 L 420 212 L 420 234 L 410 234 Z M 410 212 " clip-rule="nonzero"/></clipPath><clipPath id="1c8217a58f"><path d="M 369.476562 492.519531 C 337.96875 520.871094 302.703125 535.050781 263.679688 535.050781 C 206.441406 535.050781 161.058594 515.664062 127.527344 476.894531 C 93.996094 438.128906 77.230469 386.339844 77.230469 321.535156 C 77.230469 281.03125 86.625 243.417969 105.414062 208.703125 C 124.203125 173.984375 150.582031 146.5 184.546875 126.246094 C 218.511719 105.996094 256.019531 95.867188 297.066406 95.867188 C 338.691406 95.867188 376.34375 106.359375 410.015625 127.332031 C 443.695312 148.308594 469.925781 177.960938 488.71875 216.296875 C 507.507812 254.628906 517.191406 298.824219 517.769531 348.875 L 517.769531 404.859375 C 517.769531 474.582031 504.109375 535.050781 476.792969 586.246094 C 449.476562 637.457031 410.523438 676.804688 359.9375 704.289062 C 309.351562 731.769531 250.382812 745.523438 183.03125 745.523438 L 173.921875 745.523438 L 173.921875 628.347656 L 201.675781 627.925781 C 302.269531 622.996094 358.203125 577.871094 369.476562 492.519531 Z M 303.136719 429.59375 C 334.933594 429.59375 357.769531 415.851562 371.644531 388.367188 L 371.644531 327.609375 C 371.644531 287.105469 364.851562 257.164062 351.265625 237.777344 C 337.679688 218.394531 319.324219 208.703125 296.195312 208.703125 C 275.675781 208.703125 258.476562 219.695312 244.597656 241.683594 C 230.726562 263.671875 223.789062 290.289062 223.789062 321.535156 C 223.789062 354.515625 230.871094 380.773438 245.035156 400.300781 C 259.195312 419.828125 278.566406 429.59375 303.136719 429.59375 Z M 303.136719 429.59375 " clip-rule="nonzero"/></clipPath><clipPath id="612f623993"><path d="M 400.730469 223.273438 C 400.707031 222.195312 400.785156 221.125 400.96875 220.0625 C 401.15625 219 401.441406 217.964844 401.828125 216.960938 C 402.21875 215.953125 402.699219 214.996094 403.277344 214.085938 C 403.851562 213.175781 404.511719 212.328125 405.253906 211.546875 C 406 210.769531 406.8125 210.066406 407.691406 209.445312 C 408.574219 208.824219 409.507812 208.296875 410.492188 207.859375 C 411.476562 207.425781 412.496094 207.089844 413.546875 206.851562 C 414.597656 206.617188 415.660156 206.484375 416.738281 206.460938 C 417.816406 206.433594 418.882812 206.511719 419.945312 206.699219 C 421.007812 206.882812 422.039062 207.167969 423.046875 207.558594 C 424.050781 207.945312 425.007812 208.429688 425.917969 209.003906 C 426.828125 209.582031 427.671875 210.242188 428.453125 210.988281 C 429.230469 211.730469 429.933594 212.542969 430.550781 213.425781 C 431.171875 214.308594 431.699219 215.242188 432.136719 216.226562 C 432.574219 217.210938 432.910156 218.230469 433.144531 219.285156 C 433.378906 220.335938 433.511719 221.402344 433.539062 222.480469 C 433.5625 223.558594 433.484375 224.625 433.300781 225.6875 C 433.113281 226.75 432.828125 227.785156 432.441406 228.792969 C 432.050781 229.796875 431.570312 230.753906 430.992188 231.667969 C 430.417969 232.578125 429.757812 233.421875 429.011719 234.203125 C 428.269531 234.984375 427.457031 235.683594 426.578125 236.304688 C 425.695312 236.925781 424.761719 237.453125 423.777344 237.890625 C 422.792969 238.328125 421.773438 238.664062 420.722656 238.898438 C 419.671875 239.136719 418.609375 239.265625 417.53125 239.292969 C 416.453125 239.320312 415.386719 239.238281 414.324219 239.054688 C 413.261719 238.871094 412.230469 238.582031 411.222656 238.195312 C 410.21875 237.804688 409.261719 237.324219 408.351562 236.746094 C 407.441406 236.167969 406.597656 235.507812 405.816406 234.765625 C 405.035156 234.019531 404.335938 233.207031 403.71875 232.328125 C 403.097656 231.445312 402.570312 230.511719 402.132812 229.523438 C 401.695312 228.539062 401.359375 227.519531 401.125 226.46875 C 400.890625 225.414062 400.757812 224.351562 400.730469 223.273438 Z M 400.730469 223.273438 " clip-rule="nonzero"/></clipPath><clipPath id="87ed3455c3"><path d="M 449 393 L 483 393 L 483 427 L 449 427 Z M 449 393 " clip-rule="nonzero"/></clipPath><clipPath id="37f93f39bb"><path d="M 369.476562 492.519531 C 337.96875 520.871094 302.703125 535.050781 263.679688 535.050781 C 206.441406 535.050781 161.058594 515.664062 127.527344 476.894531 C 93.996094 438.128906 77.230469 386.339844 77.230469 321.535156 C 77.230469 281.03125 86.625 243.417969 105.414062 208.703125 C 124.203125 173.984375 150.582031 146.5 184.546875 126.246094 C 218.511719 105.996094 256.019531 95.867188 297.066406 95.867188 C 338.691406 95.867188 376.34375 106.359375 410.015625 127.332031 C 443.695312 148.308594 469.925781 177.960938 488.71875 216.296875 C 507.507812 254.628906 517.191406 298.824219 517.769531 348.875 L 517.769531 404.859375 C 517.769531 474.582031 504.109375 535.050781 476.792969 586.246094 C 449.476562 637.457031 410.523438 676.804688 359.9375 704.289062 C 309.351562 731.769531 250.382812 745.523438 183.03125 745.523438 L 173.921875 745.523438 L 173.921875 628.347656 L 201.675781 627.925781 C 302.269531 622.996094 358.203125 577.871094 369.476562 492.519531 Z M 303.136719 429.59375 C 334.933594 429.59375 357.769531 415.851562 371.644531 388.367188 L 371.644531 327.609375 C 371.644531 287.105469 364.851562 257.164062 351.265625 237.777344 C 337.679688 218.394531 319.324219 208.703125 296.195312 208.703125 C 275.675781 208.703125 258.476562 219.695312 244.597656 241.683594 C 230.726562 263.671875 223.789062 290.289062 223.789062 321.535156 C 223.789062 354.515625 230.871094 380.773438 245.035156 400.300781 C 259.195312 419.828125 278.566406 429.59375 303.136719 429.59375 Z M 303.136719 429.59375 " clip-rule="nonzero"/></clipPath><clipPath id="0ef9e818e7"><path d="M 458 399 L 473 399 L 473 421 L 458 421 Z M 458 399 " clip-rule="nonzero"/></clipPath><clipPath id="f65e315901"><path d="M 369.476562 492.519531 C 337.96875 520.871094 302.703125 535.050781 263.679688 535.050781 C 206.441406 535.050781 161.058594 515.664062 127.527344 476.894531 C 93.996094 438.128906 77.230469 386.339844 77.230469 321.535156 C 77.230469 281.03125 86.625 243.417969 105.414062 208.703125 C 124.203125 173.984375 150.582031 146.5 184.546875 126.246094 C 218.511719 105.996094 256.019531 95.867188 297.066406 95.867188 C 338.691406 95.867188 376.34375 106.359375 410.015625 127.332031 C 443.695312 148.308594 469.925781 177.960938 488.71875 216.296875 C 507.507812 254.628906 517.191406 298.824219 517.769531 348.875 L 517.769531 404.859375 C 517.769531 474.582031 504.109375 535.050781 476.792969 586.246094 C 449.476562 637.457031 410.523438 676.804688 359.9375 704.289062 C 309.351562 731.769531 250.382812 745.523438 183.03125 745.523438 L 173.921875 745.523438 L 173.921875 628.347656 L 201.675781 627.925781 C 302.269531 622.996094 358.203125 577.871094 369.476562 492.519531 Z M 303.136719 429.59375 C 334.933594 429.59375 357.769531 415.851562 371.644531 388.367188 L 371.644531 327.609375 C 371.644531 287.105469 364.851562 257.164062 351.265625 237.777344 C 337.679688 218.394531 319.324219 208.703125 296.195312 208.703125 C 275.675781 208.703125 258.476562 219.695312 244.597656 241.683594 C 230.726562 263.671875 223.789062 290.289062 223.789062 321.535156 C 223.789062 354.515625 230.871094 380.773438 245.035156 400.300781 C 259.195312 419.828125 278.566406 429.59375 303.136719 429.59375 Z M 303.136719 429.59375 " clip-rule="nonzero"/></clipPath><clipPath id="1483d877b6"><path d="M 449.363281 410.496094 C 449.339844 409.417969 449.417969 408.347656 449.601562 407.285156 C 449.785156 406.222656 450.074219 405.1875 450.460938 404.183594 C 450.847656 403.175781 451.332031 402.21875 451.910156 401.308594 C 452.484375 400.398438 453.144531 399.550781 453.886719 398.769531 C 454.632812 397.988281 455.441406 397.289062 456.324219 396.667969 C 457.207031 396.046875 458.136719 395.519531 459.125 395.082031 C 460.109375 394.644531 461.125 394.308594 462.179688 394.074219 C 463.230469 393.839844 464.292969 393.707031 465.371094 393.679688 C 466.445312 393.65625 467.515625 393.734375 468.578125 393.917969 C 469.640625 394.105469 470.671875 394.390625 471.675781 394.777344 C 472.683594 395.167969 473.640625 395.648438 474.550781 396.226562 C 475.460938 396.804688 476.304688 397.464844 477.085938 398.207031 C 477.863281 398.953125 478.566406 399.765625 479.183594 400.648438 C 479.804688 401.527344 480.332031 402.460938 480.769531 403.449219 C 481.207031 404.433594 481.542969 405.453125 481.777344 406.503906 C 482.011719 407.558594 482.144531 408.621094 482.167969 409.699219 C 482.195312 410.777344 482.117188 411.847656 481.933594 412.910156 C 481.746094 413.972656 481.460938 415.007812 481.074219 416.011719 C 480.683594 417.019531 480.203125 417.976562 479.625 418.886719 C 479.050781 419.800781 478.390625 420.644531 477.644531 421.425781 C 476.902344 422.207031 476.089844 422.90625 475.210938 423.527344 C 474.328125 424.148438 473.394531 424.675781 472.410156 425.113281 C 471.425781 425.550781 470.40625 425.886719 469.355469 426.121094 C 468.304688 426.355469 467.242188 426.488281 466.164062 426.515625 C 465.085938 426.539062 464.015625 426.460938 462.957031 426.277344 C 461.894531 426.089844 460.863281 425.804688 459.855469 425.417969 C 458.851562 425.027344 457.894531 424.546875 456.984375 423.96875 C 456.074219 423.390625 455.230469 422.730469 454.449219 421.988281 C 453.667969 421.242188 452.96875 420.429688 452.347656 419.546875 C 451.730469 418.667969 451.199219 417.734375 450.765625 416.746094 C 450.328125 415.761719 449.992188 414.742188 449.757812 413.691406 C 449.519531 412.636719 449.390625 411.574219 449.363281 410.496094 Z M 449.363281 410.496094 " clip-rule="nonzero"/></clipPath><clipPath id="0547bb89c4"><path d="M 73.832031 92.476562 L 521.183594 92.476562 L 521.183594 748.890625 L 73.832031 748.890625 Z M 73.832031 92.476562 " clip-rule="nonzero"/></clipPath></defs><path fill="#ffffff" d="M 369.476562 492.519531 C 337.96875 520.871094 302.703125 535.050781 263.679688 535.050781 C 206.441406 535.050781 161.058594 515.664062 127.527344 476.894531 C 93.996094 438.128906 77.230469 386.339844 77.230469 321.535156 C 77.230469 281.03125 86.625 243.417969 105.414062 208.703125 C 124.203125 173.984375 150.582031 146.5 184.546875 126.246094 C 218.511719 105.996094 256.019531 95.867188 297.066406 95.867188 C 338.691406 95.867188 376.34375 106.359375 410.015625 127.332031 C 443.695312 148.308594 469.925781 177.960938 488.71875 216.296875 C 507.507812 254.628906 517.191406 298.824219 517.769531 348.875 L 517.769531 404.859375 C 517.769531 474.582031 504.109375 535.050781 476.792969 586.246094 C 449.476562 637.457031 410.523438 676.804688 359.9375 704.289062 C 309.351562 731.769531 250.382812 745.523438 183.03125 745.523438 L 173.921875 745.523438 L 173.921875 628.347656 L 201.675781 627.925781 C 302.269531 622.996094 358.203125 577.871094 369.476562 492.519531 Z M 303.136719 429.59375 C 334.933594 429.59375 357.769531 415.851562 371.644531 388.367188 L 371.644531 327.609375 C 371.644531 287.105469 364.851562 257.164062 351.265625 237.777344 C 337.679688 218.394531 319.324219 208.703125 296.195312 208.703125 C 275.675781 208.703125 258.476562 219.695312 244.597656 241.683594 C 230.726562 263.671875 223.789062 290.289062 223.789062 321.535156 C 223.789062 354.515625 230.871094 380.773438 245.035156 400.300781 C 259.195312 419.828125 278.566406 429.59375 303.136719 429.59375 Z M 303.136719 429.59375 " fill-opacity="1" fill-rule="nonzero"/><g clip-path="url(#e8ce518d14)"><g clip-path="url(#8b9950dfd8)"><path fill="#000000" d="M 273.265625 481.933594 C 277.101562 482.042969 281.007812 482 284.996094 481.8125 C 287.015625 481.714844 288.582031 479.996094 288.484375 477.972656 C 288.386719 475.953125 286.667969 474.386719 284.648438 474.484375 C 280.847656 474.664062 277.121094 474.699219 273.46875 474.601562 C 271.445312 474.546875 269.757812 476.144531 269.703125 478.167969 C 269.648438 480.191406 271.246094 481.878906 273.265625 481.933594 Z M 240.371094 477.140625 C 244.105469 478.164062 247.9375 479.039062 251.859375 479.75 C 253.847656 480.109375 255.757812 478.785156 256.117188 476.789062 C 256.476562 474.796875 255.152344 472.886719 253.160156 472.527344 C 249.453125 471.855469 245.839844 471.035156 242.308594 470.066406 C 240.359375 469.53125 238.339844 470.683594 237.804688 472.636719 C 237.269531 474.585938 238.417969 476.605469 240.371094 477.140625 Z M 306.289062 479.457031 C 310.039062 478.8125 313.851562 478.039062 317.726562 477.140625 C 319.695312 476.679688 320.925781 474.707031 320.464844 472.734375 C 320.007812 470.761719 318.035156 469.535156 316.066406 469.996094 C 312.335938 470.859375 308.664062 471.601562 305.046875 472.222656 C 303.054688 472.566406 301.710938 474.460938 302.054688 476.457031 C 302.398438 478.457031 304.292969 479.796875 306.289062 479.457031 Z M 338.238281 471.304688 C 338.976562 471.058594 339.714844 470.808594 340.453125 470.554688 C 343.449219 469.515625 346.363281 468.433594 349.195312 467.304688 C 351.074219 466.554688 351.992188 464.417969 351.242188 462.535156 C 350.488281 460.65625 348.359375 459.738281 346.476562 460.488281 C 343.753906 461.574219 340.949219 462.617188 338.0625 463.613281 C 337.34375 463.863281 336.628906 464.105469 335.910156 464.34375 C 333.996094 464.988281 332.957031 467.070312 333.597656 468.992188 C 334.238281 470.910156 336.320312 471.945312 338.238281 471.304688 Z M 209.664062 464.234375 C 213.042969 466.207031 216.519531 468.035156 220.109375 469.710938 C 221.945312 470.5625 224.125 469.765625 224.980469 467.933594 C 225.835938 466.09375 225.042969 463.914062 223.207031 463.054688 C 219.824219 461.480469 216.542969 459.753906 213.363281 457.898438 C 211.613281 456.875 209.367188 457.46875 208.347656 459.214844 C 207.328125 460.964844 207.917969 463.210938 209.664062 464.234375 Z M 368.585938 458.183594 C 372.089844 456.253906 375.445312 454.238281 378.648438 452.148438 C 380.34375 451.039062 380.816406 448.761719 379.710938 447.070312 C 378.605469 445.375 376.332031 444.894531 374.636719 446 C 371.589844 447.996094 368.394531 449.917969 365.054688 451.753906 C 363.28125 452.726562 362.628906 454.960938 363.605469 456.738281 C 364.582031 458.511719 366.8125 459.160156 368.585938 458.183594 Z M 183.277344 443.960938 C 186.074219 446.714844 188.984375 449.347656 192.003906 451.851562 C 193.5625 453.144531 195.875 452.925781 197.164062 451.367188 C 198.457031 449.808594 198.242188 447.496094 196.683594 446.203125 C 193.820312 443.828125 191.066406 441.335938 188.410156 438.726562 C 186.96875 437.308594 184.644531 437.328125 183.226562 438.777344 C 181.808594 440.21875 181.832031 442.542969 183.277344 443.960938 Z M 395.738281 439.050781 C 398.710938 436.382812 401.511719 433.632812 404.152344 430.808594 C 405.535156 429.328125 405.453125 427.003906 403.980469 425.621094 C 402.503906 424.238281 400.179688 424.316406 398.796875 425.792969 C 396.304688 428.464844 393.65625 431.066406 390.84375 433.585938 C 389.335938 434.9375 389.210938 437.261719 390.558594 438.765625 C 391.910156 440.273438 394.230469 440.402344 395.738281 439.050781 Z M 162.3125 418.238281 C 164.457031 421.519531 166.710938 424.714844 169.074219 427.8125 C 170.300781 429.425781 172.601562 429.734375 174.210938 428.507812 C 175.820312 427.28125 176.132812 424.976562 174.90625 423.367188 C 172.648438 420.40625 170.496094 417.351562 168.445312 414.21875 C 167.335938 412.527344 165.0625 412.050781 163.371094 413.160156 C 161.679688 414.273438 161.203125 416.546875 162.3125 418.238281 Z M 417.550781 413.90625 C 419.75 410.613281 421.785156 407.257812 423.667969 403.847656 C 424.644531 402.074219 424.003906 399.839844 422.234375 398.863281 C 420.460938 397.882812 418.226562 398.527344 417.25 400.300781 C 415.46875 403.527344 413.542969 406.707031 411.457031 409.820312 C 410.328125 411.503906 410.78125 413.785156 412.464844 414.910156 C 414.144531 416.039062 416.425781 415.585938 417.550781 413.90625 Z M 146.855469 388.980469 C 148.367188 392.585938 149.984375 396.132812 151.703125 399.617188 C 152.597656 401.4375 154.800781 402.179688 156.613281 401.28125 C 158.429688 400.386719 159.171875 398.183594 158.277344 396.371094 C 156.625 393.015625 155.070312 389.605469 153.617188 386.140625 C 152.835938 384.277344 150.683594 383.394531 148.816406 384.179688 C 146.953125 384.964844 146.074219 387.113281 146.855469 388.980469 Z M 432.664062 384.308594 C 434.050781 380.644531 435.296875 376.941406 436.421875 373.210938 C 437.007812 371.277344 435.910156 369.226562 433.972656 368.644531 C 432.035156 368.058594 429.988281 369.15625 429.402344 371.09375 C 428.328125 374.660156 427.132812 378.203125 425.804688 381.710938 C 425.089844 383.605469 426.042969 385.726562 427.9375 386.441406 C 429.828125 387.15625 431.945312 386.207031 432.664062 384.308594 Z M 136.609375 357.589844 C 137.519531 361.371094 138.535156 365.128906 139.652344 368.855469 C 140.234375 370.792969 142.28125 371.894531 144.214844 371.308594 C 146.15625 370.730469 147.257812 368.683594 146.675781 366.742188 C 145.59375 363.148438 144.613281 359.519531 143.738281 355.871094 C 143.261719 353.898438 141.28125 352.6875 139.3125 353.164062 C 137.347656 353.640625 136.132812 355.625 136.609375 357.589844 Z M 441.433594 352.417969 C 442.148438 348.582031 442.757812 344.742188 443.273438 340.914062 C 443.546875 338.910156 442.136719 337.058594 440.128906 336.785156 C 438.125 336.515625 436.277344 337.925781 436.007812 339.933594 C 435.507812 343.640625 434.917969 347.359375 434.226562 351.074219 C 433.855469 353.0625 435.171875 354.980469 437.160156 355.351562 C 439.148438 355.722656 441.066406 354.410156 441.433594 352.417969 Z M 131.886719 324.773438 C 132.019531 328.6875 132.308594 332.597656 132.75 336.496094 C 132.980469 338.507812 134.800781 339.957031 136.808594 339.726562 C 138.820312 339.5 140.265625 337.679688 140.035156 335.667969 C 139.609375 331.957031 139.339844 328.242188 139.210938 324.523438 C 139.144531 322.503906 137.445312 320.914062 135.421875 320.984375 C 133.402344 321.054688 131.8125 322.75 131.886719 324.773438 Z M 445.285156 319.734375 C 445.519531 315.835938 445.675781 311.972656 445.773438 308.160156 C 445.828125 306.136719 444.230469 304.449219 442.207031 304.394531 C 440.1875 304.34375 438.5 305.941406 438.445312 307.96875 C 438.347656 311.699219 438.195312 315.484375 437.96875 319.300781 C 437.851562 321.324219 439.390625 323.0625 441.410156 323.179688 C 443.429688 323.296875 445.167969 321.757812 445.285156 319.734375 Z M 134.328125 291.675781 C 133.628906 295.527344 133.070312 299.398438 132.660156 303.289062 C 132.449219 305.304688 133.910156 307.113281 135.917969 307.324219 C 137.933594 307.539062 139.738281 306.078125 139.953125 304.0625 C 140.34375 300.351562 140.875 296.65625 141.539062 292.984375 C 141.902344 290.992188 140.578125 289.082031 138.585938 288.71875 C 136.597656 288.359375 134.6875 289.683594 134.328125 291.675781 Z M 445.839844 287 C 445.835938 286.832031 445.832031 286.664062 445.832031 286.496094 C 445.796875 284.472656 444.125 282.855469 442.101562 282.890625 C 440.078125 282.929688 438.464844 284.601562 438.5 286.625 C 438.503906 286.789062 438.503906 286.953125 438.507812 287.121094 C 438.542969 289.144531 440.214844 290.761719 442.234375 290.730469 C 444.257812 290.695312 445.871094 289.023438 445.839844 287 Z M 143.488281 259.816406 C 142.039062 263.449219 140.71875 267.125 139.527344 270.847656 C 138.914062 272.777344 139.976562 274.839844 141.902344 275.460938 C 143.828125 276.078125 145.894531 275.015625 146.511719 273.085938 C 147.648438 269.527344 148.914062 266.011719 150.296875 262.535156 C 151.046875 260.660156 150.132812 258.519531 148.253906 257.773438 C 146.375 257.019531 144.242188 257.9375 143.488281 259.816406 Z M 158.703125 230.390625 C 156.582031 233.667969 154.574219 237.019531 152.679688 240.4375 C 151.699219 242.207031 152.339844 244.441406 154.109375 245.421875 C 155.878906 246.402344 158.113281 245.765625 159.09375 243.992188 C 160.902344 240.726562 162.824219 237.519531 164.855469 234.382812 C 165.957031 232.683594 165.472656 230.410156 163.777344 229.308594 C 162.078125 228.203125 159.804688 228.691406 158.703125 230.390625 Z M 179.371094 204.488281 C 176.640625 207.285156 174.011719 210.179688 171.484375 213.160156 C 170.179688 214.707031 170.371094 217.019531 171.914062 218.332031 C 173.457031 219.640625 175.773438 219.449219 177.082031 217.90625 C 179.496094 215.054688 182.003906 212.289062 184.613281 209.617188 C 186.027344 208.171875 186.003906 205.84375 184.554688 204.429688 C 183.105469 203.011719 180.785156 203.039062 179.371094 204.488281 Z M 391.292969 194.75 C 388.035156 192.515625 384.789062 190.398438 381.554688 188.394531 C 379.835938 187.328125 377.574219 187.859375 376.507812 189.582031 C 375.441406 191.300781 375.972656 193.566406 377.695312 194.632812 C 380.835938 196.582031 383.988281 198.636719 387.148438 200.804688 C 388.816406 201.949219 391.101562 201.519531 392.242188 199.847656 C 393.386719 198.179688 392.960938 195.894531 391.292969 194.75 Z M 204.875 183.292969 C 201.617188 185.460938 198.441406 187.757812 195.363281 190.160156 C 193.769531 191.40625 193.480469 193.710938 194.726562 195.3125 C 195.972656 196.90625 198.277344 197.191406 199.875 195.949219 C 202.808594 193.65625 205.832031 191.472656 208.9375 189.402344 C 210.621094 188.28125 211.078125 186.003906 209.957031 184.316406 C 208.839844 182.632812 206.5625 182.171875 204.875 183.292969 Z M 362.941406 177.988281 C 359.398438 176.222656 355.875 174.589844 352.367188 173.082031 C 350.507812 172.28125 348.347656 173.140625 347.550781 175.003906 C 346.75 176.863281 347.613281 179.023438 349.46875 179.820312 C 352.855469 181.277344 356.257812 182.855469 359.675781 184.558594 C 361.488281 185.460938 363.691406 184.722656 364.589844 182.90625 C 365.492188 181.097656 364.753906 178.890625 362.941406 177.988281 Z M 234.382812 168.074219 C 230.707031 169.472656 227.101562 171.011719 223.578125 172.6875 C 221.75 173.558594 220.972656 175.746094 221.839844 177.578125 C 222.707031 179.402344 224.894531 180.183594 226.722656 179.316406 C 230.070312 177.722656 233.492188 176.257812 236.988281 174.933594 C 238.878906 174.210938 239.828125 172.089844 239.109375 170.199219 C 238.394531 168.308594 236.273438 167.351562 234.382812 168.074219 Z M 332.273438 165.730469 C 328.476562 164.585938 324.703125 163.585938 320.960938 162.726562 C 318.992188 162.277344 317.023438 163.511719 316.570312 165.488281 C 316.121094 167.460938 317.351562 169.429688 319.328125 169.882812 C 322.910156 170.703125 326.519531 171.660156 330.15625 172.757812 C 332.09375 173.339844 334.140625 172.242188 334.726562 170.304688 C 335.308594 168.363281 334.210938 166.316406 332.273438 165.730469 Z M 266.589844 159.929688 C 262.671875 160.449219 258.808594 161.125 255.007812 161.949219 C 253.035156 162.378906 251.777344 164.332031 252.203125 166.3125 C 252.632812 168.292969 254.585938 169.546875 256.5625 169.121094 C 260.167969 168.339844 263.832031 167.695312 267.550781 167.203125 C 269.554688 166.9375 270.96875 165.09375 270.703125 163.082031 C 270.4375 161.078125 268.59375 159.667969 266.589844 159.929688 Z M 299.777344 159.316406 C 295.828125 158.953125 291.921875 158.742188 288.058594 158.683594 C 286.035156 158.65625 284.367188 160.273438 284.335938 162.300781 C 284.308594 164.324219 285.925781 165.992188 287.949219 166.023438 C 291.625 166.078125 295.34375 166.273438 299.101562 166.621094 C 301.117188 166.808594 302.902344 165.324219 303.089844 163.308594 C 303.273438 161.289062 301.792969 159.503906 299.777344 159.316406 Z M 299.777344 159.316406 " fill-opacity="1" fill-rule="evenodd"/></g></g><g clip-path="url(#c6a56512d9)"><g clip-path="url(#9359c93cdc)"><path fill="#000000" d="M 226.539062 687.582031 C 230.410156 687.054688 234.21875 686.484375 237.96875 685.871094 C 239.964844 685.539062 241.320312 683.652344 240.992188 681.65625 C 240.667969 679.65625 238.777344 678.300781 236.78125 678.628906 C 233.097656 679.230469 229.351562 679.792969 225.554688 680.3125 C 223.546875 680.582031 222.140625 682.433594 222.414062 684.441406 C 222.6875 686.445312 224.535156 687.855469 226.539062 687.582031 Z M 258.773438 681.890625 C 262.59375 681.050781 266.347656 680.164062 270.035156 679.230469 C 271.996094 678.734375 273.1875 676.734375 272.691406 674.773438 C 272.191406 672.808594 270.199219 671.621094 268.238281 672.117188 C 264.621094 673.03125 260.945312 673.902344 257.199219 674.722656 C 255.222656 675.15625 253.972656 677.113281 254.40625 679.09375 C 254.839844 681.070312 256.796875 682.324219 258.773438 681.890625 Z M 290.433594 673.398438 C 294.164062 672.203125 297.820312 670.960938 301.402344 669.664062 C 303.304688 668.976562 304.292969 666.875 303.605469 664.96875 C 302.921875 663.0625 300.816406 662.074219 298.914062 662.761719 C 295.414062 664.023438 291.84375 665.242188 288.195312 666.410156 C 286.269531 667.023438 285.207031 669.09375 285.820312 671.023438 C 286.4375 672.953125 288.503906 674.015625 290.433594 673.398438 Z M 321.121094 661.761719 C 324.707031 660.167969 328.210938 658.527344 331.636719 656.839844 C 333.449219 655.941406 334.195312 653.742188 333.300781 651.925781 C 332.40625 650.113281 330.207031 649.363281 328.390625 650.257812 C 325.058594 651.902344 321.644531 653.5 318.152344 655.050781 C 316.304688 655.871094 315.464844 658.039062 316.285156 659.890625 C 317.105469 661.742188 319.269531 662.578125 321.121094 661.761719 Z M 350.328125 646.679688 C 353.703125 644.667969 356.984375 642.609375 360.175781 640.5 C 361.867188 639.386719 362.332031 637.109375 361.21875 635.417969 C 360.105469 633.726562 357.828125 633.257812 356.136719 634.375 C 353.039062 636.421875 349.851562 638.421875 346.578125 640.375 C 344.839844 641.414062 344.269531 643.667969 345.304688 645.410156 C 346.339844 647.148438 348.589844 647.714844 350.328125 646.679688 Z M 377.4375 628.015625 C 380.515625 625.578125 383.496094 623.097656 386.382812 620.574219 C 387.90625 619.246094 388.066406 616.921875 386.734375 615.398438 C 385.402344 613.871094 383.085938 613.714844 381.558594 615.042969 C 378.761719 617.492188 375.875 619.898438 372.886719 622.261719 C 371.300781 623.515625 371.03125 625.824219 372.285156 627.414062 C 373.539062 629 375.851562 629.273438 377.4375 628.015625 Z M 401.792969 605.839844 C 404.503906 603 407.113281 600.128906 409.621094 597.226562 C 410.945312 595.695312 410.777344 593.375 409.25 592.050781 C 407.722656 590.726562 405.402344 590.890625 404.078125 592.421875 C 401.644531 595.234375 399.117188 598.019531 396.492188 600.769531 C 395.09375 602.230469 395.144531 604.558594 396.609375 605.957031 C 398.070312 607.355469 400.394531 607.300781 401.792969 605.839844 Z M 422.828125 580.488281 C 425.117188 577.300781 427.304688 574.09375 429.390625 570.871094 C 430.488281 569.171875 430.003906 566.902344 428.304688 565.800781 C 426.609375 564.695312 424.335938 565.183594 423.234375 566.878906 C 421.210938 570.003906 419.097656 573.117188 416.875 576.203125 C 415.695312 577.847656 416.070312 580.140625 417.714844 581.328125 C 419.355469 582.503906 421.648438 582.128906 422.828125 580.488281 Z M 440.175781 552.492188 C 442.011719 549.023438 443.746094 545.554688 445.382812 542.089844 C 446.25 540.257812 445.464844 538.066406 443.636719 537.207031 C 441.808594 536.339844 439.621094 537.121094 438.753906 538.953125 C 437.164062 542.316406 435.484375 545.6875 433.699219 549.050781 C 432.753906 550.839844 433.433594 553.0625 435.21875 554.011719 C 437.003906 554.960938 439.226562 554.277344 440.175781 552.492188 Z M 453.671875 522.46875 C 455.050781 518.78125 456.332031 515.125 457.511719 511.496094 C 458.140625 509.570312 457.085938 507.5 455.160156 506.871094 C 453.242188 506.246094 451.167969 507.296875 450.542969 509.222656 C 449.394531 512.746094 448.152344 516.308594 446.808594 519.890625 C 446.097656 521.789062 447.058594 523.902344 448.953125 524.613281 C 450.847656 525.328125 452.960938 524.367188 453.671875 522.46875 Z M 463.300781 491.011719 C 464.230469 487.152344 465.054688 483.363281 465.777344 479.65625 C 466.167969 477.671875 464.875 475.742188 462.886719 475.351562 C 460.902344 474.960938 458.972656 476.257812 458.585938 478.246094 C 457.878906 481.851562 457.078125 485.539062 456.175781 489.292969 C 455.699219 491.261719 456.914062 493.246094 458.878906 493.71875 C 460.847656 494.195312 462.828125 492.980469 463.300781 491.011719 Z M 469.039062 458.613281 C 469.5 454.578125 469.84375 450.707031 470.082031 447.023438 C 470.21875 445.003906 468.6875 443.253906 466.667969 443.121094 C 464.648438 442.988281 462.902344 444.519531 462.769531 446.539062 C 462.53125 450.109375 462.199219 453.871094 461.753906 457.785156 C 461.527344 459.796875 462.972656 461.617188 464.980469 461.84375 C 466.996094 462.074219 468.8125 460.628906 469.039062 458.613281 Z M 469.039062 458.613281 " fill-opacity="1" fill-rule="evenodd"/></g></g><g clip-path="url(#2cae386af8)"><g clip-path="url(#c41a04f92e)"><path fill="#000000" d="M 422.363281 312.261719 L 465.261719 298.40625 L 432.425781 271.054688 Z M 422.363281 312.261719 " fill-opacity="1" fill-rule="evenodd"/></g></g><g clip-path="url(#e3b59d0679)"><g clip-path="url(#fc28d5b26d)"><path fill="#000000" d="M 230.859375 705.316406 L 226.601562 660.402344 L 192.832031 686.585938 Z M 230.859375 705.316406 " fill-opacity="1" fill-rule="evenodd"/></g></g><g clip-path="url(#d79ca00fc0)"><g clip-path="url(#985e80870c)"><path fill="#000000" d="M 433.539062 222.480469 C 433.550781 223.015625 433.535156 223.554688 433.496094 224.089844 C 433.457031 224.625 433.390625 225.160156 433.300781 225.6875 C 433.207031 226.21875 433.089844 226.742188 432.945312 227.261719 C 432.800781 227.78125 432.632812 228.289062 432.441406 228.792969 C 432.246094 229.292969 432.027344 229.785156 431.789062 230.265625 C 431.546875 230.746094 431.28125 231.210938 430.992188 231.667969 C 430.707031 232.121094 430.394531 232.558594 430.066406 232.984375 C 429.734375 233.40625 429.382812 233.8125 429.011719 234.203125 C 428.644531 234.59375 428.253906 234.964844 427.847656 235.3125 C 427.441406 235.664062 427.015625 235.996094 426.578125 236.304688 C 426.136719 236.613281 425.683594 236.902344 425.214844 237.167969 C 424.75 237.433594 424.269531 237.671875 423.777344 237.890625 C 423.285156 238.109375 422.785156 238.300781 422.277344 238.46875 C 421.765625 238.640625 421.25 238.78125 420.722656 238.898438 C 420.199219 239.015625 419.671875 239.109375 419.136719 239.175781 C 418.605469 239.238281 418.070312 239.28125 417.53125 239.292969 C 416.996094 239.304688 416.457031 239.292969 415.921875 239.253906 C 415.386719 239.210938 414.851562 239.148438 414.324219 239.054688 C 413.792969 238.960938 413.269531 238.84375 412.753906 238.699219 C 412.234375 238.558594 411.726562 238.386719 411.222656 238.195312 C 410.722656 238 410.230469 237.78125 409.753906 237.542969 C 409.273438 237.300781 408.804688 237.035156 408.351562 236.746094 C 407.898438 236.457031 407.460938 236.148438 407.035156 235.816406 C 406.613281 235.488281 406.207031 235.136719 405.816406 234.765625 C 405.429688 234.394531 405.058594 234.003906 404.707031 233.597656 C 404.355469 233.191406 404.027344 232.765625 403.71875 232.328125 C 403.40625 231.886719 403.121094 231.433594 402.855469 230.964844 C 402.589844 230.496094 402.351562 230.015625 402.132812 229.523438 C 401.914062 229.035156 401.722656 228.53125 401.554688 228.019531 C 401.386719 227.511719 401.242188 226.992188 401.125 226.46875 C 401.007812 225.941406 400.914062 225.414062 400.851562 224.878906 C 400.785156 224.347656 400.746094 223.8125 400.730469 223.273438 C 400.71875 222.734375 400.734375 222.199219 400.773438 221.660156 C 400.8125 221.125 400.878906 220.59375 400.96875 220.0625 C 401.0625 219.53125 401.179688 219.007812 401.324219 218.492188 C 401.464844 217.972656 401.636719 217.460938 401.828125 216.960938 C 402.023438 216.457031 402.238281 215.96875 402.480469 215.488281 C 402.722656 215.007812 402.988281 214.539062 403.277344 214.085938 C 403.5625 213.632812 403.871094 213.191406 404.203125 212.769531 C 404.535156 212.34375 404.886719 211.9375 405.253906 211.546875 C 405.625 211.160156 406.015625 210.789062 406.421875 210.4375 C 406.828125 210.085938 407.253906 209.757812 407.691406 209.445312 C 408.132812 209.136719 408.585938 208.851562 409.050781 208.585938 C 409.519531 208.320312 410 208.078125 410.492188 207.859375 C 410.980469 207.644531 411.484375 207.449219 411.992188 207.28125 C 412.503906 207.113281 413.019531 206.96875 413.546875 206.851562 C 414.070312 206.734375 414.597656 206.644531 415.132812 206.578125 C 415.664062 206.511719 416.199219 206.472656 416.738281 206.460938 C 417.273438 206.445312 417.8125 206.460938 418.347656 206.5 C 418.882812 206.539062 419.414062 206.605469 419.945312 206.699219 C 420.476562 206.789062 421 206.90625 421.515625 207.050781 C 422.035156 207.195312 422.542969 207.363281 423.046875 207.558594 C 423.546875 207.75 424.035156 207.96875 424.515625 208.210938 C 424.996094 208.453125 425.464844 208.71875 425.917969 209.003906 C 426.371094 209.292969 426.808594 209.601562 427.234375 209.933594 C 427.65625 210.265625 428.0625 210.617188 428.453125 210.988281 C 428.839844 211.359375 429.210938 211.746094 429.5625 212.15625 C 429.914062 212.5625 430.242188 212.984375 430.550781 213.425781 C 430.863281 213.863281 431.148438 214.320312 431.414062 214.785156 C 431.679688 215.253906 431.917969 215.734375 432.136719 216.226562 C 432.355469 216.71875 432.546875 217.21875 432.714844 217.730469 C 432.882812 218.242188 433.027344 218.757812 433.144531 219.285156 C 433.261719 219.808594 433.355469 220.335938 433.417969 220.871094 C 433.484375 221.40625 433.523438 221.941406 433.539062 222.480469 Z M 433.539062 222.480469 " fill-opacity="1" fill-rule="nonzero"/></g></g><g clip-path="url(#0dd8dae530)"><g clip-path="url(#1c8217a58f)"><g clip-path="url(#612f623993)"><path fill="#ffffff" d="M 419.078125 232.953125 L 416.507812 233.015625 L 416.09375 215.960938 L 410.984375 217.980469 L 410.925781 215.65625 L 418.1875 212.726562 L 418.585938 212.714844 Z M 419.078125 232.953125 " fill-opacity="1" fill-rule="nonzero"/></g></g></g><g clip-path="url(#87ed3455c3)"><g clip-path="url(#37f93f39bb)"><path fill="#000000" d="M 482.167969 409.699219 C 482.183594 410.238281 482.167969 410.773438 482.128906 411.3125 C 482.089844 411.847656 482.023438 412.382812 481.933594 412.910156 C 481.839844 413.441406 481.722656 413.964844 481.578125 414.484375 C 481.433594 415 481.265625 415.511719 481.074219 416.011719 C 480.878906 416.515625 480.660156 417.007812 480.417969 417.484375 C 480.179688 417.964844 479.914062 418.433594 479.625 418.886719 C 479.339844 419.34375 479.027344 419.78125 478.699219 420.207031 C 478.367188 420.628906 478.015625 421.035156 477.644531 421.425781 C 477.273438 421.816406 476.886719 422.183594 476.480469 422.535156 C 476.074219 422.886719 475.648438 423.21875 475.210938 423.527344 C 474.769531 423.835938 474.316406 424.125 473.847656 424.386719 C 473.382812 424.652344 472.902344 424.894531 472.410156 425.113281 C 471.917969 425.332031 471.417969 425.523438 470.90625 425.691406 C 470.398438 425.859375 469.878906 426.003906 469.355469 426.121094 C 468.832031 426.238281 468.304688 426.332031 467.769531 426.394531 C 467.234375 426.460938 466.699219 426.5 466.164062 426.515625 C 465.625 426.527344 465.089844 426.515625 464.554688 426.472656 C 464.019531 426.433594 463.484375 426.367188 462.957031 426.277344 C 462.425781 426.183594 461.902344 426.066406 461.386719 425.921875 C 460.867188 425.777344 460.359375 425.609375 459.855469 425.417969 C 459.355469 425.222656 458.863281 425.003906 458.386719 424.761719 C 457.90625 424.519531 457.4375 424.257812 456.984375 423.96875 C 456.53125 423.679688 456.089844 423.371094 455.667969 423.039062 C 455.246094 422.707031 454.839844 422.359375 454.449219 421.988281 C 454.058594 421.617188 453.691406 421.226562 453.339844 420.820312 C 452.988281 420.410156 452.660156 419.988281 452.347656 419.546875 C 452.039062 419.109375 451.753906 418.65625 451.488281 418.1875 C 451.222656 417.71875 450.984375 417.238281 450.765625 416.746094 C 450.546875 416.253906 450.355469 415.753906 450.1875 415.242188 C 450.015625 414.734375 449.875 414.214844 449.757812 413.691406 C 449.640625 413.164062 449.546875 412.636719 449.480469 412.101562 C 449.417969 411.566406 449.378906 411.03125 449.363281 410.496094 C 449.351562 409.957031 449.363281 409.421875 449.40625 408.882812 C 449.445312 408.347656 449.511719 407.8125 449.601562 407.285156 C 449.695312 406.753906 449.8125 406.230469 449.957031 405.710938 C 450.097656 405.195312 450.269531 404.683594 450.460938 404.183594 C 450.65625 403.679688 450.871094 403.191406 451.113281 402.710938 C 451.355469 402.230469 451.621094 401.761719 451.910156 401.308594 C 452.195312 400.851562 452.503906 400.414062 452.835938 399.988281 C 453.167969 399.566406 453.515625 399.160156 453.886719 398.769531 C 454.257812 398.382812 454.648438 398.011719 455.054688 397.660156 C 455.460938 397.308594 455.886719 396.976562 456.324219 396.667969 C 456.765625 396.359375 457.21875 396.070312 457.683594 395.808594 C 458.152344 395.542969 458.632812 395.300781 459.125 395.082031 C 459.613281 394.863281 460.117188 394.671875 460.625 394.503906 C 461.136719 394.335938 461.652344 394.191406 462.179688 394.074219 C 462.703125 393.957031 463.230469 393.863281 463.765625 393.800781 C 464.296875 393.734375 464.832031 393.695312 465.371094 393.679688 C 465.90625 393.667969 466.445312 393.679688 466.980469 393.722656 C 467.515625 393.761719 468.046875 393.828125 468.578125 393.917969 C 469.105469 394.011719 469.628906 394.128906 470.148438 394.273438 C 470.667969 394.417969 471.175781 394.585938 471.675781 394.777344 C 472.179688 394.972656 472.667969 395.191406 473.148438 395.433594 C 473.628906 395.675781 474.097656 395.9375 474.550781 396.226562 C 475.003906 396.515625 475.441406 396.824219 475.867188 397.15625 C 476.289062 397.488281 476.695312 397.835938 477.085938 398.207031 C 477.472656 398.578125 477.84375 398.96875 478.195312 399.375 C 478.546875 399.785156 478.875 400.207031 479.183594 400.648438 C 479.492188 401.085938 479.78125 401.539062 480.046875 402.007812 C 480.308594 402.476562 480.550781 402.957031 480.769531 403.449219 C 480.988281 403.941406 481.179688 404.441406 481.347656 404.953125 C 481.515625 405.464844 481.660156 405.980469 481.777344 406.503906 C 481.894531 407.03125 481.984375 407.558594 482.050781 408.09375 C 482.117188 408.628906 482.15625 409.164062 482.167969 409.699219 Z M 482.167969 409.699219 " fill-opacity="1" fill-rule="nonzero"/></g></g><g clip-path="url(#0ef9e818e7)"><g clip-path="url(#f65e315901)"><g clip-path="url(#1483d877b6)"><path fill="#ffffff" d="M 472.492188 420.0625 L 459.304688 420.378906 L 459.261719 418.539062 L 466.039062 410.625 C 467.042969 409.429688 467.734375 408.457031 468.105469 407.714844 C 468.480469 406.972656 468.65625 406.210938 468.640625 405.425781 C 468.613281 404.375 468.273438 403.519531 467.621094 402.863281 C 466.96875 402.203125 466.113281 401.886719 465.054688 401.914062 C 463.785156 401.945312 462.804688 402.332031 462.117188 403.070312 C 461.429688 403.8125 461.101562 404.828125 461.132812 406.121094 L 458.574219 406.179688 C 458.53125 404.328125 459.089844 402.816406 460.257812 401.640625 C 461.421875 400.46875 463.003906 399.859375 465.003906 399.8125 C 466.875 399.765625 468.367188 400.222656 469.476562 401.175781 C 470.585938 402.132812 471.164062 403.425781 471.203125 405.058594 C 471.25 407.042969 470.046875 409.433594 467.585938 412.234375 L 462.335938 418.214844 L 472.441406 417.972656 Z M 472.492188 420.0625 " fill-opacity="1" fill-rule="nonzero"/></g></g></g><g clip-path="url(#0547bb89c4)"><path fill="#000000" d="M 364.742188 501.058594 C 358.167969 538.382812 342.277344 567.300781 316.945312 587.734375 C 289.464844 609.910156 250.980469 622.105469 201.566406 624.527344 C 201.566406 624.527344 173.871094 624.972656 173.871094 624.972656 C 172.019531 624.996094 170.539062 626.503906 170.539062 628.347656 L 170.539062 745.523438 C 170.539062 747.390625 172.054688 748.902344 173.921875 748.902344 L 183.03125 748.902344 C 251 748.902344 310.5 735.015625 361.550781 707.265625 C 412.734375 679.472656 452.140625 639.65625 479.777344 587.847656 C 507.335938 536.191406 521.152344 475.199219 521.152344 404.859375 C 521.152344 404.859375 521.152344 348.875 521.152344 348.875 C 521.152344 348.859375 521.152344 348.851562 521.152344 348.835938 C 520.566406 298.234375 510.75 253.5625 491.753906 214.804688 C 472.671875 175.871094 446.011719 145.761719 411.808594 124.457031 C 377.597656 103.148438 339.351562 92.484375 297.066406 92.484375 C 255.386719 92.484375 217.304688 102.773438 182.8125 123.339844 C 148.316406 143.910156 121.523438 171.824219 102.4375 207.089844 C 83.378906 242.304688 73.847656 280.449219 73.847656 321.535156 C 73.847656 387.277344 90.953125 439.785156 124.96875 479.113281 C 159.136719 518.617188 205.355469 538.4375 263.679688 538.4375 C 300.667969 538.4375 334.363281 525.992188 364.742188 501.058594 Z M 372.832031 492.964844 C 373.015625 491.558594 372.308594 490.183594 371.054688 489.523438 C 369.800781 488.863281 368.269531 489.054688 367.214844 490 C 336.375 517.75 301.875 531.660156 263.679688 531.660156 C 207.53125 531.660156 162.980469 512.710938 130.085938 474.679688 C 97.039062 436.472656 80.613281 385.402344 80.613281 321.535156 C 80.613281 281.609375 89.871094 244.535156 108.390625 210.316406 C 126.882812 176.144531 152.847656 149.089844 186.28125 129.15625 C 219.71875 109.21875 256.652344 99.257812 297.066406 99.257812 C 338.03125 99.257812 375.089844 109.566406 408.230469 130.207031 C 441.378906 150.855469 467.183594 180.054688 485.679688 217.789062 C 504.257812 255.695312 513.8125 299.402344 514.382812 348.894531 C 514.382812 348.894531 514.382812 404.859375 514.382812 404.859375 C 514.382812 473.964844 500.882812 533.90625 473.808594 584.671875 C 446.8125 635.28125 408.316406 674.160156 358.324219 701.3125 C 308.199219 728.550781 249.765625 742.148438 183.03125 742.148438 L 177.308594 742.148438 C 177.308594 742.148438 177.308594 631.683594 177.308594 631.683594 C 177.308594 631.683594 201.726562 631.304688 201.726562 631.304688 C 201.761719 631.304688 201.800781 631.304688 201.839844 631.304688 C 252.988281 628.792969 292.753906 615.972656 321.195312 593.023438 C 349.800781 569.941406 367.066406 536.613281 372.832031 492.964844 Z M 303.136719 432.980469 C 336.34375 432.980469 360.175781 418.597656 374.664062 389.894531 C 374.902344 389.417969 375.027344 388.898438 375.027344 388.367188 L 375.027344 327.609375 C 375.027344 286.210938 367.921875 255.644531 354.035156 235.835938 C 339.769531 215.476562 320.484375 205.316406 296.195312 205.316406 C 274.582031 205.316406 256.351562 216.714844 241.738281 239.875 C 227.546875 262.363281 220.402344 289.574219 220.402344 321.535156 C 220.402344 355.363281 227.769531 382.261719 242.296875 402.289062 C 257.128906 422.742188 277.402344 432.980469 303.136719 432.980469 Z M 303.136719 426.207031 C 279.726562 426.207031 261.269531 416.917969 247.769531 398.308594 C 233.96875 379.28125 227.171875 353.671875 227.171875 321.535156 C 227.171875 291.003906 233.902344 264.980469 247.460938 243.492188 C 260.597656 222.675781 276.765625 212.089844 296.195312 212.089844 C 318.164062 212.089844 335.589844 221.3125 348.496094 239.722656 C 361.78125 258.679688 368.261719 288 368.261719 327.609375 C 368.261719 327.609375 368.261719 387.550781 368.261719 387.550781 C 354.96875 413.34375 333.246094 426.207031 303.136719 426.207031 Z M 303.136719 426.207031 " fill-opacity="1" fill-rule="evenodd"/></g></svg>