<svg width="142" height="380" viewBox="0 0 142 380" fill="none" xmlns="http://www.w3.org/2000/svg">
<mask id="path-1-outside-1_625_8488" maskUnits="userSpaceOnUse" x="34" y="66" width="59" height="207" fill="black">
<rect fill="white" x="34" y="66" width="59" height="207"/>
<path d="M68.8125 107.363C65.987 111.191 63.4805 114.382 61.293 116.934C59.1966 119.395 57.3281 121.354 55.6875 122.812C54.0469 124.271 52.5885 125.273 51.3125 125.82C50.1276 126.367 49.125 126.641 48.3047 126.641C46.6641 126.641 45.1146 126.23 43.6562 125.41C42.1979 124.499 40.9219 123.405 39.8281 122.129C38.8255 120.853 38.0052 119.486 37.3672 118.027C36.8203 116.478 36.5469 115.065 36.5469 113.789C36.5469 112.786 36.8659 112.148 37.5039 111.875C38.1419 111.602 38.8711 111.328 39.6914 111.055C40.5117 110.781 41.5599 110.052 42.8359 108.867C44.112 107.591 45.5703 106.042 47.2109 104.219C48.8516 102.396 50.5378 100.391 52.2695 98.2031C54.0924 95.9245 55.8698 93.6458 57.6016 91.3672C61.7031 85.9896 66.0781 80.0195 70.7266 73.457C71.7292 72.0898 72.9596 70.9961 74.418 70.1758C75.8763 69.3555 77.4714 68.9453 79.2031 68.9453C80.5703 68.9453 81.8919 69.2643 83.168 69.9023C84.5352 70.4492 85.7201 71.2695 86.7227 72.3633C87.8164 73.3659 88.6367 74.5508 89.1836 75.918C89.8216 77.194 90.1406 78.5156 90.1406 79.8828V263.633C90.1406 266.003 89.3203 267.643 87.6797 268.555C86.1302 269.557 84.3073 270.059 82.2109 270.059C80.5703 270.059 78.9297 269.831 77.2891 269.375C75.7396 268.919 74.3268 268.281 73.0508 267.461C71.7747 266.732 70.7266 265.911 69.9062 265C69.1771 263.997 68.8125 262.949 68.8125 261.855V107.363Z"/>
</mask>
<path d="M68.8125 107.363C65.987 111.191 63.4805 114.382 61.293 116.934C59.1966 119.395 57.3281 121.354 55.6875 122.812C54.0469 124.271 52.5885 125.273 51.3125 125.82C50.1276 126.367 49.125 126.641 48.3047 126.641C46.6641 126.641 45.1146 126.23 43.6562 125.41C42.1979 124.499 40.9219 123.405 39.8281 122.129C38.8255 120.853 38.0052 119.486 37.3672 118.027C36.8203 116.478 36.5469 115.065 36.5469 113.789C36.5469 112.786 36.8659 112.148 37.5039 111.875C38.1419 111.602 38.8711 111.328 39.6914 111.055C40.5117 110.781 41.5599 110.052 42.8359 108.867C44.112 107.591 45.5703 106.042 47.2109 104.219C48.8516 102.396 50.5378 100.391 52.2695 98.2031C54.0924 95.9245 55.8698 93.6458 57.6016 91.3672C61.7031 85.9896 66.0781 80.0195 70.7266 73.457C71.7292 72.0898 72.9596 70.9961 74.418 70.1758C75.8763 69.3555 77.4714 68.9453 79.2031 68.9453C80.5703 68.9453 81.8919 69.2643 83.168 69.9023C84.5352 70.4492 85.7201 71.2695 86.7227 72.3633C87.8164 73.3659 88.6367 74.5508 89.1836 75.918C89.8216 77.194 90.1406 78.5156 90.1406 79.8828V263.633C90.1406 266.003 89.3203 267.643 87.6797 268.555C86.1302 269.557 84.3073 270.059 82.2109 270.059C80.5703 270.059 78.9297 269.831 77.2891 269.375C75.7396 268.919 74.3268 268.281 73.0508 267.461C71.7747 266.732 70.7266 265.911 69.9062 265C69.1771 263.997 68.8125 262.949 68.8125 261.855V107.363Z" fill="#F1F1F1"/>
<path d="M68.8125 107.363H70.8125V101.286L67.2034 106.176L68.8125 107.363ZM61.293 116.934L59.7744 115.632L59.7705 115.637L61.293 116.934ZM51.3125 125.82L50.5247 123.982L50.4994 123.993L50.4744 124.004L51.3125 125.82ZM43.6562 125.41L42.5963 127.106L42.6354 127.131L42.6757 127.153L43.6562 125.41ZM39.8281 122.129L38.2555 123.365L38.2818 123.398L38.3096 123.43L39.8281 122.129ZM37.3672 118.027L35.4812 118.693L35.5056 118.762L35.5349 118.829L37.3672 118.027ZM42.8359 108.867L44.1968 110.333L44.224 110.308L44.2502 110.281L42.8359 108.867ZM52.2695 98.2031L50.7078 96.9537L50.7014 96.9617L52.2695 98.2031ZM57.6016 91.3672L56.0113 90.1543L56.0092 90.157L57.6016 91.3672ZM70.7266 73.457L69.1138 72.2743L69.104 72.2876L69.0945 72.301L70.7266 73.457ZM83.168 69.9023L82.2735 71.6912L82.3479 71.7284L82.4252 71.7593L83.168 69.9023ZM86.7227 72.3633L85.2483 73.7147L85.3071 73.7788L85.3712 73.8376L86.7227 72.3633ZM89.1836 75.918L87.3266 76.6608L87.3575 76.738L87.3947 76.8124L89.1836 75.918ZM87.6797 268.555L86.7084 266.806L86.6496 266.839L86.5932 266.876L87.6797 268.555ZM77.2891 269.375L76.7247 271.294L76.7392 271.298L76.7538 271.302L77.2891 269.375ZM73.0508 267.461L74.1323 265.779L74.0884 265.75L74.0431 265.724L73.0508 267.461ZM69.9062 265L68.2888 266.176L68.35 266.261L68.4197 266.338L69.9062 265ZM67.2034 106.176C64.3959 109.979 61.9204 113.128 59.7745 115.632L62.8115 118.235C65.0405 115.635 67.5781 112.404 70.4216 108.551L67.2034 106.176ZM59.7705 115.637C57.7089 118.057 55.9063 119.942 54.3588 121.318L57.0162 124.307C58.7499 122.766 60.6844 120.732 62.8155 118.231L59.7705 115.637ZM54.3588 121.318C52.7968 122.706 51.5227 123.554 50.5247 123.982L52.1003 127.659C53.6544 126.993 55.297 125.836 57.0162 124.307L54.3588 121.318ZM50.4744 124.004C49.4141 124.494 48.7146 124.641 48.3047 124.641V128.641C49.5354 128.641 50.8411 128.241 52.1506 127.636L50.4744 124.004ZM48.3047 124.641C47.0146 124.641 45.802 124.322 44.6368 123.667L42.6757 127.153C44.4272 128.139 46.3135 128.641 48.3047 128.641V124.641ZM44.7162 123.714C43.4258 122.908 42.3054 121.946 41.3466 120.827L38.3096 123.43C39.5384 124.864 40.97 126.09 42.5963 127.106L44.7162 123.714ZM41.4008 120.893C40.5007 119.748 39.7684 118.526 39.1995 117.226L35.5349 118.829C36.2421 120.445 37.1504 121.958 38.2555 123.365L41.4008 120.893ZM39.2532 117.362C38.7611 115.968 38.5469 114.784 38.5469 113.789H34.5469C34.5469 115.346 34.8795 116.988 35.4812 118.693L39.2532 117.362ZM38.5469 113.789C38.5469 113.642 38.5588 113.545 38.5699 113.487C38.5809 113.431 38.5888 113.425 38.575 113.453C38.5595 113.484 38.5253 113.539 38.4645 113.597C38.4032 113.655 38.3399 113.693 38.2917 113.713L36.7161 110.037C35.0249 110.762 34.5469 112.401 34.5469 113.789H38.5469ZM38.2917 113.713C38.8683 113.466 39.544 113.212 40.3239 112.952L39.059 109.157C38.1982 109.444 37.4156 109.737 36.7161 110.037L38.2917 113.713ZM40.3239 112.952C41.5715 112.536 42.8813 111.554 44.1968 110.333L41.475 107.402C40.2385 108.55 39.4519 109.026 39.059 109.157L40.3239 112.952ZM44.2502 110.281C45.558 108.974 47.0411 107.397 48.6975 105.557L45.7243 102.881C44.0995 104.686 42.666 106.209 41.4217 107.453L44.2502 110.281ZM48.6975 105.557C50.3698 103.699 52.0832 101.661 53.8376 99.4445L50.7014 96.9617C48.9923 99.1206 47.3333 101.093 45.7243 102.881L48.6975 105.557ZM53.8313 99.4525C55.6643 97.1612 57.4519 94.8695 59.1939 92.5774L56.0092 90.157C54.2877 92.4222 52.5206 94.6878 50.7078 96.9537L53.8313 99.4525ZM59.1918 92.5801C63.31 87.1807 67.699 81.1913 72.3586 74.6131L69.0945 72.301C64.4572 78.8478 60.0963 84.7985 56.0113 90.1543L59.1918 92.5801ZM72.3394 74.6398C73.1758 73.4991 74.1918 72.5977 75.3985 71.9189L73.4374 68.4326C71.7275 69.3945 70.2825 70.6806 69.1138 72.2743L72.3394 74.6398ZM75.3985 71.9189C76.5467 71.273 77.8023 70.9453 79.2031 70.9453V66.9453C77.1404 66.9453 75.2059 67.4379 73.4374 68.4326L75.3985 71.9189ZM79.2031 70.9453C80.2462 70.9453 81.2628 71.1858 82.2735 71.6912L84.0624 68.1135C82.5211 67.3428 80.8944 66.9453 79.2031 66.9453V70.9453ZM82.4252 71.7593C83.5115 72.1938 84.447 72.8405 85.2483 73.7147L88.197 71.0118C86.9931 69.6986 85.5588 68.7046 83.9108 68.0454L82.4252 71.7593ZM85.3712 73.8376C86.2454 74.639 86.8921 75.5744 87.3266 76.6608L91.0405 75.1752C90.3813 73.5271 89.3874 72.0928 88.0741 70.889L85.3712 73.8376ZM87.3947 76.8124C87.9001 77.8232 88.1406 78.8397 88.1406 79.8828H92.1406C92.1406 78.1915 91.7431 76.5648 90.9724 75.0235L87.3947 76.8124ZM88.1406 79.8828V263.633H92.1406V79.8828H88.1406ZM88.1406 263.633C88.1406 265.499 87.5405 266.344 86.7084 266.806L88.651 270.303C91.1002 268.942 92.1406 266.506 92.1406 263.633H88.1406ZM86.5932 266.876C85.4098 267.641 83.9757 268.059 82.2109 268.059V272.059C84.6389 272.059 86.8506 271.473 88.7662 270.234L86.5932 266.876ZM82.2109 268.059C80.758 268.059 79.2973 267.857 77.8244 267.448L76.7538 271.302C78.5621 271.804 80.3827 272.059 82.2109 272.059V268.059ZM77.8534 267.456C76.4749 267.051 75.238 266.489 74.1323 265.779L71.9693 269.143C73.4156 270.073 75.0043 270.788 76.7247 271.294L77.8534 267.456ZM74.0431 265.724C72.9164 265.081 72.0456 264.387 71.3928 263.662L68.4197 266.338C69.4075 267.436 70.6331 268.383 72.0585 269.197L74.0431 265.724ZM71.5237 263.824C71.0086 263.115 70.8125 262.471 70.8125 261.855H66.8125C66.8125 263.427 67.3456 264.879 68.2888 266.176L71.5237 263.824ZM70.8125 261.855V107.363H66.8125V261.855H70.8125Z" fill="black" mask="url(#path-1-outside-1_625_8488)"/>
</svg>
