<svg xmlns="http://www.w3.org/2000/svg" xmlns:xlink="http://www.w3.org/1999/xlink" width="800" zoomAndPan="magnify" viewBox="0 0 600 899.99999" height="1200" preserveAspectRatio="xMidYMid meet" version="1.0"><defs><g/><clipPath id="e7b7cdff91"><path d="M 60 706 L 99 706 L 99 740 L 60 740 Z M 60 706 " clip-rule="nonzero"/></clipPath><clipPath id="9bc55e125f"><path d="M 60.078125 721.105469 L 72.488281 697.128906 L 109.121094 716.089844 L 96.710938 740.066406 Z M 60.078125 721.105469 " clip-rule="nonzero"/></clipPath><clipPath id="441fdc2095"><path d="M 60.078125 721.105469 L 72.488281 697.128906 L 109.121094 716.089844 L 96.710938 740.066406 Z M 60.078125 721.105469 " clip-rule="nonzero"/></clipPath><clipPath id="05d5df249f"><path d="M 60.085938 721.109375 L 72.398438 697.316406 L 109.199219 716.363281 L 96.882812 740.15625 Z M 60.085938 721.109375 " clip-rule="nonzero"/></clipPath><clipPath id="4bf0e8722d"><path d="M 188.375 576.585938 L 215.164062 576.585938 L 215.164062 617.832031 L 188.375 617.832031 Z M 188.375 576.585938 " clip-rule="nonzero"/></clipPath><clipPath id="391e27f974"><path d="M 289 260 L 328 260 L 328 293 L 289 293 Z M 289 260 " clip-rule="nonzero"/></clipPath><clipPath id="407926332c"><path d="M 326.621094 259.609375 L 337.910156 284.136719 L 300.4375 301.386719 L 289.148438 276.859375 Z M 326.621094 259.609375 " clip-rule="nonzero"/></clipPath><clipPath id="4bc5ce5bd2"><path d="M 326.621094 259.609375 L 337.910156 284.136719 L 300.4375 301.386719 L 289.148438 276.859375 Z M 326.621094 259.609375 " clip-rule="nonzero"/></clipPath><clipPath id="39b9ea3388"><path d="M 326.613281 259.613281 L 337.816406 283.949219 L 300.175781 301.277344 L 288.972656 276.9375 Z M 326.613281 259.613281 " clip-rule="nonzero"/></clipPath></defs><path stroke-linecap="butt" transform="matrix(0.75, 0, 0, 0.75, 19.327151, -15.449228)" fill="none" stroke-linejoin="miter" d="M 84.485679 1042.104234 C 68.438803 1042.104234 55.50651 1038.421942 45.683593 1031.05215 C 36.022134 1023.682358 30.126301 1013.776108 28.001301 1001.333399 C 26.032551 988.89069 28.407551 974.974022 35.121093 959.583397 L 300.865898 371.119824 C 309.542982 351.635448 320.100274 337.713572 332.548192 329.364614 C 344.990901 321.015655 359.235693 316.838571 375.282569 316.838571 C 390.673195 316.838571 404.589862 321.015655 417.032571 329.364614 C 429.47528 337.713572 440.037781 351.635448 448.714864 371.119824 L 715.194045 959.583397 C 722.563837 974.974022 725.266962 989.052148 723.30342 1001.82819 C 721.33467 1014.599024 715.605503 1024.505275 706.110711 1031.541734 C 696.777377 1038.583401 684.412793 1042.104234 669.022168 1042.104234 C 650.194042 1042.104234 635.537791 1037.604234 625.058624 1028.599025 C 614.746123 1019.42715 605.574248 1005.427149 597.553414 986.599023 L 532.220077 834.817765 L 586.50133 869.937558 L 161.850266 869.937558 L 216.376311 834.817765 L 151.782557 986.599023 C 143.105473 1006.083399 134.100265 1020.244858 124.766931 1029.088608 C 115.433597 1037.765692 102.006513 1042.104234 84.485679 1042.104234 Z M 373.319027 464.692746 L 232.339853 799.692763 L 206.308602 767.520886 L 542.292994 767.520886 L 516.996118 799.692763 L 375.282569 464.692746 Z M 373.319027 464.692746 " stroke="#1f8785" stroke-width="40.239601" stroke-opacity="1" stroke-miterlimit="4"/><g fill="#ffffff" fill-opacity="1"><g transform="translate(19.327151, 760.050731)"><g><path d="M 63.375 6.03125 C 51.300781 6.03125 41.617188 3.265625 34.328125 -2.265625 C 27.035156 -7.796875 22.632812 -15.210938 21.125 -24.515625 C 19.613281 -33.828125 21.375 -44.265625 26.40625 -55.828125 L 225.59375 -497.21875 C 232.132812 -511.800781 240.054688 -522.234375 249.359375 -528.515625 C 258.671875 -534.804688 269.359375 -537.953125 281.421875 -537.953125 C 292.992188 -537.953125 303.429688 -534.804688 312.734375 -528.515625 C 322.046875 -522.234375 329.96875 -511.800781 336.5 -497.21875 L 536.453125 -55.828125 C 541.984375 -44.265625 543.992188 -33.703125 542.484375 -24.140625 C 540.972656 -14.585938 536.695312 -7.171875 529.65625 -1.890625 C 522.613281 3.390625 513.3125 6.03125 501.75 6.03125 C 487.65625 6.03125 476.710938 2.640625 468.921875 -4.140625 C 461.128906 -10.929688 454.210938 -21.375 448.171875 -35.46875 L 399.125 -149.390625 L 439.875 -122.984375 L 121.46875 -122.984375 L 162.21875 -149.390625 L 113.921875 -35.46875 C 107.390625 -20.875 100.601562 -10.304688 93.5625 -3.765625 C 86.519531 2.765625 76.457031 6.03125 63.375 6.03125 Z M 279.921875 -427.046875 L 174.296875 -175.796875 L 154.671875 -199.9375 L 406.671875 -199.9375 L 387.8125 -175.796875 L 281.421875 -427.046875 Z M 279.921875 -427.046875 "/></g></g></g><g clip-path="url(#e7b7cdff91)"><g clip-path="url(#9bc55e125f)"><g clip-path="url(#441fdc2095)"><g clip-path="url(#05d5df249f)"><path fill="#1f8785" d="M 89.054688 706.777344 L 62.054688 718.351562 C 60.019531 719.222656 60.628906 722.253906 62.839844 722.269531 L 81.695312 722.414062 C 82.347656 722.417969 82.957031 722.734375 83.335938 723.265625 L 94.34375 738.574219 C 95.636719 740.371094 98.460938 739.121094 98 736.957031 L 91.855469 708.226562 C 91.589844 706.96875 90.238281 706.269531 89.054688 706.777344 " fill-opacity="1" fill-rule="nonzero"/></g></g></g></g><path fill="#1f8785" d="M 93.417969 682.011719 L 108.433594 649.292969 L 119.339844 654.296875 L 104.324219 687.019531 M 113.4375 638.386719 L 128.453125 605.667969 L 139.359375 610.671875 L 124.34375 643.390625 M 133.457031 594.761719 L 148.472656 562.042969 L 159.378906 567.046875 L 144.363281 599.765625 M 153.476562 551.136719 L 168.492188 518.414062 L 179.398438 523.421875 L 164.382812 556.140625 M 173.496094 507.507812 L 188.511719 474.789062 L 199.417969 479.792969 L 184.402344 512.515625 M 193.515625 463.882812 L 208.53125 431.164062 L 219.4375 436.167969 L 204.421875 468.886719 M 213.535156 420.257812 L 228.550781 387.539062 L 239.457031 392.542969 L 224.441406 425.261719 M 233.554688 376.632812 L 248.570312 343.910156 L 259.476562 348.917969 L 244.460938 381.636719 M 253.574219 333.003906 L 268.589844 300.285156 L 279.496094 305.292969 L 264.480469 338.011719 M 273.59375 289.378906 L 274.636719 287.109375 L 285.542969 292.113281 L 284.5 294.382812 " fill-opacity="1" fill-rule="nonzero"/><g clip-path="url(#4bf0e8722d)"><path fill="#1f8785" d="M 214.421875 595.726562 L 191.730469 577.066406 C 190.019531 575.664062 187.609375 577.597656 188.609375 579.570312 L 197.148438 596.378906 C 197.445312 596.960938 197.445312 597.648438 197.148438 598.230469 L 188.609375 615.042969 C 187.609375 617.015625 190.019531 618.949219 191.726562 617.542969 L 214.421875 598.882812 C 215.414062 598.066406 215.414062 596.546875 214.421875 595.726562 " fill-opacity="1" fill-rule="nonzero"/></g><g clip-path="url(#391e27f974)"><g clip-path="url(#407926332c)"><g clip-path="url(#4bc5ce5bd2)"><g clip-path="url(#39b9ea3388)"><path fill="#1f8785" d="M 320.117188 291.277344 L 327.578125 262.859375 C 328.140625 260.722656 325.375 259.339844 324.003906 261.074219 L 312.304688 275.859375 C 311.898438 276.371094 311.277344 276.65625 310.625 276.632812 L 291.78125 275.90625 C 289.570312 275.820312 288.820312 278.820312 290.8125 279.785156 L 317.25 292.59375 C 318.410156 293.15625 319.789062 292.519531 320.117188 291.277344 " fill-opacity="1" fill-rule="nonzero"/></g></g></g></g><path fill="#1f8785" d="M 509.90625 721.214844 L 495.039062 688.429688 L 505.964844 683.472656 L 520.835938 716.261719 M 490.082031 677.5 L 475.210938 644.714844 L 486.140625 639.757812 L 501.007812 672.546875 M 470.253906 633.785156 L 455.386719 601 L 466.316406 596.042969 L 481.183594 628.832031 M 450.429688 590.074219 L 435.5625 557.285156 L 446.492188 552.332031 L 461.359375 585.117188 M 430.605469 546.359375 L 415.738281 513.570312 L 426.664062 508.617188 L 441.535156 541.402344 M 410.78125 502.644531 L 395.910156 469.855469 L 406.839844 464.902344 L 421.710938 497.6875 M 390.957031 458.929688 L 376.085938 426.144531 L 387.015625 421.1875 L 401.882812 453.972656 M 371.128906 415.214844 L 356.261719 382.429688 L 367.191406 377.472656 L 382.058594 410.257812 M 351.304688 371.5 L 336.4375 338.714844 L 347.363281 333.757812 L 362.234375 366.542969 M 331.480469 327.785156 L 326.148438 316.027344 L 337.078125 311.070312 L 342.410156 322.828125 " fill-opacity="1" fill-rule="nonzero"/><path fill="#1f8785" d="M 230.191406 591.308594 L 266.191406 591.308594 L 266.191406 603.308594 L 230.191406 603.308594 M 278.191406 591.308594 L 314.191406 591.308594 L 314.191406 603.308594 L 278.191406 603.308594 M 326.191406 591.308594 L 362.191406 591.308594 L 362.191406 603.308594 L 326.191406 603.308594 M 374.191406 591.308594 L 396.601562 591.308594 L 396.601562 603.308594 L 374.191406 603.308594 " fill-opacity="1" fill-rule="nonzero"/></svg>