<svg xmlns="http://www.w3.org/2000/svg" xmlns:xlink="http://www.w3.org/1999/xlink" width="794" zoomAndPan="magnify" viewBox="0 0 594.95996 842.24997" height="1123" preserveAspectRatio="xMidYMid meet" version="1.0"><defs><clipPath id="f08cd2b55a"><path d="M 53 119 L 542 119 L 542 722.15625 L 53 722.15625 Z M 53 119 " clip-rule="nonzero"/></clipPath></defs><path stroke-linecap="butt" transform="matrix(0.749333, 0, 0, 0.749333, 213.754197, 453.13351)" fill="none" stroke-linejoin="miter" d="M -0.000387668 2.00085 L 229.949003 2.00085 " stroke="#000000" stroke-width="4" stroke-opacity="1" stroke-miterlimit="4"/><path stroke-linecap="round" transform="matrix(0.749333, 0, 0, 0.749333, 213.754197, 453.13351)" fill="none" stroke-linejoin="round" d="M 221.947092 -3.99928 L 229.949003 2.00085 L 221.947092 8.00098 " stroke="#000000" stroke-width="4" stroke-opacity="1" stroke-miterlimit="4"/><path fill="#ffffff" d="M 476.863281 716.480469 C 452.015625 716.480469 429.578125 700.800781 421.023438 677.46875 L 381.605469 569.914062 L 213.152344 569.914062 L 178.28125 675.632812 C 170.21875 700.066406 147.523438 716.480469 121.804688 716.480469 L 118.242188 716.480469 C 98.949219 716.480469 80.789062 707.070312 69.664062 691.3125 C 58.535156 675.554688 55.742188 655.292969 62.195312 637.109375 L 226.898438 172.875 C 237.132812 144.03125 264.570312 124.652344 295.167969 124.652344 C 325.476562 124.652344 352.824219 143.78125 363.214844 172.253906 L 532.726562 636.601562 C 539.382812 654.824219 536.714844 675.191406 525.597656 691.089844 C 514.480469 706.988281 496.257812 716.480469 476.863281 716.480469 Z M 338.769531 453.851562 L 295.226562 335.6875 L 254.175781 453.851562 Z M 338.769531 453.851562 " fill-opacity="1" fill-rule="nonzero"/><g clip-path="url(#f08cd2b55a)"><path fill="#000000" d="M 295.167969 124.652344 C 325.476562 124.652344 352.824219 143.78125 363.214844 172.253906 L 532.726562 636.601562 C 539.382812 654.824219 536.714844 675.191406 525.597656 691.089844 C 514.480469 706.988281 496.257812 716.480469 476.863281 716.480469 C 452.015625 716.480469 429.578125 700.800781 421.027344 677.46875 L 381.605469 569.914062 L 213.152344 569.914062 L 178.28125 675.632812 C 170.21875 700.066406 147.523438 716.480469 121.804688 716.480469 L 118.242188 716.480469 C 98.949219 716.480469 80.789062 707.070312 69.664062 691.3125 C 58.535156 675.554688 55.742188 655.289062 62.195312 637.109375 L 226.898438 172.875 C 237.132812 144.03125 264.570312 124.652344 295.167969 124.652344 M 254.175781 453.851562 L 338.769531 453.851562 L 295.226562 335.6875 L 254.175781 453.851562 M 295.167969 119.105469 C 262.226562 119.105469 232.691406 139.96875 221.675781 171.019531 L 56.96875 635.253906 C 49.917969 655.132812 52.96875 677.285156 65.132812 694.511719 C 77.300781 711.738281 97.152344 722.023438 118.242188 722.023438 L 121.804688 722.023438 C 149.921875 722.023438 174.734375 704.078125 183.546875 677.371094 L 217.160156 575.457031 L 377.734375 575.457031 L 415.820312 679.378906 C 425.167969 704.886719 449.699219 722.023438 476.863281 722.023438 C 498.066406 722.023438 517.984375 711.648438 530.140625 694.269531 C 542.292969 676.890625 545.207031 654.621094 537.933594 634.699219 L 368.421875 170.351562 C 357.234375 139.699219 327.796875 119.105469 295.167969 119.105469 Z M 261.972656 448.308594 L 295.378906 352.140625 L 330.816406 448.308594 Z M 261.972656 448.308594 " fill-opacity="1" fill-rule="nonzero"/></g><path fill="#58595b" d="M 392.289062 513.277344 L 381.199219 513.277344 L 381.199219 510.507812 L 392.289062 510.507812 Z M 370.109375 513.277344 L 359.023438 513.277344 L 359.023438 510.507812 L 370.109375 510.507812 Z M 347.933594 513.277344 L 336.847656 513.277344 L 336.847656 510.507812 L 347.933594 510.507812 Z M 325.757812 513.277344 L 314.667969 513.277344 L 314.667969 510.507812 L 325.757812 510.507812 Z M 303.582031 513.277344 L 292.492188 513.277344 L 292.492188 510.507812 L 303.582031 510.507812 Z M 281.402344 513.277344 L 270.316406 513.277344 L 270.316406 510.507812 L 281.402344 510.507812 Z M 259.226562 513.277344 L 248.136719 513.277344 L 248.136719 510.507812 L 259.226562 510.507812 Z M 237.050781 513.277344 L 225.960938 513.277344 L 225.960938 510.507812 L 237.050781 510.507812 Z M 237.050781 513.277344 " fill-opacity="1" fill-rule="nonzero"/><path fill="#58595b" d="M 409.964844 511.597656 L 390.316406 500.25 L 390.316406 522.945312 Z M 409.964844 511.597656 " fill-opacity="1" fill-rule="nonzero"/><path fill="#58595b" d="M 482.039062 672.207031 L 478.234375 661.789062 L 480.839844 660.835938 L 484.640625 671.253906 Z M 474.429688 651.371094 L 470.628906 640.953125 L 473.230469 640.003906 L 477.035156 650.417969 Z M 466.824219 630.535156 L 463.023438 620.117188 L 465.625 619.167969 L 469.429688 629.585938 Z M 459.21875 609.699219 L 455.417969 599.28125 L 458.019531 598.332031 L 461.824219 608.75 Z M 451.613281 588.863281 L 447.808594 578.449219 L 450.414062 577.496094 L 454.21875 587.914062 Z M 444.007812 568.03125 L 440.207031 557.613281 L 442.808594 556.660156 L 446.613281 567.078125 Z M 436.402344 547.195312 L 432.597656 536.777344 L 435.203125 535.828125 L 439.003906 546.242188 Z M 428.796875 526.359375 L 424.992188 515.941406 L 427.597656 514.992188 L 431.398438 525.410156 Z M 421.191406 505.523438 L 417.386719 495.105469 L 419.992188 494.15625 L 423.792969 504.574219 Z M 413.582031 484.691406 L 409.78125 474.273438 L 412.386719 473.320312 L 416.1875 483.738281 Z M 405.976562 463.855469 L 402.175781 453.4375 L 404.777344 452.484375 L 408.582031 462.902344 Z M 398.371094 443.019531 L 394.570312 432.601562 L 397.171875 431.652344 L 400.976562 442.066406 Z M 390.765625 422.183594 L 386.964844 411.765625 L 389.566406 410.816406 L 393.371094 421.234375 Z M 383.160156 401.347656 L 379.359375 390.933594 L 381.960938 389.980469 L 385.765625 400.398438 Z M 375.554688 380.515625 L 371.75 370.097656 L 374.355469 369.144531 L 378.15625 379.5625 Z M 367.949219 359.679688 L 364.144531 349.261719 L 366.75 348.308594 L 370.550781 358.726562 Z M 360.34375 338.84375 L 356.539062 328.425781 L 359.144531 327.476562 L 362.945312 337.894531 Z M 352.738281 318.007812 L 348.933594 307.589844 L 351.539062 306.640625 L 355.339844 317.058594 Z M 345.132812 297.171875 L 341.328125 286.757812 L 343.933594 285.804688 L 347.734375 296.222656 Z M 337.523438 276.339844 L 333.722656 265.921875 L 336.324219 264.96875 L 340.128906 275.386719 Z M 329.917969 255.503906 L 326.730469 246.765625 L 329.332031 245.8125 L 332.523438 254.550781 Z M 329.917969 255.503906 " fill-opacity="1" fill-rule="nonzero"/><path fill="#58595b" d="M 278.570312 204.488281 L 280.425781 199.261719 L 283.039062 200.191406 L 281.183594 205.414062 Z M 278.570312 204.488281 " fill-opacity="1" fill-rule="nonzero"/><path fill="#58595b" d="M 121.148438 656.46875 L 118.535156 655.542969 L 122.171875 645.292969 L 124.785156 646.21875 Z M 128.421875 635.96875 L 125.808594 635.039062 L 129.445312 624.789062 L 132.058594 625.714844 Z M 135.695312 615.464844 L 133.082031 614.539062 L 136.71875 604.285156 L 139.332031 605.214844 Z M 142.96875 594.960938 L 140.355469 594.035156 L 143.996094 583.78125 L 146.605469 584.710938 Z M 150.246094 574.460938 L 147.632812 573.53125 L 151.269531 563.28125 L 153.882812 564.207031 Z M 157.519531 553.957031 L 154.90625 553.03125 L 158.542969 542.777344 L 161.15625 543.707031 Z M 164.792969 533.453125 L 162.179688 532.527344 L 165.816406 522.277344 L 168.429688 523.203125 Z M 172.066406 512.953125 L 169.453125 512.023438 L 173.089844 501.773438 L 175.703125 502.699219 Z M 179.339844 492.449219 L 176.726562 491.523438 L 180.363281 481.269531 L 182.976562 482.199219 Z M 186.613281 471.945312 L 184.003906 471.019531 L 187.640625 460.769531 L 190.25 461.695312 Z M 193.890625 451.445312 L 191.277344 450.515625 L 194.914062 440.265625 L 197.527344 441.191406 Z M 201.164062 430.941406 L 198.550781 430.015625 L 202.1875 419.761719 L 204.800781 420.691406 Z M 208.4375 410.4375 L 205.824219 409.511719 L 209.460938 399.261719 L 212.074219 400.1875 Z M 215.710938 389.9375 L 213.097656 389.007812 L 216.734375 378.757812 L 219.347656 379.683594 Z M 222.984375 369.433594 L 220.375 368.507812 L 224.011719 358.253906 L 226.621094 359.183594 Z M 230.261719 348.929688 L 227.648438 348.003906 L 231.285156 337.753906 L 233.898438 338.679688 Z M 237.535156 328.429688 L 234.921875 327.5 L 238.558594 317.25 L 241.171875 318.175781 Z M 244.808594 307.925781 L 242.195312 307 L 245.832031 296.746094 L 248.445312 297.675781 Z M 252.082031 287.421875 L 249.46875 286.496094 L 253.105469 276.246094 L 255.71875 277.171875 Z M 259.355469 266.921875 L 256.742188 265.992188 L 260.382812 255.742188 L 262.992188 256.667969 Z M 266.628906 246.417969 L 264.019531 245.492188 L 267.65625 235.238281 L 270.269531 236.167969 Z M 273.90625 225.914062 L 271.292969 224.988281 L 274.929688 214.738281 L 277.542969 215.664062 Z M 273.90625 225.914062 " fill-opacity="1" fill-rule="nonzero"/><path fill="#58595b" d="M 113.042969 671.03125 L 114.898438 665.804688 L 117.511719 666.734375 L 115.65625 671.957031 Z M 113.042969 671.03125 " fill-opacity="1" fill-rule="nonzero"/><path fill="#414042" d="M 312.210938 184.945312 C 312.210938 185.855469 312.164062 186.765625 312.074219 187.675781 C 311.988281 188.582031 311.851562 189.484375 311.675781 190.382812 C 311.496094 191.277344 311.273438 192.160156 311.011719 193.035156 C 310.746094 193.90625 310.4375 194.765625 310.089844 195.609375 C 309.738281 196.453125 309.351562 197.277344 308.917969 198.082031 C 308.488281 198.886719 308.019531 199.667969 307.511719 200.429688 C 307.007812 201.1875 306.464844 201.917969 305.882812 202.625 C 305.304688 203.332031 304.691406 204.007812 304.046875 204.652344 C 303.402344 205.296875 302.726562 205.910156 302.019531 206.488281 C 301.316406 207.066406 300.582031 207.609375 299.824219 208.117188 C 299.066406 208.625 298.285156 209.09375 297.480469 209.523438 C 296.675781 209.953125 295.851562 210.34375 295.007812 210.695312 C 294.164062 211.042969 293.304688 211.351562 292.429688 211.617188 C 291.558594 211.878906 290.675781 212.101562 289.777344 212.28125 C 288.882812 212.457031 287.980469 212.59375 287.074219 212.679688 C 286.164062 212.769531 285.253906 212.816406 284.34375 212.816406 C 283.429688 212.816406 282.519531 212.769531 281.609375 212.679688 C 280.703125 212.59375 279.800781 212.457031 278.90625 212.28125 C 278.011719 212.101562 277.125 211.878906 276.253906 211.617188 C 275.378906 211.351562 274.519531 211.042969 273.675781 210.695312 C 272.832031 210.34375 272.011719 209.953125 271.203125 209.523438 C 270.398438 209.09375 269.617188 208.625 268.859375 208.117188 C 268.101562 207.609375 267.367188 207.066406 266.664062 206.488281 C 265.957031 205.910156 265.28125 205.296875 264.636719 204.652344 C 263.992188 204.007812 263.378906 203.332031 262.800781 202.625 C 262.21875 201.917969 261.675781 201.1875 261.171875 200.429688 C 260.664062 199.667969 260.195312 198.886719 259.765625 198.082031 C 259.335938 197.277344 258.945312 196.453125 258.59375 195.609375 C 258.246094 194.765625 257.9375 193.90625 257.671875 193.035156 C 257.410156 192.160156 257.1875 191.277344 257.007812 190.382812 C 256.832031 189.484375 256.699219 188.582031 256.609375 187.675781 C 256.519531 186.765625 256.472656 185.855469 256.472656 184.945312 C 256.472656 184.03125 256.519531 183.121094 256.609375 182.210938 C 256.699219 181.304688 256.832031 180.402344 257.007812 179.503906 C 257.1875 178.609375 257.410156 177.726562 257.671875 176.851562 C 257.9375 175.980469 258.246094 175.121094 258.59375 174.277344 C 258.945312 173.433594 259.335938 172.609375 259.765625 171.804688 C 260.195312 171 260.664062 170.21875 261.171875 169.457031 C 261.675781 168.699219 262.21875 167.96875 262.800781 167.261719 C 263.378906 166.554688 263.992188 165.878906 264.636719 165.234375 C 265.28125 164.589844 265.957031 163.976562 266.664062 163.398438 C 267.367188 162.820312 268.101562 162.277344 268.859375 161.769531 C 269.617188 161.261719 270.398438 160.792969 271.203125 160.363281 C 272.011719 159.933594 272.832031 159.542969 273.675781 159.191406 C 274.519531 158.84375 275.378906 158.535156 276.253906 158.269531 C 277.125 158.007812 278.011719 157.785156 278.90625 157.605469 C 279.800781 157.429688 280.703125 157.292969 281.609375 157.207031 C 282.519531 157.117188 283.429688 157.070312 284.34375 157.070312 C 285.253906 157.070312 286.164062 157.117188 287.074219 157.207031 C 287.980469 157.292969 288.882812 157.429688 289.777344 157.605469 C 290.675781 157.785156 291.558594 158.007812 292.429688 158.269531 C 293.304688 158.535156 294.164062 158.84375 295.007812 159.191406 C 295.851562 159.542969 296.675781 159.933594 297.480469 160.363281 C 298.285156 160.792969 299.066406 161.261719 299.824219 161.769531 C 300.582031 162.277344 301.316406 162.820312 302.019531 163.398438 C 302.726562 163.976562 303.402344 164.589844 304.046875 165.234375 C 304.691406 165.878906 305.304688 166.554688 305.882812 167.261719 C 306.464844 167.96875 307.007812 168.699219 307.511719 169.457031 C 308.019531 170.21875 308.488281 171 308.917969 171.804688 C 309.351562 172.609375 309.738281 173.433594 310.089844 174.277344 C 310.4375 175.121094 310.746094 175.980469 311.011719 176.851562 C 311.273438 177.726562 311.496094 178.609375 311.675781 179.503906 C 311.851562 180.402344 311.988281 181.304688 312.074219 182.210938 C 312.164062 183.121094 312.210938 184.03125 312.210938 184.945312 Z M 312.210938 184.945312 " fill-opacity="1" fill-rule="nonzero"/><path fill="#fcfcfc" d="M 287.570312 165.859375 L 283.992188 165.859375 C 283.585938 165.859375 283.199219 166.039062 282.933594 166.347656 L 272.398438 178.675781 C 271.933594 179.226562 271.960938 180.042969 272.472656 180.558594 L 274.476562 182.558594 C 275.019531 183.097656 275.890625 183.097656 276.429688 182.566406 L 282.605469 176.46875 L 282.605469 203.179688 C 282.605469 203.941406 283.226562 204.5625 283.988281 204.5625 L 287.570312 204.5625 C 288.332031 204.5625 288.953125 203.941406 288.953125 203.179688 L 288.953125 167.246094 C 288.957031 166.484375 288.332031 165.859375 287.570312 165.859375 Z M 287.570312 165.859375 " fill-opacity="1" fill-rule="nonzero"/><path fill="#414042" d="M 348.414062 240.6875 C 348.414062 241.601562 348.371094 242.511719 348.28125 243.421875 C 348.191406 244.328125 348.058594 245.230469 347.878906 246.125 C 347.703125 247.019531 347.480469 247.90625 347.214844 248.777344 C 346.949219 249.652344 346.644531 250.511719 346.292969 251.355469 C 345.945312 252.199219 345.554688 253.023438 345.125 253.828125 C 344.695312 254.632812 344.226562 255.414062 343.71875 256.171875 C 343.210938 256.933594 342.667969 257.664062 342.089844 258.371094 C 341.511719 259.074219 340.898438 259.75 340.253906 260.398438 C 339.609375 261.042969 338.933594 261.65625 338.226562 262.234375 C 337.519531 262.8125 336.789062 263.355469 336.03125 263.863281 C 335.269531 264.371094 334.488281 264.839844 333.683594 265.269531 C 332.878906 265.699219 332.054688 266.089844 331.210938 266.4375 C 330.367188 266.789062 329.511719 267.09375 328.636719 267.359375 C 327.761719 267.625 326.878906 267.847656 325.984375 268.023438 C 325.089844 268.203125 324.1875 268.335938 323.277344 268.425781 C 322.371094 268.515625 321.460938 268.5625 320.546875 268.5625 C 319.632812 268.5625 318.722656 268.515625 317.816406 268.425781 C 316.90625 268.335938 316.003906 268.203125 315.109375 268.023438 C 314.214844 267.847656 313.332031 267.625 312.457031 267.359375 C 311.585938 267.09375 310.726562 266.789062 309.882812 266.4375 C 309.039062 266.089844 308.214844 265.699219 307.410156 265.269531 C 306.605469 264.839844 305.824219 264.371094 305.0625 263.863281 C 304.304688 263.355469 303.574219 262.8125 302.867188 262.234375 C 302.164062 261.65625 301.488281 261.042969 300.839844 260.398438 C 300.195312 259.75 299.582031 259.074219 299.003906 258.371094 C 298.425781 257.664062 297.882812 256.933594 297.375 256.171875 C 296.867188 255.414062 296.398438 254.632812 295.96875 253.828125 C 295.539062 253.023438 295.148438 252.199219 294.800781 251.355469 C 294.449219 250.511719 294.144531 249.652344 293.878906 248.777344 C 293.613281 247.90625 293.390625 247.019531 293.214844 246.125 C 293.035156 245.230469 292.902344 244.328125 292.8125 243.421875 C 292.722656 242.511719 292.679688 241.601562 292.679688 240.6875 C 292.679688 239.777344 292.722656 238.863281 292.8125 237.957031 C 292.902344 237.046875 293.035156 236.144531 293.214844 235.25 C 293.390625 234.355469 293.613281 233.472656 293.878906 232.597656 C 294.144531 231.722656 294.449219 230.867188 294.800781 230.023438 C 295.148438 229.179688 295.539062 228.355469 295.96875 227.550781 C 296.398438 226.746094 296.867188 225.960938 297.375 225.203125 C 297.882812 224.445312 298.425781 223.710938 299.003906 223.007812 C 299.582031 222.300781 300.195312 221.625 300.839844 220.980469 C 301.488281 220.332031 302.164062 219.722656 302.867188 219.140625 C 303.574219 218.5625 304.304688 218.019531 305.0625 217.511719 C 305.824219 217.007812 306.605469 216.539062 307.410156 216.105469 C 308.214844 215.675781 309.039062 215.285156 309.882812 214.9375 C 310.726562 214.589844 311.585938 214.28125 312.457031 214.015625 C 313.332031 213.75 314.214844 213.53125 315.109375 213.351562 C 316.003906 213.171875 316.90625 213.039062 317.816406 212.949219 C 318.722656 212.859375 319.632812 212.816406 320.546875 212.816406 C 321.460938 212.816406 322.371094 212.859375 323.277344 212.949219 C 324.1875 213.039062 325.089844 213.171875 325.984375 213.351562 C 326.878906 213.53125 327.761719 213.75 328.636719 214.015625 C 329.511719 214.28125 330.367188 214.589844 331.210938 214.9375 C 332.054688 215.285156 332.878906 215.675781 333.683594 216.105469 C 334.488281 216.539062 335.269531 217.007812 336.03125 217.511719 C 336.789062 218.019531 337.519531 218.5625 338.226562 219.140625 C 338.933594 219.722656 339.609375 220.332031 340.253906 220.980469 C 340.898438 221.625 341.511719 222.300781 342.089844 223.007812 C 342.667969 223.710938 343.210938 224.445312 343.71875 225.203125 C 344.226562 225.960938 344.695312 226.746094 345.125 227.550781 C 345.554688 228.355469 345.945312 229.179688 346.292969 230.023438 C 346.644531 230.867188 346.949219 231.722656 347.214844 232.597656 C 347.480469 233.472656 347.703125 234.355469 347.878906 235.25 C 348.058594 236.144531 348.191406 237.046875 348.28125 237.957031 C 348.371094 238.863281 348.414062 239.777344 348.414062 240.6875 Z M 348.414062 240.6875 " fill-opacity="1" fill-rule="nonzero"/><path fill="#fcfcfc" d="M 331.714844 253.953125 L 316.046875 253.953125 C 316.25 253.574219 316.527344 253.1875 316.890625 252.792969 C 317.875 251.703125 319.457031 250.257812 321.589844 248.507812 L 321.5625 248.476562 C 321.886719 248.253906 322.246094 247.949219 322.652344 247.597656 C 325.671875 245.046875 328.085938 242.535156 329.828125 240.140625 C 331.679688 237.597656 332.625 234.664062 332.625 231.421875 C 332.625 228.21875 331.53125 225.609375 329.375 223.671875 C 327.257812 221.78125 324.425781 220.816406 320.964844 220.816406 C 318.539062 220.816406 316.167969 221.421875 313.917969 222.613281 C 311.691406 223.792969 309.785156 225.457031 308.257812 227.550781 C 307.832031 228.136719 307.929688 228.949219 308.480469 229.417969 L 311.378906 231.898438 C 311.664062 232.144531 312.03125 232.269531 312.433594 232.21875 C 312.8125 232.175781 313.15625 231.976562 313.386719 231.667969 C 314.5 230.171875 315.707031 229.023438 316.976562 228.261719 C 319.40625 226.785156 322.796875 226.789062 324.539062 228.367188 C 325.382812 229.132812 325.792969 230.132812 325.792969 231.421875 C 325.792969 233.585938 325.253906 235.433594 324.136719 237.070312 C 322.957031 238.8125 321.253906 240.632812 319.039062 242.511719 C 318.917969 242.617188 318.34375 243.089844 317.292969 243.941406 C 315.476562 245.441406 313.992188 246.757812 312.882812 247.84375 C 311.734375 248.976562 310.757812 250.273438 309.980469 251.699219 C 309.152344 253.214844 308.726562 254.886719 308.726562 256.65625 L 308.726562 258.921875 C 308.726562 259.683594 309.351562 260.308594 310.113281 260.308594 L 331.710938 260.308594 C 332.476562 260.308594 333.097656 259.683594 333.097656 258.921875 L 333.097656 255.335938 C 333.101562 254.574219 332.476562 253.953125 331.714844 253.953125 Z M 331.714844 253.953125 " fill-opacity="1" fill-rule="nonzero"/><path fill="#414042" d="M 247.9375 511.597656 C 247.9375 512.511719 247.894531 513.421875 247.804688 514.328125 C 247.714844 515.238281 247.582031 516.140625 247.402344 517.035156 C 247.226562 517.929688 247.003906 518.8125 246.738281 519.6875 C 246.472656 520.5625 246.167969 521.417969 245.816406 522.261719 C 245.46875 523.105469 245.078125 523.929688 244.648438 524.734375 C 244.21875 525.542969 243.75 526.324219 243.242188 527.082031 C 242.734375 527.839844 242.191406 528.574219 241.613281 529.277344 C 241.035156 529.984375 240.421875 530.660156 239.777344 531.304688 C 239.132812 531.953125 238.457031 532.5625 237.75 533.144531 C 237.042969 533.722656 236.3125 534.265625 235.554688 534.773438 C 234.792969 535.277344 234.011719 535.746094 233.207031 536.179688 C 232.402344 536.609375 231.578125 537 230.734375 537.347656 C 229.890625 537.695312 229.035156 538.003906 228.160156 538.269531 C 227.289062 538.535156 226.402344 538.753906 225.507812 538.933594 C 224.613281 539.113281 223.710938 539.246094 222.800781 539.335938 C 221.894531 539.425781 220.984375 539.46875 220.070312 539.46875 C 219.15625 539.46875 218.246094 539.425781 217.339844 539.335938 C 216.429688 539.246094 215.527344 539.113281 214.632812 538.933594 C 213.738281 538.753906 212.855469 538.535156 211.980469 538.269531 C 211.109375 538.003906 210.25 537.695312 209.40625 537.347656 C 208.5625 537 207.738281 536.609375 206.933594 536.179688 C 206.128906 535.746094 205.347656 535.277344 204.589844 534.773438 C 203.828125 534.265625 203.097656 533.722656 202.390625 533.144531 C 201.6875 532.5625 201.011719 531.953125 200.363281 531.304688 C 199.71875 530.660156 199.109375 529.984375 198.527344 529.277344 C 197.949219 528.574219 197.40625 527.839844 196.898438 527.082031 C 196.390625 526.324219 195.921875 525.539062 195.492188 524.734375 C 195.0625 523.929688 194.671875 523.105469 194.324219 522.261719 C 193.976562 521.417969 193.667969 520.5625 193.402344 519.6875 C 193.136719 518.8125 192.917969 517.929688 192.738281 517.035156 C 192.558594 516.140625 192.425781 515.238281 192.335938 514.328125 C 192.246094 513.421875 192.203125 512.511719 192.203125 511.597656 C 192.203125 510.683594 192.246094 509.773438 192.335938 508.863281 C 192.425781 507.957031 192.558594 507.054688 192.738281 506.160156 C 192.917969 505.265625 193.136719 504.378906 193.402344 503.507812 C 193.667969 502.632812 193.976562 501.773438 194.324219 500.929688 C 194.671875 500.085938 195.0625 499.261719 195.492188 498.457031 C 195.921875 497.652344 196.390625 496.871094 196.898438 496.113281 C 197.40625 495.351562 197.949219 494.621094 198.527344 493.914062 C 199.109375 493.210938 199.71875 492.535156 200.363281 491.886719 C 201.011719 491.242188 201.6875 490.628906 202.390625 490.050781 C 203.097656 489.472656 203.828125 488.929688 204.589844 488.421875 C 205.347656 487.914062 206.128906 487.445312 206.933594 487.015625 C 207.738281 486.585938 208.5625 486.195312 209.40625 485.847656 C 210.25 485.496094 211.109375 485.191406 211.980469 484.925781 C 212.855469 484.660156 213.738281 484.4375 214.632812 484.261719 C 215.527344 484.082031 216.429688 483.949219 217.339844 483.859375 C 218.246094 483.769531 219.15625 483.722656 220.070312 483.722656 C 220.984375 483.722656 221.894531 483.769531 222.800781 483.859375 C 223.710938 483.949219 224.613281 484.082031 225.507812 484.261719 C 226.402344 484.4375 227.289062 484.660156 228.160156 484.925781 C 229.035156 485.191406 229.890625 485.496094 230.734375 485.847656 C 231.578125 486.195312 232.402344 486.585938 233.207031 487.015625 C 234.011719 487.445312 234.792969 487.914062 235.554688 488.421875 C 236.3125 488.929688 237.042969 489.472656 237.75 490.050781 C 238.457031 490.628906 239.132812 491.242188 239.777344 491.886719 C 240.421875 492.535156 241.035156 493.210938 241.613281 493.914062 C 242.191406 494.621094 242.734375 495.351562 243.242188 496.113281 C 243.75 496.871094 244.21875 497.652344 244.648438 498.457031 C 245.078125 499.261719 245.46875 500.085938 245.816406 500.929688 C 246.167969 501.773438 246.472656 502.632812 246.738281 503.507812 C 247.003906 504.378906 247.226562 505.265625 247.402344 506.160156 C 247.582031 507.054688 247.714844 507.957031 247.804688 508.863281 C 247.894531 509.773438 247.9375 510.683594 247.9375 511.597656 Z M 247.9375 511.597656 " fill-opacity="1" fill-rule="nonzero"/><path fill="#fcfcfc" d="M 230.996094 513.328125 C 230.195312 512.195312 229.234375 511.269531 228.128906 510.558594 C 228.886719 509.929688 229.535156 509.179688 230.070312 508.300781 C 231.101562 506.636719 231.621094 504.695312 231.621094 502.542969 C 231.621094 500.476562 231.144531 498.605469 230.195312 496.972656 C 229.242188 495.332031 227.902344 494.03125 226.210938 493.109375 C 224.539062 492.191406 222.632812 491.726562 220.542969 491.726562 C 217.796875 491.726562 215.34375 492.5 213.253906 494.019531 C 211.195312 495.511719 209.589844 497.554688 208.480469 500.089844 C 208.1875 500.746094 208.453125 501.519531 209.078125 501.863281 L 211.976562 503.445312 C 212.3125 503.625 212.703125 503.660156 213.058594 503.546875 C 213.421875 503.433594 213.71875 503.179688 213.886719 502.835938 C 214.703125 501.171875 215.671875 499.886719 216.765625 499.023438 C 217.789062 498.210938 219.023438 497.816406 220.539062 497.816406 C 221.882812 497.816406 222.945312 498.238281 223.785156 499.113281 C 224.640625 499.988281 225.054688 501.113281 225.054688 502.542969 C 225.054688 504.160156 224.609375 505.429688 223.6875 506.417969 C 222.796875 507.378906 221.613281 507.847656 220.070312 507.847656 L 217.753906 507.847656 C 216.988281 507.847656 216.367188 508.46875 216.367188 509.234375 L 216.367188 512.5 C 216.367188 513.265625 216.988281 513.882812 217.753906 513.882812 L 220.28125 513.882812 C 222.089844 513.882812 223.523438 514.441406 224.671875 515.585938 C 225.8125 516.734375 226.371094 518.171875 226.371094 519.980469 C 226.371094 521.71875 225.824219 523.101562 224.703125 524.207031 C 223.570312 525.320312 222.195312 525.863281 220.492188 525.863281 C 219.039062 525.863281 217.8125 525.453125 216.734375 524.605469 C 215.601562 523.714844 214.644531 522.453125 213.898438 520.867188 C 213.730469 520.511719 213.417969 520.25 213.050781 520.132812 C 212.683594 520.015625 212.285156 520.0625 211.941406 520.257812 L 208.78125 522.101562 C 208.183594 522.449219 207.933594 523.183594 208.195312 523.820312 C 209.207031 526.308594 210.765625 528.320312 212.835938 529.800781 C 214.929688 531.300781 217.449219 532.0625 220.328125 532.0625 C 222.617188 532.0625 224.757812 531.546875 226.691406 530.53125 C 228.644531 529.503906 230.210938 528.050781 231.339844 526.207031 C 232.46875 524.355469 233.039062 522.261719 233.039062 519.980469 C 233.042969 517.480469 232.355469 515.242188 230.996094 513.328125 Z M 230.996094 513.328125 " fill-opacity="1" fill-rule="nonzero"/><path fill="#58595b" d="M 110.464844 683.984375 L 126.828125 668.257812 L 105.03125 661.949219 Z M 110.464844 683.984375 " fill-opacity="1" fill-rule="nonzero"/><path fill="#58595b" d="M 486.671875 684.316406 L 470.308594 668.59375 L 492.105469 662.28125 Z M 486.671875 684.316406 " fill-opacity="1" fill-rule="nonzero"/></svg>