<svg xmlns="http://www.w3.org/2000/svg" xmlns:xlink="http://www.w3.org/1999/xlink" width="794" zoomAndPan="magnify" viewBox="0 0 594.95996 842.24997" height="1123" preserveAspectRatio="xMidYMid meet" version="1.0"><defs><g/></defs><g fill="#000000" fill-opacity="1"><g transform="translate(57.929171, 608.138444)"><g><path d="M 219.296875 -440.015625 C 214.609375 -440.015625 212.265625 -442.351562 212.265625 -447.03125 C 212.265625 -451.71875 214.609375 -454.0625 219.296875 -454.0625 C 223.984375 -454.0625 226.328125 -451.71875 226.328125 -447.03125 C 226.328125 -442.351562 223.984375 -440.015625 219.296875 -440.015625 Z M 209.46875 -417.515625 C 204.78125 -417.515625 202.4375 -419.859375 202.4375 -424.546875 C 202.4375 -429.234375 204.78125 -431.578125 209.46875 -431.578125 C 214.144531 -431.578125 216.484375 -429.234375 216.484375 -424.546875 C 216.484375 -419.859375 214.144531 -417.515625 209.46875 -417.515625 Z M 239.6875 -485 C 235 -485 232.65625 -487.34375 232.65625 -492.03125 C 232.65625 -496.707031 235 -499.046875 239.6875 -499.046875 C 244.375 -499.046875 246.71875 -496.707031 246.71875 -492.03125 C 246.71875 -487.34375 244.375 -485 239.6875 -485 Z M 179.9375 -350.046875 C 175.25 -350.046875 172.90625 -352.382812 172.90625 -357.0625 C 172.90625 -361.75 175.25 -364.09375 179.9375 -364.09375 C 184.625 -364.09375 186.96875 -361.75 186.96875 -357.0625 C 186.96875 -352.382812 184.625 -350.046875 179.9375 -350.046875 Z M 170.09375 -327.546875 C 165.414062 -327.546875 163.078125 -329.890625 163.078125 -334.578125 C 163.078125 -339.265625 165.414062 -341.609375 170.09375 -341.609375 C 174.78125 -341.609375 177.125 -339.265625 177.125 -334.578125 C 177.125 -329.890625 174.78125 -327.546875 170.09375 -327.546875 Z M 199.625 -395.03125 C 194.9375 -395.03125 192.59375 -397.367188 192.59375 -402.046875 C 192.59375 -406.734375 194.9375 -409.078125 199.625 -409.078125 C 204.3125 -409.078125 206.65625 -406.734375 206.65625 -402.046875 C 206.65625 -397.367188 204.3125 -395.03125 199.625 -395.03125 Z M 189.78125 -372.53125 C 185.09375 -372.53125 182.75 -374.875 182.75 -379.5625 C 182.75 -384.25 185.09375 -386.59375 189.78125 -386.59375 C 194.46875 -386.59375 196.8125 -384.25 196.8125 -379.5625 C 196.8125 -374.875 194.46875 -372.53125 189.78125 -372.53125 Z M 141.28125 -260.0625 C 136.59375 -260.0625 134.25 -262.40625 134.25 -267.09375 C 134.25 -271.78125 136.59375 -274.125 141.28125 -274.125 C 145.96875 -274.125 148.3125 -271.78125 148.3125 -267.09375 C 148.3125 -262.40625 145.96875 -260.0625 141.28125 -260.0625 Z M 131.4375 -237.578125 C 126.75 -237.578125 124.40625 -239.921875 124.40625 -244.609375 C 124.40625 -249.296875 126.75 -251.640625 131.4375 -251.640625 C 136.125 -251.640625 138.46875 -249.296875 138.46875 -244.609375 C 138.46875 -239.921875 136.125 -237.578125 131.4375 -237.578125 Z M 160.265625 -305.046875 C 155.578125 -305.046875 153.234375 -307.390625 153.234375 -312.078125 C 153.234375 -316.765625 155.578125 -319.109375 160.265625 -319.109375 C 164.941406 -319.109375 167.28125 -316.765625 167.28125 -312.078125 C 167.28125 -307.390625 164.941406 -305.046875 160.265625 -305.046875 Z M 150.421875 -282.5625 C 145.734375 -282.5625 143.390625 -284.90625 143.390625 -289.59375 C 143.390625 -294.28125 145.734375 -296.625 150.421875 -296.625 C 155.109375 -296.625 157.453125 -294.28125 157.453125 -289.59375 C 157.453125 -284.90625 155.109375 -282.5625 150.421875 -282.5625 Z M 121.59375 -215.078125 C 116.914062 -215.078125 114.578125 -217.421875 114.578125 -222.109375 C 114.578125 -226.796875 116.914062 -229.140625 121.59375 -229.140625 C 126.28125 -229.140625 128.625 -226.796875 128.625 -222.109375 C 128.625 -217.421875 126.28125 -215.078125 121.59375 -215.078125 Z M 111.765625 -192.59375 C 107.078125 -192.59375 104.734375 -194.9375 104.734375 -199.625 C 104.734375 -204.3125 107.078125 -206.65625 111.765625 -206.65625 C 116.441406 -206.65625 118.78125 -204.3125 118.78125 -199.625 C 118.78125 -194.9375 116.441406 -192.59375 111.765625 -192.59375 Z M 229.140625 -462.5 C 224.453125 -462.5 222.109375 -464.84375 222.109375 -469.53125 C 222.109375 -474.21875 224.453125 -476.5625 229.140625 -476.5625 C 233.828125 -476.5625 236.171875 -474.21875 236.171875 -469.53125 C 236.171875 -464.84375 233.828125 -462.5 229.140625 -462.5 Z M 92.78125 -147.609375 C 88.09375 -147.609375 85.75 -149.953125 85.75 -154.640625 C 85.75 -159.328125 88.09375 -161.671875 92.78125 -161.671875 C 97.46875 -161.671875 99.8125 -159.328125 99.8125 -154.640625 C 99.8125 -149.953125 97.46875 -147.609375 92.78125 -147.609375 Z M 82.9375 -125.109375 C 78.25 -125.109375 75.90625 -127.453125 75.90625 -132.140625 C 75.90625 -136.828125 78.25 -139.171875 82.9375 -139.171875 C 87.625 -139.171875 89.96875 -136.828125 89.96875 -132.140625 C 89.96875 -127.453125 87.625 -125.109375 82.9375 -125.109375 Z M 53.421875 -57.640625 C 48.734375 -57.640625 46.390625 -59.984375 46.390625 -64.671875 C 46.390625 -69.347656 48.734375 -71.6875 53.421875 -71.6875 C 58.109375 -71.6875 60.453125 -69.347656 60.453125 -64.671875 C 60.453125 -59.984375 58.109375 -57.640625 53.421875 -57.640625 Z M 43.578125 -35.140625 C 38.890625 -35.140625 36.546875 -37.484375 36.546875 -42.171875 C 36.546875 -46.859375 38.890625 -49.203125 43.578125 -49.203125 C 48.265625 -49.203125 50.609375 -46.859375 50.609375 -42.171875 C 50.609375 -37.484375 48.265625 -35.140625 43.578125 -35.140625 Z M 73.09375 -102.625 C 68.414062 -102.625 66.078125 -104.96875 66.078125 -109.65625 C 66.078125 -114.34375 68.414062 -116.6875 73.09375 -116.6875 C 77.78125 -116.6875 80.125 -114.34375 80.125 -109.65625 C 80.125 -104.96875 77.78125 -102.625 73.09375 -102.625 Z M 63.265625 -80.125 C 58.578125 -80.125 56.234375 -82.46875 56.234375 -87.15625 C 56.234375 -91.84375 58.578125 -94.1875 63.265625 -94.1875 C 67.953125 -94.1875 70.296875 -91.84375 70.296875 -87.15625 C 70.296875 -82.46875 67.953125 -80.125 63.265625 -80.125 Z M 33.734375 -12.65625 C 29.046875 -12.65625 26.703125 -15 26.703125 -19.6875 C 26.703125 -24.363281 29.046875 -26.703125 33.734375 -26.703125 C 38.421875 -26.703125 40.765625 -24.363281 40.765625 -19.6875 C 40.765625 -15 38.421875 -12.65625 33.734375 -12.65625 Z M 23.890625 9.84375 C 19.210938 9.84375 16.875 7.5 16.875 2.8125 C 16.875 -1.875 19.210938 -4.21875 23.890625 -4.21875 C 28.578125 -4.21875 30.921875 -1.875 30.921875 2.8125 C 30.921875 7.5 28.578125 9.84375 23.890625 9.84375 Z M 102.625 -170.09375 C 97.9375 -170.09375 95.59375 -172.4375 95.59375 -177.125 C 95.59375 -181.8125 97.9375 -184.15625 102.625 -184.15625 C 107.3125 -184.15625 109.65625 -181.8125 109.65625 -177.125 C 109.65625 -172.4375 107.3125 -170.09375 102.625 -170.09375 Z M 127.21875 -175.71875 C 122.53125 -175.71875 120.1875 -178.0625 120.1875 -182.75 C 120.1875 -187.4375 122.53125 -189.78125 127.21875 -189.78125 C 131.90625 -189.78125 134.25 -187.4375 134.25 -182.75 C 134.25 -178.0625 131.90625 -175.71875 127.21875 -175.71875 Z M 149.71875 -175.71875 C 145.03125 -175.71875 142.6875 -178.0625 142.6875 -182.75 C 142.6875 -187.4375 145.03125 -189.78125 149.71875 -189.78125 C 154.40625 -189.78125 156.75 -187.4375 156.75 -182.75 C 156.75 -178.0625 154.40625 -175.71875 149.71875 -175.71875 Z M 172.203125 -175.71875 C 167.515625 -175.71875 165.171875 -178.0625 165.171875 -182.75 C 165.171875 -187.4375 167.515625 -189.78125 172.203125 -189.78125 C 176.890625 -189.78125 179.234375 -187.4375 179.234375 -182.75 C 179.234375 -178.0625 176.890625 -175.71875 172.203125 -175.71875 Z M 194.703125 -175.71875 C 190.015625 -175.71875 187.671875 -178.0625 187.671875 -182.75 C 187.671875 -187.4375 190.015625 -189.78125 194.703125 -189.78125 C 199.390625 -189.78125 201.734375 -187.4375 201.734375 -182.75 C 201.734375 -178.0625 199.390625 -175.71875 194.703125 -175.71875 Z M 217.1875 -175.71875 C 212.507812 -175.71875 210.171875 -178.0625 210.171875 -182.75 C 210.171875 -187.4375 212.507812 -189.78125 217.1875 -189.78125 C 221.875 -189.78125 224.21875 -187.4375 224.21875 -182.75 C 224.21875 -178.0625 221.875 -175.71875 217.1875 -175.71875 Z M 239.6875 -175.71875 C 235 -175.71875 232.65625 -178.0625 232.65625 -182.75 C 232.65625 -187.4375 235 -189.78125 239.6875 -189.78125 C 244.375 -189.78125 246.71875 -187.4375 246.71875 -182.75 C 246.71875 -178.0625 244.375 -175.71875 239.6875 -175.71875 Z M 262.171875 -175.71875 C 257.492188 -175.71875 255.15625 -178.0625 255.15625 -182.75 C 255.15625 -187.4375 257.492188 -189.78125 262.171875 -189.78125 C 266.859375 -189.78125 269.203125 -187.4375 269.203125 -182.75 C 269.203125 -178.0625 266.859375 -175.71875 262.171875 -175.71875 Z M 284.671875 -175.71875 C 279.984375 -175.71875 277.640625 -178.0625 277.640625 -182.75 C 277.640625 -187.4375 279.984375 -189.78125 284.671875 -189.78125 C 289.359375 -189.78125 291.703125 -187.4375 291.703125 -182.75 C 291.703125 -178.0625 289.359375 -175.71875 284.671875 -175.71875 Z M 307.15625 -175.71875 C 302.476562 -175.71875 300.140625 -178.0625 300.140625 -182.75 C 300.140625 -187.4375 302.476562 -189.78125 307.15625 -189.78125 C 311.84375 -189.78125 314.1875 -187.4375 314.1875 -182.75 C 314.1875 -178.0625 311.84375 -175.71875 307.15625 -175.71875 Z M 329.65625 -175.71875 C 324.96875 -175.71875 322.625 -178.0625 322.625 -182.75 C 322.625 -187.4375 324.96875 -189.78125 329.65625 -189.78125 C 334.34375 -189.78125 336.6875 -187.4375 336.6875 -182.75 C 336.6875 -178.0625 334.34375 -175.71875 329.65625 -175.71875 Z M 352.140625 -175.71875 C 347.460938 -175.71875 345.125 -178.0625 345.125 -182.75 C 345.125 -187.4375 347.460938 -189.78125 352.140625 -189.78125 C 356.828125 -189.78125 359.171875 -187.4375 359.171875 -182.75 C 359.171875 -178.0625 356.828125 -175.71875 352.140625 -175.71875 Z M 260.765625 -440.015625 C 256.085938 -440.015625 253.75 -442.351562 253.75 -447.03125 C 253.75 -451.71875 256.085938 -454.0625 260.765625 -454.0625 C 265.453125 -454.0625 267.796875 -451.71875 267.796875 -447.03125 C 267.796875 -442.351562 265.453125 -440.015625 260.765625 -440.015625 Z M 270.609375 -417.515625 C 265.921875 -417.515625 263.578125 -419.859375 263.578125 -424.546875 C 263.578125 -429.234375 265.921875 -431.578125 270.609375 -431.578125 C 275.296875 -431.578125 277.640625 -429.234375 277.640625 -424.546875 C 277.640625 -419.859375 275.296875 -417.515625 270.609375 -417.515625 Z M 300.140625 -350.046875 C 295.453125 -350.046875 293.109375 -352.382812 293.109375 -357.0625 C 293.109375 -361.75 295.453125 -364.09375 300.140625 -364.09375 C 304.816406 -364.09375 307.15625 -361.75 307.15625 -357.0625 C 307.15625 -352.382812 304.816406 -350.046875 300.140625 -350.046875 Z M 309.96875 -327.546875 C 305.289062 -327.546875 302.953125 -329.890625 302.953125 -334.578125 C 302.953125 -339.265625 305.289062 -341.609375 309.96875 -341.609375 C 314.65625 -341.609375 317 -339.265625 317 -334.578125 C 317 -329.890625 314.65625 -327.546875 309.96875 -327.546875 Z M 280.453125 -395.03125 C 275.765625 -395.03125 273.421875 -397.367188 273.421875 -402.046875 C 273.421875 -406.734375 275.765625 -409.078125 280.453125 -409.078125 C 285.140625 -409.078125 287.484375 -406.734375 287.484375 -402.046875 C 287.484375 -397.367188 285.140625 -395.03125 280.453125 -395.03125 Z M 290.296875 -372.53125 C 285.609375 -372.53125 283.265625 -374.875 283.265625 -379.5625 C 283.265625 -384.25 285.609375 -386.59375 290.296875 -386.59375 C 294.984375 -386.59375 297.328125 -384.25 297.328125 -379.5625 C 297.328125 -374.875 294.984375 -372.53125 290.296875 -372.53125 Z M 338.796875 -260.0625 C 334.109375 -260.0625 331.765625 -262.40625 331.765625 -267.09375 C 331.765625 -271.78125 334.109375 -274.125 338.796875 -274.125 C 343.484375 -274.125 345.828125 -271.78125 345.828125 -267.09375 C 345.828125 -262.40625 343.484375 -260.0625 338.796875 -260.0625 Z M 348.640625 -237.578125 C 343.953125 -237.578125 341.609375 -239.921875 341.609375 -244.609375 C 341.609375 -249.296875 343.953125 -251.640625 348.640625 -251.640625 C 353.316406 -251.640625 355.65625 -249.296875 355.65625 -244.609375 C 355.65625 -239.921875 353.316406 -237.578125 348.640625 -237.578125 Z M 319.8125 -305.046875 C 315.125 -305.046875 312.78125 -307.390625 312.78125 -312.078125 C 312.78125 -316.765625 315.125 -319.109375 319.8125 -319.109375 C 324.5 -319.109375 326.84375 -316.765625 326.84375 -312.078125 C 326.84375 -307.390625 324.5 -305.046875 319.8125 -305.046875 Z M 329.65625 -282.5625 C 324.96875 -282.5625 322.625 -284.90625 322.625 -289.59375 C 322.625 -294.28125 324.96875 -296.625 329.65625 -296.625 C 334.34375 -296.625 336.6875 -294.28125 336.6875 -289.59375 C 336.6875 -284.90625 334.34375 -282.5625 329.65625 -282.5625 Z M 358.46875 -215.078125 C 353.789062 -215.078125 351.453125 -217.421875 351.453125 -222.109375 C 351.453125 -226.796875 353.789062 -229.140625 358.46875 -229.140625 C 363.15625 -229.140625 365.5 -226.796875 365.5 -222.109375 C 365.5 -217.421875 363.15625 -215.078125 358.46875 -215.078125 Z M 368.3125 -192.59375 C 363.625 -192.59375 361.28125 -194.9375 361.28125 -199.625 C 361.28125 -204.3125 363.625 -206.65625 368.3125 -206.65625 C 373 -206.65625 375.34375 -204.3125 375.34375 -199.625 C 375.34375 -194.9375 373 -192.59375 368.3125 -192.59375 Z M 250.9375 -462.5 C 246.25 -462.5 243.90625 -464.84375 243.90625 -469.53125 C 243.90625 -474.21875 246.25 -476.5625 250.9375 -476.5625 C 255.613281 -476.5625 257.953125 -474.21875 257.953125 -469.53125 C 257.953125 -464.84375 255.613281 -462.5 250.9375 -462.5 Z M 387.296875 -147.609375 C 382.609375 -147.609375 380.265625 -149.953125 380.265625 -154.640625 C 380.265625 -159.328125 382.609375 -161.671875 387.296875 -161.671875 C 391.984375 -161.671875 394.328125 -159.328125 394.328125 -154.640625 C 394.328125 -149.953125 391.984375 -147.609375 387.296875 -147.609375 Z M 397.140625 -125.109375 C 392.453125 -125.109375 390.109375 -127.453125 390.109375 -132.140625 C 390.109375 -136.828125 392.453125 -139.171875 397.140625 -139.171875 C 401.816406 -139.171875 404.15625 -136.828125 404.15625 -132.140625 C 404.15625 -127.453125 401.816406 -125.109375 397.140625 -125.109375 Z M 426.65625 -57.640625 C 421.96875 -57.640625 419.625 -59.984375 419.625 -64.671875 C 419.625 -69.347656 421.96875 -71.6875 426.65625 -71.6875 C 431.34375 -71.6875 433.6875 -69.347656 433.6875 -64.671875 C 433.6875 -59.984375 431.34375 -57.640625 426.65625 -57.640625 Z M 436.5 -35.140625 C 431.8125 -35.140625 429.46875 -37.484375 429.46875 -42.171875 C 429.46875 -46.859375 431.8125 -49.203125 436.5 -49.203125 C 441.1875 -49.203125 443.53125 -46.859375 443.53125 -42.171875 C 443.53125 -37.484375 441.1875 -35.140625 436.5 -35.140625 Z M 406.96875 -102.625 C 402.28125 -102.625 399.9375 -104.96875 399.9375 -109.65625 C 399.9375 -114.34375 402.28125 -116.6875 406.96875 -116.6875 C 411.65625 -116.6875 414 -114.34375 414 -109.65625 C 414 -104.96875 411.65625 -102.625 406.96875 -102.625 Z M 416.8125 -80.125 C 412.125 -80.125 409.78125 -82.46875 409.78125 -87.15625 C 409.78125 -91.84375 412.125 -94.1875 416.8125 -94.1875 C 421.5 -94.1875 423.84375 -91.84375 423.84375 -87.15625 C 423.84375 -82.46875 421.5 -80.125 416.8125 -80.125 Z M 446.328125 -12.65625 C 441.648438 -12.65625 439.3125 -15 439.3125 -19.6875 C 439.3125 -24.363281 441.648438 -26.703125 446.328125 -26.703125 C 451.015625 -26.703125 453.359375 -24.363281 453.359375 -19.6875 C 453.359375 -15 451.015625 -12.65625 446.328125 -12.65625 Z M 456.171875 9.84375 C 451.484375 9.84375 449.140625 7.5 449.140625 2.8125 C 449.140625 -1.875 451.484375 -4.21875 456.171875 -4.21875 C 460.859375 -4.21875 463.203125 -1.875 463.203125 2.8125 C 463.203125 7.5 460.859375 9.84375 456.171875 9.84375 Z M 377.453125 -170.09375 C 372.765625 -170.09375 370.421875 -172.4375 370.421875 -177.125 C 370.421875 -181.8125 372.765625 -184.15625 377.453125 -184.15625 C 382.140625 -184.15625 384.484375 -181.8125 384.484375 -177.125 C 384.484375 -172.4375 382.140625 -170.09375 377.453125 -170.09375 Z M 377.453125 -170.09375 "/></g></g></g><path stroke-linecap="butt" transform="matrix(0.307138, -0.683495, 0.683495, 0.307138, 93.630226, 492.550304)" fill="none" stroke-linejoin="miter" d="M 0.0000152927 1.998351 L 317.599981 1.998173 " stroke="#000000" stroke-width="4" stroke-opacity="1" stroke-miterlimit="4"/><path stroke-linecap="round" transform="matrix(0.307138, -0.683495, 0.683495, 0.307138, 93.630226, 492.550304)" fill="none" stroke-linejoin="round" d="M 309.599861 -4.002532 L 317.599981 1.998173 L 309.598262 7.999916 " stroke="#000000" stroke-width="4" stroke-opacity="1" stroke-miterlimit="4"/><path stroke-linecap="butt" transform="matrix(0.300075, 0.686625, -0.686625, 0.300075, 385.805549, 253.544705)" fill="none" stroke-linejoin="miter" d="M 0.000296739 1.998242 L 346.111143 1.997978 " stroke="#000000" stroke-width="4" stroke-opacity="1" stroke-miterlimit="4"/><path stroke-linecap="round" transform="matrix(0.300075, 0.686625, -0.686625, 0.300075, 385.805549, 253.544705)" fill="none" stroke-linejoin="round" d="M 338.11152 -4.00127 L 346.111143 1.997978 L 338.110897 8.002364 " stroke="#000000" stroke-width="4" stroke-opacity="1" stroke-miterlimit="4"/><path stroke-linecap="butt" transform="matrix(0.749333, 0, 0, 0.749333, 213.754197, 453.13351)" fill="none" stroke-linejoin="miter" d="M -0.000387668 2.00085 L 229.949003 2.00085 " stroke="#000000" stroke-width="4" stroke-opacity="1" stroke-miterlimit="4"/><path stroke-linecap="round" transform="matrix(0.749333, 0, 0, 0.749333, 213.754197, 453.13351)" fill="none" stroke-linejoin="round" d="M 221.947092 -3.99928 L 229.949003 2.00085 L 221.947092 8.00098 " stroke="#000000" stroke-width="4" stroke-opacity="1" stroke-miterlimit="4"/></svg>