<svg xmlns="http://www.w3.org/2000/svg" xmlns:xlink="http://www.w3.org/1999/xlink" width="800" zoomAndPan="magnify" viewBox="0 0 600 899.99999" height="1200" preserveAspectRatio="xMidYMid meet" version="1.0"><defs><g/><clipPath id="029b7aa046"><path d="M 124.027344 256.21875 L 165.269531 256.21875 L 165.269531 283.011719 L 124.027344 283.011719 Z M 124.027344 256.21875 " clip-rule="nonzero"/></clipPath><clipPath id="2d466fc7e5"><path d="M 203.808594 248.898438 L 230.601562 248.898438 L 230.601562 290.140625 L 203.808594 290.140625 Z M 203.808594 248.898438 " clip-rule="nonzero"/></clipPath><clipPath id="f747e41673"><path d="M 190.410156 471.097656 L 217.203125 471.097656 L 217.203125 512.34375 L 190.410156 512.34375 Z M 190.410156 471.097656 " clip-rule="nonzero"/></clipPath><clipPath id="801612f1b2"><path d="M 414 513 L 452 513 L 452 547 L 414 547 Z M 414 513 " clip-rule="nonzero"/></clipPath><clipPath id="1c4af52470"><path d="M 450.121094 512.550781 L 462.796875 536.386719 L 426.378906 555.757812 L 413.699219 531.917969 Z M 450.121094 512.550781 " clip-rule="nonzero"/></clipPath><clipPath id="e42ac773f4"><path d="M 450.121094 512.550781 L 462.796875 536.386719 L 426.378906 555.757812 L 413.699219 531.917969 Z M 450.121094 512.550781 " clip-rule="nonzero"/></clipPath><clipPath id="d951307c0a"><path d="M 450.113281 512.554688 L 462.695312 536.207031 L 426.109375 555.664062 L 413.527344 532.011719 Z M 450.113281 512.554688 " clip-rule="nonzero"/></clipPath></defs><path stroke-linecap="butt" transform="matrix(0.75, 0, 0, 0.75, 40.453127, -15.449217)" fill="none" stroke-linejoin="miter" d="M 145.89063 1034.000052 C 123.786463 1034.000052 106.838545 1028.187552 95.046878 1016.562551 C 83.260419 1004.770884 77.364585 987.744842 77.364585 965.479215 L 77.364585 393.223977 C 77.364585 371.119809 83.260419 354.171892 95.046878 342.380224 C 106.838545 330.593766 123.786463 324.697932 145.89063 324.697932 L 387.317726 324.697932 C 436.927104 324.697932 479.171898 332.145849 514.0469 347.046891 C 548.921901 361.786476 575.531278 382.906268 593.869821 410.411478 C 612.369821 437.755229 621.619822 470.588565 621.619822 508.901067 C 621.619822 551.796902 609.177113 587.984404 584.291695 617.458364 C 559.567735 646.927115 525.755234 666.739616 482.85419 676.890659 L 482.85419 661.6667 C 532.468776 669.19795 571.026069 688.026076 598.536487 718.156286 C 626.041697 748.281287 639.796906 787.494831 639.796906 835.796917 C 639.796906 898.838587 618.510447 947.630256 575.937528 982.177133 C 533.369817 1016.72401 474.177106 1034.000052 398.36981 1034.000052 Z M 201.15105 936.494839 L 382.156268 936.494839 C 427.838562 936.494839 461.406272 927.656297 482.85419 909.968796 C 504.307316 892.125045 515.031275 865.432335 515.031275 829.906292 C 515.031275 793.552123 504.307316 766.703163 482.85419 749.343787 C 461.406272 731.828162 427.838562 723.067744 382.156268 723.067744 L 201.15105 723.067744 Z M 201.15105 625.562531 L 365.213559 625.562531 C 409.421894 625.562531 442.411479 617.046906 464.187522 600.020863 C 485.968773 582.828154 496.85419 557.447944 496.85419 523.880234 C 496.85419 490.479191 485.968773 465.265648 464.187522 448.234397 C 442.411479 431.046896 409.421894 422.447937 365.213559 422.447937 L 201.15105 422.447937 Z M 201.15105 625.562531 " stroke="#1f8785" stroke-width="40.239601" stroke-opacity="1" stroke-miterlimit="4"/><g fill="#ffffff" fill-opacity="1"><g transform="translate(40.453127, 760.050742)"><g><path d="M 109.40625 0 C 92.800781 0 80.097656 -4.398438 71.296875 -13.203125 C 62.492188 -22.003906 58.09375 -34.707031 58.09375 -51.3125 L 58.09375 -480.609375 C 58.09375 -497.210938 62.492188 -509.914062 71.296875 -518.71875 C 80.097656 -527.519531 92.800781 -531.921875 109.40625 -531.921875 L 290.484375 -531.921875 C 327.703125 -531.921875 359.390625 -526.382812 385.546875 -515.3125 C 411.703125 -504.25 431.695312 -488.40625 445.53125 -467.78125 C 459.363281 -447.164062 466.28125 -422.519531 466.28125 -393.84375 C 466.28125 -361.65625 456.972656 -334.492188 438.359375 -312.359375 C 419.753906 -290.234375 394.351562 -275.394531 362.15625 -267.84375 L 362.15625 -279.171875 C 399.382812 -273.628906 428.304688 -259.539062 448.921875 -236.90625 C 469.546875 -214.269531 479.859375 -184.847656 479.859375 -148.640625 C 479.859375 -101.359375 463.890625 -64.765625 431.953125 -38.859375 C 400.015625 -12.953125 355.625 0 298.78125 0 Z M 150.90625 -73.1875 L 286.703125 -73.1875 C 320.910156 -73.1875 346.0625 -79.847656 362.15625 -93.171875 C 378.25 -106.503906 386.296875 -126.5 386.296875 -153.15625 C 386.296875 -180.320312 378.25 -200.441406 362.15625 -213.515625 C 346.0625 -226.597656 320.910156 -233.140625 286.703125 -233.140625 L 150.90625 -233.140625 Z M 150.90625 -306.328125 L 273.890625 -306.328125 C 307.085938 -306.328125 331.859375 -312.738281 348.203125 -325.5625 C 364.546875 -338.394531 372.71875 -357.382812 372.71875 -382.53125 C 372.71875 -407.675781 364.546875 -426.660156 348.203125 -439.484375 C 331.859375 -452.316406 307.085938 -458.734375 273.890625 -458.734375 L 150.90625 -458.734375 Z M 150.90625 -306.328125 "/></g></g></g><g clip-path="url(#029b7aa046)"><path fill="#1f8785" d="M 146.128906 282.265625 L 164.789062 259.574219 C 166.195312 257.867188 164.257812 255.453125 162.289062 256.457031 L 145.476562 264.996094 C 144.898438 265.289062 144.210938 265.289062 143.628906 264.996094 L 126.8125 256.457031 C 124.84375 255.453125 122.910156 257.863281 124.3125 259.574219 L 142.976562 282.265625 C 143.792969 283.257812 145.3125 283.257812 146.128906 282.265625 " fill-opacity="1" fill-rule="nonzero"/></g><path fill="#1f8785" d="M 138.554688 722.90625 L 138.554688 686.90625 L 150.554688 686.90625 L 150.554688 722.90625 M 138.554688 674.90625 L 138.554688 638.90625 L 150.554688 638.90625 L 150.554688 674.90625 M 138.554688 626.90625 L 138.554688 590.90625 L 150.554688 590.90625 L 150.554688 626.90625 M 138.554688 578.90625 L 138.554688 542.90625 L 150.554688 542.90625 L 150.554688 578.90625 M 138.554688 530.90625 L 138.554688 494.90625 L 150.554688 494.90625 L 150.554688 530.90625 M 138.554688 482.90625 L 138.554688 446.90625 L 150.554688 446.90625 L 150.554688 482.90625 M 138.554688 434.90625 L 138.554688 398.90625 L 150.554688 398.90625 L 150.554688 434.90625 M 138.554688 386.90625 L 138.554688 350.90625 L 150.554688 350.90625 L 150.554688 386.90625 M 138.554688 338.90625 L 138.554688 302.90625 L 150.554688 302.90625 L 150.554688 338.90625 " fill-opacity="1" fill-rule="nonzero"/><g clip-path="url(#2d466fc7e5)"><path fill="#1f8785" d="M 229.855469 268.039062 L 207.164062 249.378906 C 205.453125 247.972656 203.042969 249.90625 204.042969 251.878906 L 212.582031 268.6875 C 212.878906 269.269531 212.878906 269.957031 212.582031 270.539062 L 204.042969 287.351562 C 203.042969 289.324219 205.453125 291.257812 207.160156 289.851562 L 229.855469 271.191406 C 230.847656 270.375 230.847656 268.855469 229.855469 268.039062 " fill-opacity="1" fill-rule="nonzero"/></g><g clip-path="url(#f747e41673)"><path fill="#1f8785" d="M 216.457031 490.238281 L 193.765625 471.578125 C 192.058594 470.175781 189.648438 472.109375 190.648438 474.082031 L 199.1875 490.890625 C 199.480469 491.472656 199.480469 492.160156 199.1875 492.742188 L 190.648438 509.554688 C 189.644531 511.527344 192.054688 513.460938 193.765625 512.054688 L 216.457031 493.394531 C 217.453125 492.578125 217.453125 491.058594 216.457031 490.238281 " fill-opacity="1" fill-rule="nonzero"/></g><path fill="#1f8785" d="M 417.351562 446.285156 C 425.253906 436.234375 432.035156 426.597656 437.695312 417.375 L 447.921875 423.65625 C 442.019531 433.269531 434.972656 443.285156 426.785156 453.703125 Z M 443.535156 407.28125 C 449.679688 395.941406 453.992188 385.308594 456.46875 375.382812 L 468.109375 378.285156 C 465.390625 389.195312 460.714844 400.765625 454.085938 412.996094 Z M 458.492188 364.382812 C 459.84375 352.640625 458.289062 342.003906 453.835938 332.476562 L 464.707031 327.394531 C 470.121094 338.972656 472.023438 351.757812 470.414062 365.753906 Z M 448.308594 323.15625 C 442.410156 315.046875 434.039062 307.75 423.191406 301.269531 L 429.34375 290.96875 C 441.597656 298.289062 451.152344 306.664062 458.015625 316.097656 Z M 413.085938 295.816406 C 403.628906 291.195312 392.734375 287.074219 380.394531 283.449219 L 383.777344 271.933594 C 396.765625 275.75 408.292969 280.117188 418.355469 285.035156 Z M 369.050781 280.359375 C 358.386719 277.664062 346.789062 275.304688 334.261719 273.269531 L 336.183594 261.425781 C 349.050781 263.511719 360.988281 265.945312 371.988281 268.722656 Z M 322.492188 271.496094 C 311.347656 269.9375 299.527344 268.617188 287.039062 267.539062 L 288.074219 255.585938 C 300.769531 256.683594 312.796875 258.023438 324.15625 259.613281 Z M 275.210938 266.605469 C 267.6875 266.0625 259.9375 265.601562 251.960938 265.222656 L 252.53125 253.234375 C 260.605469 253.617188 268.453125 254.085938 276.074219 254.632812 Z M 275.210938 266.605469 " fill-opacity="1" fill-rule="nonzero"/><path fill="#1f8785" d="M 385.015625 497.820312 L 349.015625 497.820312 L 349.015625 485.820312 L 385.015625 485.820312 M 337.015625 497.820312 L 301.015625 497.820312 L 301.015625 485.820312 L 337.015625 485.820312 M 289.015625 497.820312 L 253.015625 497.820312 L 253.015625 485.820312 L 289.015625 485.820312 M 241.015625 497.820312 L 217.199219 497.820312 L 217.199219 485.820312 L 241.015625 485.820312 " fill-opacity="1" fill-rule="nonzero"/><g clip-path="url(#801612f1b2)"><g clip-path="url(#1c4af52470)"><g clip-path="url(#e42ac773f4)"><g clip-path="url(#d951307c0a)"><path fill="#1f8785" d="M 445.445312 544.539062 L 451.265625 515.742188 C 451.703125 513.570312 448.863281 512.351562 447.589844 514.160156 L 436.757812 529.59375 C 436.382812 530.128906 435.777344 530.449219 435.125 530.460938 L 416.273438 530.820312 C 414.058594 530.859375 413.484375 533.894531 415.527344 534.746094 L 442.660156 546.019531 C 443.847656 546.511719 445.1875 545.796875 445.445312 544.539062 " fill-opacity="1" fill-rule="nonzero"/></g></g></g></g><path fill="#1f8785" d="M 284.324219 716.902344 C 296.882812 716.96875 308.785156 716.695312 320.03125 716.085938 L 320.679688 728.070312 C 309.195312 728.691406 297.058594 728.96875 284.261719 728.902344 Z M 331.855469 715.304688 C 344.46875 714.308594 356.179688 712.851562 366.984375 710.933594 L 369.082031 722.746094 C 357.894531 724.734375 345.800781 726.238281 332.796875 727.265625 Z M 378.496094 708.636719 C 390.957031 705.863281 402.027344 702.394531 411.710938 698.230469 L 416.449219 709.253906 C 406.078125 713.714844 394.296875 717.410156 381.105469 720.347656 Z M 422.027344 693.25 C 432.898438 687.347656 441.535156 680.359375 447.929688 672.277344 L 457.339844 679.722656 C 449.925781 689.089844 440.0625 697.113281 427.75 703.796875 Z M 453.953125 663.152344 C 458.988281 653.84375 461.621094 643.230469 461.851562 631.3125 L 473.851562 631.546875 C 473.582031 645.40625 470.46875 657.84375 464.507812 668.863281 Z M 461.390625 620.023438 C 460.390625 609.675781 457.804688 598.46875 453.640625 586.402344 L 464.980469 582.488281 C 469.457031 595.449219 472.242188 607.574219 473.335938 618.863281 Z M 449.515625 575.4375 C 448.195312 572.191406 446.773438 568.890625 445.246094 565.53125 L 456.171875 560.5625 C 457.765625 564.070312 459.253906 567.523438 460.632812 570.925781 Z M 449.515625 575.4375 " fill-opacity="1" fill-rule="nonzero"/></svg>