<svg xmlns="http://www.w3.org/2000/svg" xmlns:xlink="http://www.w3.org/1999/xlink" width="794" zoomAndPan="magnify" viewBox="0 0 594.95996 842.24997" height="1123" preserveAspectRatio="xMidYMid meet" version="1.0"><defs><clipPath id="639684b49a"><path d="M 67.054688 95.449219 L 527.894531 95.449219 L 527.894531 745.871094 L 67.054688 745.871094 Z M 67.054688 95.449219 " clip-rule="nonzero"/></clipPath></defs><path fill="#ffffff" d="M 137.074219 739.621094 C 101.753906 739.621094 73.023438 710.863281 73.023438 675.511719 L 73.023438 165.835938 C 73.023438 130.488281 101.753906 101.726562 137.074219 101.726562 L 295.828125 101.726562 C 355.214844 101.726562 403.335938 118.195312 438.859375 150.667969 C 475.339844 184.039062 493.839844 228.40625 493.839844 282.550781 C 493.839844 317.605469 485.535156 348.574219 469.152344 374.59375 C 465.125 380.996094 460.632812 387.035156 455.71875 392.671875 C 468.105469 401.859375 478.972656 412.710938 488.195312 425.097656 C 510.585938 455.230469 521.933594 494.089844 521.933594 540.605469 C 521.933594 601.011719 502.800781 649.925781 465.078125 685.984375 C 427.808594 721.578125 377.261719 739.621094 314.832031 739.621094 Z M 306.570312 614.527344 C 331.972656 614.527344 350.671875 608.265625 363.730469 595.378906 C 376.808594 582.464844 382.902344 565.058594 382.902344 540.605469 C 382.902344 516.253906 376.867188 499.035156 363.902344 486.414062 C 350.824219 473.695312 332.070312 467.507812 306.570312 467.507812 L 208.746094 467.507812 L 208.746094 614.527344 Z M 303.261719 342.414062 C 335.914062 342.414062 354.8125 332.617188 354.8125 282.550781 C 354.8125 263.574219 350.378906 250.582031 340.867188 241.667969 C 330.792969 232.238281 315.78125 227.648438 295 227.648438 L 208.746094 227.648438 L 208.746094 342.414062 Z M 303.261719 342.414062 " fill-opacity="1" fill-rule="nonzero"/><g clip-path="url(#639684b49a)"><path fill="#000000" d="M 295.828125 101.726562 C 355.214844 101.726562 403.335938 118.195312 438.859375 150.667969 C 475.339844 184.039062 493.839844 228.40625 493.839844 282.550781 C 493.839844 317.605469 485.535156 348.574219 469.15625 374.59375 C 465.125 380.996094 460.636719 387.035156 455.71875 392.671875 C 468.105469 401.859375 478.972656 412.710938 488.195312 425.097656 C 510.585938 455.230469 521.933594 494.089844 521.933594 540.605469 C 521.933594 601.011719 502.800781 649.925781 465.078125 685.984375 C 427.808594 721.578125 377.261719 739.621094 314.832031 739.621094 L 137.074219 739.621094 C 101.753906 739.621094 73.023438 710.863281 73.023438 675.511719 L 73.023438 165.835938 C 73.023438 130.488281 101.753906 101.726562 137.074219 101.726562 L 295.828125 101.726562 M 208.746094 342.414062 L 303.261719 342.414062 C 335.914062 342.414062 354.8125 332.617188 354.8125 282.550781 C 354.8125 263.574219 350.378906 250.582031 340.867188 241.667969 C 330.792969 232.238281 315.78125 227.648438 295 227.648438 L 208.746094 227.648438 L 208.746094 342.414062 M 208.746094 614.527344 L 306.570312 614.527344 C 331.972656 614.527344 350.671875 608.265625 363.730469 595.378906 C 376.808594 582.464844 382.902344 565.058594 382.902344 540.605469 C 382.902344 516.253906 376.867188 499.035156 363.902344 486.414062 C 350.824219 473.695312 332.070312 467.507812 306.570312 467.507812 L 208.746094 467.507812 L 208.746094 614.527344 M 295.828125 95.75 L 137.074219 95.75 C 98.464844 95.75 67.054688 127.191406 67.054688 165.835938 L 67.054688 675.511719 C 67.054688 714.160156 98.464844 745.597656 137.074219 745.597656 L 314.832031 745.597656 C 378.847656 745.597656 430.785156 726.996094 469.199219 690.308594 C 508.15625 653.074219 527.90625 602.707031 527.90625 540.605469 C 527.90625 492.773438 516.15625 452.710938 492.984375 421.53125 C 484.703125 410.40625 475.070312 400.40625 464.28125 391.738281 C 467.839844 387.289062 471.164062 382.613281 474.207031 377.777344 C 491.195312 350.792969 499.808594 318.753906 499.808594 282.546875 C 499.808594 226.660156 480.660156 180.804688 442.886719 146.257812 C 406.226562 112.742188 356.75 95.75 295.828125 95.75 Z M 214.71875 233.625 L 295 233.625 C 314.199219 233.625 327.871094 237.683594 336.792969 246.035156 C 345.011719 253.738281 348.839844 265.339844 348.839844 282.550781 C 348.839844 304.640625 344.996094 319.183594 337.085938 327.003906 C 330.398438 333.617188 320.285156 336.4375 303.261719 336.4375 L 214.71875 336.4375 Z M 214.71875 473.484375 L 306.570312 473.484375 C 330.4375 473.484375 347.828125 479.117188 359.742188 490.699219 C 371.46875 502.117188 376.929688 517.976562 376.929688 540.605469 C 376.929688 563.355469 371.402344 579.40625 359.535156 591.125 C 347.652344 602.851562 330.328125 608.550781 306.570312 608.550781 L 214.71875 608.550781 Z M 214.71875 473.484375 " fill-opacity="1" fill-rule="nonzero"/></g><path fill="#58595b" d="M 142.632812 692.769531 L 139.648438 692.769531 L 139.648438 688.359375 L 142.632812 688.359375 Z M 142.632812 676.402344 L 139.648438 676.402344 L 139.648438 664.449219 L 142.632812 664.449219 Z M 142.632812 652.496094 L 139.648438 652.496094 L 139.648438 640.542969 L 142.632812 640.542969 Z M 142.632812 628.589844 L 139.648438 628.589844 L 139.648438 616.636719 L 142.632812 616.636719 Z M 142.632812 604.683594 L 139.648438 604.683594 L 139.648438 592.730469 L 142.632812 592.730469 Z M 142.632812 580.777344 L 139.648438 580.777344 L 139.648438 568.824219 L 142.632812 568.824219 Z M 142.632812 556.871094 L 139.648438 556.871094 L 139.648438 544.917969 L 142.632812 544.917969 Z M 142.632812 532.960938 L 139.648438 532.960938 L 139.648438 521.007812 L 142.632812 521.007812 Z M 142.632812 509.054688 L 139.648438 509.054688 L 139.648438 497.101562 L 142.632812 497.101562 Z M 142.632812 485.148438 L 139.648438 485.148438 L 139.648438 473.195312 L 142.632812 473.195312 Z M 142.632812 461.242188 L 139.648438 461.242188 L 139.648438 449.289062 L 142.632812 449.289062 Z M 142.632812 437.335938 L 139.648438 437.335938 L 139.648438 425.382812 L 142.632812 425.382812 Z M 142.632812 413.429688 L 139.648438 413.429688 L 139.648438 401.476562 L 142.632812 401.476562 Z M 142.632812 389.523438 L 139.648438 389.523438 L 139.648438 377.566406 L 142.632812 377.566406 Z M 142.632812 365.613281 L 139.648438 365.613281 L 139.648438 353.660156 L 142.632812 353.660156 Z M 142.632812 341.707031 L 139.648438 341.707031 L 139.648438 329.753906 L 142.632812 329.753906 Z M 142.632812 317.800781 L 139.648438 317.800781 L 139.648438 305.847656 L 142.632812 305.847656 Z M 142.632812 293.894531 L 139.648438 293.894531 L 139.648438 281.941406 L 142.632812 281.941406 Z M 142.632812 269.988281 L 139.648438 269.988281 L 139.648438 258.035156 L 142.632812 258.035156 Z M 142.632812 246.082031 L 139.648438 246.082031 L 139.648438 234.125 L 142.632812 234.125 Z M 142.632812 222.171875 L 139.648438 222.171875 L 139.648438 210.21875 L 142.632812 210.21875 Z M 142.632812 198.265625 L 139.648438 198.265625 L 139.648438 186.3125 L 142.632812 186.3125 Z M 142.632812 198.265625 " fill-opacity="1" fill-rule="nonzero"/><path fill="#58595b" d="M 307.746094 680.242188 L 295.804688 680.242188 L 295.804688 677.253906 L 307.746094 677.253906 Z M 283.863281 680.242188 L 271.917969 680.242188 L 271.917969 677.253906 L 283.863281 677.253906 Z M 259.976562 680.242188 L 248.035156 680.242188 L 248.035156 677.253906 L 259.976562 677.253906 Z M 236.089844 680.242188 L 224.148438 680.242188 L 224.148438 677.253906 L 236.089844 677.253906 Z M 212.207031 680.242188 L 200.261719 680.242188 L 200.261719 677.253906 L 212.207031 677.253906 Z M 188.320312 680.242188 L 185.042969 680.242188 L 185.042969 677.253906 L 188.320312 677.253906 Z M 319.746094 680.050781 L 319.628906 677.066406 C 323.652344 676.90625 327.632812 676.640625 331.460938 676.277344 L 331.742188 679.25 C 327.859375 679.621094 323.824219 679.890625 319.746094 680.050781 Z M 343.679688 677.738281 L 343.210938 674.789062 C 347.171875 674.15625 351.078125 673.390625 354.820312 672.511719 L 355.5 675.421875 C 351.691406 676.316406 347.714844 677.097656 343.679688 677.738281 Z M 367.121094 672.195312 L 366.203125 669.351562 C 369.992188 668.125 373.710938 666.738281 377.257812 665.222656 L 378.429688 667.972656 C 374.800781 669.523438 370.996094 670.941406 367.121094 672.195312 Z M 389.296875 662.691406 L 387.859375 660.070312 C 391.308594 658.175781 394.679688 656.089844 397.875 653.875 L 399.578125 656.332031 C 396.296875 658.605469 392.835938 660.746094 389.296875 662.691406 Z M 409.136719 648.925781 L 407.191406 646.660156 C 409.097656 645.015625 410.984375 643.273438 412.796875 641.488281 C 413.78125 640.515625 414.761719 639.511719 415.703125 638.511719 L 417.875 640.5625 C 416.90625 641.589844 415.902344 642.617188 414.890625 643.613281 C 413.035156 645.449219 411.097656 647.234375 409.136719 648.925781 Z M 425.703125 631.34375 L 423.328125 629.53125 C 425.699219 626.417969 427.933594 623.144531 429.964844 619.792969 L 432.515625 621.34375 C 430.429688 624.785156 428.136719 628.148438 425.703125 631.34375 Z M 438.242188 610.6875 L 435.542969 609.40625 C 437.199219 605.910156 438.714844 602.246094 440.054688 598.503906 L 442.867188 599.515625 C 441.492188 603.34375 439.9375 607.101562 438.242188 610.6875 Z M 446.425781 587.972656 L 443.539062 587.21875 C 444.511719 583.496094 445.359375 579.609375 446.0625 575.660156 L 449.003906 576.1875 C 448.285156 580.210938 447.417969 584.175781 446.425781 587.972656 Z M 450.691406 564.253906 L 447.722656 563.933594 C 448.132812 560.113281 448.433594 556.136719 448.617188 552.109375 L 451.597656 552.246094 C 451.414062 556.332031 451.109375 560.371094 450.691406 564.253906 Z M 448.839844 540.242188 C 448.808594 536.207031 448.671875 532.214844 448.429688 528.378906 L 451.410156 528.191406 C 451.652344 532.082031 451.792969 536.128906 451.824219 540.21875 Z M 447.316406 516.578125 C 446.808594 512.59375 446.164062 508.660156 445.402344 504.894531 L 448.328125 504.300781 C 449.105469 508.140625 449.761719 512.144531 450.277344 516.203125 Z M 442.589844 493.414062 C 441.476562 489.582031 440.195312 485.824219 438.78125 482.238281 L 441.558594 481.140625 C 443.007812 484.8125 444.320312 488.660156 445.457031 492.578125 Z M 433.910156 471.5 C 432.101562 468 430.097656 464.582031 427.953125 461.339844 L 430.441406 459.691406 C 432.644531 463.023438 434.703125 466.535156 436.5625 470.125 Z M 420.933594 451.882812 C 418.449219 448.894531 415.757812 445.984375 412.933594 443.230469 L 415.015625 441.089844 C 417.914062 443.914062 420.679688 446.902344 423.226562 449.972656 Z M 420.933594 451.882812 " fill-opacity="1" fill-rule="nonzero"/><path fill="#58595b" d="M 311.597656 407.480469 C 311.582031 407.480469 311.570312 407.480469 311.554688 407.480469 L 305.03125 407.480469 L 305.03125 404.492188 L 311.554688 404.492188 C 313.339844 404.492188 315.175781 404.472656 316.9375 404.425781 L 317.007812 407.414062 C 315.238281 407.457031 313.417969 407.480469 311.597656 407.480469 Z M 293.089844 407.480469 L 281.144531 407.480469 L 281.144531 404.492188 L 293.089844 404.492188 Z M 269.203125 407.480469 L 257.261719 407.480469 L 257.261719 404.492188 L 269.203125 404.492188 Z M 245.316406 407.480469 L 233.375 407.480469 L 233.375 404.492188 L 245.316406 404.492188 Z M 221.433594 407.480469 L 209.488281 407.480469 L 209.488281 404.492188 L 221.433594 404.492188 Z M 197.546875 407.480469 L 187.179688 407.480469 L 187.179688 404.492188 L 197.546875 404.492188 Z M 329.019531 406.753906 L 328.757812 403.777344 C 332.796875 403.425781 336.746094 402.933594 340.488281 402.316406 L 340.972656 405.261719 C 337.15625 405.890625 333.132812 406.394531 329.019531 406.753906 Z M 352.777344 402.765625 L 352.023438 399.875 C 355.914062 398.855469 359.683594 397.644531 363.214844 396.28125 L 364.292969 399.066406 C 360.652344 400.472656 356.78125 401.71875 352.777344 402.765625 Z M 375.289062 393.976562 L 373.855469 391.355469 C 377.316406 389.457031 380.621094 387.320312 383.675781 384.996094 L 385.480469 387.378906 C 382.308594 389.789062 378.882812 392.007812 375.289062 393.976562 Z M 394.550781 379.289062 L 392.394531 377.21875 C 395.054688 374.445312 397.554688 371.40625 399.820312 368.183594 L 402.261719 369.902344 C 399.910156 373.25 397.3125 376.40625 394.550781 379.289062 Z M 408.535156 359.519531 L 405.882812 358.148438 C 407.625 354.78125 409.226562 351.164062 410.648438 347.398438 L 413.441406 348.453125 C 411.980469 352.328125 410.328125 356.050781 408.535156 359.519531 Z M 417.140625 336.953125 L 414.261719 336.171875 C 415.25 332.511719 416.136719 328.632812 416.882812 324.644531 L 419.820312 325.195312 C 419.054688 329.261719 418.152344 333.21875 417.140625 336.953125 Z M 421.640625 313.292969 L 418.675781 312.933594 C 419.136719 309.148438 419.507812 305.171875 419.777344 301.121094 L 422.757812 301.320312 C 422.480469 305.425781 422.105469 309.457031 421.640625 313.292969 Z M 423.285156 289.316406 L 420.300781 289.25 C 420.351562 287.019531 420.375 284.730469 420.375 282.441406 C 420.375 280.730469 420.355469 279.023438 420.3125 277.367188 L 423.296875 277.292969 C 423.339844 278.972656 423.359375 280.703125 423.363281 282.441406 C 423.363281 284.753906 423.335938 287.066406 423.285156 289.316406 Z M 419.640625 265.539062 C 419.273438 261.511719 418.761719 257.566406 418.117188 253.804688 L 421.058594 253.300781 C 421.714844 257.136719 422.238281 261.164062 422.613281 265.265625 Z M 415.601562 242.269531 C 414.5625 238.402344 413.332031 234.632812 411.945312 231.070312 L 414.730469 229.988281 C 416.152344 233.648438 417.417969 237.519531 418.484375 241.496094 Z M 407.035156 220.386719 C 405.171875 216.917969 403.074219 213.570312 400.808594 210.433594 L 403.226562 208.683594 C 405.570312 211.925781 407.734375 215.386719 409.664062 218.972656 Z M 393.308594 201.410156 C 392.148438 200.191406 390.933594 198.984375 389.691406 197.820312 C 388.074219 196.308594 386.386719 194.835938 384.675781 193.449219 L 386.554688 191.128906 C 388.320312 192.5625 390.0625 194.078125 391.730469 195.640625 C 393.015625 196.84375 394.273438 198.09375 395.472656 199.351562 Z M 375.113281 186.617188 C 371.839844 184.570312 368.367188 182.671875 364.789062 180.976562 L 366.066406 178.277344 C 369.75 180.019531 373.324219 181.972656 376.695312 184.082031 Z M 353.890625 176.511719 C 350.28125 175.25 346.476562 174.117188 342.582031 173.144531 L 343.304688 170.246094 C 347.289062 171.238281 351.179688 172.398438 354.875 173.691406 Z M 331.007812 170.761719 C 327.234375 170.132812 323.285156 169.621094 319.269531 169.234375 L 319.554688 166.257812 C 323.640625 166.652344 327.65625 167.175781 331.496094 167.8125 Z M 307.441406 168.445312 C 304.515625 168.335938 301.484375 168.277344 298.429688 168.277344 L 295.558594 168.277344 L 295.558594 165.289062 L 298.429688 165.289062 C 301.523438 165.289062 304.59375 165.347656 307.558594 165.460938 Z M 283.617188 168.277344 L 271.675781 168.277344 L 271.675781 165.289062 L 283.617188 165.289062 Z M 259.730469 168.277344 L 247.789062 168.277344 L 247.789062 165.289062 L 259.730469 165.289062 Z M 235.847656 168.277344 L 223.902344 168.277344 L 223.902344 165.289062 L 235.847656 165.289062 Z M 235.847656 168.277344 " fill-opacity="1" fill-rule="nonzero"/><path fill="#58595b" d="M 141.140625 706.894531 L 153.359375 685.710938 L 128.921875 685.710938 Z M 141.140625 706.894531 " fill-opacity="1" fill-rule="nonzero"/><path fill="#58595b" d="M 169.664062 405.988281 L 190.832031 393.753906 L 190.832031 418.21875 Z M 169.664062 405.988281 " fill-opacity="1" fill-rule="nonzero"/><path fill="#58595b" d="M 169.664062 678.746094 L 190.832031 666.515625 L 190.832031 690.976562 Z M 169.664062 678.746094 " fill-opacity="1" fill-rule="nonzero"/><path fill="#414042" d="M 169.003906 163.371094 C 169.003906 164.355469 168.957031 165.335938 168.859375 166.316406 C 168.765625 167.292969 168.621094 168.265625 168.429688 169.230469 C 168.238281 170.195312 168 171.148438 167.714844 172.089844 C 167.429688 173.03125 167.097656 173.957031 166.722656 174.867188 C 166.34375 175.777344 165.925781 176.664062 165.460938 177.53125 C 165 178.398438 164.492188 179.242188 163.945312 180.058594 C 163.402344 180.878906 162.816406 181.667969 162.191406 182.429688 C 161.570312 183.1875 160.910156 183.917969 160.214844 184.613281 C 159.519531 185.308594 158.792969 185.96875 158.03125 186.59375 C 157.273438 187.21875 156.484375 187.800781 155.667969 188.347656 C 154.847656 188.894531 154.007812 189.402344 153.140625 189.863281 C 152.273438 190.328125 151.386719 190.75 150.476562 191.125 C 149.570312 191.5 148.644531 191.832031 147.703125 192.117188 C 146.761719 192.402344 145.808594 192.644531 144.847656 192.835938 C 143.882812 193.027344 142.910156 193.171875 141.933594 193.265625 C 140.953125 193.363281 139.972656 193.410156 138.992188 193.410156 C 138.007812 193.410156 137.027344 193.363281 136.046875 193.265625 C 135.070312 193.171875 134.097656 193.027344 133.136719 192.835938 C 132.171875 192.644531 131.21875 192.402344 130.277344 192.117188 C 129.335938 191.832031 128.414062 191.5 127.503906 191.125 C 126.597656 190.75 125.707031 190.328125 124.839844 189.863281 C 123.976562 189.402344 123.132812 188.894531 122.316406 188.347656 C 121.496094 187.800781 120.710938 187.21875 119.949219 186.59375 C 119.191406 185.96875 118.460938 185.308594 117.765625 184.613281 C 117.070312 183.917969 116.414062 183.1875 115.789062 182.429688 C 115.164062 181.667969 114.582031 180.878906 114.035156 180.058594 C 113.488281 179.242188 112.984375 178.398438 112.519531 177.53125 C 112.054688 176.664062 111.636719 175.777344 111.261719 174.867188 C 110.882812 173.957031 110.554688 173.03125 110.269531 172.089844 C 109.984375 171.148438 109.746094 170.195312 109.550781 169.230469 C 109.359375 168.265625 109.214844 167.292969 109.121094 166.316406 C 109.023438 165.335938 108.976562 164.355469 108.976562 163.371094 C 108.976562 162.386719 109.023438 161.40625 109.121094 160.425781 C 109.214844 159.445312 109.359375 158.472656 109.550781 157.507812 C 109.746094 156.542969 109.984375 155.589844 110.269531 154.648438 C 110.554688 153.707031 110.882812 152.78125 111.261719 151.875 C 111.636719 150.964844 112.054688 150.074219 112.519531 149.207031 C 112.984375 148.339844 113.488281 147.496094 114.035156 146.679688 C 114.582031 145.859375 115.164062 145.070312 115.789062 144.3125 C 116.414062 143.550781 117.070312 142.824219 117.765625 142.128906 C 118.460938 141.429688 119.191406 140.769531 119.949219 140.148438 C 120.710938 139.523438 121.496094 138.9375 122.316406 138.390625 C 123.132812 137.84375 123.976562 137.339844 124.839844 136.875 C 125.707031 136.410156 126.597656 135.992188 127.503906 135.613281 C 128.414062 135.238281 129.335938 134.90625 130.277344 134.621094 C 131.21875 134.335938 132.171875 134.097656 133.136719 133.90625 C 134.097656 133.714844 135.070312 133.570312 136.046875 133.472656 C 137.027344 133.375 138.007812 133.328125 138.992188 133.328125 C 139.972656 133.328125 140.953125 133.375 141.933594 133.472656 C 142.910156 133.570312 143.882812 133.714844 144.847656 133.90625 C 145.808594 134.097656 146.761719 134.335938 147.703125 134.621094 C 148.644531 134.90625 149.570312 135.238281 150.476562 135.613281 C 151.386719 135.992188 152.273438 136.410156 153.140625 136.875 C 154.007812 137.339844 154.847656 137.84375 155.667969 138.390625 C 156.484375 138.9375 157.273438 139.523438 158.03125 140.148438 C 158.792969 140.769531 159.519531 141.429688 160.214844 142.128906 C 160.910156 142.824219 161.570312 143.550781 162.191406 144.3125 C 162.816406 145.070312 163.402344 145.859375 163.945312 146.679688 C 164.492188 147.496094 165 148.339844 165.460938 149.207031 C 165.925781 150.074219 166.34375 150.964844 166.722656 151.875 C 167.097656 152.78125 167.429688 153.707031 167.714844 154.648438 C 168 155.589844 168.238281 156.542969 168.429688 157.507812 C 168.621094 158.472656 168.765625 159.445312 168.859375 160.425781 C 168.957031 161.40625 169.003906 162.386719 169.003906 163.371094 Z M 169.003906 163.371094 " fill-opacity="1" fill-rule="nonzero"/><path fill="#fcfcfc" d="M 142.464844 142.800781 L 138.613281 142.800781 C 138.175781 142.800781 137.761719 142.996094 137.476562 143.328125 L 126.125 156.613281 C 125.625 157.207031 125.652344 158.089844 126.207031 158.644531 L 128.367188 160.800781 C 128.949219 161.382812 129.886719 161.382812 130.46875 160.804688 L 137.117188 154.234375 L 137.117188 183.023438 C 137.117188 183.847656 137.789062 184.519531 138.609375 184.519531 L 142.464844 184.519531 C 143.289062 184.519531 143.957031 183.847656 143.957031 183.023438 L 143.957031 144.296875 C 143.957031 143.472656 143.289062 142.800781 142.464844 142.800781 Z M 142.464844 142.800781 " fill-opacity="1" fill-rule="nonzero"/><path fill="#414042" d="M 244.066406 163.371094 C 244.066406 164.355469 244.019531 165.335938 243.921875 166.316406 C 243.824219 167.292969 243.679688 168.265625 243.488281 169.230469 C 243.296875 170.195312 243.058594 171.148438 242.773438 172.089844 C 242.488281 173.03125 242.15625 173.957031 241.78125 174.867188 C 241.40625 175.777344 240.984375 176.664062 240.523438 177.53125 C 240.058594 178.398438 239.554688 179.242188 239.007812 180.058594 C 238.460938 180.878906 237.878906 181.667969 237.253906 182.429688 C 236.628906 183.1875 235.96875 183.917969 235.273438 184.613281 C 234.582031 185.308594 233.851562 185.96875 233.09375 186.59375 C 232.332031 187.21875 231.542969 187.800781 230.726562 188.347656 C 229.910156 188.894531 229.066406 189.402344 228.199219 189.863281 C 227.332031 190.328125 226.445312 190.75 225.539062 191.125 C 224.628906 191.5 223.703125 191.832031 222.765625 192.117188 C 221.824219 192.402344 220.871094 192.644531 219.90625 192.835938 C 218.941406 193.027344 217.972656 193.171875 216.992188 193.265625 C 216.015625 193.363281 215.035156 193.410156 214.050781 193.410156 C 213.070312 193.410156 212.085938 193.363281 211.109375 193.265625 C 210.132812 193.171875 209.160156 193.027344 208.195312 192.835938 C 207.230469 192.644531 206.277344 192.402344 205.339844 192.117188 C 204.398438 191.832031 203.472656 191.5 202.566406 191.125 C 201.65625 190.75 200.769531 190.328125 199.902344 189.863281 C 199.035156 189.402344 198.191406 188.894531 197.375 188.347656 C 196.558594 187.800781 195.769531 187.21875 195.011719 186.59375 C 194.25 185.96875 193.523438 185.308594 192.828125 184.613281 C 192.132812 183.917969 191.472656 183.1875 190.847656 182.429688 C 190.226562 181.667969 189.640625 180.878906 189.09375 180.058594 C 188.546875 179.242188 188.042969 178.398438 187.582031 177.53125 C 187.117188 176.664062 186.699219 175.777344 186.320312 174.867188 C 185.945312 173.957031 185.613281 173.03125 185.328125 172.089844 C 185.042969 171.148438 184.804688 170.195312 184.613281 169.230469 C 184.421875 168.265625 184.277344 167.292969 184.179688 166.316406 C 184.085938 165.335938 184.035156 164.355469 184.035156 163.371094 C 184.035156 162.386719 184.085938 161.40625 184.179688 160.425781 C 184.277344 159.445312 184.421875 158.472656 184.613281 157.507812 C 184.804688 156.542969 185.042969 155.589844 185.328125 154.648438 C 185.613281 153.707031 185.945312 152.78125 186.320312 151.875 C 186.699219 150.964844 187.117188 150.074219 187.582031 149.207031 C 188.042969 148.339844 188.546875 147.496094 189.09375 146.679688 C 189.640625 145.859375 190.226562 145.070312 190.847656 144.3125 C 191.472656 143.550781 192.132812 142.824219 192.828125 142.128906 C 193.523438 141.429688 194.25 140.769531 195.011719 140.148438 C 195.769531 139.523438 196.558594 138.9375 197.375 138.390625 C 198.191406 137.84375 199.035156 137.339844 199.902344 136.875 C 200.769531 136.410156 201.65625 135.992188 202.566406 135.613281 C 203.472656 135.238281 204.398438 134.90625 205.339844 134.621094 C 206.277344 134.335938 207.230469 134.097656 208.195312 133.90625 C 209.160156 133.714844 210.132812 133.570312 211.109375 133.472656 C 212.085938 133.375 213.070312 133.328125 214.050781 133.328125 C 215.035156 133.328125 216.015625 133.375 216.992188 133.472656 C 217.972656 133.570312 218.941406 133.714844 219.90625 133.90625 C 220.871094 134.097656 221.824219 134.335938 222.765625 134.621094 C 223.703125 134.90625 224.628906 135.238281 225.539062 135.613281 C 226.445312 135.992188 227.332031 136.410156 228.199219 136.875 C 229.066406 137.339844 229.910156 137.84375 230.726562 138.390625 C 231.542969 138.9375 232.332031 139.523438 233.09375 140.148438 C 233.851562 140.769531 234.582031 141.429688 235.273438 142.128906 C 235.96875 142.824219 236.628906 143.550781 237.253906 144.3125 C 237.878906 145.070312 238.460938 145.859375 239.007812 146.679688 C 239.554688 147.496094 240.058594 148.339844 240.523438 149.207031 C 240.984375 150.074219 241.40625 150.964844 241.78125 151.875 C 242.15625 152.78125 242.488281 153.707031 242.773438 154.648438 C 243.058594 155.589844 243.296875 156.542969 243.488281 157.507812 C 243.679688 158.472656 243.824219 159.445312 243.921875 160.425781 C 244.019531 161.40625 244.066406 162.386719 244.066406 163.371094 Z M 244.066406 163.371094 " fill-opacity="1" fill-rule="nonzero"/><path fill="#fcfcfc" d="M 226.078125 177.664062 L 209.203125 177.664062 C 209.425781 177.257812 209.722656 176.839844 210.113281 176.414062 C 211.175781 175.238281 212.878906 173.683594 215.175781 171.796875 L 215.144531 171.761719 C 215.496094 171.523438 215.878906 171.195312 216.316406 170.816406 C 219.570312 168.066406 222.171875 165.359375 224.050781 162.777344 C 226.042969 160.035156 227.058594 156.875 227.058594 153.382812 C 227.058594 149.929688 225.878906 147.117188 223.558594 145.027344 C 221.277344 142.988281 218.230469 141.953125 214.503906 141.953125 C 211.890625 141.953125 209.335938 142.601562 206.910156 143.886719 C 204.511719 145.160156 202.460938 146.953125 200.816406 149.207031 C 200.355469 149.839844 200.460938 150.714844 201.054688 151.222656 L 204.175781 153.894531 C 204.484375 154.160156 204.882812 154.296875 205.3125 154.242188 C 205.71875 154.195312 206.09375 153.980469 206.339844 153.648438 C 207.539062 152.035156 208.839844 150.796875 210.207031 149.972656 C 212.824219 148.382812 216.472656 148.390625 218.351562 150.089844 C 219.261719 150.914062 219.703125 151.992188 219.703125 153.382812 C 219.703125 155.714844 219.121094 157.703125 217.917969 159.46875 C 216.648438 161.347656 214.8125 163.3125 212.425781 165.335938 C 212.296875 165.445312 211.679688 165.957031 210.546875 166.875 C 208.589844 168.492188 206.992188 169.910156 205.796875 171.082031 C 204.558594 172.300781 203.511719 173.699219 202.671875 175.234375 C 201.777344 176.871094 201.324219 178.671875 201.324219 180.578125 L 201.324219 183.019531 C 201.324219 183.84375 201.992188 184.515625 202.816406 184.515625 L 226.078125 184.515625 C 226.898438 184.515625 227.570312 183.84375 227.570312 183.019531 L 227.570312 179.15625 C 227.570312 178.335938 226.902344 177.664062 226.078125 177.664062 Z M 226.078125 177.664062 " fill-opacity="1" fill-rule="nonzero"/><path fill="#414042" d="M 432.308594 435.363281 C 432.308594 436.347656 432.257812 437.328125 432.164062 438.308594 C 432.066406 439.285156 431.921875 440.257812 431.730469 441.222656 C 431.539062 442.1875 431.300781 443.140625 431.015625 444.082031 C 430.730469 445.023438 430.398438 445.949219 430.023438 446.859375 C 429.644531 447.769531 429.226562 448.65625 428.761719 449.523438 C 428.300781 450.390625 427.792969 451.234375 427.25 452.054688 C 426.703125 452.871094 426.117188 453.660156 425.492188 454.421875 C 424.871094 455.183594 424.210938 455.910156 423.515625 456.605469 C 422.820312 457.300781 422.09375 457.960938 421.332031 458.585938 C 420.574219 459.210938 419.785156 459.796875 418.96875 460.34375 C 418.148438 460.886719 417.308594 461.394531 416.441406 461.859375 C 415.574219 462.320312 414.6875 462.742188 413.777344 463.117188 C 412.871094 463.496094 411.945312 463.824219 411.003906 464.109375 C 410.0625 464.398438 409.113281 464.636719 408.148438 464.828125 C 407.183594 465.019531 406.210938 465.164062 405.234375 465.261719 C 404.253906 465.355469 403.273438 465.40625 402.292969 465.40625 C 401.308594 465.40625 400.328125 465.355469 399.351562 465.261719 C 398.371094 465.164062 397.398438 465.019531 396.4375 464.828125 C 395.472656 464.636719 394.519531 464.398438 393.578125 464.109375 C 392.636719 463.824219 391.714844 463.496094 390.804688 463.117188 C 389.898438 462.742188 389.007812 462.320312 388.144531 461.859375 C 387.277344 461.394531 386.433594 460.886719 385.617188 460.34375 C 384.800781 459.796875 384.011719 459.210938 383.25 458.585938 C 382.492188 457.960938 381.761719 457.300781 381.066406 456.605469 C 380.371094 455.910156 379.714844 455.183594 379.089844 454.421875 C 378.464844 453.660156 377.882812 452.871094 377.335938 452.054688 C 376.789062 451.234375 376.285156 450.390625 375.820312 449.523438 C 375.359375 448.65625 374.9375 447.769531 374.5625 446.859375 C 374.183594 445.949219 373.855469 445.023438 373.570312 444.082031 C 373.285156 443.140625 373.046875 442.1875 372.851562 441.222656 C 372.660156 440.257812 372.519531 439.285156 372.421875 438.308594 C 372.324219 437.328125 372.277344 436.347656 372.277344 435.363281 C 372.277344 434.378906 372.324219 433.398438 372.421875 432.417969 C 372.519531 431.4375 372.660156 430.46875 372.851562 429.503906 C 373.046875 428.535156 373.285156 427.582031 373.570312 426.640625 C 373.855469 425.699219 374.183594 424.773438 374.5625 423.867188 C 374.9375 422.957031 375.359375 422.070312 375.820312 421.203125 C 376.285156 420.332031 376.789062 419.492188 377.335938 418.671875 C 377.882812 417.855469 378.464844 417.066406 379.089844 416.304688 C 379.714844 415.542969 380.371094 414.816406 381.066406 414.121094 C 381.761719 413.425781 382.492188 412.765625 383.25 412.140625 C 384.011719 411.515625 384.800781 410.929688 385.617188 410.382812 C 386.433594 409.835938 387.277344 409.332031 388.144531 408.867188 C 389.007812 408.40625 389.898438 407.984375 390.804688 407.609375 C 391.714844 407.230469 392.636719 406.898438 393.578125 406.613281 C 394.519531 406.328125 395.472656 406.089844 396.4375 405.898438 C 397.398438 405.707031 398.371094 405.5625 399.351562 405.464844 C 400.328125 405.371094 401.308594 405.320312 402.292969 405.320312 C 403.273438 405.320312 404.253906 405.371094 405.234375 405.464844 C 406.210938 405.5625 407.183594 405.707031 408.148438 405.898438 C 409.113281 406.089844 410.0625 406.328125 411.003906 406.613281 C 411.945312 406.898438 412.871094 407.230469 413.777344 407.609375 C 414.6875 407.984375 415.574219 408.40625 416.441406 408.867188 C 417.308594 409.332031 418.148438 409.835938 418.96875 410.382812 C 419.785156 410.929688 420.574219 411.515625 421.332031 412.140625 C 422.09375 412.765625 422.820312 413.425781 423.515625 414.121094 C 424.210938 414.816406 424.871094 415.542969 425.492188 416.304688 C 426.117188 417.066406 426.703125 417.855469 427.25 418.671875 C 427.792969 419.492188 428.300781 420.332031 428.761719 421.203125 C 429.226562 422.070312 429.644531 422.957031 430.023438 423.867188 C 430.398438 424.773438 430.730469 425.699219 431.015625 426.640625 C 431.300781 427.582031 431.539062 428.535156 431.730469 429.503906 C 431.921875 430.46875 432.066406 431.4375 432.164062 432.417969 C 432.257812 433.398438 432.308594 434.378906 432.308594 435.363281 Z M 432.308594 435.363281 " fill-opacity="1" fill-rule="nonzero"/><path fill="#fcfcfc" d="M 414.0625 437.230469 C 413.199219 436.007812 412.160156 435.007812 410.96875 434.242188 C 411.785156 433.566406 412.484375 432.753906 413.0625 431.808594 C 414.171875 430.015625 414.730469 427.925781 414.730469 425.601562 C 414.730469 423.378906 414.21875 421.359375 413.195312 419.597656 C 412.171875 417.832031 410.726562 416.429688 408.90625 415.433594 C 407.101562 414.445312 405.050781 413.945312 402.800781 413.945312 C 399.84375 413.945312 397.203125 414.777344 394.949219 416.417969 C 392.734375 418.027344 391.003906 420.226562 389.804688 422.960938 C 389.492188 423.667969 389.777344 424.5 390.453125 424.871094 L 393.574219 426.574219 C 393.933594 426.769531 394.355469 426.808594 394.738281 426.683594 C 395.128906 426.5625 395.449219 426.289062 395.632812 425.921875 C 396.511719 424.125 397.554688 422.738281 398.734375 421.808594 C 399.835938 420.9375 401.164062 420.511719 402.796875 420.511719 C 404.246094 420.511719 405.386719 420.964844 406.292969 421.90625 C 407.210938 422.851562 407.660156 424.0625 407.660156 425.601562 C 407.660156 427.347656 407.179688 428.71875 406.1875 429.78125 C 405.230469 430.820312 403.953125 431.320312 402.289062 431.320312 L 399.792969 431.320312 C 398.972656 431.320312 398.300781 431.992188 398.300781 432.816406 L 398.300781 436.335938 C 398.300781 437.160156 398.972656 437.828125 399.792969 437.828125 L 402.515625 437.828125 C 404.464844 437.828125 406.011719 438.429688 407.246094 439.660156 C 408.476562 440.898438 409.078125 442.449219 409.078125 444.398438 C 409.078125 446.269531 408.488281 447.761719 407.28125 448.953125 C 406.0625 450.15625 404.582031 450.738281 402.746094 450.738281 C 401.183594 450.738281 399.859375 450.296875 398.699219 449.386719 C 397.480469 448.421875 396.445312 447.0625 395.640625 445.351562 C 395.460938 444.972656 395.128906 444.6875 394.730469 444.5625 C 394.335938 444.4375 393.90625 444.484375 393.535156 444.699219 L 390.132812 446.6875 C 389.488281 447.058594 389.222656 447.851562 389.5 448.539062 C 390.589844 451.21875 392.269531 453.386719 394.5 454.984375 C 396.753906 456.601562 399.464844 457.421875 402.570312 457.421875 C 405.035156 457.421875 407.339844 456.867188 409.421875 455.769531 C 411.527344 454.664062 413.210938 453.097656 414.429688 451.109375 C 415.644531 449.113281 416.261719 446.855469 416.261719 444.398438 C 416.265625 441.707031 415.523438 439.292969 414.0625 437.230469 Z M 414.0625 437.230469 " fill-opacity="1" fill-rule="nonzero"/></svg>