<svg xmlns="http://www.w3.org/2000/svg" xmlns:xlink="http://www.w3.org/1999/xlink" width="800" zoomAndPan="magnify" viewBox="0 0 600 899.99999" height="1200" preserveAspectRatio="xMidYMid meet" version="1.0"><defs><g/><clipPath id="9536398f69"><path d="M 459 278 L 493 278 L 493 317 L 459 317 Z M 459 278 " clip-rule="nonzero"/></clipPath><clipPath id="810ae1494e"><path d="M 475.644531 316.941406 L 451.082031 305.730469 L 468.214844 268.203125 L 492.777344 279.417969 Z M 475.644531 316.941406 " clip-rule="nonzero"/></clipPath><clipPath id="90feba1b12"><path d="M 475.644531 316.941406 L 451.082031 305.730469 L 468.214844 268.203125 L 492.777344 279.417969 Z M 475.644531 316.941406 " clip-rule="nonzero"/></clipPath><clipPath id="e8f85c7c4d"><path d="M 475.644531 316.9375 L 451.273438 305.808594 L 468.484375 268.117188 L 492.855469 279.242188 Z M 475.644531 316.9375 " clip-rule="nonzero"/></clipPath></defs><path stroke-linecap="butt" transform="matrix(0.75, 0, 0, 0.75, 43.470704, -15.449276)" fill="none" stroke-linejoin="miter" d="M 407.455749 1044.067839 C 333.611995 1044.067839 270.325534 1029.172005 217.606781 999.36992 C 165.044278 969.406377 124.684901 927.161583 96.523441 872.640747 C 68.361981 817.953244 54.278647 753.359491 54.278647 678.859487 C 54.278647 623.187609 62.299481 573.08344 78.346357 528.546979 C 94.554691 483.84906 117.726567 445.614683 147.851569 413.854265 C 177.981779 381.921971 214.986989 357.448012 258.8672 340.416761 C 302.908869 323.224052 352.440121 314.630301 407.455749 314.630301 C 444.294293 314.630301 480.481795 319.375093 516.013047 328.875094 C 551.544298 338.208427 582.7318 351.635511 609.585968 369.151137 C 623.669302 377.828221 633.080761 388.390722 637.830761 400.833431 C 642.580761 413.114681 643.559928 425.15114 640.778678 436.937599 C 638.158886 448.729266 632.591178 458.635517 624.075552 466.656351 C 615.726593 474.682393 605.33076 479.182393 592.888051 480.166768 C 580.6068 481.145935 567.096383 476.97406 552.362007 467.640726 C 531.565131 454.213642 509.054713 444.46885 484.820337 438.411558 C 460.752627 432.354266 436.273459 429.323015 411.382833 429.323015 C 363.736997 429.323015 323.460953 439.067808 290.549493 458.552184 C 257.799491 478.03656 232.997407 506.198019 216.132822 543.041771 C 199.429697 579.880315 191.080738 625.151151 191.080738 678.859487 C 191.080738 731.906365 199.429697 777.182409 216.132822 814.677202 C 232.997407 852.171996 257.799491 880.661581 290.549493 900.145957 C 323.460953 919.630333 363.736997 929.375125 411.382833 929.375125 C 436.929709 929.375125 462.059919 926.182416 486.783878 919.796999 C 511.674505 913.406374 535.169298 903.505332 557.273465 890.078248 C 572.007841 881.401164 585.273467 877.552206 597.059926 878.531372 C 608.851593 879.515747 618.757844 883.692831 626.778677 891.057415 C 634.799511 898.427207 640.122428 907.677207 642.74222 918.812624 C 645.528678 929.948042 644.872428 941.406376 640.778678 953.198043 C 636.846386 964.823043 628.825552 974.974086 616.710968 983.651169 C 589.8568 1003.135545 557.763049 1018.119921 520.434922 1028.599088 C 483.263045 1038.911589 445.606793 1044.067839 407.455749 1044.067839 Z M 407.455749 1044.067839 " stroke="#1f8785" stroke-width="40.239601" stroke-opacity="1" stroke-miterlimit="4"/><g fill="#ffffff" fill-opacity="1"><g transform="translate(43.470704, 760.050683)"><g><path d="M 305.578125 7.546875 C 250.242188 7.546875 202.832031 -3.644531 163.34375 -26.03125 C 123.863281 -48.414062 93.5625 -80.101562 72.4375 -121.09375 C 51.3125 -162.09375 40.75 -210.507812 40.75 -266.34375 C 40.75 -308.09375 46.78125 -345.691406 58.84375 -379.140625 C 70.914062 -412.585938 88.269531 -441.253906 110.90625 -465.140625 C 133.539062 -489.035156 161.332031 -507.394531 194.28125 -520.21875 C 227.226562 -533.050781 264.328125 -539.46875 305.578125 -539.46875 C 333.234375 -539.46875 360.390625 -535.945312 387.046875 -528.90625 C 413.710938 -521.863281 437.109375 -511.800781 457.234375 -498.71875 C 467.796875 -492.1875 474.835938 -484.265625 478.359375 -474.953125 C 481.878906 -465.648438 482.628906 -456.597656 480.609375 -447.796875 C 478.597656 -438.992188 474.445312 -431.570312 468.15625 -425.53125 C 461.875 -419.5 454.078125 -416.101562 444.765625 -415.34375 C 435.460938 -414.59375 425.28125 -417.738281 414.21875 -424.78125 C 398.625 -434.84375 381.769531 -442.132812 363.65625 -446.65625 C 345.550781 -451.1875 327.195312 -453.453125 308.59375 -453.453125 C 272.875 -453.453125 242.691406 -446.15625 218.046875 -431.5625 C 193.398438 -416.976562 174.789062 -395.851562 162.21875 -368.1875 C 149.644531 -340.53125 143.359375 -306.582031 143.359375 -266.34375 C 143.359375 -226.601562 149.644531 -192.648438 162.21875 -164.484375 C 174.789062 -136.316406 193.398438 -114.9375 218.046875 -100.34375 C 242.691406 -85.757812 272.875 -78.46875 308.59375 -78.46875 C 327.707031 -78.46875 346.566406 -80.851562 365.171875 -85.625 C 383.785156 -90.40625 401.394531 -97.828125 418 -107.890625 C 429.0625 -114.429688 438.992188 -117.320312 447.796875 -116.5625 C 456.597656 -115.8125 464.015625 -112.671875 470.046875 -107.140625 C 476.085938 -101.609375 480.113281 -94.691406 482.125 -86.390625 C 484.132812 -78.085938 483.628906 -69.535156 480.609375 -60.734375 C 477.597656 -51.929688 471.566406 -44.257812 462.515625 -37.71875 C 442.390625 -23.132812 418.367188 -11.941406 390.453125 -4.140625 C 362.535156 3.648438 334.242188 7.546875 305.578125 7.546875 Z M 305.578125 7.546875 "/></g></g></g><g clip-path="url(#9536398f69)"><g clip-path="url(#810ae1494e)"><g clip-path="url(#90feba1b12)"><g clip-path="url(#e8f85c7c4d)"><path fill="#1f8785" d="M 459.902344 288.707031 L 472.792969 315.105469 C 473.765625 317.09375 476.761719 316.335938 476.667969 314.125 L 475.882812 295.289062 C 475.855469 294.636719 476.140625 294.011719 476.652344 293.605469 L 491.402344 281.855469 C 493.132812 280.480469 491.746094 277.71875 489.605469 278.289062 L 461.210938 285.835938 C 459.96875 286.167969 459.339844 287.550781 459.902344 288.707031 " fill-opacity="1" fill-rule="nonzero"/></g></g></g></g><path fill="#1f8785" d="M 125.203125 449.058594 C 127.195312 436.488281 129.644531 424.535156 132.558594 413.191406 L 144.179688 416.175781 C 141.363281 427.152344 138.988281 438.738281 137.054688 450.9375 Z M 135.8125 401.417969 C 139.453125 389.148438 143.675781 377.652344 148.484375 366.929688 L 159.433594 371.835938 C 154.84375 382.074219 150.804688 393.074219 147.316406 404.832031 Z M 153.8125 355.828125 C 159.671875 344.40625 166.265625 333.960938 173.597656 324.492188 L 183.085938 331.839844 C 176.210938 340.722656 170.011719 350.546875 164.488281 361.308594 Z M 181.53125 314.941406 C 189.9375 305.519531 199.183594 297.226562 209.265625 290.0625 L 216.21875 299.84375 C 206.871094 306.488281 198.292969 314.183594 190.488281 322.933594 Z M 219.679688 283.242188 C 230.144531 276.9375 241.410156 271.738281 253.476562 267.632812 L 257.339844 278.992188 C 246.089844 282.820312 235.597656 287.664062 225.871094 293.519531 Z M 265.316406 264.027344 C 276.777344 260.929688 288.898438 258.746094 301.679688 257.476562 L 302.867188 269.417969 C 290.742188 270.621094 279.269531 272.6875 268.445312 275.613281 Z M 313.929688 256.550781 C 325.621094 255.9375 337.832031 256.039062 350.5625 256.859375 L 349.789062 268.835938 C 337.527344 268.046875 325.785156 267.945312 314.5625 268.535156 Z M 362.710938 257.847656 C 374.351562 258.980469 386.40625 260.6875 398.875 262.960938 L 396.722656 274.765625 C 384.578125 272.550781 372.855469 270.890625 361.546875 269.789062 Z M 410.757812 265.277344 C 418.0625 266.785156 425.503906 268.484375 433.085938 270.375 L 430.183594 282.019531 C 422.761719 280.167969 415.476562 278.503906 408.328125 277.027344 Z M 410.757812 265.277344 " fill-opacity="1" fill-rule="nonzero"/><path fill="#1f8785" d="M 494.726562 700.835938 C 482.835938 704.730469 471.234375 708.257812 459.921875 711.414062 L 456.695312 699.855469 C 467.835938 696.746094 479.269531 693.273438 490.988281 689.429688 Z M 448.304688 714.554688 C 436.152344 717.730469 424.34375 720.460938 412.882812 722.753906 L 410.527344 710.988281 C 421.765625 708.742188 433.34375 706.058594 445.269531 702.945312 Z M 400.914062 725.011719 C 388.453125 727.210938 376.417969 728.871094 364.800781 729.988281 L 363.65625 718.042969 C 374.953125 716.957031 386.679688 715.339844 398.824219 713.195312 Z M 352.738281 730.960938 C 339.976562 731.792969 327.746094 731.929688 316.046875 731.382812 L 316.613281 719.394531 C 327.863281 719.921875 339.644531 719.789062 351.960938 718.988281 Z M 303.824219 730.539062 C 291 729.363281 278.859375 727.300781 267.394531 724.355469 L 270.382812 712.734375 C 281.222656 715.519531 292.734375 717.472656 304.917969 718.589844 Z M 255.53125 720.914062 C 243.359375 716.957031 232.023438 711.914062 221.53125 705.785156 L 227.585938 695.421875 C 237.335938 701.117188 247.886719 705.808594 259.242188 709.5 Z M 211.023438 699.085938 C 200.804688 692 191.488281 683.765625 183.082031 674.386719 L 192.019531 666.375 C 199.800781 675.058594 208.414062 682.675781 217.863281 689.226562 Z M 175.132812 664.824219 C 167.796875 655.308594 161.265625 644.789062 155.539062 633.269531 L 166.289062 627.929688 C 171.660156 638.75 177.777344 648.601562 184.636719 657.496094 Z M 150.382812 622.101562 C 145.738281 611.285156 141.738281 599.671875 138.375 587.261719 L 149.957031 584.125 C 153.171875 595.988281 156.988281 607.070312 161.410156 617.371094 Z M 135.421875 575.433594 C 132.804688 564.046875 130.6875 552.039062 129.066406 539.410156 L 140.96875 537.882812 C 142.539062 550.121094 144.589844 561.746094 147.117188 572.75 Z M 127.691406 527.367188 C 126.527344 515.746094 125.753906 503.628906 125.378906 491.011719 L 137.375 490.65625 C 137.742188 502.988281 138.492188 514.828125 139.632812 526.167969 Z M 125.140625 478.835938 L 125.121094 476.328125 L 137.121094 476.238281 L 137.140625 478.746094 Z M 125.140625 478.835938 " fill-opacity="1" fill-rule="nonzero"/></svg>