<svg xmlns="http://www.w3.org/2000/svg" xmlns:xlink="http://www.w3.org/1999/xlink" width="794" zoomAndPan="magnify" viewBox="0 0 594.95996 842.24997" height="1123" preserveAspectRatio="xMidYMid meet" version="1.0"><defs><clipPath id="ad7c9c636e"><path d="M 59.71875 141 L 533 141 L 533 699.964844 L 59.71875 699.964844 Z M 59.71875 141 " clip-rule="nonzero"/></clipPath></defs><path fill="#ffffff" d="M 323.667969 691.457031 C 275.167969 691.457031 230.863281 679.566406 191.984375 656.105469 C 153.066406 632.632812 122.246094 599.484375 100.382812 557.585938 C 78.980469 516.597656 68.128906 470.152344 68.128906 419.539062 C 68.128906 368.925781 78.828125 322.78125 99.933594 282.390625 C 121.441406 241.199219 151.898438 208.398438 190.457031 184.902344 C 229.070312 161.378906 273.269531 149.453125 321.835938 149.453125 C 370.332031 149.453125 414.640625 161.347656 453.519531 184.8125 C 471.71875 195.800781 488.347656 209.039062 502.953125 224.164062 C 518.949219 240.726562 526.042969 263.242188 522.410156 285.929688 C 518.800781 308.476562 505.140625 327.527344 484.929688 338.1875 C 474.738281 343.566406 463.273438 346.40625 451.777344 346.410156 C 431.34375 346.410156 411.492188 337.585938 397.316406 322.203125 C 391.445312 315.832031 384.964844 310.414062 377.511719 305.644531 C 361.363281 295.3125 343.152344 290.292969 321.835938 290.292969 C 301.230469 290.292969 283.542969 295.269531 267.757812 305.503906 C 251.460938 316.066406 238.921875 330.546875 229.417969 349.773438 C 219.535156 369.765625 214.527344 393.238281 214.527344 419.539062 C 214.527344 446.523438 219.566406 470.515625 229.5 490.855469 C 239.003906 510.308594 251.511719 524.878906 267.746094 535.398438 C 283.535156 545.640625 301.226562 550.617188 321.835938 550.617188 C 343.15625 550.617188 361.367188 545.597656 377.507812 535.269531 C 385.007812 530.472656 391.515625 525.027344 397.414062 518.609375 C 411.566406 503.210938 431.414062 494.375 451.867188 494.375 C 463.285156 494.375 474.679688 497.179688 484.820312 502.484375 C 505.679688 513.398438 519.402344 532.375 523.109375 554.878906 C 526.839844 577.515625 519.871094 600.03125 503.992188 616.660156 C 489.546875 631.792969 473.082031 645.03125 455.050781 656.011719 C 416.433594 679.535156 372.234375 691.457031 323.667969 691.457031 Z M 323.667969 691.457031 " fill-opacity="1" fill-rule="nonzero"/><g clip-path="url(#ad7c9c636e)"><path fill="#000000" d="M 321.835938 149.453125 C 370.332031 149.453125 414.640625 161.347656 453.519531 184.8125 C 471.71875 195.800781 488.347656 209.039062 502.953125 224.164062 C 518.949219 240.726562 526.042969 263.242188 522.410156 285.929688 C 518.800781 308.476562 505.140625 327.527344 484.929688 338.1875 C 474.738281 343.566406 463.273438 346.40625 451.777344 346.410156 C 431.34375 346.410156 411.492188 337.585938 397.316406 322.203125 C 391.445312 315.832031 384.964844 310.414062 377.511719 305.644531 C 361.363281 295.3125 343.152344 290.292969 321.835938 290.292969 C 301.230469 290.292969 283.542969 295.269531 267.757812 305.503906 C 251.460938 316.066406 238.921875 330.546875 229.417969 349.773438 C 219.535156 369.765625 214.527344 393.238281 214.527344 419.539062 C 214.527344 446.523438 219.566406 470.515625 229.5 490.855469 C 239.003906 510.308594 251.511719 524.878906 267.746094 535.398438 C 283.535156 545.640625 301.226562 550.617188 321.835938 550.617188 C 343.15625 550.617188 361.367188 545.597656 377.507812 535.269531 C 385.007812 530.472656 391.515625 525.027344 397.414062 518.609375 C 411.566406 503.210938 431.414062 494.375 451.867188 494.375 C 463.285156 494.375 474.679688 497.179688 484.820312 502.484375 C 505.679688 513.398438 519.402344 532.375 523.109375 554.878906 C 526.839844 577.515625 519.871094 600.03125 503.992188 616.660156 C 489.546875 631.792969 473.082031 645.03125 455.050781 656.011719 C 416.433594 679.535156 372.230469 691.457031 323.667969 691.457031 C 275.167969 691.457031 230.863281 679.566406 191.984375 656.105469 C 153.066406 632.632812 122.246094 599.484375 100.382812 557.585938 C 78.980469 516.597656 68.128906 470.152344 68.128906 419.539062 C 68.128906 368.925781 78.828125 322.78125 99.933594 282.390625 C 121.441406 241.199219 151.898438 208.398438 190.457031 184.902344 C 229.070312 161.378906 273.269531 149.453125 321.835938 149.453125 M 321.835938 141.046875 C 271.703125 141.046875 226.03125 153.386719 186.082031 177.726562 C 146.199219 202.03125 114.703125 235.9375 92.476562 278.5 C 70.742188 320.105469 59.71875 367.554688 59.71875 419.539062 C 59.71875 471.519531 70.890625 519.273438 92.929688 561.476562 C 115.515625 604.757812 147.378906 639.019531 187.640625 663.300781 C 227.847656 687.5625 273.613281 699.863281 323.667969 699.863281 C 373.796875 699.863281 419.472656 687.527344 459.429688 663.191406 C 478.085938 651.824219 495.128906 638.121094 510.078125 622.460938 C 527.796875 603.90625 535.570312 578.773438 531.40625 553.515625 C 529.339844 540.976562 524.558594 529.492188 517.195312 519.386719 C 509.808594 509.25 500.226562 501.058594 488.71875 495.035156 C 477.382812 489.105469 464.640625 485.96875 451.867188 485.96875 C 429.070312 485.96875 406.964844 495.792969 391.222656 512.921875 C 385.824219 518.796875 379.855469 523.789062 372.976562 528.1875 C 358.226562 537.625 341.5 542.210938 321.835938 542.210938 C 302.902344 542.210938 286.707031 537.675781 272.324219 528.347656 C 257.40625 518.679688 245.871094 505.210938 237.058594 487.167969 C 227.6875 467.988281 222.9375 445.234375 222.9375 419.539062 C 222.9375 394.542969 227.652344 372.320312 236.957031 353.496094 C 245.769531 335.664062 257.34375 322.273438 272.332031 312.554688 C 286.714844 303.230469 302.90625 298.699219 321.835938 298.699219 C 341.496094 298.699219 358.226562 303.285156 372.976562 312.722656 C 379.816406 317.097656 385.753906 322.0625 391.128906 327.898438 C 406.894531 345.003906 429 354.816406 451.773438 354.816406 C 464.640625 354.8125 477.460938 351.632812 488.855469 345.621094 C 511.425781 333.714844 526.679688 312.441406 530.710938 287.257812 C 534.769531 261.9375 526.855469 236.8125 509.003906 218.328125 C 493.894531 202.679688 476.691406 188.980469 457.867188 177.617188 C 417.65625 153.347656 371.886719 141.046875 321.835938 141.046875 Z M 321.835938 141.046875 " fill-opacity="1" fill-rule="nonzero"/></g><path fill="#58595b" d="M 332.21875 619.707031 L 332.101562 615.507812 C 337.664062 615.351562 343.242188 614.949219 348.6875 614.316406 L 349.175781 618.488281 C 343.609375 619.140625 337.90625 619.550781 332.21875 619.707031 Z M 315.238281 619.492188 C 309.539062 619.195312 303.847656 618.660156 298.324219 617.910156 L 298.894531 613.746094 C 304.300781 614.480469 309.871094 615.003906 315.460938 615.292969 Z M 365.957031 615.753906 L 365.09375 611.644531 C 370.503906 610.503906 375.914062 609.097656 381.175781 607.46875 L 382.417969 611.480469 C 377.035156 613.152344 371.496094 614.589844 365.957031 615.753906 Z M 281.605469 614.882812 C 276.058594 613.621094 270.546875 612.09375 265.222656 610.34375 L 266.535156 606.351562 C 271.734375 608.058594 277.121094 609.550781 282.539062 610.785156 Z M 398.410156 605.6875 L 396.792969 601.808594 C 400.804688 600.140625 404.816406 598.292969 408.71875 596.324219 C 409.761719 595.800781 410.796875 595.265625 411.828125 594.722656 L 413.789062 598.441406 C 412.738281 598.996094 411.679688 599.539062 410.613281 600.078125 C 406.621094 602.09375 402.515625 603.980469 398.410156 605.6875 Z M 249.335938 604.261719 C 244.160156 601.988281 239.039062 599.429688 234.113281 596.660156 L 236.175781 592.996094 C 240.980469 595.699219 245.976562 598.195312 251.027344 600.414062 Z M 428.480469 589.921875 L 426.222656 586.375 C 430.902344 583.394531 435.492188 580.191406 439.859375 576.855469 L 442.414062 580.195312 C 437.949219 583.601562 433.261719 586.875 428.480469 589.921875 Z M 219.703125 587.621094 C 215.054688 584.390625 210.515625 580.902344 206.21875 577.257812 L 208.9375 574.050781 C 213.132812 577.613281 217.5625 581.015625 222.101562 584.171875 Z M 193.792969 565.640625 C 189.875 561.601562 186.089844 557.3125 182.542969 552.886719 L 185.824219 550.257812 C 189.289062 554.582031 192.984375 558.773438 196.8125 562.710938 Z M 172.535156 539.140625 C 169.453125 534.476562 166.515625 529.574219 163.796875 524.5625 L 167.496094 522.5625 C 170.152344 527.464844 173.027344 532.265625 176.042969 536.824219 Z M 156.347656 509.289062 C 154.105469 504.144531 152.050781 498.808594 150.238281 493.441406 L 154.222656 492.097656 C 155.996094 497.355469 158.007812 502.574219 160.203125 507.613281 Z M 145.472656 477.140625 C 144.125 471.71875 142.964844 466.125 142.027344 460.519531 L 146.171875 459.824219 C 147.09375 465.328125 148.230469 470.8125 149.554688 476.125 Z M 139.84375 443.691406 C 139.328125 438.152344 138.996094 432.457031 138.859375 426.761719 L 143.0625 426.660156 C 143.199219 432.257812 143.523438 437.859375 144.03125 443.304688 Z M 143.199219 409.988281 L 139 409.820312 C 139.230469 404.128906 139.65625 398.441406 140.261719 392.914062 L 144.441406 393.371094 C 143.84375 398.804688 143.425781 404.394531 143.199219 409.988281 Z M 146.851562 376.902344 L 142.71875 376.140625 C 143.75 370.554688 145 364.984375 146.4375 359.589844 L 150.5 360.671875 C 149.089844 365.960938 147.863281 371.421875 146.851562 376.902344 Z M 155.429688 344.789062 L 151.46875 343.378906 C 153.371094 338.042969 155.511719 332.746094 157.835938 327.636719 L 161.664062 329.375 C 159.386719 334.378906 157.289062 339.5625 155.429688 344.789062 Z M 169.191406 314.554688 L 165.527344 312.492188 C 168.324219 307.53125 171.347656 302.683594 174.519531 298.078125 L 177.984375 300.460938 C 174.882812 304.960938 171.925781 309.703125 169.191406 314.554688 Z M 188.03125 287.238281 L 184.808594 284.542969 C 188.445312 280.199219 192.328125 275.996094 196.347656 272.046875 L 199.292969 275.046875 C 195.375 278.898438 191.582031 283 188.03125 287.238281 Z M 439.832031 271.527344 C 435.746094 267.691406 431.515625 264.023438 427.261719 260.625 L 429.882812 257.339844 C 434.230469 260.808594 438.542969 264.550781 442.710938 268.464844 Z M 211.695312 264.003906 L 209.054688 260.734375 C 213.433594 257.203125 218.058594 253.828125 222.796875 250.707031 L 225.109375 254.214844 C 220.484375 257.265625 215.96875 260.558594 211.695312 264.003906 Z M 413.828125 250.824219 C 410.722656 248.761719 407.535156 246.789062 404.359375 244.957031 C 402.792969 244.054688 401.183594 243.171875 399.578125 242.328125 L 401.527344 238.605469 C 403.183594 239.472656 404.84375 240.386719 406.460938 241.316406 C 409.714844 243.191406 412.976562 245.214844 416.152344 247.324219 Z M 239.402344 245.753906 L 237.433594 242.039062 C 242.429688 239.398438 247.613281 236.972656 252.84375 234.828125 L 254.4375 238.714844 C 249.335938 240.808594 244.277344 243.175781 239.402344 245.753906 Z M 384.480469 235.546875 C 379.398438 233.617188 374.082031 231.933594 368.683594 230.550781 L 369.726562 226.480469 C 375.277344 227.902344 380.746094 229.632812 385.972656 231.617188 Z M 270.09375 233.167969 L 268.878906 229.140625 C 274.25 227.523438 279.800781 226.128906 285.378906 225.003906 L 286.210938 229.121094 C 280.761719 230.222656 275.339844 231.585938 270.09375 233.167969 Z M 352.417969 227.277344 C 347.058594 226.476562 341.496094 225.917969 335.886719 225.609375 L 336.113281 221.414062 C 341.855469 221.726562 347.546875 222.300781 353.035156 223.121094 Z M 302.640625 226.554688 L 302.175781 222.378906 C 307.714844 221.761719 313.421875 221.363281 319.128906 221.203125 L 319.246094 225.40625 C 313.652344 225.5625 308.066406 225.949219 302.640625 226.554688 Z M 302.640625 226.554688 " fill-opacity="1" fill-rule="nonzero"/><path fill="#58595b" d="M 459.679688 584.226562 L 469.292969 551.191406 L 435.863281 559.386719 Z M 459.679688 584.226562 " fill-opacity="1" fill-rule="nonzero"/><path fill="#414042" d="M 486.734375 270.882812 C 486.734375 272.128906 486.675781 273.371094 486.550781 274.609375 C 486.429688 275.851562 486.246094 277.082031 486.003906 278.300781 C 485.761719 279.523438 485.460938 280.730469 485.097656 281.921875 C 484.734375 283.113281 484.316406 284.285156 483.839844 285.4375 C 483.363281 286.585938 482.832031 287.710938 482.242188 288.808594 C 481.65625 289.90625 481.015625 290.972656 480.324219 292.011719 C 479.632812 293.046875 478.890625 294.042969 478.101562 295.007812 C 477.308594 295.96875 476.472656 296.890625 475.59375 297.773438 C 474.710938 298.652344 473.789062 299.488281 472.828125 300.277344 C 471.863281 301.066406 470.863281 301.808594 469.828125 302.5 C 468.792969 303.191406 467.726562 303.832031 466.625 304.417969 C 465.527344 305.007812 464.402344 305.539062 463.25 306.015625 C 462.101562 306.492188 460.929688 306.910156 459.738281 307.273438 C 458.542969 307.632812 457.335938 307.9375 456.113281 308.179688 C 454.894531 308.421875 453.664062 308.605469 452.421875 308.726562 C 451.183594 308.847656 449.941406 308.910156 448.695312 308.910156 C 447.449219 308.910156 446.203125 308.847656 444.964844 308.726562 C 443.726562 308.605469 442.492188 308.421875 441.273438 308.179688 C 440.050781 307.9375 438.84375 307.632812 437.652344 307.273438 C 436.457031 306.910156 435.285156 306.492188 434.136719 306.015625 C 432.984375 305.539062 431.859375 305.007812 430.761719 304.417969 C 429.660156 303.832031 428.59375 303.191406 427.558594 302.5 C 426.523438 301.808594 425.523438 301.066406 424.558594 300.277344 C 423.597656 299.488281 422.675781 298.652344 421.792969 297.773438 C 420.914062 296.890625 420.078125 295.96875 419.285156 295.007812 C 418.496094 294.042969 417.753906 293.046875 417.0625 292.011719 C 416.371094 290.972656 415.730469 289.90625 415.144531 288.808594 C 414.554688 287.710938 414.023438 286.585938 413.546875 285.4375 C 413.070312 284.285156 412.652344 283.113281 412.289062 281.921875 C 411.925781 280.730469 411.625 279.523438 411.382812 278.300781 C 411.140625 277.082031 410.957031 275.851562 410.835938 274.609375 C 410.710938 273.371094 410.652344 272.128906 410.652344 270.882812 C 410.652344 269.636719 410.710938 268.394531 410.835938 267.15625 C 410.957031 265.917969 411.140625 264.6875 411.382812 263.464844 C 411.625 262.242188 411.925781 261.039062 412.289062 259.84375 C 412.652344 258.652344 413.070312 257.484375 413.546875 256.332031 C 414.023438 255.179688 414.554688 254.058594 415.144531 252.957031 C 415.730469 251.859375 416.371094 250.792969 417.0625 249.757812 C 417.753906 248.722656 418.496094 247.722656 419.285156 246.761719 C 420.078125 245.796875 420.914062 244.875 421.792969 243.996094 C 422.675781 243.113281 423.597656 242.28125 424.558594 241.488281 C 425.523438 240.699219 426.523438 239.957031 427.558594 239.265625 C 428.59375 238.574219 429.660156 237.933594 430.761719 237.347656 C 431.859375 236.761719 432.984375 236.230469 434.136719 235.753906 C 435.285156 235.277344 436.457031 234.855469 437.652344 234.496094 C 438.84375 234.132812 440.050781 233.832031 441.273438 233.589844 C 442.492188 233.34375 443.726562 233.164062 444.964844 233.039062 C 446.203125 232.917969 447.449219 232.859375 448.695312 232.859375 C 449.941406 232.859375 451.183594 232.917969 452.421875 233.039062 C 453.664062 233.164062 454.894531 233.34375 456.113281 233.589844 C 457.335938 233.832031 458.542969 234.132812 459.738281 234.496094 C 460.929688 234.855469 462.101562 235.277344 463.25 235.753906 C 464.402344 236.230469 465.527344 236.761719 466.625 237.347656 C 467.726562 237.933594 468.792969 238.574219 469.828125 239.265625 C 470.863281 239.957031 471.863281 240.699219 472.828125 241.488281 C 473.789062 242.28125 474.710938 243.113281 475.59375 243.996094 C 476.472656 244.875 477.308594 245.796875 478.101562 246.761719 C 478.890625 247.722656 479.632812 248.722656 480.324219 249.757812 C 481.015625 250.792969 481.65625 251.859375 482.242188 252.957031 C 482.832031 254.058594 483.363281 255.179688 483.839844 256.332031 C 484.316406 257.484375 484.734375 258.652344 485.097656 259.84375 C 485.460938 261.039062 485.761719 262.242188 486.003906 263.464844 C 486.246094 264.6875 486.429688 265.917969 486.550781 267.15625 C 486.675781 268.394531 486.734375 269.636719 486.734375 270.882812 Z M 486.734375 270.882812 " fill-opacity="1" fill-rule="nonzero"/><path fill="#fcfcfc" d="M 453.097656 244.851562 L 448.214844 244.851562 C 447.660156 244.851562 447.132812 245.09375 446.773438 245.515625 L 432.390625 262.332031 C 431.753906 263.085938 431.789062 264.199219 432.492188 264.902344 L 435.226562 267.628906 C 435.964844 268.367188 437.15625 268.367188 437.894531 267.636719 L 446.320312 259.320312 L 446.320312 295.757812 C 446.320312 296.800781 447.171875 297.652344 448.210938 297.652344 L 453.097656 297.652344 C 454.140625 297.652344 454.988281 296.800781 454.988281 295.757812 L 454.988281 246.742188 C 454.992188 245.699219 454.140625 244.851562 453.097656 244.851562 Z M 453.097656 244.851562 " fill-opacity="1" fill-rule="nonzero"/></svg>