<svg xmlns="http://www.w3.org/2000/svg" xmlns:xlink="http://www.w3.org/1999/xlink" width="800" zoomAndPan="magnify" viewBox="0 0 600 899.99999" height="1200" preserveAspectRatio="xMidYMid meet" version="1.0"><defs><g/><clipPath id="98b1ae2fee"><path d="M 97.070312 269.699219 L 138.3125 269.699219 L 138.3125 296.488281 L 97.070312 296.488281 Z M 97.070312 269.699219 " clip-rule="nonzero"/></clipPath><clipPath id="885bb0fc34"><path d="M 170.113281 248.976562 L 196.90625 248.976562 L 196.90625 290.222656 L 170.113281 290.222656 Z M 170.113281 248.976562 " clip-rule="nonzero"/></clipPath></defs><path stroke-linecap="butt" transform="matrix(0.75, 0, 0, 0.75, 12.536135, -15.449276)" fill="none" stroke-linejoin="miter" d="M 145.889327 1034.00013 C 123.785159 1034.00013 106.837242 1028.18763 95.050783 1016.56263 C 83.259115 1004.770962 77.363282 987.74492 77.363282 965.479294 L 77.363282 393.224055 C 77.363282 371.119887 83.259115 354.17197 95.050783 342.380303 C 106.837242 330.593844 123.785159 324.69801 145.889327 324.69801 L 341.144546 324.69801 C 459.852885 324.69801 551.54039 355.23447 616.217477 416.30739 C 680.894563 477.38031 713.233107 564.895939 713.233107 678.859487 C 713.233107 735.838656 704.962273 786.349076 688.425814 830.395953 C 672.050813 874.276164 647.89977 911.281374 615.972685 941.406376 C 584.207058 971.536585 545.32164 994.541795 499.311221 1010.422004 C 453.467468 1026.140755 400.743507 1034.00013 341.144546 1034.00013 Z M 206.305997 927.406375 L 333.03517 927.406375 C 374.628922 927.406375 410.649758 922.250125 441.102884 911.937624 C 471.556011 901.458457 497.019554 885.984498 517.483097 865.515747 C 537.951848 845.046996 553.181015 819.260536 563.165391 788.151159 C 573.321641 756.880324 578.394558 720.448031 578.394558 678.859487 C 578.394558 595.682399 557.925807 533.708438 516.993513 492.937602 C 476.061219 452.0001 414.743508 431.536557 333.03517 431.536557 L 206.305997 431.536557 Z M 206.305997 927.406375 " stroke="#1f8785" stroke-width="40.239601" stroke-opacity="1" stroke-miterlimit="4"/><g fill="#ffffff" fill-opacity="1"><g transform="translate(12.536135, 760.050683)"><g><path d="M 109.40625 0 C 92.800781 0 80.097656 -4.398438 71.296875 -13.203125 C 62.492188 -22.003906 58.09375 -34.707031 58.09375 -51.3125 L 58.09375 -480.609375 C 58.09375 -497.210938 62.492188 -509.914062 71.296875 -518.71875 C 80.097656 -527.519531 92.800781 -531.921875 109.40625 -531.921875 L 255.78125 -531.921875 C 344.8125 -531.921875 413.59375 -509.035156 462.125 -463.265625 C 510.664062 -417.492188 534.9375 -351.851562 534.9375 -266.34375 C 534.9375 -223.582031 528.773438 -185.726562 516.453125 -152.78125 C 504.128906 -119.832031 486.019531 -92.039062 462.125 -69.40625 C 438.238281 -46.78125 409.066406 -29.554688 374.609375 -17.734375 C 340.148438 -5.910156 300.539062 0 255.78125 0 Z M 154.671875 -79.984375 L 249.734375 -79.984375 C 280.921875 -79.984375 307.957031 -83.878906 330.84375 -91.671875 C 353.726562 -99.460938 372.84375 -111.03125 388.1875 -126.375 C 403.53125 -141.71875 414.972656 -161.082031 422.515625 -184.46875 C 430.066406 -207.863281 433.84375 -235.15625 433.84375 -266.34375 C 433.84375 -328.707031 418.5 -375.234375 387.8125 -405.921875 C 357.125 -436.609375 311.097656 -451.953125 249.734375 -451.953125 L 154.671875 -451.953125 Z M 154.671875 -79.984375 "/></g></g></g><g clip-path="url(#98b1ae2fee)"><path fill="#1f8785" d="M 119.171875 295.742188 L 137.832031 273.050781 C 139.238281 271.34375 137.304688 268.933594 135.332031 269.933594 L 118.523438 278.472656 C 117.941406 278.769531 117.253906 278.769531 116.671875 278.472656 L 99.859375 269.933594 C 97.886719 268.929688 95.953125 271.34375 97.359375 273.050781 L 116.019531 295.742188 C 116.835938 296.738281 118.355469 296.738281 119.171875 295.742188 " fill-opacity="1" fill-rule="nonzero"/></g><g clip-path="url(#885bb0fc34)"><path fill="#1f8785" d="M 196.160156 268.121094 L 173.46875 249.457031 C 171.757812 248.054688 169.347656 249.988281 170.351562 251.960938 L 178.886719 268.769531 C 179.183594 269.351562 179.183594 270.039062 178.886719 270.621094 L 170.351562 287.433594 C 169.347656 289.40625 171.757812 291.339844 173.46875 289.933594 L 196.160156 271.273438 C 197.152344 270.457031 197.152344 268.9375 196.160156 268.121094 " fill-opacity="1" fill-rule="nonzero"/></g><path fill="#1f8785" d="M 111.597656 735.105469 L 111.597656 699.105469 L 123.597656 699.105469 L 123.597656 735.105469 M 111.597656 687.105469 L 111.597656 651.105469 L 123.597656 651.105469 L 123.597656 687.105469 M 111.597656 639.105469 L 111.597656 603.105469 L 123.597656 603.105469 L 123.597656 639.105469 M 111.597656 591.105469 L 111.597656 555.105469 L 123.597656 555.105469 L 123.597656 591.105469 M 111.597656 543.105469 L 111.597656 507.105469 L 123.597656 507.105469 L 123.597656 543.105469 M 111.597656 495.105469 L 111.597656 459.105469 L 123.597656 459.105469 L 123.597656 495.105469 M 111.597656 447.105469 L 111.597656 411.105469 L 123.597656 411.105469 L 123.597656 447.105469 M 111.597656 399.105469 L 111.597656 363.105469 L 123.597656 363.105469 L 123.597656 399.105469 M 111.597656 351.105469 L 111.597656 315.105469 L 123.597656 315.105469 L 123.597656 351.105469 " fill-opacity="1" fill-rule="nonzero"/><path fill="#1f8785" d="M 480.78125 435.242188 C 479.691406 423.007812 477.730469 411.480469 474.902344 400.664062 L 486.511719 397.628906 C 489.511719 409.09375 491.582031 421.273438 492.734375 434.175781 Z M 471.609375 389.550781 C 467.84375 378.246094 463.03125 367.789062 457.175781 358.183594 L 467.421875 351.9375 C 473.75 362.320312 478.941406 373.59375 482.992188 385.757812 Z M 450.792969 348.613281 C 444.054688 339.359375 436.210938 330.980469 427.257812 323.484375 L 434.964844 314.285156 C 444.667969 322.414062 453.179688 331.5 460.496094 341.550781 Z M 418.164062 316.4375 C 409.085938 309.9375 399.023438 304.199219 387.980469 299.230469 L 392.90625 288.285156 C 404.675781 293.582031 415.425781 299.714844 425.152344 306.683594 Z M 377.191406 294.738281 C 366.789062 290.738281 355.605469 287.347656 343.640625 284.566406 L 346.359375 272.878906 C 358.863281 275.785156 370.578125 279.335938 381.5 283.535156 Z M 332 282.097656 C 320.964844 279.980469 309.320312 278.335938 297.066406 277.175781 L 298.199219 265.226562 C 310.832031 266.425781 322.855469 268.121094 334.261719 270.316406 Z M 285.210938 276.210938 C 273.820312 275.4375 261.9375 275.050781 249.5625 275.054688 L 249.558594 263.054688 C 262.207031 263.050781 274.363281 263.445312 286.027344 264.238281 Z M 237.847656 275.171875 C 232.488281 275.277344 227.039062 275.449219 221.503906 275.691406 L 220.980469 263.703125 C 226.613281 263.457031 232.15625 263.28125 237.617188 263.175781 Z M 237.847656 275.171875 " fill-opacity="1" fill-rule="nonzero"/><path fill="#1f8785" d="M 183.972656 729.121094 C 196.246094 730.070312 208.140625 730.675781 219.664062 730.945312 L 219.386719 742.941406 C 207.648438 742.667969 195.535156 742.050781 183.046875 741.085938 Z M 231.558594 731.097656 C 243.855469 731.132812 255.703125 730.757812 267.101562 729.980469 L 267.917969 741.953125 C 256.238281 742.75 244.109375 743.132812 231.527344 743.097656 Z M 278.828125 729.019531 C 291.074219 727.847656 302.769531 726.183594 313.917969 724.023438 L 316.203125 735.800781 C 304.675781 738.035156 292.601562 739.757812 279.96875 740.964844 Z M 325.429688 721.566406 C 337.339844 718.792969 348.574219 715.410156 359.132812 711.421875 L 363.375 722.644531 C 352.320312 726.820312 340.582031 730.359375 328.152344 733.253906 Z M 369.941406 707.023438 C 380.980469 702.195312 391.207031 696.640625 400.621094 690.359375 L 407.28125 700.34375 C 397.277344 707.015625 386.433594 712.90625 374.75 718.015625 Z M 410.066406 683.609375 C 419.371094 676.488281 427.785156 668.5625 435.316406 659.828125 L 444.40625 667.667969 C 436.335938 677.023438 427.320312 685.515625 417.359375 693.140625 Z M 442.570312 650.804688 C 449.410156 641.664062 455.394531 631.734375 460.527344 621.015625 L 471.351562 626.195312 C 465.878906 637.625 459.488281 648.226562 452.175781 657.996094 Z M 465.234375 610.375 C 469.488281 599.9375 473.003906 588.820312 475.789062 577.011719 L 487.46875 579.765625 C 484.542969 592.179688 480.835938 603.890625 476.34375 614.902344 Z M 478.222656 565.523438 C 480.320312 554.421875 481.816406 542.761719 482.703125 530.539062 L 494.671875 531.410156 C 493.75 544.089844 492.199219 556.203125 490.015625 567.75 Z M 483.367188 518.730469 C 483.824219 507.359375 483.785156 495.535156 483.253906 483.25 L 495.242188 482.730469 C 495.789062 495.347656 495.828125 507.507812 495.359375 519.210938 Z M 482.597656 471.378906 C 482.140625 464.59375 481.539062 457.675781 480.796875 450.628906 L 492.730469 449.367188 C 493.488281 456.570312 494.101562 463.636719 494.570312 470.570312 Z M 482.597656 471.378906 " fill-opacity="1" fill-rule="nonzero"/></svg>