<svg xmlns="http://www.w3.org/2000/svg" xmlns:xlink="http://www.w3.org/1999/xlink" width="794" zoomAndPan="magnify" viewBox="0 0 594.95996 842.24997" height="1123" preserveAspectRatio="xMidYMid meet" version="1.0"><defs><clipPath id="2c558485df"><path d="M 53.785156 104.589844 L 541.601562 104.589844 L 541.601562 736.277344 L 53.785156 736.277344 Z M 53.785156 104.589844 " clip-rule="nonzero"/></clipPath></defs><g clip-path="url(#2c558485df)"><path fill="#000000" d="M 228.851562 110.578125 C 291.039062 110.578125 345.792969 122.945312 391.59375 147.34375 C 438.488281 172.316406 474.777344 209.03125 499.441406 256.464844 C 523.488281 302.742188 535.679688 358.1875 535.679688 421.265625 C 535.679688 516.550781 508.15625 592.675781 453.882812 647.523438 C 399.511719 702.460938 323.804688 730.320312 228.851562 730.320312 L 89.316406 730.320312 C 72.992188 730.320312 59.707031 717.046875 59.707031 700.730469 L 59.707031 140.164062 C 59.707031 123.847656 72.992188 110.578125 89.316406 110.578125 L 228.851562 110.578125 M 182.464844 613.390625 L 227.214844 613.390625 C 285.304688 613.390625 330.789062 597.839844 362.386719 567.175781 C 393.746094 536.761719 409.640625 487.671875 409.640625 421.265625 C 409.640625 354.332031 393.746094 304.964844 362.386719 274.542969 C 330.785156 243.878906 285.300781 228.328125 227.214844 228.328125 L 182.464844 228.328125 L 182.464844 613.390625 M 228.851562 104.660156 L 89.316406 104.660156 C 69.726562 104.660156 53.785156 120.585938 53.785156 140.164062 L 53.785156 700.730469 C 53.785156 720.308594 69.726562 736.234375 89.316406 736.234375 L 228.851562 736.234375 C 325.441406 736.234375 402.566406 707.789062 458.09375 651.6875 C 513.503906 595.6875 541.601562 518.164062 541.601562 421.265625 C 541.601562 357.226562 529.183594 300.863281 504.699219 253.738281 C 479.472656 205.222656 442.355469 167.667969 394.378906 142.121094 C 347.710938 117.265625 292.019531 104.660156 228.851562 104.660156 Z M 188.386719 234.246094 L 227.214844 234.246094 C 283.710938 234.246094 327.800781 249.230469 358.261719 278.785156 C 388.425781 308.050781 403.71875 355.988281 403.71875 421.265625 C 403.71875 486.011719 388.425781 533.671875 358.265625 562.929688 C 327.808594 592.484375 283.714844 607.472656 227.214844 607.472656 L 188.386719 607.472656 Z M 188.386719 234.246094 " fill-opacity="1" fill-rule="nonzero"/></g><path fill="#58595b" d="M 221.632812 677.441406 L 209.789062 677.441406 L 209.789062 674.484375 L 221.632812 674.484375 Z M 197.945312 677.441406 L 186.101562 677.441406 L 186.101562 674.484375 L 197.945312 674.484375 Z M 174.257812 677.441406 L 162.414062 677.441406 L 162.414062 674.484375 L 174.257812 674.484375 Z M 233.519531 677.253906 L 233.425781 674.296875 C 237.375 674.171875 241.335938 673.988281 245.207031 673.742188 L 245.394531 676.695312 C 241.492188 676.941406 237.5 677.128906 233.519531 677.253906 Z M 257.246094 675.742188 L 256.960938 672.796875 C 260.886719 672.414062 264.824219 671.957031 268.667969 671.441406 L 269.0625 674.375 C 265.183594 674.894531 261.210938 675.355469 257.246094 675.742188 Z M 280.824219 672.5625 L 280.316406 669.648438 C 284.207031 668.972656 288.097656 668.214844 291.878906 667.398438 L 292.503906 670.289062 C 288.683594 671.117188 284.753906 671.882812 280.824219 672.5625 Z M 304.085938 667.527344 L 303.335938 664.664062 C 307.144531 663.667969 310.953125 662.582031 314.652344 661.429688 L 315.53125 664.253906 C 311.789062 665.417969 307.9375 666.519531 304.085938 667.527344 Z M 326.820312 660.453125 L 325.804688 657.671875 C 329.5 656.328125 333.183594 654.882812 336.757812 653.375 L 337.910156 656.101562 C 334.289062 657.628906 330.558594 659.089844 326.820312 660.453125 Z M 348.765625 651.191406 L 347.476562 648.527344 C 351.007812 646.820312 354.519531 645 357.917969 643.125 L 359.351562 645.714844 C 355.90625 647.617188 352.34375 649.457031 348.765625 651.191406 Z M 369.625 639.671875 L 368.050781 637.164062 C 371.367188 635.085938 374.660156 632.894531 377.835938 630.648438 L 379.546875 633.066406 C 376.324219 635.34375 372.988281 637.566406 369.625 639.671875 Z M 389.082031 625.914062 L 387.238281 623.597656 C 390.289062 621.171875 393.3125 618.625 396.226562 616.027344 L 398.195312 618.234375 C 395.242188 620.867188 392.175781 623.453125 389.082031 625.914062 Z M 406.863281 610.054688 L 404.773438 607.960938 C 405.082031 607.652344 405.386719 607.34375 405.691406 607.035156 C 408.136719 604.566406 410.550781 602.003906 412.859375 599.429688 L 415.0625 601.402344 C 412.722656 604.015625 410.277344 606.609375 407.796875 609.117188 C 407.488281 609.429688 407.175781 609.742188 406.863281 610.054688 Z M 422.765625 592.308594 L 420.453125 590.460938 C 422.886719 587.417969 425.265625 584.261719 427.53125 581.082031 L 429.945312 582.796875 C 427.648438 586.023438 425.234375 589.222656 422.765625 592.308594 Z M 436.582031 572.902344 L 434.078125 571.324219 C 436.15625 568.035156 438.175781 564.636719 440.082031 561.21875 L 442.667969 562.660156 C 440.734375 566.125 438.6875 569.570312 436.582031 572.902344 Z M 448.1875 552.105469 L 445.53125 550.804688 C 447.234375 547.324219 448.882812 543.730469 450.429688 540.117188 L 453.152344 541.28125 C 451.585938 544.9375 449.917969 548.582031 448.1875 552.105469 Z M 457.5625 530.222656 L 454.785156 529.195312 C 456.132812 525.5625 457.417969 521.820312 458.609375 518.070312 L 461.433594 518.96875 C 460.226562 522.761719 458.925781 526.546875 457.5625 530.222656 Z M 464.777344 507.546875 L 461.917969 506.78125 C 462.925781 503.042969 463.871094 499.195312 464.730469 495.351562 L 467.617188 495.996094 C 466.75 499.882812 465.796875 503.769531 464.777344 507.546875 Z M 469.976562 484.339844 L 467.0625 483.8125 C 467.753906 480 468.386719 476.089844 468.941406 472.1875 L 471.871094 472.601562 C 471.3125 476.542969 470.675781 480.488281 469.976562 484.339844 Z M 473.332031 460.808594 L 470.386719 460.496094 C 470.792969 456.648438 471.140625 452.699219 471.421875 448.757812 L 474.375 448.96875 C 474.09375 452.941406 473.742188 456.925781 473.332031 460.808594 Z M 475.03125 437.105469 L 472.074219 436.992188 C 472.226562 433.125 472.320312 429.15625 472.355469 425.207031 L 475.316406 425.234375 C 475.28125 429.214844 475.183594 433.207031 475.03125 437.105469 Z M 472.292969 413.414062 C 472.214844 409.464844 472.074219 405.503906 471.875 401.632812 L 474.832031 401.484375 C 475.03125 405.382812 475.171875 409.375 475.253906 413.355469 Z M 471.085938 389.875 C 470.757812 385.949219 470.359375 382.003906 469.902344 378.148438 L 472.84375 377.800781 C 473.304688 381.6875 473.707031 385.667969 474.035156 389.628906 Z M 468.308594 366.480469 C 467.703125 362.582031 467.019531 358.679688 466.277344 354.878906 L 469.183594 354.3125 C 469.933594 358.148438 470.621094 362.089844 471.234375 366.023438 Z M 463.792969 343.367188 C 462.882812 339.53125 461.886719 335.699219 460.835938 331.976562 L 463.683594 331.171875 C 464.75 334.933594 465.753906 338.808594 466.675781 342.6875 Z M 457.382812 320.726562 C 456.140625 316.988281 454.808594 313.257812 453.417969 309.636719 L 456.179688 308.578125 C 457.589844 312.238281 458.9375 316.011719 460.191406 319.792969 Z M 448.925781 298.757812 C 447.335938 295.164062 445.644531 291.585938 443.898438 288.125 L 446.542969 286.792969 C 448.3125 290.296875 450.023438 293.921875 451.632812 297.5625 Z M 438.328125 277.765625 C 436.378906 274.359375 434.324219 270.980469 432.214844 267.71875 L 434.703125 266.113281 C 436.839844 269.417969 438.925781 272.84375 440.898438 276.296875 Z M 425.5625 258.023438 C 423.257812 254.855469 420.839844 251.722656 418.378906 248.71875 L 420.671875 246.84375 C 423.167969 249.894531 425.621094 253.070312 427.957031 256.28125 Z M 410.675781 239.84375 C 408.03125 236.96875 405.273438 234.136719 402.472656 231.429688 L 404.53125 229.304688 C 407.371094 232.050781 410.171875 234.925781 412.855469 237.839844 Z M 393.796875 223.503906 C 390.851562 220.964844 387.78125 218.472656 384.679688 216.09375 L 386.480469 213.746094 C 389.628906 216.15625 392.742188 218.6875 395.730469 221.261719 Z M 375.15625 209.21875 C 371.945312 207.035156 368.617188 204.902344 365.261719 202.882812 L 366.789062 200.347656 C 370.191406 202.398438 373.566406 204.558594 376.820312 206.773438 Z M 355.027344 197.085938 C 351.601562 195.265625 348.0625 193.5 344.507812 191.84375 L 345.761719 189.160156 C 349.359375 190.839844 352.945312 192.628906 356.417969 194.476562 Z M 333.730469 187.144531 C 330.140625 185.683594 326.441406 184.285156 322.734375 182.984375 L 323.714844 180.191406 C 327.464844 181.507812 331.210938 182.925781 334.847656 184.402344 Z M 311.535156 179.347656 C 307.820312 178.234375 304 177.183594 300.183594 176.222656 L 300.90625 173.351562 C 304.765625 174.324219 308.628906 175.386719 312.386719 176.511719 Z M 288.699219 173.589844 C 284.902344 172.804688 281.003906 172.078125 277.117188 171.433594 L 277.601562 168.515625 C 281.53125 169.164062 285.464844 169.898438 289.300781 170.691406 Z M 265.453125 169.730469 C 261.605469 169.242188 257.664062 168.816406 253.734375 168.460938 L 254 165.515625 C 257.964844 165.871094 261.945312 166.304688 265.828125 166.796875 Z M 241.972656 167.605469 C 238.101562 167.390625 234.132812 167.234375 230.1875 167.140625 L 230.257812 164.183594 C 234.238281 164.277344 238.234375 164.433594 242.140625 164.652344 Z M 218.378906 167.039062 L 206.535156 167.039062 L 206.535156 164.078125 L 218.378906 164.078125 Z M 218.378906 167.039062 " fill-opacity="1" fill-rule="nonzero"/><path fill="#58595b" d="M 149.632812 675.960938 L 170.621094 663.851562 L 170.621094 688.074219 Z M 149.632812 675.960938 " fill-opacity="1" fill-rule="nonzero"/><path fill="#58595b" d="M 121.582031 689.847656 L 118.621094 689.847656 L 118.621094 685.480469 L 121.582031 685.480469 Z M 121.582031 673.644531 L 118.621094 673.644531 L 118.621094 661.808594 L 121.582031 661.808594 Z M 121.582031 649.972656 L 118.621094 649.972656 L 118.621094 638.136719 L 121.582031 638.136719 Z M 121.582031 626.304688 L 118.621094 626.304688 L 118.621094 614.46875 L 121.582031 614.46875 Z M 121.582031 602.632812 L 118.621094 602.632812 L 118.621094 590.796875 L 121.582031 590.796875 Z M 121.582031 578.964844 L 118.621094 578.964844 L 118.621094 567.128906 L 121.582031 567.128906 Z M 121.582031 555.292969 L 118.621094 555.292969 L 118.621094 543.457031 L 121.582031 543.457031 Z M 121.582031 531.625 L 118.621094 531.625 L 118.621094 519.789062 L 121.582031 519.789062 Z M 121.582031 507.953125 L 118.621094 507.953125 L 118.621094 496.117188 L 121.582031 496.117188 Z M 121.582031 484.28125 L 118.621094 484.28125 L 118.621094 472.449219 L 121.582031 472.449219 Z M 121.582031 460.613281 L 118.621094 460.613281 L 118.621094 448.777344 L 121.582031 448.777344 Z M 121.582031 436.941406 L 118.621094 436.941406 L 118.621094 425.109375 L 121.582031 425.109375 Z M 121.582031 413.273438 L 118.621094 413.273438 L 118.621094 401.4375 L 121.582031 401.4375 Z M 121.582031 389.601562 L 118.621094 389.601562 L 118.621094 377.769531 L 121.582031 377.769531 Z M 121.582031 365.933594 L 118.621094 365.933594 L 118.621094 354.097656 L 121.582031 354.097656 Z M 121.582031 342.261719 L 118.621094 342.261719 L 118.621094 330.425781 L 121.582031 330.425781 Z M 121.582031 318.59375 L 118.621094 318.59375 L 118.621094 306.757812 L 121.582031 306.757812 Z M 121.582031 294.921875 L 118.621094 294.921875 L 118.621094 283.085938 L 121.582031 283.085938 Z M 121.582031 271.253906 L 118.621094 271.253906 L 118.621094 259.417969 L 121.582031 259.417969 Z M 121.582031 247.582031 L 118.621094 247.582031 L 118.621094 235.746094 L 121.582031 235.746094 Z M 121.582031 223.914062 L 118.621094 223.914062 L 118.621094 212.078125 L 121.582031 212.078125 Z M 121.582031 200.242188 L 118.621094 200.242188 L 118.621094 188.40625 L 121.582031 188.40625 Z M 121.582031 200.242188 " fill-opacity="1" fill-rule="nonzero"/><path fill="#58595b" d="M 120.101562 703.832031 L 132.222656 682.855469 L 107.984375 682.855469 Z M 120.101562 703.832031 " fill-opacity="1" fill-rule="nonzero"/><path fill="#414042" d="M 147.738281 165.691406 C 147.738281 166.664062 147.6875 167.636719 147.59375 168.605469 C 147.5 169.578125 147.355469 170.539062 147.164062 171.492188 C 146.976562 172.449219 146.738281 173.394531 146.457031 174.324219 C 146.171875 175.257812 145.84375 176.175781 145.472656 177.074219 C 145.097656 177.972656 144.683594 178.855469 144.222656 179.710938 C 143.761719 180.570312 143.261719 181.40625 142.71875 182.214844 C 142.179688 183.027344 141.597656 183.808594 140.980469 184.5625 C 140.363281 185.3125 139.707031 186.035156 139.019531 186.722656 C 138.328125 187.414062 137.609375 188.066406 136.855469 188.683594 C 136.101562 189.300781 135.320312 189.882812 134.507812 190.421875 C 133.699219 190.964844 132.863281 191.464844 132.003906 191.921875 C 131.144531 192.382812 130.261719 192.796875 129.363281 193.171875 C 128.460938 193.542969 127.542969 193.871094 126.613281 194.15625 C 125.679688 194.4375 124.734375 194.675781 123.777344 194.863281 C 122.820312 195.054688 121.859375 195.195312 120.886719 195.292969 C 119.917969 195.386719 118.945312 195.4375 117.972656 195.4375 C 116.996094 195.4375 116.023438 195.386719 115.054688 195.292969 C 114.082031 195.195312 113.121094 195.054688 112.164062 194.863281 C 111.207031 194.675781 110.261719 194.4375 109.332031 194.15625 C 108.398438 193.871094 107.480469 193.542969 106.578125 193.171875 C 105.679688 192.796875 104.796875 192.382812 103.9375 191.921875 C 103.078125 191.464844 102.242188 190.964844 101.433594 190.421875 C 100.621094 189.882812 99.839844 189.300781 99.085938 188.683594 C 98.332031 188.066406 97.613281 187.414062 96.921875 186.722656 C 96.234375 186.035156 95.578125 185.3125 94.960938 184.5625 C 94.34375 183.808594 93.761719 183.027344 93.222656 182.214844 C 92.679688 181.40625 92.179688 180.570312 91.71875 179.710938 C 91.257812 178.855469 90.84375 177.972656 90.46875 177.074219 C 90.097656 176.175781 89.769531 175.257812 89.484375 174.324219 C 89.203125 173.394531 88.964844 172.449219 88.777344 171.492188 C 88.585938 170.539062 88.441406 169.578125 88.347656 168.605469 C 88.253906 167.636719 88.203125 166.664062 88.203125 165.691406 C 88.203125 164.71875 88.253906 163.746094 88.347656 162.777344 C 88.441406 161.804688 88.585938 160.84375 88.777344 159.886719 C 88.964844 158.933594 89.203125 157.988281 89.484375 157.058594 C 89.769531 156.125 90.097656 155.207031 90.46875 154.308594 C 90.84375 153.410156 91.257812 152.527344 91.71875 151.667969 C 92.179688 150.8125 92.679688 149.976562 93.222656 149.167969 C 93.761719 148.355469 94.34375 147.574219 94.960938 146.820312 C 95.578125 146.070312 96.234375 145.347656 96.921875 144.660156 C 97.613281 143.96875 98.332031 143.316406 99.085938 142.699219 C 99.839844 142.082031 100.621094 141.5 101.433594 140.960938 C 102.242188 140.417969 103.078125 139.917969 103.9375 139.460938 C 104.796875 139 105.679688 138.582031 106.578125 138.210938 C 107.480469 137.839844 108.398438 137.511719 109.328125 137.226562 C 110.261719 136.945312 111.207031 136.707031 112.164062 136.519531 C 113.121094 136.328125 114.082031 136.1875 115.054688 136.089844 C 116.023438 135.996094 116.996094 135.945312 117.972656 135.945312 C 118.945312 135.945312 119.917969 135.996094 120.886719 136.089844 C 121.859375 136.1875 122.820312 136.328125 123.777344 136.519531 C 124.734375 136.707031 125.679688 136.945312 126.613281 137.226562 C 127.542969 137.511719 128.460938 137.839844 129.363281 138.210938 C 130.261719 138.582031 131.144531 139 132.003906 139.460938 C 132.863281 139.917969 133.699219 140.417969 134.507812 140.960938 C 135.320312 141.5 136.101562 142.082031 136.855469 142.699219 C 137.609375 143.316406 138.328125 143.96875 139.019531 144.660156 C 139.707031 145.347656 140.363281 146.070312 140.980469 146.820312 C 141.597656 147.574219 142.179688 148.355469 142.71875 149.167969 C 143.261719 149.976562 143.761719 150.8125 144.222656 151.667969 C 144.683594 152.527344 145.097656 153.410156 145.472656 154.308594 C 145.84375 155.207031 146.171875 156.125 146.457031 157.058594 C 146.738281 157.988281 146.976562 158.933594 147.164062 159.886719 C 147.355469 160.84375 147.5 161.804688 147.59375 162.777344 C 147.6875 163.746094 147.738281 164.71875 147.738281 165.691406 Z M 147.738281 165.691406 " fill-opacity="1" fill-rule="nonzero"/><path fill="#fcfcfc" d="M 121.417969 145.328125 L 117.59375 145.328125 C 117.160156 145.328125 116.75 145.519531 116.46875 145.847656 L 105.214844 159 C 104.714844 159.589844 104.746094 160.464844 105.292969 161.011719 L 107.433594 163.148438 C 108.011719 163.722656 108.945312 163.722656 109.523438 163.152344 L 116.113281 156.644531 L 116.113281 185.148438 C 116.113281 185.964844 116.777344 186.628906 117.59375 186.628906 L 121.417969 186.628906 C 122.234375 186.628906 122.898438 185.964844 122.898438 185.148438 L 122.898438 146.808594 C 122.898438 145.992188 122.234375 145.328125 121.417969 145.328125 Z M 121.417969 145.328125 " fill-opacity="1" fill-rule="nonzero"/><path fill="#414042" d="M 222.175781 165.691406 C 222.175781 166.664062 222.128906 167.636719 222.035156 168.605469 C 221.9375 169.578125 221.796875 170.539062 221.605469 171.492188 C 221.414062 172.449219 221.179688 173.394531 220.894531 174.324219 C 220.613281 175.257812 220.285156 176.175781 219.910156 177.074219 C 219.539062 177.972656 219.121094 178.855469 218.660156 179.710938 C 218.203125 180.570312 217.703125 181.40625 217.160156 182.214844 C 216.617188 183.027344 216.039062 183.808594 215.421875 184.5625 C 214.800781 185.3125 214.148438 186.035156 213.457031 186.722656 C 212.769531 187.414062 212.046875 188.066406 211.292969 188.683594 C 210.539062 189.300781 209.757812 189.882812 208.949219 190.421875 C 208.136719 190.964844 207.300781 191.464844 206.441406 191.921875 C 205.582031 192.382812 204.703125 192.796875 203.800781 193.171875 C 202.902344 193.542969 201.984375 193.871094 201.050781 194.15625 C 200.117188 194.4375 199.171875 194.675781 198.21875 194.863281 C 197.261719 195.054688 196.296875 195.195312 195.328125 195.292969 C 194.359375 195.386719 193.386719 195.4375 192.410156 195.4375 C 191.433594 195.4375 190.464844 195.386719 189.492188 195.292969 C 188.523438 195.195312 187.558594 195.054688 186.601562 194.863281 C 185.648438 194.675781 184.703125 194.4375 183.769531 194.15625 C 182.835938 193.871094 181.921875 193.542969 181.019531 193.171875 C 180.117188 192.796875 179.238281 192.382812 178.378906 191.921875 C 177.519531 191.464844 176.683594 190.964844 175.875 190.421875 C 175.0625 189.882812 174.28125 189.300781 173.527344 188.683594 C 172.773438 188.066406 172.050781 187.414062 171.363281 186.722656 C 170.671875 186.035156 170.019531 185.3125 169.402344 184.5625 C 168.78125 183.808594 168.203125 183.027344 167.660156 182.214844 C 167.117188 181.40625 166.617188 180.570312 166.160156 179.710938 C 165.699219 178.855469 165.28125 177.972656 164.910156 177.074219 C 164.535156 176.175781 164.207031 175.257812 163.925781 174.324219 C 163.644531 173.394531 163.40625 172.449219 163.214844 171.492188 C 163.027344 170.539062 162.882812 169.578125 162.789062 168.605469 C 162.691406 167.636719 162.644531 166.664062 162.644531 165.691406 C 162.644531 164.71875 162.691406 163.746094 162.789062 162.777344 C 162.882812 161.804688 163.027344 160.84375 163.214844 159.886719 C 163.40625 158.933594 163.644531 157.988281 163.925781 157.058594 C 164.207031 156.125 164.535156 155.207031 164.910156 154.308594 C 165.28125 153.410156 165.699219 152.527344 166.160156 151.667969 C 166.617188 150.8125 167.117188 149.976562 167.660156 149.167969 C 168.203125 148.355469 168.78125 147.574219 169.402344 146.820312 C 170.019531 146.070312 170.671875 145.347656 171.363281 144.660156 C 172.050781 143.96875 172.773438 143.316406 173.527344 142.699219 C 174.28125 142.082031 175.0625 141.5 175.875 140.960938 C 176.683594 140.417969 177.519531 139.917969 178.378906 139.460938 C 179.238281 139 180.117188 138.582031 181.019531 138.210938 C 181.921875 137.839844 182.835938 137.511719 183.769531 137.226562 C 184.703125 136.945312 185.648438 136.707031 186.601562 136.519531 C 187.558594 136.328125 188.523438 136.1875 189.492188 136.089844 C 190.464844 135.996094 191.433594 135.945312 192.410156 135.945312 C 193.386719 135.945312 194.359375 135.996094 195.328125 136.089844 C 196.296875 136.1875 197.261719 136.328125 198.21875 136.519531 C 199.171875 136.707031 200.117188 136.945312 201.050781 137.226562 C 201.984375 137.511719 202.902344 137.839844 203.800781 138.210938 C 204.703125 138.582031 205.582031 139 206.441406 139.460938 C 207.300781 139.917969 208.136719 140.417969 208.949219 140.960938 C 209.757812 141.5 210.539062 142.082031 211.292969 142.699219 C 212.046875 143.316406 212.769531 143.96875 213.457031 144.660156 C 214.148438 145.347656 214.800781 146.070312 215.421875 146.820312 C 216.039062 147.574219 216.617188 148.355469 217.160156 149.167969 C 217.703125 149.976562 218.203125 150.8125 218.660156 151.667969 C 219.121094 152.527344 219.539062 153.410156 219.910156 154.308594 C 220.285156 155.207031 220.613281 156.125 220.894531 157.058594 C 221.179688 157.988281 221.414062 158.933594 221.605469 159.886719 C 221.796875 160.84375 221.9375 161.804688 222.035156 162.777344 C 222.128906 163.746094 222.175781 164.71875 222.175781 165.691406 Z M 222.175781 165.691406 " fill-opacity="1" fill-rule="nonzero"/><path fill="#fcfcfc" d="M 204.339844 179.84375 L 187.601562 179.84375 C 187.824219 179.441406 188.117188 179.03125 188.503906 178.609375 C 189.558594 177.445312 191.246094 175.902344 193.523438 174.035156 L 193.496094 174 C 193.84375 173.765625 194.222656 173.4375 194.65625 173.066406 C 197.882812 170.339844 200.464844 167.660156 202.324219 165.105469 C 204.304688 162.390625 205.308594 159.257812 205.308594 155.804688 C 205.308594 152.382812 204.140625 149.601562 201.839844 147.53125 C 199.578125 145.511719 196.554688 144.484375 192.859375 144.484375 C 190.265625 144.484375 187.734375 145.128906 185.328125 146.402344 C 182.953125 147.660156 180.917969 149.4375 179.285156 151.667969 C 178.828125 152.296875 178.933594 153.164062 179.523438 153.664062 L 182.617188 156.308594 C 182.921875 156.570312 183.316406 156.707031 183.742188 156.652344 C 184.148438 156.605469 184.519531 156.394531 184.761719 156.066406 C 185.953125 154.46875 187.242188 153.242188 188.597656 152.429688 C 191.191406 150.855469 194.8125 150.859375 196.675781 152.542969 C 197.578125 153.359375 198.015625 154.425781 198.015625 155.804688 C 198.015625 158.113281 197.4375 160.082031 196.246094 161.828125 C 194.984375 163.6875 193.164062 165.632812 190.800781 167.636719 C 190.671875 167.746094 190.058594 168.253906 188.9375 169.164062 C 186.992188 170.765625 185.410156 172.164062 184.222656 173.328125 C 182.996094 174.535156 181.957031 175.917969 181.125 177.4375 C 180.238281 179.058594 179.789062 180.84375 179.789062 182.730469 L 179.789062 185.148438 C 179.789062 185.964844 180.453125 186.628906 181.269531 186.628906 L 204.335938 186.628906 C 205.152344 186.628906 205.816406 185.964844 205.816406 185.148438 L 205.816406 181.324219 C 205.820312 180.507812 205.152344 179.84375 204.339844 179.84375 Z M 204.339844 179.84375 " fill-opacity="1" fill-rule="nonzero"/></svg>