<svg xmlns="http://www.w3.org/2000/svg" xmlns:xlink="http://www.w3.org/1999/xlink" width="794" zoomAndPan="magnify" viewBox="0 0 594.95996 842.24997" height="1123" preserveAspectRatio="xMidYMid meet" version="1.0"><defs><clipPath id="e492beaf70"><path d="M 98.496094 100.265625 L 496.390625 100.265625 L 496.390625 740.945312 L 98.496094 740.945312 Z M 98.496094 100.265625 " clip-rule="nonzero"/></clipPath></defs><path fill="#ffffff" d="M 165.546875 734.921875 C 131.816406 734.921875 104.378906 707.453125 104.378906 673.695312 L 104.378906 167.550781 C 104.378906 133.789062 131.816406 106.320312 165.546875 106.320312 L 426.917969 106.320312 C 460.644531 106.320312 488.082031 133.789062 488.082031 167.550781 L 488.082031 169.183594 C 488.082031 202.941406 460.644531 230.410156 426.917969 230.410156 L 238.109375 230.410156 L 238.109375 351.652344 L 372.363281 351.652344 C 406.09375 351.652344 433.535156 379.121094 433.535156 412.878906 C 433.535156 446.640625 406.09375 474.109375 372.363281 474.109375 L 238.109375 474.109375 L 238.109375 611.652344 L 429.359375 611.652344 C 463.085938 611.652344 490.53125 639.117188 490.53125 672.878906 L 490.53125 673.695312 C 490.53125 707.453125 463.089844 734.921875 429.359375 734.921875 Z M 165.546875 734.921875 " fill-opacity="1" fill-rule="nonzero"/><g clip-path="url(#e492beaf70)"><path fill="#000000" d="M 426.917969 106.320312 C 460.644531 106.320312 488.082031 133.789062 488.082031 167.550781 L 488.082031 169.183594 C 488.082031 202.941406 460.644531 230.410156 426.917969 230.410156 L 238.109375 230.410156 L 238.109375 351.652344 L 372.363281 351.652344 C 406.09375 351.652344 433.535156 379.121094 433.535156 412.878906 C 433.535156 446.640625 406.09375 474.109375 372.363281 474.109375 L 238.109375 474.109375 L 238.109375 611.652344 L 429.359375 611.652344 C 463.085938 611.652344 490.53125 639.117188 490.53125 672.878906 L 490.53125 673.695312 C 490.53125 707.453125 463.089844 734.921875 429.359375 734.921875 L 165.546875 734.921875 C 131.816406 734.921875 104.378906 707.453125 104.378906 673.695312 L 104.378906 167.550781 C 104.378906 133.789062 131.816406 106.320312 165.546875 106.320312 L 426.917969 106.320312 M 426.917969 100.433594 L 165.546875 100.433594 C 128.574219 100.433594 98.496094 130.539062 98.496094 167.550781 L 98.496094 673.695312 C 98.496094 710.703125 128.574219 740.8125 165.546875 740.8125 L 429.359375 740.8125 C 466.332031 740.8125 496.414062 710.703125 496.414062 673.695312 L 496.414062 672.878906 C 496.414062 635.871094 466.332031 605.761719 429.359375 605.761719 L 243.996094 605.761719 L 243.996094 479.996094 L 372.363281 479.996094 C 409.339844 479.996094 439.421875 449.886719 439.421875 412.878906 C 439.421875 375.871094 409.339844 345.761719 372.363281 345.761719 L 243.996094 345.761719 L 243.996094 236.300781 L 426.917969 236.300781 C 463.886719 236.300781 493.964844 206.191406 493.964844 169.183594 L 493.964844 167.550781 C 493.964844 130.539062 463.886719 100.433594 426.917969 100.433594 Z M 426.917969 100.433594 " fill-opacity="1" fill-rule="nonzero"/></g><path fill="#58595b" d="M 435.1875 168.71875 L 423.417969 168.71875 L 423.417969 165.777344 L 435.1875 165.777344 Z M 411.648438 168.71875 L 399.882812 168.71875 L 399.882812 165.777344 L 411.648438 165.777344 Z M 388.113281 168.71875 L 376.347656 168.71875 L 376.347656 165.777344 L 388.113281 165.777344 Z M 364.578125 168.71875 L 352.8125 168.71875 L 352.8125 165.777344 L 364.578125 165.777344 Z M 341.042969 168.71875 L 329.277344 168.71875 L 329.277344 165.777344 L 341.042969 165.777344 Z M 317.507812 168.71875 L 305.742188 168.71875 L 305.742188 165.777344 L 317.507812 165.777344 Z M 293.972656 168.71875 L 282.207031 168.71875 L 282.207031 165.777344 L 293.972656 165.777344 Z M 270.4375 168.71875 L 258.671875 168.71875 L 258.671875 165.777344 L 270.4375 165.777344 Z M 270.4375 168.71875 " fill-opacity="1" fill-rule="nonzero"/><path fill="#58595b" d="M 453.945312 166.933594 L 433.089844 154.878906 L 433.089844 178.988281 Z M 453.945312 166.933594 " fill-opacity="1" fill-rule="nonzero"/><path fill="#58595b" d="M 172.984375 688.753906 L 170.042969 688.753906 L 170.042969 684.402344 L 172.984375 684.402344 Z M 172.984375 672.625 L 170.042969 672.625 L 170.042969 660.84375 L 172.984375 660.84375 Z M 172.984375 649.066406 L 170.042969 649.066406 L 170.042969 637.285156 L 172.984375 637.285156 Z M 172.984375 625.507812 L 170.042969 625.507812 L 170.042969 613.726562 L 172.984375 613.726562 Z M 172.984375 601.949219 L 170.042969 601.949219 L 170.042969 590.167969 L 172.984375 590.167969 Z M 172.984375 578.390625 L 170.042969 578.390625 L 170.042969 566.609375 L 172.984375 566.609375 Z M 172.984375 554.832031 L 170.042969 554.832031 L 170.042969 543.050781 L 172.984375 543.050781 Z M 172.984375 531.273438 L 170.042969 531.273438 L 170.042969 519.492188 L 172.984375 519.492188 Z M 172.984375 507.714844 L 170.042969 507.714844 L 170.042969 495.9375 L 172.984375 495.9375 Z M 172.984375 484.15625 L 170.042969 484.15625 L 170.042969 472.378906 L 172.984375 472.378906 Z M 172.984375 460.597656 L 170.042969 460.597656 L 170.042969 448.820312 L 172.984375 448.820312 Z M 172.984375 437.039062 L 170.042969 437.039062 L 170.042969 425.261719 L 172.984375 425.261719 Z M 172.984375 413.480469 L 170.042969 413.480469 L 170.042969 401.703125 L 172.984375 401.703125 Z M 172.984375 389.921875 L 170.042969 389.921875 L 170.042969 378.144531 L 172.984375 378.144531 Z M 172.984375 366.363281 L 170.042969 366.363281 L 170.042969 354.585938 L 172.984375 354.585938 Z M 172.984375 342.804688 L 170.042969 342.804688 L 170.042969 331.027344 L 172.984375 331.027344 Z M 172.984375 319.246094 L 170.042969 319.246094 L 170.042969 307.46875 L 172.984375 307.46875 Z M 172.984375 295.6875 L 170.042969 295.6875 L 170.042969 283.910156 L 172.984375 283.910156 Z M 172.984375 272.128906 L 170.042969 272.128906 L 170.042969 260.351562 L 172.984375 260.351562 Z M 172.984375 248.570312 L 170.042969 248.570312 L 170.042969 236.792969 L 172.984375 236.792969 Z M 172.984375 225.011719 L 170.042969 225.011719 L 170.042969 213.234375 L 172.984375 213.234375 Z M 172.984375 201.453125 L 170.042969 201.453125 L 170.042969 189.675781 L 172.984375 189.675781 Z M 172.984375 201.453125 " fill-opacity="1" fill-rule="nonzero"/><path fill="#58595b" d="M 171.515625 702.671875 L 183.554688 681.792969 L 159.472656 681.792969 Z M 171.515625 702.671875 " fill-opacity="1" fill-rule="nonzero"/><path fill="#414042" d="M 198.972656 167.066406 C 198.972656 168.035156 198.925781 169.003906 198.828125 169.96875 C 198.734375 170.933594 198.59375 171.890625 198.402344 172.839844 C 198.214844 173.792969 197.980469 174.730469 197.699219 175.660156 C 197.417969 176.585938 197.089844 177.5 196.722656 178.394531 C 196.351562 179.289062 195.9375 180.167969 195.480469 181.019531 C 195.023438 181.875 194.527344 182.707031 193.988281 183.511719 C 193.449219 184.320312 192.875 185.097656 192.257812 185.847656 C 191.644531 186.597656 190.996094 187.3125 190.308594 188 C 189.625 188.683594 188.910156 189.335938 188.160156 189.949219 C 187.410156 190.566406 186.632812 191.140625 185.828125 191.679688 C 185.023438 192.21875 184.191406 192.71875 183.339844 193.175781 C 182.484375 193.632812 181.609375 194.046875 180.714844 194.417969 C 179.820312 194.789062 178.910156 195.113281 177.980469 195.394531 C 177.054688 195.675781 176.117188 195.914062 175.167969 196.101562 C 174.21875 196.289062 173.261719 196.433594 172.296875 196.527344 C 171.332031 196.621094 170.367188 196.671875 169.398438 196.671875 C 168.429688 196.671875 167.460938 196.621094 166.5 196.527344 C 165.535156 196.433594 164.578125 196.289062 163.628906 196.101562 C 162.675781 195.914062 161.738281 195.675781 160.8125 195.394531 C 159.886719 195.113281 158.972656 194.789062 158.078125 194.417969 C 157.183594 194.046875 156.308594 193.632812 155.457031 193.175781 C 154.601562 192.71875 153.769531 192.21875 152.964844 191.679688 C 152.160156 191.140625 151.382812 190.566406 150.636719 189.949219 C 149.886719 189.335938 149.167969 188.683594 148.484375 188 C 147.800781 187.3125 147.148438 186.597656 146.535156 185.847656 C 145.921875 185.097656 145.34375 184.320312 144.804688 183.511719 C 144.269531 182.707031 143.769531 181.875 143.3125 181.019531 C 142.859375 180.167969 142.445312 179.289062 142.074219 178.394531 C 141.703125 177.5 141.375 176.585938 141.09375 175.660156 C 140.8125 174.730469 140.578125 173.792969 140.390625 172.839844 C 140.203125 171.890625 140.058594 170.933594 139.964844 169.96875 C 139.871094 169.003906 139.820312 168.035156 139.820312 167.066406 C 139.820312 166.097656 139.871094 165.128906 139.964844 164.164062 C 140.058594 163.199219 140.203125 162.242188 140.390625 161.289062 C 140.578125 160.339844 140.8125 159.398438 141.09375 158.472656 C 141.375 157.542969 141.703125 156.632812 142.074219 155.738281 C 142.445312 154.839844 142.859375 153.964844 143.3125 153.109375 C 143.769531 152.253906 144.269531 151.425781 144.804688 150.617188 C 145.34375 149.8125 145.921875 149.035156 146.535156 148.285156 C 147.148438 147.535156 147.800781 146.816406 148.484375 146.132812 C 149.167969 145.445312 149.886719 144.796875 150.636719 144.183594 C 151.382812 143.566406 152.160156 142.988281 152.964844 142.449219 C 153.769531 141.914062 154.601562 141.414062 155.457031 140.957031 C 156.308594 140.5 157.183594 140.085938 158.078125 139.714844 C 158.972656 139.34375 159.886719 139.019531 160.8125 138.738281 C 161.738281 138.457031 162.675781 138.21875 163.628906 138.03125 C 164.578125 137.839844 165.535156 137.699219 166.5 137.605469 C 167.460938 137.507812 168.429688 137.460938 169.398438 137.460938 C 170.367188 137.460938 171.332031 137.507812 172.296875 137.605469 C 173.261719 137.699219 174.21875 137.839844 175.167969 138.03125 C 176.117188 138.21875 177.054688 138.457031 177.980469 138.738281 C 178.910156 139.019531 179.820312 139.34375 180.714844 139.714844 C 181.609375 140.085938 182.484375 140.5 183.339844 140.957031 C 184.191406 141.414062 185.023438 141.914062 185.828125 142.449219 C 186.632812 142.988281 187.410156 143.566406 188.160156 144.183594 C 188.90625 144.796875 189.625 145.445312 190.308594 146.132812 C 190.996094 146.816406 191.644531 147.535156 192.257812 148.285156 C 192.875 149.035156 193.449219 149.8125 193.988281 150.617188 C 194.527344 151.425781 195.023438 152.253906 195.480469 153.109375 C 195.9375 153.964844 196.351562 154.839844 196.722656 155.738281 C 197.089844 156.632812 197.417969 157.542969 197.699219 158.472656 C 197.980469 159.398438 198.214844 160.339844 198.402344 161.289062 C 198.59375 162.242188 198.734375 163.199219 198.828125 164.164062 C 198.925781 165.128906 198.972656 166.097656 198.972656 167.066406 Z M 198.972656 167.066406 " fill-opacity="1" fill-rule="nonzero"/><path fill="#fcfcfc" d="M 172.820312 146.796875 L 169.023438 146.796875 C 168.59375 146.796875 168.183594 146.988281 167.902344 147.316406 L 156.722656 160.40625 C 156.226562 160.992188 156.253906 161.863281 156.800781 162.410156 L 158.925781 164.535156 C 159.503906 165.105469 160.425781 165.105469 161 164.539062 L 167.550781 158.0625 L 167.550781 186.433594 C 167.550781 187.246094 168.210938 187.90625 169.023438 187.90625 L 172.820312 187.90625 C 173.632812 187.90625 174.292969 187.246094 174.292969 186.433594 L 174.292969 148.269531 C 174.292969 147.460938 173.632812 146.796875 172.820312 146.796875 Z M 172.820312 146.796875 " fill-opacity="1" fill-rule="nonzero"/><path fill="#414042" d="M 272.933594 167.066406 C 272.933594 168.035156 272.886719 169.003906 272.789062 169.96875 C 272.695312 170.933594 272.554688 171.890625 272.363281 172.839844 C 272.175781 173.792969 271.941406 174.730469 271.660156 175.660156 C 271.378906 176.585938 271.050781 177.5 270.683594 178.394531 C 270.3125 179.289062 269.898438 180.167969 269.441406 181.019531 C 268.984375 181.875 268.488281 182.707031 267.949219 183.511719 C 267.410156 184.320312 266.835938 185.097656 266.21875 185.847656 C 265.605469 186.597656 264.957031 187.3125 264.269531 188 C 263.585938 188.683594 262.867188 189.335938 262.121094 189.949219 C 261.371094 190.566406 260.59375 191.140625 259.789062 191.679688 C 258.984375 192.21875 258.152344 192.71875 257.300781 193.175781 C 256.445312 193.632812 255.570312 194.046875 254.675781 194.417969 C 253.78125 194.789062 252.871094 195.113281 251.941406 195.394531 C 251.015625 195.675781 250.078125 195.914062 249.128906 196.101562 C 248.179688 196.289062 247.222656 196.433594 246.257812 196.527344 C 245.292969 196.621094 244.328125 196.671875 243.359375 196.671875 C 242.390625 196.671875 241.421875 196.621094 240.460938 196.527344 C 239.496094 196.433594 238.539062 196.289062 237.589844 196.101562 C 236.636719 195.914062 235.699219 195.675781 234.773438 195.394531 C 233.847656 195.113281 232.933594 194.789062 232.039062 194.417969 C 231.144531 194.046875 230.269531 193.632812 229.417969 193.175781 C 228.5625 192.71875 227.730469 192.21875 226.925781 191.679688 C 226.121094 191.140625 225.34375 190.566406 224.59375 189.949219 C 223.847656 189.335938 223.128906 188.683594 222.445312 188 C 221.761719 187.3125 221.109375 186.597656 220.496094 185.847656 C 219.882812 185.097656 219.304688 184.320312 218.765625 183.511719 C 218.230469 182.707031 217.730469 181.875 217.273438 181.019531 C 216.816406 180.167969 216.40625 179.289062 216.035156 178.394531 C 215.664062 177.5 215.335938 176.585938 215.054688 175.660156 C 214.773438 174.730469 214.539062 173.792969 214.351562 172.839844 C 214.160156 171.890625 214.019531 170.933594 213.925781 169.96875 C 213.832031 169.003906 213.78125 168.035156 213.78125 167.066406 C 213.78125 166.097656 213.832031 165.128906 213.925781 164.164062 C 214.019531 163.199219 214.160156 162.242188 214.351562 161.289062 C 214.539062 160.339844 214.773438 159.398438 215.054688 158.472656 C 215.335938 157.542969 215.664062 156.632812 216.035156 155.738281 C 216.40625 154.839844 216.816406 153.964844 217.273438 153.109375 C 217.730469 152.253906 218.230469 151.425781 218.765625 150.617188 C 219.304688 149.8125 219.882812 149.035156 220.496094 148.285156 C 221.109375 147.535156 221.761719 146.816406 222.445312 146.132812 C 223.128906 145.445312 223.847656 144.796875 224.59375 144.183594 C 225.34375 143.566406 226.121094 142.988281 226.925781 142.449219 C 227.730469 141.914062 228.5625 141.414062 229.417969 140.957031 C 230.269531 140.5 231.144531 140.085938 232.039062 139.714844 C 232.933594 139.34375 233.847656 139.019531 234.773438 138.738281 C 235.699219 138.457031 236.636719 138.21875 237.589844 138.03125 C 238.539062 137.839844 239.496094 137.699219 240.460938 137.605469 C 241.421875 137.507812 242.390625 137.460938 243.359375 137.460938 C 244.328125 137.460938 245.292969 137.507812 246.257812 137.605469 C 247.222656 137.699219 248.179688 137.839844 249.128906 138.03125 C 250.078125 138.21875 251.015625 138.457031 251.941406 138.738281 C 252.871094 139.019531 253.78125 139.34375 254.675781 139.714844 C 255.570312 140.085938 256.445312 140.5 257.300781 140.957031 C 258.152344 141.414062 258.984375 141.914062 259.789062 142.449219 C 260.59375 142.988281 261.371094 143.566406 262.121094 144.183594 C 262.867188 144.796875 263.585938 145.445312 264.269531 146.132812 C 264.957031 146.816406 265.605469 147.535156 266.21875 148.285156 C 266.835938 149.035156 267.410156 149.8125 267.949219 150.617188 C 268.488281 151.425781 268.984375 152.253906 269.441406 153.109375 C 269.898438 153.964844 270.3125 154.839844 270.683594 155.738281 C 271.050781 156.632812 271.378906 157.542969 271.660156 158.472656 C 271.941406 159.398438 272.175781 160.339844 272.363281 161.289062 C 272.554688 162.242188 272.695312 163.199219 272.789062 164.164062 C 272.886719 165.128906 272.933594 166.097656 272.933594 167.066406 Z M 272.933594 167.066406 " fill-opacity="1" fill-rule="nonzero"/><path fill="#fcfcfc" d="M 255.210938 181.152344 L 238.582031 181.152344 C 238.800781 180.753906 239.09375 180.339844 239.476562 179.921875 C 240.523438 178.761719 242.199219 177.230469 244.464844 175.367188 L 244.4375 175.335938 C 244.78125 175.101562 245.160156 174.777344 245.589844 174.40625 C 248.796875 171.691406 251.359375 169.027344 253.210938 166.480469 C 255.175781 163.78125 256.175781 160.664062 256.175781 157.226562 C 256.175781 153.820312 255.015625 151.050781 252.726562 148.992188 C 250.480469 146.980469 247.472656 145.960938 243.804688 145.960938 C 241.230469 145.960938 238.710938 146.601562 236.320312 147.867188 C 233.960938 149.121094 231.9375 150.886719 230.316406 153.109375 C 229.863281 153.734375 229.964844 154.597656 230.550781 155.097656 L 233.625 157.726562 C 233.929688 157.988281 234.320312 158.125 234.746094 158.070312 C 235.148438 158.023438 235.515625 157.8125 235.757812 157.488281 C 236.941406 155.894531 238.222656 154.675781 239.566406 153.867188 C 242.148438 152.296875 245.746094 152.304688 247.59375 153.976562 C 248.492188 154.792969 248.925781 155.851562 248.925781 157.222656 C 248.925781 159.523438 248.351562 161.484375 247.167969 163.222656 C 245.917969 165.074219 244.105469 167.007812 241.757812 169.003906 C 241.628906 169.113281 241.019531 169.617188 239.90625 170.523438 C 237.976562 172.113281 236.402344 173.511719 235.222656 174.664062 C 234.003906 175.867188 232.972656 177.246094 232.144531 178.757812 C 231.265625 180.371094 230.816406 182.144531 230.816406 184.023438 L 230.816406 186.429688 C 230.816406 187.242188 231.476562 187.902344 232.285156 187.902344 L 255.207031 187.902344 C 256.019531 187.902344 256.679688 187.242188 256.679688 186.429688 L 256.679688 182.625 C 256.679688 181.8125 256.019531 181.152344 255.210938 181.152344 Z M 255.210938 181.152344 " fill-opacity="1" fill-rule="nonzero"/><path fill="#58595b" d="M 431.84375 676.210938 L 420.074219 676.210938 L 420.074219 673.265625 L 431.84375 673.265625 Z M 408.308594 676.210938 L 396.539062 676.210938 L 396.539062 673.265625 L 408.308594 673.265625 Z M 384.773438 676.210938 L 373.003906 676.210938 L 373.003906 673.265625 L 384.773438 673.265625 Z M 361.238281 676.210938 L 349.46875 676.210938 L 349.46875 673.265625 L 361.238281 673.265625 Z M 337.699219 676.210938 L 325.933594 676.210938 L 325.933594 673.265625 L 337.699219 673.265625 Z M 314.164062 676.210938 L 302.398438 676.210938 L 302.398438 673.265625 L 314.164062 673.265625 Z M 290.628906 676.210938 L 278.863281 676.210938 L 278.863281 673.265625 L 290.628906 673.265625 Z M 267.09375 676.210938 L 255.328125 676.210938 L 255.328125 673.265625 L 267.09375 673.265625 Z M 243.558594 676.210938 L 231.792969 676.210938 L 231.792969 673.265625 L 243.558594 673.265625 Z M 243.558594 676.210938 " fill-opacity="1" fill-rule="nonzero"/><path fill="#58595b" d="M 453.945312 674.425781 L 433.089844 662.371094 L 433.089844 686.476562 Z M 453.945312 674.425781 " fill-opacity="1" fill-rule="nonzero"/><path fill="#58595b" d="M 373.875 416.433594 L 362.105469 416.433594 L 362.105469 413.488281 L 373.875 413.488281 Z M 350.339844 416.433594 L 338.570312 416.433594 L 338.570312 413.488281 L 350.339844 413.488281 Z M 326.804688 416.433594 L 315.035156 416.433594 L 315.035156 413.488281 L 326.804688 413.488281 Z M 303.269531 416.433594 L 291.5 416.433594 L 291.5 413.488281 L 303.269531 413.488281 Z M 279.734375 416.433594 L 267.964844 416.433594 L 267.964844 413.488281 L 279.734375 413.488281 Z M 256.195312 416.433594 L 244.429688 416.433594 L 244.429688 413.488281 L 256.195312 413.488281 Z M 232.660156 416.433594 L 220.894531 416.433594 L 220.894531 413.488281 L 232.660156 413.488281 Z M 232.660156 416.433594 " fill-opacity="1" fill-rule="nonzero"/><path fill="#58595b" d="M 398.289062 414.648438 L 377.433594 402.59375 L 377.433594 426.699219 Z M 398.289062 414.648438 " fill-opacity="1" fill-rule="nonzero"/><path fill="#414042" d="M 244.21875 414.648438 C 244.21875 415.617188 244.171875 416.585938 244.074219 417.550781 C 243.980469 418.515625 243.839844 419.472656 243.648438 420.421875 C 243.460938 421.375 243.226562 422.3125 242.945312 423.242188 C 242.664062 424.167969 242.335938 425.082031 241.96875 425.976562 C 241.597656 426.871094 241.183594 427.746094 240.726562 428.601562 C 240.269531 429.457031 239.773438 430.289062 239.234375 431.09375 C 238.695312 431.902344 238.121094 432.679688 237.503906 433.429688 C 236.890625 434.179688 236.242188 434.894531 235.554688 435.582031 C 234.871094 436.265625 234.15625 436.917969 233.40625 437.53125 C 232.65625 438.148438 231.878906 438.722656 231.074219 439.261719 C 230.269531 439.800781 229.4375 440.300781 228.585938 440.757812 C 227.730469 441.214844 226.855469 441.628906 225.960938 442 C 225.066406 442.371094 224.15625 442.695312 223.226562 442.976562 C 222.300781 443.257812 221.363281 443.492188 220.414062 443.683594 C 219.464844 443.871094 218.507812 444.015625 217.542969 444.109375 C 216.578125 444.203125 215.613281 444.25 214.644531 444.25 C 213.675781 444.25 212.707031 444.203125 211.746094 444.109375 C 210.78125 444.015625 209.824219 443.871094 208.875 443.683594 C 207.921875 443.492188 206.984375 443.257812 206.058594 442.976562 C 205.132812 442.695312 204.21875 442.371094 203.324219 442 C 202.429688 441.628906 201.554688 441.214844 200.703125 440.757812 C 199.847656 440.300781 199.015625 439.800781 198.210938 439.261719 C 197.40625 438.722656 196.628906 438.148438 195.882812 437.53125 C 195.132812 436.917969 194.414062 436.265625 193.730469 435.582031 C 193.046875 434.894531 192.394531 434.179688 191.78125 433.429688 C 191.167969 432.679688 190.589844 431.902344 190.050781 431.09375 C 189.515625 430.289062 189.015625 429.457031 188.558594 428.601562 C 188.105469 427.746094 187.691406 426.871094 187.320312 425.976562 C 186.949219 425.082031 186.621094 424.167969 186.339844 423.242188 C 186.058594 422.3125 185.824219 421.375 185.636719 420.421875 C 185.449219 419.472656 185.304688 418.515625 185.210938 417.550781 C 185.117188 416.585938 185.066406 415.617188 185.066406 414.648438 C 185.066406 413.679688 185.117188 412.710938 185.210938 411.746094 C 185.304688 410.78125 185.449219 409.824219 185.636719 408.871094 C 185.824219 407.921875 186.058594 406.980469 186.339844 406.054688 C 186.621094 405.125 186.949219 404.214844 187.320312 403.320312 C 187.691406 402.421875 188.105469 401.546875 188.558594 400.691406 C 189.015625 399.835938 189.515625 399.007812 190.050781 398.199219 C 190.589844 397.394531 191.167969 396.617188 191.78125 395.867188 C 192.394531 395.117188 193.046875 394.398438 193.730469 393.714844 C 194.414062 393.027344 195.132812 392.378906 195.882812 391.761719 C 196.628906 391.148438 197.40625 390.570312 198.210938 390.03125 C 199.015625 389.492188 199.847656 388.996094 200.703125 388.539062 C 201.554688 388.082031 202.429688 387.667969 203.324219 387.296875 C 204.21875 386.925781 205.132812 386.601562 206.058594 386.316406 C 206.984375 386.035156 207.921875 385.800781 208.875 385.613281 C 209.824219 385.421875 210.78125 385.28125 211.746094 385.1875 C 212.707031 385.089844 213.675781 385.042969 214.644531 385.042969 C 215.613281 385.042969 216.578125 385.089844 217.542969 385.1875 C 218.507812 385.28125 219.464844 385.421875 220.414062 385.613281 C 221.363281 385.800781 222.300781 386.035156 223.226562 386.316406 C 224.15625 386.601562 225.066406 386.925781 225.960938 387.296875 C 226.855469 387.667969 227.730469 388.082031 228.585938 388.539062 C 229.4375 388.996094 230.269531 389.492188 231.074219 390.03125 C 231.878906 390.570312 232.65625 391.148438 233.40625 391.761719 C 234.15625 392.378906 234.871094 393.027344 235.554688 393.714844 C 236.242188 394.398438 236.890625 395.117188 237.503906 395.867188 C 238.121094 396.617188 238.695312 397.394531 239.234375 398.199219 C 239.773438 399.007812 240.269531 399.835938 240.726562 400.691406 C 241.183594 401.546875 241.597656 402.421875 241.96875 403.320312 C 242.335938 404.214844 242.664062 405.125 242.945312 406.054688 C 243.226562 406.980469 243.460938 407.921875 243.648438 408.871094 C 243.839844 409.824219 243.980469 410.78125 244.074219 411.746094 C 244.171875 412.710938 244.21875 413.679688 244.21875 414.648438 Z M 244.21875 414.648438 " fill-opacity="1" fill-rule="nonzero"/><path fill="#fcfcfc" d="M 226.238281 416.488281 C 225.390625 415.28125 224.367188 414.296875 223.195312 413.542969 C 224 412.878906 224.6875 412.078125 225.257812 411.144531 C 226.347656 409.378906 226.898438 407.320312 226.898438 405.027344 C 226.898438 402.835938 226.394531 400.847656 225.386719 399.113281 C 224.378906 397.371094 222.953125 395.992188 221.160156 395.011719 C 219.382812 394.035156 217.363281 393.542969 215.144531 393.542969 C 212.230469 393.542969 209.628906 394.363281 207.410156 395.980469 C 205.226562 397.5625 203.519531 399.734375 202.339844 402.425781 C 202.03125 403.125 202.3125 403.941406 202.976562 404.308594 L 206.054688 405.988281 C 206.410156 406.179688 206.824219 406.21875 207.203125 406.097656 C 207.585938 405.976562 207.902344 405.707031 208.082031 405.34375 C 208.949219 403.574219 209.976562 402.207031 211.136719 401.292969 C 212.222656 400.429688 213.535156 400.011719 215.140625 400.011719 C 216.566406 400.011719 217.691406 400.460938 218.582031 401.386719 C 219.492188 402.320312 219.933594 403.511719 219.933594 405.03125 C 219.933594 406.75 219.457031 408.097656 218.480469 409.148438 C 217.539062 410.167969 216.28125 410.664062 214.640625 410.664062 L 212.183594 410.664062 C 211.371094 410.664062 210.710938 411.324219 210.710938 412.136719 L 210.710938 415.605469 C 210.710938 416.417969 211.371094 417.078125 212.183594 417.078125 L 214.867188 417.078125 C 216.785156 417.078125 218.308594 417.667969 219.523438 418.882812 C 220.738281 420.101562 221.328125 421.628906 221.328125 423.550781 C 221.328125 425.398438 220.75 426.867188 219.558594 428.039062 C 218.359375 429.222656 216.898438 429.800781 215.089844 429.800781 C 213.550781 429.800781 212.246094 429.363281 211.101562 428.464844 C 209.902344 427.515625 208.882812 426.175781 208.089844 424.492188 C 207.914062 424.117188 207.585938 423.835938 207.195312 423.710938 C 206.804688 423.589844 206.378906 423.636719 206.015625 423.847656 L 202.660156 425.804688 C 202.027344 426.175781 201.765625 426.953125 202.039062 427.632812 C 203.113281 430.273438 204.769531 432.410156 206.964844 433.980469 C 209.1875 435.574219 211.859375 436.382812 214.917969 436.382812 C 217.347656 436.382812 219.617188 435.835938 221.667969 434.757812 C 223.742188 433.667969 225.402344 432.125 226.605469 430.167969 C 227.796875 428.199219 228.40625 425.972656 228.40625 423.550781 C 228.410156 420.898438 227.683594 418.519531 226.238281 416.488281 Z M 226.238281 416.488281 " fill-opacity="1" fill-rule="nonzero"/><path fill="#414042" d="M 248.042969 674.738281 C 248.042969 675.710938 247.996094 676.675781 247.902344 677.640625 C 247.808594 678.605469 247.664062 679.5625 247.476562 680.515625 C 247.289062 681.464844 247.050781 682.40625 246.769531 683.332031 C 246.488281 684.261719 246.164062 685.171875 245.792969 686.070312 C 245.421875 686.964844 245.007812 687.839844 244.550781 688.695312 C 244.09375 689.550781 243.597656 690.378906 243.058594 691.1875 C 242.523438 691.992188 241.945312 692.769531 241.332031 693.519531 C 240.714844 694.269531 240.066406 694.988281 239.382812 695.671875 C 238.695312 696.359375 237.980469 697.007812 237.230469 697.625 C 236.484375 698.238281 235.707031 698.816406 234.898438 699.355469 C 234.09375 699.894531 233.265625 700.390625 232.410156 700.847656 C 231.554688 701.304688 230.683594 701.71875 229.789062 702.089844 C 228.890625 702.460938 227.980469 702.789062 227.054688 703.070312 C 226.128906 703.351562 225.1875 703.585938 224.238281 703.773438 C 223.289062 703.964844 222.332031 704.105469 221.367188 704.203125 C 220.402344 704.296875 219.4375 704.34375 218.46875 704.34375 C 217.5 704.34375 216.535156 704.296875 215.570312 704.203125 C 214.605469 704.105469 213.648438 703.964844 212.699219 703.773438 C 211.75 703.585938 210.8125 703.351562 209.882812 703.070312 C 208.957031 702.789062 208.046875 702.460938 207.152344 702.089844 C 206.257812 701.71875 205.382812 701.304688 204.527344 700.847656 C 203.671875 700.390625 202.84375 699.894531 202.039062 699.355469 C 201.234375 698.816406 200.457031 698.238281 199.707031 697.625 C 198.957031 697.007812 198.242188 696.359375 197.554688 695.671875 C 196.871094 694.988281 196.222656 694.269531 195.605469 693.519531 C 194.992188 692.769531 194.417969 691.992188 193.878906 691.1875 C 193.339844 690.378906 192.84375 689.550781 192.386719 688.695312 C 191.929688 687.839844 191.515625 686.964844 191.144531 686.070312 C 190.773438 685.171875 190.449219 684.261719 190.167969 683.332031 C 189.886719 682.40625 189.652344 681.464844 189.460938 680.515625 C 189.273438 679.5625 189.132812 678.605469 189.035156 677.640625 C 188.941406 676.675781 188.894531 675.710938 188.894531 674.738281 C 188.894531 673.769531 188.941406 672.804688 189.035156 671.835938 C 189.132812 670.871094 189.273438 669.914062 189.460938 668.964844 C 189.652344 668.011719 189.886719 667.074219 190.167969 666.144531 C 190.449219 665.21875 190.773438 664.304688 191.144531 663.410156 C 191.515625 662.515625 191.929688 661.640625 192.386719 660.785156 C 192.84375 659.929688 193.339844 659.097656 193.878906 658.292969 C 194.417969 657.484375 194.992188 656.707031 195.605469 655.957031 C 196.222656 655.210938 196.871094 654.492188 197.554688 653.804688 C 198.242188 653.121094 198.957031 652.46875 199.707031 651.855469 C 200.457031 651.238281 201.234375 650.664062 202.039062 650.125 C 202.84375 649.585938 203.671875 649.089844 204.527344 648.632812 C 205.382812 648.175781 206.257812 647.761719 207.152344 647.390625 C 208.046875 647.019531 208.957031 646.691406 209.882812 646.410156 C 210.8125 646.128906 211.75 645.894531 212.699219 645.703125 C 213.648438 645.515625 214.605469 645.371094 215.570312 645.277344 C 216.535156 645.183594 217.5 645.136719 218.46875 645.136719 C 219.4375 645.136719 220.402344 645.183594 221.367188 645.277344 C 222.332031 645.371094 223.289062 645.515625 224.238281 645.703125 C 225.1875 645.894531 226.128906 646.128906 227.054688 646.410156 C 227.980469 646.691406 228.890625 647.019531 229.789062 647.390625 C 230.683594 647.761719 231.554688 648.175781 232.410156 648.632812 C 233.265625 649.089844 234.09375 649.585938 234.898438 650.125 C 235.707031 650.664062 236.484375 651.238281 237.230469 651.855469 C 237.980469 652.46875 238.695312 653.121094 239.382812 653.804688 C 240.066406 654.492188 240.714844 655.210938 241.332031 655.957031 C 241.945312 656.707031 242.523438 657.484375 243.058594 658.292969 C 243.597656 659.097656 244.09375 659.929688 244.550781 660.785156 C 245.007812 661.640625 245.421875 662.515625 245.792969 663.410156 C 246.164062 664.304688 246.488281 665.21875 246.769531 666.144531 C 247.050781 667.074219 247.289062 668.011719 247.476562 668.964844 C 247.664062 669.914062 247.808594 670.871094 247.902344 671.835938 C 247.996094 672.804688 248.042969 673.769531 248.042969 674.738281 Z M 248.042969 674.738281 " fill-opacity="1" fill-rule="nonzero"/><path fill="#fcfcfc" d="M 230.863281 680.324219 L 227.464844 680.324219 L 227.464844 655.945312 C 227.464844 655.132812 226.804688 654.472656 225.996094 654.472656 L 222.199219 654.472656 C 221.730469 654.472656 221.296875 654.695312 221.015625 655.070312 L 201.898438 680.917969 C 201.714844 681.175781 201.609375 681.480469 201.609375 681.792969 L 201.609375 685.597656 C 201.609375 686.414062 202.269531 687.070312 203.082031 687.070312 L 220.726562 687.070312 L 220.726562 694.105469 C 220.726562 694.917969 221.386719 695.578125 222.199219 695.578125 L 225.996094 695.578125 C 226.804688 695.578125 227.464844 694.917969 227.464844 694.105469 L 227.464844 687.070312 L 230.863281 687.070312 C 231.671875 687.070312 232.332031 686.414062 232.332031 685.597656 L 232.332031 681.792969 C 232.332031 680.980469 231.671875 680.324219 230.863281 680.324219 Z M 210.0625 680.324219 L 220.726562 666.253906 L 220.726562 680.324219 Z M 210.0625 680.324219 " fill-opacity="1" fill-rule="nonzero"/></svg>