<svg xmlns="http://www.w3.org/2000/svg" xmlns:xlink="http://www.w3.org/1999/xlink" width="800" zoomAndPan="magnify" viewBox="0 0 600 899.99999" height="1200" preserveAspectRatio="xMidYMid meet" version="1.0"><defs><g/><clipPath id="85625c66d6"><path d="M 153.679688 258.914062 L 194.921875 258.914062 L 194.921875 285.707031 L 153.679688 285.707031 Z M 153.679688 258.914062 " clip-rule="nonzero"/></clipPath><clipPath id="39c651dcf7"><path d="M 230.765625 244.257812 L 257.554688 244.257812 L 257.554688 285.503906 L 230.765625 285.503906 Z M 230.765625 244.257812 " clip-rule="nonzero"/></clipPath><clipPath id="c8dbfb9a1d"><path d="M 230.765625 471.097656 L 257.554688 471.097656 L 257.554688 512.34375 L 230.765625 512.34375 Z M 230.765625 471.097656 " clip-rule="nonzero"/></clipPath><clipPath id="5ab3b67ee7"><path d="M 230.765625 707.769531 L 257.554688 707.769531 L 257.554688 749.011719 L 230.765625 749.011719 Z M 230.765625 707.769531 " clip-rule="nonzero"/></clipPath></defs><path stroke-linecap="butt" transform="matrix(0.75, 0, 0, 0.75, 74.783202, -15.449276)" fill="none" stroke-linejoin="miter" d="M 145.888029 1034.00013 C 123.783861 1034.00013 106.835944 1028.18763 95.049485 1016.56263 C 83.257818 1004.770962 77.367192 987.74492 77.367192 965.479294 L 77.367192 393.224055 C 77.367192 371.119887 83.257818 354.17197 95.049485 342.380303 C 106.835944 330.593844 123.783861 324.69801 145.888029 324.69801 L 504.960965 324.69801 C 521.825549 324.69801 534.757841 329.119885 543.76305 337.958427 C 552.768259 346.640719 557.273468 359.000095 557.273468 375.046971 C 557.273468 391.911555 552.768259 404.849056 543.76305 413.854265 C 534.757841 422.859473 521.825549 427.359474 504.960965 427.359474 L 201.148449 427.359474 L 201.148449 622.614692 L 482.856797 622.614692 C 500.377631 622.614692 513.47659 626.953234 522.153674 635.630318 C 530.830758 644.307402 535.1693 657.083444 535.1693 673.948028 C 535.1693 690.645946 530.830758 703.41678 522.153674 712.26053 C 513.47659 720.937614 500.377631 725.276156 482.856797 725.276156 L 201.148449 725.276156 L 201.148449 931.338667 L 504.960965 931.338667 C 521.825549 931.338667 534.757841 935.760542 543.76305 944.599084 C 552.768259 953.276168 557.273468 965.968877 557.273468 982.666794 C 557.273468 999.531379 552.768259 1012.307421 543.76305 1020.984505 C 534.757841 1029.661589 521.825549 1034.00013 504.960965 1034.00013 Z M 145.888029 1034.00013 " stroke="#1f8785" stroke-width="40.239601" stroke-opacity="1" stroke-miterlimit="4"/><g fill="#ffffff" fill-opacity="1"><g transform="translate(74.783202, 760.050683)"><g><path d="M 109.40625 0 C 92.800781 0 80.097656 -4.398438 71.296875 -13.203125 C 62.492188 -22.003906 58.09375 -34.707031 58.09375 -51.3125 L 58.09375 -480.609375 C 58.09375 -497.210938 62.492188 -509.914062 71.296875 -518.71875 C 80.097656 -527.519531 92.800781 -531.921875 109.40625 -531.921875 L 378.765625 -531.921875 C 391.335938 -531.921875 401.019531 -528.648438 407.8125 -522.109375 C 414.601562 -515.578125 418 -506.273438 418 -494.203125 C 418 -481.617188 414.601562 -471.929688 407.8125 -465.140625 C 401.019531 -458.359375 391.335938 -454.96875 378.765625 -454.96875 L 150.90625 -454.96875 L 150.90625 -308.59375 L 362.15625 -308.59375 C 375.238281 -308.59375 385.046875 -305.320312 391.578125 -298.78125 C 398.117188 -292.238281 401.390625 -282.679688 401.390625 -270.109375 C 401.390625 -257.535156 398.117188 -247.976562 391.578125 -241.4375 C 385.046875 -234.894531 375.238281 -231.625 362.15625 -231.625 L 150.90625 -231.625 L 150.90625 -76.953125 L 378.765625 -76.953125 C 391.335938 -76.953125 401.019531 -73.679688 407.8125 -67.140625 C 414.601562 -60.609375 418 -51.054688 418 -38.484375 C 418 -25.898438 414.601562 -16.335938 407.8125 -9.796875 C 401.019531 -3.265625 391.335938 0 378.765625 0 Z M 109.40625 0 "/></g></g></g><g clip-path="url(#85625c66d6)"><path fill="#1f8785" d="M 175.78125 284.960938 L 194.441406 262.269531 C 195.847656 260.5625 193.910156 258.148438 191.9375 259.152344 L 175.128906 267.691406 C 174.546875 267.984375 173.863281 267.984375 173.28125 267.691406 L 156.464844 259.152344 C 154.492188 258.148438 152.558594 260.558594 153.964844 262.269531 L 172.625 284.960938 C 173.441406 285.957031 174.964844 285.957031 175.78125 284.960938 " fill-opacity="1" fill-rule="nonzero"/></g><g clip-path="url(#39c651dcf7)"><path fill="#1f8785" d="M 256.808594 263.402344 L 234.117188 244.738281 C 232.410156 243.335938 230 245.269531 231 247.242188 L 239.539062 264.050781 C 239.835938 264.632812 239.835938 265.320312 239.539062 265.902344 L 231 282.714844 C 229.996094 284.6875 232.410156 286.621094 234.117188 285.214844 L 256.808594 266.554688 C 257.804688 265.738281 257.804688 264.21875 256.808594 263.402344 " fill-opacity="1" fill-rule="nonzero"/></g><g clip-path="url(#c8dbfb9a1d)"><path fill="#1f8785" d="M 256.808594 490.238281 L 234.117188 471.578125 C 232.410156 470.175781 230 472.109375 231 474.082031 L 239.539062 490.890625 C 239.835938 491.472656 239.835938 492.160156 239.539062 492.742188 L 231 509.554688 C 229.996094 511.527344 232.410156 513.460938 234.117188 512.054688 L 256.808594 493.394531 C 257.804688 492.578125 257.804688 491.058594 256.808594 490.238281 " fill-opacity="1" fill-rule="nonzero"/></g><g clip-path="url(#5ab3b67ee7)"><path fill="#1f8785" d="M 256.808594 726.910156 L 234.117188 708.25 C 232.410156 706.847656 230 708.78125 231 710.753906 L 239.539062 727.5625 C 239.835938 728.144531 239.835938 728.828125 239.539062 729.410156 L 231 746.226562 C 229.996094 748.199219 232.410156 750.132812 234.117188 748.726562 L 256.808594 730.066406 C 257.804688 729.25 257.804688 727.730469 256.808594 726.910156 " fill-opacity="1" fill-rule="nonzero"/></g><path fill="#1f8785" d="M 168.203125 723.09375 L 168.203125 687.09375 L 180.203125 687.09375 L 180.203125 723.09375 M 168.203125 675.09375 L 168.203125 639.09375 L 180.203125 639.09375 L 180.203125 675.09375 M 168.203125 627.09375 L 168.203125 591.09375 L 180.203125 591.09375 L 180.203125 627.09375 M 168.203125 579.09375 L 168.203125 543.09375 L 180.203125 543.09375 L 180.203125 579.09375 M 168.203125 531.09375 L 168.203125 495.09375 L 180.203125 495.09375 L 180.203125 531.09375 M 168.203125 483.09375 L 168.203125 447.09375 L 180.203125 447.09375 L 180.203125 483.09375 M 168.203125 435.09375 L 168.203125 399.09375 L 180.203125 399.09375 L 180.203125 435.09375 M 168.203125 387.09375 L 168.203125 351.09375 L 180.203125 351.09375 L 180.203125 387.09375 M 168.203125 339.09375 L 168.203125 303.09375 L 180.203125 303.09375 L 180.203125 339.09375 " fill-opacity="1" fill-rule="nonzero"/><path fill="#1f8785" d="M 455.886719 270.980469 L 419.886719 270.980469 L 419.886719 258.980469 L 455.886719 258.980469 M 407.886719 270.980469 L 371.886719 270.980469 L 371.886719 258.980469 L 407.886719 258.980469 M 359.886719 270.980469 L 323.886719 270.980469 L 323.886719 258.980469 L 359.886719 258.980469 M 311.886719 270.980469 L 279.328125 270.980469 L 279.328125 258.980469 L 311.886719 258.980469 " fill-opacity="1" fill-rule="nonzero"/><path fill="#1f8785" d="M 455.886719 497.820312 L 419.886719 497.820312 L 419.886719 485.820312 L 455.886719 485.820312 M 407.886719 497.820312 L 371.886719 497.820312 L 371.886719 485.820312 L 407.886719 485.820312 M 359.886719 497.820312 L 323.886719 497.820312 L 323.886719 485.820312 L 359.886719 485.820312 M 311.886719 497.820312 L 279.328125 497.820312 L 279.328125 485.820312 L 311.886719 485.820312 " fill-opacity="1" fill-rule="nonzero"/><path fill="#1f8785" d="M 455.886719 734.492188 L 419.886719 734.492188 L 419.886719 722.492188 L 455.886719 722.492188 M 407.886719 734.492188 L 371.886719 734.492188 L 371.886719 722.492188 L 407.886719 722.492188 M 359.886719 734.492188 L 323.886719 734.492188 L 323.886719 722.492188 L 359.886719 722.492188 M 311.886719 734.492188 L 279.328125 734.492188 L 279.328125 722.492188 L 311.886719 722.492188 " fill-opacity="1" fill-rule="nonzero"/></svg>