<svg xmlns="http://www.w3.org/2000/svg" xmlns:xlink="http://www.w3.org/1999/xlink" width="794" zoomAndPan="magnify" viewBox="0 0 594.95996 842.24997" height="1123" preserveAspectRatio="xMidYMid meet" version="1.0"><defs><g/></defs><g fill="#000000" fill-opacity="1"><g transform="translate(80.766452, 608.138473)"><g><path d="M 81.53125 -148.3125 C 76.84375 -148.3125 74.5 -150.65625 74.5 -155.34375 C 74.5 -160.03125 76.84375 -162.375 81.53125 -162.375 C 86.21875 -162.375 88.5625 -160.03125 88.5625 -155.34375 C 88.5625 -150.65625 86.21875 -148.3125 81.53125 -148.3125 Z M 81.53125 -119.484375 C 76.84375 -119.484375 74.5 -121.828125 74.5 -126.515625 C 74.5 -131.203125 76.84375 -133.546875 81.53125 -133.546875 C 86.21875 -133.546875 88.5625 -131.203125 88.5625 -126.515625 C 88.5625 -121.828125 86.21875 -119.484375 81.53125 -119.484375 Z M 81.53125 -90.671875 C 76.84375 -90.671875 74.5 -93.015625 74.5 -97.703125 C 74.5 -102.390625 76.84375 -104.734375 81.53125 -104.734375 C 86.21875 -104.734375 88.5625 -102.390625 88.5625 -97.703125 C 88.5625 -93.015625 86.21875 -90.671875 81.53125 -90.671875 Z M 81.53125 -61.859375 C 76.84375 -61.859375 74.5 -64.203125 74.5 -68.890625 C 74.5 -73.566406 76.84375 -75.90625 81.53125 -75.90625 C 86.21875 -75.90625 88.5625 -73.566406 88.5625 -68.890625 C 88.5625 -64.203125 86.21875 -61.859375 81.53125 -61.859375 Z M 81.53125 -371.828125 C 76.84375 -371.828125 74.5 -374.171875 74.5 -378.859375 C 74.5 -383.546875 76.84375 -385.890625 81.53125 -385.890625 C 86.21875 -385.890625 88.5625 -383.546875 88.5625 -378.859375 C 88.5625 -374.171875 86.21875 -371.828125 81.53125 -371.828125 Z M 81.53125 -344.421875 C 76.84375 -344.421875 74.5 -346.765625 74.5 -351.453125 C 74.5 -356.128906 76.84375 -358.46875 81.53125 -358.46875 C 86.21875 -358.46875 88.5625 -356.128906 88.5625 -351.453125 C 88.5625 -346.765625 86.21875 -344.421875 81.53125 -344.421875 Z M 81.53125 -314.1875 C 76.84375 -314.1875 74.5 -316.53125 74.5 -321.21875 C 74.5 -325.90625 76.84375 -328.25 81.53125 -328.25 C 86.21875 -328.25 88.5625 -325.90625 88.5625 -321.21875 C 88.5625 -316.53125 86.21875 -314.1875 81.53125 -314.1875 Z M 81.53125 -257.953125 C 76.84375 -257.953125 74.5 -260.296875 74.5 -264.984375 C 74.5 -269.671875 76.84375 -272.015625 81.53125 -272.015625 C 86.21875 -272.015625 88.5625 -269.671875 88.5625 -264.984375 C 88.5625 -260.296875 86.21875 -257.953125 81.53125 -257.953125 Z M 81.53125 -231.953125 C 76.84375 -231.953125 74.5 -234.296875 74.5 -238.984375 C 74.5 -243.671875 76.84375 -246.015625 81.53125 -246.015625 C 86.21875 -246.015625 88.5625 -243.671875 88.5625 -238.984375 C 88.5625 -234.296875 86.21875 -231.953125 81.53125 -231.953125 Z M 81.53125 -203.84375 C 76.84375 -203.84375 74.5 -206.1875 74.5 -210.875 C 74.5 -215.550781 76.84375 -217.890625 81.53125 -217.890625 C 86.21875 -217.890625 88.5625 -215.550781 88.5625 -210.875 C 88.5625 -206.1875 86.21875 -203.84375 81.53125 -203.84375 Z M 81.53125 -175.71875 C 76.84375 -175.71875 74.5 -178.0625 74.5 -182.75 C 74.5 -187.4375 76.84375 -189.78125 81.53125 -189.78125 C 86.21875 -189.78125 88.5625 -187.4375 88.5625 -182.75 C 88.5625 -178.0625 86.21875 -175.71875 81.53125 -175.71875 Z M 81.53125 -477.96875 C 76.84375 -477.96875 74.5 -480.3125 74.5 -485 C 74.5 -489.6875 76.84375 -492.03125 81.53125 -492.03125 C 86.21875 -492.03125 88.5625 -489.6875 88.5625 -485 C 88.5625 -480.3125 86.21875 -477.96875 81.53125 -477.96875 Z M 81.53125 -451.953125 C 76.84375 -451.953125 74.5 -454.296875 74.5 -458.984375 C 74.5 -463.671875 76.84375 -466.015625 81.53125 -466.015625 C 86.21875 -466.015625 88.5625 -463.671875 88.5625 -458.984375 C 88.5625 -454.296875 86.21875 -451.953125 81.53125 -451.953125 Z M 81.53125 -425.25 C 76.84375 -425.25 74.5 -427.59375 74.5 -432.28125 C 74.5 -436.96875 76.84375 -439.3125 81.53125 -439.3125 C 86.21875 -439.3125 88.5625 -436.96875 88.5625 -432.28125 C 88.5625 -427.59375 86.21875 -425.25 81.53125 -425.25 Z M 81.53125 -399.9375 C 76.84375 -399.9375 74.5 -402.28125 74.5 -406.96875 C 74.5 -411.65625 76.84375 -414 81.53125 -414 C 86.21875 -414 88.5625 -411.65625 88.5625 -406.96875 C 88.5625 -402.28125 86.21875 -399.9375 81.53125 -399.9375 Z M 81.53125 -286.078125 C 76.84375 -286.078125 74.5 -288.421875 74.5 -293.109375 C 74.5 -297.796875 76.84375 -300.140625 81.53125 -300.140625 C 86.21875 -300.140625 88.5625 -297.796875 88.5625 -293.109375 C 88.5625 -288.421875 86.21875 -286.078125 81.53125 -286.078125 Z M 81.53125 -33.734375 C 76.84375 -33.734375 74.5 -36.078125 74.5 -40.765625 C 74.5 -45.453125 76.84375 -47.796875 81.53125 -47.796875 C 86.21875 -47.796875 88.5625 -45.453125 88.5625 -40.765625 C 88.5625 -36.078125 86.21875 -33.734375 81.53125 -33.734375 Z M 81.53125 -5.625 C 76.84375 -5.625 74.5 -7.96875 74.5 -12.65625 C 74.5 -17.34375 76.84375 -19.6875 81.53125 -19.6875 C 86.21875 -19.6875 88.5625 -17.34375 88.5625 -12.65625 C 88.5625 -7.96875 86.21875 -5.625 81.53125 -5.625 Z M 107.546875 -478.671875 C 102.859375 -478.671875 100.515625 -481.015625 100.515625 -485.703125 C 100.515625 -490.378906 102.859375 -492.71875 107.546875 -492.71875 C 112.234375 -492.71875 114.578125 -490.378906 114.578125 -485.703125 C 114.578125 -481.015625 112.234375 -478.671875 107.546875 -478.671875 Z M 132.140625 -478.671875 C 127.453125 -478.671875 125.109375 -481.015625 125.109375 -485.703125 C 125.109375 -490.378906 127.453125 -492.71875 132.140625 -492.71875 C 136.828125 -492.71875 139.171875 -490.378906 139.171875 -485.703125 C 139.171875 -481.015625 136.828125 -478.671875 132.140625 -478.671875 Z M 156.75 -478.671875 C 152.0625 -478.671875 149.71875 -481.015625 149.71875 -485.703125 C 149.71875 -490.378906 152.0625 -492.71875 156.75 -492.71875 C 161.4375 -492.71875 163.78125 -490.378906 163.78125 -485.703125 C 163.78125 -481.015625 161.4375 -478.671875 156.75 -478.671875 Z M 182.046875 -478.671875 C 177.359375 -478.671875 175.015625 -481.015625 175.015625 -485.703125 C 175.015625 -490.378906 177.359375 -492.71875 182.046875 -492.71875 C 186.734375 -492.71875 189.078125 -490.378906 189.078125 -485.703125 C 189.078125 -481.015625 186.734375 -478.671875 182.046875 -478.671875 Z M 207.359375 -478.671875 C 202.671875 -478.671875 200.328125 -481.015625 200.328125 -485.703125 C 200.328125 -490.378906 202.671875 -492.71875 207.359375 -492.71875 C 212.035156 -492.71875 214.375 -490.378906 214.375 -485.703125 C 214.375 -481.015625 212.035156 -478.671875 207.359375 -478.671875 Z M 231.953125 -478.671875 C 227.265625 -478.671875 224.921875 -481.015625 224.921875 -485.703125 C 224.921875 -490.378906 227.265625 -492.71875 231.953125 -492.71875 C 236.640625 -492.71875 238.984375 -490.378906 238.984375 -485.703125 C 238.984375 -481.015625 236.640625 -478.671875 231.953125 -478.671875 Z M 256.5625 -478.671875 C 251.875 -478.671875 249.53125 -481.015625 249.53125 -485.703125 C 249.53125 -490.378906 251.875 -492.71875 256.5625 -492.71875 C 261.238281 -492.71875 263.578125 -490.378906 263.578125 -485.703125 C 263.578125 -481.015625 261.238281 -478.671875 256.5625 -478.671875 Z M 281.859375 -478.671875 C 277.171875 -478.671875 274.828125 -481.015625 274.828125 -485.703125 C 274.828125 -490.378906 277.171875 -492.71875 281.859375 -492.71875 C 286.546875 -492.71875 288.890625 -490.378906 288.890625 -485.703125 C 288.890625 -481.015625 286.546875 -478.671875 281.859375 -478.671875 Z M 306.453125 -478.671875 C 301.773438 -478.671875 299.4375 -481.015625 299.4375 -485.703125 C 299.4375 -490.378906 301.773438 -492.71875 306.453125 -492.71875 C 311.140625 -492.71875 313.484375 -490.378906 313.484375 -485.703125 C 313.484375 -481.015625 311.140625 -478.671875 306.453125 -478.671875 Z M 331.765625 -478.671875 C 327.078125 -478.671875 324.734375 -481.015625 324.734375 -485.703125 C 324.734375 -490.378906 327.078125 -492.71875 331.765625 -492.71875 C 336.453125 -492.71875 338.796875 -490.378906 338.796875 -485.703125 C 338.796875 -481.015625 336.453125 -478.671875 331.765625 -478.671875 Z M 357.0625 -478.671875 C 352.382812 -478.671875 350.046875 -481.015625 350.046875 -485.703125 C 350.046875 -490.378906 352.382812 -492.71875 357.0625 -492.71875 C 361.75 -492.71875 364.09375 -490.378906 364.09375 -485.703125 C 364.09375 -481.015625 361.75 -478.671875 357.0625 -478.671875 Z M 381.671875 -478.671875 C 376.984375 -478.671875 374.640625 -481.015625 374.640625 -485.703125 C 374.640625 -490.378906 376.984375 -492.71875 381.671875 -492.71875 C 386.359375 -492.71875 388.703125 -490.378906 388.703125 -485.703125 C 388.703125 -481.015625 386.359375 -478.671875 381.671875 -478.671875 Z M 104.734375 -246.015625 C 100.046875 -246.015625 97.703125 -248.359375 97.703125 -253.046875 C 97.703125 -257.722656 100.046875 -260.0625 104.734375 -260.0625 C 109.421875 -260.0625 111.765625 -257.722656 111.765625 -253.046875 C 111.765625 -248.359375 109.421875 -246.015625 104.734375 -246.015625 Z M 129.328125 -246.015625 C 124.640625 -246.015625 122.296875 -248.359375 122.296875 -253.046875 C 122.296875 -257.722656 124.640625 -260.0625 129.328125 -260.0625 C 134.015625 -260.0625 136.359375 -257.722656 136.359375 -253.046875 C 136.359375 -248.359375 134.015625 -246.015625 129.328125 -246.015625 Z M 153.9375 -246.015625 C 149.25 -246.015625 146.90625 -248.359375 146.90625 -253.046875 C 146.90625 -257.722656 149.25 -260.0625 153.9375 -260.0625 C 158.625 -260.0625 160.96875 -257.722656 160.96875 -253.046875 C 160.96875 -248.359375 158.625 -246.015625 153.9375 -246.015625 Z M 179.234375 -246.015625 C 174.546875 -246.015625 172.203125 -248.359375 172.203125 -253.046875 C 172.203125 -257.722656 174.546875 -260.0625 179.234375 -260.0625 C 183.921875 -260.0625 186.265625 -257.722656 186.265625 -253.046875 C 186.265625 -248.359375 183.921875 -246.015625 179.234375 -246.015625 Z M 204.546875 -246.015625 C 199.859375 -246.015625 197.515625 -248.359375 197.515625 -253.046875 C 197.515625 -257.722656 199.859375 -260.0625 204.546875 -260.0625 C 209.222656 -260.0625 211.5625 -257.722656 211.5625 -253.046875 C 211.5625 -248.359375 209.222656 -246.015625 204.546875 -246.015625 Z M 229.140625 -246.015625 C 224.453125 -246.015625 222.109375 -248.359375 222.109375 -253.046875 C 222.109375 -257.722656 224.453125 -260.0625 229.140625 -260.0625 C 233.828125 -260.0625 236.171875 -257.722656 236.171875 -253.046875 C 236.171875 -248.359375 233.828125 -246.015625 229.140625 -246.015625 Z M 253.75 -246.015625 C 249.0625 -246.015625 246.71875 -248.359375 246.71875 -253.046875 C 246.71875 -257.722656 249.0625 -260.0625 253.75 -260.0625 C 258.425781 -260.0625 260.765625 -257.722656 260.765625 -253.046875 C 260.765625 -248.359375 258.425781 -246.015625 253.75 -246.015625 Z M 279.046875 -246.015625 C 274.359375 -246.015625 272.015625 -248.359375 272.015625 -253.046875 C 272.015625 -257.722656 274.359375 -260.0625 279.046875 -260.0625 C 283.734375 -260.0625 286.078125 -257.722656 286.078125 -253.046875 C 286.078125 -248.359375 283.734375 -246.015625 279.046875 -246.015625 Z M 303.65625 -246.015625 C 298.96875 -246.015625 296.625 -248.359375 296.625 -253.046875 C 296.625 -257.722656 298.96875 -260.0625 303.65625 -260.0625 C 308.332031 -260.0625 310.671875 -257.722656 310.671875 -253.046875 C 310.671875 -248.359375 308.332031 -246.015625 303.65625 -246.015625 Z M 328.953125 -246.015625 C 324.265625 -246.015625 321.921875 -248.359375 321.921875 -253.046875 C 321.921875 -257.722656 324.265625 -260.0625 328.953125 -260.0625 C 333.640625 -260.0625 335.984375 -257.722656 335.984375 -253.046875 C 335.984375 -248.359375 333.640625 -246.015625 328.953125 -246.015625 Z M 354.25 -246.015625 C 349.570312 -246.015625 347.234375 -248.359375 347.234375 -253.046875 C 347.234375 -257.722656 349.570312 -260.0625 354.25 -260.0625 C 358.9375 -260.0625 361.28125 -257.722656 361.28125 -253.046875 C 361.28125 -248.359375 358.9375 -246.015625 354.25 -246.015625 Z M 106.140625 -4.921875 C 101.453125 -4.921875 99.109375 -7.265625 99.109375 -11.953125 C 99.109375 -16.640625 101.453125 -18.984375 106.140625 -18.984375 C 110.828125 -18.984375 113.171875 -16.640625 113.171875 -11.953125 C 113.171875 -7.265625 110.828125 -4.921875 106.140625 -4.921875 Z M 130.734375 -4.921875 C 126.046875 -4.921875 123.703125 -7.265625 123.703125 -11.953125 C 123.703125 -16.640625 126.046875 -18.984375 130.734375 -18.984375 C 135.421875 -18.984375 137.765625 -16.640625 137.765625 -11.953125 C 137.765625 -7.265625 135.421875 -4.921875 130.734375 -4.921875 Z M 155.34375 -4.921875 C 150.65625 -4.921875 148.3125 -7.265625 148.3125 -11.953125 C 148.3125 -16.640625 150.65625 -18.984375 155.34375 -18.984375 C 160.03125 -18.984375 162.375 -16.640625 162.375 -11.953125 C 162.375 -7.265625 160.03125 -4.921875 155.34375 -4.921875 Z M 180.640625 -4.921875 C 175.953125 -4.921875 173.609375 -7.265625 173.609375 -11.953125 C 173.609375 -16.640625 175.953125 -18.984375 180.640625 -18.984375 C 185.328125 -18.984375 187.671875 -16.640625 187.671875 -11.953125 C 187.671875 -7.265625 185.328125 -4.921875 180.640625 -4.921875 Z M 205.953125 -4.921875 C 201.265625 -4.921875 198.921875 -7.265625 198.921875 -11.953125 C 198.921875 -16.640625 201.265625 -18.984375 205.953125 -18.984375 C 210.628906 -18.984375 212.96875 -16.640625 212.96875 -11.953125 C 212.96875 -7.265625 210.628906 -4.921875 205.953125 -4.921875 Z M 230.546875 -4.921875 C 225.859375 -4.921875 223.515625 -7.265625 223.515625 -11.953125 C 223.515625 -16.640625 225.859375 -18.984375 230.546875 -18.984375 C 235.234375 -18.984375 237.578125 -16.640625 237.578125 -11.953125 C 237.578125 -7.265625 235.234375 -4.921875 230.546875 -4.921875 Z M 255.15625 -4.921875 C 250.46875 -4.921875 248.125 -7.265625 248.125 -11.953125 C 248.125 -16.640625 250.46875 -18.984375 255.15625 -18.984375 C 259.832031 -18.984375 262.171875 -16.640625 262.171875 -11.953125 C 262.171875 -7.265625 259.832031 -4.921875 255.15625 -4.921875 Z M 280.453125 -4.921875 C 275.765625 -4.921875 273.421875 -7.265625 273.421875 -11.953125 C 273.421875 -16.640625 275.765625 -18.984375 280.453125 -18.984375 C 285.140625 -18.984375 287.484375 -16.640625 287.484375 -11.953125 C 287.484375 -7.265625 285.140625 -4.921875 280.453125 -4.921875 Z M 305.046875 -4.921875 C 300.367188 -4.921875 298.03125 -7.265625 298.03125 -11.953125 C 298.03125 -16.640625 300.367188 -18.984375 305.046875 -18.984375 C 309.734375 -18.984375 312.078125 -16.640625 312.078125 -11.953125 C 312.078125 -7.265625 309.734375 -4.921875 305.046875 -4.921875 Z M 330.359375 -4.921875 C 325.671875 -4.921875 323.328125 -7.265625 323.328125 -11.953125 C 323.328125 -16.640625 325.671875 -18.984375 330.359375 -18.984375 C 335.046875 -18.984375 337.390625 -16.640625 337.390625 -11.953125 C 337.390625 -7.265625 335.046875 -4.921875 330.359375 -4.921875 Z M 355.65625 -4.921875 C 350.976562 -4.921875 348.640625 -7.265625 348.640625 -11.953125 C 348.640625 -16.640625 350.976562 -18.984375 355.65625 -18.984375 C 360.34375 -18.984375 362.6875 -16.640625 362.6875 -11.953125 C 362.6875 -7.265625 360.34375 -4.921875 355.65625 -4.921875 Z M 380.265625 -4.921875 C 375.578125 -4.921875 373.234375 -7.265625 373.234375 -11.953125 C 373.234375 -16.640625 375.578125 -18.984375 380.265625 -18.984375 C 384.953125 -18.984375 387.296875 -16.640625 387.296875 -11.953125 C 387.296875 -7.265625 384.953125 -4.921875 380.265625 -4.921875 Z M 380.265625 -4.921875 "/></g></g></g><path stroke-linecap="butt" transform="matrix(0, 0.749333, -0.749333, 0, 125.892614, 188.592284)" fill="none" stroke-linejoin="miter" d="M 0.00195578 1.999222 L 497.366364 1.999222 " stroke="#000000" stroke-width="4" stroke-opacity="1" stroke-miterlimit="4"/><path stroke-linecap="round" transform="matrix(0, 0.749333, -0.749333, 0, 125.892614, 188.592284)" fill="none" stroke-linejoin="round" d="M 489.364453 -4.000908 L 497.366364 1.999222 L 489.364453 7.999353 " stroke="#000000" stroke-width="4" stroke-opacity="1" stroke-miterlimit="4"/><path stroke-linecap="butt" transform="matrix(0.749333, 0, 0, 0.749333, 192.473911, 88.04378)" fill="none" stroke-linejoin="miter" d="M -0.0016746 2.000699 L 334.994307 2.000699 " stroke="#000000" stroke-width="4" stroke-opacity="1" stroke-miterlimit="4"/><path stroke-linecap="round" transform="matrix(0.749333, 0, 0, 0.749333, 192.473911, 88.04378)" fill="none" stroke-linejoin="round" d="M 326.992396 -3.999432 L 334.994307 2.000699 L 326.992396 8.000829 " stroke="#000000" stroke-width="4" stroke-opacity="1" stroke-miterlimit="4"/><path stroke-linecap="butt" transform="matrix(0.749333, 0, 0, 0.749333, 192.473911, 317.548691)" fill="none" stroke-linejoin="miter" d="M -0.0016746 1.999357 L 334.994307 1.999357 " stroke="#000000" stroke-width="4" stroke-opacity="1" stroke-miterlimit="4"/><path stroke-linecap="round" transform="matrix(0.749333, 0, 0, 0.749333, 192.473911, 317.548691)" fill="none" stroke-linejoin="round" d="M 326.992396 -4.000773 L 334.994307 1.999357 L 326.992396 7.999488 " stroke="#000000" stroke-width="4" stroke-opacity="1" stroke-miterlimit="4"/><path stroke-linecap="butt" transform="matrix(0.749333, 0, 0, 0.749333, 192.473911, 562.780688)" fill="none" stroke-linejoin="miter" d="M -0.0016746 2.002531 L 334.994307 2.002531 " stroke="#000000" stroke-width="4" stroke-opacity="1" stroke-miterlimit="4"/><path stroke-linecap="round" transform="matrix(0.749333, 0, 0, 0.749333, 192.473911, 562.780688)" fill="none" stroke-linejoin="round" d="M 326.992396 -3.997599 L 334.994307 2.002531 L 326.992396 7.997448 " stroke="#000000" stroke-width="4" stroke-opacity="1" stroke-miterlimit="4"/></svg>