<svg xmlns="http://www.w3.org/2000/svg" xmlns:xlink="http://www.w3.org/1999/xlink" width="794" zoomAndPan="magnify" viewBox="0 0 594.95996 842.24997" height="1123" preserveAspectRatio="xMidYMid meet" version="1.0"><defs><clipPath id="4e2c341e76"><path d="M 95.097656 86.289062 L 500.488281 86.289062 L 500.488281 754.695312 L 95.097656 754.695312 Z M 95.097656 86.289062 " clip-rule="nonzero"/></clipPath></defs><path fill="#ffffff" d="M 171.328125 748.578125 C 132.761719 748.578125 101.386719 717.238281 101.386719 678.714844 L 101.386719 156.347656 C 101.386719 121.109375 130.085938 92.4375 165.367188 92.4375 L 430.246094 92.4375 C 465.527344 92.4375 494.234375 121.109375 494.234375 156.347656 L 494.234375 158.050781 C 494.234375 193.292969 465.527344 221.960938 430.246094 221.960938 L 241.269531 221.960938 L 241.269531 348.519531 L 364.664062 348.519531 C 399.941406 348.519531 428.648438 377.1875 428.648438 412.425781 C 428.648438 447.667969 399.945312 476.335938 364.664062 476.335938 L 241.269531 476.335938 L 241.269531 678.714844 C 241.269531 717.238281 209.898438 748.578125 171.328125 748.578125 Z M 171.328125 748.578125 " fill-opacity="1" fill-rule="nonzero"/><g clip-path="url(#4e2c341e76)"><path fill="#000000" d="M 430.246094 92.4375 C 465.527344 92.4375 494.234375 121.109375 494.234375 156.347656 L 494.234375 158.050781 C 494.234375 193.292969 465.527344 221.960938 430.246094 221.960938 L 241.269531 221.960938 L 241.269531 348.519531 L 364.664062 348.519531 C 399.941406 348.519531 428.648438 377.1875 428.648438 412.425781 C 428.648438 447.667969 399.945312 476.335938 364.664062 476.335938 L 241.269531 476.335938 L 241.269531 678.714844 C 241.269531 717.238281 209.898438 748.578125 171.328125 748.578125 C 132.761719 748.578125 101.386719 717.238281 101.386719 678.714844 L 101.386719 156.347656 C 101.386719 121.109375 130.085938 92.4375 165.367188 92.4375 L 430.246094 92.4375 M 430.246094 86.289062 L 165.367188 86.289062 C 126.695312 86.289062 95.230469 117.71875 95.230469 156.347656 L 95.230469 678.714844 C 95.230469 720.628906 129.367188 754.726562 171.328125 754.726562 C 213.289062 754.726562 247.425781 720.625 247.425781 678.714844 L 247.425781 482.484375 L 364.664062 482.484375 C 403.339844 482.484375 434.804688 451.054688 434.804688 412.425781 C 434.804688 373.796875 403.339844 342.371094 364.664062 342.371094 L 247.425781 342.371094 L 247.425781 228.109375 L 430.246094 228.109375 C 468.921875 228.109375 500.386719 196.683594 500.386719 158.050781 L 500.386719 156.347656 C 500.386719 117.71875 468.921875 86.289062 430.246094 86.289062 Z M 430.246094 86.289062 " fill-opacity="1" fill-rule="nonzero"/></g><path fill="#58595b" d="M 447.761719 157.570312 L 435.453125 157.570312 L 435.453125 154.496094 L 447.761719 154.496094 Z M 423.144531 157.570312 L 410.835938 157.570312 L 410.835938 154.496094 L 423.144531 154.496094 Z M 398.527344 157.570312 L 386.21875 157.570312 L 386.21875 154.496094 L 398.527344 154.496094 Z M 373.90625 157.570312 L 361.597656 157.570312 L 361.597656 154.496094 L 373.90625 154.496094 Z M 349.289062 157.570312 L 336.980469 157.570312 L 336.980469 154.496094 L 349.289062 154.496094 Z M 324.671875 157.570312 L 312.363281 157.570312 L 312.363281 154.496094 L 324.671875 154.496094 Z M 300.054688 157.570312 L 287.742188 157.570312 L 287.742188 154.496094 L 300.054688 154.496094 Z M 275.433594 157.570312 L 263.125 157.570312 L 263.125 154.496094 L 275.433594 154.496094 Z M 275.433594 157.570312 " fill-opacity="1" fill-rule="nonzero"/><path fill="#58595b" d="M 456.480469 155.703125 L 434.664062 143.125 L 434.664062 168.285156 Z M 456.480469 155.703125 " fill-opacity="1" fill-rule="nonzero"/><path fill="#58595b" d="M 173.5 700.386719 L 170.421875 700.386719 L 170.421875 695.847656 L 173.5 695.847656 Z M 173.5 683.550781 L 170.421875 683.550781 L 170.421875 671.253906 L 173.5 671.253906 Z M 173.5 658.960938 L 170.421875 658.960938 L 170.421875 646.664062 L 173.5 646.664062 Z M 173.5 634.371094 L 170.421875 634.371094 L 170.421875 622.074219 L 173.5 622.074219 Z M 173.5 609.777344 L 170.421875 609.777344 L 170.421875 597.484375 L 173.5 597.484375 Z M 173.5 585.1875 L 170.421875 585.1875 L 170.421875 572.894531 L 173.5 572.894531 Z M 173.5 560.597656 L 170.421875 560.597656 L 170.421875 548.300781 L 173.5 548.300781 Z M 173.5 536.007812 L 170.421875 536.007812 L 170.421875 523.710938 L 173.5 523.710938 Z M 173.5 511.417969 L 170.421875 511.417969 L 170.421875 499.121094 L 173.5 499.121094 Z M 173.5 486.824219 L 170.421875 486.824219 L 170.421875 474.53125 L 173.5 474.53125 Z M 173.5 462.234375 L 170.421875 462.234375 L 170.421875 449.941406 L 173.5 449.941406 Z M 173.5 437.644531 L 170.421875 437.644531 L 170.421875 425.347656 L 173.5 425.347656 Z M 173.5 413.054688 L 170.421875 413.054688 L 170.421875 400.757812 L 173.5 400.757812 Z M 173.5 388.464844 L 170.421875 388.464844 L 170.421875 376.167969 L 173.5 376.167969 Z M 173.5 363.871094 L 170.421875 363.871094 L 170.421875 351.578125 L 173.5 351.578125 Z M 173.5 339.28125 L 170.421875 339.28125 L 170.421875 326.988281 L 173.5 326.988281 Z M 173.5 314.691406 L 170.421875 314.691406 L 170.421875 302.394531 L 173.5 302.394531 Z M 173.5 290.101562 L 170.421875 290.101562 L 170.421875 277.804688 L 173.5 277.804688 Z M 173.5 265.511719 L 170.421875 265.511719 L 170.421875 253.214844 L 173.5 253.214844 Z M 173.5 240.917969 L 170.421875 240.917969 L 170.421875 228.625 L 173.5 228.625 Z M 173.5 216.328125 L 170.421875 216.328125 L 170.421875 204.035156 L 173.5 204.035156 Z M 173.5 191.738281 L 170.421875 191.738281 L 170.421875 179.441406 L 173.5 179.441406 Z M 173.5 191.738281 " fill-opacity="1" fill-rule="nonzero"/><path fill="#58595b" d="M 171.960938 714.914062 L 184.554688 693.121094 L 159.367188 693.121094 Z M 171.960938 714.914062 " fill-opacity="1" fill-rule="nonzero"/><path fill="#414042" d="M 200.679688 155.84375 C 200.679688 156.855469 200.628906 157.863281 200.53125 158.871094 C 200.433594 159.878906 200.285156 160.878906 200.085938 161.871094 C 199.886719 162.863281 199.640625 163.84375 199.347656 164.8125 C 199.054688 165.78125 198.714844 166.734375 198.324219 167.667969 C 197.9375 168.605469 197.503906 169.515625 197.027344 170.410156 C 196.550781 171.300781 196.03125 172.167969 195.464844 173.011719 C 194.902344 173.851562 194.300781 174.664062 193.65625 175.445312 C 193.015625 176.230469 192.335938 176.976562 191.621094 177.695312 C 190.902344 178.410156 190.152344 179.089844 189.371094 179.730469 C 188.585938 180.371094 187.773438 180.972656 186.929688 181.535156 C 186.089844 182.097656 185.222656 182.617188 184.328125 183.097656 C 183.433594 183.574219 182.519531 184.003906 181.582031 184.390625 C 180.648438 184.78125 179.695312 185.121094 178.722656 185.414062 C 177.753906 185.707031 176.773438 185.953125 175.78125 186.152344 C 174.785156 186.347656 173.785156 186.496094 172.777344 186.597656 C 171.769531 186.695312 170.757812 186.746094 169.746094 186.746094 C 168.730469 186.746094 167.71875 186.695312 166.710938 186.597656 C 165.703125 186.496094 164.703125 186.347656 163.710938 186.152344 C 162.714844 185.953125 161.734375 185.707031 160.765625 185.414062 C 159.792969 185.121094 158.839844 184.78125 157.90625 184.390625 C 156.96875 184.003906 156.054688 183.574219 155.160156 183.097656 C 154.269531 182.617188 153.398438 182.097656 152.558594 181.535156 C 151.714844 180.972656 150.902344 180.371094 150.117188 179.730469 C 149.335938 179.089844 148.585938 178.410156 147.871094 177.695312 C 147.152344 176.976562 146.472656 176.230469 145.832031 175.445312 C 145.1875 174.664062 144.585938 173.851562 144.023438 173.011719 C 143.460938 172.167969 142.9375 171.300781 142.460938 170.410156 C 141.984375 169.515625 141.550781 168.605469 141.164062 167.667969 C 140.777344 166.734375 140.433594 165.78125 140.140625 164.8125 C 139.847656 163.84375 139.601562 162.863281 139.402344 161.871094 C 139.207031 160.878906 139.054688 159.878906 138.957031 158.871094 C 138.859375 157.863281 138.808594 156.855469 138.808594 155.84375 C 138.808594 154.832031 138.859375 153.820312 138.957031 152.8125 C 139.054688 151.808594 139.207031 150.808594 139.402344 149.816406 C 139.601562 148.820312 139.847656 147.839844 140.140625 146.875 C 140.433594 145.90625 140.777344 144.953125 141.164062 144.019531 C 141.550781 143.082031 141.984375 142.167969 142.460938 141.277344 C 142.9375 140.382812 143.460938 139.515625 144.023438 138.675781 C 144.585938 137.835938 145.1875 137.023438 145.832031 136.238281 C 146.472656 135.457031 147.152344 134.707031 147.871094 133.992188 C 148.585938 133.277344 149.335938 132.597656 150.117188 131.957031 C 150.902344 131.3125 151.714844 130.710938 152.558594 130.148438 C 153.398438 129.585938 154.269531 129.066406 155.160156 128.589844 C 156.054688 128.113281 156.96875 127.679688 157.90625 127.292969 C 158.839844 126.90625 159.792969 126.566406 160.765625 126.273438 C 161.734375 125.980469 162.714844 125.734375 163.710938 125.535156 C 164.703125 125.339844 165.703125 125.191406 166.710938 125.089844 C 167.71875 124.992188 168.730469 124.941406 169.746094 124.941406 C 170.757812 124.941406 171.769531 124.992188 172.777344 125.089844 C 173.785156 125.191406 174.785156 125.339844 175.78125 125.535156 C 176.773438 125.734375 177.753906 125.980469 178.722656 126.273438 C 179.695312 126.566406 180.648438 126.90625 181.582031 127.292969 C 182.519531 127.679688 183.433594 128.113281 184.328125 128.589844 C 185.222656 129.066406 186.089844 129.585938 186.929688 130.148438 C 187.773438 130.710938 188.585938 131.3125 189.371094 131.957031 C 190.152344 132.597656 190.902344 133.277344 191.621094 133.992188 C 192.335938 134.707031 193.015625 135.457031 193.65625 136.238281 C 194.300781 137.023438 194.902344 137.835938 195.464844 138.675781 C 196.03125 139.515625 196.550781 140.382812 197.027344 141.277344 C 197.503906 142.167969 197.9375 143.082031 198.324219 144.019531 C 198.714844 144.953125 199.054688 145.90625 199.347656 146.875 C 199.640625 147.839844 199.886719 148.820312 200.085938 149.816406 C 200.285156 150.808594 200.433594 151.808594 200.53125 152.8125 C 200.628906 153.820312 200.679688 154.832031 200.679688 155.84375 Z M 200.679688 155.84375 " fill-opacity="1" fill-rule="nonzero"/><path fill="#fcfcfc" d="M 173.328125 134.6875 L 169.355469 134.6875 C 168.902344 134.6875 168.476562 134.886719 168.183594 135.226562 L 156.484375 148.894531 C 155.96875 149.503906 156 150.410156 156.570312 150.980469 L 158.792969 153.199219 C 159.394531 153.796875 160.363281 153.796875 160.964844 153.207031 L 167.816406 146.445312 L 167.816406 176.058594 C 167.816406 176.90625 168.503906 177.597656 169.351562 177.597656 L 173.328125 177.597656 C 174.175781 177.597656 174.863281 176.90625 174.863281 176.058594 L 174.863281 136.222656 C 174.867188 135.378906 174.175781 134.6875 173.328125 134.6875 Z M 173.328125 134.6875 " fill-opacity="1" fill-rule="nonzero"/><path fill="#414042" d="M 278.042969 155.84375 C 278.042969 156.855469 277.996094 157.863281 277.894531 158.871094 C 277.796875 159.878906 277.648438 160.878906 277.449219 161.871094 C 277.253906 162.863281 277.007812 163.84375 276.710938 164.8125 C 276.417969 165.78125 276.078125 166.734375 275.691406 167.667969 C 275.300781 168.605469 274.871094 169.515625 274.390625 170.410156 C 273.914062 171.300781 273.394531 172.167969 272.832031 173.011719 C 272.269531 173.851562 271.664062 174.664062 271.023438 175.445312 C 270.378906 176.230469 269.699219 176.976562 268.984375 177.695312 C 268.265625 178.410156 267.519531 179.089844 266.734375 179.730469 C 265.949219 180.371094 265.136719 180.972656 264.296875 181.535156 C 263.453125 182.097656 262.585938 182.617188 261.691406 183.097656 C 260.796875 183.574219 259.882812 184.003906 258.949219 184.390625 C 258.011719 184.78125 257.058594 185.121094 256.089844 185.414062 C 255.121094 185.707031 254.136719 185.953125 253.144531 186.152344 C 252.152344 186.347656 251.148438 186.496094 250.140625 186.597656 C 249.132812 186.695312 248.121094 186.746094 247.109375 186.746094 C 246.09375 186.746094 245.085938 186.695312 244.078125 186.597656 C 243.066406 186.496094 242.066406 186.347656 241.074219 186.152344 C 240.078125 185.953125 239.097656 185.707031 238.128906 185.414062 C 237.160156 185.121094 236.207031 184.78125 235.269531 184.390625 C 234.335938 184.003906 233.417969 183.574219 232.527344 183.097656 C 231.632812 182.617188 230.765625 182.097656 229.921875 181.535156 C 229.078125 180.972656 228.265625 180.371094 227.484375 179.730469 C 226.699219 179.089844 225.949219 178.410156 225.234375 177.695312 C 224.515625 176.976562 223.835938 176.230469 223.195312 175.445312 C 222.550781 174.664062 221.949219 173.851562 221.386719 173.011719 C 220.824219 172.167969 220.304688 171.300781 219.824219 170.410156 C 219.347656 169.515625 218.914062 168.605469 218.527344 167.667969 C 218.140625 166.734375 217.800781 165.78125 217.503906 164.8125 C 217.210938 163.84375 216.964844 162.863281 216.765625 161.871094 C 216.570312 160.878906 216.421875 159.878906 216.320312 158.871094 C 216.222656 157.863281 216.171875 156.855469 216.171875 155.84375 C 216.171875 154.832031 216.222656 153.820312 216.320312 152.8125 C 216.421875 151.808594 216.570312 150.808594 216.765625 149.816406 C 216.964844 148.820312 217.210938 147.839844 217.503906 146.875 C 217.800781 145.90625 218.140625 144.953125 218.527344 144.019531 C 218.914062 143.082031 219.347656 142.167969 219.824219 141.277344 C 220.304688 140.382812 220.824219 139.515625 221.386719 138.675781 C 221.949219 137.835938 222.550781 137.023438 223.195312 136.238281 C 223.835938 135.457031 224.515625 134.707031 225.234375 133.992188 C 225.949219 133.277344 226.699219 132.597656 227.484375 131.957031 C 228.265625 131.3125 229.078125 130.710938 229.921875 130.148438 C 230.765625 129.585938 231.632812 129.066406 232.527344 128.589844 C 233.417969 128.113281 234.335938 127.679688 235.269531 127.292969 C 236.207031 126.90625 237.160156 126.566406 238.128906 126.273438 C 239.097656 125.980469 240.078125 125.734375 241.074219 125.535156 C 242.066406 125.339844 243.066406 125.191406 244.078125 125.089844 C 245.085938 124.992188 246.09375 124.941406 247.109375 124.941406 C 248.121094 124.941406 249.132812 124.992188 250.140625 125.089844 C 251.148438 125.191406 252.152344 125.339844 253.144531 125.535156 C 254.136719 125.734375 255.121094 125.980469 256.089844 126.273438 C 257.058594 126.566406 258.011719 126.90625 258.949219 127.292969 C 259.882812 127.679688 260.796875 128.113281 261.691406 128.589844 C 262.585938 129.066406 263.453125 129.585938 264.296875 130.148438 C 265.136719 130.710938 265.953125 131.3125 266.734375 131.957031 C 267.519531 132.597656 268.265625 133.277344 268.984375 133.992188 C 269.699219 134.707031 270.378906 135.457031 271.023438 136.238281 C 271.664062 137.023438 272.269531 137.835938 272.832031 138.675781 C 273.394531 139.515625 273.914062 140.382812 274.390625 141.277344 C 274.871094 142.167969 275.300781 143.082031 275.691406 144.019531 C 276.078125 144.953125 276.417969 145.90625 276.710938 146.875 C 277.007812 147.839844 277.253906 148.820312 277.449219 149.816406 C 277.648438 150.808594 277.796875 151.808594 277.894531 152.8125 C 277.996094 153.820312 278.042969 154.832031 278.042969 155.84375 Z M 278.042969 155.84375 " fill-opacity="1" fill-rule="nonzero"/><path fill="#fcfcfc" d="M 259.503906 170.546875 L 242.113281 170.546875 C 242.339844 170.128906 242.648438 169.699219 243.050781 169.261719 C 244.144531 168.050781 245.898438 166.453125 248.265625 164.511719 L 248.238281 164.476562 C 248.597656 164.230469 248.992188 163.890625 249.445312 163.503906 C 252.796875 160.671875 255.480469 157.890625 257.414062 155.234375 C 259.46875 152.414062 260.515625 149.160156 260.515625 145.570312 C 260.515625 142.015625 259.300781 139.125 256.910156 136.976562 C 254.558594 134.878906 251.414062 133.8125 247.574219 133.8125 C 244.882812 133.8125 242.25 134.484375 239.75 135.804688 C 237.277344 137.113281 235.164062 138.957031 233.46875 141.277344 C 232.992188 141.925781 233.101562 142.828125 233.714844 143.351562 L 236.929688 146.097656 C 237.25 146.367188 237.65625 146.511719 238.101562 146.453125 C 238.523438 146.40625 238.90625 146.1875 239.160156 145.84375 C 240.398438 144.183594 241.738281 142.910156 243.144531 142.066406 C 245.84375 140.429688 249.605469 140.433594 251.539062 142.183594 C 252.480469 143.03125 252.933594 144.140625 252.933594 145.570312 C 252.933594 147.96875 252.335938 150.015625 251.09375 151.832031 C 249.785156 153.761719 247.890625 155.78125 245.433594 157.867188 C 245.300781 157.980469 244.664062 158.503906 243.5 159.449219 C 241.480469 161.113281 239.832031 162.570312 238.601562 163.777344 C 237.324219 165.03125 236.246094 166.46875 235.378906 168.046875 C 234.457031 169.730469 233.988281 171.585938 233.988281 173.542969 L 233.988281 176.058594 C 233.988281 176.902344 234.679688 177.59375 235.527344 177.59375 L 259.503906 177.59375 C 260.351562 177.59375 261.042969 176.902344 261.042969 176.058594 L 261.042969 172.082031 C 261.042969 171.238281 260.351562 170.546875 259.503906 170.546875 Z M 259.503906 170.546875 " fill-opacity="1" fill-rule="nonzero"/><path fill="#58595b" d="M 379.492188 416.136719 L 371.320312 416.136719 L 371.320312 413.0625 L 379.492188 413.0625 Z M 359.011719 416.136719 L 346.703125 416.136719 L 346.703125 413.0625 L 359.011719 413.0625 Z M 334.394531 416.136719 L 322.085938 416.136719 L 322.085938 413.0625 L 334.394531 413.0625 Z M 309.777344 416.136719 L 297.464844 416.136719 L 297.464844 413.0625 L 309.777344 413.0625 Z M 285.15625 416.136719 L 272.847656 416.136719 L 272.847656 413.0625 L 285.15625 413.0625 Z M 260.539062 416.136719 L 248.230469 416.136719 L 248.230469 413.0625 L 260.539062 413.0625 Z M 235.921875 416.136719 L 223.613281 416.136719 L 223.613281 413.0625 L 235.921875 413.0625 Z M 235.921875 416.136719 " fill-opacity="1" fill-rule="nonzero"/><path fill="#58595b" d="M 391.820312 414.273438 L 370.003906 401.691406 L 370.003906 426.851562 Z M 391.820312 414.273438 " fill-opacity="1" fill-rule="nonzero"/><path fill="#414042" d="M 248.007812 414.273438 C 248.007812 415.285156 247.960938 416.292969 247.859375 417.300781 C 247.761719 418.308594 247.613281 419.308594 247.414062 420.300781 C 247.21875 421.292969 246.972656 422.273438 246.675781 423.242188 C 246.382812 424.210938 246.042969 425.164062 245.652344 426.097656 C 245.265625 427.03125 244.832031 427.945312 244.355469 428.839844 C 243.878906 429.730469 243.359375 430.597656 242.796875 431.441406 C 242.230469 432.28125 241.628906 433.09375 240.988281 433.875 C 240.34375 434.65625 239.664062 435.40625 238.949219 436.121094 C 238.230469 436.839844 237.480469 437.515625 236.699219 438.160156 C 235.914062 438.800781 235.101562 439.402344 234.261719 439.964844 C 233.417969 440.527344 232.550781 441.046875 231.65625 441.523438 C 230.761719 442 229.847656 442.433594 228.910156 442.820312 C 227.976562 443.207031 227.023438 443.546875 226.054688 443.84375 C 225.082031 444.136719 224.101562 444.382812 223.109375 444.578125 C 222.113281 444.777344 221.113281 444.925781 220.105469 445.023438 C 219.097656 445.125 218.085938 445.171875 217.074219 445.171875 C 216.058594 445.171875 215.050781 445.125 214.039062 445.023438 C 213.03125 444.925781 212.03125 444.777344 211.039062 444.578125 C 210.042969 444.382812 209.0625 444.136719 208.09375 443.84375 C 207.125 443.546875 206.171875 443.207031 205.234375 442.820312 C 204.296875 442.433594 203.382812 442 202.488281 441.523438 C 201.597656 441.046875 200.726562 440.527344 199.886719 439.964844 C 199.042969 439.402344 198.230469 438.800781 197.449219 438.160156 C 196.664062 437.515625 195.914062 436.839844 195.199219 436.121094 C 194.480469 435.40625 193.800781 434.65625 193.160156 433.875 C 192.515625 433.09375 191.914062 432.28125 191.351562 431.441406 C 190.789062 430.597656 190.265625 429.730469 189.789062 428.839844 C 189.3125 427.945312 188.878906 427.03125 188.492188 426.097656 C 188.105469 425.164062 187.761719 424.210938 187.46875 423.242188 C 187.175781 422.273438 186.929688 421.292969 186.730469 420.300781 C 186.535156 419.308594 186.386719 418.308594 186.285156 417.300781 C 186.1875 416.292969 186.136719 415.285156 186.136719 414.273438 C 186.136719 413.261719 186.1875 412.25 186.285156 411.242188 C 186.386719 410.234375 186.535156 409.234375 186.730469 408.242188 C 186.929688 407.25 187.175781 406.269531 187.46875 405.300781 C 187.761719 404.332031 188.105469 403.382812 188.492188 402.445312 C 188.878906 401.511719 189.3125 400.597656 189.789062 399.703125 C 190.265625 398.8125 190.789062 397.945312 191.351562 397.105469 C 191.914062 396.261719 192.515625 395.449219 193.160156 394.667969 C 193.800781 393.886719 194.480469 393.136719 195.199219 392.421875 C 195.914062 391.707031 196.664062 391.027344 197.449219 390.386719 C 198.230469 389.742188 199.042969 389.140625 199.886719 388.578125 C 200.726562 388.015625 201.597656 387.496094 202.488281 387.019531 C 203.382812 386.542969 204.296875 386.109375 205.234375 385.722656 C 206.171875 385.335938 207.125 384.996094 208.09375 384.703125 C 209.0625 384.40625 210.042969 384.160156 211.039062 383.964844 C 212.03125 383.765625 213.03125 383.617188 214.039062 383.519531 C 215.050781 383.421875 216.058594 383.371094 217.074219 383.371094 C 218.085938 383.371094 219.097656 383.421875 220.105469 383.519531 C 221.113281 383.617188 222.113281 383.765625 223.109375 383.964844 C 224.101562 384.160156 225.082031 384.40625 226.054688 384.703125 C 227.023438 384.996094 227.976562 385.335938 228.910156 385.722656 C 229.847656 386.109375 230.761719 386.542969 231.65625 387.019531 C 232.550781 387.496094 233.417969 388.015625 234.261719 388.578125 C 235.101562 389.140625 235.914062 389.742188 236.699219 390.386719 C 237.480469 391.027344 238.230469 391.707031 238.949219 392.421875 C 239.664062 393.136719 240.34375 393.886719 240.988281 394.667969 C 241.628906 395.449219 242.230469 396.261719 242.796875 397.105469 C 243.359375 397.945312 243.878906 398.8125 244.355469 399.707031 C 244.832031 400.597656 245.265625 401.511719 245.652344 402.445312 C 246.042969 403.382812 246.382812 404.332031 246.675781 405.300781 C 246.972656 406.269531 247.21875 407.25 247.414062 408.242188 C 247.613281 409.234375 247.761719 410.234375 247.859375 411.242188 C 247.960938 412.25 248.007812 413.261719 248.007812 414.273438 Z M 248.007812 414.273438 " fill-opacity="1" fill-rule="nonzero"/><path fill="#fcfcfc" d="M 229.203125 416.191406 C 228.3125 414.933594 227.242188 413.90625 226.015625 413.121094 C 226.859375 412.425781 227.578125 411.589844 228.175781 410.617188 C 229.316406 408.769531 229.894531 406.621094 229.894531 404.230469 C 229.894531 401.945312 229.363281 399.867188 228.3125 398.058594 C 227.253906 396.238281 225.765625 394.796875 223.890625 393.773438 C 222.03125 392.757812 219.917969 392.242188 217.597656 392.242188 C 214.546875 392.242188 211.828125 393.097656 209.507812 394.785156 C 207.222656 396.441406 205.4375 398.703125 204.203125 401.511719 C 203.878906 402.242188 204.175781 403.097656 204.871094 403.480469 L 208.085938 405.234375 C 208.460938 405.433594 208.894531 405.472656 209.289062 405.347656 C 209.691406 405.21875 210.023438 404.9375 210.207031 404.558594 C 211.117188 402.714844 212.191406 401.289062 213.40625 400.332031 C 214.542969 399.433594 215.910156 398.996094 217.59375 398.996094 C 219.085938 398.996094 220.261719 399.464844 221.195312 400.429688 C 222.144531 401.402344 222.609375 402.648438 222.609375 404.234375 C 222.609375 406.027344 222.109375 407.4375 221.085938 408.53125 C 220.101562 409.597656 218.785156 410.113281 217.070312 410.113281 L 214.5 410.113281 C 213.652344 410.113281 212.960938 410.804688 212.960938 411.652344 L 212.960938 415.269531 C 212.960938 416.121094 213.652344 416.808594 214.5 416.808594 L 217.304688 416.808594 C 219.3125 416.808594 220.90625 417.425781 222.179688 418.691406 C 223.449219 419.964844 224.066406 421.558594 224.066406 423.566406 C 224.066406 425.492188 223.460938 427.027344 222.214844 428.25 C 220.960938 429.488281 219.433594 430.089844 217.539062 430.089844 C 215.929688 430.089844 214.566406 429.632812 213.367188 428.695312 C 212.113281 427.707031 211.046875 426.304688 210.21875 424.546875 C 210.03125 424.15625 209.691406 423.863281 209.28125 423.734375 C 208.871094 423.605469 208.429688 423.65625 208.046875 423.875 L 204.539062 425.917969 C 203.878906 426.304688 203.601562 427.117188 203.890625 427.824219 C 205.015625 430.582031 206.746094 432.8125 209.039062 434.453125 C 211.367188 436.117188 214.160156 436.960938 217.359375 436.960938 C 219.902344 436.960938 222.273438 436.390625 224.421875 435.265625 C 226.589844 434.125 228.328125 432.515625 229.582031 430.46875 C 230.832031 428.417969 231.472656 426.09375 231.472656 423.566406 C 231.476562 420.796875 230.710938 418.3125 229.203125 416.191406 Z M 229.203125 416.191406 " fill-opacity="1" fill-rule="nonzero"/></svg>