<svg xmlns="http://www.w3.org/2000/svg" xmlns:xlink="http://www.w3.org/1999/xlink" width="794" zoomAndPan="magnify" viewBox="0 0 594.95996 842.24997" height="1123" preserveAspectRatio="xMidYMid meet" version="1.0"><defs><g/></defs><g fill="#000000" fill-opacity="1"><g transform="translate(85.95212, 606.782341)"><g><path d="M 82.171875 -149.46875 C 77.453125 -149.46875 75.09375 -151.828125 75.09375 -156.546875 C 75.09375 -161.273438 77.453125 -163.640625 82.171875 -163.640625 C 86.890625 -163.640625 89.25 -161.273438 89.25 -156.546875 C 89.25 -151.828125 86.890625 -149.46875 82.171875 -149.46875 Z M 82.171875 -120.421875 C 77.453125 -120.421875 75.09375 -122.785156 75.09375 -127.515625 C 75.09375 -132.234375 77.453125 -134.59375 82.171875 -134.59375 C 86.890625 -134.59375 89.25 -132.234375 89.25 -127.515625 C 89.25 -122.785156 86.890625 -120.421875 82.171875 -120.421875 Z M 82.171875 -91.375 C 77.453125 -91.375 75.09375 -93.738281 75.09375 -98.46875 C 75.09375 -103.1875 77.453125 -105.546875 82.171875 -105.546875 C 86.890625 -105.546875 89.25 -103.1875 89.25 -98.46875 C 89.25 -93.738281 86.890625 -91.375 82.171875 -91.375 Z M 82.171875 -62.34375 C 77.453125 -62.34375 75.09375 -64.703125 75.09375 -69.421875 C 75.09375 -74.140625 77.453125 -76.5 82.171875 -76.5 C 86.890625 -76.5 89.25 -74.140625 89.25 -69.421875 C 89.25 -64.703125 86.890625 -62.34375 82.171875 -62.34375 Z M 82.171875 -374.734375 C 77.453125 -374.734375 75.09375 -377.097656 75.09375 -381.828125 C 75.09375 -386.546875 77.453125 -388.90625 82.171875 -388.90625 C 86.890625 -388.90625 89.25 -386.546875 89.25 -381.828125 C 89.25 -377.097656 86.890625 -374.734375 82.171875 -374.734375 Z M 82.171875 -347.109375 C 77.453125 -347.109375 75.09375 -349.472656 75.09375 -354.203125 C 75.09375 -358.921875 77.453125 -361.28125 82.171875 -361.28125 C 86.890625 -361.28125 89.25 -358.921875 89.25 -354.203125 C 89.25 -349.472656 86.890625 -347.109375 82.171875 -347.109375 Z M 82.171875 -316.65625 C 77.453125 -316.65625 75.09375 -319.015625 75.09375 -323.734375 C 75.09375 -328.453125 77.453125 -330.8125 82.171875 -330.8125 C 86.890625 -330.8125 89.25 -328.453125 89.25 -323.734375 C 89.25 -319.015625 86.890625 -316.65625 82.171875 -316.65625 Z M 82.171875 -259.984375 C 77.453125 -259.984375 75.09375 -262.34375 75.09375 -267.0625 C 75.09375 -271.78125 77.453125 -274.140625 82.171875 -274.140625 C 86.890625 -274.140625 89.25 -271.78125 89.25 -267.0625 C 89.25 -262.34375 86.890625 -259.984375 82.171875 -259.984375 Z M 82.171875 -233.765625 C 77.453125 -233.765625 75.09375 -236.128906 75.09375 -240.859375 C 75.09375 -245.578125 77.453125 -247.9375 82.171875 -247.9375 C 86.890625 -247.9375 89.25 -245.578125 89.25 -240.859375 C 89.25 -236.128906 86.890625 -233.765625 82.171875 -233.765625 Z M 82.171875 -205.4375 C 77.453125 -205.4375 75.09375 -207.796875 75.09375 -212.515625 C 75.09375 -217.234375 77.453125 -219.59375 82.171875 -219.59375 C 86.890625 -219.59375 89.25 -217.234375 89.25 -212.515625 C 89.25 -207.796875 86.890625 -205.4375 82.171875 -205.4375 Z M 82.171875 -177.09375 C 77.453125 -177.09375 75.09375 -179.457031 75.09375 -184.1875 C 75.09375 -188.90625 77.453125 -191.265625 82.171875 -191.265625 C 86.890625 -191.265625 89.25 -188.90625 89.25 -184.1875 C 89.25 -179.457031 86.890625 -177.09375 82.171875 -177.09375 Z M 82.171875 -481.703125 C 77.453125 -481.703125 75.09375 -484.066406 75.09375 -488.796875 C 75.09375 -493.515625 77.453125 -495.875 82.171875 -495.875 C 86.890625 -495.875 89.25 -493.515625 89.25 -488.796875 C 89.25 -484.066406 86.890625 -481.703125 82.171875 -481.703125 Z M 82.171875 -455.5 C 77.453125 -455.5 75.09375 -457.859375 75.09375 -462.578125 C 75.09375 -467.296875 77.453125 -469.65625 82.171875 -469.65625 C 86.890625 -469.65625 89.25 -467.296875 89.25 -462.578125 C 89.25 -457.859375 86.890625 -455.5 82.171875 -455.5 Z M 82.171875 -428.578125 C 77.453125 -428.578125 75.09375 -430.9375 75.09375 -435.65625 C 75.09375 -440.382812 77.453125 -442.75 82.171875 -442.75 C 86.890625 -442.75 89.25 -440.382812 89.25 -435.65625 C 89.25 -430.9375 86.890625 -428.578125 82.171875 -428.578125 Z M 82.171875 -403.078125 C 77.453125 -403.078125 75.09375 -405.4375 75.09375 -410.15625 C 75.09375 -414.875 77.453125 -417.234375 82.171875 -417.234375 C 86.890625 -417.234375 89.25 -414.875 89.25 -410.15625 C 89.25 -405.4375 86.890625 -403.078125 82.171875 -403.078125 Z M 82.171875 -288.3125 C 77.453125 -288.3125 75.09375 -290.675781 75.09375 -295.40625 C 75.09375 -300.125 77.453125 -302.484375 82.171875 -302.484375 C 86.890625 -302.484375 89.25 -300.125 89.25 -295.40625 C 89.25 -290.675781 86.890625 -288.3125 82.171875 -288.3125 Z M 82.171875 -34 C 77.453125 -34 75.09375 -36.363281 75.09375 -41.09375 C 75.09375 -45.8125 77.453125 -48.171875 82.171875 -48.171875 C 86.890625 -48.171875 89.25 -45.8125 89.25 -41.09375 C 89.25 -36.363281 86.890625 -34 82.171875 -34 Z M 82.171875 -5.671875 C 77.453125 -5.671875 75.09375 -8.03125 75.09375 -12.75 C 75.09375 -17.46875 77.453125 -19.828125 82.171875 -19.828125 C 86.890625 -19.828125 89.25 -17.46875 89.25 -12.75 C 89.25 -8.03125 86.890625 -5.671875 82.171875 -5.671875 Z M 108.390625 -482.421875 C 103.660156 -482.421875 101.296875 -484.78125 101.296875 -489.5 C 101.296875 -494.21875 103.660156 -496.578125 108.390625 -496.578125 C 113.109375 -496.578125 115.46875 -494.21875 115.46875 -489.5 C 115.46875 -484.78125 113.109375 -482.421875 108.390625 -482.421875 Z M 133.171875 -482.421875 C 128.453125 -482.421875 126.09375 -484.78125 126.09375 -489.5 C 126.09375 -494.21875 128.453125 -496.578125 133.171875 -496.578125 C 137.898438 -496.578125 140.265625 -494.21875 140.265625 -489.5 C 140.265625 -484.78125 137.898438 -482.421875 133.171875 -482.421875 Z M 157.96875 -482.421875 C 153.25 -482.421875 150.890625 -484.78125 150.890625 -489.5 C 150.890625 -494.21875 153.25 -496.578125 157.96875 -496.578125 C 162.695312 -496.578125 165.0625 -494.21875 165.0625 -489.5 C 165.0625 -484.78125 162.695312 -482.421875 157.96875 -482.421875 Z M 183.46875 -482.421875 C 178.75 -482.421875 176.390625 -484.78125 176.390625 -489.5 C 176.390625 -494.21875 178.75 -496.578125 183.46875 -496.578125 C 188.195312 -496.578125 190.5625 -494.21875 190.5625 -489.5 C 190.5625 -484.78125 188.195312 -482.421875 183.46875 -482.421875 Z M 208.96875 -482.421875 C 204.25 -482.421875 201.890625 -484.78125 201.890625 -489.5 C 201.890625 -494.21875 204.25 -496.578125 208.96875 -496.578125 C 213.695312 -496.578125 216.0625 -494.21875 216.0625 -489.5 C 216.0625 -484.78125 213.695312 -482.421875 208.96875 -482.421875 Z M 233.765625 -482.421875 C 229.046875 -482.421875 226.6875 -484.78125 226.6875 -489.5 C 226.6875 -494.21875 229.046875 -496.578125 233.765625 -496.578125 C 238.492188 -496.578125 240.859375 -494.21875 240.859375 -489.5 C 240.859375 -484.78125 238.492188 -482.421875 233.765625 -482.421875 Z M 258.5625 -482.421875 C 253.84375 -482.421875 251.484375 -484.78125 251.484375 -489.5 C 251.484375 -494.21875 253.84375 -496.578125 258.5625 -496.578125 C 263.28125 -496.578125 265.640625 -494.21875 265.640625 -489.5 C 265.640625 -484.78125 263.28125 -482.421875 258.5625 -482.421875 Z M 284.0625 -482.421875 C 279.34375 -482.421875 276.984375 -484.78125 276.984375 -489.5 C 276.984375 -494.21875 279.34375 -496.578125 284.0625 -496.578125 C 288.789062 -496.578125 291.15625 -494.21875 291.15625 -489.5 C 291.15625 -484.78125 288.789062 -482.421875 284.0625 -482.421875 Z M 308.859375 -482.421875 C 304.140625 -482.421875 301.78125 -484.78125 301.78125 -489.5 C 301.78125 -494.21875 304.140625 -496.578125 308.859375 -496.578125 C 313.578125 -496.578125 315.9375 -494.21875 315.9375 -489.5 C 315.9375 -484.78125 313.578125 -482.421875 308.859375 -482.421875 Z M 334.359375 -482.421875 C 329.640625 -482.421875 327.28125 -484.78125 327.28125 -489.5 C 327.28125 -494.21875 329.640625 -496.578125 334.359375 -496.578125 C 339.078125 -496.578125 341.4375 -494.21875 341.4375 -489.5 C 341.4375 -484.78125 339.078125 -482.421875 334.359375 -482.421875 Z M 359.859375 -482.421875 C 355.140625 -482.421875 352.78125 -484.78125 352.78125 -489.5 C 352.78125 -494.21875 355.140625 -496.578125 359.859375 -496.578125 C 364.585938 -496.578125 366.953125 -494.21875 366.953125 -489.5 C 366.953125 -484.78125 364.585938 -482.421875 359.859375 -482.421875 Z M 384.65625 -482.421875 C 379.9375 -482.421875 377.578125 -484.78125 377.578125 -489.5 C 377.578125 -494.21875 379.9375 -496.578125 384.65625 -496.578125 C 389.375 -496.578125 391.734375 -494.21875 391.734375 -489.5 C 391.734375 -484.78125 389.375 -482.421875 384.65625 -482.421875 Z M 105.546875 -247.9375 C 100.828125 -247.9375 98.46875 -250.296875 98.46875 -255.015625 C 98.46875 -259.742188 100.828125 -262.109375 105.546875 -262.109375 C 110.273438 -262.109375 112.640625 -259.742188 112.640625 -255.015625 C 112.640625 -250.296875 110.273438 -247.9375 105.546875 -247.9375 Z M 130.34375 -247.9375 C 125.625 -247.9375 123.265625 -250.296875 123.265625 -255.015625 C 123.265625 -259.742188 125.625 -262.109375 130.34375 -262.109375 C 135.0625 -262.109375 137.421875 -259.742188 137.421875 -255.015625 C 137.421875 -250.296875 135.0625 -247.9375 130.34375 -247.9375 Z M 155.140625 -247.9375 C 150.410156 -247.9375 148.046875 -250.296875 148.046875 -255.015625 C 148.046875 -259.742188 150.410156 -262.109375 155.140625 -262.109375 C 159.859375 -262.109375 162.21875 -259.742188 162.21875 -255.015625 C 162.21875 -250.296875 159.859375 -247.9375 155.140625 -247.9375 Z M 180.640625 -247.9375 C 175.921875 -247.9375 173.5625 -250.296875 173.5625 -255.015625 C 173.5625 -259.742188 175.921875 -262.109375 180.640625 -262.109375 C 185.359375 -262.109375 187.71875 -259.742188 187.71875 -255.015625 C 187.71875 -250.296875 185.359375 -247.9375 180.640625 -247.9375 Z M 206.140625 -247.9375 C 201.421875 -247.9375 199.0625 -250.296875 199.0625 -255.015625 C 199.0625 -259.742188 201.421875 -262.109375 206.140625 -262.109375 C 210.859375 -262.109375 213.21875 -259.742188 213.21875 -255.015625 C 213.21875 -250.296875 210.859375 -247.9375 206.140625 -247.9375 Z M 230.9375 -247.9375 C 226.207031 -247.9375 223.84375 -250.296875 223.84375 -255.015625 C 223.84375 -259.742188 226.207031 -262.109375 230.9375 -262.109375 C 235.65625 -262.109375 238.015625 -259.742188 238.015625 -255.015625 C 238.015625 -250.296875 235.65625 -247.9375 230.9375 -247.9375 Z M 255.734375 -247.9375 C 251.003906 -247.9375 248.640625 -250.296875 248.640625 -255.015625 C 248.640625 -259.742188 251.003906 -262.109375 255.734375 -262.109375 C 260.453125 -262.109375 262.8125 -259.742188 262.8125 -255.015625 C 262.8125 -250.296875 260.453125 -247.9375 255.734375 -247.9375 Z M 281.234375 -247.9375 C 276.503906 -247.9375 274.140625 -250.296875 274.140625 -255.015625 C 274.140625 -259.742188 276.503906 -262.109375 281.234375 -262.109375 C 285.953125 -262.109375 288.3125 -259.742188 288.3125 -255.015625 C 288.3125 -250.296875 285.953125 -247.9375 281.234375 -247.9375 Z M 306.03125 -247.9375 C 301.300781 -247.9375 298.9375 -250.296875 298.9375 -255.015625 C 298.9375 -259.742188 301.300781 -262.109375 306.03125 -262.109375 C 310.75 -262.109375 313.109375 -259.742188 313.109375 -255.015625 C 313.109375 -250.296875 310.75 -247.9375 306.03125 -247.9375 Z M 331.53125 -247.9375 C 326.800781 -247.9375 324.4375 -250.296875 324.4375 -255.015625 C 324.4375 -259.742188 326.800781 -262.109375 331.53125 -262.109375 C 336.25 -262.109375 338.609375 -259.742188 338.609375 -255.015625 C 338.609375 -250.296875 336.25 -247.9375 331.53125 -247.9375 Z M 357.03125 -247.9375 C 352.300781 -247.9375 349.9375 -250.296875 349.9375 -255.015625 C 349.9375 -259.742188 352.300781 -262.109375 357.03125 -262.109375 C 361.75 -262.109375 364.109375 -259.742188 364.109375 -255.015625 C 364.109375 -250.296875 361.75 -247.9375 357.03125 -247.9375 Z M 357.03125 -247.9375 "/></g></g></g><path stroke-linecap="butt" transform="matrix(0, 0.749333, -0.749333, 0, 134.651215, 155.53376)" fill="none" stroke-linejoin="miter" d="M 0.00186343 2.000274 L 535.937049 2.000274 " stroke="#000000" stroke-width="4" stroke-opacity="1" stroke-miterlimit="4"/><path stroke-linecap="round" transform="matrix(0, 0.749333, -0.749333, 0, 134.651215, 155.53376)" fill="none" stroke-linejoin="round" d="M 527.935137 -3.999856 L 535.937049 2.000274 L 527.935137 8.000405 " stroke="#000000" stroke-width="4" stroke-opacity="1" stroke-miterlimit="4"/><path stroke-linecap="butt" transform="matrix(0.749333, 0, 0, 0.749333, 200.267921, 154.030162)" fill="none" stroke-linejoin="miter" d="M 0.00214953 1.99802 L 331.150958 1.99802 " stroke="#000000" stroke-width="4" stroke-opacity="1" stroke-miterlimit="4"/><path stroke-linecap="round" transform="matrix(0.749333, 0, 0, 0.749333, 200.267921, 154.030162)" fill="none" stroke-linejoin="round" d="M 323.149047 -4.00211 L 331.150958 1.99802 L 323.149047 7.99815 " stroke="#000000" stroke-width="4" stroke-opacity="1" stroke-miterlimit="4"/><path stroke-linecap="butt" transform="matrix(0.749333, 0, 0, 0.749333, 200.267921, 321.170603)" fill="none" stroke-linejoin="miter" d="M 0.00214953 1.998265 L 331.150958 1.998265 " stroke="#000000" stroke-width="4" stroke-opacity="1" stroke-miterlimit="4"/><path stroke-linecap="round" transform="matrix(0.749333, 0, 0, 0.749333, 200.267921, 321.170603)" fill="none" stroke-linejoin="round" d="M 323.149047 -4.001865 L 331.150958 1.998265 L 323.149047 7.998396 " stroke="#000000" stroke-width="4" stroke-opacity="1" stroke-miterlimit="4"/></svg>