<svg xmlns="http://www.w3.org/2000/svg" xmlns:xlink="http://www.w3.org/1999/xlink" width="800" zoomAndPan="magnify" viewBox="0 0 600 899.99999" height="1200" preserveAspectRatio="xMidYMid meet" version="1.0"><defs><g/><clipPath id="b39d3b2629"><path d="M 172.546875 260.261719 L 213.789062 260.261719 L 213.789062 287.054688 L 172.546875 287.054688 Z M 172.546875 260.261719 " clip-rule="nonzero"/></clipPath><clipPath id="63b5481531"><path d="M 241.546875 252.941406 L 268.339844 252.941406 L 268.339844 294.183594 L 241.546875 294.183594 Z M 241.546875 252.941406 " clip-rule="nonzero"/></clipPath><clipPath id="239228c7f6"><path d="M 241.546875 471.097656 L 268.339844 471.097656 L 268.339844 512.34375 L 241.546875 512.34375 Z M 241.546875 471.097656 " clip-rule="nonzero"/></clipPath></defs><path stroke-linecap="butt" transform="matrix(0.75, 0, 0, 0.75, 87.987303, -15.449228)" fill="none" stroke-linejoin="miter" d="M 143.923186 1042.104234 C 123.131519 1042.104234 106.839851 1036.208401 95.048184 1024.421942 C 83.261725 1012.630274 77.365891 995.687565 77.365891 973.583397 L 77.365891 393.223992 C 77.365891 371.119824 83.261725 354.171906 95.048184 342.380239 C 106.839851 330.59378 123.78256 324.697947 145.886728 324.697947 L 496.855496 324.697947 C 514.376331 324.697947 527.47529 329.119822 536.152374 337.963572 C 544.829457 346.640656 549.167999 359.000032 549.167999 375.046908 C 549.167999 391.911492 544.829457 404.848992 536.152374 413.854201 C 527.47529 422.85941 514.376331 427.35941 496.855496 427.35941 L 206.308606 427.35941 L 206.308606 627.526087 L 475.730495 627.526087 C 492.600288 627.526087 505.53258 631.947963 514.537789 640.791713 C 523.542998 649.468797 528.048206 661.828173 528.048206 677.875048 C 528.048206 694.578174 523.542998 707.510467 514.537789 716.682342 C 505.53258 725.687551 492.600288 730.187551 475.730495 730.187551 L 206.308606 730.187551 L 206.308606 973.583397 C 206.308606 1019.265691 185.51173 1042.104234 143.923186 1042.104234 Z M 143.923186 1042.104234 " stroke="#1f8785" stroke-width="40.239601" stroke-opacity="1" stroke-miterlimit="4"/><g fill="#ffffff" fill-opacity="1"><g transform="translate(87.987303, 760.050731)"><g><path d="M 107.890625 6.03125 C 92.296875 6.03125 80.097656 1.628906 71.296875 -7.171875 C 62.492188 -15.972656 58.09375 -28.671875 58.09375 -45.265625 L 58.09375 -480.609375 C 58.09375 -497.210938 62.492188 -509.914062 71.296875 -518.71875 C 80.097656 -527.519531 92.800781 -531.921875 109.40625 -531.921875 L 372.71875 -531.921875 C 385.800781 -531.921875 395.609375 -528.648438 402.140625 -522.109375 C 408.679688 -515.578125 411.953125 -506.273438 411.953125 -494.203125 C 411.953125 -481.617188 408.679688 -471.929688 402.140625 -465.140625 C 395.609375 -458.359375 385.800781 -454.96875 372.71875 -454.96875 L 154.671875 -454.96875 L 154.671875 -304.8125 L 356.875 -304.8125 C 369.445312 -304.8125 379.128906 -301.539062 385.921875 -295 C 392.710938 -288.46875 396.109375 -279.164062 396.109375 -267.09375 C 396.109375 -254.519531 392.710938 -244.835938 385.921875 -238.046875 C 379.128906 -231.253906 369.445312 -227.859375 356.875 -227.859375 L 154.671875 -227.859375 L 154.671875 -45.265625 C 154.671875 -11.066406 139.078125 6.03125 107.890625 6.03125 Z M 107.890625 6.03125 "/></g></g></g><g clip-path="url(#b39d3b2629)"><path fill="#1f8785" d="M 194.648438 286.308594 L 213.308594 263.617188 C 214.714844 261.910156 212.78125 259.5 210.808594 260.5 L 194 269.039062 C 193.417969 269.332031 192.730469 269.332031 192.148438 269.039062 L 175.335938 260.5 C 173.363281 259.496094 171.429688 261.90625 172.835938 263.617188 L 191.496094 286.308594 C 192.3125 287.304688 193.832031 287.304688 194.648438 286.308594 " fill-opacity="1" fill-rule="nonzero"/></g><path fill="#1f8785" d="M 187.074219 724.445312 L 187.074219 688.445312 L 199.074219 688.445312 L 199.074219 724.445312 M 187.074219 676.445312 L 187.074219 640.445312 L 199.074219 640.445312 L 199.074219 676.445312 M 187.074219 628.445312 L 187.074219 592.445312 L 199.074219 592.445312 L 199.074219 628.445312 M 187.074219 580.445312 L 187.074219 544.445312 L 199.074219 544.445312 L 199.074219 580.445312 M 187.074219 532.445312 L 187.074219 496.445312 L 199.074219 496.445312 L 199.074219 532.445312 M 187.074219 484.445312 L 187.074219 448.445312 L 199.074219 448.445312 L 199.074219 484.445312 M 187.074219 436.445312 L 187.074219 400.445312 L 199.074219 400.445312 L 199.074219 436.445312 M 187.074219 388.445312 L 187.074219 352.445312 L 199.074219 352.445312 L 199.074219 388.445312 M 187.074219 340.445312 L 187.074219 304.445312 L 199.074219 304.445312 L 199.074219 340.445312 " fill-opacity="1" fill-rule="nonzero"/><g clip-path="url(#63b5481531)"><path fill="#1f8785" d="M 267.59375 272.082031 L 244.902344 253.421875 C 243.191406 252.015625 240.78125 253.949219 241.78125 255.921875 L 250.320312 272.730469 C 250.617188 273.3125 250.617188 274 250.320312 274.582031 L 241.78125 291.394531 C 240.78125 293.367188 243.191406 295.300781 244.898438 293.894531 L 267.59375 275.234375 C 268.585938 274.417969 268.585938 272.898438 267.59375 272.082031 " fill-opacity="1" fill-rule="nonzero"/></g><g clip-path="url(#239228c7f6)"><path fill="#1f8785" d="M 267.59375 490.238281 L 244.902344 471.578125 C 243.191406 470.175781 240.78125 472.109375 241.78125 474.082031 L 250.320312 490.890625 C 250.617188 491.472656 250.617188 492.160156 250.320312 492.742188 L 241.78125 509.554688 C 240.78125 511.527344 243.191406 513.460938 244.898438 512.054688 L 267.59375 493.394531 C 268.585938 492.578125 268.585938 491.058594 267.59375 490.238281 " fill-opacity="1" fill-rule="nonzero"/></g><path fill="#1f8785" d="M 461.28125 279.664062 L 425.28125 279.664062 L 425.28125 267.664062 L 461.28125 267.664062 M 413.28125 279.664062 L 377.28125 279.664062 L 377.28125 267.664062 L 413.28125 267.664062 M 365.28125 279.664062 L 329.28125 279.664062 L 329.28125 267.664062 L 365.28125 267.664062 M 317.28125 279.664062 L 284.71875 279.664062 L 284.71875 267.664062 L 317.28125 267.664062 " fill-opacity="1" fill-rule="nonzero"/><path fill="#1f8785" d="M 461.28125 497.820312 L 425.28125 497.820312 L 425.28125 485.820312 L 461.28125 485.820312 M 413.28125 497.820312 L 377.28125 497.820312 L 377.28125 485.820312 L 413.28125 485.820312 M 365.28125 497.820312 L 329.28125 497.820312 L 329.28125 485.820312 L 365.28125 485.820312 M 317.28125 497.820312 L 284.71875 497.820312 L 284.71875 485.820312 L 317.28125 485.820312 " fill-opacity="1" fill-rule="nonzero"/></svg>