<svg xmlns="http://www.w3.org/2000/svg" xmlns:xlink="http://www.w3.org/1999/xlink" width="800" zoomAndPan="magnify" viewBox="0 0 600 899.99999" height="1200" preserveAspectRatio="xMidYMid meet" version="1.0"><defs><g/><clipPath id="8fcaa61ba9"><path d="M 467 288 L 501 288 L 501 326 L 467 326 Z M 467 288 " clip-rule="nonzero"/></clipPath><clipPath id="efd9c06741"><path d="M 482.164062 326.542969 L 458.300781 313.914062 L 477.601562 277.457031 L 501.464844 290.089844 Z M 482.164062 326.542969 " clip-rule="nonzero"/></clipPath><clipPath id="6c37cef64f"><path d="M 482.164062 326.542969 L 458.300781 313.914062 L 477.601562 277.457031 L 501.464844 290.089844 Z M 482.164062 326.542969 " clip-rule="nonzero"/></clipPath><clipPath id="380b94eeb0"><path d="M 482.167969 326.539062 L 458.488281 314.003906 L 477.875 277.382812 L 501.554688 289.917969 Z M 482.167969 326.539062 " clip-rule="nonzero"/></clipPath><clipPath id="720c994d6e"><path d="M 459.304688 668.511719 L 500.546875 668.511719 L 500.546875 695.304688 L 459.304688 695.304688 Z M 459.304688 668.511719 " clip-rule="nonzero"/></clipPath></defs><path stroke-linecap="butt" transform="matrix(0.75, 0, 0, 0.75, 22.344729, -15.449217)" fill="none" stroke-linejoin="miter" d="M 418.509134 1044.067761 C 340.076838 1044.067761 273.847668 1029.333385 219.816415 999.859426 C 165.779954 970.390674 124.686202 928.474005 96.519534 874.114627 C 68.358074 819.750041 54.279948 755.322954 54.279948 680.822951 C 54.279948 624.500031 62.467449 573.906278 78.837241 529.041693 C 95.3737 484.01044 119.201827 445.614605 150.311203 413.854187 C 181.582038 381.921893 219.649748 357.447934 264.514334 340.416683 C 309.540378 323.223973 360.545589 314.630223 417.524759 314.630223 C 455.019552 314.630223 492.681013 319.213557 530.503931 328.380224 C 568.488308 337.385433 604.264352 352.6146 637.832062 374.062518 C 649.128938 381.43231 656.660188 390.520852 660.425813 401.328144 C 664.191438 411.96877 664.68623 422.859395 661.899772 433.989604 C 659.27998 444.963563 654.285188 454.541689 646.920604 462.729189 C 639.550812 470.750023 630.300812 475.744815 619.165394 477.708357 C 608.029977 479.671898 595.83206 476.973982 582.571642 469.604189 C 557.029974 454.869814 531.154973 444.145855 504.962263 437.432313 C 478.764345 430.718771 449.618511 427.359396 417.524759 427.359396 C 367.915381 427.359396 325.998712 437.265646 291.774752 457.078147 C 257.556 476.890648 231.847666 505.625025 214.654957 543.286485 C 197.628914 580.781279 189.113289 626.625031 189.113289 680.822951 C 189.113289 763.343788 208.842456 826.057333 248.306 868.953169 C 287.931002 911.854213 346.707047 933.30213 424.649759 933.30213 C 451.337261 933.30213 478.43622 930.682339 505.94143 925.442755 C 533.451848 920.041713 560.300808 912.671921 586.498726 903.338587 L 561.446641 960.562549 L 561.446641 746.401079 L 450.681011 746.401079 C 433.983093 746.401079 421.045592 742.057329 411.873717 733.380245 C 402.868508 724.541703 398.368508 712.750036 398.368508 698.01566 C 398.368508 682.625034 402.868508 670.9167 411.873717 662.895866 C 421.045592 654.708366 433.983093 650.614616 450.681011 650.614616 L 616.707061 650.614616 C 633.410187 650.614616 646.264354 655.197949 655.269563 664.369825 C 664.43623 673.375033 669.024772 686.223992 669.024772 702.927118 L 669.024772 947.546923 C 669.024772 962.281299 666.15498 974.729216 660.425813 984.880258 C 654.696646 994.869842 645.446646 1002.151092 632.675812 1006.739634 C 603.201852 1017.546926 569.306017 1026.468802 530.993515 1033.510469 C 492.842471 1040.546928 455.347677 1044.067761 418.509134 1044.067761 Z M 418.509134 1044.067761 " stroke="#1f8785" stroke-width="40.239601" stroke-opacity="1" stroke-miterlimit="4"/><g fill="#ffffff" fill-opacity="1"><g transform="translate(22.344729, 760.050742)"><g><path d="M 313.875 7.546875 C 255.019531 7.546875 205.347656 -3.515625 164.859375 -25.640625 C 124.367188 -47.773438 93.5625 -79.210938 72.4375 -119.953125 C 51.3125 -160.703125 40.75 -208.992188 40.75 -264.828125 C 40.75 -307.078125 46.910156 -345.050781 59.234375 -378.75 C 71.554688 -412.457031 89.410156 -441.253906 112.796875 -465.140625 C 136.179688 -489.035156 164.722656 -507.394531 198.421875 -520.21875 C 232.128906 -533.050781 270.363281 -539.46875 313.125 -539.46875 C 341.289062 -539.46875 369.582031 -536.070312 398 -529.28125 C 426.414062 -522.488281 453.203125 -511.046875 478.359375 -494.953125 C 486.898438 -489.421875 492.554688 -482.628906 495.328125 -474.578125 C 498.097656 -466.535156 498.472656 -458.363281 496.453125 -450.0625 C 494.441406 -441.757812 490.671875 -434.585938 485.140625 -428.546875 C 479.609375 -422.515625 472.691406 -418.742188 464.390625 -417.234375 C 456.097656 -415.722656 446.921875 -417.738281 436.859375 -423.28125 C 417.742188 -434.34375 398.375 -442.390625 378.75 -447.421875 C 359.132812 -452.453125 337.257812 -454.96875 313.125 -454.96875 C 275.894531 -454.96875 244.453125 -447.546875 218.796875 -432.703125 C 193.148438 -417.867188 173.910156 -396.363281 161.078125 -368.1875 C 148.253906 -340.019531 141.84375 -305.566406 141.84375 -264.828125 C 141.84375 -202.960938 156.679688 -155.929688 186.359375 -123.734375 C 216.035156 -91.546875 260.050781 -75.453125 318.40625 -75.453125 C 338.519531 -75.453125 358.890625 -77.460938 379.515625 -81.484375 C 400.140625 -85.503906 420.257812 -91.035156 439.875 -98.078125 L 421.015625 -55.078125 L 421.015625 -215.78125 L 338.015625 -215.78125 C 325.441406 -215.78125 315.757812 -219.050781 308.96875 -225.59375 C 302.175781 -232.132812 298.78125 -240.9375 298.78125 -252 C 298.78125 -263.570312 302.175781 -272.375 308.96875 -278.40625 C 315.757812 -284.445312 325.441406 -287.46875 338.015625 -287.46875 L 462.515625 -287.46875 C 475.085938 -287.46875 484.769531 -284.070312 491.5625 -277.28125 C 498.351562 -270.488281 501.75 -260.804688 501.75 -248.234375 L 501.75 -64.890625 C 501.75 -53.816406 499.609375 -44.507812 495.328125 -36.96875 C 491.054688 -29.425781 484.140625 -23.894531 474.578125 -20.375 C 452.441406 -12.320312 427.039062 -5.65625 398.375 -0.375 C 369.707031 4.90625 341.539062 7.546875 313.875 7.546875 Z M 313.875 7.546875 "/></g></g></g><g clip-path="url(#8fcaa61ba9)"><g clip-path="url(#efd9c06741)"><g clip-path="url(#6c37cef64f)"><g clip-path="url(#380b94eeb0)"><path fill="#1f8785" d="M 468.105469 297.4375 L 479.429688 324.542969 C 480.28125 326.585938 483.316406 326.003906 483.355469 323.792969 L 483.671875 304.941406 C 483.683594 304.289062 484.003906 303.683594 484.539062 303.304688 L 499.949219 292.441406 C 501.757812 291.167969 500.535156 288.332031 498.367188 288.773438 L 469.578125 294.648438 C 468.320312 294.90625 467.609375 296.25 468.105469 297.4375 " fill-opacity="1" fill-rule="nonzero"/></g></g></g></g><path fill="#1f8785" d="M 111.066406 448.539062 C 114.140625 436.265625 117.558594 424.578125 121.316406 413.480469 L 132.679688 417.328125 C 129.027344 428.121094 125.703125 439.496094 122.707031 451.453125 Z M 125.390625 402.035156 C 129.859375 390.089844 134.757812 378.878906 140.082031 368.398438 L 150.78125 373.835938 C 145.65625 383.914062 140.941406 394.71875 136.628906 406.242188 Z M 145.875 357.59375 C 152.164062 346.460938 158.992188 336.242188 166.355469 326.9375 L 175.765625 334.382812 C 168.789062 343.199219 162.308594 352.90625 156.320312 363.5 Z M 174.300781 317.480469 C 182.769531 308 191.878906 299.617188 201.625 292.332031 L 208.808594 301.945312 C 199.703125 308.75 191.183594 316.589844 183.25 325.472656 Z M 211.835938 285.253906 C 222.273438 278.558594 233.371094 273.023438 245.128906 268.648438 L 249.3125 279.894531 C 238.359375 283.96875 228.027344 289.121094 218.316406 295.351562 Z M 256.894531 264.726562 C 268.425781 261.308594 280.542969 258.929688 293.246094 257.597656 L 294.5 269.53125 C 282.527344 270.789062 271.128906 273.019531 260.304688 276.230469 Z M 305.53125 256.640625 C 317.320312 256.035156 329.582031 256.277344 342.320312 257.367188 L 341.296875 269.324219 C 329.105469 268.28125 317.386719 268.046875 306.148438 268.625 Z M 354.460938 258.644531 C 366.097656 260.09375 378.113281 262.21875 390.511719 265.019531 L 387.867188 276.722656 C 375.855469 274.011719 364.226562 271.953125 352.976562 270.554688 Z M 402.320312 267.859375 C 413.667969 270.757812 425.324219 274.199219 437.285156 278.183594 L 433.492188 289.570312 C 421.800781 285.671875 410.421875 282.3125 399.351562 279.488281 Z M 448.714844 282.125 L 454.53125 284.230469 L 450.445312 295.515625 L 444.632812 293.410156 Z M 448.714844 282.125 " fill-opacity="1" fill-rule="nonzero"/><path fill="#1f8785" d="M 435.945312 726.3125 C 423.582031 728.367188 411.570312 730.054688 399.914062 731.371094 L 398.566406 719.449219 C 410.015625 718.152344 421.820312 716.496094 433.976562 714.472656 Z M 387.84375 732.617188 C 375.308594 733.78125 363.199219 734.5 351.511719 734.773438 L 351.234375 722.777344 C 362.640625 722.511719 374.476562 721.808594 386.734375 720.667969 Z M 339.410156 734.898438 C 326.707031 734.855469 314.53125 734.257812 302.882812 733.109375 L 304.0625 721.167969 C 315.332031 722.28125 327.128906 722.855469 339.449219 722.898438 Z M 290.726562 731.679688 C 278.050781 729.949219 266.035156 727.511719 254.679688 724.378906 L 257.871094 712.8125 C 268.710938 715.804688 280.203125 718.128906 292.351562 719.792969 Z M 242.921875 720.804688 C 230.765625 716.757812 219.4375 711.832031 208.929688 706.039062 L 214.726562 695.53125 C 224.589844 700.972656 235.253906 705.601562 246.714844 709.421875 Z M 198.277344 699.679688 C 187.691406 692.855469 178.050781 685.046875 169.355469 676.25 L 177.890625 667.8125 C 185.96875 675.984375 194.929688 683.246094 204.777344 689.59375 Z M 160.945312 667.089844 C 153.03125 657.804688 146.035156 647.578125 139.957031 636.40625 L 150.5 630.671875 C 156.175781 641.109375 162.703125 650.65625 170.078125 659.304688 Z M 134.386719 625.34375 C 129.378906 614.582031 125.140625 603.039062 121.675781 590.714844 L 133.226562 587.464844 C 136.515625 599.167969 140.53125 610.105469 145.265625 620.277344 Z M 118.625 578.832031 C 115.96875 567.402344 113.921875 555.347656 112.492188 542.667969 L 124.414062 541.320312 C 125.796875 553.539062 127.761719 565.136719 130.316406 576.113281 Z M 111.320312 530.542969 C 110.386719 518.890625 109.9375 506.738281 109.976562 494.085938 L 121.976562 494.125 C 121.941406 506.441406 122.375 518.261719 123.285156 529.585938 Z M 110.164062 481.894531 C 110.3125 476.269531 110.554688 470.546875 110.890625 464.734375 L 122.871094 465.421875 C 122.542969 471.113281 122.304688 476.710938 122.15625 482.214844 Z M 110.164062 481.894531 " fill-opacity="1" fill-rule="nonzero"/><g clip-path="url(#720c994d6e)"><path fill="#1f8785" d="M 478.445312 669.257812 L 459.785156 691.949219 C 458.378906 693.660156 460.316406 696.070312 462.289062 695.066406 L 479.097656 686.527344 C 479.679688 686.234375 480.363281 686.234375 480.945312 686.527344 L 497.761719 695.066406 C 499.734375 696.070312 501.664062 693.660156 500.261719 691.949219 L 481.601562 669.257812 C 480.785156 668.265625 479.261719 668.265625 478.445312 669.257812 " fill-opacity="1" fill-rule="nonzero"/></g><path fill="#1f8785" d="M 474.023438 668.515625 L 474.023438 632.515625 L 486.023438 632.515625 L 486.023438 668.515625 M 474.023438 620.515625 L 474.023438 584.515625 L 486.023438 584.515625 L 486.023438 620.515625 M 474.023438 572.515625 L 474.023438 536.515625 L 486.023438 536.515625 L 486.023438 572.515625 M 474.023438 524.515625 L 474.023438 512.550781 L 486.023438 512.550781 L 486.023438 524.515625 " fill-opacity="1" fill-rule="nonzero"/><path fill="#1f8785" d="M 337.988281 506.550781 L 373.988281 506.550781 L 373.988281 518.550781 L 337.988281 518.550781 M 385.988281 506.550781 L 421.988281 506.550781 L 421.988281 518.550781 L 385.988281 518.550781 M 433.988281 506.550781 L 459.296875 506.550781 L 459.296875 518.550781 L 433.988281 518.550781 " fill-opacity="1" fill-rule="nonzero"/></svg>