<svg xmlns="http://www.w3.org/2000/svg" xmlns:xlink="http://www.w3.org/1999/xlink" width="794" zoomAndPan="magnify" viewBox="0 0 594.95996 842.24997" height="1123" preserveAspectRatio="xMidYMid meet" version="1.0"><defs><clipPath id="beb63cc2e6"><path d="M 59.71875 116.546875 L 535.546875 116.546875 L 535.546875 724.253906 L 59.71875 724.253906 Z M 59.71875 116.546875 " clip-rule="nonzero"/></clipPath></defs><path fill="#ffffff" d="M 305.445312 718.835938 C 256.144531 718.835938 212.636719 706.253906 176.125 681.441406 C 139.832031 656.78125 111.757812 621.324219 92.675781 576.050781 C 74.402344 532.738281 65.136719 480.738281 65.136719 421.503906 C 65.136719 361.835938 74.386719 309.378906 92.621094 265.601562 C 111.695312 219.796875 139.792969 184.042969 176.125 159.34375 C 212.640625 134.523438 256.148438 121.941406 305.445312 121.941406 C 350.71875 121.941406 390.808594 132.503906 424.582031 153.328125 C 444.234375 165.460938 462.445312 181.152344 478.707031 199.980469 C 489.855469 212.890625 494.875 230.046875 492.484375 247.054688 C 490.058594 264.339844 480.292969 279.734375 465.695312 289.289062 C 455.925781 295.6875 444.605469 299.066406 432.957031 299.066406 C 415.148438 299.066406 398.207031 291.226562 386.476562 277.558594 C 364.726562 252.214844 338.222656 239.890625 305.445312 239.890625 C 269.917969 239.890625 244.167969 253.289062 224.421875 282.054688 C 202.464844 314.027344 191.332031 360.695312 191.332031 420.761719 C 191.332031 480.292969 202.558594 526.667969 224.699219 558.597656 C 244.695312 587.449219 270.355469 600.886719 305.445312 600.886719 C 325.132812 600.886719 342.160156 596.394531 357.5 587.160156 C 372.519531 578.121094 384.222656 564.746094 393.269531 546.273438 C 398.945312 534.691406 402.972656 521.105469 405.292969 505.722656 L 344.820312 505.722656 C 313.511719 505.722656 288.042969 480.265625 288.042969 448.976562 C 288.042969 417.6875 313.511719 392.230469 344.820312 392.230469 L 473.359375 392.230469 C 504.671875 392.230469 530.140625 417.6875 530.140625 448.976562 L 530.140625 471.996094 C 530.140625 523.207031 520.648438 567.722656 501.925781 604.304688 C 482.539062 642.164062 455.070312 671.148438 420.273438 690.460938 C 386.351562 709.289062 347.714844 718.835938 305.445312 718.835938 Z M 305.445312 718.835938 " fill-opacity="1" fill-rule="nonzero"/><g clip-path="url(#beb63cc2e6)"><path fill="#000000" d="M 305.445312 121.941406 C 350.71875 121.941406 390.808594 132.503906 424.582031 153.328125 C 444.234375 165.460938 462.445312 181.152344 478.707031 199.980469 C 489.855469 212.890625 494.875 230.046875 492.484375 247.054688 C 490.058594 264.339844 480.292969 279.734375 465.695312 289.289062 C 455.925781 295.6875 444.605469 299.066406 432.957031 299.066406 C 415.148438 299.066406 398.207031 291.226562 386.476562 277.558594 C 364.726562 252.214844 338.222656 239.890625 305.445312 239.890625 C 269.917969 239.890625 244.167969 253.289062 224.421875 282.054688 C 202.464844 314.027344 191.332031 360.695312 191.332031 420.761719 C 191.332031 480.292969 202.558594 526.667969 224.699219 558.597656 C 244.695312 587.449219 270.355469 600.886719 305.445312 600.886719 C 325.132812 600.886719 342.160156 596.394531 357.5 587.160156 C 372.519531 578.121094 384.21875 564.746094 393.269531 546.273438 C 398.941406 534.691406 402.972656 521.105469 405.292969 505.722656 L 344.816406 505.722656 C 313.511719 505.722656 288.042969 480.265625 288.042969 448.976562 C 288.042969 417.6875 313.511719 392.230469 344.816406 392.230469 L 473.359375 392.230469 C 504.671875 392.230469 530.140625 417.6875 530.140625 448.976562 L 530.140625 471.996094 C 530.140625 523.207031 520.648438 567.722656 501.921875 604.304688 C 482.539062 642.164062 455.070312 671.148438 420.273438 690.460938 C 386.351562 709.289062 347.714844 718.835938 305.441406 718.835938 C 256.144531 718.835938 212.632812 706.253906 176.121094 681.441406 C 139.832031 656.78125 111.757812 621.324219 92.675781 576.050781 C 74.402344 532.738281 65.136719 480.738281 65.136719 421.503906 C 65.136719 361.835938 74.386719 309.378906 92.621094 265.601562 C 111.695312 219.796875 139.792969 184.042969 176.125 159.34375 C 212.640625 134.523438 256.148438 121.941406 305.445312 121.941406 M 305.445312 116.546875 C 255.046875 116.546875 210.515625 129.445312 173.085938 154.878906 C 135.871094 180.183594 107.121094 216.738281 87.636719 263.527344 C 69.125 307.972656 59.738281 361.125 59.738281 421.503906 C 59.738281 481.460938 69.144531 534.164062 87.699219 578.148438 C 107.195312 624.398438 135.921875 660.652344 173.089844 685.902344 C 210.511719 711.335938 255.042969 724.234375 305.445312 724.234375 C 348.644531 724.234375 388.160156 714.457031 422.894531 695.179688 C 458.644531 675.339844 486.847656 645.59375 506.730469 606.765625 C 525.847656 569.417969 535.539062 524.074219 535.539062 471.996094 L 535.539062 448.976562 C 535.539062 414.710938 507.644531 386.835938 473.359375 386.835938 L 344.820312 386.835938 C 310.535156 386.835938 282.644531 414.710938 282.644531 448.976562 C 282.644531 483.242188 310.535156 511.121094 344.820312 511.121094 L 398.902344 511.121094 C 396.585938 523.40625 393.070312 534.410156 388.417969 543.898438 C 379.84375 561.410156 368.816406 574.050781 354.714844 582.539062 C 340.238281 591.253906 324.121094 595.488281 305.445312 595.488281 C 272.28125 595.488281 248.035156 582.792969 229.140625 555.527344 C 207.632812 524.515625 196.730469 479.171875 196.730469 420.761719 C 196.730469 361.804688 207.542969 316.164062 228.875 285.109375 C 247.523438 257.941406 271.855469 245.289062 305.445312 245.289062 C 336.546875 245.289062 361.714844 256.996094 382.378906 281.070312 C 395.132812 295.9375 413.566406 304.464844 432.957031 304.464844 C 445.65625 304.464844 458.003906 300.777344 468.65625 293.804688 C 484.554688 283.394531 495.191406 266.625 497.832031 247.804688 C 500.4375 229.253906 494.957031 210.539062 482.792969 196.457031 C 466.171875 177.214844 447.542969 161.160156 427.417969 148.738281 C 392.777344 127.375 351.738281 116.546875 305.445312 116.546875 Z M 305.445312 116.546875 " fill-opacity="1" fill-rule="nonzero"/></g><path fill="#58595b" d="M 304.242188 660.671875 C 301.773438 660.671875 299.292969 660.636719 296.867188 660.566406 L 296.949219 657.867188 C 300.472656 657.972656 304.109375 658.003906 307.683594 657.949219 L 307.726562 660.644531 C 306.570312 660.664062 305.410156 660.671875 304.242188 660.671875 Z M 318.589844 660.203125 L 318.410156 657.511719 C 321.992188 657.273438 325.589844 656.941406 329.097656 656.519531 L 329.417969 659.199219 C 325.863281 659.625 322.21875 659.960938 318.589844 660.203125 Z M 286.015625 659.996094 C 282.371094 659.71875 278.730469 659.351562 275.203125 658.902344 L 275.542969 656.226562 C 279.027344 656.667969 282.617188 657.03125 286.222656 657.304688 Z M 340.175781 657.605469 L 339.707031 654.949219 C 343.234375 654.328125 346.765625 653.597656 350.207031 652.78125 L 350.832031 655.410156 C 347.335938 656.234375 343.753906 656.976562 340.175781 657.605469 Z M 264.457031 657.246094 C 260.847656 656.585938 257.269531 655.824219 253.816406 654.972656 L 254.460938 652.355469 C 257.863281 653.191406 261.386719 653.941406 264.941406 654.59375 Z M 361.335938 652.582031 L 360.558594 650 C 363.976562 648.96875 367.394531 647.824219 370.71875 646.59375 L 371.65625 649.125 C 368.28125 650.375 364.808594 651.535156 361.335938 652.582031 Z M 243.335938 652.035156 C 239.835938 650.925781 236.382812 649.699219 233.074219 648.382812 L 234.074219 645.875 C 237.320312 647.167969 240.710938 648.375 244.152344 649.464844 Z M 381.734375 645.03125 L 380.640625 642.566406 C 383.894531 641.125 387.140625 639.558594 390.289062 637.917969 L 391.539062 640.308594 C 388.339844 641.980469 385.042969 643.566406 381.734375 645.03125 Z M 223.113281 643.960938 C 219.828125 642.347656 216.601562 640.589844 213.535156 638.742188 L 214.925781 636.433594 C 217.929688 638.238281 221.085938 639.957031 224.304688 641.542969 Z M 401.007812 634.875 L 399.542969 632.609375 C 402.507812 630.699219 405.398438 628.589844 408.136719 626.347656 L 409.847656 628.433594 C 407.03125 630.742188 404.058594 632.910156 401.007812 634.875 Z M 204.441406 632.703125 C 201.992188 630.914062 199.59375 629.011719 197.3125 627.054688 C 196.851562 626.660156 196.394531 626.257812 195.9375 625.855469 L 197.722656 623.835938 C 198.171875 624.226562 198.621094 624.621094 199.074219 625.007812 C 201.300781 626.921875 203.644531 628.777344 206.035156 630.527344 Z M 417.910156 621.050781 L 415.984375 619.164062 C 418.390625 616.710938 420.777344 614.03125 423.074219 611.199219 L 425.167969 612.898438 C 422.820312 615.796875 420.375 618.539062 417.910156 621.050781 Z M 188.050781 618.339844 C 185.554688 615.773438 183.097656 613.058594 180.742188 610.265625 L 182.808594 608.527344 C 185.121094 611.273438 187.535156 613.941406 189.984375 616.460938 Z M 431.6875 604.167969 L 429.464844 602.636719 C 431.40625 599.828125 433.308594 596.886719 435.285156 593.640625 L 437.589844 595.042969 C 435.589844 598.332031 433.65625 601.316406 431.6875 604.167969 Z M 174.011719 601.710938 C 171.898438 598.832031 169.824219 595.816406 167.847656 592.75 L 170.121094 591.289062 C 172.066406 594.3125 174.105469 597.28125 176.1875 600.113281 Z M 443.035156 585.664062 L 440.671875 584.351562 C 442.261719 581.492188 443.929688 578.394531 445.773438 574.878906 L 448.164062 576.128906 C 446.3125 579.667969 444.632812 582.785156 443.035156 585.664062 Z M 162.238281 583.433594 C 160.488281 580.324219 158.78125 577.089844 157.171875 573.824219 L 159.59375 572.628906 C 161.179688 575.851562 162.863281 579.042969 164.59375 582.109375 Z M 453.113281 566.496094 L 450.6875 565.308594 C 452.230469 562.15625 453.683594 558.871094 455.007812 555.539062 L 457.515625 556.535156 C 456.167969 559.929688 454.6875 563.28125 453.113281 566.496094 Z M 152.628906 563.953125 C 151.214844 560.65625 149.863281 557.265625 148.605469 553.867188 L 151.140625 552.929688 C 152.378906 556.285156 153.714844 559.636719 155.109375 562.890625 Z M 461.167969 546.28125 L 458.59375 545.46875 C 459.640625 542.15625 460.613281 538.6875 461.488281 535.164062 L 464.109375 535.8125 C 463.222656 539.390625 462.230469 542.914062 461.167969 546.28125 Z M 145.089844 543.605469 C 143.988281 540.191406 142.914062 536.710938 141.898438 533.257812 L 144.488281 532.496094 C 145.496094 535.925781 146.5625 539.386719 147.660156 542.777344 Z M 466.414062 525.191406 L 463.757812 524.691406 C 464.402344 521.292969 464.984375 517.730469 465.492188 514.105469 L 468.164062 514.480469 C 467.652344 518.144531 467.0625 521.75 466.414062 525.191406 Z M 138.972656 522.828125 C 138.050781 519.363281 137.15625 515.832031 136.316406 512.328125 L 138.941406 511.699219 C 139.773438 515.179688 140.664062 518.691406 141.582031 522.132812 Z M 469.445312 503.710938 L 466.757812 503.445312 C 467.097656 500.023438 467.394531 496.421875 467.640625 492.734375 L 470.335938 492.914062 C 470.089844 496.628906 469.789062 500.261719 469.445312 503.710938 Z M 133.925781 501.765625 C 133.175781 498.25 132.460938 494.679688 131.800781 491.144531 L 134.453125 490.648438 C 135.113281 494.160156 135.820312 497.710938 136.566406 501.203125 Z M 470.902344 482.101562 L 468.207031 481.992188 C 468.339844 478.578125 468.445312 474.957031 468.515625 471.234375 L 471.214844 471.285156 C 471.144531 475.027344 471.039062 478.664062 470.902344 482.101562 Z M 129.945312 480.476562 C 129.371094 476.921875 128.839844 473.320312 128.359375 469.765625 L 131.035156 469.40625 C 131.511719 472.9375 132.042969 476.515625 132.609375 480.046875 Z M 127.042969 459.015625 C 126.652344 455.445312 126.304688 451.816406 126.007812 448.238281 L 128.695312 448.015625 C 128.992188 451.570312 129.339844 455.175781 129.730469 458.722656 Z M 125.25 437.4375 C 125.042969 433.847656 124.882812 430.207031 124.773438 426.621094 L 127.472656 426.539062 C 127.582031 430.101562 127.738281 433.71875 127.941406 437.285156 Z M 124.585938 415.792969 L 124.582031 414.300781 C 124.582031 411.195312 124.621094 408.054688 124.691406 404.964844 L 127.390625 405.03125 C 127.320312 408.097656 127.28125 411.214844 127.28125 414.300781 L 127.285156 415.785156 Z M 127.796875 394.28125 L 125.101562 394.140625 C 125.289062 390.542969 125.527344 386.90625 125.816406 383.335938 L 128.507812 383.550781 C 128.222656 387.097656 127.984375 390.707031 127.796875 394.28125 Z M 129.53125 372.847656 L 126.847656 372.550781 C 127.242188 368.964844 127.699219 365.347656 128.203125 361.804688 L 130.875 362.179688 C 130.378906 365.699219 129.925781 369.289062 129.53125 372.847656 Z M 132.546875 351.5625 L 129.886719 351.101562 C 130.507812 347.539062 131.1875 343.957031 131.914062 340.453125 L 134.558594 341.003906 C 133.835938 344.476562 133.160156 348.03125 132.546875 351.5625 Z M 136.914062 330.515625 L 134.289062 329.882812 C 135.140625 326.371094 136.058594 322.84375 137.023438 319.394531 L 139.625 320.117188 C 138.667969 323.539062 137.757812 327.035156 136.914062 330.515625 Z M 142.699219 309.824219 L 140.125 309.003906 C 141.222656 305.5625 142.390625 302.105469 143.605469 298.734375 L 146.144531 299.648438 C 144.945312 302.988281 143.785156 306.410156 142.699219 309.824219 Z M 149.972656 289.613281 L 147.46875 288.605469 C 148.820312 285.25 150.253906 281.894531 151.726562 278.628906 L 154.1875 279.734375 C 152.730469 282.96875 151.3125 286.292969 149.972656 289.613281 Z M 158.796875 270.039062 L 156.382812 268.832031 C 158.007812 265.589844 159.710938 262.363281 161.445312 259.234375 L 163.804688 260.542969 C 162.089844 263.636719 160.402344 266.832031 158.796875 270.039062 Z M 169.214844 251.269531 L 166.914062 249.859375 C 167.609375 248.726562 168.3125 247.601562 169.023438 246.480469 C 170.253906 244.546875 171.550781 242.621094 172.875 240.757812 L 175.074219 242.316406 C 173.777344 244.144531 172.507812 246.03125 171.304688 247.929688 C 170.597656 249.039062 169.902344 250.152344 169.214844 251.269531 Z M 181.609375 233.875 L 179.542969 232.136719 C 181.875 229.367188 184.351562 226.660156 186.902344 224.09375 L 188.816406 225.996094 C 186.316406 228.511719 183.894531 231.160156 181.609375 233.875 Z M 423.613281 227.21875 C 420.964844 224.789062 418.242188 222.429688 415.511719 220.203125 L 417.21875 218.113281 C 419.988281 220.371094 422.753906 222.765625 425.4375 225.230469 Z M 196.652344 218.734375 L 194.898438 216.683594 C 197.640625 214.34375 200.523438 212.078125 203.464844 209.953125 L 205.046875 212.140625 C 202.164062 214.222656 199.335938 216.445312 196.652344 218.734375 Z M 407.007812 213.683594 C 404.105469 211.597656 401.113281 209.585938 398.117188 207.710938 L 399.554688 205.425781 C 402.59375 207.332031 405.632812 209.371094 408.585938 211.492188 Z M 213.945312 206.222656 L 212.539062 203.921875 C 215.605469 202.050781 218.804688 200.261719 222.046875 198.601562 L 223.277344 201.003906 C 220.09375 202.632812 216.953125 204.390625 213.945312 206.222656 Z M 388.859375 202.355469 C 385.738281 200.695312 382.5 199.117188 379.246094 197.664062 L 380.34375 195.199219 C 383.660156 196.679688 386.949219 198.285156 390.128906 199.976562 Z M 232.972656 196.476562 L 231.914062 193.992188 C 235.214844 192.59375 238.632812 191.277344 242.078125 190.085938 L 242.964844 192.632812 C 239.574219 193.808594 236.210938 195.101562 232.972656 196.476562 Z M 369.328125 193.644531 C 366.011719 192.429688 362.589844 191.300781 359.160156 190.292969 L 359.921875 187.703125 C 363.410156 188.730469 366.886719 189.875 370.257812 191.113281 Z M 253.195312 189.457031 L 252.476562 186.855469 C 255.925781 185.90625 259.484375 185.039062 263.050781 184.289062 L 263.609375 186.929688 C 260.097656 187.667969 256.59375 188.519531 253.195312 189.457031 Z M 348.792969 187.589844 C 345.359375 186.808594 341.820312 186.113281 338.277344 185.523438 L 338.722656 182.859375 C 342.316406 183.460938 345.90625 184.167969 349.394531 184.960938 Z M 274.160156 185.023438 L 273.753906 182.355469 C 277.292969 181.820312 280.925781 181.375 284.546875 181.027344 L 284.804688 183.714844 C 281.230469 184.054688 277.648438 184.496094 274.160156 185.023438 Z M 327.65625 184.058594 C 324.160156 183.675781 320.5625 183.375 316.96875 183.167969 L 317.121094 180.472656 C 320.765625 180.683594 324.40625 180.988281 327.953125 181.375 Z M 295.507812 182.988281 L 295.398438 180.292969 C 298.980469 180.140625 302.648438 180.085938 306.265625 180.117188 L 306.242188 182.816406 C 302.671875 182.785156 299.050781 182.839844 295.507812 182.988281 Z M 295.507812 182.988281 " fill-opacity="1" fill-rule="nonzero"/><path fill="#414042" d="M 461.660156 239.460938 C 461.660156 240.347656 461.617188 241.234375 461.53125 242.121094 C 461.441406 243.003906 461.3125 243.882812 461.140625 244.753906 C 460.964844 245.625 460.75 246.484375 460.492188 247.335938 C 460.234375 248.183594 459.933594 249.019531 459.59375 249.839844 C 459.253906 250.660156 458.875 251.464844 458.457031 252.246094 C 458.035156 253.03125 457.582031 253.792969 457.085938 254.53125 C 456.59375 255.269531 456.0625 255.980469 455.5 256.667969 C 454.9375 257.355469 454.339844 258.011719 453.710938 258.640625 C 453.082031 259.269531 452.425781 259.863281 451.738281 260.429688 C 451.050781 260.992188 450.335938 261.519531 449.597656 262.015625 C 448.859375 262.507812 448.097656 262.964844 447.3125 263.382812 C 446.527344 263.800781 445.726562 264.179688 444.90625 264.519531 C 444.085938 264.859375 443.25 265.160156 442.398438 265.417969 C 441.546875 265.675781 440.683594 265.890625 439.8125 266.066406 C 438.941406 266.238281 438.0625 266.367188 437.179688 266.457031 C 436.292969 266.542969 435.40625 266.585938 434.519531 266.585938 C 433.628906 266.585938 432.742188 266.542969 431.859375 266.457031 C 430.972656 266.367188 430.09375 266.238281 429.222656 266.066406 C 428.351562 265.890625 427.492188 265.675781 426.640625 265.417969 C 425.789062 265.160156 424.953125 264.859375 424.132812 264.519531 C 423.308594 264.179688 422.507812 263.800781 421.722656 263.382812 C 420.941406 262.964844 420.179688 262.507812 419.4375 262.015625 C 418.699219 261.519531 417.988281 260.992188 417.300781 260.429688 C 416.613281 259.863281 415.953125 259.269531 415.328125 258.640625 C 414.699219 258.011719 414.101562 257.355469 413.539062 256.667969 C 412.972656 255.980469 412.445312 255.269531 411.949219 254.53125 C 411.457031 253.792969 411 253.03125 410.582031 252.246094 C 410.164062 251.464844 409.78125 250.660156 409.441406 249.839844 C 409.101562 249.019531 408.804688 248.183594 408.546875 247.335938 C 408.289062 246.484375 408.070312 245.625 407.898438 244.753906 C 407.726562 243.882812 407.59375 243.003906 407.507812 242.121094 C 407.421875 241.234375 407.375 240.347656 407.375 239.460938 C 407.375 238.574219 407.421875 237.6875 407.507812 236.800781 C 407.59375 235.917969 407.726562 235.039062 407.898438 234.167969 C 408.070312 233.296875 408.289062 232.4375 408.546875 231.585938 C 408.804688 230.738281 409.101562 229.902344 409.441406 229.082031 C 409.78125 228.257812 410.164062 227.457031 410.582031 226.675781 C 411 225.890625 411.457031 225.128906 411.949219 224.390625 C 412.445312 223.652344 412.972656 222.9375 413.539062 222.253906 C 414.101562 221.566406 414.699219 220.910156 415.328125 220.28125 C 415.953125 219.652344 416.613281 219.054688 417.300781 218.492188 C 417.988281 217.929688 418.699219 217.398438 419.4375 216.90625 C 420.179688 216.414062 420.941406 215.957031 421.722656 215.539062 C 422.507812 215.121094 423.308594 214.738281 424.132812 214.398438 C 424.953125 214.058594 425.789062 213.761719 426.640625 213.503906 C 427.492188 213.246094 428.351562 213.03125 429.222656 212.855469 C 430.09375 212.683594 430.972656 212.554688 431.859375 212.464844 C 432.742188 212.378906 433.628906 212.335938 434.519531 212.335938 C 435.40625 212.335938 436.292969 212.378906 437.179688 212.464844 C 438.0625 212.554688 438.941406 212.683594 439.8125 212.855469 C 440.683594 213.03125 441.546875 213.246094 442.398438 213.503906 C 443.25 213.761719 444.085938 214.058594 444.90625 214.398438 C 445.726562 214.738281 446.527344 215.121094 447.3125 215.539062 C 448.097656 215.957031 448.859375 216.414062 449.597656 216.90625 C 450.335938 217.398438 451.050781 217.929688 451.738281 218.492188 C 452.425781 219.054688 453.082031 219.652344 453.710938 220.28125 C 454.339844 220.910156 454.9375 221.566406 455.5 222.253906 C 456.0625 222.9375 456.59375 223.652344 457.085938 224.390625 C 457.582031 225.128906 458.035156 225.890625 458.457031 226.675781 C 458.875 227.457031 459.253906 228.257812 459.59375 229.082031 C 459.933594 229.902344 460.234375 230.738281 460.492188 231.585938 C 460.75 232.4375 460.964844 233.296875 461.140625 234.167969 C 461.3125 235.039062 461.441406 235.917969 461.53125 236.800781 C 461.617188 237.6875 461.660156 238.574219 461.660156 239.460938 Z M 461.660156 239.460938 " fill-opacity="1" fill-rule="nonzero"/><path fill="#fcfcfc" d="M 437.660156 220.890625 L 434.175781 220.890625 C 433.78125 220.890625 433.40625 221.066406 433.148438 221.363281 L 422.886719 233.359375 C 422.433594 233.898438 422.457031 234.691406 422.960938 235.195312 L 424.910156 237.140625 C 425.4375 237.664062 426.289062 237.664062 426.8125 237.144531 L 432.824219 231.210938 L 432.824219 257.207031 C 432.824219 257.949219 433.433594 258.554688 434.175781 258.554688 L 437.660156 258.554688 C 438.40625 258.554688 439.011719 257.949219 439.011719 257.207031 L 439.011719 222.238281 C 439.011719 221.496094 438.40625 220.890625 437.660156 220.890625 Z M 437.660156 220.890625 " fill-opacity="1" fill-rule="nonzero"/><path fill="#58595b" d="M 479.109375 449.03125 L 468.308594 449.03125 L 468.308594 446.332031 L 479.109375 446.332031 Z M 457.511719 449.03125 L 446.710938 449.03125 L 446.710938 446.332031 L 457.511719 446.332031 Z M 435.910156 449.03125 L 425.113281 449.03125 L 425.113281 446.332031 L 435.910156 446.332031 Z M 414.3125 449.03125 L 403.511719 449.03125 L 403.511719 446.332031 L 414.3125 446.332031 Z M 392.710938 449.03125 L 381.914062 449.03125 L 381.914062 446.332031 L 392.710938 446.332031 Z M 371.113281 449.03125 L 360.3125 449.03125 L 360.3125 446.332031 L 371.113281 446.332031 Z M 371.113281 449.03125 " fill-opacity="1" fill-rule="nonzero"/><path fill="#58595b" d="M 497.878906 447.394531 L 478.738281 436.351562 L 478.738281 458.4375 Z M 497.878906 447.394531 " fill-opacity="1" fill-rule="nonzero"/><path fill="#58595b" d="M 469.902344 460.109375 L 458.851562 479.238281 L 480.953125 479.238281 Z M 469.902344 460.109375 " fill-opacity="1" fill-rule="nonzero"/><path fill="#414042" d="M 373.402344 447.515625 C 373.402344 448.402344 373.359375 449.289062 373.273438 450.175781 C 373.1875 451.058594 373.054688 451.9375 372.882812 452.808594 C 372.710938 453.679688 372.492188 454.539062 372.234375 455.390625 C 371.976562 456.238281 371.679688 457.074219 371.335938 457.894531 C 370.996094 458.714844 370.617188 459.519531 370.199219 460.300781 C 369.78125 461.085938 369.324219 461.847656 368.828125 462.585938 C 368.335938 463.324219 367.808594 464.035156 367.242188 464.722656 C 366.679688 465.410156 366.082031 466.066406 365.453125 466.695312 C 364.824219 467.324219 364.167969 467.917969 363.480469 468.484375 C 362.792969 469.046875 362.082031 469.574219 361.339844 470.070312 C 360.601562 470.5625 359.839844 471.019531 359.054688 471.4375 C 358.273438 471.855469 357.46875 472.234375 356.648438 472.574219 C 355.828125 472.914062 354.992188 473.214844 354.140625 473.472656 C 353.289062 473.730469 352.429688 473.945312 351.558594 474.121094 C 350.683594 474.292969 349.808594 474.421875 348.921875 474.511719 C 348.039062 474.597656 347.152344 474.640625 346.261719 474.640625 C 345.375 474.640625 344.484375 474.597656 343.601562 474.511719 C 342.71875 474.421875 341.839844 474.292969 340.96875 474.121094 C 340.09375 473.945312 339.234375 473.730469 338.382812 473.472656 C 337.53125 473.214844 336.695312 472.914062 335.875 472.574219 C 335.054688 472.234375 334.25 471.855469 333.46875 471.4375 C 332.683594 471.019531 331.921875 470.5625 331.183594 470.070312 C 330.445312 469.574219 329.730469 469.046875 329.042969 468.484375 C 328.355469 467.917969 327.699219 467.324219 327.070312 466.695312 C 326.441406 466.066406 325.84375 465.410156 325.28125 464.722656 C 324.71875 464.035156 324.1875 463.324219 323.695312 462.585938 C 323.199219 461.847656 322.742188 461.085938 322.324219 460.300781 C 321.90625 459.519531 321.527344 458.714844 321.1875 457.894531 C 320.847656 457.074219 320.546875 456.238281 320.289062 455.390625 C 320.03125 454.539062 319.816406 453.679688 319.640625 452.808594 C 319.46875 451.9375 319.339844 451.058594 319.25 450.175781 C 319.164062 449.289062 319.121094 448.402344 319.121094 447.515625 C 319.121094 446.625 319.164062 445.742188 319.25 444.855469 C 319.339844 443.972656 319.46875 443.09375 319.640625 442.222656 C 319.816406 441.351562 320.03125 440.492188 320.289062 439.640625 C 320.546875 438.789062 320.847656 437.957031 321.1875 437.132812 C 321.527344 436.3125 321.90625 435.511719 322.324219 434.726562 C 322.742188 433.945312 323.199219 433.183594 323.695312 432.445312 C 324.1875 431.707031 324.71875 430.992188 325.28125 430.308594 C 325.84375 429.621094 326.441406 428.960938 327.070312 428.335938 C 327.699219 427.707031 328.355469 427.109375 329.042969 426.546875 C 329.730469 425.984375 330.445312 425.453125 331.183594 424.960938 C 331.921875 424.46875 332.683594 424.011719 333.46875 423.59375 C 334.25 423.175781 335.054688 422.792969 335.875 422.453125 C 336.695312 422.113281 337.53125 421.816406 338.382812 421.558594 C 339.234375 421.300781 340.09375 421.085938 340.96875 420.910156 C 341.839844 420.738281 342.71875 420.609375 343.601562 420.519531 C 344.484375 420.433594 345.375 420.390625 346.261719 420.390625 C 347.152344 420.390625 348.039062 420.433594 348.921875 420.519531 C 349.808594 420.609375 350.683594 420.738281 351.558594 420.910156 C 352.429688 421.085938 353.289062 421.300781 354.140625 421.558594 C 354.992188 421.816406 355.828125 422.113281 356.648438 422.453125 C 357.46875 422.792969 358.273438 423.175781 359.054688 423.59375 C 359.839844 424.011719 360.601562 424.46875 361.339844 424.960938 C 362.082031 425.453125 362.792969 425.984375 363.480469 426.546875 C 364.167969 427.109375 364.824219 427.707031 365.453125 428.335938 C 366.082031 428.960938 366.679688 429.621094 367.242188 430.308594 C 367.808594 430.992188 368.335938 431.707031 368.828125 432.445312 C 369.324219 433.183594 369.78125 433.945312 370.199219 434.726562 C 370.617188 435.511719 370.996094 436.3125 371.335938 437.132812 C 371.679688 437.957031 371.976562 438.789062 372.234375 439.640625 C 372.492188 440.492188 372.707031 441.351562 372.882812 442.222656 C 373.054688 443.09375 373.1875 443.972656 373.273438 444.855469 C 373.359375 445.742188 373.402344 446.625 373.402344 447.515625 Z M 373.402344 447.515625 " fill-opacity="1" fill-rule="nonzero"/><path fill="#fcfcfc" d="M 357.136719 460.421875 L 341.878906 460.421875 C 342.078125 460.054688 342.347656 459.679688 342.699219 459.292969 C 343.660156 458.234375 345.199219 456.828125 347.277344 455.121094 L 347.25 455.09375 C 347.566406 454.878906 347.914062 454.578125 348.3125 454.238281 C 351.253906 451.753906 353.605469 449.3125 355.304688 446.980469 C 357.105469 444.507812 358.023438 441.648438 358.023438 438.5 C 358.023438 435.378906 356.957031 432.839844 354.859375 430.953125 C 352.796875 429.113281 350.039062 428.175781 346.671875 428.175781 C 344.308594 428.175781 342 428.765625 339.804688 429.925781 C 337.636719 431.074219 335.78125 432.691406 334.292969 434.726562 C 333.878906 435.300781 333.972656 436.089844 334.511719 436.546875 L 337.332031 438.960938 C 337.609375 439.199219 337.96875 439.324219 338.359375 439.273438 C 338.730469 439.230469 339.066406 439.039062 339.289062 438.738281 C 340.375 437.28125 341.550781 436.164062 342.785156 435.421875 C 345.152344 433.984375 348.453125 433.988281 350.152344 435.523438 C 350.972656 436.269531 351.375 437.242188 351.375 438.496094 C 351.375 440.601562 350.847656 442.398438 349.757812 443.992188 C 348.609375 445.6875 346.949219 447.460938 344.792969 449.289062 C 344.675781 449.390625 344.117188 449.851562 343.09375 450.679688 C 341.324219 452.140625 339.878906 453.417969 338.796875 454.480469 C 337.679688 455.582031 336.730469 456.84375 335.96875 458.226562 C 335.164062 459.707031 334.75 461.332031 334.75 463.054688 L 334.75 465.257812 C 334.75 466.003906 335.359375 466.609375 336.101562 466.609375 L 357.136719 466.609375 C 357.878906 466.609375 358.488281 466.003906 358.488281 465.257812 L 358.488281 461.769531 C 358.488281 461.027344 357.882812 460.421875 357.136719 460.421875 Z M 357.136719 460.421875 " fill-opacity="1" fill-rule="nonzero"/></svg>