<svg xmlns="http://www.w3.org/2000/svg" xmlns:xlink="http://www.w3.org/1999/xlink" width="794" zoomAndPan="magnify" viewBox="0 0 594.95996 842.24997" height="1123" preserveAspectRatio="xMidYMid meet" version="1.0"><defs><clipPath id="feb7070224"><path d="M 59.71875 116 L 535.546875 116 L 535.546875 725.691406 L 59.71875 725.691406 Z M 59.71875 116 " clip-rule="nonzero"/></clipPath></defs><path fill="#ffffff" d="M 466.285156 719.847656 C 431.175781 719.847656 402.613281 691.273438 402.613281 656.148438 L 402.613281 467.75 L 192.679688 467.75 L 192.679688 656.148438 C 192.679688 691.273438 164.113281 719.847656 129 719.847656 C 93.890625 719.847656 65.320312 691.273438 65.320312 656.148438 L 65.320312 185.308594 C 65.320312 150.183594 93.882812 121.609375 128.996094 121.609375 C 164.113281 121.609375 192.679688 150.183594 192.679688 185.308594 L 192.679688 350.433594 L 402.613281 350.433594 L 402.613281 185.308594 C 402.613281 150.183594 431.175781 121.609375 466.285156 121.609375 C 501.398438 121.609375 529.964844 150.183594 529.964844 185.308594 L 529.964844 656.148438 C 529.964844 691.273438 501.398438 719.847656 466.285156 719.847656 Z M 466.285156 719.847656 " fill-opacity="1" fill-rule="nonzero"/><g clip-path="url(#feb7070224)"><path fill="#000000" d="M 466.285156 121.609375 C 501.398438 121.609375 529.964844 150.183594 529.964844 185.308594 L 529.964844 656.148438 C 529.964844 691.273438 501.398438 719.847656 466.285156 719.847656 C 431.175781 719.847656 402.613281 691.273438 402.613281 656.148438 L 402.613281 467.75 L 192.679688 467.75 L 192.679688 656.148438 C 192.679688 691.273438 164.113281 719.847656 129 719.847656 C 93.890625 719.847656 65.320312 691.273438 65.320312 656.148438 L 65.320312 185.308594 C 65.320312 150.183594 93.882812 121.609375 128.996094 121.609375 C 164.113281 121.609375 192.679688 150.183594 192.679688 185.308594 L 192.679688 350.433594 L 402.613281 350.433594 L 402.613281 185.308594 C 402.613281 150.183594 431.175781 121.609375 466.285156 121.609375 M 466.285156 116.003906 C 428.085938 116.003906 397.007812 147.09375 397.007812 185.308594 L 397.007812 344.828125 L 198.28125 344.828125 L 198.28125 185.308594 C 198.28125 147.09375 167.199219 116.003906 128.996094 116.003906 C 90.796875 116.003906 59.71875 147.09375 59.71875 185.308594 L 59.71875 656.148438 C 59.71875 694.363281 90.796875 725.453125 129 725.453125 C 167.203125 725.453125 198.28125 694.363281 198.28125 656.148438 L 198.28125 473.355469 L 397.007812 473.355469 L 397.007812 656.148438 C 397.007812 694.363281 428.085938 725.453125 466.285156 725.453125 C 504.488281 725.453125 535.566406 694.363281 535.566406 656.148438 L 535.566406 185.308594 C 535.566406 147.09375 504.488281 116.003906 466.285156 116.003906 Z M 466.285156 116.003906 " fill-opacity="1" fill-rule="nonzero"/></g><path fill="#58595b" d="M 129.257812 675.910156 L 126.457031 675.910156 L 126.457031 671.769531 L 129.257812 671.769531 Z M 129.257812 660.558594 L 126.457031 660.558594 L 126.457031 649.347656 L 129.257812 649.347656 Z M 129.257812 638.136719 L 126.457031 638.136719 L 126.457031 626.929688 L 129.257812 626.929688 Z M 129.257812 615.71875 L 126.457031 615.71875 L 126.457031 604.507812 L 129.257812 604.507812 Z M 129.257812 593.296875 L 126.457031 593.296875 L 126.457031 582.085938 L 129.257812 582.085938 Z M 129.257812 570.875 L 126.457031 570.875 L 126.457031 559.667969 L 129.257812 559.667969 Z M 129.257812 548.457031 L 126.457031 548.457031 L 126.457031 537.246094 L 129.257812 537.246094 Z M 129.257812 526.035156 L 126.457031 526.035156 L 126.457031 514.824219 L 129.257812 514.824219 Z M 129.257812 503.613281 L 126.457031 503.613281 L 126.457031 492.402344 L 129.257812 492.402344 Z M 129.257812 481.195312 L 126.457031 481.195312 L 126.457031 469.984375 L 129.257812 469.984375 Z M 129.257812 458.773438 L 126.457031 458.773438 L 126.457031 447.5625 L 129.257812 447.5625 Z M 129.257812 436.351562 L 126.457031 436.351562 L 126.457031 425.140625 L 129.257812 425.140625 Z M 129.257812 413.929688 L 126.457031 413.929688 L 126.457031 402.722656 L 129.257812 402.722656 Z M 129.257812 391.511719 L 126.457031 391.511719 L 126.457031 380.300781 L 129.257812 380.300781 Z M 129.257812 369.089844 L 126.457031 369.089844 L 126.457031 357.878906 L 129.257812 357.878906 Z M 129.257812 346.667969 L 126.457031 346.667969 L 126.457031 335.460938 L 129.257812 335.460938 Z M 129.257812 324.25 L 126.457031 324.25 L 126.457031 313.039062 L 129.257812 313.039062 Z M 129.257812 301.828125 L 126.457031 301.828125 L 126.457031 290.617188 L 129.257812 290.617188 Z M 129.257812 279.40625 L 126.457031 279.40625 L 126.457031 268.195312 L 129.257812 268.195312 Z M 129.257812 256.988281 L 126.457031 256.988281 L 126.457031 245.777344 L 129.257812 245.777344 Z M 129.257812 234.566406 L 126.457031 234.566406 L 126.457031 223.355469 L 129.257812 223.355469 Z M 129.257812 212.144531 L 126.457031 212.144531 L 126.457031 200.933594 L 129.257812 200.933594 Z M 129.257812 212.144531 " fill-opacity="1" fill-rule="nonzero"/><path fill="#58595b" d="M 127.859375 689.15625 L 139.324219 669.285156 L 116.394531 669.285156 Z M 127.859375 689.15625 " fill-opacity="1" fill-rule="nonzero"/><path fill="#414042" d="M 154.003906 179.417969 C 154.003906 180.339844 153.957031 181.261719 153.867188 182.179688 C 153.777344 183.097656 153.644531 184.007812 153.464844 184.914062 C 153.28125 185.820312 153.058594 186.714844 152.792969 187.597656 C 152.523438 188.480469 152.214844 189.347656 151.859375 190.199219 C 151.507812 191.050781 151.113281 191.886719 150.679688 192.699219 C 150.242188 193.511719 149.769531 194.304688 149.257812 195.070312 C 148.746094 195.839844 148.195312 196.578125 147.613281 197.292969 C 147.027344 198.003906 146.40625 198.6875 145.753906 199.339844 C 145.101562 199.992188 144.421875 200.613281 143.707031 201.195312 C 142.996094 201.78125 142.253906 202.332031 141.488281 202.84375 C 140.722656 203.355469 139.929688 203.832031 139.117188 204.265625 C 138.304688 204.699219 137.472656 205.09375 136.617188 205.449219 C 135.765625 205.800781 134.898438 206.113281 134.015625 206.378906 C 133.132812 206.648438 132.238281 206.871094 131.335938 207.050781 C 130.429688 207.230469 129.519531 207.367188 128.601562 207.457031 C 127.683594 207.546875 126.761719 207.59375 125.839844 207.59375 C 124.917969 207.59375 124 207.546875 123.082031 207.457031 C 122.164062 207.367188 121.25 207.230469 120.347656 207.050781 C 119.441406 206.871094 118.546875 206.648438 117.664062 206.378906 C 116.785156 206.113281 115.914062 205.800781 115.0625 205.449219 C 114.210938 205.09375 113.378906 204.699219 112.566406 204.265625 C 111.75 203.832031 110.960938 203.355469 110.195312 202.84375 C 109.425781 202.332031 108.6875 201.78125 107.976562 201.195312 C 107.261719 200.613281 106.578125 199.992188 105.925781 199.339844 C 105.273438 198.6875 104.65625 198.003906 104.070312 197.292969 C 103.484375 196.578125 102.9375 195.839844 102.425781 195.070312 C 101.910156 194.304688 101.4375 193.511719 101.003906 192.699219 C 100.570312 191.886719 100.175781 191.050781 99.820312 190.199219 C 99.46875 189.347656 99.160156 188.480469 98.890625 187.597656 C 98.625 186.714844 98.398438 185.820312 98.21875 184.914062 C 98.039062 184.007812 97.902344 183.097656 97.8125 182.179688 C 97.722656 181.261719 97.679688 180.339844 97.679688 179.417969 C 97.679688 178.496094 97.722656 177.574219 97.8125 176.65625 C 97.902344 175.738281 98.039062 174.828125 98.21875 173.921875 C 98.398438 173.015625 98.625 172.121094 98.890625 171.238281 C 99.160156 170.355469 99.46875 169.488281 99.820312 168.636719 C 100.175781 167.785156 100.570312 166.949219 101.003906 166.136719 C 101.4375 165.324219 101.910156 164.53125 102.425781 163.765625 C 102.9375 162.996094 103.484375 162.257812 104.070312 161.542969 C 104.65625 160.832031 105.273438 160.148438 105.925781 159.496094 C 106.578125 158.84375 107.261719 158.222656 107.976562 157.640625 C 108.6875 157.054688 109.429688 156.503906 110.195312 155.992188 C 110.960938 155.480469 111.75 155.003906 112.566406 154.570312 C 113.378906 154.136719 114.210938 153.742188 115.0625 153.386719 C 115.914062 153.035156 116.785156 152.722656 117.664062 152.457031 C 118.546875 152.1875 119.441406 151.964844 120.347656 151.785156 C 121.25 151.605469 122.164062 151.46875 123.082031 151.378906 C 124 151.289062 124.917969 151.242188 125.839844 151.242188 C 126.761719 151.242188 127.683594 151.289062 128.601562 151.378906 C 129.519531 151.46875 130.429688 151.605469 131.335938 151.785156 C 132.238281 151.964844 133.132812 152.1875 134.015625 152.457031 C 134.898438 152.722656 135.765625 153.035156 136.617188 153.386719 C 137.472656 153.742188 138.304688 154.136719 139.117188 154.570312 C 139.929688 155.003906 140.722656 155.480469 141.488281 155.992188 C 142.253906 156.503906 142.996094 157.054688 143.707031 157.640625 C 144.421875 158.222656 145.101562 158.84375 145.753906 159.496094 C 146.40625 160.148438 147.027344 160.832031 147.613281 161.542969 C 148.195312 162.257812 148.746094 162.996094 149.257812 163.765625 C 149.769531 164.53125 150.242188 165.324219 150.679688 166.136719 C 151.113281 166.949219 151.507812 167.785156 151.859375 168.636719 C 152.214844 169.488281 152.523438 170.355469 152.792969 171.238281 C 153.058594 172.121094 153.28125 173.015625 153.464844 173.921875 C 153.644531 174.828125 153.777344 175.738281 153.867188 176.65625 C 153.957031 177.574219 154.003906 178.496094 154.003906 179.417969 Z M 154.003906 179.417969 " fill-opacity="1" fill-rule="nonzero"/><path fill="#fcfcfc" d="M 129.101562 160.128906 L 125.484375 160.128906 C 125.074219 160.128906 124.6875 160.308594 124.417969 160.621094 L 113.769531 173.082031 C 113.300781 173.640625 113.328125 174.464844 113.847656 174.984375 L 115.871094 177.007812 C 116.417969 177.554688 117.300781 177.554688 117.847656 177.015625 L 124.085938 170.851562 L 124.085938 197.851562 C 124.085938 198.621094 124.714844 199.25 125.484375 199.25 L 129.101562 199.25 C 129.875 199.25 130.503906 198.621094 130.503906 197.851562 L 130.503906 161.53125 C 130.503906 160.757812 129.875 160.128906 129.101562 160.128906 Z M 129.101562 160.128906 " fill-opacity="1" fill-rule="nonzero"/><path fill="#58595b" d="M 467.472656 675.910156 L 464.671875 675.910156 L 464.671875 671.769531 L 467.472656 671.769531 Z M 467.472656 660.558594 L 464.671875 660.558594 L 464.671875 649.347656 L 467.472656 649.347656 Z M 467.472656 638.136719 L 464.671875 638.136719 L 464.671875 626.929688 L 467.472656 626.929688 Z M 467.472656 615.71875 L 464.671875 615.71875 L 464.671875 604.507812 L 467.472656 604.507812 Z M 467.472656 593.296875 L 464.671875 593.296875 L 464.671875 582.085938 L 467.472656 582.085938 Z M 467.472656 570.875 L 464.671875 570.875 L 464.671875 559.667969 L 467.472656 559.667969 Z M 467.472656 548.457031 L 464.671875 548.457031 L 464.671875 537.246094 L 467.472656 537.246094 Z M 467.472656 526.035156 L 464.671875 526.035156 L 464.671875 514.824219 L 467.472656 514.824219 Z M 467.472656 503.613281 L 464.671875 503.613281 L 464.671875 492.402344 L 467.472656 492.402344 Z M 467.472656 481.195312 L 464.671875 481.195312 L 464.671875 469.984375 L 467.472656 469.984375 Z M 467.472656 458.773438 L 464.671875 458.773438 L 464.671875 447.5625 L 467.472656 447.5625 Z M 467.472656 436.351562 L 464.671875 436.351562 L 464.671875 425.140625 L 467.472656 425.140625 Z M 467.472656 413.929688 L 464.671875 413.929688 L 464.671875 402.722656 L 467.472656 402.722656 Z M 467.472656 391.511719 L 464.671875 391.511719 L 464.671875 380.300781 L 467.472656 380.300781 Z M 467.472656 369.089844 L 464.671875 369.089844 L 464.671875 357.878906 L 467.472656 357.878906 Z M 467.472656 346.667969 L 464.671875 346.667969 L 464.671875 335.460938 L 467.472656 335.460938 Z M 467.472656 324.25 L 464.671875 324.25 L 464.671875 313.039062 L 467.472656 313.039062 Z M 467.472656 301.828125 L 464.671875 301.828125 L 464.671875 290.617188 L 467.472656 290.617188 Z M 467.472656 279.40625 L 464.671875 279.40625 L 464.671875 268.195312 L 467.472656 268.195312 Z M 467.472656 256.988281 L 464.671875 256.988281 L 464.671875 245.777344 L 467.472656 245.777344 Z M 467.472656 234.566406 L 464.671875 234.566406 L 464.671875 223.355469 L 467.472656 223.355469 Z M 467.472656 212.144531 L 464.671875 212.144531 L 464.671875 200.933594 L 467.472656 200.933594 Z M 467.472656 212.144531 " fill-opacity="1" fill-rule="nonzero"/><path fill="#58595b" d="M 466.070312 689.15625 L 477.539062 669.285156 L 454.605469 669.285156 Z M 466.070312 689.15625 " fill-opacity="1" fill-rule="nonzero"/><path fill="#414042" d="M 494.234375 179.417969 C 494.234375 180.339844 494.1875 181.261719 494.097656 182.179688 C 494.007812 183.097656 493.875 184.007812 493.695312 184.914062 C 493.511719 185.820312 493.289062 186.714844 493.023438 187.597656 C 492.753906 188.480469 492.445312 189.347656 492.089844 190.199219 C 491.738281 191.050781 491.34375 191.886719 490.910156 192.699219 C 490.472656 193.511719 490 194.304688 489.488281 195.070312 C 488.976562 195.839844 488.425781 196.578125 487.84375 197.292969 C 487.257812 198.003906 486.636719 198.6875 485.984375 199.339844 C 485.332031 199.992188 484.652344 200.613281 483.9375 201.195312 C 483.226562 201.78125 482.484375 202.332031 481.71875 202.84375 C 480.953125 203.355469 480.160156 203.832031 479.347656 204.265625 C 478.535156 204.699219 477.703125 205.09375 476.847656 205.449219 C 475.996094 205.800781 475.128906 206.113281 474.246094 206.378906 C 473.363281 206.648438 472.46875 206.871094 471.566406 207.050781 C 470.660156 207.230469 469.75 207.367188 468.832031 207.457031 C 467.914062 207.546875 466.992188 207.59375 466.070312 207.59375 C 465.148438 207.59375 464.230469 207.546875 463.3125 207.457031 C 462.394531 207.367188 461.480469 207.230469 460.578125 207.050781 C 459.671875 206.871094 458.777344 206.648438 457.894531 206.378906 C 457.015625 206.113281 456.144531 205.800781 455.292969 205.449219 C 454.441406 205.09375 453.609375 204.699219 452.796875 204.265625 C 451.980469 203.832031 451.191406 203.355469 450.425781 202.84375 C 449.65625 202.332031 448.917969 201.78125 448.207031 201.195312 C 447.492188 200.613281 446.808594 199.992188 446.15625 199.339844 C 445.503906 198.6875 444.886719 198.003906 444.300781 197.292969 C 443.714844 196.578125 443.167969 195.839844 442.65625 195.070312 C 442.140625 194.304688 441.667969 193.511719 441.234375 192.699219 C 440.800781 191.886719 440.40625 191.050781 440.050781 190.199219 C 439.699219 189.347656 439.390625 188.480469 439.121094 187.597656 C 438.855469 186.714844 438.628906 185.820312 438.449219 184.914062 C 438.269531 184.007812 438.132812 183.097656 438.042969 182.179688 C 437.953125 181.261719 437.910156 180.339844 437.910156 179.417969 C 437.910156 178.496094 437.953125 177.574219 438.042969 176.65625 C 438.132812 175.738281 438.269531 174.828125 438.449219 173.921875 C 438.628906 173.015625 438.855469 172.121094 439.121094 171.238281 C 439.390625 170.355469 439.699219 169.488281 440.050781 168.636719 C 440.40625 167.785156 440.800781 166.949219 441.234375 166.136719 C 441.667969 165.324219 442.140625 164.53125 442.65625 163.765625 C 443.167969 162.996094 443.714844 162.257812 444.300781 161.542969 C 444.886719 160.832031 445.503906 160.148438 446.15625 159.496094 C 446.808594 158.84375 447.492188 158.222656 448.207031 157.640625 C 448.917969 157.054688 449.65625 156.503906 450.425781 155.992188 C 451.191406 155.480469 451.980469 155.003906 452.796875 154.570312 C 453.609375 154.136719 454.441406 153.742188 455.292969 153.386719 C 456.144531 153.035156 457.015625 152.722656 457.894531 152.457031 C 458.777344 152.1875 459.671875 151.964844 460.578125 151.785156 C 461.480469 151.605469 462.394531 151.46875 463.3125 151.378906 C 464.230469 151.289062 465.148438 151.242188 466.070312 151.242188 C 466.992188 151.242188 467.914062 151.289062 468.832031 151.378906 C 469.75 151.46875 470.660156 151.605469 471.566406 151.785156 C 472.46875 151.964844 473.363281 152.1875 474.246094 152.457031 C 475.128906 152.722656 475.996094 153.035156 476.847656 153.386719 C 477.703125 153.742188 478.535156 154.136719 479.347656 154.570312 C 480.160156 155.003906 480.949219 155.480469 481.71875 155.992188 C 482.484375 156.503906 483.226562 157.054688 483.9375 157.640625 C 484.652344 158.222656 485.332031 158.84375 485.984375 159.496094 C 486.636719 160.148438 487.257812 160.832031 487.84375 161.542969 C 488.425781 162.257812 488.976562 162.996094 489.488281 163.765625 C 490 164.53125 490.472656 165.324219 490.910156 166.136719 C 491.34375 166.949219 491.738281 167.785156 492.089844 168.636719 C 492.445312 169.488281 492.753906 170.355469 493.023438 171.238281 C 493.289062 172.121094 493.511719 173.015625 493.695312 173.921875 C 493.875 174.828125 494.007812 175.738281 494.097656 176.65625 C 494.1875 177.574219 494.234375 178.496094 494.234375 179.417969 Z M 494.234375 179.417969 " fill-opacity="1" fill-rule="nonzero"/><path fill="#fcfcfc" d="M 477.355469 192.824219 L 461.523438 192.824219 C 461.730469 192.445312 462.007812 192.050781 462.375 191.652344 C 463.371094 190.550781 464.96875 189.089844 467.125 187.320312 L 467.097656 187.289062 C 467.425781 187.066406 467.789062 186.753906 468.199219 186.402344 C 471.25 183.820312 473.691406 181.285156 475.453125 178.863281 C 477.324219 176.292969 478.277344 173.324219 478.277344 170.050781 C 478.277344 166.8125 477.171875 164.175781 474.992188 162.214844 C 472.851562 160.304688 469.992188 159.332031 466.496094 159.332031 C 464.042969 159.332031 461.648438 159.941406 459.371094 161.148438 C 457.121094 162.339844 455.195312 164.019531 453.652344 166.136719 C 453.222656 166.730469 453.320312 167.550781 453.878906 168.027344 L 456.804688 170.53125 C 457.09375 170.78125 457.46875 170.910156 457.871094 170.855469 C 458.253906 170.8125 458.605469 170.613281 458.835938 170.300781 C 459.960938 168.789062 461.183594 167.628906 462.460938 166.855469 C 464.917969 165.363281 468.34375 165.371094 470.105469 166.960938 C 470.960938 167.734375 471.375 168.746094 471.375 170.050781 C 471.375 172.238281 470.828125 174.105469 469.699219 175.761719 C 468.507812 177.519531 466.785156 179.363281 464.546875 181.261719 C 464.425781 181.367188 463.847656 181.84375 462.785156 182.707031 C 460.945312 184.222656 459.445312 185.550781 458.324219 186.652344 C 457.164062 187.792969 456.179688 189.105469 455.390625 190.546875 C 454.554688 192.082031 454.128906 193.769531 454.128906 195.558594 L 454.128906 197.847656 C 454.128906 198.621094 454.757812 199.25 455.527344 199.25 L 477.355469 199.25 C 478.128906 199.25 478.757812 198.621094 478.757812 197.847656 L 478.757812 194.222656 C 478.757812 193.453125 478.128906 192.824219 477.355469 192.824219 Z M 477.355469 192.824219 " fill-opacity="1" fill-rule="nonzero"/><path fill="#58595b" d="M 433.09375 411.925781 L 423.9375 411.925781 L 423.9375 409.121094 L 433.09375 409.121094 Z M 412.730469 411.925781 L 401.523438 411.925781 L 401.523438 409.121094 L 412.730469 409.121094 Z M 390.316406 411.925781 L 379.113281 411.925781 L 379.113281 409.121094 L 390.316406 409.121094 Z M 367.90625 411.925781 L 356.699219 411.925781 L 356.699219 409.121094 L 367.90625 409.121094 Z M 345.496094 411.925781 L 334.289062 411.925781 L 334.289062 409.121094 L 345.496094 409.121094 Z M 323.082031 411.925781 L 311.878906 411.925781 L 311.878906 409.121094 L 323.082031 409.121094 Z M 300.671875 411.925781 L 289.464844 411.925781 L 289.464844 409.121094 L 300.671875 409.121094 Z M 278.257812 411.925781 L 267.054688 411.925781 L 267.054688 409.121094 L 278.257812 409.121094 Z M 255.847656 411.925781 L 244.640625 411.925781 L 244.640625 409.121094 L 255.847656 409.121094 Z M 233.4375 411.925781 L 222.230469 411.925781 L 222.230469 409.121094 L 233.4375 409.121094 Z M 211.023438 411.925781 L 199.820312 411.925781 L 199.820312 409.121094 L 211.023438 409.121094 Z M 188.613281 411.925781 L 177.40625 411.925781 L 177.40625 409.121094 L 188.613281 409.121094 Z M 188.613281 411.925781 " fill-opacity="1" fill-rule="nonzero"/><path fill="#58595b" d="M 446.332031 410.222656 L 426.472656 398.753906 L 426.472656 421.695312 Z M 446.332031 410.222656 " fill-opacity="1" fill-rule="nonzero"/><path fill="#414042" d="M 199.617188 410.222656 C 199.617188 411.148438 199.574219 412.066406 199.484375 412.984375 C 199.394531 413.90625 199.257812 414.816406 199.078125 415.722656 C 198.898438 416.625 198.671875 417.519531 198.40625 418.402344 C 198.136719 419.285156 197.828125 420.152344 197.476562 421.007812 C 197.121094 421.859375 196.726562 422.691406 196.292969 423.503906 C 195.859375 424.320312 195.386719 425.109375 194.871094 425.878906 C 194.359375 426.644531 193.8125 427.386719 193.226562 428.097656 C 192.640625 428.8125 192.023438 429.496094 191.371094 430.148438 C 190.71875 430.800781 190.035156 431.417969 189.320312 432.003906 C 188.609375 432.589844 187.871094 433.136719 187.101562 433.652344 C 186.335938 434.164062 185.546875 434.636719 184.730469 435.070312 C 183.917969 435.507812 183.085938 435.902344 182.234375 436.253906 C 181.382812 436.605469 180.515625 436.917969 179.632812 437.1875 C 178.75 437.453125 177.855469 437.675781 176.949219 437.859375 C 176.046875 438.039062 175.132812 438.171875 174.214844 438.261719 C 173.296875 438.355469 172.378906 438.398438 171.457031 438.398438 C 170.535156 438.398438 169.613281 438.355469 168.695312 438.261719 C 167.777344 438.171875 166.867188 438.039062 165.960938 437.859375 C 165.058594 437.675781 164.164062 437.453125 163.28125 437.1875 C 162.398438 436.917969 161.53125 436.605469 160.679688 436.253906 C 159.824219 435.902344 158.992188 435.507812 158.179688 435.070312 C 157.367188 434.636719 156.578125 434.164062 155.808594 433.652344 C 155.042969 433.136719 154.300781 432.589844 153.589844 432.003906 C 152.875 431.417969 152.195312 430.800781 151.542969 430.148438 C 150.890625 429.496094 150.269531 428.8125 149.683594 428.097656 C 149.101562 427.386719 148.550781 426.644531 148.039062 425.878906 C 147.527344 425.109375 147.054688 424.320312 146.617188 423.503906 C 146.183594 422.691406 145.789062 421.859375 145.4375 421.007812 C 145.082031 420.152344 144.773438 419.285156 144.503906 418.402344 C 144.238281 417.519531 144.015625 416.625 143.832031 415.722656 C 143.652344 414.816406 143.519531 413.902344 143.429688 412.984375 C 143.339844 412.066406 143.292969 411.148438 143.292969 410.222656 C 143.292969 409.300781 143.339844 408.382812 143.429688 407.460938 C 143.519531 406.542969 143.652344 405.632812 143.832031 404.726562 C 144.015625 403.824219 144.238281 402.929688 144.503906 402.046875 C 144.773438 401.164062 145.082031 400.296875 145.4375 399.441406 C 145.789062 398.589844 146.183594 397.757812 146.617188 396.941406 C 147.054688 396.128906 147.527344 395.339844 148.039062 394.570312 C 148.550781 393.804688 149.101562 393.0625 149.683594 392.351562 C 150.269531 391.636719 150.890625 390.953125 151.542969 390.300781 C 152.195312 389.648438 152.875 389.03125 153.589844 388.445312 C 154.300781 387.859375 155.042969 387.3125 155.808594 386.796875 C 156.578125 386.285156 157.367188 385.8125 158.179688 385.375 C 158.992188 384.941406 159.824219 384.546875 160.679688 384.195312 C 161.53125 383.839844 162.398438 383.53125 163.28125 383.261719 C 164.164062 382.996094 165.058594 382.769531 165.960938 382.589844 C 166.867188 382.410156 167.777344 382.277344 168.695312 382.1875 C 169.613281 382.09375 170.535156 382.050781 171.457031 382.050781 C 172.378906 382.050781 173.296875 382.09375 174.214844 382.1875 C 175.132812 382.277344 176.046875 382.410156 176.949219 382.589844 C 177.855469 382.769531 178.75 382.996094 179.632812 383.261719 C 180.515625 383.53125 181.382812 383.839844 182.234375 384.195312 C 183.085938 384.546875 183.917969 384.941406 184.730469 385.375 C 185.546875 385.8125 186.335938 386.285156 187.101562 386.796875 C 187.871094 387.3125 188.609375 387.859375 189.320312 388.445312 C 190.035156 389.03125 190.71875 389.648438 191.371094 390.300781 C 192.023438 390.953125 192.640625 391.636719 193.226562 392.351562 C 193.8125 393.0625 194.359375 393.804688 194.871094 394.570312 C 195.386719 395.339844 195.859375 396.128906 196.292969 396.941406 C 196.726562 397.757812 197.121094 398.589844 197.476562 399.441406 C 197.828125 400.296875 198.136719 401.164062 198.40625 402.046875 C 198.671875 402.929688 198.898438 403.824219 199.078125 404.726562 C 199.257812 405.632812 199.394531 406.542969 199.484375 407.460938 C 199.574219 408.382812 199.617188 409.300781 199.617188 410.222656 Z M 199.617188 410.222656 " fill-opacity="1" fill-rule="nonzero"/><path fill="#fcfcfc" d="M 182.496094 411.976562 C 181.6875 410.828125 180.714844 409.890625 179.597656 409.175781 C 180.363281 408.539062 181.019531 407.777344 181.5625 406.890625 C 182.601562 405.210938 183.125 403.25 183.125 401.070312 C 183.125 398.984375 182.644531 397.089844 181.6875 395.441406 C 180.722656 393.78125 179.367188 392.46875 177.660156 391.535156 C 175.96875 390.609375 174.042969 390.140625 171.929688 390.140625 C 169.15625 390.140625 166.679688 390.917969 164.566406 392.457031 C 162.488281 393.964844 160.863281 396.03125 159.738281 398.589844 C 159.445312 399.257812 159.710938 400.035156 160.347656 400.382812 L 163.273438 401.984375 C 163.613281 402.167969 164.007812 402.203125 164.367188 402.085938 C 164.734375 401.972656 165.035156 401.714844 165.207031 401.371094 C 166.03125 399.6875 167.011719 398.386719 168.117188 397.511719 C 169.152344 396.695312 170.398438 396.296875 171.929688 396.296875 C 173.289062 396.296875 174.359375 396.722656 175.207031 397.605469 C 176.070312 398.492188 176.492188 399.625 176.492188 401.070312 C 176.492188 402.707031 176.039062 403.992188 175.109375 404.992188 C 174.210938 405.960938 173.011719 406.433594 171.453125 406.433594 L 169.113281 406.433594 C 168.339844 406.433594 167.710938 407.0625 167.710938 407.835938 L 167.710938 411.136719 C 167.710938 411.910156 168.339844 412.535156 169.113281 412.535156 L 171.667969 412.535156 C 173.492188 412.535156 174.945312 413.101562 176.105469 414.253906 C 177.257812 415.414062 177.820312 416.867188 177.820312 418.699219 C 177.820312 420.453125 177.269531 421.851562 176.136719 422.96875 C 174.992188 424.097656 173.605469 424.644531 171.878906 424.644531 C 170.414062 424.644531 169.171875 424.230469 168.082031 423.375 C 166.9375 422.472656 165.96875 421.195312 165.214844 419.59375 C 165.046875 419.238281 164.734375 418.96875 164.363281 418.851562 C 163.988281 418.734375 163.585938 418.78125 163.238281 418.980469 L 160.042969 420.84375 C 159.441406 421.195312 159.191406 421.9375 159.453125 422.582031 C 160.476562 425.09375 162.050781 427.128906 164.144531 428.625 C 166.261719 430.140625 168.804688 430.910156 171.714844 430.910156 C 174.03125 430.910156 176.191406 430.390625 178.144531 429.363281 C 180.121094 428.328125 181.699219 426.855469 182.84375 424.992188 C 183.984375 423.121094 184.5625 421.003906 184.5625 418.699219 C 184.566406 416.171875 183.871094 413.910156 182.496094 411.976562 Z M 182.496094 411.976562 " fill-opacity="1" fill-rule="nonzero"/></svg>