<svg xmlns="http://www.w3.org/2000/svg" xmlns:xlink="http://www.w3.org/1999/xlink" width="794" zoomAndPan="magnify" viewBox="0 0 594.95996 842.24997" height="1123" preserveAspectRatio="xMidYMid meet" version="1.0"><defs><g/></defs><g fill="#000000" fill-opacity="1"><g transform="translate(38.95302, 617.264878)"><g><path d="M 81.53125 -148.3125 C 76.84375 -148.3125 74.5 -150.65625 74.5 -155.34375 C 74.5 -160.03125 76.84375 -162.375 81.53125 -162.375 C 86.21875 -162.375 88.5625 -160.03125 88.5625 -155.34375 C 88.5625 -150.65625 86.21875 -148.3125 81.53125 -148.3125 Z M 81.53125 -119.484375 C 76.84375 -119.484375 74.5 -121.828125 74.5 -126.515625 C 74.5 -131.203125 76.84375 -133.546875 81.53125 -133.546875 C 86.21875 -133.546875 88.5625 -131.203125 88.5625 -126.515625 C 88.5625 -121.828125 86.21875 -119.484375 81.53125 -119.484375 Z M 81.53125 -90.671875 C 76.84375 -90.671875 74.5 -93.015625 74.5 -97.703125 C 74.5 -102.390625 76.84375 -104.734375 81.53125 -104.734375 C 86.21875 -104.734375 88.5625 -102.390625 88.5625 -97.703125 C 88.5625 -93.015625 86.21875 -90.671875 81.53125 -90.671875 Z M 81.53125 -61.859375 C 76.84375 -61.859375 74.5 -64.203125 74.5 -68.890625 C 74.5 -73.566406 76.84375 -75.90625 81.53125 -75.90625 C 86.21875 -75.90625 88.5625 -73.566406 88.5625 -68.890625 C 88.5625 -64.203125 86.21875 -61.859375 81.53125 -61.859375 Z M 81.53125 -371.828125 C 76.84375 -371.828125 74.5 -374.171875 74.5 -378.859375 C 74.5 -383.546875 76.84375 -385.890625 81.53125 -385.890625 C 86.21875 -385.890625 88.5625 -383.546875 88.5625 -378.859375 C 88.5625 -374.171875 86.21875 -371.828125 81.53125 -371.828125 Z M 81.53125 -344.421875 C 76.84375 -344.421875 74.5 -346.765625 74.5 -351.453125 C 74.5 -356.128906 76.84375 -358.46875 81.53125 -358.46875 C 86.21875 -358.46875 88.5625 -356.128906 88.5625 -351.453125 C 88.5625 -346.765625 86.21875 -344.421875 81.53125 -344.421875 Z M 81.53125 -314.1875 C 76.84375 -314.1875 74.5 -316.53125 74.5 -321.21875 C 74.5 -325.90625 76.84375 -328.25 81.53125 -328.25 C 86.21875 -328.25 88.5625 -325.90625 88.5625 -321.21875 C 88.5625 -316.53125 86.21875 -314.1875 81.53125 -314.1875 Z M 81.53125 -257.953125 C 76.84375 -257.953125 74.5 -260.296875 74.5 -264.984375 C 74.5 -269.671875 76.84375 -272.015625 81.53125 -272.015625 C 86.21875 -272.015625 88.5625 -269.671875 88.5625 -264.984375 C 88.5625 -260.296875 86.21875 -257.953125 81.53125 -257.953125 Z M 81.53125 -231.953125 C 76.84375 -231.953125 74.5 -234.296875 74.5 -238.984375 C 74.5 -243.671875 76.84375 -246.015625 81.53125 -246.015625 C 86.21875 -246.015625 88.5625 -243.671875 88.5625 -238.984375 C 88.5625 -234.296875 86.21875 -231.953125 81.53125 -231.953125 Z M 81.53125 -203.84375 C 76.84375 -203.84375 74.5 -206.1875 74.5 -210.875 C 74.5 -215.550781 76.84375 -217.890625 81.53125 -217.890625 C 86.21875 -217.890625 88.5625 -215.550781 88.5625 -210.875 C 88.5625 -206.1875 86.21875 -203.84375 81.53125 -203.84375 Z M 81.53125 -175.71875 C 76.84375 -175.71875 74.5 -178.0625 74.5 -182.75 C 74.5 -187.4375 76.84375 -189.78125 81.53125 -189.78125 C 86.21875 -189.78125 88.5625 -187.4375 88.5625 -182.75 C 88.5625 -178.0625 86.21875 -175.71875 81.53125 -175.71875 Z M 81.53125 -477.96875 C 76.84375 -477.96875 74.5 -480.3125 74.5 -485 C 74.5 -489.6875 76.84375 -492.03125 81.53125 -492.03125 C 86.21875 -492.03125 88.5625 -489.6875 88.5625 -485 C 88.5625 -480.3125 86.21875 -477.96875 81.53125 -477.96875 Z M 81.53125 -451.953125 C 76.84375 -451.953125 74.5 -454.296875 74.5 -458.984375 C 74.5 -463.671875 76.84375 -466.015625 81.53125 -466.015625 C 86.21875 -466.015625 88.5625 -463.671875 88.5625 -458.984375 C 88.5625 -454.296875 86.21875 -451.953125 81.53125 -451.953125 Z M 81.53125 -425.25 C 76.84375 -425.25 74.5 -427.59375 74.5 -432.28125 C 74.5 -436.96875 76.84375 -439.3125 81.53125 -439.3125 C 86.21875 -439.3125 88.5625 -436.96875 88.5625 -432.28125 C 88.5625 -427.59375 86.21875 -425.25 81.53125 -425.25 Z M 81.53125 -399.9375 C 76.84375 -399.9375 74.5 -402.28125 74.5 -406.96875 C 74.5 -411.65625 76.84375 -414 81.53125 -414 C 86.21875 -414 88.5625 -411.65625 88.5625 -406.96875 C 88.5625 -402.28125 86.21875 -399.9375 81.53125 -399.9375 Z M 81.53125 -286.078125 C 76.84375 -286.078125 74.5 -288.421875 74.5 -293.109375 C 74.5 -297.796875 76.84375 -300.140625 81.53125 -300.140625 C 86.21875 -300.140625 88.5625 -297.796875 88.5625 -293.109375 C 88.5625 -288.421875 86.21875 -286.078125 81.53125 -286.078125 Z M 81.53125 -33.734375 C 76.84375 -33.734375 74.5 -36.078125 74.5 -40.765625 C 74.5 -45.453125 76.84375 -47.796875 81.53125 -47.796875 C 86.21875 -47.796875 88.5625 -45.453125 88.5625 -40.765625 C 88.5625 -36.078125 86.21875 -33.734375 81.53125 -33.734375 Z M 81.53125 -5.625 C 76.84375 -5.625 74.5 -7.96875 74.5 -12.65625 C 74.5 -17.34375 76.84375 -19.6875 81.53125 -19.6875 C 86.21875 -19.6875 88.5625 -17.34375 88.5625 -12.65625 C 88.5625 -7.96875 86.21875 -5.625 81.53125 -5.625 Z M 102.625 -248.125 C 97.9375 -248.125 95.59375 -250.46875 95.59375 -255.15625 C 95.59375 -259.832031 97.9375 -262.171875 102.625 -262.171875 C 107.3125 -262.171875 109.65625 -259.832031 109.65625 -255.15625 C 109.65625 -250.46875 107.3125 -248.125 102.625 -248.125 Z M 128.625 -248.125 C 123.9375 -248.125 121.59375 -250.46875 121.59375 -255.15625 C 121.59375 -259.832031 123.9375 -262.171875 128.625 -262.171875 C 133.3125 -262.171875 135.65625 -259.832031 135.65625 -255.15625 C 135.65625 -250.46875 133.3125 -248.125 128.625 -248.125 Z M 154.640625 -248.125 C 149.953125 -248.125 147.609375 -250.46875 147.609375 -255.15625 C 147.609375 -259.832031 149.953125 -262.171875 154.640625 -262.171875 C 159.328125 -262.171875 161.671875 -259.832031 161.671875 -255.15625 C 161.671875 -250.46875 159.328125 -248.125 154.640625 -248.125 Z M 180.640625 -248.125 C 175.953125 -248.125 173.609375 -250.46875 173.609375 -255.15625 C 173.609375 -259.832031 175.953125 -262.171875 180.640625 -262.171875 C 185.328125 -262.171875 187.671875 -259.832031 187.671875 -255.15625 C 187.671875 -250.46875 185.328125 -248.125 180.640625 -248.125 Z M 206.65625 -248.125 C 201.96875 -248.125 199.625 -250.46875 199.625 -255.15625 C 199.625 -259.832031 201.96875 -262.171875 206.65625 -262.171875 C 211.332031 -262.171875 213.671875 -259.832031 213.671875 -255.15625 C 213.671875 -250.46875 211.332031 -248.125 206.65625 -248.125 Z M 232.65625 -248.125 C 227.96875 -248.125 225.625 -250.46875 225.625 -255.15625 C 225.625 -259.832031 227.96875 -262.171875 232.65625 -262.171875 C 237.34375 -262.171875 239.6875 -259.832031 239.6875 -255.15625 C 239.6875 -250.46875 237.34375 -248.125 232.65625 -248.125 Z M 258.65625 -248.125 C 253.976562 -248.125 251.640625 -250.46875 251.640625 -255.15625 C 251.640625 -259.832031 253.976562 -262.171875 258.65625 -262.171875 C 263.34375 -262.171875 265.6875 -259.832031 265.6875 -255.15625 C 265.6875 -250.46875 263.34375 -248.125 258.65625 -248.125 Z M 284.671875 -248.125 C 279.984375 -248.125 277.640625 -250.46875 277.640625 -255.15625 C 277.640625 -259.832031 279.984375 -262.171875 284.671875 -262.171875 C 289.359375 -262.171875 291.703125 -259.832031 291.703125 -255.15625 C 291.703125 -250.46875 289.359375 -248.125 284.671875 -248.125 Z M 310.671875 -248.125 C 305.992188 -248.125 303.65625 -250.46875 303.65625 -255.15625 C 303.65625 -259.832031 305.992188 -262.171875 310.671875 -262.171875 C 315.359375 -262.171875 317.703125 -259.832031 317.703125 -255.15625 C 317.703125 -250.46875 315.359375 -248.125 310.671875 -248.125 Z M 336.6875 -248.125 C 332 -248.125 329.65625 -250.46875 329.65625 -255.15625 C 329.65625 -259.832031 332 -262.171875 336.6875 -262.171875 C 341.375 -262.171875 343.71875 -259.832031 343.71875 -255.15625 C 343.71875 -250.46875 341.375 -248.125 336.6875 -248.125 Z M 362.6875 -248.125 C 358 -248.125 355.65625 -250.46875 355.65625 -255.15625 C 355.65625 -259.832031 358 -262.171875 362.6875 -262.171875 C 367.375 -262.171875 369.71875 -259.832031 369.71875 -255.15625 C 369.71875 -250.46875 367.375 -248.125 362.6875 -248.125 Z M 437.203125 -148.3125 C 432.515625 -148.3125 430.171875 -150.65625 430.171875 -155.34375 C 430.171875 -160.03125 432.515625 -162.375 437.203125 -162.375 C 441.890625 -162.375 444.234375 -160.03125 444.234375 -155.34375 C 444.234375 -150.65625 441.890625 -148.3125 437.203125 -148.3125 Z M 437.203125 -119.484375 C 432.515625 -119.484375 430.171875 -121.828125 430.171875 -126.515625 C 430.171875 -131.203125 432.515625 -133.546875 437.203125 -133.546875 C 441.890625 -133.546875 444.234375 -131.203125 444.234375 -126.515625 C 444.234375 -121.828125 441.890625 -119.484375 437.203125 -119.484375 Z M 437.203125 -90.671875 C 432.515625 -90.671875 430.171875 -93.015625 430.171875 -97.703125 C 430.171875 -102.390625 432.515625 -104.734375 437.203125 -104.734375 C 441.890625 -104.734375 444.234375 -102.390625 444.234375 -97.703125 C 444.234375 -93.015625 441.890625 -90.671875 437.203125 -90.671875 Z M 437.203125 -61.859375 C 432.515625 -61.859375 430.171875 -64.203125 430.171875 -68.890625 C 430.171875 -73.566406 432.515625 -75.90625 437.203125 -75.90625 C 441.890625 -75.90625 444.234375 -73.566406 444.234375 -68.890625 C 444.234375 -64.203125 441.890625 -61.859375 437.203125 -61.859375 Z M 437.203125 -371.828125 C 432.515625 -371.828125 430.171875 -374.171875 430.171875 -378.859375 C 430.171875 -383.546875 432.515625 -385.890625 437.203125 -385.890625 C 441.890625 -385.890625 444.234375 -383.546875 444.234375 -378.859375 C 444.234375 -374.171875 441.890625 -371.828125 437.203125 -371.828125 Z M 437.203125 -344.421875 C 432.515625 -344.421875 430.171875 -346.765625 430.171875 -351.453125 C 430.171875 -356.128906 432.515625 -358.46875 437.203125 -358.46875 C 441.890625 -358.46875 444.234375 -356.128906 444.234375 -351.453125 C 444.234375 -346.765625 441.890625 -344.421875 437.203125 -344.421875 Z M 437.203125 -314.1875 C 432.515625 -314.1875 430.171875 -316.53125 430.171875 -321.21875 C 430.171875 -325.90625 432.515625 -328.25 437.203125 -328.25 C 441.890625 -328.25 444.234375 -325.90625 444.234375 -321.21875 C 444.234375 -316.53125 441.890625 -314.1875 437.203125 -314.1875 Z M 437.203125 -257.953125 C 432.515625 -257.953125 430.171875 -260.296875 430.171875 -264.984375 C 430.171875 -269.671875 432.515625 -272.015625 437.203125 -272.015625 C 441.890625 -272.015625 444.234375 -269.671875 444.234375 -264.984375 C 444.234375 -260.296875 441.890625 -257.953125 437.203125 -257.953125 Z M 437.203125 -231.953125 C 432.515625 -231.953125 430.171875 -234.296875 430.171875 -238.984375 C 430.171875 -243.671875 432.515625 -246.015625 437.203125 -246.015625 C 441.890625 -246.015625 444.234375 -243.671875 444.234375 -238.984375 C 444.234375 -234.296875 441.890625 -231.953125 437.203125 -231.953125 Z M 437.203125 -203.84375 C 432.515625 -203.84375 430.171875 -206.1875 430.171875 -210.875 C 430.171875 -215.550781 432.515625 -217.890625 437.203125 -217.890625 C 441.890625 -217.890625 444.234375 -215.550781 444.234375 -210.875 C 444.234375 -206.1875 441.890625 -203.84375 437.203125 -203.84375 Z M 437.203125 -175.71875 C 432.515625 -175.71875 430.171875 -178.0625 430.171875 -182.75 C 430.171875 -187.4375 432.515625 -189.78125 437.203125 -189.78125 C 441.890625 -189.78125 444.234375 -187.4375 444.234375 -182.75 C 444.234375 -178.0625 441.890625 -175.71875 437.203125 -175.71875 Z M 437.203125 -477.96875 C 432.515625 -477.96875 430.171875 -480.3125 430.171875 -485 C 430.171875 -489.6875 432.515625 -492.03125 437.203125 -492.03125 C 441.890625 -492.03125 444.234375 -489.6875 444.234375 -485 C 444.234375 -480.3125 441.890625 -477.96875 437.203125 -477.96875 Z M 437.203125 -451.953125 C 432.515625 -451.953125 430.171875 -454.296875 430.171875 -458.984375 C 430.171875 -463.671875 432.515625 -466.015625 437.203125 -466.015625 C 441.890625 -466.015625 444.234375 -463.671875 444.234375 -458.984375 C 444.234375 -454.296875 441.890625 -451.953125 437.203125 -451.953125 Z M 437.203125 -425.25 C 432.515625 -425.25 430.171875 -427.59375 430.171875 -432.28125 C 430.171875 -436.96875 432.515625 -439.3125 437.203125 -439.3125 C 441.890625 -439.3125 444.234375 -436.96875 444.234375 -432.28125 C 444.234375 -427.59375 441.890625 -425.25 437.203125 -425.25 Z M 437.203125 -399.9375 C 432.515625 -399.9375 430.171875 -402.28125 430.171875 -406.96875 C 430.171875 -411.65625 432.515625 -414 437.203125 -414 C 441.890625 -414 444.234375 -411.65625 444.234375 -406.96875 C 444.234375 -402.28125 441.890625 -399.9375 437.203125 -399.9375 Z M 437.203125 -286.078125 C 432.515625 -286.078125 430.171875 -288.421875 430.171875 -293.109375 C 430.171875 -297.796875 432.515625 -300.140625 437.203125 -300.140625 C 441.890625 -300.140625 444.234375 -297.796875 444.234375 -293.109375 C 444.234375 -288.421875 441.890625 -286.078125 437.203125 -286.078125 Z M 437.203125 -33.734375 C 432.515625 -33.734375 430.171875 -36.078125 430.171875 -40.765625 C 430.171875 -45.453125 432.515625 -47.796875 437.203125 -47.796875 C 441.890625 -47.796875 444.234375 -45.453125 444.234375 -40.765625 C 444.234375 -36.078125 441.890625 -33.734375 437.203125 -33.734375 Z M 437.203125 -5.625 C 432.515625 -5.625 430.171875 -7.96875 430.171875 -12.65625 C 430.171875 -17.34375 432.515625 -19.6875 437.203125 -19.6875 C 441.890625 -19.6875 444.234375 -17.34375 444.234375 -12.65625 C 444.234375 -7.96875 441.890625 -5.625 437.203125 -5.625 Z M 390.109375 -248.125 C 385.421875 -248.125 383.078125 -250.46875 383.078125 -255.15625 C 383.078125 -259.832031 385.421875 -262.171875 390.109375 -262.171875 C 394.796875 -262.171875 397.140625 -259.832031 397.140625 -255.15625 C 397.140625 -250.46875 394.796875 -248.125 390.109375 -248.125 Z M 416.109375 -248.125 C 411.421875 -248.125 409.078125 -250.46875 409.078125 -255.15625 C 409.078125 -259.832031 411.421875 -262.171875 416.109375 -262.171875 C 420.796875 -262.171875 423.140625 -259.832031 423.140625 -255.15625 C 423.140625 -250.46875 420.796875 -248.125 416.109375 -248.125 Z M 416.109375 -248.125 "/></g></g></g><path stroke-linecap="butt" transform="matrix(0, 0.749333, -0.749333, 0, 82.244973, 196.737531)" fill="none" stroke-linejoin="miter" d="M 0.00100159 2.000285 L 459.107411 2.000285 " stroke="#000000" stroke-width="4" stroke-opacity="1" stroke-miterlimit="4"/><path stroke-linecap="round" transform="matrix(0, 0.749333, -0.749333, 0, 82.244973, 196.737531)" fill="none" stroke-linejoin="round" d="M 451.1055 -3.999845 L 459.107411 2.000285 L 451.1055 8.000416 " stroke="#000000" stroke-width="4" stroke-opacity="1" stroke-miterlimit="4"/><path stroke-linecap="butt" transform="matrix(0, 0.749333, -0.749333, 0, 515.57603, 196.737531)" fill="none" stroke-linejoin="miter" d="M 0.00100159 1.998986 L 459.107411 1.998986 " stroke="#000000" stroke-width="4" stroke-opacity="1" stroke-miterlimit="4"/><path stroke-linecap="round" transform="matrix(0, 0.749333, -0.749333, 0, 515.57603, 196.737531)" fill="none" stroke-linejoin="round" d="M 451.1055 -4.001145 L 459.107411 1.998986 L 451.1055 7.999116 " stroke="#000000" stroke-width="4" stroke-opacity="1" stroke-miterlimit="4"/><path stroke-linecap="butt" transform="matrix(0.749333, 0, 0, 0.749333, 159.863113, 395.483271)" fill="none" stroke-linejoin="miter" d="M 0.000223987 1.998042 L 365.674544 1.998042 " stroke="#000000" stroke-width="4" stroke-opacity="1" stroke-miterlimit="4"/><path stroke-linecap="round" transform="matrix(0.749333, 0, 0, 0.749333, 159.863113, 395.483271)" fill="none" stroke-linejoin="round" d="M 357.672632 -4.002088 L 365.674544 1.998042 L 357.672632 7.998172 " stroke="#000000" stroke-width="4" stroke-opacity="1" stroke-miterlimit="4"/></svg>