<svg xmlns="http://www.w3.org/2000/svg" xmlns:xlink="http://www.w3.org/1999/xlink" width="800" zoomAndPan="magnify" viewBox="0 0 600 899.99999" height="1200" preserveAspectRatio="xMidYMid meet" version="1.0"><defs><g/><clipPath id="0369a993e4"><path d="M 91.679688 261.609375 L 132.921875 261.609375 L 132.921875 288.402344 L 91.679688 288.402344 Z M 91.679688 261.609375 " clip-rule="nonzero"/></clipPath><clipPath id="9e5de5ecaa"><path d="M 465.019531 261.609375 L 506.261719 261.609375 L 506.261719 288.402344 L 465.019531 288.402344 Z M 465.019531 261.609375 " clip-rule="nonzero"/></clipPath><clipPath id="a928b8a9ab"><path d="M 161.808594 471.097656 L 188.597656 471.097656 L 188.597656 512.34375 L 161.808594 512.34375 Z M 161.808594 471.097656 " clip-rule="nonzero"/></clipPath></defs><path stroke-linecap="butt" transform="matrix(0.75, 0, 0, 0.75, 8.387698, -15.449276)" fill="none" stroke-linejoin="miter" d="M 141.957035 1042.104298 C 121.165367 1042.104298 105.201825 1036.208464 94.066408 1024.422005 C 82.93099 1012.630338 77.363282 996.33867 77.363282 975.547002 L 77.363282 383.151138 C 77.363282 361.70322 82.93099 345.328219 94.066408 334.031344 C 105.201825 322.567802 121.165367 316.838635 141.957035 316.838635 C 162.753911 316.838635 178.63412 322.567802 189.608079 334.031344 C 200.738288 345.328219 206.305997 361.70322 206.305997 383.151138 L 206.305997 620.65115 L 571.519558 620.65115 L 571.519558 383.151138 C 571.519558 361.70322 577.003933 345.328219 587.972683 334.031344 C 599.108101 322.567802 615.071643 316.838635 635.868519 316.838635 C 656.660187 316.838635 672.540396 322.567802 683.514355 334.031344 C 694.649772 345.328219 700.212273 361.70322 700.212273 383.151138 L 700.212273 975.547002 C 700.212273 996.33867 694.649772 1012.630338 683.514355 1024.422005 C 672.540396 1036.208464 656.660187 1042.104298 635.868519 1042.104298 C 615.071643 1042.104298 599.108101 1036.208464 587.972683 1024.422005 C 577.003933 1012.630338 571.519558 996.33867 571.519558 975.547002 L 571.519558 728.224073 L 206.305997 728.224073 L 206.305997 975.547002 C 206.305997 996.33867 200.904955 1012.630338 190.097663 1024.422005 C 179.451829 1036.208464 163.410161 1042.104298 141.957035 1042.104298 Z M 141.957035 1042.104298 " stroke="#1f8785" stroke-width="40.239601" stroke-opacity="1" stroke-miterlimit="4"/><g fill="#ffffff" fill-opacity="1"><g transform="translate(8.387698, 760.050683)"><g><path d="M 106.390625 6.03125 C 90.796875 6.03125 78.847656 1.628906 70.546875 -7.171875 C 62.242188 -15.972656 58.09375 -28.171875 58.09375 -43.765625 L 58.09375 -488.15625 C 58.09375 -504.257812 62.242188 -516.582031 70.546875 -525.125 C 78.847656 -533.675781 90.796875 -537.953125 106.390625 -537.953125 C 121.984375 -537.953125 133.925781 -533.675781 142.21875 -525.125 C 150.519531 -516.582031 154.671875 -504.257812 154.671875 -488.15625 L 154.671875 -310.09375 L 428.5625 -310.09375 L 428.5625 -488.15625 C 428.5625 -504.257812 432.707031 -516.582031 441 -525.125 C 449.300781 -533.675781 461.25 -537.953125 476.84375 -537.953125 C 492.4375 -537.953125 504.378906 -533.675781 512.671875 -525.125 C 520.972656 -516.582031 525.125 -504.257812 525.125 -488.15625 L 525.125 -43.765625 C 525.125 -28.171875 520.972656 -15.972656 512.671875 -7.171875 C 504.378906 1.628906 492.4375 6.03125 476.84375 6.03125 C 461.25 6.03125 449.300781 1.628906 441 -7.171875 C 432.707031 -15.972656 428.5625 -28.171875 428.5625 -43.765625 L 428.5625 -229.375 L 154.671875 -229.375 L 154.671875 -43.765625 C 154.671875 -28.171875 150.644531 -15.972656 142.59375 -7.171875 C 134.550781 1.628906 122.484375 6.03125 106.390625 6.03125 Z M 106.390625 6.03125 "/></g></g></g><g clip-path="url(#0369a993e4)"><path fill="#1f8785" d="M 113.78125 287.65625 L 132.441406 264.964844 C 133.847656 263.257812 131.914062 260.847656 129.941406 261.847656 L 113.128906 270.386719 C 112.550781 270.679688 111.863281 270.679688 111.28125 270.386719 L 94.46875 261.847656 C 92.496094 260.84375 90.5625 263.253906 91.964844 264.964844 L 110.628906 287.65625 C 111.445312 288.652344 112.964844 288.652344 113.78125 287.65625 " fill-opacity="1" fill-rule="nonzero"/></g><path fill="#1f8785" d="M 106.207031 725.792969 L 106.207031 689.792969 L 118.207031 689.792969 L 118.207031 725.792969 M 106.207031 677.792969 L 106.207031 641.792969 L 118.207031 641.792969 L 118.207031 677.792969 M 106.207031 629.792969 L 106.207031 593.792969 L 118.207031 593.792969 L 118.207031 629.792969 M 106.207031 581.792969 L 106.207031 545.792969 L 118.207031 545.792969 L 118.207031 581.792969 M 106.207031 533.792969 L 106.207031 497.792969 L 118.207031 497.792969 L 118.207031 533.792969 M 106.207031 485.792969 L 106.207031 449.792969 L 118.207031 449.792969 L 118.207031 485.792969 M 106.207031 437.792969 L 106.207031 401.792969 L 118.207031 401.792969 L 118.207031 437.792969 M 106.207031 389.792969 L 106.207031 353.792969 L 118.207031 353.792969 L 118.207031 389.792969 M 106.207031 341.792969 L 106.207031 305.792969 L 118.207031 305.792969 L 118.207031 341.792969 " fill-opacity="1" fill-rule="nonzero"/><g clip-path="url(#9e5de5ecaa)"><path fill="#1f8785" d="M 487.121094 287.65625 L 505.78125 264.964844 C 507.1875 263.257812 505.25 260.847656 503.28125 261.847656 L 486.46875 270.386719 C 485.886719 270.679688 485.203125 270.679688 484.621094 270.386719 L 467.804688 261.847656 C 465.835938 260.84375 463.902344 263.253906 465.304688 264.964844 L 483.964844 287.65625 C 484.785156 288.652344 486.304688 288.652344 487.121094 287.65625 " fill-opacity="1" fill-rule="nonzero"/></g><path fill="#1f8785" d="M 479.542969 725.792969 L 479.542969 689.792969 L 491.542969 689.792969 L 491.542969 725.792969 M 479.542969 677.792969 L 479.542969 641.792969 L 491.542969 641.792969 L 491.542969 677.792969 M 479.542969 629.792969 L 479.542969 593.792969 L 491.542969 593.792969 L 491.542969 629.792969 M 479.542969 581.792969 L 479.542969 545.792969 L 491.542969 545.792969 L 491.542969 581.792969 M 479.542969 533.792969 L 479.542969 497.792969 L 491.542969 497.792969 L 491.542969 533.792969 M 479.542969 485.792969 L 479.542969 449.792969 L 491.542969 449.792969 L 491.542969 485.792969 M 479.542969 437.792969 L 479.542969 401.792969 L 491.542969 401.792969 L 491.542969 437.792969 M 479.542969 389.792969 L 479.542969 353.792969 L 491.542969 353.792969 L 491.542969 389.792969 M 479.542969 341.792969 L 479.542969 305.792969 L 491.542969 305.792969 L 491.542969 341.792969 " fill-opacity="1" fill-rule="nonzero"/><g clip-path="url(#a928b8a9ab)"><path fill="#1f8785" d="M 187.851562 490.238281 L 165.160156 471.578125 C 163.453125 470.175781 161.042969 472.109375 162.042969 474.082031 L 170.582031 490.890625 C 170.878906 491.472656 170.878906 492.160156 170.582031 492.742188 L 162.042969 509.554688 C 161.039062 511.527344 163.453125 513.460938 165.160156 512.054688 L 187.851562 493.394531 C 188.847656 492.578125 188.847656 491.058594 187.851562 490.238281 " fill-opacity="1" fill-rule="nonzero"/></g><path fill="#1f8785" d="M 429.203125 497.820312 L 393.203125 497.820312 L 393.203125 485.820312 L 429.203125 485.820312 M 381.203125 497.820312 L 345.203125 497.820312 L 345.203125 485.820312 L 381.203125 485.820312 M 333.203125 497.820312 L 297.203125 497.820312 L 297.203125 485.820312 L 333.203125 485.820312 M 285.203125 497.820312 L 249.203125 497.820312 L 249.203125 485.820312 L 285.203125 485.820312 M 237.203125 497.820312 L 204.882812 497.820312 L 204.882812 485.820312 L 237.203125 485.820312 " fill-opacity="1" fill-rule="nonzero"/></svg>