<svg xmlns="http://www.w3.org/2000/svg" xmlns:xlink="http://www.w3.org/1999/xlink" width="794" zoomAndPan="magnify" viewBox="0 0 594.95996 842.24997" height="1123" preserveAspectRatio="xMidYMid meet" version="1.0"><defs><clipPath id="6f335ad954"><path d="M 238.875 99.433594 L 356.523438 99.433594 L 356.523438 741.613281 L 238.875 741.613281 Z M 238.875 99.433594 " clip-rule="nonzero"/></clipPath></defs><path fill="#ffffff" d="M 294.765625 735.394531 C 267.289062 735.394531 244.9375 713.074219 244.9375 685.640625 L 244.9375 155.425781 C 244.9375 127.992188 267.289062 105.675781 294.765625 105.675781 L 300.644531 105.675781 C 328.121094 105.675781 350.472656 127.992188 350.472656 155.425781 L 350.472656 685.644531 C 350.472656 713.074219 328.121094 735.394531 300.644531 735.394531 Z M 294.765625 735.394531 " fill-opacity="1" fill-rule="nonzero"/><g clip-path="url(#6f335ad954)"><path fill="#000000" d="M 300.644531 105.675781 C 328.121094 105.675781 350.472656 127.992188 350.472656 155.425781 L 350.472656 685.644531 C 350.472656 713.074219 328.121094 735.394531 300.644531 735.394531 L 294.765625 735.394531 C 267.289062 735.394531 244.9375 713.074219 244.9375 685.644531 L 244.9375 155.425781 C 244.9375 127.992188 267.289062 105.675781 294.765625 105.675781 L 300.644531 105.675781 M 300.644531 99.621094 L 294.765625 99.621094 C 263.949219 99.621094 238.875 124.65625 238.875 155.425781 L 238.875 685.644531 C 238.875 716.414062 263.949219 741.445312 294.765625 741.445312 L 300.644531 741.445312 C 331.460938 741.445312 356.535156 716.414062 356.535156 685.644531 L 356.535156 155.425781 C 356.53125 124.65625 331.460938 99.621094 300.644531 99.621094 Z M 300.644531 99.621094 " fill-opacity="1" fill-rule="nonzero"/></g><path fill="#58595b" d="M 299.523438 696.160156 L 296.492188 696.160156 L 296.492188 689.441406 L 299.523438 689.441406 Z M 299.523438 677.335938 L 296.492188 677.335938 L 296.492188 665.234375 L 299.523438 665.234375 Z M 299.523438 653.128906 L 296.492188 653.128906 L 296.492188 641.023438 L 299.523438 641.023438 Z M 299.523438 628.917969 L 296.492188 628.917969 L 296.492188 616.8125 L 299.523438 616.8125 Z M 299.523438 604.710938 L 296.492188 604.710938 L 296.492188 592.605469 L 299.523438 592.605469 Z M 299.523438 580.5 L 296.492188 580.5 L 296.492188 568.394531 L 299.523438 568.394531 Z M 299.523438 556.289062 L 296.492188 556.289062 L 296.492188 544.183594 L 299.523438 544.183594 Z M 299.523438 532.082031 L 296.492188 532.082031 L 296.492188 519.976562 L 299.523438 519.976562 Z M 299.523438 507.871094 L 296.492188 507.871094 L 296.492188 495.765625 L 299.523438 495.765625 Z M 299.523438 483.660156 L 296.492188 483.660156 L 296.492188 471.558594 L 299.523438 471.558594 Z M 299.523438 459.453125 L 296.492188 459.453125 L 296.492188 447.347656 L 299.523438 447.347656 Z M 299.523438 435.242188 L 296.492188 435.242188 L 296.492188 423.136719 L 299.523438 423.136719 Z M 299.523438 411.035156 L 296.492188 411.035156 L 296.492188 398.929688 L 299.523438 398.929688 Z M 299.523438 386.824219 L 296.492188 386.824219 L 296.492188 374.71875 L 299.523438 374.71875 Z M 299.523438 362.613281 L 296.492188 362.613281 L 296.492188 350.511719 L 299.523438 350.511719 Z M 299.523438 338.40625 L 296.492188 338.40625 L 296.492188 326.300781 L 299.523438 326.300781 Z M 299.523438 314.195312 L 296.492188 314.195312 L 296.492188 302.089844 L 299.523438 302.089844 Z M 299.523438 289.984375 L 296.492188 289.984375 L 296.492188 277.882812 L 299.523438 277.882812 Z M 299.523438 265.777344 L 296.492188 265.777344 L 296.492188 253.671875 L 299.523438 253.671875 Z M 299.523438 241.566406 L 296.492188 241.566406 L 296.492188 229.460938 L 299.523438 229.460938 Z M 299.523438 217.359375 L 296.492188 217.359375 L 296.492188 205.253906 L 299.523438 205.253906 Z M 299.523438 193.148438 L 296.492188 193.148438 L 296.492188 181.042969 L 299.523438 181.042969 Z M 299.523438 193.148438 " fill-opacity="1" fill-rule="nonzero"/><path fill="#58595b" d="M 298.007812 709.636719 L 285.601562 688.183594 L 310.410156 688.183594 Z M 298.007812 709.636719 " fill-opacity="1" fill-rule="nonzero"/><path fill="#414042" d="M 325.429688 157.226562 C 325.429688 158.125 325.386719 159.019531 325.296875 159.910156 C 325.207031 160.800781 325.078125 161.6875 324.902344 162.566406 C 324.726562 163.449219 324.507812 164.316406 324.25 165.175781 C 323.988281 166.03125 323.683594 166.875 323.339844 167.703125 C 322.996094 168.53125 322.613281 169.34375 322.191406 170.132812 C 321.769531 170.925781 321.304688 171.691406 320.808594 172.4375 C 320.308594 173.183594 319.773438 173.902344 319.203125 174.597656 C 318.636719 175.289062 318.03125 175.953125 317.398438 176.585938 C 316.761719 177.222656 316.097656 177.824219 315.402344 178.390625 C 314.710938 178.960938 313.988281 179.492188 313.242188 179.992188 C 312.496094 180.492188 311.726562 180.949219 310.933594 181.375 C 310.140625 181.796875 309.332031 182.179688 308.5 182.523438 C 307.671875 182.867188 306.828125 183.167969 305.96875 183.425781 C 305.109375 183.6875 304.238281 183.90625 303.355469 184.082031 C 302.476562 184.253906 301.589844 184.386719 300.695312 184.472656 C 299.800781 184.5625 298.90625 184.605469 298.007812 184.605469 C 297.109375 184.605469 296.214844 184.5625 295.320312 184.472656 C 294.425781 184.386719 293.539062 184.253906 292.65625 184.082031 C 291.777344 183.90625 290.90625 183.6875 290.046875 183.425781 C 289.1875 183.167969 288.34375 182.867188 287.511719 182.523438 C 286.683594 182.179688 285.871094 181.796875 285.082031 181.375 C 284.289062 180.949219 283.519531 180.492188 282.773438 179.992188 C 282.027344 179.492188 281.304688 178.960938 280.609375 178.390625 C 279.917969 177.824219 279.253906 177.222656 278.617188 176.585938 C 277.980469 175.953125 277.378906 175.289062 276.808594 174.597656 C 276.242188 173.902344 275.707031 173.183594 275.207031 172.4375 C 274.707031 171.691406 274.246094 170.925781 273.824219 170.132812 C 273.398438 169.34375 273.015625 168.53125 272.671875 167.703125 C 272.328125 166.875 272.027344 166.03125 271.765625 165.175781 C 271.503906 164.316406 271.289062 163.449219 271.113281 162.566406 C 270.9375 161.6875 270.804688 160.800781 270.71875 159.910156 C 270.628906 159.019531 270.585938 158.125 270.585938 157.226562 C 270.585938 156.328125 270.628906 155.433594 270.71875 154.542969 C 270.804688 153.652344 270.9375 152.765625 271.113281 151.886719 C 271.289062 151.003906 271.503906 150.136719 271.765625 149.277344 C 272.027344 148.421875 272.328125 147.578125 272.671875 146.75 C 273.015625 145.921875 273.398438 145.109375 273.824219 144.320312 C 274.246094 143.527344 274.707031 142.761719 275.207031 142.015625 C 275.707031 141.269531 276.242188 140.550781 276.808594 139.855469 C 277.378906 139.164062 277.980469 138.5 278.617188 137.867188 C 279.253906 137.230469 279.917969 136.628906 280.609375 136.0625 C 281.304688 135.492188 282.027344 134.960938 282.773438 134.460938 C 283.519531 133.960938 284.289062 133.503906 285.082031 133.078125 C 285.871094 132.65625 286.683594 132.273438 287.511719 131.929688 C 288.34375 131.585938 289.1875 131.285156 290.046875 131.027344 C 290.90625 130.765625 291.777344 130.546875 292.65625 130.371094 C 293.539062 130.199219 294.425781 130.066406 295.320312 129.976562 C 296.214844 129.890625 297.109375 129.847656 298.007812 129.847656 C 298.90625 129.847656 299.800781 129.890625 300.695312 129.976562 C 301.589844 130.066406 302.476562 130.199219 303.355469 130.371094 C 304.238281 130.546875 305.109375 130.765625 305.96875 131.027344 C 306.828125 131.285156 307.671875 131.585938 308.5 131.929688 C 309.332031 132.273438 310.140625 132.65625 310.933594 133.078125 C 311.726562 133.503906 312.496094 133.960938 313.242188 134.460938 C 313.988281 134.960938 314.710938 135.492188 315.402344 136.0625 C 316.097656 136.628906 316.761719 137.230469 317.398438 137.867188 C 318.03125 138.5 318.636719 139.164062 319.203125 139.855469 C 319.773438 140.550781 320.308594 141.269531 320.808594 142.015625 C 321.304688 142.761719 321.769531 143.527344 322.191406 144.320312 C 322.613281 145.109375 322.996094 145.921875 323.339844 146.75 C 323.683594 147.578125 323.988281 148.421875 324.25 149.277344 C 324.507812 150.136719 324.726562 151.003906 324.902344 151.886719 C 325.078125 152.765625 325.207031 153.652344 325.296875 154.542969 C 325.386719 155.433594 325.429688 156.328125 325.429688 157.226562 Z M 325.429688 157.226562 " fill-opacity="1" fill-rule="nonzero"/><path fill="#fcfcfc" d="M 301.183594 138.480469 L 297.660156 138.480469 C 297.261719 138.480469 296.882812 138.65625 296.621094 138.960938 L 286.253906 151.066406 C 285.796875 151.609375 285.824219 152.414062 286.328125 152.917969 L 288.300781 154.882812 C 288.832031 155.414062 289.691406 155.414062 290.222656 154.890625 L 296.296875 148.898438 L 296.296875 175.136719 C 296.296875 175.886719 296.910156 176.5 297.660156 176.5 L 301.179688 176.5 C 301.933594 176.5 302.546875 175.886719 302.546875 175.136719 L 302.546875 139.84375 C 302.546875 139.09375 301.933594 138.480469 301.183594 138.480469 Z M 301.183594 138.480469 " fill-opacity="1" fill-rule="nonzero"/></svg>