<svg xmlns="http://www.w3.org/2000/svg" xmlns:xlink="http://www.w3.org/1999/xlink" width="794" zoomAndPan="magnify" viewBox="0 0 594.95996 842.24997" height="1123" preserveAspectRatio="xMidYMid meet" version="1.0"><defs><g/></defs><g fill="#000000" fill-opacity="1"><g transform="translate(216.781076, 608.138473)"><g><path d="M 81.53125 -496.234375 C 76.84375 -496.234375 74.5 -498.578125 74.5 -503.265625 C 74.5 -507.953125 76.84375 -510.296875 81.53125 -510.296875 C 86.21875 -510.296875 88.5625 -507.953125 88.5625 -503.265625 C 88.5625 -498.578125 86.21875 -496.234375 81.53125 -496.234375 Z M 81.53125 -472.34375 C 76.84375 -472.34375 74.5 -474.6875 74.5 -479.375 C 74.5 -484.0625 76.84375 -486.40625 81.53125 -486.40625 C 86.21875 -486.40625 88.5625 -484.0625 88.5625 -479.375 C 88.5625 -474.6875 86.21875 -472.34375 81.53125 -472.34375 Z M 81.53125 -447.734375 C 76.84375 -447.734375 74.5 -450.078125 74.5 -454.765625 C 74.5 -459.453125 76.84375 -461.796875 81.53125 -461.796875 C 86.21875 -461.796875 88.5625 -459.453125 88.5625 -454.765625 C 88.5625 -450.078125 86.21875 -447.734375 81.53125 -447.734375 Z M 81.53125 -423.140625 C 76.84375 -423.140625 74.5 -425.484375 74.5 -430.171875 C 74.5 -434.859375 76.84375 -437.203125 81.53125 -437.203125 C 86.21875 -437.203125 88.5625 -434.859375 88.5625 -430.171875 C 88.5625 -425.484375 86.21875 -423.140625 81.53125 -423.140625 Z M 81.53125 -398.53125 C 76.84375 -398.53125 74.5 -400.875 74.5 -405.5625 C 74.5 -410.25 76.84375 -412.59375 81.53125 -412.59375 C 86.21875 -412.59375 88.5625 -410.25 88.5625 -405.5625 C 88.5625 -400.875 86.21875 -398.53125 81.53125 -398.53125 Z M 81.53125 -373.9375 C 76.84375 -373.9375 74.5 -376.28125 74.5 -380.96875 C 74.5 -385.65625 76.84375 -388 81.53125 -388 C 86.21875 -388 88.5625 -385.65625 88.5625 -380.96875 C 88.5625 -376.28125 86.21875 -373.9375 81.53125 -373.9375 Z M 81.53125 -349.34375 C 76.84375 -349.34375 74.5 -351.679688 74.5 -356.359375 C 74.5 -361.046875 76.84375 -363.390625 81.53125 -363.390625 C 86.21875 -363.390625 88.5625 -361.046875 88.5625 -356.359375 C 88.5625 -351.679688 86.21875 -349.34375 81.53125 -349.34375 Z M 81.53125 -324.734375 C 76.84375 -324.734375 74.5 -327.078125 74.5 -331.765625 C 74.5 -336.453125 76.84375 -338.796875 81.53125 -338.796875 C 86.21875 -338.796875 88.5625 -336.453125 88.5625 -331.765625 C 88.5625 -327.078125 86.21875 -324.734375 81.53125 -324.734375 Z M 81.53125 -299.4375 C 76.84375 -299.4375 74.5 -301.773438 74.5 -306.453125 C 74.5 -311.140625 76.84375 -313.484375 81.53125 -313.484375 C 86.21875 -313.484375 88.5625 -311.140625 88.5625 -306.453125 C 88.5625 -301.773438 86.21875 -299.4375 81.53125 -299.4375 Z M 81.53125 -274.828125 C 76.84375 -274.828125 74.5 -277.171875 74.5 -281.859375 C 74.5 -286.546875 76.84375 -288.890625 81.53125 -288.890625 C 86.21875 -288.890625 88.5625 -286.546875 88.5625 -281.859375 C 88.5625 -277.171875 86.21875 -274.828125 81.53125 -274.828125 Z M 81.53125 -250.234375 C 76.84375 -250.234375 74.5 -252.578125 74.5 -257.265625 C 74.5 -261.941406 76.84375 -264.28125 81.53125 -264.28125 C 86.21875 -264.28125 88.5625 -261.941406 88.5625 -257.265625 C 88.5625 -252.578125 86.21875 -250.234375 81.53125 -250.234375 Z M 81.53125 -225.625 C 76.84375 -225.625 74.5 -227.96875 74.5 -232.65625 C 74.5 -237.34375 76.84375 -239.6875 81.53125 -239.6875 C 86.21875 -239.6875 88.5625 -237.34375 88.5625 -232.65625 C 88.5625 -227.96875 86.21875 -225.625 81.53125 -225.625 Z M 81.53125 -201.03125 C 76.84375 -201.03125 74.5 -203.375 74.5 -208.0625 C 74.5 -212.738281 76.84375 -215.078125 81.53125 -215.078125 C 86.21875 -215.078125 88.5625 -212.738281 88.5625 -208.0625 C 88.5625 -203.375 86.21875 -201.03125 81.53125 -201.03125 Z M 81.53125 -176.421875 C 76.84375 -176.421875 74.5 -178.765625 74.5 -183.453125 C 74.5 -188.140625 76.84375 -190.484375 81.53125 -190.484375 C 86.21875 -190.484375 88.5625 -188.140625 88.5625 -183.453125 C 88.5625 -178.765625 86.21875 -176.421875 81.53125 -176.421875 Z M 81.53125 -151.828125 C 76.84375 -151.828125 74.5 -154.171875 74.5 -158.859375 C 74.5 -163.535156 76.84375 -165.875 81.53125 -165.875 C 86.21875 -165.875 88.5625 -163.535156 88.5625 -158.859375 C 88.5625 -154.171875 86.21875 -151.828125 81.53125 -151.828125 Z M 81.53125 -127.21875 C 76.84375 -127.21875 74.5 -129.5625 74.5 -134.25 C 74.5 -138.9375 76.84375 -141.28125 81.53125 -141.28125 C 86.21875 -141.28125 88.5625 -138.9375 88.5625 -134.25 C 88.5625 -129.5625 86.21875 -127.21875 81.53125 -127.21875 Z M 81.53125 -101.21875 C 76.84375 -101.21875 74.5 -103.5625 74.5 -108.25 C 74.5 -112.9375 76.84375 -115.28125 81.53125 -115.28125 C 86.21875 -115.28125 88.5625 -112.9375 88.5625 -108.25 C 88.5625 -103.5625 86.21875 -101.21875 81.53125 -101.21875 Z M 81.53125 -76.609375 C 76.84375 -76.609375 74.5 -78.953125 74.5 -83.640625 C 74.5 -88.328125 76.84375 -90.671875 81.53125 -90.671875 C 86.21875 -90.671875 88.5625 -88.328125 88.5625 -83.640625 C 88.5625 -78.953125 86.21875 -76.609375 81.53125 -76.609375 Z M 81.53125 -52.015625 C 76.84375 -52.015625 74.5 -54.359375 74.5 -59.046875 C 74.5 -63.734375 76.84375 -66.078125 81.53125 -66.078125 C 86.21875 -66.078125 88.5625 -63.734375 88.5625 -59.046875 C 88.5625 -54.359375 86.21875 -52.015625 81.53125 -52.015625 Z M 81.53125 -27.40625 C 76.84375 -27.40625 74.5 -29.75 74.5 -34.4375 C 74.5 -39.125 76.84375 -41.46875 81.53125 -41.46875 C 86.21875 -41.46875 88.5625 -39.125 88.5625 -34.4375 C 88.5625 -29.75 86.21875 -27.40625 81.53125 -27.40625 Z M 81.53125 -2.8125 C 76.84375 -2.8125 74.5 -5.15625 74.5 -9.84375 C 74.5 -14.53125 76.84375 -16.875 81.53125 -16.875 C 86.21875 -16.875 88.5625 -14.53125 88.5625 -9.84375 C 88.5625 -5.15625 86.21875 -2.8125 81.53125 -2.8125 Z M 81.53125 -2.8125 "/></g></g></g><path stroke-linecap="butt" transform="matrix(0, 0.749333, -0.749333, 0, 260.232143, 154.259969)" fill="none" stroke-linejoin="miter" d="M 0.00233549 1.998802 L 548.125448 1.998802 " stroke="#000000" stroke-width="4" stroke-opacity="1" stroke-miterlimit="4"/><path stroke-linecap="round" transform="matrix(0, 0.749333, -0.749333, 0, 260.232143, 154.259969)" fill="none" stroke-linejoin="round" d="M 540.123537 -4.001328 L 548.125448 1.998802 L 540.123537 7.998932 " stroke="#000000" stroke-width="4" stroke-opacity="1" stroke-miterlimit="4"/></svg>