<svg xmlns="http://www.w3.org/2000/svg" xmlns:xlink="http://www.w3.org/1999/xlink" width="800" zoomAndPan="magnify" viewBox="0 0 600 899.99999" height="1200" preserveAspectRatio="xMidYMid meet" version="1.0"><defs><g/><clipPath id="2805213d9a"><path d="M 279.472656 267.003906 L 320.714844 267.003906 L 320.714844 293.792969 L 279.472656 293.792969 Z M 279.472656 267.003906 " clip-rule="nonzero"/></clipPath></defs><path stroke-linecap="butt" transform="matrix(0.75, 0, 0, 0.75, 193.61425, -15.449276)" fill="none" stroke-linejoin="miter" d="M 141.957049 1042.104298 C 121.165382 1042.104298 105.201839 1036.208464 94.066422 1024.422005 C 82.931005 1012.630338 77.363296 996.33867 77.363296 975.547002 L 77.363296 383.151138 C 77.363296 361.70322 82.931005 345.328219 94.066422 334.031344 C 105.201839 322.567802 121.165382 316.838635 141.957049 316.838635 C 162.753925 316.838635 178.634135 322.567802 189.608093 334.031344 C 200.738302 345.328219 206.306011 361.70322 206.306011 383.151138 L 206.306011 975.547002 C 206.306011 996.33867 200.904969 1012.630338 190.097677 1024.422005 C 179.451843 1036.208464 163.410175 1042.104298 141.957049 1042.104298 Z M 141.957049 1042.104298 " stroke="#1f8785" stroke-width="40.239601" stroke-opacity="1" stroke-miterlimit="4"/><g fill="#ffffff" fill-opacity="1"><g transform="translate(193.61425, 760.050683)"><g><path d="M 106.390625 6.03125 C 90.796875 6.03125 78.847656 1.628906 70.546875 -7.171875 C 62.242188 -15.972656 58.09375 -28.171875 58.09375 -43.765625 L 58.09375 -488.15625 C 58.09375 -504.257812 62.242188 -516.582031 70.546875 -525.125 C 78.847656 -533.675781 90.796875 -537.953125 106.390625 -537.953125 C 121.984375 -537.953125 133.925781 -533.675781 142.21875 -525.125 C 150.519531 -516.582031 154.671875 -504.257812 154.671875 -488.15625 L 154.671875 -43.765625 C 154.671875 -28.171875 150.644531 -15.972656 142.59375 -7.171875 C 134.550781 1.628906 122.484375 6.03125 106.390625 6.03125 Z M 106.390625 6.03125 "/></g></g></g><g clip-path="url(#2805213d9a)"><path fill="#1f8785" d="M 301.574219 293.046875 L 320.234375 270.355469 C 321.640625 268.648438 319.707031 266.238281 317.734375 267.238281 L 300.921875 275.777344 C 300.34375 276.074219 299.65625 276.074219 299.074219 275.777344 L 282.261719 267.238281 C 280.289062 266.234375 278.355469 268.648438 279.757812 270.355469 L 298.421875 293.046875 C 299.238281 294.042969 300.757812 294.042969 301.574219 293.046875 " fill-opacity="1" fill-rule="nonzero"/></g><path fill="#1f8785" d="M 294 731.183594 L 294 695.183594 L 306 695.183594 L 306 731.183594 M 294 683.183594 L 294 647.183594 L 306 647.183594 L 306 683.183594 M 294 635.183594 L 294 599.183594 L 306 599.183594 L 306 635.183594 M 294 587.183594 L 294 551.183594 L 306 551.183594 L 306 587.183594 M 294 539.183594 L 294 503.183594 L 306 503.183594 L 306 539.183594 M 294 491.183594 L 294 455.183594 L 306 455.183594 L 306 491.183594 M 294 443.183594 L 294 407.183594 L 306 407.183594 L 306 443.183594 M 294 395.183594 L 294 359.183594 L 306 359.183594 L 306 395.183594 M 294 347.183594 L 294 311.183594 L 306 311.183594 L 306 347.183594 " fill-opacity="1" fill-rule="nonzero"/></svg>