<svg xmlns="http://www.w3.org/2000/svg" xmlns:xlink="http://www.w3.org/1999/xlink" width="794" zoomAndPan="magnify" viewBox="0 0 594.95996 842.24997" height="1123" preserveAspectRatio="xMidYMid meet" version="1.0"><defs><g/></defs><g fill="#000000" fill-opacity="1"><g transform="translate(128.211975, 608.138473)"><g><path d="M 263.578125 -477.96875 C 258.898438 -477.96875 256.5625 -480.3125 256.5625 -485 C 256.5625 -489.6875 258.898438 -492.03125 263.578125 -492.03125 C 268.265625 -492.03125 270.609375 -489.6875 270.609375 -485 C 270.609375 -480.3125 268.265625 -477.96875 263.578125 -477.96875 Z M 263.578125 -451.953125 C 258.898438 -451.953125 256.5625 -454.296875 256.5625 -458.984375 C 256.5625 -463.671875 258.898438 -466.015625 263.578125 -466.015625 C 268.265625 -466.015625 270.609375 -463.671875 270.609375 -458.984375 C 270.609375 -454.296875 268.265625 -451.953125 263.578125 -451.953125 Z M 263.578125 -425.25 C 258.898438 -425.25 256.5625 -427.59375 256.5625 -432.28125 C 256.5625 -436.96875 258.898438 -439.3125 263.578125 -439.3125 C 268.265625 -439.3125 270.609375 -436.96875 270.609375 -432.28125 C 270.609375 -427.59375 268.265625 -425.25 263.578125 -425.25 Z M 263.578125 -398.53125 C 258.898438 -398.53125 256.5625 -400.875 256.5625 -405.5625 C 256.5625 -410.25 258.898438 -412.59375 263.578125 -412.59375 C 268.265625 -412.59375 270.609375 -410.25 270.609375 -405.5625 C 270.609375 -400.875 268.265625 -398.53125 263.578125 -398.53125 Z M 263.578125 -372.53125 C 258.898438 -372.53125 256.5625 -374.875 256.5625 -379.5625 C 256.5625 -384.25 258.898438 -386.59375 263.578125 -386.59375 C 268.265625 -386.59375 270.609375 -384.25 270.609375 -379.5625 C 270.609375 -374.875 268.265625 -372.53125 263.578125 -372.53125 Z M 263.578125 -345.125 C 258.898438 -345.125 256.5625 -347.460938 256.5625 -352.140625 C 256.5625 -356.828125 258.898438 -359.171875 263.578125 -359.171875 C 268.265625 -359.171875 270.609375 -356.828125 270.609375 -352.140625 C 270.609375 -347.460938 268.265625 -345.125 263.578125 -345.125 Z M 263.578125 -314.1875 C 258.898438 -314.1875 256.5625 -316.53125 256.5625 -321.21875 C 256.5625 -325.90625 258.898438 -328.25 263.578125 -328.25 C 268.265625 -328.25 270.609375 -325.90625 270.609375 -321.21875 C 270.609375 -316.53125 268.265625 -314.1875 263.578125 -314.1875 Z M 263.578125 -288.1875 C 258.898438 -288.1875 256.5625 -290.53125 256.5625 -295.21875 C 256.5625 -299.90625 258.898438 -302.25 263.578125 -302.25 C 268.265625 -302.25 270.609375 -299.90625 270.609375 -295.21875 C 270.609375 -290.53125 268.265625 -288.1875 263.578125 -288.1875 Z M 263.578125 -259.359375 C 258.898438 -259.359375 256.5625 -261.703125 256.5625 -266.390625 C 256.5625 -271.078125 258.898438 -273.421875 263.578125 -273.421875 C 268.265625 -273.421875 270.609375 -271.078125 270.609375 -266.390625 C 270.609375 -261.703125 268.265625 -259.359375 263.578125 -259.359375 Z M 263.578125 -231.953125 C 258.898438 -231.953125 256.5625 -234.296875 256.5625 -238.984375 C 256.5625 -243.671875 258.898438 -246.015625 263.578125 -246.015625 C 268.265625 -246.015625 270.609375 -243.671875 270.609375 -238.984375 C 270.609375 -234.296875 268.265625 -231.953125 263.578125 -231.953125 Z M 263.578125 -204.546875 C 258.898438 -204.546875 256.5625 -206.882812 256.5625 -211.5625 C 256.5625 -216.25 258.898438 -218.59375 263.578125 -218.59375 C 268.265625 -218.59375 270.609375 -216.25 270.609375 -211.5625 C 270.609375 -206.882812 268.265625 -204.546875 263.578125 -204.546875 Z M 262.875 -176.421875 C 258.195312 -176.421875 255.859375 -178.765625 255.859375 -183.453125 C 255.859375 -188.140625 258.195312 -190.484375 262.875 -190.484375 C 267.5625 -190.484375 269.90625 -188.140625 269.90625 -183.453125 C 269.90625 -178.765625 267.5625 -176.421875 262.875 -176.421875 Z M 260.765625 -146.90625 C 256.085938 -146.90625 253.75 -149.25 253.75 -153.9375 C 253.75 -158.625 256.085938 -160.96875 260.765625 -160.96875 C 265.453125 -160.96875 267.796875 -158.625 267.796875 -153.9375 C 267.796875 -149.25 265.453125 -146.90625 260.765625 -146.90625 Z M 257.265625 -118.78125 C 252.578125 -118.78125 250.234375 -121.125 250.234375 -125.8125 C 250.234375 -130.5 252.578125 -132.84375 257.265625 -132.84375 C 261.941406 -132.84375 264.28125 -130.5 264.28125 -125.8125 C 264.28125 -121.125 261.941406 -118.78125 257.265625 -118.78125 Z M 250.9375 -89.96875 C 246.25 -89.96875 243.90625 -92.3125 243.90625 -97 C 243.90625 -101.6875 246.25 -104.03125 250.9375 -104.03125 C 255.613281 -104.03125 257.953125 -101.6875 257.953125 -97 C 257.953125 -92.3125 255.613281 -89.96875 250.9375 -89.96875 Z M 241.796875 -63.265625 C 237.109375 -63.265625 234.765625 -65.609375 234.765625 -70.296875 C 234.765625 -74.972656 237.109375 -77.3125 241.796875 -77.3125 C 246.484375 -77.3125 248.828125 -74.972656 248.828125 -70.296875 C 248.828125 -65.609375 246.484375 -63.265625 241.796875 -63.265625 Z M 225.625 -37.953125 C 220.9375 -37.953125 218.59375 -40.296875 218.59375 -44.984375 C 218.59375 -49.671875 220.9375 -52.015625 225.625 -52.015625 C 230.3125 -52.015625 232.65625 -49.671875 232.65625 -44.984375 C 232.65625 -40.296875 230.3125 -37.953125 225.625 -37.953125 Z M 203.84375 -16.875 C 199.15625 -16.875 196.8125 -19.210938 196.8125 -23.890625 C 196.8125 -28.578125 199.15625 -30.921875 203.84375 -30.921875 C 208.53125 -30.921875 210.875 -28.578125 210.875 -23.890625 C 210.875 -19.210938 208.53125 -16.875 203.84375 -16.875 Z M 176.421875 -3.515625 C 171.734375 -3.515625 169.390625 -5.859375 169.390625 -10.546875 C 169.390625 -15.234375 171.734375 -17.578125 176.421875 -17.578125 C 181.109375 -17.578125 183.453125 -15.234375 183.453125 -10.546875 C 183.453125 -5.859375 181.109375 -3.515625 176.421875 -3.515625 Z M 146.90625 3.515625 C 142.21875 3.515625 139.875 1.171875 139.875 -3.515625 C 139.875 -8.203125 142.21875 -10.546875 146.90625 -10.546875 C 151.59375 -10.546875 153.9375 -8.203125 153.9375 -3.515625 C 153.9375 1.171875 151.59375 3.515625 146.90625 3.515625 Z M 116.6875 4.21875 C 112 4.21875 109.65625 1.875 109.65625 -2.8125 C 109.65625 -7.5 112 -9.84375 116.6875 -9.84375 C 121.363281 -9.84375 123.703125 -7.5 123.703125 -2.8125 C 123.703125 1.875 121.363281 4.21875 116.6875 4.21875 Z M 85.046875 0 C 80.359375 0 78.015625 -2.34375 78.015625 -7.03125 C 78.015625 -11.71875 80.359375 -14.0625 85.046875 -14.0625 C 89.734375 -14.0625 92.078125 -11.71875 92.078125 -7.03125 C 92.078125 -2.34375 89.734375 0 85.046875 0 Z M 54.125 -8.4375 C 49.4375 -8.4375 47.09375 -10.78125 47.09375 -15.46875 C 47.09375 -20.15625 49.4375 -22.5 54.125 -22.5 C 58.8125 -22.5 61.15625 -20.15625 61.15625 -15.46875 C 61.15625 -10.78125 58.8125 -8.4375 54.125 -8.4375 Z M 27.40625 -21.796875 C 22.726562 -21.796875 20.390625 -24.132812 20.390625 -28.8125 C 20.390625 -33.5 22.726562 -35.84375 27.40625 -35.84375 C 32.09375 -35.84375 34.4375 -33.5 34.4375 -28.8125 C 34.4375 -24.132812 32.09375 -21.796875 27.40625 -21.796875 Z M 27.40625 -21.796875 "/></g></g></g><path stroke-linecap="butt" transform="matrix(0, 0.749333, -0.749333, 0, 430.595446, 136.130566)" fill="none" stroke-linejoin="miter" d="M -0.00221473 1.998831 L 438.507744 1.998831 " stroke="#000000" stroke-width="4" stroke-opacity="1" stroke-miterlimit="4"/><path stroke-linecap="round" transform="matrix(0, 0.749333, -0.749333, 0, 430.595446, 136.130566)" fill="none" stroke-linejoin="round" d="M 430.511046 -4.001299 L 438.507744 1.998831 L 430.511046 7.998961 " stroke="#000000" stroke-width="4" stroke-opacity="1" stroke-miterlimit="4"/></svg>