<svg xmlns="http://www.w3.org/2000/svg" xmlns:xlink="http://www.w3.org/1999/xlink" width="794" zoomAndPan="magnify" viewBox="0 0 594.95996 842.24997" height="1123" preserveAspectRatio="xMidYMid meet" version="1.0"><defs><clipPath id="e541a93513"><path d="M 69 127 L 527.957031 127 L 527.957031 714.417969 L 69 714.417969 Z M 69 127 " clip-rule="nonzero"/></clipPath></defs><path fill="#ffffff" d="M 238.445312 708.996094 C 197.5 708.996094 160.9375 697.703125 129.789062 675.4375 C 113.34375 663.679688 98.742188 649.15625 86.394531 632.277344 C 75.972656 618.015625 72.660156 600.066406 77.3125 583.027344 C 81.964844 566.007812 93.914062 552.253906 110.105469 545.292969 C 117.324219 542.191406 124.960938 540.617188 132.792969 540.617188 C 150.949219 540.617188 168.222656 549.335938 179 563.9375 C 183.117188 569.511719 187.925781 574.285156 193.707031 578.527344 C 206.546875 587.960938 219.828125 592.347656 235.515625 592.347656 C 257.054688 592.347656 271.652344 586.882812 281.445312 575.144531 C 292.4375 561.984375 298.011719 541.558594 298.011719 514.425781 L 298.011719 246.050781 L 243.074219 246.050781 C 211.746094 246.050781 186.257812 220.542969 186.257812 189.191406 C 186.257812 157.839844 211.746094 132.335938 243.074219 132.335938 L 465.847656 132.335938 C 497.175781 132.335938 522.664062 157.839844 522.664062 189.191406 C 522.664062 220.542969 497.175781 246.050781 465.847656 246.050781 L 418.234375 246.050781 L 418.234375 514.425781 C 418.234375 573.457031 402.019531 620.964844 370.042969 655.628906 C 337.378906 691.039062 293.101562 708.996094 238.445312 708.996094 Z M 238.445312 708.996094 " fill-opacity="1" fill-rule="nonzero"/><g clip-path="url(#e541a93513)"><path fill="#000000" d="M 465.847656 132.335938 C 497.175781 132.335938 522.664062 157.839844 522.664062 189.191406 C 522.664062 220.542969 497.175781 246.050781 465.847656 246.050781 L 418.234375 246.050781 L 418.234375 514.425781 C 418.234375 573.457031 402.019531 620.964844 370.042969 655.628906 C 337.378906 691.039062 293.101562 708.996094 238.445312 708.996094 C 197.496094 708.996094 160.9375 697.703125 129.789062 675.4375 C 113.34375 663.679688 98.738281 649.15625 86.394531 632.277344 C 75.972656 618.015625 72.660156 600.066406 77.3125 583.027344 C 81.964844 566.007812 93.914062 552.253906 110.105469 545.292969 C 117.324219 542.191406 124.960938 540.617188 132.792969 540.617188 C 150.949219 540.617188 168.222656 549.335938 179 563.9375 C 183.117188 569.511719 187.925781 574.285156 193.707031 578.527344 C 206.546875 587.960938 219.828125 592.347656 235.515625 592.347656 C 257.054688 592.347656 271.652344 586.882812 281.445312 575.144531 C 292.4375 561.984375 298.011719 541.558594 298.011719 514.425781 L 298.011719 246.050781 L 243.074219 246.050781 C 211.746094 246.050781 186.257812 220.542969 186.257812 189.191406 C 186.257812 157.839844 211.746094 132.335938 243.074219 132.335938 L 465.847656 132.335938 M 465.847656 127.042969 L 243.074219 127.042969 C 208.828125 127.042969 180.96875 154.921875 180.96875 189.191406 C 180.96875 223.464844 208.828125 251.34375 243.074219 251.34375 L 292.722656 251.34375 L 292.722656 514.425781 C 292.722656 540.28125 287.5625 559.570312 277.390625 571.75 C 268.675781 582.191406 255.371094 587.054688 235.515625 587.054688 C 221.011719 587.054688 208.722656 582.988281 196.835938 574.257812 C 191.496094 570.339844 187.050781 565.933594 183.253906 560.792969 C 171.480469 544.84375 152.617188 535.324219 132.792969 535.324219 C 124.238281 535.324219 115.902344 537.039062 108.015625 540.429688 C 90.335938 548.03125 77.289062 563.050781 72.210938 581.632812 C 67.132812 600.234375 70.746094 619.832031 82.125 635.402344 C 94.804688 652.738281 109.804688 667.65625 126.714844 679.746094 C 158.777344 702.667969 196.371094 714.289062 238.445312 714.289062 C 294.636719 714.289062 340.222656 695.761719 373.929688 659.21875 C 406.835938 623.546875 423.519531 574.832031 423.519531 514.425781 L 423.519531 251.34375 L 465.847656 251.34375 C 500.089844 251.34375 527.953125 223.460938 527.953125 189.191406 C 527.953125 154.921875 500.09375 127.042969 465.847656 127.042969 Z M 465.847656 127.042969 " fill-opacity="1" fill-rule="nonzero"/></g><path fill="#58595b" d="M 237.257812 650.421875 C 236.207031 650.421875 235.167969 650.417969 234.132812 650.402344 L 234.167969 647.757812 C 237.636719 647.800781 241.238281 647.769531 244.679688 647.644531 L 244.773438 650.289062 C 242.316406 650.378906 239.785156 650.421875 237.257812 650.421875 Z M 223.5 650.023438 C 219.820312 649.792969 216.25 649.457031 212.886719 649.027344 L 213.222656 646.402344 C 216.53125 646.828125 220.042969 647.15625 223.664062 647.378906 Z M 255.40625 649.617188 L 255.164062 646.984375 C 258.699219 646.65625 262.203125 646.226562 265.578125 645.699219 L 265.984375 648.3125 C 262.558594 648.847656 258.996094 649.289062 255.40625 649.617188 Z M 202.355469 647.242188 C 198.816406 646.488281 195.335938 645.574219 192.011719 644.523438 L 192.804688 642 C 196.050781 643.023438 199.453125 643.917969 202.90625 644.65625 Z M 276.464844 646.300781 L 275.871094 643.722656 C 279.328125 642.925781 282.722656 642 285.972656 640.972656 L 286.769531 643.492188 C 283.457031 644.542969 279.988281 645.488281 276.464844 646.300781 Z M 181.980469 640.785156 C 178.753906 639.390625 175.523438 637.792969 172.378906 636.046875 L 173.664062 633.734375 C 176.734375 635.4375 179.882812 636.996094 183.027344 638.355469 Z M 296.808594 639.8125 L 295.785156 637.371094 C 299.035156 636.007812 302.207031 634.484375 305.203125 632.851562 L 306.46875 635.179688 C 303.390625 636.851562 300.140625 638.410156 296.808594 639.8125 Z M 163.285156 630.429688 C 162.414062 629.835938 161.542969 629.230469 160.671875 628.609375 C 158.5625 627.101562 156.546875 625.585938 154.683594 624.105469 L 156.328125 622.03125 C 158.15625 623.484375 160.136719 624.972656 162.210938 626.457031 C 163.0625 627.066406 163.917969 627.660156 164.769531 628.238281 Z M 315.59375 629.550781 L 314.082031 627.378906 C 316.941406 625.390625 319.699219 623.226562 322.277344 620.949219 L 324.027344 622.933594 C 321.371094 625.277344 318.535156 627.503906 315.59375 629.550781 Z M 146.617188 617.078125 C 143.988281 614.550781 141.601562 611.980469 139.320312 609.222656 L 141.355469 607.535156 C 143.574219 610.214844 145.894531 612.714844 148.449219 615.171875 Z M 331.636719 615.371094 L 329.664062 613.605469 C 330.929688 612.1875 332.171875 610.707031 333.351562 609.199219 C 334.320312 607.964844 335.265625 606.703125 336.15625 605.449219 L 338.3125 606.980469 C 337.394531 608.273438 336.425781 609.566406 335.433594 610.832031 C 334.21875 612.382812 332.941406 613.910156 331.636719 615.371094 Z M 132.941406 600.621094 C 131.101562 597.867188 129.28125 594.890625 127.367188 591.519531 L 129.664062 590.210938 C 131.546875 593.527344 133.335938 596.449219 135.140625 599.152344 Z M 344.042969 597.929688 L 341.734375 596.636719 C 343.410156 593.636719 344.957031 590.488281 346.332031 587.269531 L 348.761719 588.308594 C 347.351562 591.613281 345.765625 594.847656 344.042969 597.929688 Z M 352.46875 578.273438 L 349.945312 577.476562 C 350.960938 574.261719 351.875 570.863281 352.660156 567.367188 L 355.242188 567.949219 C 354.4375 571.515625 353.503906 574.988281 352.46875 578.273438 Z M 357.214844 557.464844 L 354.601562 557.058594 C 355.109375 553.769531 355.554688 550.261719 355.917969 546.628906 L 358.546875 546.894531 C 358.179688 550.570312 357.730469 554.128906 357.214844 557.464844 Z M 359.386719 536.292969 L 356.746094 536.132812 C 356.945312 532.816406 357.101562 529.371094 357.222656 525.597656 L 359.863281 525.679688 C 359.742188 529.480469 359.585938 532.949219 359.386719 536.292969 Z M 360.085938 515.070312 L 357.441406 515.039062 C 357.480469 511.847656 357.5 508.390625 357.5 504.46875 L 360.144531 504.472656 C 360.144531 508.402344 360.125 511.867188 360.085938 515.070312 Z M 360.144531 493.882812 L 357.5 493.882812 L 357.5 483.296875 L 360.144531 483.296875 Z M 360.144531 472.710938 L 357.5 472.710938 L 357.5 462.125 L 360.144531 462.125 Z M 360.144531 451.539062 L 357.5 451.539062 L 357.5 440.953125 L 360.144531 440.953125 Z M 360.144531 430.367188 L 357.5 430.367188 L 357.5 419.78125 L 360.144531 419.78125 Z M 360.144531 409.191406 L 357.5 409.191406 L 357.5 398.605469 L 360.144531 398.605469 Z M 360.144531 388.019531 L 357.5 388.019531 L 357.5 377.433594 L 360.144531 377.433594 Z M 360.144531 366.847656 L 357.5 366.847656 L 357.5 356.261719 L 360.144531 356.261719 Z M 360.144531 345.675781 L 357.5 345.675781 L 357.5 335.089844 L 360.144531 335.089844 Z M 360.144531 324.503906 L 357.5 324.503906 L 357.5 313.917969 L 360.144531 313.917969 Z M 360.144531 303.328125 L 357.5 303.328125 L 357.5 292.742188 L 360.144531 292.742188 Z M 360.144531 282.15625 L 357.5 282.15625 L 357.5 271.570312 L 360.144531 271.570312 Z M 360.144531 260.984375 L 357.5 260.984375 L 357.5 250.398438 L 360.144531 250.398438 Z M 360.144531 260.984375 " fill-opacity="1" fill-rule="nonzero"/><path fill="#58595b" d="M 121.304688 576.886719 L 119.675781 598.492188 L 139.1875 589.101562 Z M 121.304688 576.886719 " fill-opacity="1" fill-rule="nonzero"/><path fill="#414042" d="M 383.671875 232.25 C 383.671875 233.121094 383.628906 233.992188 383.542969 234.859375 C 383.457031 235.726562 383.332031 236.585938 383.160156 237.441406 C 382.992188 238.296875 382.78125 239.140625 382.527344 239.972656 C 382.273438 240.808594 381.980469 241.625 381.648438 242.433594 C 381.316406 243.238281 380.941406 244.023438 380.53125 244.792969 C 380.121094 245.5625 379.675781 246.308594 379.191406 247.03125 C 378.707031 247.757812 378.1875 248.457031 377.636719 249.128906 C 377.085938 249.800781 376.5 250.449219 375.882812 251.0625 C 375.269531 251.679688 374.625 252.265625 373.949219 252.816406 C 373.277344 253.371094 372.578125 253.886719 371.855469 254.371094 C 371.132812 254.855469 370.386719 255.304688 369.617188 255.714844 C 368.847656 256.125 368.0625 256.496094 367.257812 256.832031 C 366.453125 257.164062 365.636719 257.457031 364.800781 257.710938 C 363.96875 257.964844 363.125 258.175781 362.269531 258.34375 C 361.417969 258.515625 360.558594 258.644531 359.691406 258.726562 C 358.824219 258.8125 357.957031 258.855469 357.085938 258.855469 C 356.214844 258.855469 355.34375 258.8125 354.476562 258.726562 C 353.613281 258.644531 352.75 258.515625 351.898438 258.34375 C 351.042969 258.175781 350.199219 257.964844 349.367188 257.710938 C 348.535156 257.457031 347.714844 257.164062 346.910156 256.832031 C 346.105469 256.496094 345.320312 256.125 344.550781 255.714844 C 343.785156 255.304688 343.039062 254.855469 342.3125 254.371094 C 341.589844 253.886719 340.890625 253.371094 340.21875 252.816406 C 339.542969 252.265625 338.898438 251.679688 338.285156 251.0625 C 337.667969 250.449219 337.085938 249.800781 336.53125 249.128906 C 335.980469 248.457031 335.460938 247.757812 334.976562 247.03125 C 334.492188 246.308594 334.046875 245.5625 333.636719 244.792969 C 333.226562 244.023438 332.855469 243.238281 332.519531 242.433594 C 332.1875 241.625 331.894531 240.808594 331.640625 239.972656 C 331.390625 239.140625 331.179688 238.296875 331.007812 237.441406 C 330.839844 236.585938 330.710938 235.726562 330.625 234.859375 C 330.539062 233.992188 330.496094 233.121094 330.496094 232.25 C 330.496094 231.378906 330.539062 230.507812 330.625 229.640625 C 330.710938 228.773438 330.839844 227.914062 331.007812 227.058594 C 331.179688 226.203125 331.390625 225.359375 331.640625 224.527344 C 331.894531 223.691406 332.1875 222.875 332.519531 222.070312 C 332.855469 221.261719 333.226562 220.476562 333.636719 219.707031 C 334.046875 218.941406 334.492188 218.191406 334.976562 217.46875 C 335.460938 216.742188 335.980469 216.046875 336.53125 215.371094 C 337.085938 214.699219 337.667969 214.054688 338.285156 213.4375 C 338.898438 212.820312 339.542969 212.234375 340.21875 211.683594 C 340.890625 211.128906 341.589844 210.613281 342.3125 210.128906 C 343.039062 209.644531 343.785156 209.195312 344.550781 208.785156 C 345.320312 208.375 346.105469 208.003906 346.910156 207.667969 C 347.714844 207.335938 348.535156 207.042969 349.367188 206.789062 C 350.199219 206.535156 351.042969 206.324219 351.898438 206.15625 C 352.75 205.984375 353.613281 205.859375 354.476562 205.773438 C 355.34375 205.6875 356.214844 205.644531 357.085938 205.644531 C 357.957031 205.644531 358.824219 205.6875 359.691406 205.773438 C 360.558594 205.859375 361.417969 205.984375 362.269531 206.15625 C 363.125 206.324219 363.96875 206.535156 364.800781 206.789062 C 365.636719 207.042969 366.453125 207.335938 367.257812 207.667969 C 368.0625 208.003906 368.847656 208.375 369.617188 208.785156 C 370.386719 209.195312 371.132812 209.644531 371.855469 210.128906 C 372.578125 210.613281 373.277344 211.128906 373.949219 211.683594 C 374.625 212.234375 375.269531 212.820312 375.882812 213.4375 C 376.5 214.054688 377.085938 214.699219 377.636719 215.371094 C 378.1875 216.046875 378.707031 216.742188 379.191406 217.46875 C 379.675781 218.191406 380.121094 218.941406 380.53125 219.707031 C 380.941406 220.476562 381.316406 221.261719 381.648438 222.070312 C 381.980469 222.875 382.273438 223.691406 382.527344 224.527344 C 382.78125 225.359375 382.992188 226.203125 383.160156 227.058594 C 383.332031 227.914062 383.457031 228.773438 383.542969 229.640625 C 383.628906 230.507812 383.671875 231.378906 383.671875 232.25 Z M 383.671875 232.25 " fill-opacity="1" fill-rule="nonzero"/><path fill="#fcfcfc" d="M 360.164062 214.035156 L 356.75 214.035156 C 356.359375 214.035156 355.992188 214.207031 355.742188 214.5 L 345.691406 226.265625 C 345.246094 226.792969 345.269531 227.574219 345.761719 228.0625 L 347.671875 229.972656 C 348.191406 230.488281 349.019531 230.488281 349.539062 229.980469 L 355.425781 224.160156 L 355.425781 249.65625 C 355.425781 250.382812 356.019531 250.980469 356.75 250.980469 L 360.164062 250.980469 C 360.890625 250.980469 361.484375 250.382812 361.484375 249.65625 L 361.484375 215.359375 C 361.484375 214.628906 360.890625 214.035156 360.164062 214.035156 Z M 360.164062 214.035156 " fill-opacity="1" fill-rule="nonzero"/><path fill="#58595b" d="M 479.902344 191.261719 L 478.980469 191.261719 L 478.980469 188.613281 L 479.902344 188.613281 Z M 468.402344 191.261719 L 457.824219 191.261719 L 457.824219 188.613281 L 468.402344 188.613281 Z M 447.246094 191.261719 L 436.667969 191.261719 L 436.667969 188.613281 L 447.246094 188.613281 Z M 426.089844 191.261719 L 415.511719 191.261719 L 415.511719 188.613281 L 426.089844 188.613281 Z M 404.929688 191.261719 L 394.351562 191.261719 L 394.351562 188.613281 L 404.929688 188.613281 Z M 383.773438 191.261719 L 373.195312 191.261719 L 373.195312 188.613281 L 383.773438 188.613281 Z M 362.617188 191.261719 L 352.035156 191.261719 L 352.035156 188.613281 L 362.617188 188.613281 Z M 341.457031 191.261719 L 330.878906 191.261719 L 330.878906 188.613281 L 341.457031 188.613281 Z M 320.300781 191.261719 L 309.722656 191.261719 L 309.722656 188.613281 L 320.300781 188.613281 Z M 299.144531 191.261719 L 288.5625 191.261719 L 288.5625 188.613281 L 299.144531 188.613281 Z M 277.984375 191.261719 L 267.40625 191.261719 L 267.40625 188.613281 L 277.984375 188.613281 Z M 256.828125 191.261719 L 246.25 191.261719 L 246.25 188.613281 L 256.828125 188.613281 Z M 256.828125 191.261719 " fill-opacity="1" fill-rule="nonzero"/><path fill="#58595b" d="M 490.761719 189.65625 L 472.011719 178.824219 L 472.011719 200.488281 Z M 490.761719 189.65625 " fill-opacity="1" fill-rule="nonzero"/><path fill="#414042" d="M 274.929688 189.9375 C 274.929688 190.808594 274.886719 191.679688 274.800781 192.546875 C 274.71875 193.414062 274.589844 194.273438 274.417969 195.128906 C 274.25 195.984375 274.039062 196.828125 273.785156 197.660156 C 273.53125 198.496094 273.238281 199.3125 272.90625 200.117188 C 272.574219 200.925781 272.203125 201.710938 271.792969 202.480469 C 271.378906 203.246094 270.933594 203.996094 270.449219 204.71875 C 269.964844 205.445312 269.449219 206.140625 268.894531 206.816406 C 268.34375 207.488281 267.757812 208.132812 267.144531 208.75 C 266.527344 209.367188 265.882812 209.953125 265.210938 210.503906 C 264.535156 211.058594 263.839844 211.574219 263.113281 212.058594 C 262.390625 212.542969 261.644531 212.992188 260.875 213.402344 C 260.109375 213.8125 259.324219 214.183594 258.519531 214.519531 C 257.714844 214.851562 256.894531 215.144531 256.0625 215.398438 C 255.226562 215.652344 254.382812 215.863281 253.53125 216.03125 C 252.675781 216.203125 251.816406 216.328125 250.949219 216.414062 C 250.082031 216.5 249.214844 216.542969 248.34375 216.542969 C 247.472656 216.542969 246.605469 216.5 245.738281 216.414062 C 244.871094 216.328125 244.011719 216.203125 243.15625 216.03125 C 242.300781 215.863281 241.457031 215.652344 240.625 215.398438 C 239.792969 215.144531 238.972656 214.851562 238.167969 214.519531 C 237.363281 214.183594 236.578125 213.8125 235.808594 213.402344 C 235.042969 212.992188 234.296875 212.542969 233.574219 212.058594 C 232.847656 211.574219 232.148438 211.058594 231.476562 210.503906 C 230.804688 209.953125 230.160156 209.367188 229.542969 208.75 C 228.925781 208.132812 228.34375 207.488281 227.792969 206.816406 C 227.238281 206.140625 226.722656 205.445312 226.238281 204.71875 C 225.753906 203.996094 225.304688 203.246094 224.894531 202.480469 C 224.484375 201.710938 224.113281 200.925781 223.78125 200.117188 C 223.445312 199.3125 223.152344 198.496094 222.902344 197.660156 C 222.648438 196.828125 222.4375 195.984375 222.265625 195.128906 C 222.097656 194.273438 221.96875 193.414062 221.882812 192.546875 C 221.800781 191.679688 221.757812 190.808594 221.757812 189.9375 C 221.757812 189.066406 221.800781 188.195312 221.882812 187.328125 C 221.96875 186.460938 222.097656 185.601562 222.265625 184.746094 C 222.4375 183.890625 222.648438 183.046875 222.902344 182.214844 C 223.152344 181.378906 223.445312 180.5625 223.78125 179.753906 C 224.113281 178.949219 224.484375 178.164062 224.894531 177.394531 C 225.304688 176.625 225.753906 175.878906 226.238281 175.15625 C 226.722656 174.429688 227.238281 173.730469 227.792969 173.058594 C 228.34375 172.386719 228.925781 171.738281 229.542969 171.125 C 230.160156 170.507812 230.804688 169.921875 231.476562 169.371094 C 232.148438 168.816406 232.847656 168.300781 233.574219 167.816406 C 234.296875 167.332031 235.042969 166.882812 235.808594 166.472656 C 236.578125 166.0625 237.363281 165.691406 238.167969 165.355469 C 238.972656 165.023438 239.792969 164.730469 240.625 164.476562 C 241.457031 164.222656 242.300781 164.011719 243.15625 163.84375 C 244.011719 163.671875 244.871094 163.542969 245.738281 163.460938 C 246.605469 163.375 247.472656 163.332031 248.34375 163.332031 C 249.214844 163.332031 250.082031 163.375 250.949219 163.460938 C 251.816406 163.542969 252.675781 163.671875 253.53125 163.84375 C 254.382812 164.011719 255.226562 164.222656 256.0625 164.476562 C 256.894531 164.730469 257.714844 165.023438 258.519531 165.355469 C 259.324219 165.691406 260.109375 166.0625 260.875 166.472656 C 261.644531 166.882812 262.390625 167.332031 263.113281 167.816406 C 263.839844 168.300781 264.535156 168.816406 265.210938 169.371094 C 265.882812 169.921875 266.527344 170.507812 267.144531 171.125 C 267.757812 171.738281 268.34375 172.386719 268.894531 173.058594 C 269.449219 173.730469 269.964844 174.429688 270.449219 175.15625 C 270.933594 175.878906 271.378906 176.625 271.792969 177.394531 C 272.203125 178.164062 272.574219 178.949219 272.90625 179.753906 C 273.238281 180.5625 273.53125 181.378906 273.785156 182.214844 C 274.039062 183.046875 274.25 183.890625 274.417969 184.746094 C 274.589844 185.601562 274.71875 186.460938 274.800781 187.328125 C 274.886719 188.195312 274.929688 189.066406 274.929688 189.9375 Z M 274.929688 189.9375 " fill-opacity="1" fill-rule="nonzero"/><path fill="#fcfcfc" d="M 258.996094 202.597656 L 244.050781 202.597656 C 244.246094 202.238281 244.507812 201.867188 244.855469 201.492188 C 245.796875 200.449219 247.304688 199.074219 249.339844 197.398438 L 249.3125 197.371094 C 249.621094 197.160156 249.964844 196.867188 250.351562 196.535156 C 253.234375 194.097656 255.535156 191.699219 257.199219 189.414062 C 258.964844 186.988281 259.863281 184.183594 259.863281 181.09375 C 259.863281 178.035156 258.820312 175.542969 256.765625 173.695312 C 254.746094 171.886719 252.042969 170.96875 248.742188 170.96875 C 246.429688 170.96875 244.167969 171.546875 242.019531 172.683594 C 239.894531 173.808594 238.078125 175.398438 236.621094 177.394531 C 236.210938 177.957031 236.304688 178.730469 236.832031 179.179688 L 239.59375 181.546875 C 239.867188 181.78125 240.21875 181.902344 240.601562 181.851562 C 240.964844 181.8125 241.292969 181.625 241.511719 181.328125 C 242.574219 179.898438 243.726562 178.804688 244.9375 178.074219 C 247.253906 176.667969 250.488281 176.671875 252.152344 178.175781 C 252.957031 178.90625 253.351562 179.859375 253.351562 181.09375 C 253.351562 183.15625 252.835938 184.921875 251.769531 186.484375 C 250.644531 188.144531 249.015625 189.886719 246.902344 191.679688 C 246.789062 191.777344 246.242188 192.230469 245.242188 193.042969 C 243.503906 194.476562 242.089844 195.730469 241.03125 196.769531 C 239.9375 197.847656 239.007812 199.085938 238.261719 200.445312 C 237.472656 201.894531 237.070312 203.492188 237.070312 205.179688 L 237.070312 207.34375 C 237.070312 208.070312 237.664062 208.664062 238.390625 208.664062 L 258.996094 208.664062 C 259.726562 208.664062 260.320312 208.070312 260.320312 207.34375 L 260.320312 203.917969 C 260.320312 203.191406 259.726562 202.597656 258.996094 202.597656 Z M 258.996094 202.597656 " fill-opacity="1" fill-rule="nonzero"/></svg>