<svg xmlns="http://www.w3.org/2000/svg" xmlns:xlink="http://www.w3.org/1999/xlink" width="800" zoomAndPan="magnify" viewBox="0 0 600 899.99999" height="1200" preserveAspectRatio="xMidYMid meet" version="1.0"><defs><g/><clipPath id="42684cb94d"><path d="M 300.203125 246.785156 L 341.445312 246.785156 L 341.445312 273.578125 L 300.203125 273.578125 Z M 300.203125 246.785156 " clip-rule="nonzero"/></clipPath></defs><path stroke-linecap="butt" transform="matrix(0.75, 0, 0, 0.75, 166.45312, -15.449276)" fill="none" stroke-linejoin="miter" d="M 46.171884 1041.119922 C 27.505216 1041.776173 12.770841 1036.781381 1.963548 1026.140755 C -8.677077 1015.333463 -13.999994 1001.500129 -13.999994 984.635545 C -13.999994 971.864711 -10.151036 960.64596 -2.458327 950.984501 C 5.23959 941.328251 16.453132 936.166792 31.192717 935.51575 L 61.401051 933.302208 C 90.875011 931.338667 113.140637 922.166791 128.203138 905.796999 C 143.270847 889.255331 150.802098 865.59908 150.802098 834.817828 L 150.802098 382.171971 C 150.802098 360.718845 156.369806 344.510511 167.500015 333.54176 C 178.635433 322.406343 194.598975 316.838635 215.395851 316.838635 C 236.187519 316.838635 252.072936 322.406343 263.041687 333.54176 C 274.177104 344.510511 279.739605 360.718845 279.739605 382.171971 L 279.739605 833.833453 C 279.739605 876.078247 272.130229 911.937624 256.901062 941.406376 C 241.838561 970.880335 219.567726 993.885545 190.098975 1010.422004 C 160.625015 1026.797005 124.109388 1036.291797 80.557302 1038.911589 Z M 46.171884 1041.119922 " stroke="#1f8785" stroke-width="40.239601" stroke-opacity="1" stroke-miterlimit="4"/><g fill="#ffffff" fill-opacity="1"><g transform="translate(166.45312, 760.050683)"><g><path d="M 34.703125 5.28125 C 20.617188 5.78125 9.550781 2.007812 1.5 -6.03125 C -6.539062 -14.082031 -10.5625 -24.394531 -10.5625 -36.96875 C -10.5625 -46.53125 -7.664062 -54.957031 -1.875 -62.25 C 3.90625 -69.539062 12.328125 -73.4375 23.390625 -73.9375 L 46.03125 -75.453125 C 68.15625 -76.960938 84.875 -83.878906 96.1875 -96.203125 C 107.507812 -108.523438 113.171875 -126.253906 113.171875 -149.390625 L 113.171875 -488.921875 C 113.171875 -505.015625 117.320312 -517.207031 125.625 -525.5 C 133.925781 -533.800781 145.875 -537.953125 161.46875 -537.953125 C 177.0625 -537.953125 189.003906 -533.800781 197.296875 -525.5 C 205.597656 -517.207031 209.75 -505.015625 209.75 -488.921875 L 209.75 -150.140625 C 209.75 -118.453125 204.085938 -91.539062 192.765625 -69.40625 C 181.453125 -47.28125 164.726562 -30.054688 142.59375 -17.734375 C 120.46875 -5.410156 93.054688 1.753906 60.359375 3.765625 Z M 34.703125 5.28125 "/></g></g></g><g clip-path="url(#42684cb94d)"><path fill="#1f8785" d="M 322.304688 272.832031 L 340.964844 250.140625 C 342.371094 248.429688 340.433594 246.019531 338.460938 247.023438 L 321.652344 255.558594 C 321.070312 255.855469 320.386719 255.855469 319.804688 255.558594 L 302.988281 247.023438 C 301.019531 246.019531 299.085938 248.429688 300.488281 250.140625 L 319.148438 272.832031 C 319.96875 273.824219 321.488281 273.824219 322.304688 272.832031 " fill-opacity="1" fill-rule="nonzero"/></g><path fill="#1f8785" d="M 314.726562 643.574219 L 314.726562 607.574219 L 326.726562 607.574219 L 326.726562 643.574219 M 314.726562 595.574219 L 314.726562 559.574219 L 326.726562 559.574219 L 326.726562 595.574219 M 314.726562 547.574219 L 314.726562 511.574219 L 326.726562 511.574219 L 326.726562 547.574219 M 314.726562 499.574219 L 314.726562 463.574219 L 326.726562 463.574219 L 326.726562 499.574219 M 314.726562 451.574219 L 314.726562 415.574219 L 326.726562 415.574219 L 326.726562 451.574219 M 314.726562 403.574219 L 314.726562 367.574219 L 326.726562 367.574219 L 326.726562 403.574219 M 314.726562 355.574219 L 314.726562 319.574219 L 326.726562 319.574219 L 326.726562 355.574219 M 314.726562 307.574219 L 314.726562 289.871094 L 326.726562 289.871094 L 326.726562 307.574219 " fill-opacity="1" fill-rule="nonzero"/><path fill="#1f8785" d="M 184.039062 721.078125 C 196.1875 722.949219 207.726562 723.527344 218.652344 722.8125 L 219.441406 734.785156 C 207.636719 735.558594 195.226562 734.945312 182.210938 732.9375 Z M 230.042969 721.558594 C 241.605469 719.757812 252.441406 716.382812 262.546875 711.433594 L 267.828125 722.210938 C 256.628906 727.695312 244.652344 731.429688 231.890625 733.417969 Z M 272.492188 705.910156 C 281.871094 700.054688 290.585938 692.691406 298.636719 683.824219 L 307.523438 691.890625 C 298.722656 701.582031 289.164062 709.648438 278.847656 716.089844 Z M 306.050781 674.992188 C 309.378906 670.710938 312.585938 666.144531 315.664062 661.289062 L 325.796875 667.71875 C 322.511719 672.894531 319.089844 677.777344 315.523438 682.359375 Z M 306.050781 674.992188 " fill-opacity="1" fill-rule="nonzero"/></svg>