<svg xmlns="http://www.w3.org/2000/svg" xmlns:xlink="http://www.w3.org/1999/xlink" width="794" zoomAndPan="magnify" viewBox="0 0 594.95996 842.24997" height="1123" preserveAspectRatio="xMidYMid meet" version="1.0"><defs><clipPath id="7ef541639c"><path d="M 67.101562 86.285156 L 524 86.285156 L 524 754.691406 L 67.101562 754.691406 Z M 67.101562 86.285156 " clip-rule="nonzero"/></clipPath></defs><path fill="#ffffff" d="M 450.082031 748.347656 C 428.425781 748.347656 407.988281 737.824219 395.417969 720.191406 L 233.558594 493.28125 L 212.851562 517.726562 L 212.851562 678.535156 C 212.851562 717.03125 181.539062 748.347656 143.046875 748.347656 C 104.554688 748.347656 73.242188 717.03125 73.242188 678.535156 L 73.242188 162.472656 C 73.242188 123.976562 104.554688 92.65625 143.046875 92.65625 C 181.539062 92.65625 212.851562 123.976562 212.851562 162.472656 L 212.851562 319.261719 L 382.542969 115.949219 C 394.894531 101.148438 413.039062 92.65625 432.324219 92.65625 C 457.847656 92.65625 480.386719 107.042969 491.140625 130.195312 C 501.890625 153.351562 498.339844 179.851562 481.875 199.359375 L 321.652344 389.148438 L 504.476562 641.820312 C 519.339844 662.363281 521.410156 689.152344 509.878906 711.734375 C 498.351562 734.320312 475.4375 748.347656 450.082031 748.347656 Z M 450.082031 748.347656 " fill-opacity="1" fill-rule="nonzero"/><g clip-path="url(#7ef541639c)"><path fill="#000000" d="M 432.324219 92.65625 C 457.847656 92.65625 480.386719 107.042969 491.140625 130.195312 C 501.890625 153.351562 498.339844 179.851562 481.875 199.359375 L 321.652344 389.148438 L 504.476562 641.820312 C 519.339844 662.363281 521.410156 689.152344 509.878906 711.734375 C 498.351562 734.320312 475.4375 748.347656 450.082031 748.347656 C 428.425781 748.347656 407.988281 737.824219 395.417969 720.191406 L 233.558594 493.277344 L 212.851562 517.726562 L 212.851562 678.53125 C 212.851562 717.03125 181.539062 748.347656 143.046875 748.347656 C 104.554688 748.347656 73.242188 717.03125 73.242188 678.535156 L 73.242188 162.472656 C 73.242188 123.976562 104.554688 92.65625 143.046875 92.65625 C 181.539062 92.65625 212.851562 123.976562 212.851562 162.472656 L 212.851562 319.261719 L 382.542969 115.949219 C 394.894531 101.148438 413.039062 92.65625 432.324219 92.65625 M 432.324219 86.511719 C 411.214844 86.511719 391.351562 95.808594 377.828125 112.015625 L 218.996094 302.316406 L 218.996094 162.472656 C 218.996094 120.589844 184.925781 86.511719 143.046875 86.511719 C 101.171875 86.511719 67.101562 120.589844 67.101562 162.472656 L 67.101562 678.535156 C 67.101562 720.417969 101.171875 754.492188 143.046875 754.492188 C 184.925781 754.492188 218.996094 720.417969 218.996094 678.535156 L 218.996094 519.980469 L 233.144531 503.273438 L 390.417969 723.761719 C 404.140625 743.003906 426.445312 754.492188 450.082031 754.492188 C 477.757812 754.492188 502.765625 739.179688 515.351562 714.53125 C 527.9375 689.878906 525.675781 660.636719 509.453125 638.21875 L 329.445312 389.4375 L 486.566406 203.324219 C 504.59375 181.96875 508.480469 152.957031 496.714844 127.609375 C 484.9375 102.257812 460.265625 86.511719 432.324219 86.511719 Z M 432.324219 86.511719 " fill-opacity="1" fill-rule="nonzero"/></g><path fill="#58595b" d="M 456.722656 689.53125 L 449.519531 679.578125 L 452.007812 677.777344 L 459.210938 687.730469 Z M 442.316406 669.625 L 435.117188 659.671875 L 437.601562 657.871094 L 444.804688 667.824219 Z M 427.914062 649.71875 L 420.710938 639.761719 L 423.199219 637.960938 L 430.398438 647.917969 Z M 413.507812 629.808594 L 406.304688 619.855469 L 408.792969 618.054688 L 415.996094 628.007812 Z M 399.105469 609.902344 L 391.902344 599.949219 L 394.390625 598.148438 L 401.59375 608.101562 Z M 384.699219 589.996094 L 377.496094 580.039062 L 379.984375 578.238281 L 387.1875 588.195312 Z M 370.292969 570.085938 L 363.089844 560.132812 L 365.578125 558.332031 L 372.78125 568.285156 Z M 355.890625 550.179688 L 348.6875 540.222656 L 351.175781 538.421875 L 358.378906 548.378906 Z M 341.484375 530.269531 L 334.285156 520.316406 L 336.769531 518.515625 L 343.972656 528.46875 Z M 327.082031 510.363281 L 319.878906 500.410156 L 322.367188 498.609375 L 329.566406 508.5625 Z M 312.675781 490.457031 L 305.472656 480.5 L 307.960938 478.699219 L 315.164062 488.65625 Z M 298.273438 470.546875 L 291.070312 460.59375 L 293.554688 458.792969 L 300.757812 468.746094 Z M 283.867188 450.640625 L 278.894531 443.769531 L 281.382812 441.96875 L 286.355469 448.839844 Z M 283.867188 450.640625 " fill-opacity="1" fill-rule="nonzero"/><path fill="#58595b" d="M 175.769531 464.855469 L 173.421875 462.871094 L 181.347656 453.484375 L 183.695312 455.464844 Z M 191.617188 446.078125 L 189.273438 444.097656 L 197.195312 434.707031 L 199.542969 436.691406 Z M 207.46875 427.304688 L 205.125 425.320312 L 213.046875 415.933594 L 215.394531 417.914062 Z M 223.320312 408.527344 L 220.972656 406.546875 L 228.898438 397.15625 L 231.246094 399.140625 Z M 239.171875 389.75 L 236.824219 387.769531 L 244.75 378.382812 L 247.097656 380.363281 Z M 255.023438 370.976562 L 252.675781 368.992188 L 260.601562 359.605469 L 262.949219 361.585938 Z M 270.875 352.199219 L 268.527344 350.21875 L 276.453125 340.828125 L 278.800781 342.8125 Z M 286.726562 333.421875 L 284.378906 331.441406 L 292.304688 322.054688 L 294.652344 324.035156 Z M 302.578125 314.648438 L 300.230469 312.664062 L 308.15625 303.277344 L 310.503906 305.261719 Z M 318.429688 295.871094 L 316.082031 293.890625 L 324.007812 284.5 L 326.355469 286.484375 Z M 334.28125 277.097656 L 331.933594 275.113281 L 339.859375 265.726562 L 342.207031 267.707031 Z M 350.132812 258.320312 L 347.785156 256.339844 L 355.710938 246.949219 L 358.054688 248.933594 Z M 365.984375 239.542969 L 363.636719 237.5625 L 371.5625 228.175781 L 373.90625 230.15625 Z M 381.832031 220.769531 L 379.484375 218.785156 L 387.410156 209.398438 L 389.757812 211.378906 Z M 397.683594 201.992188 L 395.335938 200.011719 L 403.261719 190.621094 L 405.609375 192.601562 Z M 413.535156 183.214844 L 411.1875 181.234375 L 417.683594 173.539062 L 420.03125 175.523438 Z M 413.535156 183.214844 " fill-opacity="1" fill-rule="nonzero"/><path fill="#58595b" d="M 143.632812 700.191406 L 140.558594 700.191406 L 140.558594 695.652344 L 143.632812 695.652344 Z M 143.632812 683.367188 L 140.558594 683.367188 L 140.558594 671.078125 L 143.632812 671.078125 Z M 143.632812 658.792969 L 140.558594 658.792969 L 140.558594 646.503906 L 143.632812 646.503906 Z M 143.632812 634.21875 L 140.558594 634.21875 L 140.558594 621.933594 L 143.632812 621.933594 Z M 143.632812 609.644531 L 140.558594 609.644531 L 140.558594 597.359375 L 143.632812 597.359375 Z M 143.632812 585.070312 L 140.558594 585.070312 L 140.558594 572.785156 L 143.632812 572.785156 Z M 143.632812 560.496094 L 140.558594 560.496094 L 140.558594 548.210938 L 143.632812 548.210938 Z M 143.632812 535.921875 L 140.558594 535.921875 L 140.558594 523.636719 L 143.632812 523.636719 Z M 143.632812 511.347656 L 140.558594 511.347656 L 140.558594 499.0625 L 143.632812 499.0625 Z M 143.632812 486.777344 L 140.558594 486.777344 L 140.558594 474.488281 L 143.632812 474.488281 Z M 143.632812 462.203125 L 140.558594 462.203125 L 140.558594 449.914062 L 143.632812 449.914062 Z M 143.632812 437.628906 L 140.558594 437.628906 L 140.558594 425.339844 L 143.632812 425.339844 Z M 143.632812 413.054688 L 140.558594 413.054688 L 140.558594 400.765625 L 143.632812 400.765625 Z M 143.632812 388.480469 L 140.558594 388.480469 L 140.558594 376.191406 L 143.632812 376.191406 Z M 143.632812 363.90625 L 140.558594 363.90625 L 140.558594 351.621094 L 143.632812 351.621094 Z M 143.632812 339.332031 L 140.558594 339.332031 L 140.558594 327.046875 L 143.632812 327.046875 Z M 143.632812 314.757812 L 140.558594 314.757812 L 140.558594 302.472656 L 143.632812 302.472656 Z M 143.632812 290.183594 L 140.558594 290.183594 L 140.558594 277.898438 L 143.632812 277.898438 Z M 143.632812 265.609375 L 140.558594 265.609375 L 140.558594 253.324219 L 143.632812 253.324219 Z M 143.632812 241.035156 L 140.558594 241.035156 L 140.558594 228.75 L 143.632812 228.75 Z M 143.632812 216.460938 L 140.558594 216.460938 L 140.558594 204.175781 L 143.632812 204.175781 Z M 143.632812 191.890625 L 140.558594 191.890625 L 140.558594 179.601562 L 143.632812 179.601562 Z M 143.632812 191.890625 " fill-opacity="1" fill-rule="nonzero"/><path fill="#58595b" d="M 142.097656 714.707031 L 154.664062 692.933594 L 129.523438 692.933594 Z M 142.097656 714.707031 " fill-opacity="1" fill-rule="nonzero"/><path fill="#58595b" d="M 162.453125 476.007812 L 186.738281 469.5 L 168.960938 451.71875 Z M 162.453125 476.007812 " fill-opacity="1" fill-rule="nonzero"/><path fill="#58595b" d="M 465.746094 701.648438 L 464.6875 676.523438 L 443.464844 690.007812 Z M 465.746094 701.648438 " fill-opacity="1" fill-rule="nonzero"/><path fill="#414042" d="M 172.972656 156.019531 C 172.972656 157.03125 172.921875 158.039062 172.824219 159.046875 C 172.722656 160.050781 172.574219 161.050781 172.378906 162.042969 C 172.179688 163.035156 171.933594 164.015625 171.640625 164.984375 C 171.347656 165.949219 171.007812 166.902344 170.621094 167.835938 C 170.234375 168.769531 169.800781 169.683594 169.324219 170.574219 C 168.847656 171.46875 168.328125 172.332031 167.769531 173.175781 C 167.207031 174.015625 166.605469 174.828125 165.960938 175.609375 C 165.320312 176.390625 164.644531 177.140625 163.929688 177.855469 C 163.214844 178.570312 162.464844 179.246094 161.683594 179.890625 C 160.902344 180.53125 160.089844 181.132812 159.25 181.695312 C 158.410156 182.257812 157.542969 182.777344 156.652344 183.253906 C 155.757812 183.730469 154.84375 184.160156 153.910156 184.546875 C 152.976562 184.933594 152.027344 185.277344 151.058594 185.570312 C 150.089844 185.863281 149.109375 186.109375 148.121094 186.304688 C 147.128906 186.503906 146.128906 186.652344 145.121094 186.75 C 144.117188 186.847656 143.105469 186.898438 142.097656 186.898438 C 141.085938 186.898438 140.074219 186.847656 139.070312 186.75 C 138.0625 186.652344 137.0625 186.503906 136.074219 186.304688 C 135.082031 186.109375 134.101562 185.863281 133.132812 185.570312 C 132.164062 185.277344 131.214844 184.933594 130.28125 184.546875 C 129.347656 184.160156 128.433594 183.730469 127.542969 183.253906 C 126.648438 182.777344 125.785156 182.257812 124.941406 181.695312 C 124.101562 181.132812 123.289062 180.53125 122.507812 179.890625 C 121.726562 179.246094 120.980469 178.570312 120.265625 177.855469 C 119.550781 177.140625 118.871094 176.390625 118.230469 175.609375 C 117.585938 174.828125 116.984375 174.015625 116.425781 173.175781 C 115.863281 172.332031 115.34375 171.46875 114.867188 170.574219 C 114.390625 169.683594 113.957031 168.769531 113.570312 167.835938 C 113.183594 166.902344 112.84375 165.949219 112.550781 164.984375 C 112.257812 164.015625 112.011719 163.035156 111.8125 162.042969 C 111.617188 161.050781 111.46875 160.050781 111.371094 159.046875 C 111.269531 158.039062 111.222656 157.03125 111.222656 156.019531 C 111.222656 155.007812 111.269531 154 111.371094 152.992188 C 111.46875 151.984375 111.617188 150.984375 111.8125 149.996094 C 112.011719 149.003906 112.257812 148.023438 112.550781 147.054688 C 112.84375 146.085938 113.183594 145.136719 113.570312 144.203125 C 113.957031 143.265625 114.390625 142.355469 114.867188 141.460938 C 115.34375 140.570312 115.863281 139.703125 116.425781 138.863281 C 116.984375 138.023438 117.585938 137.210938 118.230469 136.429688 C 118.871094 135.648438 119.550781 134.898438 120.265625 134.183594 C 120.980469 133.46875 121.726562 132.789062 122.507812 132.148438 C 123.289062 131.507812 124.101562 130.90625 124.941406 130.34375 C 125.785156 129.78125 126.648438 129.261719 127.542969 128.785156 C 128.433594 128.308594 129.347656 127.875 130.28125 127.488281 C 131.214844 127.101562 132.164062 126.761719 133.132812 126.46875 C 134.101562 126.175781 135.082031 125.929688 136.074219 125.730469 C 137.0625 125.535156 138.0625 125.386719 139.070312 125.289062 C 140.074219 125.1875 141.085938 125.136719 142.097656 125.136719 C 143.105469 125.136719 144.117188 125.1875 145.121094 125.289062 C 146.128906 125.386719 147.128906 125.535156 148.121094 125.730469 C 149.109375 125.929688 150.089844 126.175781 151.058594 126.46875 C 152.027344 126.761719 152.976562 127.101562 153.910156 127.488281 C 154.84375 127.875 155.757812 128.308594 156.652344 128.785156 C 157.542969 129.261719 158.410156 129.78125 159.25 130.34375 C 160.089844 130.90625 160.902344 131.507812 161.683594 132.148438 C 162.464844 132.789062 163.214844 133.46875 163.929688 134.183594 C 164.644531 134.898438 165.320312 135.648438 165.960938 136.429688 C 166.605469 137.210938 167.207031 138.023438 167.769531 138.863281 C 168.328125 139.703125 168.847656 140.570312 169.324219 141.460938 C 169.800781 142.355469 170.234375 143.265625 170.621094 144.203125 C 171.007812 145.136719 171.347656 146.085938 171.640625 147.054688 C 171.933594 148.023438 172.179688 149.003906 172.378906 149.996094 C 172.574219 150.984375 172.722656 151.984375 172.824219 152.992188 C 172.921875 154 172.972656 155.007812 172.972656 156.019531 Z M 172.972656 156.019531 " fill-opacity="1" fill-rule="nonzero"/><path fill="#fcfcfc" d="M 145.671875 134.878906 L 141.707031 134.878906 C 141.257812 134.878906 140.828125 135.074219 140.535156 135.417969 L 128.863281 149.074219 C 128.347656 149.683594 128.375 150.589844 128.945312 151.160156 L 131.167969 153.378906 C 131.765625 153.972656 132.730469 153.972656 133.332031 153.382812 L 140.167969 146.628906 L 140.167969 176.222656 C 140.167969 177.066406 140.859375 177.757812 141.707031 177.757812 L 145.671875 177.757812 C 146.515625 177.757812 147.207031 177.066406 147.207031 176.222656 L 147.207031 136.414062 C 147.207031 135.566406 146.515625 134.878906 145.671875 134.878906 Z M 145.671875 134.878906 " fill-opacity="1" fill-rule="nonzero"/><path fill="#414042" d="M 302.386719 427.304688 C 302.382812 428.316406 302.335938 429.324219 302.234375 430.332031 C 302.136719 431.335938 301.988281 432.335938 301.792969 433.328125 C 301.59375 434.320312 301.347656 435.300781 301.054688 436.269531 C 300.761719 437.234375 300.421875 438.1875 300.035156 439.121094 C 299.648438 440.054688 299.214844 440.96875 298.738281 441.859375 C 298.261719 442.753906 297.742188 443.621094 297.179688 444.460938 C 296.621094 445.300781 296.019531 446.113281 295.375 446.894531 C 294.734375 447.675781 294.058594 448.425781 293.339844 449.140625 C 292.625 449.855469 291.878906 450.535156 291.097656 451.175781 C 290.316406 451.816406 289.503906 452.417969 288.664062 452.980469 C 287.820312 453.542969 286.957031 454.0625 286.0625 454.539062 C 285.171875 455.015625 284.257812 455.445312 283.324219 455.835938 C 282.390625 456.222656 281.441406 456.5625 280.472656 456.855469 C 279.503906 457.148438 278.523438 457.394531 277.53125 457.589844 C 276.542969 457.789062 275.542969 457.9375 274.535156 458.035156 C 273.53125 458.136719 272.519531 458.183594 271.507812 458.183594 C 270.5 458.183594 269.488281 458.136719 268.484375 458.035156 C 267.476562 457.9375 266.476562 457.789062 265.484375 457.589844 C 264.496094 457.394531 263.515625 457.148438 262.546875 456.855469 C 261.578125 456.5625 260.628906 456.222656 259.695312 455.835938 C 258.761719 455.445312 257.847656 455.015625 256.957031 454.539062 C 256.0625 454.0625 255.195312 453.542969 254.355469 452.980469 C 253.515625 452.417969 252.703125 451.816406 251.921875 451.175781 C 251.140625 450.535156 250.390625 449.855469 249.675781 449.140625 C 248.960938 448.425781 248.285156 447.675781 247.644531 446.894531 C 247 446.113281 246.398438 445.300781 245.835938 444.460938 C 245.277344 443.621094 244.757812 442.753906 244.28125 441.859375 C 243.804688 440.96875 243.371094 440.054688 242.984375 439.121094 C 242.597656 438.1875 242.257812 437.234375 241.964844 436.269531 C 241.671875 435.300781 241.425781 434.320312 241.226562 433.328125 C 241.03125 432.335938 240.882812 431.335938 240.78125 430.332031 C 240.683594 429.324219 240.632812 428.316406 240.632812 427.304688 C 240.632812 426.292969 240.683594 425.285156 240.78125 424.277344 C 240.882812 423.269531 241.03125 422.273438 241.226562 421.28125 C 241.425781 420.289062 241.671875 419.308594 241.964844 418.339844 C 242.257812 417.371094 242.597656 416.421875 242.984375 415.488281 C 243.371094 414.554688 243.804688 413.640625 244.28125 412.746094 C 244.757812 411.855469 245.277344 410.988281 245.835938 410.148438 C 246.398438 409.308594 247 408.496094 247.644531 407.714844 C 248.285156 406.933594 248.960938 406.183594 249.675781 405.46875 C 250.390625 404.753906 251.140625 404.074219 251.921875 403.433594 C 252.703125 402.792969 253.515625 402.191406 254.355469 401.628906 C 255.195312 401.066406 256.0625 400.546875 256.957031 400.070312 C 257.847656 399.59375 258.761719 399.160156 259.695312 398.773438 C 260.628906 398.386719 261.578125 398.046875 262.546875 397.753906 C 263.515625 397.460938 264.496094 397.214844 265.484375 397.019531 C 266.476562 396.820312 267.476562 396.671875 268.484375 396.574219 C 269.488281 396.472656 270.5 396.425781 271.507812 396.425781 C 272.519531 396.425781 273.53125 396.472656 274.535156 396.574219 C 275.542969 396.671875 276.542969 396.820312 277.53125 397.019531 C 278.523438 397.214844 279.503906 397.460938 280.472656 397.753906 C 281.441406 398.046875 282.390625 398.386719 283.324219 398.773438 C 284.257812 399.160156 285.171875 399.59375 286.0625 400.070312 C 286.957031 400.546875 287.820312 401.066406 288.664062 401.628906 C 289.503906 402.191406 290.316406 402.792969 291.097656 403.433594 C 291.878906 404.074219 292.625 404.753906 293.339844 405.46875 C 294.058594 406.183594 294.734375 406.933594 295.375 407.714844 C 296.019531 408.496094 296.621094 409.308594 297.179688 410.148438 C 297.742188 410.988281 298.261719 411.855469 298.738281 412.746094 C 299.214844 413.640625 299.648438 414.554688 300.035156 415.488281 C 300.421875 416.421875 300.761719 417.371094 301.054688 418.339844 C 301.347656 419.308594 301.59375 420.289062 301.792969 421.28125 C 301.988281 422.273438 302.136719 423.269531 302.234375 424.277344 C 302.335938 425.285156 302.382812 426.292969 302.386719 427.304688 Z M 302.386719 427.304688 " fill-opacity="1" fill-rule="nonzero"/><path fill="#fcfcfc" d="M 283.613281 429.222656 C 282.726562 427.964844 281.660156 426.9375 280.433594 426.152344 C 281.273438 425.457031 281.996094 424.625 282.589844 423.652344 C 283.730469 421.808594 284.304688 419.660156 284.304688 417.269531 C 284.304688 414.984375 283.777344 412.910156 282.726562 411.101562 C 281.671875 409.28125 280.183594 407.84375 278.3125 406.820312 C 276.457031 405.804688 274.347656 405.289062 272.03125 405.289062 C 268.988281 405.289062 266.273438 406.144531 263.957031 407.832031 C 261.675781 409.484375 259.894531 411.746094 258.664062 414.554688 C 258.339844 415.28125 258.636719 416.136719 259.332031 416.519531 L 262.539062 418.269531 C 262.914062 418.472656 263.34375 418.511719 263.738281 418.382812 C 264.140625 418.257812 264.472656 417.976562 264.65625 417.597656 C 265.5625 415.753906 266.636719 414.328125 267.847656 413.371094 C 268.984375 412.476562 270.351562 412.039062 272.03125 412.039062 C 273.515625 412.039062 274.691406 412.503906 275.621094 413.472656 C 276.570312 414.441406 277.03125 415.6875 277.03125 417.269531 C 277.03125 419.066406 276.535156 420.472656 275.515625 421.566406 C 274.53125 422.632812 273.21875 423.148438 271.507812 423.148438 L 268.941406 423.148438 C 268.09375 423.148438 267.402344 423.839844 267.402344 424.683594 L 267.402344 428.300781 C 267.402344 429.152344 268.09375 429.835938 268.941406 429.835938 L 271.742188 429.835938 C 273.742188 429.835938 275.335938 430.457031 276.605469 431.722656 C 277.871094 432.992188 278.488281 434.585938 278.488281 436.589844 C 278.488281 438.515625 277.882812 440.050781 276.640625 441.273438 C 275.386719 442.507812 273.863281 443.109375 271.976562 443.109375 C 270.367188 443.109375 269.003906 442.652344 267.8125 441.71875 C 266.558594 440.726562 265.496094 439.332031 264.667969 437.574219 C 264.484375 437.183594 264.140625 436.886719 263.734375 436.757812 C 263.324219 436.628906 262.882812 436.679688 262.503906 436.902344 L 259 438.941406 C 258.339844 439.328125 258.0625 440.140625 258.351562 440.847656 C 259.472656 443.601562 261.199219 445.828125 263.492188 447.472656 C 265.8125 449.132812 268.601562 449.976562 271.792969 449.976562 C 274.332031 449.976562 276.699219 449.40625 278.84375 448.28125 C 281.007812 447.144531 282.742188 445.535156 283.996094 443.492188 C 285.242188 441.4375 285.878906 439.117188 285.878906 436.589844 C 285.882812 433.824219 285.121094 431.34375 283.613281 429.222656 Z M 283.613281 429.222656 " fill-opacity="1" fill-rule="nonzero"/><path fill="#414042" d="M 463.238281 156.316406 C 463.238281 157.328125 463.191406 158.335938 463.089844 159.34375 C 462.992188 160.351562 462.84375 161.347656 462.648438 162.339844 C 462.449219 163.332031 462.203125 164.3125 461.910156 165.28125 C 461.617188 166.25 461.277344 167.199219 460.890625 168.132812 C 460.503906 169.070312 460.070312 169.980469 459.59375 170.875 C 459.117188 171.765625 458.597656 172.632812 458.035156 173.472656 C 457.476562 174.3125 456.875 175.125 456.230469 175.90625 C 455.589844 176.6875 454.910156 177.4375 454.195312 178.152344 C 453.480469 178.867188 452.734375 179.546875 451.953125 180.1875 C 451.171875 180.828125 450.359375 181.429688 449.519531 181.992188 C 448.675781 182.554688 447.8125 183.074219 446.917969 183.550781 C 446.027344 184.027344 445.113281 184.460938 444.179688 184.847656 C 443.246094 185.234375 442.296875 185.574219 441.328125 185.867188 C 440.359375 186.160156 439.378906 186.40625 438.386719 186.605469 C 437.398438 186.800781 436.398438 186.949219 435.390625 187.046875 C 434.386719 187.148438 433.375 187.195312 432.363281 187.195312 C 431.355469 187.195312 430.34375 187.148438 429.339844 187.046875 C 428.332031 186.949219 427.332031 186.800781 426.339844 186.605469 C 425.351562 186.40625 424.371094 186.160156 423.402344 185.867188 C 422.433594 185.574219 421.484375 185.234375 420.550781 184.847656 C 419.617188 184.460938 418.703125 184.027344 417.8125 183.550781 C 416.917969 183.074219 416.050781 182.554688 415.210938 181.992188 C 414.371094 181.429688 413.558594 180.828125 412.777344 180.1875 C 411.996094 179.546875 411.246094 178.867188 410.53125 178.152344 C 409.816406 177.4375 409.140625 176.6875 408.5 175.90625 C 407.855469 175.125 407.253906 174.3125 406.691406 173.472656 C 406.132812 172.632812 405.613281 171.765625 405.136719 170.875 C 404.660156 169.980469 404.226562 169.070312 403.839844 168.132812 C 403.453125 167.199219 403.113281 166.25 402.820312 165.28125 C 402.527344 164.3125 402.28125 163.332031 402.082031 162.339844 C 401.886719 161.347656 401.738281 160.351562 401.636719 159.34375 C 401.539062 158.335938 401.488281 157.328125 401.488281 156.316406 C 401.488281 155.304688 401.539062 154.296875 401.636719 153.289062 C 401.738281 152.285156 401.886719 151.285156 402.082031 150.292969 C 402.28125 149.300781 402.527344 148.320312 402.820312 147.351562 C 403.113281 146.386719 403.453125 145.433594 403.839844 144.5 C 404.226562 143.566406 404.660156 142.652344 405.136719 141.761719 C 405.613281 140.867188 406.132812 140 406.691406 139.160156 C 407.253906 138.320312 407.855469 137.507812 408.5 136.726562 C 409.140625 135.945312 409.816406 135.195312 410.53125 134.480469 C 411.246094 133.765625 411.996094 133.085938 412.777344 132.445312 C 413.558594 131.804688 414.371094 131.203125 415.210938 130.640625 C 416.050781 130.078125 416.917969 129.558594 417.8125 129.082031 C 418.703125 128.605469 419.617188 128.175781 420.550781 127.789062 C 421.484375 127.398438 422.433594 127.058594 423.402344 126.765625 C 424.371094 126.472656 425.351562 126.226562 426.339844 126.03125 C 427.332031 125.832031 428.332031 125.683594 429.339844 125.585938 C 430.34375 125.484375 431.355469 125.4375 432.363281 125.4375 C 433.375 125.4375 434.386719 125.484375 435.390625 125.585938 C 436.398438 125.683594 437.398438 125.832031 438.386719 126.03125 C 439.378906 126.226562 440.359375 126.472656 441.328125 126.765625 C 442.296875 127.058594 443.246094 127.398438 444.179688 127.789062 C 445.113281 128.175781 446.027344 128.605469 446.917969 129.082031 C 447.8125 129.558594 448.675781 130.078125 449.519531 130.640625 C 450.359375 131.203125 451.171875 131.804688 451.953125 132.445312 C 452.734375 133.085938 453.480469 133.765625 454.195312 134.480469 C 454.910156 135.195312 455.589844 135.945312 456.230469 136.726562 C 456.875 137.507812 457.476562 138.320312 458.035156 139.160156 C 458.597656 140 459.117188 140.867188 459.59375 141.761719 C 460.070312 142.652344 460.503906 143.566406 460.890625 144.5 C 461.277344 145.433594 461.617188 146.386719 461.910156 147.351562 C 462.203125 148.320312 462.449219 149.300781 462.648438 150.292969 C 462.84375 151.285156 462.992188 152.285156 463.089844 153.289062 C 463.191406 154.296875 463.238281 155.304688 463.238281 156.316406 Z M 463.238281 156.316406 " fill-opacity="1" fill-rule="nonzero"/><path fill="#fcfcfc" d="M 444.738281 171.011719 L 427.378906 171.011719 C 427.605469 170.59375 427.910156 170.164062 428.3125 169.726562 C 429.40625 168.519531 431.15625 166.917969 433.519531 164.976562 L 433.488281 164.945312 C 433.851562 164.699219 434.246094 164.359375 434.695312 163.972656 C 438.042969 161.144531 440.71875 158.363281 442.648438 155.707031 C 444.699219 152.890625 445.742188 149.640625 445.742188 146.050781 C 445.742188 142.5 444.53125 139.613281 442.144531 137.464844 C 439.800781 135.367188 436.660156 134.300781 432.828125 134.300781 C 430.140625 134.300781 427.515625 134.972656 425.019531 136.292969 C 422.554688 137.597656 420.441406 139.441406 418.75 141.761719 C 418.277344 142.410156 418.382812 143.3125 418.996094 143.832031 L 422.207031 146.578125 C 422.523438 146.851562 422.929688 146.992188 423.375 146.933594 C 423.792969 146.886719 424.179688 146.667969 424.429688 146.324219 C 425.664062 144.667969 427.003906 143.394531 428.40625 142.546875 C 431.101562 140.914062 434.855469 140.917969 436.789062 142.664062 C 437.722656 143.515625 438.179688 144.621094 438.179688 146.050781 C 438.179688 148.449219 437.578125 150.496094 436.34375 152.308594 C 435.035156 154.238281 433.144531 156.257812 430.691406 158.339844 C 430.5625 158.453125 429.925781 158.976562 428.761719 159.921875 C 426.746094 161.585938 425.101562 163.039062 423.871094 164.246094 C 422.601562 165.5 421.519531 166.9375 420.65625 168.515625 C 419.738281 170.195312 419.269531 172.046875 419.269531 174.007812 L 419.269531 176.515625 C 419.269531 177.363281 419.960938 178.054688 420.804688 178.054688 L 444.734375 178.054688 C 445.582031 178.054688 446.269531 177.363281 446.269531 176.515625 L 446.269531 172.546875 C 446.273438 171.699219 445.582031 171.011719 444.738281 171.011719 Z M 444.738281 171.011719 " fill-opacity="1" fill-rule="nonzero"/></svg>