<svg xmlns="http://www.w3.org/2000/svg" xmlns:xlink="http://www.w3.org/1999/xlink" width="800" zoomAndPan="magnify" viewBox="0 0 600 899.99999" height="1200" preserveAspectRatio="xMidYMid meet" version="1.0"><defs><g/><clipPath id="29fb11bc7a"><path d="M 133.910156 256.21875 L 175.152344 256.21875 L 175.152344 283.011719 L 133.910156 283.011719 Z M 133.910156 256.21875 " clip-rule="nonzero"/></clipPath><clipPath id="d05c32156f"><path d="M 215 478 L 249 478 L 249 512 L 215 512 Z M 215 478 " clip-rule="nonzero"/></clipPath><clipPath id="2c1475121f"><path d="M 214.230469 483.230469 L 233.324219 464.140625 L 262.492188 493.308594 L 243.398438 512.398438 Z M 214.230469 483.230469 " clip-rule="nonzero"/></clipPath><clipPath id="18180a9d28"><path d="M 214.230469 483.230469 L 233.324219 464.140625 L 262.492188 493.308594 L 243.398438 512.398438 Z M 214.230469 483.230469 " clip-rule="nonzero"/></clipPath><clipPath id="7ef51dab59"><path d="M 214.234375 483.238281 L 233.179688 464.292969 L 262.480469 493.59375 L 243.535156 512.535156 Z M 214.234375 483.238281 " clip-rule="nonzero"/></clipPath><clipPath id="2cd996c2a5"><path d="M 263 505 L 297 505 L 297 539 L 263 539 Z M 263 505 " clip-rule="nonzero"/></clipPath><clipPath id="d95ad0b53c"><path d="M 290.324219 504.367188 L 310.332031 522.496094 L 282.632812 553.066406 L 262.625 534.933594 Z M 290.324219 504.367188 " clip-rule="nonzero"/></clipPath><clipPath id="0f27371539"><path d="M 290.324219 504.367188 L 310.332031 522.496094 L 282.632812 553.066406 L 262.625 534.933594 Z M 290.324219 504.367188 " clip-rule="nonzero"/></clipPath><clipPath id="3e20f37d9b"><path d="M 290.320312 504.371094 L 310.171875 522.363281 L 282.347656 553.066406 L 262.496094 535.078125 Z M 290.320312 504.371094 " clip-rule="nonzero"/></clipPath></defs><path stroke-linecap="butt" transform="matrix(0.75, 0, 0, 0.75, 49.130859, -15.449228)" fill="none" stroke-linejoin="miter" d="M 141.960945 1042.104234 C 121.164069 1042.104234 105.200527 1036.208401 94.06511 1024.421942 C 82.929692 1012.630274 77.367192 996.338607 77.367192 975.546939 L 77.367192 382.171908 C 77.367192 360.718782 82.929692 344.510448 94.06511 333.541697 C 105.200527 322.40628 121.164069 316.838571 141.960945 316.838571 C 162.752613 316.838571 178.632822 322.40628 189.606781 333.541697 C 200.73699 344.510448 206.304699 360.718782 206.304699 382.171908 L 206.304699 638.578171 L 208.273449 638.578171 L 496.856797 349.015656 C 507.658881 338.208364 518.388048 330.182322 529.028674 324.942738 C 539.835966 319.541696 551.95055 316.838571 565.377634 316.838571 C 584.86201 316.838571 598.778678 321.833363 607.132845 331.822947 C 615.481804 341.807323 618.83597 353.515656 617.200554 366.94274 C 615.565137 380.369825 609.013053 392.812534 597.554719 404.276076 L 303.809912 695.067758 L 304.794287 636.61463 L 611.549512 948.531313 C 625.632846 961.958397 633.002638 976.036522 633.653679 990.776106 C 634.476596 1005.510482 629.971388 1017.791733 620.14847 1027.61465 C 610.487012 1037.276109 596.242219 1042.104234 577.414093 1042.104234 C 561.367217 1042.104234 548.429717 1038.750067 538.606799 1032.036525 C 528.945341 1025.322983 517.731798 1015.578191 504.960964 1002.807357 L 208.273449 706.119842 L 206.304699 706.119842 L 206.304699 975.546939 C 206.304699 996.338607 200.903657 1012.630274 190.096365 1024.421942 C 179.455739 1036.208401 163.408863 1042.104234 141.960945 1042.104234 Z M 141.960945 1042.104234 " stroke="#1f8785" stroke-width="40.239601" stroke-opacity="1" stroke-miterlimit="4"/><g fill="#ffffff" fill-opacity="1"><g transform="translate(49.130859, 760.050731)"><g><path d="M 106.390625 6.03125 C 90.796875 6.03125 78.847656 1.628906 70.546875 -7.171875 C 62.242188 -15.972656 58.09375 -28.171875 58.09375 -43.765625 L 58.09375 -488.921875 C 58.09375 -505.015625 62.242188 -517.207031 70.546875 -525.5 C 78.847656 -533.800781 90.796875 -537.953125 106.390625 -537.953125 C 121.984375 -537.953125 133.925781 -533.800781 142.21875 -525.5 C 150.519531 -517.207031 154.671875 -505.015625 154.671875 -488.921875 L 154.671875 -296.515625 L 156.1875 -296.515625 L 372.71875 -513.8125 C 380.769531 -521.863281 388.816406 -527.898438 396.859375 -531.921875 C 404.910156 -535.941406 413.96875 -537.953125 424.03125 -537.953125 C 438.613281 -537.953125 449.046875 -534.179688 455.328125 -526.640625 C 461.617188 -519.097656 464.132812 -510.296875 462.875 -500.234375 C 461.625 -490.171875 456.722656 -480.863281 448.171875 -472.3125 L 227.859375 -254.265625 L 228.609375 -298.03125 L 458.734375 -64.125 C 469.296875 -54.070312 474.828125 -43.507812 475.328125 -32.4375 C 475.835938 -21.375 472.441406 -12.195312 465.140625 -4.90625 C 457.847656 2.382812 447.160156 6.03125 433.078125 6.03125 C 421.003906 6.03125 411.320312 3.519531 404.03125 -1.5 C 396.738281 -6.53125 388.316406 -13.828125 378.765625 -23.390625 L 156.1875 -245.96875 L 154.671875 -245.96875 L 154.671875 -43.765625 C 154.671875 -28.171875 150.644531 -15.972656 142.59375 -7.171875 C 134.550781 1.628906 122.484375 6.03125 106.390625 6.03125 Z M 106.390625 6.03125 "/></g></g></g><g clip-path="url(#29fb11bc7a)"><path fill="#1f8785" d="M 156.011719 282.265625 L 174.671875 259.574219 C 176.078125 257.867188 174.144531 255.453125 172.171875 256.457031 L 155.363281 264.996094 C 154.78125 265.289062 154.09375 265.289062 153.511719 264.996094 L 136.699219 256.457031 C 134.726562 255.453125 132.792969 257.863281 134.199219 259.574219 L 152.859375 282.265625 C 153.675781 283.257812 155.195312 283.257812 156.011719 282.265625 " fill-opacity="1" fill-rule="nonzero"/></g><path fill="#1f8785" d="M 148.4375 739.269531 L 148.4375 703.269531 L 160.4375 703.269531 L 160.4375 739.269531 M 148.4375 691.269531 L 148.4375 655.269531 L 160.4375 655.269531 L 160.4375 691.269531 M 148.4375 643.269531 L 148.4375 607.269531 L 160.4375 607.269531 L 160.4375 643.269531 M 148.4375 595.269531 L 148.4375 559.269531 L 160.4375 559.269531 L 160.4375 595.269531 M 148.4375 547.269531 L 148.4375 511.269531 L 160.4375 511.269531 L 160.4375 547.269531 M 148.4375 499.269531 L 148.4375 463.269531 L 160.4375 463.269531 L 160.4375 499.269531 M 148.4375 451.269531 L 148.4375 415.269531 L 160.4375 415.269531 L 160.4375 451.269531 M 148.4375 403.269531 L 148.4375 367.269531 L 160.4375 367.269531 L 160.4375 403.269531 M 148.4375 355.269531 L 148.4375 319.269531 L 160.4375 319.269531 L 160.4375 355.269531 M 148.4375 307.269531 L 148.4375 299.308594 L 160.4375 299.308594 L 160.4375 307.269531 " fill-opacity="1" fill-rule="nonzero"/><g clip-path="url(#d05c32156f)"><g clip-path="url(#2c1475121f)"><g clip-path="url(#18180a9d28)"><g clip-path="url(#7ef51dab59)"><path fill="#1f8785" d="M 246.1875 478.355469 L 216.949219 481.203125 C 214.746094 481.417969 214.410156 484.492188 216.511719 485.179688 L 234.433594 491.027344 C 235.054688 491.230469 235.539062 491.714844 235.742188 492.335938 L 241.59375 510.261719 C 242.28125 512.367188 245.351562 512.027344 245.566406 509.828125 L 248.417969 480.585938 C 248.542969 479.304688 247.46875 478.230469 246.1875 478.355469 " fill-opacity="1" fill-rule="nonzero"/></g></g></g></g><path fill="#1f8785" d="M 473.75 260.457031 L 448.359375 285.976562 L 439.851562 277.511719 L 465.246094 251.992188 M 439.894531 294.484375 L 414.503906 320.003906 L 405.996094 311.539062 L 431.386719 286.019531 M 406.039062 328.507812 L 380.648438 354.027344 L 372.140625 345.5625 L 397.53125 320.042969 M 372.183594 362.535156 L 346.789062 388.054688 L 338.285156 379.589844 L 363.675781 354.070312 M 338.328125 396.558594 L 312.933594 422.078125 L 304.429688 413.617188 L 329.820312 388.097656 M 304.46875 430.585938 L 279.078125 456.105469 L 270.570312 447.640625 L 295.964844 422.121094 M 270.613281 464.613281 L 263.601562 471.660156 L 255.09375 463.195312 L 262.109375 456.148438 " fill-opacity="1" fill-rule="nonzero"/><g clip-path="url(#2cd996c2a5)"><g clip-path="url(#d95ad0b53c)"><g clip-path="url(#0f27371539)"><g clip-path="url(#3e20f37d9b)"><path fill="#1f8785" d="M 296.765625 536.046875 L 292.484375 506.980469 C 292.160156 504.792969 289.074219 504.609375 288.492188 506.742188 L 283.53125 524.929688 C 283.359375 525.558594 282.898438 526.070312 282.289062 526.300781 L 264.671875 533.027344 C 262.605469 533.816406 263.09375 536.867188 265.304688 536.972656 L 294.648438 538.382812 C 295.933594 538.445312 296.953125 537.320312 296.765625 536.046875 " fill-opacity="1" fill-rule="nonzero"/></g></g></g></g><path fill="#1f8785" d="M 478.089844 728.035156 L 452.636719 702.578125 L 461.121094 694.09375 L 486.574219 719.550781 M 444.148438 694.09375 L 418.695312 668.636719 L 427.179688 660.152344 L 452.636719 685.609375 M 410.207031 660.152344 L 384.753906 634.695312 L 393.238281 626.210938 L 418.695312 651.667969 M 376.265625 626.210938 L 350.8125 600.753906 L 359.296875 592.269531 L 384.753906 617.726562 M 342.328125 592.269531 L 316.871094 566.816406 L 325.355469 558.328125 L 350.8125 583.785156 M 308.386719 558.328125 L 292.015625 541.960938 L 300.5 533.476562 L 316.871094 549.84375 " fill-opacity="1" fill-rule="nonzero"/></svg>