<svg xmlns="http://www.w3.org/2000/svg" xmlns:xlink="http://www.w3.org/1999/xlink" width="794" zoomAndPan="magnify" viewBox="0 0 594.95996 842.24997" height="1123" preserveAspectRatio="xMidYMid meet" version="1.0"><defs><g/></defs><g fill="#000000" fill-opacity="1"><g transform="translate(76.905327, 608.138444)"><g><path d="M 81.53125 -153.9375 C 76.84375 -153.9375 74.5 -156.28125 74.5 -160.96875 C 74.5 -165.644531 76.84375 -167.984375 81.53125 -167.984375 C 86.21875 -167.984375 88.5625 -165.644531 88.5625 -160.96875 C 88.5625 -156.28125 86.21875 -153.9375 81.53125 -153.9375 Z M 81.53125 -125.109375 C 76.84375 -125.109375 74.5 -127.453125 74.5 -132.140625 C 74.5 -136.828125 76.84375 -139.171875 81.53125 -139.171875 C 86.21875 -139.171875 88.5625 -136.828125 88.5625 -132.140625 C 88.5625 -127.453125 86.21875 -125.109375 81.53125 -125.109375 Z M 81.53125 -96.296875 C 76.84375 -96.296875 74.5 -98.640625 74.5 -103.328125 C 74.5 -108.015625 76.84375 -110.359375 81.53125 -110.359375 C 86.21875 -110.359375 88.5625 -108.015625 88.5625 -103.328125 C 88.5625 -98.640625 86.21875 -96.296875 81.53125 -96.296875 Z M 81.53125 -67.484375 C 76.84375 -67.484375 74.5 -69.820312 74.5 -74.5 C 74.5 -79.1875 76.84375 -81.53125 81.53125 -81.53125 C 86.21875 -81.53125 88.5625 -79.1875 88.5625 -74.5 C 88.5625 -69.820312 86.21875 -67.484375 81.53125 -67.484375 Z M 81.53125 -377.453125 C 76.84375 -377.453125 74.5 -379.796875 74.5 -384.484375 C 74.5 -389.171875 76.84375 -391.515625 81.53125 -391.515625 C 86.21875 -391.515625 88.5625 -389.171875 88.5625 -384.484375 C 88.5625 -379.796875 86.21875 -377.453125 81.53125 -377.453125 Z M 81.53125 -350.046875 C 76.84375 -350.046875 74.5 -352.382812 74.5 -357.0625 C 74.5 -361.75 76.84375 -364.09375 81.53125 -364.09375 C 86.21875 -364.09375 88.5625 -361.75 88.5625 -357.0625 C 88.5625 -352.382812 86.21875 -350.046875 81.53125 -350.046875 Z M 81.53125 -319.8125 C 76.84375 -319.8125 74.5 -322.15625 74.5 -326.84375 C 74.5 -331.53125 76.84375 -333.875 81.53125 -333.875 C 86.21875 -333.875 88.5625 -331.53125 88.5625 -326.84375 C 88.5625 -322.15625 86.21875 -319.8125 81.53125 -319.8125 Z M 81.53125 -263.578125 C 76.84375 -263.578125 74.5 -265.921875 74.5 -270.609375 C 74.5 -275.296875 76.84375 -277.640625 81.53125 -277.640625 C 86.21875 -277.640625 88.5625 -275.296875 88.5625 -270.609375 C 88.5625 -265.921875 86.21875 -263.578125 81.53125 -263.578125 Z M 81.53125 -237.578125 C 76.84375 -237.578125 74.5 -239.921875 74.5 -244.609375 C 74.5 -249.296875 76.84375 -251.640625 81.53125 -251.640625 C 86.21875 -251.640625 88.5625 -249.296875 88.5625 -244.609375 C 88.5625 -239.921875 86.21875 -237.578125 81.53125 -237.578125 Z M 81.53125 -209.46875 C 76.84375 -209.46875 74.5 -211.804688 74.5 -216.484375 C 74.5 -221.171875 76.84375 -223.515625 81.53125 -223.515625 C 86.21875 -223.515625 88.5625 -221.171875 88.5625 -216.484375 C 88.5625 -211.804688 86.21875 -209.46875 81.53125 -209.46875 Z M 81.53125 -181.34375 C 76.84375 -181.34375 74.5 -183.6875 74.5 -188.375 C 74.5 -193.0625 76.84375 -195.40625 81.53125 -195.40625 C 86.21875 -195.40625 88.5625 -193.0625 88.5625 -188.375 C 88.5625 -183.6875 86.21875 -181.34375 81.53125 -181.34375 Z M 81.53125 -483.59375 C 76.84375 -483.59375 74.5 -485.9375 74.5 -490.625 C 74.5 -495.300781 76.84375 -497.640625 81.53125 -497.640625 C 86.21875 -497.640625 88.5625 -495.300781 88.5625 -490.625 C 88.5625 -485.9375 86.21875 -483.59375 81.53125 -483.59375 Z M 81.53125 -457.578125 C 76.84375 -457.578125 74.5 -459.921875 74.5 -464.609375 C 74.5 -469.296875 76.84375 -471.640625 81.53125 -471.640625 C 86.21875 -471.640625 88.5625 -469.296875 88.5625 -464.609375 C 88.5625 -459.921875 86.21875 -457.578125 81.53125 -457.578125 Z M 81.53125 -430.875 C 76.84375 -430.875 74.5 -433.21875 74.5 -437.90625 C 74.5 -442.59375 76.84375 -444.9375 81.53125 -444.9375 C 86.21875 -444.9375 88.5625 -442.59375 88.5625 -437.90625 C 88.5625 -433.21875 86.21875 -430.875 81.53125 -430.875 Z M 81.53125 -405.5625 C 76.84375 -405.5625 74.5 -407.90625 74.5 -412.59375 C 74.5 -417.28125 76.84375 -419.625 81.53125 -419.625 C 86.21875 -419.625 88.5625 -417.28125 88.5625 -412.59375 C 88.5625 -407.90625 86.21875 -405.5625 81.53125 -405.5625 Z M 81.53125 -291.703125 C 76.84375 -291.703125 74.5 -294.046875 74.5 -298.734375 C 74.5 -303.410156 76.84375 -305.75 81.53125 -305.75 C 86.21875 -305.75 88.5625 -303.410156 88.5625 -298.734375 C 88.5625 -294.046875 86.21875 -291.703125 81.53125 -291.703125 Z M 81.53125 -39.359375 C 76.84375 -39.359375 74.5 -41.703125 74.5 -46.390625 C 74.5 -51.078125 76.84375 -53.421875 81.53125 -53.421875 C 86.21875 -53.421875 88.5625 -51.078125 88.5625 -46.390625 C 88.5625 -41.703125 86.21875 -39.359375 81.53125 -39.359375 Z M 81.53125 -11.25 C 76.84375 -11.25 74.5 -13.59375 74.5 -18.28125 C 74.5 -22.957031 76.84375 -25.296875 81.53125 -25.296875 C 86.21875 -25.296875 88.5625 -22.957031 88.5625 -18.28125 C 88.5625 -13.59375 86.21875 -11.25 81.53125 -11.25 Z M 361.984375 -438.609375 C 357.296875 -438.609375 354.953125 -440.945312 354.953125 -445.625 C 354.953125 -450.3125 357.296875 -452.65625 361.984375 -452.65625 C 366.671875 -452.65625 369.015625 -450.3125 369.015625 -445.625 C 369.015625 -440.945312 366.671875 -438.609375 361.984375 -438.609375 Z M 399.9375 -477.265625 C 395.257812 -477.265625 392.921875 -479.609375 392.921875 -484.296875 C 392.921875 -488.984375 395.257812 -491.328125 399.9375 -491.328125 C 404.625 -491.328125 406.96875 -488.984375 406.96875 -484.296875 C 406.96875 -479.609375 404.625 -477.265625 399.9375 -477.265625 Z M 380.265625 -458.28125 C 375.578125 -458.28125 373.234375 -460.625 373.234375 -465.3125 C 373.234375 -470 375.578125 -472.34375 380.265625 -472.34375 C 384.953125 -472.34375 387.296875 -470 387.296875 -465.3125 C 387.296875 -460.625 384.953125 -458.28125 380.265625 -458.28125 Z M 305.75 -380.96875 C 301.070312 -380.96875 298.734375 -383.3125 298.734375 -388 C 298.734375 -392.6875 301.070312 -395.03125 305.75 -395.03125 C 310.4375 -395.03125 312.78125 -392.6875 312.78125 -388 C 312.78125 -383.3125 310.4375 -380.96875 305.75 -380.96875 Z M 343.71875 -419.625 C 339.03125 -419.625 336.6875 -421.96875 336.6875 -426.65625 C 336.6875 -431.34375 339.03125 -433.6875 343.71875 -433.6875 C 348.40625 -433.6875 350.75 -431.34375 350.75 -426.65625 C 350.75 -421.96875 348.40625 -419.625 343.71875 -419.625 Z M 324.03125 -400.640625 C 319.34375 -400.640625 317 -402.984375 317 -407.671875 C 317 -412.359375 319.34375 -414.703125 324.03125 -414.703125 C 328.71875 -414.703125 331.0625 -412.359375 331.0625 -407.671875 C 331.0625 -402.984375 328.71875 -400.640625 324.03125 -400.640625 Z M 267.796875 -342.3125 C 263.109375 -342.3125 260.765625 -344.65625 260.765625 -349.34375 C 260.765625 -354.019531 263.109375 -356.359375 267.796875 -356.359375 C 272.484375 -356.359375 274.828125 -354.019531 274.828125 -349.34375 C 274.828125 -344.65625 272.484375 -342.3125 267.796875 -342.3125 Z M 286.078125 -361.984375 C 281.390625 -361.984375 279.046875 -364.328125 279.046875 -369.015625 C 279.046875 -373.703125 281.390625 -376.046875 286.078125 -376.046875 C 290.765625 -376.046875 293.109375 -373.703125 293.109375 -369.015625 C 293.109375 -364.328125 290.765625 -361.984375 286.078125 -361.984375 Z M 211.5625 -284.671875 C 206.882812 -284.671875 204.546875 -287.015625 204.546875 -291.703125 C 204.546875 -296.390625 206.882812 -298.734375 211.5625 -298.734375 C 216.25 -298.734375 218.59375 -296.390625 218.59375 -291.703125 C 218.59375 -287.015625 216.25 -284.671875 211.5625 -284.671875 Z M 249.53125 -323.328125 C 244.84375 -323.328125 242.5 -325.671875 242.5 -330.359375 C 242.5 -335.046875 244.84375 -337.390625 249.53125 -337.390625 C 254.21875 -337.390625 256.5625 -335.046875 256.5625 -330.359375 C 256.5625 -325.671875 254.21875 -323.328125 249.53125 -323.328125 Z M 229.84375 -304.359375 C 225.15625 -304.359375 222.8125 -306.695312 222.8125 -311.375 C 222.8125 -316.0625 225.15625 -318.40625 229.84375 -318.40625 C 234.53125 -318.40625 236.875 -316.0625 236.875 -311.375 C 236.875 -306.695312 234.53125 -304.359375 229.84375 -304.359375 Z M 193.296875 -264.984375 C 188.609375 -264.984375 186.265625 -267.328125 186.265625 -272.015625 C 186.265625 -276.703125 188.609375 -279.046875 193.296875 -279.046875 C 197.984375 -279.046875 200.328125 -276.703125 200.328125 -272.015625 C 200.328125 -267.328125 197.984375 -264.984375 193.296875 -264.984375 Z M 155.34375 -226.328125 C 150.65625 -226.328125 148.3125 -228.671875 148.3125 -233.359375 C 148.3125 -238.046875 150.65625 -240.390625 155.34375 -240.390625 C 160.03125 -240.390625 162.375 -238.046875 162.375 -233.359375 C 162.375 -228.671875 160.03125 -226.328125 155.34375 -226.328125 Z M 173.609375 -246.015625 C 168.921875 -246.015625 166.578125 -248.359375 166.578125 -253.046875 C 166.578125 -257.722656 168.921875 -260.0625 173.609375 -260.0625 C 178.296875 -260.0625 180.640625 -257.722656 180.640625 -253.046875 C 180.640625 -248.359375 178.296875 -246.015625 173.609375 -246.015625 Z M 99.109375 -168.6875 C 94.421875 -168.6875 92.078125 -171.03125 92.078125 -175.71875 C 92.078125 -180.40625 94.421875 -182.75 99.109375 -182.75 C 103.796875 -182.75 106.140625 -180.40625 106.140625 -175.71875 C 106.140625 -171.03125 103.796875 -168.6875 99.109375 -168.6875 Z M 117.375 -188.375 C 112.695312 -188.375 110.359375 -190.71875 110.359375 -195.40625 C 110.359375 -200.09375 112.695312 -202.4375 117.375 -202.4375 C 122.0625 -202.4375 124.40625 -200.09375 124.40625 -195.40625 C 124.40625 -190.71875 122.0625 -188.375 117.375 -188.375 Z M 136.359375 -208.0625 C 131.671875 -208.0625 129.328125 -210.398438 129.328125 -215.078125 C 129.328125 -219.765625 131.671875 -222.109375 136.359375 -222.109375 C 141.046875 -222.109375 143.390625 -219.765625 143.390625 -215.078125 C 143.390625 -210.398438 141.046875 -208.0625 136.359375 -208.0625 Z M 231.25 -238.28125 C 226.5625 -238.28125 224.21875 -240.625 224.21875 -245.3125 C 224.21875 -250 226.5625 -252.34375 231.25 -252.34375 C 235.9375 -252.34375 238.28125 -250 238.28125 -245.3125 C 238.28125 -240.625 235.9375 -238.28125 231.25 -238.28125 Z M 248.125 -217.890625 C 243.4375 -217.890625 241.09375 -220.234375 241.09375 -224.921875 C 241.09375 -229.609375 243.4375 -231.953125 248.125 -231.953125 C 252.8125 -231.953125 255.15625 -229.609375 255.15625 -224.921875 C 255.15625 -220.234375 252.8125 -217.890625 248.125 -217.890625 Z M 298.734375 -153.234375 C 294.046875 -153.234375 291.703125 -155.578125 291.703125 -160.265625 C 291.703125 -164.941406 294.046875 -167.28125 298.734375 -167.28125 C 303.410156 -167.28125 305.75 -164.941406 305.75 -160.265625 C 305.75 -155.578125 303.410156 -153.234375 298.734375 -153.234375 Z M 315.59375 -132.140625 C 310.90625 -132.140625 308.5625 -134.484375 308.5625 -139.171875 C 308.5625 -143.859375 310.90625 -146.203125 315.59375 -146.203125 C 320.28125 -146.203125 322.625 -143.859375 322.625 -139.171875 C 322.625 -134.484375 320.28125 -132.140625 315.59375 -132.140625 Z M 264.28125 -196.8125 C 259.601562 -196.8125 257.265625 -199.15625 257.265625 -203.84375 C 257.265625 -208.53125 259.601562 -210.875 264.28125 -210.875 C 268.96875 -210.875 271.3125 -208.53125 271.3125 -203.84375 C 271.3125 -199.15625 268.96875 -196.8125 264.28125 -196.8125 Z M 281.859375 -174.3125 C 277.171875 -174.3125 274.828125 -176.65625 274.828125 -181.34375 C 274.828125 -186.03125 277.171875 -188.375 281.859375 -188.375 C 286.546875 -188.375 288.890625 -186.03125 288.890625 -181.34375 C 288.890625 -176.65625 286.546875 -174.3125 281.859375 -174.3125 Z M 331.765625 -110.359375 C 327.078125 -110.359375 324.734375 -112.695312 324.734375 -117.375 C 324.734375 -122.0625 327.078125 -124.40625 331.765625 -124.40625 C 336.453125 -124.40625 338.796875 -122.0625 338.796875 -117.375 C 338.796875 -112.695312 336.453125 -110.359375 331.765625 -110.359375 Z M 349.34375 -88.5625 C 344.65625 -88.5625 342.3125 -90.90625 342.3125 -95.59375 C 342.3125 -100.28125 344.65625 -102.625 349.34375 -102.625 C 354.019531 -102.625 356.359375 -100.28125 356.359375 -95.59375 C 356.359375 -90.90625 354.019531 -88.5625 349.34375 -88.5625 Z M 215.78125 -258.65625 C 211.101562 -258.65625 208.765625 -261 208.765625 -265.6875 C 208.765625 -270.375 211.101562 -272.71875 215.78125 -272.71875 C 220.46875 -272.71875 222.8125 -270.375 222.8125 -265.6875 C 222.8125 -261 220.46875 -258.65625 215.78125 -258.65625 Z M 366.203125 -67.484375 C 361.515625 -67.484375 359.171875 -69.820312 359.171875 -74.5 C 359.171875 -79.1875 361.515625 -81.53125 366.203125 -81.53125 C 370.890625 -81.53125 373.234375 -79.1875 373.234375 -74.5 C 373.234375 -69.820312 370.890625 -67.484375 366.203125 -67.484375 Z M 383.078125 -46.390625 C 378.390625 -46.390625 376.046875 -48.734375 376.046875 -53.421875 C 376.046875 -58.109375 378.390625 -60.453125 383.078125 -60.453125 C 387.765625 -60.453125 390.109375 -58.109375 390.109375 -53.421875 C 390.109375 -48.734375 387.765625 -46.390625 383.078125 -46.390625 Z M 399.234375 -24.59375 C 394.554688 -24.59375 392.21875 -26.9375 392.21875 -31.625 C 392.21875 -36.3125 394.554688 -38.65625 399.234375 -38.65625 C 403.921875 -38.65625 406.265625 -36.3125 406.265625 -31.625 C 406.265625 -26.9375 403.921875 -24.59375 399.234375 -24.59375 Z M 416.8125 -2.8125 C 412.125 -2.8125 409.78125 -5.15625 409.78125 -9.84375 C 409.78125 -14.53125 412.125 -16.875 416.8125 -16.875 C 421.5 -16.875 423.84375 -14.53125 423.84375 -9.84375 C 423.84375 -5.15625 421.5 -2.8125 416.8125 -2.8125 Z M 416.8125 -2.8125 "/></g></g></g><path stroke-linecap="butt" transform="matrix(0.540612, -0.518882, 0.518882, 0.540612, 191.520547, 358.166474)" fill="none" stroke-linejoin="miter" d="M 0.00175435 1.998718 L 406.696598 1.997493 " stroke="#000000" stroke-width="4" stroke-opacity="1" stroke-miterlimit="4"/><path stroke-linecap="round" transform="matrix(0.540612, -0.518882, 0.518882, 0.540612, 191.520547, 358.166474)" fill="none" stroke-linejoin="round" d="M 398.698308 -4.00297 L 406.696598 1.997493 L 398.697415 7.997917 " stroke="#000000" stroke-width="4" stroke-opacity="1" stroke-miterlimit="4"/><path stroke-linecap="butt" transform="matrix(0.466245, 0.586613, -0.586613, 0.466245, 338.337546, 338.251408)" fill="none" stroke-linejoin="miter" d="M -0.000532475 2.000016 L 337.684935 1.998251 " stroke="#000000" stroke-width="4" stroke-opacity="1" stroke-miterlimit="4"/><path stroke-linecap="round" transform="matrix(0.466245, 0.586613, -0.586613, 0.466245, 338.337546, 338.251408)" fill="none" stroke-linejoin="round" d="M 329.6825 -4.002571 L 337.684935 1.998251 L 329.685577 7.999375 " stroke="#000000" stroke-width="4" stroke-opacity="1" stroke-miterlimit="4"/><path stroke-linecap="butt" transform="matrix(0, 0.749333, -0.749333, 0, 127.902127, 178.70462)" fill="none" stroke-linejoin="miter" d="M -0.00199554 2.001492 L 478.079631 2.001492 " stroke="#000000" stroke-width="4" stroke-opacity="1" stroke-miterlimit="4"/><path stroke-linecap="round" transform="matrix(0, 0.749333, -0.749333, 0, 127.902127, 178.70462)" fill="none" stroke-linejoin="round" d="M 470.077719 -3.998638 L 478.079631 2.001492 L 470.077719 8.001623 " stroke="#000000" stroke-width="4" stroke-opacity="1" stroke-miterlimit="4"/></svg>