<svg xmlns="http://www.w3.org/2000/svg" xmlns:xlink="http://www.w3.org/1999/xlink" width="800" zoomAndPan="magnify" viewBox="0 0 600 899.99999" height="1200" preserveAspectRatio="xMidYMid meet" version="1.0"><defs><g/><clipPath id="0367ead5cb"><path d="M 171.648438 249.480469 L 212.890625 249.480469 L 212.890625 276.273438 L 171.648438 276.273438 Z M 171.648438 249.480469 " clip-rule="nonzero"/></clipPath><clipPath id="1978cc4735"><path d="M 178.78125 694.886719 L 205.570312 694.886719 L 205.570312 736.128906 L 178.78125 736.128906 Z M 178.78125 694.886719 " clip-rule="nonzero"/></clipPath></defs><path stroke-linecap="butt" transform="matrix(0.75, 0, 0, 0.75, 87.987303, -15.449217)" fill="none" stroke-linejoin="miter" d="M 142.938811 1034.000052 C 122.147144 1034.000052 106.016934 1028.187552 94.5586 1016.562551 C 83.095058 1004.770884 77.365891 988.479217 77.365891 967.687549 L 77.365891 387.083352 C 77.365891 365.630226 82.9336 349.421892 94.063809 338.453141 C 105.199226 327.317724 121.162768 321.750015 141.959645 321.750015 C 162.751312 321.750015 178.63673 327.317724 189.60548 338.453141 C 200.740898 349.421892 206.308606 365.630226 206.308606 387.083352 L 206.308606 924.463588 L 498.084663 924.463588 C 516.095081 924.463588 529.928415 929.125047 539.589874 938.458381 C 549.412791 947.791715 554.324249 961.218799 554.324249 978.739633 C 554.324249 996.0938 549.412791 1009.687551 539.589874 1019.510468 C 529.928415 1029.171927 516.095081 1034.000052 498.084663 1034.000052 Z M 142.938811 1034.000052 " stroke="#1f8785" stroke-width="40.239601" stroke-opacity="1" stroke-miterlimit="4"/><g fill="#ffffff" fill-opacity="1"><g transform="translate(87.987303, 760.050742)"><g><path d="M 107.140625 0 C 91.546875 0 79.472656 -4.398438 70.921875 -13.203125 C 62.367188 -22.003906 58.09375 -34.203125 58.09375 -49.796875 L 58.09375 -485.140625 C 58.09375 -501.234375 62.242188 -513.429688 70.546875 -521.734375 C 78.847656 -530.035156 90.796875 -534.1875 106.390625 -534.1875 C 121.984375 -534.1875 133.925781 -530.035156 142.21875 -521.734375 C 150.519531 -513.429688 154.671875 -501.234375 154.671875 -485.140625 L 154.671875 -82.234375 L 373.484375 -82.234375 C 387.054688 -82.234375 397.488281 -78.710938 404.78125 -71.671875 C 412.082031 -64.628906 415.734375 -54.570312 415.734375 -41.5 C 415.734375 -28.414062 412.082031 -18.226562 404.78125 -10.9375 C 397.488281 -3.644531 387.054688 0 373.484375 0 Z M 107.140625 0 "/></g></g></g><g clip-path="url(#0367ead5cb)"><path fill="#1f8785" d="M 193.75 275.527344 L 212.410156 252.835938 C 213.816406 251.125 211.882812 248.714844 209.910156 249.71875 L 193.101562 258.253906 C 192.519531 258.550781 191.832031 258.550781 191.25 258.253906 L 174.4375 249.71875 C 172.464844 248.714844 170.53125 251.125 171.9375 252.835938 L 190.597656 275.527344 C 191.414062 276.519531 192.933594 276.519531 193.75 275.527344 " fill-opacity="1" fill-rule="nonzero"/></g><path fill="#1f8785" d="M 186.171875 671.886719 L 186.171875 635.886719 L 198.171875 635.886719 L 198.171875 671.886719 M 186.171875 623.886719 L 186.171875 587.886719 L 198.171875 587.886719 L 198.171875 623.886719 M 186.171875 575.886719 L 186.171875 539.886719 L 198.171875 539.886719 L 198.171875 575.886719 M 186.171875 527.886719 L 186.171875 491.886719 L 198.171875 491.886719 L 198.171875 527.886719 M 186.171875 479.886719 L 186.171875 443.886719 L 198.171875 443.886719 L 198.171875 479.886719 M 186.171875 431.886719 L 186.171875 395.886719 L 198.171875 395.886719 L 198.171875 431.886719 M 186.171875 383.886719 L 186.171875 347.886719 L 198.171875 347.886719 L 198.171875 383.886719 M 186.171875 335.886719 L 186.171875 299.886719 L 198.171875 299.886719 L 198.171875 335.886719 " fill-opacity="1" fill-rule="nonzero"/><g clip-path="url(#1978cc4735)"><path fill="#1f8785" d="M 204.828125 714.027344 L 182.132812 695.367188 C 180.425781 693.960938 178.015625 695.898438 179.015625 697.867188 L 187.554688 714.679688 C 187.851562 715.257812 187.851562 715.945312 187.554688 716.527344 L 179.015625 733.34375 C 178.015625 735.3125 180.425781 737.246094 182.132812 735.84375 L 204.828125 717.183594 C 205.820312 716.363281 205.820312 714.84375 204.828125 714.027344 " fill-opacity="1" fill-rule="nonzero"/></g><path fill="#1f8785" d="M 232.480469 709.609375 L 268.480469 709.609375 L 268.480469 721.609375 L 232.480469 721.609375 M 280.480469 709.609375 L 316.480469 709.609375 L 316.480469 721.609375 L 280.480469 721.609375 M 328.480469 709.609375 L 364.480469 709.609375 L 364.480469 721.609375 L 328.480469 721.609375 M 376.480469 709.609375 L 412.480469 709.609375 L 412.480469 721.609375 L 376.480469 721.609375 M 424.480469 709.609375 L 457.570312 709.609375 L 457.570312 721.609375 L 424.480469 721.609375 " fill-opacity="1" fill-rule="nonzero"/></svg>