<svg xmlns="http://www.w3.org/2000/svg" xmlns:xlink="http://www.w3.org/1999/xlink" width="794" zoomAndPan="magnify" viewBox="0 0 594.95996 842.24997" height="1123" preserveAspectRatio="xMidYMid meet" version="1.0"><defs><g/></defs><g fill="#000000" fill-opacity="1"><g transform="translate(89.909598, 608.138413)"><g><path d="M 79.421875 -496.234375 C 74.734375 -496.234375 72.390625 -498.578125 72.390625 -503.265625 C 72.390625 -507.953125 74.734375 -510.296875 79.421875 -510.296875 C 84.109375 -510.296875 86.453125 -507.953125 86.453125 -503.265625 C 86.453125 -498.578125 84.109375 -496.234375 79.421875 -496.234375 Z M 79.421875 -472.34375 C 74.734375 -472.34375 72.390625 -474.6875 72.390625 -479.375 C 72.390625 -484.0625 74.734375 -486.40625 79.421875 -486.40625 C 84.109375 -486.40625 86.453125 -484.0625 86.453125 -479.375 C 86.453125 -474.6875 84.109375 -472.34375 79.421875 -472.34375 Z M 79.421875 -447.734375 C 74.734375 -447.734375 72.390625 -450.078125 72.390625 -454.765625 C 72.390625 -459.453125 74.734375 -461.796875 79.421875 -461.796875 C 84.109375 -461.796875 86.453125 -459.453125 86.453125 -454.765625 C 86.453125 -450.078125 84.109375 -447.734375 79.421875 -447.734375 Z M 79.421875 -423.140625 C 74.734375 -423.140625 72.390625 -425.484375 72.390625 -430.171875 C 72.390625 -434.859375 74.734375 -437.203125 79.421875 -437.203125 C 84.109375 -437.203125 86.453125 -434.859375 86.453125 -430.171875 C 86.453125 -425.484375 84.109375 -423.140625 79.421875 -423.140625 Z M 79.421875 -398.53125 C 74.734375 -398.53125 72.390625 -400.875 72.390625 -405.5625 C 72.390625 -410.25 74.734375 -412.59375 79.421875 -412.59375 C 84.109375 -412.59375 86.453125 -410.25 86.453125 -405.5625 C 86.453125 -400.875 84.109375 -398.53125 79.421875 -398.53125 Z M 79.421875 -373.9375 C 74.734375 -373.9375 72.390625 -376.28125 72.390625 -380.96875 C 72.390625 -385.65625 74.734375 -388 79.421875 -388 C 84.109375 -388 86.453125 -385.65625 86.453125 -380.96875 C 86.453125 -376.28125 84.109375 -373.9375 79.421875 -373.9375 Z M 79.421875 -349.34375 C 74.734375 -349.34375 72.390625 -351.679688 72.390625 -356.359375 C 72.390625 -361.046875 74.734375 -363.390625 79.421875 -363.390625 C 84.109375 -363.390625 86.453125 -361.046875 86.453125 -356.359375 C 86.453125 -351.679688 84.109375 -349.34375 79.421875 -349.34375 Z M 79.421875 -324.734375 C 74.734375 -324.734375 72.390625 -327.078125 72.390625 -331.765625 C 72.390625 -336.453125 74.734375 -338.796875 79.421875 -338.796875 C 84.109375 -338.796875 86.453125 -336.453125 86.453125 -331.765625 C 86.453125 -327.078125 84.109375 -324.734375 79.421875 -324.734375 Z M 79.421875 -299.4375 C 74.734375 -299.4375 72.390625 -301.773438 72.390625 -306.453125 C 72.390625 -311.140625 74.734375 -313.484375 79.421875 -313.484375 C 84.109375 -313.484375 86.453125 -311.140625 86.453125 -306.453125 C 86.453125 -301.773438 84.109375 -299.4375 79.421875 -299.4375 Z M 79.421875 -274.828125 C 74.734375 -274.828125 72.390625 -277.171875 72.390625 -281.859375 C 72.390625 -286.546875 74.734375 -288.890625 79.421875 -288.890625 C 84.109375 -288.890625 86.453125 -286.546875 86.453125 -281.859375 C 86.453125 -277.171875 84.109375 -274.828125 79.421875 -274.828125 Z M 79.421875 -250.234375 C 74.734375 -250.234375 72.390625 -252.578125 72.390625 -257.265625 C 72.390625 -261.941406 74.734375 -264.28125 79.421875 -264.28125 C 84.109375 -264.28125 86.453125 -261.941406 86.453125 -257.265625 C 86.453125 -252.578125 84.109375 -250.234375 79.421875 -250.234375 Z M 79.421875 -225.625 C 74.734375 -225.625 72.390625 -227.96875 72.390625 -232.65625 C 72.390625 -237.34375 74.734375 -239.6875 79.421875 -239.6875 C 84.109375 -239.6875 86.453125 -237.34375 86.453125 -232.65625 C 86.453125 -227.96875 84.109375 -225.625 79.421875 -225.625 Z M 79.421875 -201.03125 C 74.734375 -201.03125 72.390625 -203.375 72.390625 -208.0625 C 72.390625 -212.738281 74.734375 -215.078125 79.421875 -215.078125 C 84.109375 -215.078125 86.453125 -212.738281 86.453125 -208.0625 C 86.453125 -203.375 84.109375 -201.03125 79.421875 -201.03125 Z M 79.421875 -176.421875 C 74.734375 -176.421875 72.390625 -178.765625 72.390625 -183.453125 C 72.390625 -188.140625 74.734375 -190.484375 79.421875 -190.484375 C 84.109375 -190.484375 86.453125 -188.140625 86.453125 -183.453125 C 86.453125 -178.765625 84.109375 -176.421875 79.421875 -176.421875 Z M 79.421875 -151.828125 C 74.734375 -151.828125 72.390625 -154.171875 72.390625 -158.859375 C 72.390625 -163.535156 74.734375 -165.875 79.421875 -165.875 C 84.109375 -165.875 86.453125 -163.535156 86.453125 -158.859375 C 86.453125 -154.171875 84.109375 -151.828125 79.421875 -151.828125 Z M 79.421875 -127.21875 C 74.734375 -127.21875 72.390625 -129.5625 72.390625 -134.25 C 72.390625 -138.9375 74.734375 -141.28125 79.421875 -141.28125 C 84.109375 -141.28125 86.453125 -138.9375 86.453125 -134.25 C 86.453125 -129.5625 84.109375 -127.21875 79.421875 -127.21875 Z M 79.421875 -101.21875 C 74.734375 -101.21875 72.390625 -103.5625 72.390625 -108.25 C 72.390625 -112.9375 74.734375 -115.28125 79.421875 -115.28125 C 84.109375 -115.28125 86.453125 -112.9375 86.453125 -108.25 C 86.453125 -103.5625 84.109375 -101.21875 79.421875 -101.21875 Z M 79.421875 -76.609375 C 74.734375 -76.609375 72.390625 -78.953125 72.390625 -83.640625 C 72.390625 -88.328125 74.734375 -90.671875 79.421875 -90.671875 C 84.109375 -90.671875 86.453125 -88.328125 86.453125 -83.640625 C 86.453125 -78.953125 84.109375 -76.609375 79.421875 -76.609375 Z M 79.421875 -52.015625 C 74.734375 -52.015625 72.390625 -54.359375 72.390625 -59.046875 C 72.390625 -63.734375 74.734375 -66.078125 79.421875 -66.078125 C 84.109375 -66.078125 86.453125 -63.734375 86.453125 -59.046875 C 86.453125 -54.359375 84.109375 -52.015625 79.421875 -52.015625 Z M 79.421875 -27.40625 C 74.734375 -27.40625 72.390625 -29.75 72.390625 -34.4375 C 72.390625 -39.125 74.734375 -41.46875 79.421875 -41.46875 C 84.109375 -41.46875 86.453125 -39.125 86.453125 -34.4375 C 86.453125 -29.75 84.109375 -27.40625 79.421875 -27.40625 Z M 79.421875 -2.8125 C 74.734375 -2.8125 72.390625 -5.15625 72.390625 -9.84375 C 72.390625 -14.53125 74.734375 -16.875 79.421875 -16.875 C 84.109375 -16.875 86.453125 -14.53125 86.453125 -9.84375 C 86.453125 -5.15625 84.109375 -2.8125 79.421875 -2.8125 Z M 104.03125 -2.8125 C 99.34375 -2.8125 97 -5.15625 97 -9.84375 C 97 -14.53125 99.34375 -16.875 104.03125 -16.875 C 108.71875 -16.875 111.0625 -14.53125 111.0625 -9.84375 C 111.0625 -5.15625 108.71875 -2.8125 104.03125 -2.8125 Z M 128.625 -2.8125 C 123.9375 -2.8125 121.59375 -5.15625 121.59375 -9.84375 C 121.59375 -14.53125 123.9375 -16.875 128.625 -16.875 C 133.3125 -16.875 135.65625 -14.53125 135.65625 -9.84375 C 135.65625 -5.15625 133.3125 -2.8125 128.625 -2.8125 Z M 153.234375 -2.8125 C 148.546875 -2.8125 146.203125 -5.15625 146.203125 -9.84375 C 146.203125 -14.53125 148.546875 -16.875 153.234375 -16.875 C 157.921875 -16.875 160.265625 -14.53125 160.265625 -9.84375 C 160.265625 -5.15625 157.921875 -2.8125 153.234375 -2.8125 Z M 177.828125 -2.8125 C 173.140625 -2.8125 170.796875 -5.15625 170.796875 -9.84375 C 170.796875 -14.53125 173.140625 -16.875 177.828125 -16.875 C 182.515625 -16.875 184.859375 -14.53125 184.859375 -9.84375 C 184.859375 -5.15625 182.515625 -2.8125 177.828125 -2.8125 Z M 202.4375 -2.8125 C 197.75 -2.8125 195.40625 -5.15625 195.40625 -9.84375 C 195.40625 -14.53125 197.75 -16.875 202.4375 -16.875 C 207.125 -16.875 209.46875 -14.53125 209.46875 -9.84375 C 209.46875 -5.15625 207.125 -2.8125 202.4375 -2.8125 Z M 227.03125 -2.8125 C 222.34375 -2.8125 220 -5.15625 220 -9.84375 C 220 -14.53125 222.34375 -16.875 227.03125 -16.875 C 231.71875 -16.875 234.0625 -14.53125 234.0625 -9.84375 C 234.0625 -5.15625 231.71875 -2.8125 227.03125 -2.8125 Z M 251.640625 -2.8125 C 246.953125 -2.8125 244.609375 -5.15625 244.609375 -9.84375 C 244.609375 -14.53125 246.953125 -16.875 251.640625 -16.875 C 256.316406 -16.875 258.65625 -14.53125 258.65625 -9.84375 C 258.65625 -5.15625 256.316406 -2.8125 251.640625 -2.8125 Z M 276.234375 -2.8125 C 271.546875 -2.8125 269.203125 -5.15625 269.203125 -9.84375 C 269.203125 -14.53125 271.546875 -16.875 276.234375 -16.875 C 280.921875 -16.875 283.265625 -14.53125 283.265625 -9.84375 C 283.265625 -5.15625 280.921875 -2.8125 276.234375 -2.8125 Z M 300.84375 -2.8125 C 296.15625 -2.8125 293.8125 -5.15625 293.8125 -9.84375 C 293.8125 -14.53125 296.15625 -16.875 300.84375 -16.875 C 305.519531 -16.875 307.859375 -14.53125 307.859375 -9.84375 C 307.859375 -5.15625 305.519531 -2.8125 300.84375 -2.8125 Z M 325.4375 -2.8125 C 320.75 -2.8125 318.40625 -5.15625 318.40625 -9.84375 C 318.40625 -14.53125 320.75 -16.875 325.4375 -16.875 C 330.125 -16.875 332.46875 -14.53125 332.46875 -9.84375 C 332.46875 -5.15625 330.125 -2.8125 325.4375 -2.8125 Z M 350.046875 -2.8125 C 345.359375 -2.8125 343.015625 -5.15625 343.015625 -9.84375 C 343.015625 -14.53125 345.359375 -16.875 350.046875 -16.875 C 354.722656 -16.875 357.0625 -14.53125 357.0625 -9.84375 C 357.0625 -5.15625 354.722656 -2.8125 350.046875 -2.8125 Z M 374.640625 -2.8125 C 369.953125 -2.8125 367.609375 -5.15625 367.609375 -9.84375 C 367.609375 -14.53125 369.953125 -16.875 374.640625 -16.875 C 379.328125 -16.875 381.671875 -14.53125 381.671875 -9.84375 C 381.671875 -5.15625 379.328125 -2.8125 374.640625 -2.8125 Z M 399.234375 -2.8125 C 394.554688 -2.8125 392.21875 -5.15625 392.21875 -9.84375 C 392.21875 -14.53125 394.554688 -16.875 399.234375 -16.875 C 403.921875 -16.875 406.265625 -14.53125 406.265625 -9.84375 C 406.265625 -5.15625 403.921875 -2.8125 399.234375 -2.8125 Z M 399.234375 -2.8125 "/></g></g></g><path stroke-linecap="butt" transform="matrix(0, 0.749333, -0.749333, 0, 124.855535, 163.511065)" fill="none" stroke-linejoin="miter" d="M 0.000873063 2.001869 L 503.511375 2.001869 " stroke="#000000" stroke-width="4" stroke-opacity="1" stroke-miterlimit="4"/><path stroke-linecap="round" transform="matrix(0, 0.749333, -0.749333, 0, 124.855535, 163.511065)" fill="none" stroke-linejoin="round" d="M 495.514677 -3.998261 L 503.511375 2.001869 L 495.514677 8.002 " stroke="#000000" stroke-width="4" stroke-opacity="1" stroke-miterlimit="4"/><path stroke-linecap="butt" transform="matrix(0.749333, 0, 0, 0.749333, 194.18356, 635.815327)" fill="none" stroke-linejoin="miter" d="M 0.0000453612 1.998008 L 357.568194 1.998008 " stroke="#000000" stroke-width="4" stroke-opacity="1" stroke-miterlimit="4"/><path stroke-linecap="round" transform="matrix(0.749333, 0, 0, 0.749333, 194.18356, 635.815327)" fill="none" stroke-linejoin="round" d="M 349.566283 -4.002122 L 357.568194 1.998008 L 349.566283 7.998139 " stroke="#000000" stroke-width="4" stroke-opacity="1" stroke-miterlimit="4"/></svg>