<svg xmlns="http://www.w3.org/2000/svg" xmlns:xlink="http://www.w3.org/1999/xlink" width="794" zoomAndPan="magnify" viewBox="0 0 594.95996 842.24997" height="1123" preserveAspectRatio="xMidYMid meet" version="1.0"><defs><clipPath id="be9986cba9"><path d="M 83.644531 74.523438 L 511.515625 74.523438 L 511.515625 766.90625 L 83.644531 766.90625 Z M 83.644531 74.523438 " clip-rule="nonzero"/></clipPath></defs><path fill="#ffffff" d="M 156.660156 760.570312 C 119.933594 760.570312 90.058594 730.675781 90.058594 693.925781 L 90.058594 153.261719 C 90.058594 113.355469 122.5 80.890625 162.386719 80.890625 C 202.269531 80.890625 234.714844 113.355469 234.714844 153.261719 L 234.714844 627.28125 L 438.5 627.28125 C 475.226562 627.28125 505.109375 657.179688 505.109375 693.925781 C 505.109375 730.675781 475.226562 760.570312 438.5 760.570312 Z M 156.660156 760.570312 " fill-opacity="1" fill-rule="nonzero"/><g clip-path="url(#be9986cba9)"><path fill="#000000" d="M 162.386719 80.890625 C 202.269531 80.890625 234.714844 113.355469 234.714844 153.261719 L 234.714844 627.28125 L 438.5 627.28125 C 475.226562 627.28125 505.109375 657.179688 505.109375 693.925781 C 505.109375 730.675781 475.226562 760.570312 438.5 760.570312 L 156.660156 760.570312 C 119.933594 760.570312 90.058594 730.675781 90.058594 693.925781 L 90.058594 153.261719 C 90.058594 113.355469 122.5 80.890625 162.386719 80.890625 M 162.386719 74.523438 C 118.996094 74.523438 83.695312 109.847656 83.695312 153.261719 L 83.695312 693.925781 C 83.695312 734.183594 116.425781 766.9375 156.660156 766.9375 L 438.5 766.9375 C 478.738281 766.9375 511.476562 734.183594 511.476562 693.925781 C 511.476562 653.667969 478.738281 620.914062 438.5 620.914062 L 241.078125 620.914062 L 241.078125 153.261719 C 241.078125 109.847656 205.777344 74.523438 162.386719 74.523438 Z M 162.386719 74.523438 " fill-opacity="1" fill-rule="nonzero"/></g><path fill="#58595b" d="M 164.476562 710.648438 L 161.292969 710.648438 L 161.292969 705.945312 L 164.476562 705.945312 Z M 164.476562 693.210938 L 161.292969 693.210938 L 161.292969 680.472656 L 164.476562 680.472656 Z M 164.476562 667.738281 L 161.292969 667.738281 L 161.292969 655 L 164.476562 655 Z M 164.476562 642.265625 L 161.292969 642.265625 L 161.292969 629.527344 L 164.476562 629.527344 Z M 164.476562 616.792969 L 161.292969 616.792969 L 161.292969 604.054688 L 164.476562 604.054688 Z M 164.476562 591.320312 L 161.292969 591.320312 L 161.292969 578.582031 L 164.476562 578.582031 Z M 164.476562 565.847656 L 161.292969 565.847656 L 161.292969 553.109375 L 164.476562 553.109375 Z M 164.476562 540.375 L 161.292969 540.375 L 161.292969 527.636719 L 164.476562 527.636719 Z M 164.476562 514.902344 L 161.292969 514.902344 L 161.292969 502.164062 L 164.476562 502.164062 Z M 164.476562 489.429688 L 161.292969 489.429688 L 161.292969 476.691406 L 164.476562 476.691406 Z M 164.476562 463.953125 L 161.292969 463.953125 L 161.292969 451.21875 L 164.476562 451.21875 Z M 164.476562 438.480469 L 161.292969 438.480469 L 161.292969 425.746094 L 164.476562 425.746094 Z M 164.476562 413.007812 L 161.292969 413.007812 L 161.292969 400.273438 L 164.476562 400.273438 Z M 164.476562 387.535156 L 161.292969 387.535156 L 161.292969 374.800781 L 164.476562 374.800781 Z M 164.476562 362.0625 L 161.292969 362.0625 L 161.292969 349.328125 L 164.476562 349.328125 Z M 164.476562 336.589844 L 161.292969 336.589844 L 161.292969 323.855469 L 164.476562 323.855469 Z M 164.476562 311.117188 L 161.292969 311.117188 L 161.292969 298.382812 L 164.476562 298.382812 Z M 164.476562 285.644531 L 161.292969 285.644531 L 161.292969 272.910156 L 164.476562 272.910156 Z M 164.476562 260.171875 L 161.292969 260.171875 L 161.292969 247.4375 L 164.476562 247.4375 Z M 164.476562 234.699219 L 161.292969 234.699219 L 161.292969 221.964844 L 164.476562 221.964844 Z M 164.476562 209.226562 L 161.292969 209.226562 L 161.292969 196.492188 L 164.476562 196.492188 Z M 164.476562 183.753906 L 161.292969 183.753906 L 161.292969 171.015625 L 164.476562 171.015625 Z M 164.476562 183.753906 " fill-opacity="1" fill-rule="nonzero"/><path fill="#58595b" d="M 162.886719 725.699219 L 175.910156 703.125 L 149.859375 703.125 Z M 162.886719 725.699219 " fill-opacity="1" fill-rule="nonzero"/><path fill="#414042" d="M 192.585938 146.570312 C 192.585938 147.621094 192.535156 148.664062 192.429688 149.710938 C 192.328125 150.753906 192.175781 151.789062 191.96875 152.816406 C 191.765625 153.84375 191.511719 154.859375 191.207031 155.863281 C 190.902344 156.867188 190.550781 157.851562 190.148438 158.820312 C 189.75 159.789062 189.300781 160.734375 188.808594 161.660156 C 188.3125 162.585938 187.777344 163.484375 187.195312 164.355469 C 186.613281 165.226562 185.988281 166.066406 185.324219 166.878906 C 184.660156 167.6875 183.957031 168.464844 183.214844 169.207031 C 182.472656 169.945312 181.699219 170.648438 180.890625 171.316406 C 180.078125 171.980469 179.238281 172.605469 178.367188 173.1875 C 177.496094 173.769531 176.597656 174.308594 175.675781 174.800781 C 174.75 175.296875 173.804688 175.742188 172.835938 176.144531 C 171.867188 176.546875 170.882812 176.898438 169.878906 177.203125 C 168.878906 177.507812 167.863281 177.761719 166.835938 177.964844 C 165.808594 178.171875 164.773438 178.324219 163.730469 178.425781 C 162.6875 178.53125 161.640625 178.582031 160.59375 178.582031 C 159.546875 178.582031 158.5 178.53125 157.457031 178.425781 C 156.414062 178.324219 155.378906 178.171875 154.351562 177.964844 C 153.324219 177.761719 152.308594 177.507812 151.308594 177.203125 C 150.304688 176.898438 149.320312 176.546875 148.351562 176.144531 C 147.382812 175.742188 146.4375 175.296875 145.511719 174.800781 C 144.589844 174.308594 143.691406 173.769531 142.820312 173.1875 C 141.949219 172.605469 141.109375 171.980469 140.300781 171.316406 C 139.488281 170.648438 138.714844 169.945312 137.972656 169.207031 C 137.230469 168.464844 136.527344 167.6875 135.863281 166.878906 C 135.199219 166.066406 134.578125 165.226562 133.996094 164.355469 C 133.414062 163.484375 132.875 162.585938 132.378906 161.660156 C 131.886719 160.734375 131.4375 159.789062 131.039062 158.820312 C 130.636719 157.851562 130.285156 156.867188 129.980469 155.863281 C 129.675781 154.859375 129.421875 153.84375 129.21875 152.816406 C 129.011719 151.789062 128.859375 150.753906 128.757812 149.710938 C 128.652344 148.664062 128.601562 147.621094 128.601562 146.570312 C 128.601562 145.523438 128.652344 144.476562 128.757812 143.433594 C 128.859375 142.390625 129.011719 141.355469 129.21875 140.328125 C 129.421875 139.296875 129.675781 138.28125 129.980469 137.28125 C 130.285156 136.277344 130.636719 135.289062 131.039062 134.320312 C 131.4375 133.351562 131.886719 132.40625 132.378906 131.480469 C 132.875 130.558594 133.414062 129.660156 133.996094 128.789062 C 134.578125 127.917969 135.199219 127.074219 135.863281 126.265625 C 136.527344 125.453125 137.230469 124.679688 137.972656 123.9375 C 138.714844 123.195312 139.488281 122.492188 140.300781 121.828125 C 141.109375 121.164062 141.949219 120.539062 142.820312 119.957031 C 143.691406 119.375 144.589844 118.835938 145.511719 118.339844 C 146.4375 117.847656 147.382812 117.398438 148.351562 117 C 149.320312 116.597656 150.304688 116.246094 151.308594 115.941406 C 152.308594 115.636719 153.324219 115.382812 154.351562 115.175781 C 155.378906 114.972656 156.414062 114.820312 157.457031 114.714844 C 158.5 114.613281 159.546875 114.5625 160.59375 114.5625 C 161.640625 114.5625 162.6875 114.613281 163.730469 114.714844 C 164.773438 114.820312 165.808594 114.972656 166.835938 115.175781 C 167.863281 115.382812 168.878906 115.636719 169.878906 115.941406 C 170.882812 116.246094 171.867188 116.597656 172.835938 117 C 173.804688 117.398438 174.75 117.847656 175.675781 118.339844 C 176.597656 118.835938 177.496094 119.375 178.367188 119.957031 C 179.238281 120.539062 180.078125 121.164062 180.890625 121.828125 C 181.699219 122.492188 182.472656 123.195312 183.214844 123.9375 C 183.957031 124.679688 184.660156 125.453125 185.324219 126.265625 C 185.988281 127.074219 186.613281 127.917969 187.195312 128.789062 C 187.777344 129.660156 188.3125 130.558594 188.808594 131.480469 C 189.300781 132.40625 189.75 133.351562 190.148438 134.320312 C 190.550781 135.289062 190.902344 136.277344 191.207031 137.28125 C 191.511719 138.28125 191.765625 139.296875 191.96875 140.328125 C 192.175781 141.355469 192.328125 142.390625 192.429688 143.433594 C 192.535156 144.476562 192.585938 145.523438 192.585938 146.570312 Z M 192.585938 146.570312 " fill-opacity="1" fill-rule="nonzero"/><path fill="#fcfcfc" d="M 164.296875 124.65625 L 160.191406 124.65625 C 159.722656 124.65625 159.28125 124.863281 158.976562 125.214844 L 146.882812 139.371094 C 146.347656 140.007812 146.378906 140.945312 146.96875 141.535156 L 149.269531 143.832031 C 149.890625 144.453125 150.890625 144.453125 151.511719 143.839844 L 158.597656 136.835938 L 158.597656 167.511719 C 158.597656 168.390625 159.3125 169.105469 160.1875 169.105469 L 164.296875 169.105469 C 165.175781 169.105469 165.886719 168.390625 165.886719 167.511719 L 165.886719 126.25 C 165.890625 125.371094 165.175781 124.65625 164.296875 124.65625 Z M 164.296875 124.65625 " fill-opacity="1" fill-rule="nonzero"/><path fill="#58595b" d="M 454.292969 696.945312 L 445.070312 696.945312 L 445.070312 693.761719 L 454.292969 693.761719 Z M 432.34375 696.945312 L 419.613281 696.945312 L 419.613281 693.761719 L 432.34375 693.761719 Z M 406.882812 696.945312 L 394.15625 696.945312 L 394.15625 693.761719 L 406.882812 693.761719 Z M 381.425781 696.945312 L 368.699219 696.945312 L 368.699219 693.761719 L 381.425781 693.761719 Z M 355.96875 696.945312 L 343.238281 696.945312 L 343.238281 693.761719 L 355.96875 693.761719 Z M 330.511719 696.945312 L 317.78125 696.945312 L 317.78125 693.761719 L 330.511719 693.761719 Z M 305.054688 696.945312 L 292.324219 696.945312 L 292.324219 693.761719 L 305.054688 693.761719 Z M 279.59375 696.945312 L 266.867188 696.945312 L 266.867188 693.761719 L 279.59375 693.761719 Z M 254.136719 696.945312 L 241.410156 696.945312 L 241.410156 693.761719 L 254.136719 693.761719 Z M 228.679688 696.945312 L 215.949219 696.945312 L 215.949219 693.761719 L 228.679688 693.761719 Z M 228.679688 696.945312 " fill-opacity="1" fill-rule="nonzero"/><path fill="#58595b" d="M 468.34375 695.011719 L 445.785156 681.980469 L 445.785156 708.042969 Z M 468.34375 695.011719 " fill-opacity="1" fill-rule="nonzero"/><path fill="#414042" d="M 250.460938 695.351562 C 250.460938 696.398438 250.410156 697.445312 250.308594 698.488281 C 250.207031 699.53125 250.050781 700.570312 249.847656 701.597656 C 249.644531 702.625 249.386719 703.640625 249.085938 704.644531 C 248.78125 705.648438 248.425781 706.632812 248.027344 707.601562 C 247.625 708.570312 247.179688 709.515625 246.683594 710.441406 C 246.191406 711.367188 245.652344 712.265625 245.070312 713.136719 C 244.488281 714.007812 243.863281 714.847656 243.199219 715.660156 C 242.535156 716.46875 241.832031 717.246094 241.09375 717.984375 C 240.351562 718.726562 239.574219 719.429688 238.765625 720.097656 C 237.957031 720.761719 237.117188 721.382812 236.242188 721.96875 C 235.371094 722.550781 234.476562 723.085938 233.550781 723.582031 C 232.628906 724.074219 231.679688 724.523438 230.714844 724.925781 C 229.746094 725.328125 228.761719 725.679688 227.757812 725.984375 C 226.753906 726.289062 225.738281 726.542969 224.710938 726.746094 C 223.683594 726.949219 222.648438 727.105469 221.605469 727.207031 C 220.5625 727.308594 219.519531 727.363281 218.472656 727.363281 C 217.421875 727.363281 216.378906 727.308594 215.335938 727.207031 C 214.292969 727.105469 213.257812 726.949219 212.230469 726.746094 C 211.203125 726.542969 210.1875 726.289062 209.183594 725.984375 C 208.183594 725.679688 207.195312 725.328125 206.226562 724.925781 C 205.261719 724.523438 204.3125 724.074219 203.390625 723.582031 C 202.464844 723.085938 201.570312 722.550781 200.699219 721.96875 C 199.828125 721.382812 198.984375 720.761719 198.175781 720.097656 C 197.367188 719.429688 196.589844 718.726562 195.851562 717.984375 C 195.109375 717.246094 194.40625 716.46875 193.742188 715.660156 C 193.078125 714.847656 192.453125 714.007812 191.871094 713.136719 C 191.289062 712.265625 190.75 711.367188 190.257812 710.441406 C 189.761719 709.515625 189.316406 708.570312 188.914062 707.601562 C 188.515625 706.632812 188.160156 705.648438 187.855469 704.644531 C 187.554688 703.640625 187.300781 702.625 187.09375 701.597656 C 186.890625 700.570312 186.738281 699.53125 186.632812 698.488281 C 186.53125 697.445312 186.480469 696.398438 186.480469 695.351562 C 186.480469 694.304688 186.53125 693.257812 186.632812 692.214844 C 186.738281 691.171875 186.890625 690.136719 187.09375 689.105469 C 187.300781 688.078125 187.554688 687.0625 187.855469 686.058594 C 188.160156 685.058594 188.515625 684.070312 188.914062 683.101562 C 189.316406 682.132812 189.761719 681.1875 190.257812 680.261719 C 190.75 679.339844 191.289062 678.441406 191.871094 677.566406 C 192.453125 676.695312 193.078125 675.855469 193.742188 675.046875 C 194.40625 674.234375 195.109375 673.457031 195.851562 672.71875 C 196.589844 671.976562 197.367188 671.273438 198.175781 670.609375 C 198.984375 669.941406 199.828125 669.320312 200.699219 668.738281 C 201.570312 668.152344 202.464844 667.617188 203.390625 667.121094 C 204.3125 666.628906 205.261719 666.179688 206.226562 665.777344 C 207.195312 665.378906 208.183594 665.023438 209.183594 664.71875 C 210.1875 664.417969 211.203125 664.160156 212.230469 663.957031 C 213.257812 663.753906 214.292969 663.597656 215.335938 663.496094 C 216.378906 663.394531 217.421875 663.34375 218.472656 663.34375 C 219.519531 663.34375 220.5625 663.394531 221.605469 663.496094 C 222.648438 663.597656 223.683594 663.753906 224.710938 663.957031 C 225.738281 664.160156 226.753906 664.417969 227.757812 664.71875 C 228.761719 665.023438 229.746094 665.378906 230.714844 665.777344 C 231.679688 666.179688 232.628906 666.628906 233.550781 667.121094 C 234.476562 667.617188 235.371094 668.152344 236.242188 668.738281 C 237.117188 669.320312 237.957031 669.941406 238.765625 670.609375 C 239.574219 671.273438 240.351562 671.976562 241.09375 672.71875 C 241.832031 673.457031 242.535156 674.234375 243.199219 675.046875 C 243.863281 675.855469 244.488281 676.695312 245.070312 677.566406 C 245.652344 678.441406 246.191406 679.339844 246.683594 680.261719 C 247.179688 681.1875 247.625 682.132812 248.027344 683.101562 C 248.425781 684.070312 248.78125 685.058594 249.085938 686.058594 C 249.386719 687.0625 249.644531 688.078125 249.847656 689.105469 C 250.050781 690.136719 250.207031 691.171875 250.308594 692.214844 C 250.410156 693.257812 250.460938 694.304688 250.460938 695.351562 Z M 250.460938 695.351562 " fill-opacity="1" fill-rule="nonzero"/><path fill="#fcfcfc" d="M 231.289062 710.582031 L 213.304688 710.582031 C 213.539062 710.152344 213.855469 709.707031 214.273438 709.253906 C 215.40625 708 217.21875 706.339844 219.667969 704.328125 L 219.636719 704.296875 C 220.011719 704.039062 220.421875 703.6875 220.886719 703.289062 C 224.355469 700.355469 227.125 697.472656 229.128906 694.71875 C 231.253906 691.800781 232.335938 688.429688 232.335938 684.710938 C 232.335938 681.03125 231.078125 678.035156 228.605469 675.808594 C 226.175781 673.636719 222.921875 672.53125 218.953125 672.53125 C 216.167969 672.53125 213.445312 673.226562 210.859375 674.59375 C 208.304688 675.949219 206.117188 677.859375 204.363281 680.261719 C 203.875 680.9375 203.984375 681.871094 204.621094 682.410156 L 207.945312 685.253906 C 208.273438 685.539062 208.695312 685.683594 209.15625 685.625 C 209.589844 685.574219 209.988281 685.347656 210.25 684.992188 C 211.53125 683.273438 212.917969 681.957031 214.371094 681.078125 C 217.164062 679.382812 221.050781 679.390625 223.054688 681.199219 C 224.023438 682.078125 224.496094 683.226562 224.496094 684.710938 C 224.496094 687.195312 223.875 689.316406 222.59375 691.195312 C 221.238281 693.195312 219.28125 695.289062 216.738281 697.445312 C 216.601562 697.566406 215.941406 698.109375 214.738281 699.089844 C 212.648438 700.8125 210.945312 702.320312 209.671875 703.570312 C 208.355469 704.867188 207.234375 706.359375 206.339844 707.996094 C 205.390625 709.738281 204.902344 711.65625 204.902344 713.6875 L 204.902344 716.289062 C 204.902344 717.167969 205.617188 717.882812 206.496094 717.882812 L 231.289062 717.882812 C 232.164062 717.882812 232.878906 717.167969 232.878906 716.289062 L 232.878906 712.171875 C 232.882812 711.296875 232.167969 710.582031 231.289062 710.582031 Z M 231.289062 710.582031 " fill-opacity="1" fill-rule="nonzero"/></svg>