<svg xmlns="http://www.w3.org/2000/svg" xmlns:xlink="http://www.w3.org/1999/xlink" width="800" zoomAndPan="magnify" viewBox="0 0 600 899.99999" height="1200" preserveAspectRatio="xMidYMid meet" version="1.0"><defs><g/><clipPath id="390058bcf6"><path d="M 58.828125 718.378906 L 100.070312 718.378906 L 100.070312 745.171875 L 58.828125 745.171875 Z M 58.828125 718.378906 " clip-rule="nonzero"/></clipPath><clipPath id="8b1d386d3e"><path d="M 60 260 L 94 260 L 94 294 L 60 294 Z M 60 260 " clip-rule="nonzero"/></clipPath><clipPath id="b0124bf9f3"><path d="M 91.769531 259.253906 L 109.113281 279.949219 L 77.5 306.445312 L 60.15625 285.75 Z M 91.769531 259.253906 " clip-rule="nonzero"/></clipPath><clipPath id="06524a9598"><path d="M 91.769531 259.253906 L 109.113281 279.949219 L 77.5 306.445312 L 60.15625 285.75 Z M 91.769531 259.253906 " clip-rule="nonzero"/></clipPath><clipPath id="677fa0fc41"><path d="M 91.765625 259.257812 L 108.976562 279.792969 L 77.214844 306.40625 L 60.007812 285.875 Z M 91.765625 259.257812 " clip-rule="nonzero"/></clipPath><clipPath id="e6327db9d2"><path d="M 286 619 L 323 619 L 323 653 L 286 653 Z M 286 619 " clip-rule="nonzero"/></clipPath><clipPath id="9951ab4653"><path d="M 285.78125 632.996094 L 299.300781 609.625 L 335.007812 630.28125 L 321.488281 653.652344 Z M 285.78125 632.996094 " clip-rule="nonzero"/></clipPath><clipPath id="b3879e3285"><path d="M 285.78125 632.996094 L 299.300781 609.625 L 335.007812 630.28125 L 321.488281 653.652344 Z M 285.78125 632.996094 " clip-rule="nonzero"/></clipPath><clipPath id="c088013a5c"><path d="M 285.789062 633 L 299.203125 609.808594 L 335.070312 630.558594 L 321.652344 653.75 Z M 285.789062 633 " clip-rule="nonzero"/></clipPath><clipPath id="b4b266e8c0"><path d="M 510.8125 269.4375 L 552.054688 269.4375 L 552.054688 296.230469 L 510.8125 296.230469 Z M 510.8125 269.4375 " clip-rule="nonzero"/></clipPath></defs><path stroke-linecap="butt" transform="matrix(0.75, 0, 0, 0.75, -25.608083, -15.449276)" fill="none" stroke-linejoin="miter" d="M 137.784742 1042.104298 C 118.951408 1042.104298 104.545157 1036.781381 94.555573 1026.140755 C 84.571198 1015.333463 79.576406 1000.515754 79.576406 981.687628 L 79.576406 377.010513 C 79.576406 357.692803 84.899323 342.875094 95.539948 332.557385 C 106.347241 322.078218 121.081616 316.838635 139.748284 316.838635 C 156.612868 316.838635 169.873286 320.031343 179.534745 326.41676 C 189.357662 332.640719 198.284745 343.526136 206.305579 359.083428 L 454.612884 818.604286 L 422.435799 818.604286 L 670.987895 359.083428 C 679.008729 343.526136 687.691021 332.640719 697.019147 326.41676 C 706.519147 320.031343 719.618106 316.838635 736.316024 316.838635 C 755.149358 316.838635 769.555609 322.078218 779.545193 332.557385 C 789.696235 342.875094 794.769152 357.692803 794.769152 377.010513 L 794.769152 981.687628 C 794.769152 1000.515754 789.857693 1015.333463 780.034776 1026.140755 C 770.373317 1036.781381 755.8004 1042.104298 736.316024 1042.104298 C 717.654564 1042.104298 703.243105 1036.781381 693.092063 1026.140755 C 683.102479 1015.333463 678.107687 1000.515754 678.107687 981.687628 L 678.107687 516.020937 L 700.211855 516.020937 L 488.993094 901.130332 C 482.28476 912.588666 475.243093 921.020958 467.873301 926.427208 C 460.503509 931.666792 450.4358 934.286584 437.664966 934.286584 C 424.894132 934.286584 414.498298 931.500125 406.472256 925.932416 C 398.451423 920.203249 391.409756 911.937624 385.352464 901.130332 L 171.920161 514.796978 L 196.23787 514.796978 L 196.23787 981.687628 C 196.23787 1000.515754 191.326412 1015.333463 181.498286 1026.140755 C 171.842036 1036.781381 157.269118 1042.104298 137.784742 1042.104298 Z M 137.784742 1042.104298 " stroke="#1f8785" stroke-width="40.239601" stroke-opacity="1" stroke-miterlimit="4"/><g fill="#ffffff" fill-opacity="1"><g transform="translate(-25.608083, 760.050683)"><g><path d="M 103.359375 6.03125 C 89.273438 6.03125 78.460938 2.007812 70.921875 -6.03125 C 63.378906 -14.082031 59.609375 -25.148438 59.609375 -39.234375 L 59.609375 -492.6875 C 59.609375 -507.269531 63.628906 -518.457031 71.671875 -526.25 C 79.722656 -534.050781 90.789062 -537.953125 104.875 -537.953125 C 117.445312 -537.953125 127.378906 -535.5625 134.671875 -530.78125 C 141.972656 -526.007812 148.640625 -517.835938 154.671875 -506.265625 L 341.03125 -161.46875 L 316.890625 -161.46875 L 503.25 -506.265625 C 509.289062 -517.835938 515.832031 -526.007812 522.875 -530.78125 C 529.914062 -535.5625 539.722656 -537.953125 552.296875 -537.953125 C 566.378906 -537.953125 577.191406 -534.050781 584.734375 -526.25 C 592.285156 -518.457031 596.0625 -507.269531 596.0625 -492.6875 L 596.0625 -39.234375 C 596.0625 -25.148438 592.410156 -14.082031 585.109375 -6.03125 C 577.816406 2.007812 566.878906 6.03125 552.296875 6.03125 C 538.210938 6.03125 527.394531 2.007812 519.84375 -6.03125 C 512.300781 -14.082031 508.53125 -25.148438 508.53125 -39.234375 L 508.53125 -388.5625 L 525.125 -388.5625 L 366.6875 -99.59375 C 361.65625 -91.039062 356.375 -84.753906 350.84375 -80.734375 C 345.3125 -76.710938 337.765625 -74.703125 328.203125 -74.703125 C 318.648438 -74.703125 310.851562 -76.835938 304.8125 -81.109375 C 298.78125 -85.378906 293.5 -91.539062 288.96875 -99.59375 L 129.015625 -389.328125 L 147.125 -389.328125 L 147.125 -39.234375 C 147.125 -25.148438 143.476562 -14.082031 136.1875 -6.03125 C 128.894531 2.007812 117.953125 6.03125 103.359375 6.03125 Z M 103.359375 6.03125 "/></g></g></g><g clip-path="url(#390058bcf6)"><path fill="#1f8785" d="M 77.96875 719.125 L 59.308594 741.816406 C 57.90625 743.527344 59.839844 745.9375 61.8125 744.9375 L 78.621094 736.398438 C 79.203125 736.101562 79.890625 736.101562 80.472656 736.398438 L 97.285156 744.9375 C 99.257812 745.9375 101.191406 743.527344 99.785156 741.820312 L 81.125 719.125 C 80.308594 718.132812 78.789062 718.132812 77.96875 719.125 " fill-opacity="1" fill-rule="nonzero"/></g><g clip-path="url(#8b1d386d3e)"><g clip-path="url(#b0124bf9f3)"><g clip-path="url(#06524a9598)"><g clip-path="url(#677fa0fc41)"><path fill="#1f8785" d="M 93.824219 291.515625 L 93.550781 262.136719 C 93.53125 259.925781 90.5 259.320312 89.632812 261.355469 L 82.234375 278.695312 C 81.976562 279.296875 81.449219 279.738281 80.816406 279.886719 L 62.445312 284.140625 C 60.289062 284.636719 60.355469 287.726562 62.53125 288.136719 L 91.40625 293.542969 C 92.671875 293.777344 93.835938 292.800781 93.824219 291.515625 " fill-opacity="1" fill-rule="nonzero"/></g></g></g></g><g clip-path="url(#e6327db9d2)"><g clip-path="url(#9951ab4653)"><g clip-path="url(#b3879e3285)"><g clip-path="url(#c088013a5c)"><path fill="#1f8785" d="M 315.398438 620.039062 L 287.882812 630.335938 C 285.8125 631.113281 286.277344 634.167969 288.488281 634.289062 L 307.3125 635.316406 C 307.964844 635.351562 308.558594 635.695312 308.914062 636.242188 L 319.191406 652.054688 C 320.398438 653.910156 323.277344 652.789062 322.917969 650.605469 L 318.128906 621.621094 C 317.917969 620.351562 316.605469 619.589844 315.398438 620.039062 " fill-opacity="1" fill-rule="nonzero"/></g></g></g></g><g clip-path="url(#b4b266e8c0)"><path fill="#1f8785" d="M 532.914062 295.484375 L 551.574219 272.792969 C 552.976562 271.082031 551.042969 268.671875 549.070312 269.671875 L 532.261719 278.210938 C 531.679688 278.507812 530.992188 278.507812 530.410156 278.210938 L 513.597656 269.671875 C 511.625 268.671875 509.691406 271.082031 511.097656 272.789062 L 529.757812 295.484375 C 530.574219 296.476562 532.09375 296.476562 532.914062 295.484375 " fill-opacity="1" fill-rule="nonzero"/></g><path fill="#1f8785" d="M 73.546875 702.207031 L 73.546875 666.207031 L 85.546875 666.207031 L 85.546875 702.207031 M 73.546875 654.207031 L 73.546875 618.207031 L 85.546875 618.207031 L 85.546875 654.207031 M 73.546875 606.207031 L 73.546875 570.207031 L 85.546875 570.207031 L 85.546875 606.207031 M 73.546875 558.207031 L 73.546875 522.207031 L 85.546875 522.207031 L 85.546875 558.207031 M 73.546875 510.207031 L 73.546875 474.207031 L 85.546875 474.207031 L 85.546875 510.207031 M 73.546875 462.207031 L 73.546875 426.207031 L 85.546875 426.207031 L 85.546875 462.207031 M 73.546875 414.207031 L 73.546875 378.207031 L 85.546875 378.207031 L 85.546875 414.207031 M 73.546875 366.207031 L 73.546875 330.207031 L 85.546875 330.207031 L 85.546875 366.207031 " fill-opacity="1" fill-rule="nonzero"/><path fill="#1f8785" d="M 525.335938 731.777344 L 525.335938 695.777344 L 537.335938 695.777344 L 537.335938 731.777344 M 525.335938 683.777344 L 525.335938 647.777344 L 537.335938 647.777344 L 537.335938 683.777344 M 525.335938 635.777344 L 525.335938 599.777344 L 537.335938 599.777344 L 537.335938 635.777344 M 525.335938 587.777344 L 525.335938 551.777344 L 537.335938 551.777344 L 537.335938 587.777344 M 525.335938 539.777344 L 525.335938 503.777344 L 537.335938 503.777344 L 537.335938 539.777344 M 525.335938 491.777344 L 525.335938 455.777344 L 537.335938 455.777344 L 537.335938 491.777344 M 525.335938 443.777344 L 525.335938 407.777344 L 537.335938 407.777344 L 537.335938 443.777344 M 525.335938 395.777344 L 525.335938 359.777344 L 537.335938 359.777344 L 537.335938 395.777344 M 525.335938 347.777344 L 525.335938 311.777344 L 537.335938 311.777344 L 537.335938 347.777344 " fill-opacity="1" fill-rule="nonzero"/><path fill="#1f8785" d="M 269.289062 588.597656 L 250.316406 558.003906 L 260.511719 551.679688 L 279.488281 582.273438 M 243.992188 547.804688 L 225.015625 517.210938 L 235.214844 510.886719 L 254.1875 541.480469 M 218.691406 507.011719 L 199.71875 476.417969 L 209.917969 470.09375 L 228.890625 500.6875 M 193.394531 466.21875 L 174.421875 435.625 L 184.621094 429.300781 L 203.59375 459.894531 M 168.097656 425.429688 L 149.125 394.832031 L 159.320312 388.507812 L 178.296875 419.105469 M 142.800781 384.636719 L 123.824219 354.042969 L 134.023438 347.71875 L 152.996094 378.3125 M 117.5 343.84375 L 98.527344 313.25 L 108.726562 306.925781 L 127.699219 337.519531 M 92.203125 303.050781 L 87.996094 296.265625 L 98.191406 289.941406 L 102.402344 296.726562 " fill-opacity="1" fill-rule="nonzero"/><path fill="#1f8785" d="M 329.882812 582.433594 L 347.882812 551.257812 L 358.277344 557.257812 L 340.277344 588.433594 M 353.882812 540.863281 L 371.882812 509.6875 L 382.277344 515.6875 L 364.277344 546.863281 M 377.882812 499.296875 L 395.882812 468.117188 L 406.277344 474.117188 L 388.277344 505.296875 M 401.882812 457.726562 L 419.882812 426.550781 L 430.277344 432.550781 L 412.277344 463.726562 M 425.882812 416.15625 L 443.882812 384.980469 L 454.277344 390.980469 L 436.277344 422.15625 M 449.882812 374.589844 L 467.882812 343.410156 L 478.277344 349.410156 L 460.277344 380.589844 M 473.882812 333.019531 L 485.277344 313.285156 L 495.671875 319.285156 L 484.277344 339.019531 " fill-opacity="1" fill-rule="nonzero"/></svg>