<svg xmlns="http://www.w3.org/2000/svg" xmlns:xlink="http://www.w3.org/1999/xlink" width="794" zoomAndPan="magnify" viewBox="0 0 594.95996 842.24997" height="1123" preserveAspectRatio="xMidYMid meet" version="1.0"><defs><clipPath id="7e226380c6"><path d="M 59.71875 177.402344 L 535.546875 177.402344 L 535.546875 663.71875 L 59.71875 663.71875 Z M 59.71875 177.402344 " clip-rule="nonzero"/></clipPath></defs><path fill="#ffffff" d="M 480.5625 659.257812 C 452.703125 659.257812 430.039062 636.59375 430.039062 608.738281 L 430.039062 431.886719 L 350.300781 622.464844 C 340.953125 644.816406 319.253906 659.257812 295.023438 659.257812 C 270.417969 659.257812 248.589844 644.503906 239.421875 621.667969 L 165.867188 438.46875 L 165.867188 608.738281 C 165.867188 636.59375 143.203125 659.257812 115.339844 659.257812 L 114.714844 659.257812 C 86.855469 659.257812 64.191406 636.59375 64.191406 608.738281 L 64.191406 243.457031 C 64.191406 209.507812 91.8125 181.890625 125.765625 181.890625 C 151.097656 181.890625 173.539062 197.085938 182.945312 220.605469 L 297.289062 506.664062 L 417.96875 218.027344 C 427.148438 196.074219 448.449219 181.890625 472.25 181.890625 C 504.691406 181.890625 531.085938 208.28125 531.085938 240.71875 L 531.085938 608.738281 C 531.085938 636.59375 508.421875 659.257812 480.5625 659.257812 Z M 480.5625 659.257812 " fill-opacity="1" fill-rule="nonzero"/><g clip-path="url(#7e226380c6)"><path fill="#000000" d="M 472.25 181.890625 C 504.691406 181.890625 531.085938 208.28125 531.085938 240.71875 L 531.085938 608.738281 C 531.085938 636.59375 508.421875 659.257812 480.5625 659.257812 C 452.703125 659.257812 430.039062 636.59375 430.039062 608.738281 L 430.039062 431.886719 L 350.300781 622.464844 C 340.953125 644.816406 319.253906 659.257812 295.023438 659.257812 C 270.417969 659.257812 248.589844 644.503906 239.421875 621.667969 L 165.867188 438.46875 L 165.867188 608.738281 C 165.867188 636.59375 143.203125 659.257812 115.339844 659.257812 L 114.714844 659.257812 C 86.855469 659.257812 64.191406 636.59375 64.191406 608.738281 L 64.191406 243.457031 C 64.191406 209.507812 91.8125 181.890625 125.765625 181.890625 C 151.097656 181.890625 173.539062 197.085938 182.945312 220.605469 L 297.289062 506.664062 L 417.96875 218.027344 C 427.148438 196.074219 448.449219 181.890625 472.25 181.890625 M 472.25 177.417969 C 446.644531 177.417969 423.71875 192.679688 413.84375 216.300781 L 297.378906 494.84375 L 187.097656 218.945312 C 177.007812 193.71875 152.9375 177.417969 125.765625 177.417969 C 89.347656 177.417969 59.71875 207.042969 59.71875 243.457031 L 59.71875 608.738281 C 59.71875 639.058594 84.390625 663.730469 114.714844 663.730469 L 115.339844 663.730469 C 145.667969 663.730469 170.339844 639.058594 170.339844 608.738281 L 170.339844 461.617188 L 235.269531 623.332031 C 245.125 647.871094 268.578125 663.730469 295.023438 663.730469 C 321.0625 663.730469 344.382812 648.210938 354.425781 624.191406 L 425.566406 454.164062 L 425.566406 608.738281 C 425.566406 639.058594 450.238281 663.730469 480.5625 663.730469 C 510.886719 663.730469 535.558594 639.058594 535.558594 608.738281 L 535.558594 240.71875 C 535.558594 205.8125 507.15625 177.417969 472.25 177.417969 Z M 472.25 177.417969 " fill-opacity="1" fill-rule="nonzero"/></g><path fill="#58595b" d="M 292.003906 622.113281 L 288.683594 613.808594 L 290.761719 612.976562 L 294.082031 621.285156 Z M 285.363281 605.5 L 282.042969 597.195312 L 284.121094 596.363281 L 287.441406 604.671875 Z M 278.722656 588.886719 L 275.402344 580.582031 L 277.480469 579.75 L 280.800781 588.058594 Z M 272.082031 572.273438 L 268.761719 563.96875 L 270.839844 563.136719 L 274.160156 571.445312 Z M 265.441406 555.660156 L 262.121094 547.355469 L 264.199219 546.523438 L 267.519531 554.832031 Z M 258.800781 539.046875 L 255.480469 530.742188 L 257.558594 529.914062 L 260.878906 538.21875 Z M 252.160156 522.433594 L 248.839844 514.128906 L 250.917969 513.300781 L 254.238281 521.605469 Z M 245.519531 505.824219 L 242.199219 497.515625 L 244.277344 496.6875 L 247.597656 504.992188 Z M 238.878906 489.210938 L 235.558594 480.902344 L 237.636719 480.074219 L 240.957031 488.378906 Z M 232.238281 472.597656 L 228.917969 464.289062 L 230.996094 463.460938 L 234.316406 471.765625 Z M 225.597656 455.984375 L 222.277344 447.675781 L 224.355469 446.847656 L 227.675781 455.152344 Z M 218.957031 439.371094 L 215.640625 431.0625 L 217.714844 430.234375 L 221.035156 438.539062 Z M 212.320312 422.757812 L 209 414.453125 L 211.074219 413.621094 L 214.394531 421.929688 Z M 205.675781 406.144531 L 202.359375 397.839844 L 204.433594 397.007812 L 207.753906 405.316406 Z M 199.039062 389.53125 L 195.71875 381.226562 L 197.796875 380.394531 L 201.113281 388.703125 Z M 192.398438 372.917969 L 189.078125 364.613281 L 191.15625 363.78125 L 194.476562 372.089844 Z M 185.757812 356.304688 L 182.4375 348 L 184.515625 347.171875 L 187.835938 355.476562 Z M 179.117188 339.691406 L 175.796875 331.386719 L 177.875 330.558594 L 181.195312 338.863281 Z M 172.476562 323.082031 L 169.15625 314.773438 L 171.234375 313.945312 L 174.554688 322.25 Z M 165.835938 306.46875 L 162.515625 298.160156 L 164.59375 297.332031 L 167.914062 305.636719 Z M 159.195312 289.855469 L 156.480469 283.058594 L 158.554688 282.226562 L 161.273438 289.023438 Z M 159.195312 289.855469 " fill-opacity="1" fill-rule="nonzero"/><path fill="#58595b" d="M 318.523438 578.535156 L 316.460938 577.671875 L 318.042969 573.886719 L 320.105469 574.75 Z M 323.558594 566.496094 L 321.496094 565.632812 L 324.945312 557.378906 L 327.007812 558.242188 Z M 330.457031 549.988281 L 328.394531 549.125 L 331.847656 540.871094 L 333.910156 541.734375 Z M 337.359375 533.484375 L 335.296875 532.621094 L 338.746094 524.367188 L 340.8125 525.230469 Z M 344.261719 516.976562 L 342.199219 516.113281 L 345.648438 507.859375 L 347.714844 508.722656 Z M 351.164062 500.46875 L 349.101562 499.605469 L 352.550781 491.355469 L 354.613281 492.21875 Z M 358.066406 483.964844 L 356.003906 483.101562 L 359.453125 474.847656 L 361.515625 475.710938 Z M 364.96875 467.457031 L 362.902344 466.59375 L 366.355469 458.34375 L 368.417969 459.203125 Z M 371.867188 450.953125 L 369.804688 450.089844 L 373.253906 441.835938 L 375.320312 442.699219 Z M 378.769531 434.445312 L 376.707031 433.582031 L 380.15625 425.328125 L 382.222656 426.191406 Z M 385.671875 417.9375 L 383.609375 417.078125 L 387.058594 408.824219 L 389.121094 409.6875 Z M 392.574219 401.433594 L 390.507812 400.570312 L 393.960938 392.316406 L 396.023438 393.179688 Z M 399.472656 384.925781 L 397.410156 384.0625 L 400.863281 375.8125 L 402.925781 376.675781 Z M 406.375 368.421875 L 404.3125 367.558594 L 407.761719 359.304688 L 409.828125 360.167969 Z M 413.277344 351.914062 L 411.214844 351.050781 L 414.664062 342.796875 L 416.726562 343.660156 Z M 420.179688 335.40625 L 418.113281 334.546875 L 421.566406 326.292969 L 423.628906 327.15625 Z M 427.078125 318.902344 L 425.015625 318.039062 L 428.46875 309.785156 L 430.53125 310.648438 Z M 433.980469 302.394531 L 431.917969 301.53125 L 435.367188 293.28125 L 437.433594 294.144531 Z M 440.882812 285.890625 L 438.820312 285.027344 L 442.269531 276.773438 L 444.332031 277.636719 Z M 447.785156 269.382812 L 445.71875 268.519531 L 449.171875 260.269531 L 451.234375 261.128906 Z M 447.785156 269.382812 " fill-opacity="1" fill-rule="nonzero"/><path fill="#58595b" d="M 115.328125 624.195312 L 113.089844 624.195312 L 113.089844 620.890625 L 115.328125 620.890625 Z M 115.328125 611.945312 L 113.089844 611.945312 L 113.089844 603 L 115.328125 603 Z M 115.328125 594.054688 L 113.089844 594.054688 L 113.089844 585.109375 L 115.328125 585.109375 Z M 115.328125 576.164062 L 113.089844 576.164062 L 113.089844 567.21875 L 115.328125 567.21875 Z M 115.328125 558.273438 L 113.089844 558.273438 L 113.089844 549.328125 L 115.328125 549.328125 Z M 115.328125 540.382812 L 113.089844 540.382812 L 113.089844 531.4375 L 115.328125 531.4375 Z M 115.328125 522.492188 L 113.089844 522.492188 L 113.089844 513.546875 L 115.328125 513.546875 Z M 115.328125 504.601562 L 113.089844 504.601562 L 113.089844 495.65625 L 115.328125 495.65625 Z M 115.328125 486.710938 L 113.089844 486.710938 L 113.089844 477.765625 L 115.328125 477.765625 Z M 115.328125 468.820312 L 113.089844 468.820312 L 113.089844 459.875 L 115.328125 459.875 Z M 115.328125 450.929688 L 113.089844 450.929688 L 113.089844 441.984375 L 115.328125 441.984375 Z M 115.328125 433.039062 L 113.089844 433.039062 L 113.089844 424.09375 L 115.328125 424.09375 Z M 115.328125 415.148438 L 113.089844 415.148438 L 113.089844 406.203125 L 115.328125 406.203125 Z M 115.328125 397.257812 L 113.089844 397.257812 L 113.089844 388.3125 L 115.328125 388.3125 Z M 115.328125 379.367188 L 113.089844 379.367188 L 113.089844 370.421875 L 115.328125 370.421875 Z M 115.328125 361.476562 L 113.089844 361.476562 L 113.089844 352.53125 L 115.328125 352.53125 Z M 115.328125 343.585938 L 113.089844 343.585938 L 113.089844 334.640625 L 115.328125 334.640625 Z M 115.328125 325.695312 L 113.089844 325.695312 L 113.089844 316.75 L 115.328125 316.75 Z M 115.328125 307.804688 L 113.089844 307.804688 L 113.089844 298.859375 L 115.328125 298.859375 Z M 115.328125 289.914062 L 113.089844 289.914062 L 113.089844 280.96875 L 115.328125 280.96875 Z M 115.328125 272.023438 L 113.089844 272.023438 L 113.089844 263.078125 L 115.328125 263.078125 Z M 115.328125 254.132812 L 113.089844 254.132812 L 113.089844 245.1875 L 115.328125 245.1875 Z M 115.328125 254.132812 " fill-opacity="1" fill-rule="nonzero"/><path fill="#58595b" d="M 114.207031 634.765625 L 123.363281 618.910156 L 105.054688 618.910156 Z M 114.207031 634.765625 " fill-opacity="1" fill-rule="nonzero"/><path fill="#58595b" d="M 297.039062 633.140625 L 299.894531 615.058594 L 282.804688 621.628906 Z M 297.039062 633.140625 " fill-opacity="1" fill-rule="nonzero"/><path fill="#414042" d="M 136.785156 234.195312 C 136.785156 234.929688 136.75 235.664062 136.675781 236.398438 C 136.605469 237.128906 136.496094 237.859375 136.351562 238.578125 C 136.207031 239.300781 136.03125 240.015625 135.816406 240.71875 C 135.601562 241.425781 135.355469 242.117188 135.074219 242.796875 C 134.792969 243.476562 134.476562 244.140625 134.128906 244.792969 C 133.78125 245.441406 133.40625 246.070312 132.996094 246.683594 C 132.585938 247.296875 132.148438 247.886719 131.679688 248.457031 C 131.214844 249.023438 130.71875 249.570312 130.199219 250.089844 C 129.679688 250.613281 129.132812 251.105469 128.5625 251.574219 C 127.996094 252.039062 127.40625 252.476562 126.792969 252.886719 C 126.179688 253.296875 125.550781 253.675781 124.898438 254.019531 C 124.25 254.367188 123.585938 254.683594 122.90625 254.964844 C 122.222656 255.246094 121.53125 255.492188 120.828125 255.707031 C 120.121094 255.921875 119.410156 256.101562 118.6875 256.242188 C 117.964844 256.386719 117.238281 256.496094 116.503906 256.566406 C 115.773438 256.640625 115.035156 256.675781 114.300781 256.675781 C 113.5625 256.675781 112.828125 256.640625 112.097656 256.566406 C 111.363281 256.496094 110.636719 256.386719 109.914062 256.242188 C 109.191406 256.101562 108.476562 255.921875 107.773438 255.707031 C 107.070312 255.492188 106.375 255.246094 105.695312 254.964844 C 105.015625 254.683594 104.351562 254.367188 103.703125 254.019531 C 103.050781 253.675781 102.421875 253.296875 101.808594 252.886719 C 101.195312 252.476562 100.605469 252.039062 100.035156 251.574219 C 99.46875 251.105469 98.921875 250.613281 98.402344 250.089844 C 97.882812 249.570312 97.386719 249.023438 96.921875 248.457031 C 96.453125 247.886719 96.015625 247.296875 95.605469 246.683594 C 95.195312 246.070312 94.820312 245.441406 94.472656 244.792969 C 94.125 244.140625 93.808594 243.476562 93.527344 242.796875 C 93.246094 242.117188 93 241.425781 92.785156 240.71875 C 92.570312 240.015625 92.390625 239.300781 92.25 238.578125 C 92.105469 237.859375 91.996094 237.128906 91.925781 236.398438 C 91.851562 235.664062 91.816406 234.929688 91.816406 234.195312 C 91.816406 233.457031 91.851562 232.722656 91.925781 231.988281 C 91.996094 231.257812 92.105469 230.53125 92.25 229.808594 C 92.390625 229.085938 92.570312 228.371094 92.785156 227.667969 C 93 226.964844 93.246094 226.269531 93.527344 225.589844 C 93.808594 224.910156 94.125 224.246094 94.472656 223.597656 C 94.820312 222.945312 95.195312 222.316406 95.605469 221.703125 C 96.015625 221.089844 96.453125 220.5 96.921875 219.929688 C 97.386719 219.363281 97.882812 218.816406 98.402344 218.296875 C 98.921875 217.777344 99.46875 217.28125 100.035156 216.816406 C 100.605469 216.347656 101.195312 215.910156 101.808594 215.5 C 102.421875 215.089844 103.050781 214.714844 103.703125 214.367188 C 104.351562 214.019531 105.015625 213.703125 105.695312 213.421875 C 106.375 213.140625 107.070312 212.894531 107.773438 212.679688 C 108.476562 212.464844 109.191406 212.289062 109.914062 212.144531 C 110.636719 212 111.363281 211.890625 112.097656 211.820312 C 112.828125 211.75 113.5625 211.710938 114.300781 211.710938 C 115.035156 211.710938 115.773438 211.75 116.503906 211.820312 C 117.238281 211.890625 117.964844 212 118.6875 212.144531 C 119.410156 212.289062 120.121094 212.464844 120.828125 212.679688 C 121.53125 212.894531 122.222656 213.140625 122.90625 213.421875 C 123.585938 213.703125 124.25 214.019531 124.898438 214.367188 C 125.550781 214.714844 126.179688 215.089844 126.792969 215.5 C 127.40625 215.910156 127.996094 216.347656 128.5625 216.816406 C 129.132812 217.28125 129.679688 217.777344 130.199219 218.296875 C 130.71875 218.816406 131.214844 219.363281 131.679688 219.929688 C 132.148438 220.5 132.585938 221.089844 132.996094 221.703125 C 133.40625 222.316406 133.78125 222.945312 134.128906 223.597656 C 134.476562 224.246094 134.792969 224.910156 135.074219 225.589844 C 135.355469 226.269531 135.601562 226.964844 135.816406 227.667969 C 136.03125 228.371094 136.207031 229.085938 136.351562 229.808594 C 136.496094 230.53125 136.605469 231.257812 136.675781 231.988281 C 136.75 232.722656 136.785156 233.457031 136.785156 234.195312 Z M 136.785156 234.195312 " fill-opacity="1" fill-rule="nonzero"/><path fill="#fcfcfc" d="M 116.902344 218.800781 L 114.015625 218.800781 C 113.6875 218.800781 113.378906 218.945312 113.164062 219.195312 L 104.664062 229.136719 C 104.289062 229.582031 104.308594 230.242188 104.726562 230.65625 L 106.34375 232.269531 C 106.777344 232.707031 107.480469 232.707031 107.917969 232.277344 L 112.898438 227.355469 L 112.898438 248.902344 C 112.898438 249.519531 113.402344 250.019531 114.015625 250.019531 L 116.902344 250.019531 C 117.519531 250.019531 118.023438 249.519531 118.023438 248.902344 L 118.023438 219.921875 C 118.023438 219.304688 117.519531 218.800781 116.902344 218.800781 Z M 116.902344 218.800781 " fill-opacity="1" fill-rule="nonzero"/><path fill="#58595b" d="M 481.675781 624.195312 L 479.441406 624.195312 L 479.441406 620.890625 L 481.675781 620.890625 Z M 481.675781 611.945312 L 479.441406 611.945312 L 479.441406 603 L 481.675781 603 Z M 481.675781 594.054688 L 479.441406 594.054688 L 479.441406 585.109375 L 481.675781 585.109375 Z M 481.675781 576.164062 L 479.441406 576.164062 L 479.441406 567.21875 L 481.675781 567.21875 Z M 481.675781 558.273438 L 479.441406 558.273438 L 479.441406 549.328125 L 481.675781 549.328125 Z M 481.675781 540.382812 L 479.441406 540.382812 L 479.441406 531.4375 L 481.675781 531.4375 Z M 481.675781 522.492188 L 479.441406 522.492188 L 479.441406 513.546875 L 481.675781 513.546875 Z M 481.675781 504.601562 L 479.441406 504.601562 L 479.441406 495.65625 L 481.675781 495.65625 Z M 481.675781 486.710938 L 479.441406 486.710938 L 479.441406 477.765625 L 481.675781 477.765625 Z M 481.675781 468.820312 L 479.441406 468.820312 L 479.441406 459.875 L 481.675781 459.875 Z M 481.675781 450.929688 L 479.441406 450.929688 L 479.441406 441.984375 L 481.675781 441.984375 Z M 481.675781 433.039062 L 479.441406 433.039062 L 479.441406 424.09375 L 481.675781 424.09375 Z M 481.675781 415.148438 L 479.441406 415.148438 L 479.441406 406.203125 L 481.675781 406.203125 Z M 481.675781 397.257812 L 479.441406 397.257812 L 479.441406 388.3125 L 481.675781 388.3125 Z M 481.675781 379.367188 L 479.441406 379.367188 L 479.441406 370.421875 L 481.675781 370.421875 Z M 481.675781 361.476562 L 479.441406 361.476562 L 479.441406 352.53125 L 481.675781 352.53125 Z M 481.675781 343.585938 L 479.441406 343.585938 L 479.441406 334.640625 L 481.675781 334.640625 Z M 481.675781 325.695312 L 479.441406 325.695312 L 479.441406 316.75 L 481.675781 316.75 Z M 481.675781 307.804688 L 479.441406 307.804688 L 479.441406 298.859375 L 481.675781 298.859375 Z M 481.675781 289.914062 L 479.441406 289.914062 L 479.441406 280.96875 L 481.675781 280.96875 Z M 481.675781 272.023438 L 479.441406 272.023438 L 479.441406 263.078125 L 481.675781 263.078125 Z M 481.675781 254.132812 L 479.441406 254.132812 L 479.441406 245.1875 L 481.675781 245.1875 Z M 481.675781 254.132812 " fill-opacity="1" fill-rule="nonzero"/><path fill="#58595b" d="M 480.558594 634.765625 L 489.710938 618.910156 L 471.402344 618.910156 Z M 480.558594 634.765625 " fill-opacity="1" fill-rule="nonzero"/><path fill="#414042" d="M 336.667969 585.601562 C 336.667969 586.339844 336.632812 587.074219 336.558594 587.804688 C 336.488281 588.539062 336.378906 589.265625 336.234375 589.988281 C 336.09375 590.710938 335.914062 591.425781 335.699219 592.128906 C 335.484375 592.832031 335.238281 593.527344 334.957031 594.207031 C 334.675781 594.886719 334.359375 595.550781 334.011719 596.199219 C 333.664062 596.851562 333.289062 597.480469 332.878906 598.09375 C 332.46875 598.707031 332.03125 599.296875 331.5625 599.863281 C 331.097656 600.433594 330.601562 600.980469 330.082031 601.5 C 329.5625 602.019531 329.015625 602.515625 328.449219 602.980469 C 327.878906 603.449219 327.289062 603.886719 326.675781 604.296875 C 326.0625 604.703125 325.433594 605.082031 324.78125 605.429688 C 324.132812 605.777344 323.46875 606.089844 322.789062 606.375 C 322.109375 606.65625 321.414062 606.902344 320.710938 607.117188 C 320.007812 607.332031 319.292969 607.507812 318.570312 607.652344 C 317.847656 607.796875 317.121094 607.902344 316.386719 607.976562 C 315.65625 608.046875 314.921875 608.085938 314.183594 608.085938 C 313.449219 608.085938 312.714844 608.046875 311.980469 607.976562 C 311.246094 607.902344 310.519531 607.796875 309.796875 607.652344 C 309.074219 607.507812 308.363281 607.332031 307.65625 607.117188 C 306.953125 606.902344 306.261719 606.65625 305.578125 606.375 C 304.898438 606.089844 304.234375 605.777344 303.585938 605.429688 C 302.9375 605.082031 302.304688 604.703125 301.691406 604.296875 C 301.082031 603.886719 300.488281 603.449219 299.921875 602.980469 C 299.351562 602.515625 298.804688 602.019531 298.285156 601.5 C 297.765625 600.980469 297.269531 600.433594 296.804688 599.863281 C 296.335938 599.296875 295.898438 598.707031 295.488281 598.09375 C 295.078125 597.480469 294.703125 596.851562 294.355469 596.199219 C 294.007812 595.550781 293.691406 594.886719 293.410156 594.207031 C 293.128906 593.527344 292.882812 592.832031 292.667969 592.128906 C 292.453125 591.425781 292.277344 590.710938 292.132812 589.988281 C 291.988281 589.265625 291.878906 588.539062 291.808594 587.804688 C 291.734375 587.074219 291.699219 586.339844 291.699219 585.601562 C 291.699219 584.867188 291.734375 584.132812 291.808594 583.398438 C 291.878906 582.667969 291.988281 581.9375 292.132812 581.214844 C 292.277344 580.496094 292.453125 579.78125 292.667969 579.078125 C 292.882812 578.371094 293.128906 577.679688 293.410156 577 C 293.691406 576.320312 294.007812 575.652344 294.355469 575.003906 C 294.703125 574.355469 295.078125 573.726562 295.488281 573.113281 C 295.898438 572.5 296.335938 571.910156 296.804688 571.339844 C 297.269531 570.769531 297.765625 570.226562 298.285156 569.707031 C 298.804688 569.183594 299.351562 568.691406 299.921875 568.222656 C 300.488281 567.757812 301.082031 567.320312 301.691406 566.910156 C 302.304688 566.5 302.9375 566.121094 303.585938 565.777344 C 304.234375 565.429688 304.898438 565.113281 305.578125 564.832031 C 306.261719 564.550781 306.953125 564.300781 307.65625 564.089844 C 308.363281 563.875 309.074219 563.695312 309.796875 563.554688 C 310.519531 563.410156 311.246094 563.300781 311.980469 563.230469 C 312.714844 563.15625 313.449219 563.121094 314.183594 563.121094 C 314.921875 563.121094 315.65625 563.15625 316.386719 563.230469 C 317.121094 563.300781 317.847656 563.410156 318.570312 563.554688 C 319.292969 563.695312 320.007812 563.875 320.710938 564.089844 C 321.414062 564.300781 322.109375 564.550781 322.789062 564.832031 C 323.46875 565.113281 324.132812 565.429688 324.78125 565.777344 C 325.433594 566.121094 326.0625 566.5 326.675781 566.910156 C 327.289062 567.320312 327.878906 567.757812 328.449219 568.222656 C 329.015625 568.691406 329.5625 569.183594 330.082031 569.707031 C 330.601562 570.226562 331.097656 570.769531 331.5625 571.339844 C 332.03125 571.910156 332.46875 572.5 332.878906 573.113281 C 333.289062 573.726562 333.664062 574.355469 334.011719 575.003906 C 334.359375 575.652344 334.675781 576.320312 334.957031 577 C 335.238281 577.679688 335.484375 578.371094 335.699219 579.078125 C 335.914062 579.78125 336.09375 580.496094 336.234375 581.214844 C 336.378906 581.9375 336.488281 582.667969 336.558594 583.398438 C 336.632812 584.132812 336.667969 584.867188 336.667969 585.601562 Z M 336.667969 585.601562 " fill-opacity="1" fill-rule="nonzero"/><path fill="#fcfcfc" d="M 323 587 C 322.355469 586.082031 321.574219 585.335938 320.683594 584.765625 C 321.296875 584.257812 321.820312 583.652344 322.253906 582.941406 C 323.082031 581.601562 323.503906 580.035156 323.503906 578.296875 C 323.503906 576.632812 323.117188 575.121094 322.351562 573.804688 C 321.585938 572.480469 320.5 571.433594 319.136719 570.6875 C 317.789062 569.949219 316.25 569.574219 314.5625 569.574219 C 312.347656 569.574219 310.371094 570.199219 308.683594 571.425781 C 307.023438 572.628906 305.726562 574.277344 304.832031 576.320312 C 304.59375 576.851562 304.808594 577.472656 305.316406 577.75 L 307.652344 579.027344 C 307.925781 579.171875 308.238281 579.199219 308.527344 579.109375 C 308.820312 579.015625 309.058594 578.8125 309.195312 578.535156 C 309.855469 577.195312 310.636719 576.15625 311.519531 575.460938 C 312.34375 574.804688 313.339844 574.488281 314.5625 574.488281 C 315.648438 574.488281 316.503906 574.828125 317.179688 575.53125 C 317.871094 576.238281 318.207031 577.144531 318.207031 578.296875 C 318.207031 579.605469 317.84375 580.628906 317.101562 581.425781 C 316.386719 582.203125 315.429688 582.578125 314.183594 582.578125 L 312.3125 582.578125 C 311.695312 582.578125 311.195312 583.078125 311.195312 583.695312 L 311.195312 586.328125 C 311.195312 586.945312 311.695312 587.445312 312.3125 587.445312 L 314.351562 587.445312 C 315.8125 587.445312 316.96875 587.898438 317.894531 588.820312 C 318.816406 589.746094 319.265625 590.902344 319.265625 592.363281 C 319.265625 593.765625 318.824219 594.882812 317.921875 595.773438 C 317.007812 596.671875 315.898438 597.109375 314.523438 597.109375 C 313.351562 597.109375 312.359375 596.777344 311.492188 596.097656 C 310.578125 595.375 309.804688 594.359375 309.203125 593.078125 C 309.066406 592.792969 308.816406 592.582031 308.519531 592.484375 C 308.222656 592.390625 307.902344 592.429688 307.625 592.589844 L 305.074219 594.078125 C 304.59375 594.355469 304.394531 594.949219 304.601562 595.460938 C 305.417969 597.46875 306.675781 599.089844 308.347656 600.285156 C 310.035156 601.496094 312.066406 602.109375 314.390625 602.109375 C 316.238281 602.109375 317.964844 601.695312 319.523438 600.875 C 321.101562 600.046875 322.363281 598.875 323.277344 597.386719 C 324.183594 595.894531 324.648438 594.203125 324.648438 592.363281 C 324.652344 590.347656 324.097656 588.542969 323 587 Z M 323 587 " fill-opacity="1" fill-rule="nonzero"/><path fill="#414042" d="M 501.433594 232.492188 C 501.433594 233.226562 501.394531 233.960938 501.324219 234.695312 C 501.25 235.429688 501.144531 236.15625 501 236.878906 C 500.855469 237.601562 500.675781 238.3125 500.464844 239.019531 C 500.25 239.722656 500.003906 240.414062 499.71875 241.09375 C 499.4375 241.777344 499.125 242.441406 498.777344 243.089844 C 498.429688 243.738281 498.050781 244.371094 497.644531 244.980469 C 497.234375 245.59375 496.796875 246.183594 496.328125 246.753906 C 495.859375 247.324219 495.367188 247.867188 494.847656 248.390625 C 494.324219 248.910156 493.78125 249.402344 493.210938 249.871094 C 492.640625 250.335938 492.050781 250.777344 491.4375 251.183594 C 490.828125 251.59375 490.195312 251.972656 489.546875 252.320312 C 488.898438 252.667969 488.234375 252.980469 487.550781 253.261719 C 486.871094 253.542969 486.179688 253.792969 485.472656 254.003906 C 484.769531 254.21875 484.054688 254.398438 483.335938 254.542969 C 482.613281 254.683594 481.882812 254.792969 481.152344 254.867188 C 480.417969 254.9375 479.683594 254.972656 478.949219 254.972656 C 478.210938 254.972656 477.476562 254.9375 476.742188 254.867188 C 476.011719 254.792969 475.285156 254.683594 474.5625 254.542969 C 473.839844 254.398438 473.125 254.21875 472.421875 254.003906 C 471.714844 253.792969 471.023438 253.542969 470.34375 253.261719 C 469.664062 252.980469 469 252.667969 468.347656 252.320312 C 467.699219 251.972656 467.070312 251.59375 466.457031 251.183594 C 465.84375 250.777344 465.253906 250.335938 464.683594 249.871094 C 464.113281 249.402344 463.570312 248.910156 463.050781 248.390625 C 462.527344 247.867188 462.035156 247.324219 461.566406 246.753906 C 461.101562 246.183594 460.664062 245.59375 460.253906 244.980469 C 459.84375 244.371094 459.464844 243.738281 459.117188 243.089844 C 458.773438 242.441406 458.457031 241.777344 458.175781 241.09375 C 457.894531 240.414062 457.644531 239.722656 457.433594 239.019531 C 457.21875 238.3125 457.039062 237.601562 456.894531 236.878906 C 456.753906 236.15625 456.644531 235.429688 456.570312 234.695312 C 456.5 233.960938 456.464844 233.226562 456.464844 232.492188 C 456.464844 231.753906 456.5 231.019531 456.570312 230.289062 C 456.644531 229.554688 456.753906 228.828125 456.894531 228.105469 C 457.039062 227.382812 457.21875 226.671875 457.433594 225.964844 C 457.644531 225.261719 457.894531 224.570312 458.175781 223.886719 C 458.457031 223.207031 458.773438 222.542969 459.117188 221.894531 C 459.464844 221.246094 459.84375 220.613281 460.253906 220 C 460.664062 219.390625 461.101562 218.796875 461.566406 218.230469 C 462.035156 217.660156 462.527344 217.117188 463.050781 216.59375 C 463.570312 216.074219 464.113281 215.582031 464.683594 215.113281 C 465.253906 214.644531 465.84375 214.207031 466.457031 213.800781 C 467.070312 213.390625 467.699219 213.011719 468.347656 212.664062 C 469 212.316406 469.664062 212.003906 470.34375 211.722656 C 471.023438 211.441406 471.714844 211.191406 472.421875 210.976562 C 473.125 210.765625 473.839844 210.585938 474.5625 210.441406 C 475.285156 210.296875 476.011719 210.191406 476.742188 210.117188 C 477.476562 210.046875 478.210938 210.011719 478.949219 210.011719 C 479.683594 210.011719 480.417969 210.046875 481.152344 210.117188 C 481.882812 210.191406 482.613281 210.296875 483.335938 210.441406 C 484.054688 210.585938 484.769531 210.765625 485.472656 210.976562 C 486.179688 211.191406 486.871094 211.441406 487.550781 211.722656 C 488.234375 212.003906 488.898438 212.316406 489.546875 212.664062 C 490.195312 213.011719 490.828125 213.390625 491.4375 213.800781 C 492.050781 214.207031 492.640625 214.644531 493.210938 215.113281 C 493.78125 215.582031 494.324219 216.074219 494.847656 216.59375 C 495.367188 217.117188 495.859375 217.660156 496.328125 218.230469 C 496.796875 218.796875 497.234375 219.390625 497.644531 220 C 498.050781 220.613281 498.429688 221.246094 498.777344 221.894531 C 499.125 222.542969 499.4375 223.207031 499.71875 223.886719 C 500.003906 224.570312 500.25 225.261719 500.464844 225.964844 C 500.675781 226.671875 500.855469 227.382812 501 228.105469 C 501.144531 228.828125 501.25 229.554688 501.324219 230.289062 C 501.394531 231.019531 501.433594 231.753906 501.433594 232.492188 Z M 501.433594 232.492188 " fill-opacity="1" fill-rule="nonzero"/><path fill="#fcfcfc" d="M 488.367188 236.730469 L 485.789062 236.730469 L 485.789062 218.21875 C 485.789062 217.601562 485.285156 217.101562 484.667969 217.101562 L 481.78125 217.101562 C 481.425781 217.101562 481.09375 217.269531 480.882812 217.554688 L 466.347656 237.183594 C 466.210938 237.378906 466.128906 237.613281 466.128906 237.847656 L 466.128906 240.738281 C 466.128906 241.355469 466.632812 241.855469 467.25 241.855469 L 480.664062 241.855469 L 480.664062 247.199219 C 480.664062 247.816406 481.164062 248.316406 481.78125 248.316406 L 484.667969 248.316406 C 485.285156 248.316406 485.789062 247.816406 485.789062 247.199219 L 485.789062 241.855469 L 488.367188 241.855469 C 488.984375 241.855469 489.488281 241.355469 489.488281 240.738281 L 489.488281 237.847656 C 489.488281 237.230469 488.984375 236.730469 488.367188 236.730469 Z M 472.554688 236.730469 L 480.664062 226.046875 L 480.664062 236.730469 Z M 472.554688 236.730469 " fill-opacity="1" fill-rule="nonzero"/><path fill="#414042" d="M 177.4375 270.082031 C 177.4375 270.820312 177.398438 271.554688 177.328125 272.289062 C 177.253906 273.019531 177.148438 273.746094 177.003906 274.46875 C 176.859375 275.191406 176.683594 275.90625 176.46875 276.609375 C 176.253906 277.3125 176.007812 278.007812 175.726562 278.6875 C 175.441406 279.367188 175.128906 280.03125 174.78125 280.679688 C 174.433594 281.332031 174.054688 281.960938 173.648438 282.574219 C 173.238281 283.1875 172.800781 283.777344 172.332031 284.347656 C 171.867188 284.914062 171.371094 285.460938 170.851562 285.980469 C 170.332031 286.5 169.785156 286.996094 169.214844 287.460938 C 168.648438 287.929688 168.054688 288.367188 167.445312 288.777344 C 166.832031 289.1875 166.199219 289.5625 165.550781 289.910156 C 164.902344 290.257812 164.238281 290.574219 163.554688 290.855469 C 162.875 291.136719 162.183594 291.382812 161.480469 291.597656 C 160.773438 291.8125 160.0625 291.988281 159.339844 292.132812 C 158.617188 292.277344 157.890625 292.386719 157.15625 292.457031 C 156.421875 292.53125 155.6875 292.566406 154.953125 292.566406 C 154.214844 292.566406 153.480469 292.53125 152.75 292.457031 C 152.015625 292.386719 151.289062 292.277344 150.566406 292.132812 C 149.84375 291.988281 149.128906 291.8125 148.425781 291.597656 C 147.722656 291.382812 147.027344 291.136719 146.347656 290.855469 C 145.667969 290.574219 145.003906 290.257812 144.351562 289.910156 C 143.703125 289.5625 143.074219 289.1875 142.460938 288.777344 C 141.847656 288.367188 141.257812 287.929688 140.6875 287.460938 C 140.121094 286.996094 139.574219 286.5 139.054688 285.980469 C 138.53125 285.460938 138.039062 284.914062 137.570312 284.347656 C 137.105469 283.777344 136.667969 283.1875 136.257812 282.574219 C 135.847656 281.960938 135.46875 281.332031 135.121094 280.679688 C 134.777344 280.03125 134.460938 279.367188 134.179688 278.6875 C 133.898438 278.007812 133.648438 277.3125 133.4375 276.609375 C 133.222656 275.90625 133.042969 275.191406 132.898438 274.46875 C 132.757812 273.746094 132.648438 273.019531 132.578125 272.289062 C 132.503906 271.554688 132.46875 270.820312 132.46875 270.082031 C 132.46875 269.347656 132.503906 268.613281 132.578125 267.878906 C 132.648438 267.148438 132.757812 266.417969 132.898438 265.699219 C 133.042969 264.976562 133.222656 264.261719 133.4375 263.558594 C 133.648438 262.851562 133.898438 262.160156 134.179688 261.480469 C 134.460938 260.800781 134.777344 260.136719 135.121094 259.484375 C 135.46875 258.835938 135.847656 258.207031 136.257812 257.59375 C 136.667969 256.980469 137.105469 256.390625 137.570312 255.820312 C 138.039062 255.253906 138.53125 254.707031 139.054688 254.1875 C 139.574219 253.664062 140.121094 253.171875 140.6875 252.703125 C 141.257812 252.238281 141.847656 251.800781 142.460938 251.390625 C 143.074219 250.980469 143.703125 250.601562 144.351562 250.257812 C 145.003906 249.910156 145.667969 249.59375 146.347656 249.3125 C 147.027344 249.03125 147.722656 248.785156 148.425781 248.570312 C 149.128906 248.355469 149.84375 248.175781 150.566406 248.035156 C 151.289062 247.890625 152.015625 247.78125 152.75 247.710938 C 153.480469 247.636719 154.214844 247.601562 154.953125 247.601562 C 155.6875 247.601562 156.421875 247.636719 157.15625 247.710938 C 157.890625 247.78125 158.617188 247.890625 159.339844 248.035156 C 160.0625 248.175781 160.773438 248.355469 161.480469 248.570312 C 162.183594 248.785156 162.875 249.03125 163.554688 249.3125 C 164.238281 249.59375 164.902344 249.910156 165.550781 250.257812 C 166.199219 250.601562 166.832031 250.980469 167.445312 251.390625 C 168.054688 251.800781 168.648438 252.238281 169.214844 252.703125 C 169.785156 253.171875 170.332031 253.664062 170.851562 254.1875 C 171.371094 254.707031 171.867188 255.253906 172.332031 255.820312 C 172.800781 256.390625 173.238281 256.980469 173.648438 257.59375 C 174.054688 258.207031 174.433594 258.835938 174.78125 259.484375 C 175.128906 260.136719 175.441406 260.800781 175.726562 261.480469 C 176.007812 262.160156 176.253906 262.851562 176.46875 263.558594 C 176.683594 264.261719 176.859375 264.976562 177.003906 265.699219 C 177.148438 266.417969 177.253906 267.148438 177.328125 267.878906 C 177.398438 268.613281 177.4375 269.347656 177.4375 270.082031 Z M 177.4375 270.082031 " fill-opacity="1" fill-rule="nonzero"/><path fill="#fcfcfc" d="M 163.960938 280.78125 L 151.320312 280.78125 C 151.484375 280.476562 151.707031 280.164062 152 279.847656 C 152.796875 278.96875 154.070312 277.804688 155.792969 276.390625 L 155.769531 276.367188 C 156.035156 276.1875 156.320312 275.9375 156.648438 275.65625 C 159.085938 273.597656 161.035156 271.574219 162.441406 269.640625 C 163.933594 267.589844 164.695312 265.222656 164.695312 262.609375 C 164.695312 260.023438 163.8125 257.921875 162.074219 256.359375 C 160.367188 254.832031 158.082031 254.054688 155.289062 254.054688 C 153.332031 254.054688 151.417969 254.542969 149.601562 255.503906 C 147.808594 256.457031 146.269531 257.796875 145.039062 259.484375 C 144.691406 259.960938 144.769531 260.613281 145.214844 260.996094 L 147.554688 262.992188 C 147.785156 263.191406 148.082031 263.292969 148.40625 263.253906 C 148.710938 263.21875 148.992188 263.058594 149.175781 262.808594 C 150.074219 261.601562 151.046875 260.675781 152.070312 260.058594 C 154.03125 258.871094 156.765625 258.875 158.171875 260.144531 C 158.855469 260.761719 159.1875 261.570312 159.1875 262.609375 C 159.1875 264.355469 158.75 265.84375 157.847656 267.164062 C 156.898438 268.570312 155.519531 270.039062 153.734375 271.554688 C 153.636719 271.636719 153.175781 272.019531 152.328125 272.707031 C 150.859375 273.917969 149.664062 274.976562 148.765625 275.855469 C 147.839844 276.769531 147.054688 277.816406 146.425781 278.964844 C 145.757812 280.1875 145.417969 281.535156 145.417969 282.960938 L 145.417969 284.789062 C 145.417969 285.40625 145.917969 285.910156 146.535156 285.910156 L 163.960938 285.910156 C 164.574219 285.910156 165.078125 285.40625 165.078125 284.789062 L 165.078125 281.898438 C 165.078125 281.285156 164.578125 280.78125 163.960938 280.78125 Z M 163.960938 280.78125 " fill-opacity="1" fill-rule="nonzero"/><path fill="#58595b" d="M 455.523438 249.039062 L 440.769531 259.882812 L 457.539062 267.234375 Z M 455.523438 249.039062 " fill-opacity="1" fill-rule="nonzero"/></svg>