<svg xmlns="http://www.w3.org/2000/svg" xmlns:xlink="http://www.w3.org/1999/xlink" width="794" zoomAndPan="magnify" viewBox="0 0 594.95996 842.24997" height="1123" preserveAspectRatio="xMidYMid meet" version="1.0"><defs><g/></defs><g fill="#000000" fill-opacity="1"><g transform="translate(0.24467, 608.138473)"><g><path d="M 76.609375 -149.71875 C 71.929688 -149.71875 69.59375 -152.0625 69.59375 -156.75 C 69.59375 -161.4375 71.929688 -163.78125 76.609375 -163.78125 C 81.296875 -163.78125 83.640625 -161.4375 83.640625 -156.75 C 83.640625 -152.0625 81.296875 -149.71875 76.609375 -149.71875 Z M 76.609375 -120.890625 C 71.929688 -120.890625 69.59375 -123.234375 69.59375 -127.921875 C 69.59375 -132.609375 71.929688 -134.953125 76.609375 -134.953125 C 81.296875 -134.953125 83.640625 -132.609375 83.640625 -127.921875 C 83.640625 -123.234375 81.296875 -120.890625 76.609375 -120.890625 Z M 76.609375 -92.078125 C 71.929688 -92.078125 69.59375 -94.421875 69.59375 -99.109375 C 69.59375 -103.796875 71.929688 -106.140625 76.609375 -106.140625 C 81.296875 -106.140625 83.640625 -103.796875 83.640625 -99.109375 C 83.640625 -94.421875 81.296875 -92.078125 76.609375 -92.078125 Z M 76.609375 -63.265625 C 71.929688 -63.265625 69.59375 -65.609375 69.59375 -70.296875 C 69.59375 -74.972656 71.929688 -77.3125 76.609375 -77.3125 C 81.296875 -77.3125 83.640625 -74.972656 83.640625 -70.296875 C 83.640625 -65.609375 81.296875 -63.265625 76.609375 -63.265625 Z M 76.609375 -373.234375 C 71.929688 -373.234375 69.59375 -375.578125 69.59375 -380.265625 C 69.59375 -384.953125 71.929688 -387.296875 76.609375 -387.296875 C 81.296875 -387.296875 83.640625 -384.953125 83.640625 -380.265625 C 83.640625 -375.578125 81.296875 -373.234375 76.609375 -373.234375 Z M 76.609375 -345.828125 C 71.929688 -345.828125 69.59375 -348.164062 69.59375 -352.84375 C 69.59375 -357.53125 71.929688 -359.875 76.609375 -359.875 C 81.296875 -359.875 83.640625 -357.53125 83.640625 -352.84375 C 83.640625 -348.164062 81.296875 -345.828125 76.609375 -345.828125 Z M 76.609375 -315.59375 C 71.929688 -315.59375 69.59375 -317.9375 69.59375 -322.625 C 69.59375 -327.3125 71.929688 -329.65625 76.609375 -329.65625 C 81.296875 -329.65625 83.640625 -327.3125 83.640625 -322.625 C 83.640625 -317.9375 81.296875 -315.59375 76.609375 -315.59375 Z M 76.609375 -259.359375 C 71.929688 -259.359375 69.59375 -261.703125 69.59375 -266.390625 C 69.59375 -271.078125 71.929688 -273.421875 76.609375 -273.421875 C 81.296875 -273.421875 83.640625 -271.078125 83.640625 -266.390625 C 83.640625 -261.703125 81.296875 -259.359375 76.609375 -259.359375 Z M 76.609375 -233.359375 C 71.929688 -233.359375 69.59375 -235.703125 69.59375 -240.390625 C 69.59375 -245.078125 71.929688 -247.421875 76.609375 -247.421875 C 81.296875 -247.421875 83.640625 -245.078125 83.640625 -240.390625 C 83.640625 -235.703125 81.296875 -233.359375 76.609375 -233.359375 Z M 76.609375 -205.25 C 71.929688 -205.25 69.59375 -207.585938 69.59375 -212.265625 C 69.59375 -216.953125 71.929688 -219.296875 76.609375 -219.296875 C 81.296875 -219.296875 83.640625 -216.953125 83.640625 -212.265625 C 83.640625 -207.585938 81.296875 -205.25 76.609375 -205.25 Z M 76.609375 -177.125 C 71.929688 -177.125 69.59375 -179.46875 69.59375 -184.15625 C 69.59375 -188.84375 71.929688 -191.1875 76.609375 -191.1875 C 81.296875 -191.1875 83.640625 -188.84375 83.640625 -184.15625 C 83.640625 -179.46875 81.296875 -177.125 76.609375 -177.125 Z M 76.609375 -481.484375 C 71.929688 -481.484375 69.59375 -483.828125 69.59375 -488.515625 C 69.59375 -493.191406 71.929688 -495.53125 76.609375 -495.53125 C 81.296875 -495.53125 83.640625 -493.191406 83.640625 -488.515625 C 83.640625 -483.828125 81.296875 -481.484375 76.609375 -481.484375 Z M 76.609375 -453.359375 C 71.929688 -453.359375 69.59375 -455.703125 69.59375 -460.390625 C 69.59375 -465.078125 71.929688 -467.421875 76.609375 -467.421875 C 81.296875 -467.421875 83.640625 -465.078125 83.640625 -460.390625 C 83.640625 -455.703125 81.296875 -453.359375 76.609375 -453.359375 Z M 76.609375 -426.65625 C 71.929688 -426.65625 69.59375 -429 69.59375 -433.6875 C 69.59375 -438.375 71.929688 -440.71875 76.609375 -440.71875 C 81.296875 -440.71875 83.640625 -438.375 83.640625 -433.6875 C 83.640625 -429 81.296875 -426.65625 76.609375 -426.65625 Z M 76.609375 -401.34375 C 71.929688 -401.34375 69.59375 -403.6875 69.59375 -408.375 C 69.59375 -413.0625 71.929688 -415.40625 76.609375 -415.40625 C 81.296875 -415.40625 83.640625 -413.0625 83.640625 -408.375 C 83.640625 -403.6875 81.296875 -401.34375 76.609375 -401.34375 Z M 76.609375 -287.484375 C 71.929688 -287.484375 69.59375 -289.828125 69.59375 -294.515625 C 69.59375 -299.203125 71.929688 -301.546875 76.609375 -301.546875 C 81.296875 -301.546875 83.640625 -299.203125 83.640625 -294.515625 C 83.640625 -289.828125 81.296875 -287.484375 76.609375 -287.484375 Z M 76.609375 -35.140625 C 71.929688 -35.140625 69.59375 -37.484375 69.59375 -42.171875 C 69.59375 -46.859375 71.929688 -49.203125 76.609375 -49.203125 C 81.296875 -49.203125 83.640625 -46.859375 83.640625 -42.171875 C 83.640625 -37.484375 81.296875 -35.140625 76.609375 -35.140625 Z M 76.609375 -7.03125 C 71.929688 -7.03125 69.59375 -9.375 69.59375 -14.0625 C 69.59375 -18.75 71.929688 -21.09375 76.609375 -21.09375 C 81.296875 -21.09375 83.640625 -18.75 83.640625 -14.0625 C 83.640625 -9.375 81.296875 -7.03125 76.609375 -7.03125 Z M 109.65625 -436.5 C 104.96875 -436.5 102.625 -438.84375 102.625 -443.53125 C 102.625 -448.207031 104.96875 -450.546875 109.65625 -450.546875 C 114.34375 -450.546875 116.6875 -448.207031 116.6875 -443.53125 C 116.6875 -438.84375 114.34375 -436.5 109.65625 -436.5 Z M 123.703125 -413.296875 C 119.023438 -413.296875 116.6875 -415.640625 116.6875 -420.328125 C 116.6875 -425.015625 119.023438 -427.359375 123.703125 -427.359375 C 128.390625 -427.359375 130.734375 -425.015625 130.734375 -420.328125 C 130.734375 -415.640625 128.390625 -413.296875 123.703125 -413.296875 Z M 138.46875 -389.40625 C 133.78125 -389.40625 131.4375 -391.75 131.4375 -396.4375 C 131.4375 -401.113281 133.78125 -403.453125 138.46875 -403.453125 C 143.15625 -403.453125 145.5 -401.113281 145.5 -396.4375 C 145.5 -391.75 143.15625 -389.40625 138.46875 -389.40625 Z M 94.890625 -460.390625 C 90.203125 -460.390625 87.859375 -462.734375 87.859375 -467.421875 C 87.859375 -472.109375 90.203125 -474.453125 94.890625 -474.453125 C 99.578125 -474.453125 101.921875 -472.109375 101.921875 -467.421875 C 101.921875 -462.734375 99.578125 -460.390625 94.890625 -460.390625 Z M 167.28125 -341.609375 C 162.601562 -341.609375 160.265625 -343.953125 160.265625 -348.640625 C 160.265625 -353.316406 162.601562 -355.65625 167.28125 -355.65625 C 171.96875 -355.65625 174.3125 -353.316406 174.3125 -348.640625 C 174.3125 -343.953125 171.96875 -341.609375 167.28125 -341.609375 Z M 181.34375 -318.40625 C 176.65625 -318.40625 174.3125 -320.75 174.3125 -325.4375 C 174.3125 -330.125 176.65625 -332.46875 181.34375 -332.46875 C 186.03125 -332.46875 188.375 -330.125 188.375 -325.4375 C 188.375 -320.75 186.03125 -318.40625 181.34375 -318.40625 Z M 196.109375 -294.515625 C 191.421875 -294.515625 189.078125 -296.859375 189.078125 -301.546875 C 189.078125 -306.222656 191.421875 -308.5625 196.109375 -308.5625 C 200.796875 -308.5625 203.140625 -306.222656 203.140625 -301.546875 C 203.140625 -296.859375 200.796875 -294.515625 196.109375 -294.515625 Z M 210.171875 -270.609375 C 205.484375 -270.609375 203.140625 -272.953125 203.140625 -277.640625 C 203.140625 -282.328125 205.484375 -284.671875 210.171875 -284.671875 C 214.847656 -284.671875 217.1875 -282.328125 217.1875 -277.640625 C 217.1875 -272.953125 214.847656 -270.609375 210.171875 -270.609375 Z M 152.53125 -365.5 C 147.84375 -365.5 145.5 -367.84375 145.5 -372.53125 C 145.5 -377.21875 147.84375 -379.5625 152.53125 -379.5625 C 157.21875 -379.5625 159.5625 -377.21875 159.5625 -372.53125 C 159.5625 -367.84375 157.21875 -365.5 152.53125 -365.5 Z M 224.921875 -246.71875 C 220.234375 -246.71875 217.890625 -249.0625 217.890625 -253.75 C 217.890625 -258.425781 220.234375 -260.765625 224.921875 -260.765625 C 229.609375 -260.765625 231.953125 -258.425781 231.953125 -253.75 C 231.953125 -249.0625 229.609375 -246.71875 224.921875 -246.71875 Z M 238.984375 -223.515625 C 234.296875 -223.515625 231.953125 -225.859375 231.953125 -230.546875 C 231.953125 -235.234375 234.296875 -237.578125 238.984375 -237.578125 C 243.671875 -237.578125 246.015625 -235.234375 246.015625 -230.546875 C 246.015625 -225.859375 243.671875 -223.515625 238.984375 -223.515625 Z M 253.75 -199.625 C 249.0625 -199.625 246.71875 -201.96875 246.71875 -206.65625 C 246.71875 -211.332031 249.0625 -213.671875 253.75 -213.671875 C 258.425781 -213.671875 260.765625 -211.332031 260.765625 -206.65625 C 260.765625 -201.96875 258.425781 -199.625 253.75 -199.625 Z M 210.171875 -270.609375 C 205.484375 -270.609375 203.140625 -272.953125 203.140625 -277.640625 C 203.140625 -282.328125 205.484375 -284.671875 210.171875 -284.671875 C 214.847656 -284.671875 217.1875 -282.328125 217.1875 -277.640625 C 217.1875 -272.953125 214.847656 -270.609375 210.171875 -270.609375 Z M 282.5625 -151.828125 C 277.875 -151.828125 275.53125 -154.171875 275.53125 -158.859375 C 275.53125 -163.535156 277.875 -165.875 282.5625 -165.875 C 287.25 -165.875 289.59375 -163.535156 289.59375 -158.859375 C 289.59375 -154.171875 287.25 -151.828125 282.5625 -151.828125 Z M 296.625 -128.625 C 291.9375 -128.625 289.59375 -130.96875 289.59375 -135.65625 C 289.59375 -140.34375 291.9375 -142.6875 296.625 -142.6875 C 301.3125 -142.6875 303.65625 -140.34375 303.65625 -135.65625 C 303.65625 -130.96875 301.3125 -128.625 296.625 -128.625 Z M 311.375 -104.734375 C 306.695312 -104.734375 304.359375 -107.078125 304.359375 -111.765625 C 304.359375 -116.441406 306.695312 -118.78125 311.375 -118.78125 C 316.0625 -118.78125 318.40625 -116.441406 318.40625 -111.765625 C 318.40625 -107.078125 316.0625 -104.734375 311.375 -104.734375 Z M 267.796875 -175.71875 C 263.109375 -175.71875 260.765625 -178.0625 260.765625 -182.75 C 260.765625 -187.4375 263.109375 -189.78125 267.796875 -189.78125 C 272.484375 -189.78125 274.828125 -187.4375 274.828125 -182.75 C 274.828125 -178.0625 272.484375 -175.71875 267.796875 -175.71875 Z M 546.140625 -149.71875 C 541.453125 -149.71875 539.109375 -152.0625 539.109375 -156.75 C 539.109375 -161.4375 541.453125 -163.78125 546.140625 -163.78125 C 550.828125 -163.78125 553.171875 -161.4375 553.171875 -156.75 C 553.171875 -152.0625 550.828125 -149.71875 546.140625 -149.71875 Z M 546.140625 -120.890625 C 541.453125 -120.890625 539.109375 -123.234375 539.109375 -127.921875 C 539.109375 -132.609375 541.453125 -134.953125 546.140625 -134.953125 C 550.828125 -134.953125 553.171875 -132.609375 553.171875 -127.921875 C 553.171875 -123.234375 550.828125 -120.890625 546.140625 -120.890625 Z M 546.140625 -92.078125 C 541.453125 -92.078125 539.109375 -94.421875 539.109375 -99.109375 C 539.109375 -103.796875 541.453125 -106.140625 546.140625 -106.140625 C 550.828125 -106.140625 553.171875 -103.796875 553.171875 -99.109375 C 553.171875 -94.421875 550.828125 -92.078125 546.140625 -92.078125 Z M 546.140625 -63.265625 C 541.453125 -63.265625 539.109375 -65.609375 539.109375 -70.296875 C 539.109375 -74.972656 541.453125 -77.3125 546.140625 -77.3125 C 550.828125 -77.3125 553.171875 -74.972656 553.171875 -70.296875 C 553.171875 -65.609375 550.828125 -63.265625 546.140625 -63.265625 Z M 546.140625 -373.234375 C 541.453125 -373.234375 539.109375 -375.578125 539.109375 -380.265625 C 539.109375 -384.953125 541.453125 -387.296875 546.140625 -387.296875 C 550.828125 -387.296875 553.171875 -384.953125 553.171875 -380.265625 C 553.171875 -375.578125 550.828125 -373.234375 546.140625 -373.234375 Z M 546.140625 -345.828125 C 541.453125 -345.828125 539.109375 -348.164062 539.109375 -352.84375 C 539.109375 -357.53125 541.453125 -359.875 546.140625 -359.875 C 550.828125 -359.875 553.171875 -357.53125 553.171875 -352.84375 C 553.171875 -348.164062 550.828125 -345.828125 546.140625 -345.828125 Z M 546.140625 -315.59375 C 541.453125 -315.59375 539.109375 -317.9375 539.109375 -322.625 C 539.109375 -327.3125 541.453125 -329.65625 546.140625 -329.65625 C 550.828125 -329.65625 553.171875 -327.3125 553.171875 -322.625 C 553.171875 -317.9375 550.828125 -315.59375 546.140625 -315.59375 Z M 546.140625 -259.359375 C 541.453125 -259.359375 539.109375 -261.703125 539.109375 -266.390625 C 539.109375 -271.078125 541.453125 -273.421875 546.140625 -273.421875 C 550.828125 -273.421875 553.171875 -271.078125 553.171875 -266.390625 C 553.171875 -261.703125 550.828125 -259.359375 546.140625 -259.359375 Z M 546.140625 -233.359375 C 541.453125 -233.359375 539.109375 -235.703125 539.109375 -240.390625 C 539.109375 -245.078125 541.453125 -247.421875 546.140625 -247.421875 C 550.828125 -247.421875 553.171875 -245.078125 553.171875 -240.390625 C 553.171875 -235.703125 550.828125 -233.359375 546.140625 -233.359375 Z M 546.140625 -205.25 C 541.453125 -205.25 539.109375 -207.585938 539.109375 -212.265625 C 539.109375 -216.953125 541.453125 -219.296875 546.140625 -219.296875 C 550.828125 -219.296875 553.171875 -216.953125 553.171875 -212.265625 C 553.171875 -207.585938 550.828125 -205.25 546.140625 -205.25 Z M 546.140625 -177.125 C 541.453125 -177.125 539.109375 -179.46875 539.109375 -184.15625 C 539.109375 -188.84375 541.453125 -191.1875 546.140625 -191.1875 C 550.828125 -191.1875 553.171875 -188.84375 553.171875 -184.15625 C 553.171875 -179.46875 550.828125 -177.125 546.140625 -177.125 Z M 546.140625 -481.484375 C 541.453125 -481.484375 539.109375 -483.828125 539.109375 -488.515625 C 539.109375 -493.191406 541.453125 -495.53125 546.140625 -495.53125 C 550.828125 -495.53125 553.171875 -493.191406 553.171875 -488.515625 C 553.171875 -483.828125 550.828125 -481.484375 546.140625 -481.484375 Z M 546.140625 -453.359375 C 541.453125 -453.359375 539.109375 -455.703125 539.109375 -460.390625 C 539.109375 -465.078125 541.453125 -467.421875 546.140625 -467.421875 C 550.828125 -467.421875 553.171875 -465.078125 553.171875 -460.390625 C 553.171875 -455.703125 550.828125 -453.359375 546.140625 -453.359375 Z M 546.140625 -426.65625 C 541.453125 -426.65625 539.109375 -429 539.109375 -433.6875 C 539.109375 -438.375 541.453125 -440.71875 546.140625 -440.71875 C 550.828125 -440.71875 553.171875 -438.375 553.171875 -433.6875 C 553.171875 -429 550.828125 -426.65625 546.140625 -426.65625 Z M 546.140625 -401.34375 C 541.453125 -401.34375 539.109375 -403.6875 539.109375 -408.375 C 539.109375 -413.0625 541.453125 -415.40625 546.140625 -415.40625 C 550.828125 -415.40625 553.171875 -413.0625 553.171875 -408.375 C 553.171875 -403.6875 550.828125 -401.34375 546.140625 -401.34375 Z M 546.140625 -287.484375 C 541.453125 -287.484375 539.109375 -289.828125 539.109375 -294.515625 C 539.109375 -299.203125 541.453125 -301.546875 546.140625 -301.546875 C 550.828125 -301.546875 553.171875 -299.203125 553.171875 -294.515625 C 553.171875 -289.828125 550.828125 -287.484375 546.140625 -287.484375 Z M 546.140625 -35.140625 C 541.453125 -35.140625 539.109375 -37.484375 539.109375 -42.171875 C 539.109375 -46.859375 541.453125 -49.203125 546.140625 -49.203125 C 550.828125 -49.203125 553.171875 -46.859375 553.171875 -42.171875 C 553.171875 -37.484375 550.828125 -35.140625 546.140625 -35.140625 Z M 546.140625 -7.03125 C 541.453125 -7.03125 539.109375 -9.375 539.109375 -14.0625 C 539.109375 -18.75 541.453125 -21.09375 546.140625 -21.09375 C 550.828125 -21.09375 553.171875 -18.75 553.171875 -14.0625 C 553.171875 -9.375 550.828125 -7.03125 546.140625 -7.03125 Z M 513.109375 -436.5 C 508.421875 -436.5 506.078125 -438.84375 506.078125 -443.53125 C 506.078125 -448.207031 508.421875 -450.546875 513.109375 -450.546875 C 517.796875 -450.546875 520.140625 -448.207031 520.140625 -443.53125 C 520.140625 -438.84375 517.796875 -436.5 513.109375 -436.5 Z M 499.046875 -413.296875 C 494.367188 -413.296875 492.03125 -415.640625 492.03125 -420.328125 C 492.03125 -425.015625 494.367188 -427.359375 499.046875 -427.359375 C 503.734375 -427.359375 506.078125 -425.015625 506.078125 -420.328125 C 506.078125 -415.640625 503.734375 -413.296875 499.046875 -413.296875 Z M 484.296875 -389.40625 C 479.609375 -389.40625 477.265625 -391.75 477.265625 -396.4375 C 477.265625 -401.113281 479.609375 -403.453125 484.296875 -403.453125 C 488.984375 -403.453125 491.328125 -401.113281 491.328125 -396.4375 C 491.328125 -391.75 488.984375 -389.40625 484.296875 -389.40625 Z M 527.875 -460.390625 C 523.1875 -460.390625 520.84375 -462.734375 520.84375 -467.421875 C 520.84375 -472.109375 523.1875 -474.453125 527.875 -474.453125 C 532.5625 -474.453125 534.90625 -472.109375 534.90625 -467.421875 C 534.90625 -462.734375 532.5625 -460.390625 527.875 -460.390625 Z M 455.46875 -341.609375 C 450.78125 -341.609375 448.4375 -343.953125 448.4375 -348.640625 C 448.4375 -353.316406 450.78125 -355.65625 455.46875 -355.65625 C 460.15625 -355.65625 462.5 -353.316406 462.5 -348.640625 C 462.5 -343.953125 460.15625 -341.609375 455.46875 -341.609375 Z M 441.421875 -318.40625 C 436.734375 -318.40625 434.390625 -320.75 434.390625 -325.4375 C 434.390625 -330.125 436.734375 -332.46875 441.421875 -332.46875 C 446.097656 -332.46875 448.4375 -330.125 448.4375 -325.4375 C 448.4375 -320.75 446.097656 -318.40625 441.421875 -318.40625 Z M 426.65625 -294.515625 C 421.96875 -294.515625 419.625 -296.859375 419.625 -301.546875 C 419.625 -306.222656 421.96875 -308.5625 426.65625 -308.5625 C 431.34375 -308.5625 433.6875 -306.222656 433.6875 -301.546875 C 433.6875 -296.859375 431.34375 -294.515625 426.65625 -294.515625 Z M 412.59375 -270.609375 C 407.90625 -270.609375 405.5625 -272.953125 405.5625 -277.640625 C 405.5625 -282.328125 407.90625 -284.671875 412.59375 -284.671875 C 417.28125 -284.671875 419.625 -282.328125 419.625 -277.640625 C 419.625 -272.953125 417.28125 -270.609375 412.59375 -270.609375 Z M 470.234375 -365.5 C 465.546875 -365.5 463.203125 -367.84375 463.203125 -372.53125 C 463.203125 -377.21875 465.546875 -379.5625 470.234375 -379.5625 C 474.921875 -379.5625 477.265625 -377.21875 477.265625 -372.53125 C 477.265625 -367.84375 474.921875 -365.5 470.234375 -365.5 Z M 397.84375 -246.71875 C 393.15625 -246.71875 390.8125 -249.0625 390.8125 -253.75 C 390.8125 -258.425781 393.15625 -260.765625 397.84375 -260.765625 C 402.519531 -260.765625 404.859375 -258.425781 404.859375 -253.75 C 404.859375 -249.0625 402.519531 -246.71875 397.84375 -246.71875 Z M 383.78125 -223.515625 C 379.09375 -223.515625 376.75 -225.859375 376.75 -230.546875 C 376.75 -235.234375 379.09375 -237.578125 383.78125 -237.578125 C 388.46875 -237.578125 390.8125 -235.234375 390.8125 -230.546875 C 390.8125 -225.859375 388.46875 -223.515625 383.78125 -223.515625 Z M 369.015625 -199.625 C 364.328125 -199.625 361.984375 -201.96875 361.984375 -206.65625 C 361.984375 -211.332031 364.328125 -213.671875 369.015625 -213.671875 C 373.703125 -213.671875 376.046875 -211.332031 376.046875 -206.65625 C 376.046875 -201.96875 373.703125 -199.625 369.015625 -199.625 Z M 412.59375 -270.609375 C 407.90625 -270.609375 405.5625 -272.953125 405.5625 -277.640625 C 405.5625 -282.328125 407.90625 -284.671875 412.59375 -284.671875 C 417.28125 -284.671875 419.625 -282.328125 419.625 -277.640625 C 419.625 -272.953125 417.28125 -270.609375 412.59375 -270.609375 Z M 340.203125 -151.828125 C 335.515625 -151.828125 333.171875 -154.171875 333.171875 -158.859375 C 333.171875 -163.535156 335.515625 -165.875 340.203125 -165.875 C 344.890625 -165.875 347.234375 -163.535156 347.234375 -158.859375 C 347.234375 -154.171875 344.890625 -151.828125 340.203125 -151.828125 Z M 326.140625 -128.625 C 321.453125 -128.625 319.109375 -130.96875 319.109375 -135.65625 C 319.109375 -140.34375 321.453125 -142.6875 326.140625 -142.6875 C 330.828125 -142.6875 333.171875 -140.34375 333.171875 -135.65625 C 333.171875 -130.96875 330.828125 -128.625 326.140625 -128.625 Z M 354.953125 -175.71875 C 350.273438 -175.71875 347.9375 -178.0625 347.9375 -182.75 C 347.9375 -187.4375 350.273438 -189.78125 354.953125 -189.78125 C 359.640625 -189.78125 361.984375 -187.4375 361.984375 -182.75 C 361.984375 -178.0625 359.640625 -175.71875 354.953125 -175.71875 Z M 354.953125 -175.71875 "/></g></g></g><path stroke-linecap="butt" transform="matrix(0, -0.749333, 0.749333, 0, 39.906421, 549.866413)" fill="none" stroke-linejoin="miter" d="M -0.00103379 2.001553 L 507.518243 2.001553 " stroke="#000000" stroke-width="4" stroke-opacity="1" stroke-miterlimit="4"/><path stroke-linecap="round" transform="matrix(0, -0.749333, 0.749333, 0, 39.906421, 549.866413)" fill="none" stroke-linejoin="round" d="M 499.516332 -3.998578 L 507.518243 2.001553 L 499.516332 8.001683 " stroke="#000000" stroke-width="4" stroke-opacity="1" stroke-miterlimit="4"/><path stroke-linecap="butt" transform="matrix(0.39753, 0.635192, -0.635192, 0.39753, 143.735748, 145.2092)" fill="none" stroke-linejoin="miter" d="M -0.000767815 2.000337 L 388.285796 2.000486 " stroke="#000000" stroke-width="4" stroke-opacity="1" stroke-miterlimit="4"/><path stroke-linecap="round" transform="matrix(0.39753, 0.635192, -0.635192, 0.39753, 143.735748, 145.2092)" fill="none" stroke-linejoin="round" d="M 380.289261 -4.000334 L 388.285796 2.000486 L 380.286418 8.002124 " stroke="#000000" stroke-width="4" stroke-opacity="1" stroke-miterlimit="4"/><path stroke-linecap="butt" transform="matrix(0.39497, -0.636787, 0.636787, 0.39497, 332.88261, 393.11702)" fill="none" stroke-linejoin="miter" d="M 0.000850668 1.999575 L 417.601588 2.002085 " stroke="#000000" stroke-width="4" stroke-opacity="1" stroke-miterlimit="4"/><path stroke-linecap="round" transform="matrix(0.39497, -0.636787, 0.636787, 0.39497, 332.88261, 393.11702)" fill="none" stroke-linejoin="round" d="M 409.603666 -3.999178 L 417.601588 2.002085 L 409.604629 7.998932 " stroke="#000000" stroke-width="4" stroke-opacity="1" stroke-miterlimit="4"/><path stroke-linecap="butt" transform="matrix(0, 0.749333, -0.749333, 0, 576.626694, 169.468962)" fill="none" stroke-linejoin="miter" d="M -0.00028283 1.998828 L 507.513781 1.998828 " stroke="#000000" stroke-width="4" stroke-opacity="1" stroke-miterlimit="4"/><path stroke-linecap="round" transform="matrix(0, 0.749333, -0.749333, 0, 576.626694, 169.468962)" fill="none" stroke-linejoin="round" d="M 499.517083 -4.001302 L 507.513781 1.998828 L 499.517083 7.998959 " stroke="#000000" stroke-width="4" stroke-opacity="1" stroke-miterlimit="4"/></svg>