<svg xmlns="http://www.w3.org/2000/svg" xmlns:xlink="http://www.w3.org/1999/xlink" width="794" zoomAndPan="magnify" viewBox="0 0 594.95996 842.24997" height="1123" preserveAspectRatio="xMidYMid meet" version="1.0"><defs><clipPath id="327260b3df"><path d="M 67.519531 122.226562 L 527.609375 122.226562 L 527.609375 718.695312 L 67.519531 718.695312 Z M 67.519531 122.226562 " clip-rule="nonzero"/></clipPath></defs><path fill="#ffffff" d="M 449.207031 713.234375 C 424.039062 713.234375 400.246094 699.902344 387.105469 678.4375 L 197.804688 369.148438 L 197.804688 650.890625 C 197.804688 685.265625 169.828125 713.234375 135.445312 713.234375 C 101.0625 713.234375 73.089844 685.265625 73.089844 650.890625 L 73.089844 200.484375 C 73.089844 160.359375 105.734375 127.710938 145.867188 127.710938 C 171.074219 127.710938 194.882812 141.078125 208.011719 162.59375 L 397.308594 472.957031 L 397.308594 190.058594 C 397.308594 155.679688 425.277344 127.710938 459.660156 127.710938 C 494.042969 127.710938 522.011719 155.679688 522.011719 190.058594 L 522.011719 640.4375 C 522.011719 680.578125 489.351562 713.234375 449.207031 713.234375 Z M 449.207031 713.234375 " fill-opacity="1" fill-rule="nonzero"/><g clip-path="url(#327260b3df)"><path fill="#000000" d="M 459.660156 127.710938 C 494.042969 127.710938 522.011719 155.679688 522.011719 190.058594 L 522.011719 640.4375 C 522.011719 680.578125 489.351562 713.234375 449.207031 713.234375 C 424.039062 713.234375 400.246094 699.902344 387.105469 678.4375 L 197.804688 369.148438 L 197.804688 650.890625 C 197.804688 685.265625 169.828125 713.234375 135.445312 713.234375 C 101.0625 713.234375 73.089844 685.265625 73.089844 650.890625 L 73.089844 200.484375 C 73.089844 160.359375 105.734375 127.710938 145.867188 127.710938 C 171.074219 127.710938 194.882812 141.078125 208.011719 162.59375 L 397.308594 472.957031 L 397.308594 190.058594 C 397.308594 155.679688 425.277344 127.710938 459.660156 127.710938 M 459.660156 122.226562 C 422.253906 122.226562 391.820312 152.65625 391.820312 190.058594 L 391.820312 453.425781 L 212.695312 159.734375 C 198.578125 136.597656 172.972656 122.226562 145.867188 122.226562 C 102.710938 122.226562 67.601562 157.332031 67.601562 200.484375 L 67.601562 650.890625 C 67.601562 688.292969 98.035156 718.722656 135.445312 718.722656 C 172.855469 718.722656 203.292969 688.292969 203.292969 650.890625 L 203.292969 388.625 L 382.425781 681.300781 C 396.554688 704.382812 422.144531 718.722656 449.207031 718.722656 C 492.378906 718.722656 527.5 683.601562 527.5 640.4375 L 527.5 190.058594 C 527.5 152.65625 497.066406 122.226562 459.660156 122.226562 Z M 459.660156 122.226562 " fill-opacity="1" fill-rule="nonzero"/></g><path fill="#58595b" d="M 419.964844 624.253906 L 414.253906 614.886719 L 416.59375 613.457031 L 422.308594 622.824219 Z M 408.539062 605.519531 L 402.824219 596.152344 L 405.167969 594.722656 L 410.878906 604.089844 Z M 397.113281 586.78125 L 391.398438 577.414062 L 393.738281 575.984375 L 399.453125 585.355469 Z M 385.683594 568.046875 L 379.972656 558.679688 L 382.3125 557.25 L 388.027344 566.621094 Z M 374.257812 549.3125 L 368.542969 539.945312 L 370.886719 538.515625 L 376.601562 547.882812 Z M 362.832031 530.578125 L 357.117188 521.210938 L 359.460938 519.78125 L 365.171875 529.148438 Z M 351.40625 511.84375 L 345.691406 502.472656 L 348.03125 501.046875 L 353.746094 510.414062 Z M 339.976562 493.105469 L 334.261719 483.738281 L 336.605469 482.3125 L 342.320312 491.679688 Z M 328.550781 474.371094 L 322.835938 465.003906 L 325.179688 463.574219 L 330.890625 472.941406 Z M 317.125 455.636719 L 311.410156 446.269531 L 313.753906 444.839844 L 319.464844 454.207031 Z M 305.695312 436.902344 L 299.984375 427.535156 L 302.324219 426.105469 L 308.039062 435.472656 Z M 294.269531 418.167969 L 288.554688 408.800781 L 290.898438 407.371094 L 296.613281 416.738281 Z M 282.84375 399.433594 L 277.128906 390.0625 L 279.472656 388.636719 L 285.183594 398.003906 Z M 271.417969 380.695312 L 265.703125 371.328125 L 268.042969 369.902344 L 273.757812 379.269531 Z M 259.988281 361.960938 L 254.273438 352.59375 L 256.617188 351.164062 L 262.332031 360.53125 Z M 248.5625 343.226562 L 242.847656 333.859375 L 245.191406 332.429688 L 250.90625 341.796875 Z M 237.136719 324.492188 L 231.421875 315.125 L 233.765625 313.695312 L 239.476562 323.0625 Z M 225.707031 305.757812 L 219.996094 296.390625 L 222.335938 294.960938 L 228.050781 304.328125 Z M 214.28125 287.019531 L 208.566406 277.652344 L 210.910156 276.222656 L 216.625 285.59375 Z M 202.855469 268.285156 L 197.140625 258.917969 L 199.484375 257.492188 L 205.199219 266.859375 Z M 191.429688 249.550781 L 185.714844 240.183594 L 188.054688 238.753906 L 193.769531 248.121094 Z M 180 230.816406 L 177.976562 227.492188 L 180.316406 226.066406 L 182.34375 229.386719 Z M 180 230.816406 " fill-opacity="1" fill-rule="nonzero"/><path fill="#58595b" d="M 137.820312 670.230469 L 135.078125 670.230469 L 135.078125 666.179688 L 137.820312 666.179688 Z M 137.820312 655.207031 L 135.078125 655.207031 L 135.078125 644.234375 L 137.820312 644.234375 Z M 137.820312 633.261719 L 135.078125 633.261719 L 135.078125 622.289062 L 137.820312 622.289062 Z M 137.820312 611.320312 L 135.078125 611.320312 L 135.078125 600.347656 L 137.820312 600.347656 Z M 137.820312 589.375 L 135.078125 589.375 L 135.078125 578.402344 L 137.820312 578.402344 Z M 137.820312 567.429688 L 135.078125 567.429688 L 135.078125 556.457031 L 137.820312 556.457031 Z M 137.820312 545.488281 L 135.078125 545.488281 L 135.078125 534.515625 L 137.820312 534.515625 Z M 137.820312 523.542969 L 135.078125 523.542969 L 135.078125 512.570312 L 137.820312 512.570312 Z M 137.820312 501.597656 L 135.078125 501.597656 L 135.078125 490.625 L 137.820312 490.625 Z M 137.820312 479.652344 L 135.078125 479.652344 L 135.078125 468.683594 L 137.820312 468.683594 Z M 137.820312 457.710938 L 135.078125 457.710938 L 135.078125 446.738281 L 137.820312 446.738281 Z M 137.820312 435.765625 L 135.078125 435.765625 L 135.078125 424.792969 L 137.820312 424.792969 Z M 137.820312 413.820312 L 135.078125 413.820312 L 135.078125 402.847656 L 137.820312 402.847656 Z M 137.820312 391.878906 L 135.078125 391.878906 L 135.078125 380.90625 L 137.820312 380.90625 Z M 137.820312 369.933594 L 135.078125 369.933594 L 135.078125 358.960938 L 137.820312 358.960938 Z M 137.820312 347.988281 L 135.078125 347.988281 L 135.078125 337.015625 L 137.820312 337.015625 Z M 137.820312 326.046875 L 135.078125 326.046875 L 135.078125 315.074219 L 137.820312 315.074219 Z M 137.820312 304.101562 L 135.078125 304.101562 L 135.078125 293.128906 L 137.820312 293.128906 Z M 137.820312 282.15625 L 135.078125 282.15625 L 135.078125 271.183594 L 137.820312 271.183594 Z M 137.820312 260.210938 L 135.078125 260.210938 L 135.078125 249.242188 L 137.820312 249.242188 Z M 137.820312 238.269531 L 135.078125 238.269531 L 135.078125 227.296875 L 137.820312 227.296875 Z M 137.820312 216.324219 L 135.078125 216.324219 L 135.078125 205.351562 L 137.820312 205.351562 Z M 137.820312 216.324219 " fill-opacity="1" fill-rule="nonzero"/><path fill="#58595b" d="M 136.449219 683.195312 L 147.679688 663.75 L 125.222656 663.75 Z M 136.449219 683.195312 " fill-opacity="1" fill-rule="nonzero"/><path fill="#58595b" d="M 428.679688 636.019531 L 428.679688 613.566406 L 409.234375 624.792969 Z M 428.679688 636.019531 " fill-opacity="1" fill-rule="nonzero"/><path fill="#414042" d="M 162.054688 189.777344 C 162.054688 190.683594 162.007812 191.582031 161.921875 192.480469 C 161.832031 193.378906 161.699219 194.273438 161.523438 195.160156 C 161.347656 196.042969 161.128906 196.917969 160.867188 197.785156 C 160.605469 198.648438 160.300781 199.496094 159.953125 200.332031 C 159.609375 201.164062 159.222656 201.980469 158.796875 202.777344 C 158.371094 203.574219 157.90625 204.347656 157.40625 205.097656 C 156.902344 205.851562 156.367188 206.574219 155.792969 207.273438 C 155.21875 207.972656 154.613281 208.640625 153.976562 209.277344 C 153.335938 209.917969 152.667969 210.523438 151.96875 211.09375 C 151.273438 211.667969 150.546875 212.207031 149.796875 212.707031 C 149.046875 213.207031 148.273438 213.671875 147.476562 214.097656 C 146.679688 214.523438 145.863281 214.910156 145.027344 215.253906 C 144.195312 215.601562 143.34375 215.90625 142.480469 216.167969 C 141.617188 216.429688 140.742188 216.648438 139.855469 216.824219 C 138.96875 217 138.078125 217.132812 137.175781 217.222656 C 136.277344 217.308594 135.378906 217.355469 134.472656 217.355469 C 133.570312 217.355469 132.671875 217.308594 131.769531 217.222656 C 130.871094 217.132812 129.980469 217 129.09375 216.824219 C 128.207031 216.648438 127.332031 216.429688 126.46875 216.167969 C 125.605469 215.90625 124.753906 215.601562 123.921875 215.253906 C 123.085938 214.910156 122.269531 214.523438 121.472656 214.097656 C 120.675781 213.671875 119.902344 213.207031 119.152344 212.707031 C 118.402344 212.207031 117.675781 211.667969 116.976562 211.09375 C 116.28125 210.523438 115.613281 209.917969 114.972656 209.277344 C 114.335938 208.640625 113.726562 207.972656 113.15625 207.273438 C 112.582031 206.574219 112.046875 205.851562 111.542969 205.097656 C 111.042969 204.347656 110.578125 203.574219 110.152344 202.777344 C 109.726562 201.980469 109.339844 201.164062 108.996094 200.332031 C 108.648438 199.496094 108.34375 198.648438 108.082031 197.785156 C 107.820312 196.917969 107.601562 196.042969 107.425781 195.160156 C 107.25 194.273438 107.117188 193.378906 107.027344 192.480469 C 106.941406 191.582031 106.894531 190.683594 106.894531 189.777344 C 106.894531 188.875 106.941406 187.976562 107.027344 187.074219 C 107.117188 186.175781 107.25 185.285156 107.425781 184.398438 C 107.601562 183.511719 107.820312 182.636719 108.082031 181.773438 C 108.34375 180.910156 108.648438 180.0625 108.996094 179.226562 C 109.339844 178.390625 109.726562 177.578125 110.152344 176.78125 C 110.578125 175.984375 111.042969 175.210938 111.542969 174.457031 C 112.046875 173.707031 112.582031 172.984375 113.15625 172.285156 C 113.726562 171.585938 114.335938 170.917969 114.972656 170.28125 C 115.613281 169.640625 116.28125 169.035156 116.976562 168.460938 C 117.675781 167.890625 118.402344 167.351562 119.152344 166.851562 C 119.902344 166.347656 120.675781 165.886719 121.472656 165.460938 C 122.269531 165.035156 123.085938 164.648438 123.921875 164.300781 C 124.753906 163.957031 125.605469 163.652344 126.46875 163.390625 C 127.332031 163.128906 128.207031 162.910156 129.09375 162.734375 C 129.980469 162.558594 130.871094 162.425781 131.769531 162.335938 C 132.671875 162.246094 133.570312 162.203125 134.472656 162.203125 C 135.378906 162.203125 136.277344 162.246094 137.175781 162.335938 C 138.078125 162.425781 138.96875 162.558594 139.855469 162.734375 C 140.742188 162.910156 141.617188 163.128906 142.480469 163.390625 C 143.34375 163.652344 144.195312 163.957031 145.027344 164.300781 C 145.863281 164.648438 146.679688 165.035156 147.476562 165.460938 C 148.273438 165.886719 149.046875 166.347656 149.796875 166.851562 C 150.546875 167.351562 151.273438 167.890625 151.96875 168.460938 C 152.667969 169.035156 153.335938 169.640625 153.976562 170.28125 C 154.613281 170.917969 155.21875 171.585938 155.792969 172.285156 C 156.367188 172.984375 156.902344 173.707031 157.40625 174.457031 C 157.90625 175.210938 158.371094 175.984375 158.796875 176.78125 C 159.222656 177.578125 159.609375 178.390625 159.953125 179.226562 C 160.300781 180.0625 160.605469 180.910156 160.867188 181.773438 C 161.128906 182.636719 161.347656 183.511719 161.523438 184.398438 C 161.699219 185.285156 161.832031 186.175781 161.921875 187.074219 C 162.007812 187.976562 162.054688 188.875 162.054688 189.777344 Z M 162.054688 189.777344 " fill-opacity="1" fill-rule="nonzero"/><path fill="#fcfcfc" d="M 137.667969 170.898438 L 134.125 170.898438 C 133.722656 170.898438 133.34375 171.078125 133.082031 171.382812 L 122.65625 183.578125 C 122.195312 184.121094 122.21875 184.933594 122.730469 185.441406 L 124.710938 187.421875 C 125.246094 187.953125 126.109375 187.953125 126.644531 187.425781 L 132.753906 181.394531 L 132.753906 207.820312 C 132.753906 208.574219 133.371094 209.191406 134.125 209.191406 L 137.667969 209.191406 C 138.421875 209.191406 139.039062 208.574219 139.039062 207.820312 L 139.039062 172.273438 C 139.039062 171.515625 138.421875 170.898438 137.667969 170.898438 Z M 137.667969 170.898438 " fill-opacity="1" fill-rule="nonzero"/><path fill="#414042" d="M 208.816406 231.28125 C 208.816406 232.183594 208.773438 233.082031 208.683594 233.980469 C 208.59375 234.882812 208.460938 235.773438 208.285156 236.660156 C 208.109375 237.542969 207.890625 238.417969 207.628906 239.285156 C 207.367188 240.148438 207.0625 240.996094 206.71875 241.832031 C 206.371094 242.667969 205.984375 243.480469 205.558594 244.277344 C 205.132812 245.074219 204.671875 245.847656 204.167969 246.597656 C 203.667969 247.351562 203.128906 248.074219 202.554688 248.773438 C 201.984375 249.472656 201.378906 250.140625 200.738281 250.777344 C 200.101562 251.417969 199.433594 252.023438 198.734375 252.59375 C 198.035156 253.167969 197.3125 253.707031 196.558594 254.207031 C 195.808594 254.710938 195.035156 255.171875 194.238281 255.597656 C 193.441406 256.023438 192.625 256.410156 191.792969 256.753906 C 190.957031 257.101562 190.109375 257.40625 189.242188 257.667969 C 188.378906 257.929688 187.503906 258.148438 186.617188 258.324219 C 185.730469 258.5 184.839844 258.632812 183.941406 258.722656 C 183.042969 258.8125 182.140625 258.855469 181.238281 258.855469 C 180.335938 258.855469 179.433594 258.8125 178.535156 258.722656 C 177.636719 258.632812 176.742188 258.5 175.855469 258.324219 C 174.972656 258.148438 174.097656 257.929688 173.230469 257.667969 C 172.367188 257.40625 171.519531 257.101562 170.683594 256.753906 C 169.847656 256.410156 169.035156 256.023438 168.238281 255.597656 C 167.441406 255.171875 166.667969 254.710938 165.914062 254.207031 C 165.164062 253.707031 164.441406 253.167969 163.742188 252.59375 C 163.042969 252.023438 162.375 251.417969 161.734375 250.777344 C 161.097656 250.140625 160.492188 249.472656 159.917969 248.773438 C 159.347656 248.074219 158.808594 247.351562 158.304688 246.597656 C 157.804688 245.847656 157.339844 245.074219 156.914062 244.277344 C 156.488281 243.480469 156.105469 242.667969 155.757812 241.832031 C 155.414062 240.996094 155.109375 240.148438 154.847656 239.285156 C 154.582031 238.417969 154.363281 237.542969 154.1875 236.660156 C 154.011719 235.773438 153.878906 234.882812 153.792969 233.980469 C 153.703125 233.082031 153.660156 232.183594 153.660156 231.28125 C 153.660156 230.375 153.703125 229.476562 153.792969 228.578125 C 153.878906 227.675781 154.011719 226.785156 154.1875 225.898438 C 154.363281 225.015625 154.582031 224.140625 154.847656 223.273438 C 155.109375 222.410156 155.414062 221.5625 155.757812 220.726562 C 156.105469 219.890625 156.488281 219.078125 156.914062 218.28125 C 157.339844 217.484375 157.804688 216.710938 158.304688 215.960938 C 158.808594 215.207031 159.347656 214.484375 159.917969 213.785156 C 160.492188 213.085938 161.097656 212.417969 161.734375 211.78125 C 162.375 211.140625 163.042969 210.535156 163.742188 209.964844 C 164.441406 209.390625 165.164062 208.851562 165.914062 208.351562 C 166.667969 207.847656 167.441406 207.386719 168.238281 206.960938 C 169.035156 206.535156 169.847656 206.148438 170.683594 205.804688 C 171.519531 205.457031 172.367188 205.152344 173.230469 204.890625 C 174.097656 204.628906 174.972656 204.410156 175.855469 204.234375 C 176.742188 204.058594 177.636719 203.925781 178.535156 203.835938 C 179.433594 203.75 180.335938 203.703125 181.238281 203.703125 C 182.140625 203.703125 183.042969 203.75 183.941406 203.835938 C 184.839844 203.925781 185.730469 204.058594 186.617188 204.234375 C 187.503906 204.410156 188.378906 204.628906 189.242188 204.890625 C 190.109375 205.152344 190.957031 205.457031 191.792969 205.804688 C 192.625 206.148438 193.441406 206.535156 194.238281 206.960938 C 195.035156 207.386719 195.808594 207.847656 196.558594 208.351562 C 197.3125 208.851562 198.035156 209.390625 198.734375 209.964844 C 199.433594 210.535156 200.101562 211.140625 200.738281 211.78125 C 201.378906 212.417969 201.984375 213.085938 202.554688 213.785156 C 203.128906 214.484375 203.667969 215.207031 204.167969 215.960938 C 204.671875 216.710938 205.132812 217.484375 205.558594 218.28125 C 205.984375 219.078125 206.371094 219.890625 206.71875 220.726562 C 207.0625 221.5625 207.367188 222.410156 207.628906 223.273438 C 207.890625 224.140625 208.109375 225.015625 208.285156 225.898438 C 208.460938 226.785156 208.59375 227.675781 208.683594 228.578125 C 208.773438 229.476562 208.816406 230.375 208.816406 231.28125 Z M 208.816406 231.28125 " fill-opacity="1" fill-rule="nonzero"/><path fill="#fcfcfc" d="M 192.289062 244.402344 L 176.78125 244.402344 C 176.988281 244.027344 177.257812 243.644531 177.617188 243.253906 C 178.59375 242.175781 180.160156 240.746094 182.269531 239.015625 L 182.242188 238.984375 C 182.566406 238.765625 182.917969 238.460938 183.320312 238.117188 C 186.308594 235.589844 188.699219 233.105469 190.425781 230.734375 C 192.257812 228.222656 193.1875 225.316406 193.1875 222.113281 C 193.1875 218.941406 192.105469 216.363281 189.972656 214.445312 C 187.878906 212.570312 185.078125 211.621094 181.652344 211.621094 C 179.253906 211.621094 176.90625 212.21875 174.675781 213.398438 C 172.472656 214.566406 170.585938 216.210938 169.078125 218.28125 C 168.652344 218.863281 168.75 219.664062 169.296875 220.132812 L 172.164062 222.582031 C 172.445312 222.824219 172.8125 222.953125 173.207031 222.902344 C 173.582031 222.859375 173.925781 222.664062 174.152344 222.355469 C 175.253906 220.875 176.449219 219.738281 177.703125 218.984375 C 180.109375 217.523438 183.464844 217.53125 185.1875 219.089844 C 186.023438 219.847656 186.429688 220.835938 186.429688 222.113281 C 186.429688 224.253906 185.894531 226.078125 184.792969 227.699219 C 183.625 229.421875 181.9375 231.226562 179.746094 233.085938 C 179.625 233.1875 179.058594 233.65625 178.019531 234.5 C 176.21875 235.984375 174.75 237.28125 173.652344 238.359375 C 172.515625 239.480469 171.550781 240.761719 170.78125 242.171875 C 169.960938 243.671875 169.542969 245.328125 169.542969 247.074219 L 169.542969 249.316406 C 169.542969 250.074219 170.15625 250.691406 170.914062 250.691406 L 192.289062 250.691406 C 193.042969 250.691406 193.660156 250.074219 193.660156 249.316406 L 193.660156 245.769531 C 193.660156 245.015625 193.046875 244.402344 192.289062 244.402344 Z M 192.289062 244.402344 " fill-opacity="1" fill-rule="nonzero"/><path fill="#58595b" d="M 459.488281 634.558594 L 456.746094 634.558594 L 456.746094 623.585938 L 459.488281 623.585938 Z M 459.488281 612.613281 L 456.746094 612.613281 L 456.746094 601.644531 L 459.488281 601.644531 Z M 459.488281 590.671875 L 456.746094 590.671875 L 456.746094 579.699219 L 459.488281 579.699219 Z M 459.488281 568.726562 L 456.746094 568.726562 L 456.746094 557.753906 L 459.488281 557.753906 Z M 459.488281 546.78125 L 456.746094 546.78125 L 456.746094 535.808594 L 459.488281 535.808594 Z M 459.488281 524.839844 L 456.746094 524.839844 L 456.746094 513.867188 L 459.488281 513.867188 Z M 459.488281 502.894531 L 456.746094 502.894531 L 456.746094 491.921875 L 459.488281 491.921875 Z M 459.488281 480.949219 L 456.746094 480.949219 L 456.746094 469.976562 L 459.488281 469.976562 Z M 459.488281 459.007812 L 456.746094 459.007812 L 456.746094 448.035156 L 459.488281 448.035156 Z M 459.488281 437.0625 L 456.746094 437.0625 L 456.746094 426.089844 L 459.488281 426.089844 Z M 459.488281 415.117188 L 456.746094 415.117188 L 456.746094 404.144531 L 459.488281 404.144531 Z M 459.488281 393.171875 L 456.746094 393.171875 L 456.746094 382.203125 L 459.488281 382.203125 Z M 459.488281 371.230469 L 456.746094 371.230469 L 456.746094 360.257812 L 459.488281 360.257812 Z M 459.488281 349.285156 L 456.746094 349.285156 L 456.746094 338.3125 L 459.488281 338.3125 Z M 459.488281 327.339844 L 456.746094 327.339844 L 456.746094 316.367188 L 459.488281 316.367188 Z M 459.488281 305.398438 L 456.746094 305.398438 L 456.746094 294.425781 L 459.488281 294.425781 Z M 459.488281 283.453125 L 456.746094 283.453125 L 456.746094 272.480469 L 459.488281 272.480469 Z M 459.488281 261.507812 L 456.746094 261.507812 L 456.746094 250.535156 L 459.488281 250.535156 Z M 459.488281 239.566406 L 456.746094 239.566406 L 456.746094 228.59375 L 459.488281 228.59375 Z M 459.488281 217.621094 L 456.746094 217.621094 L 456.746094 206.648438 L 459.488281 206.648438 Z M 459.488281 195.675781 L 456.746094 195.675781 L 456.746094 184.703125 L 459.488281 184.703125 Z M 459.488281 173.730469 L 456.746094 173.730469 L 456.746094 169.679688 L 459.488281 169.679688 Z M 459.488281 173.730469 " fill-opacity="1" fill-rule="nonzero"/><path fill="#58595b" d="M 458.117188 156.71875 L 446.886719 176.164062 L 469.34375 176.164062 Z M 458.117188 156.71875 " fill-opacity="1" fill-rule="nonzero"/><path fill="#414042" d="M 487.671875 651.566406 C 487.671875 652.46875 487.628906 653.371094 487.539062 654.269531 C 487.449219 655.167969 487.316406 656.058594 487.140625 656.945312 C 486.964844 657.832031 486.746094 658.707031 486.484375 659.570312 C 486.222656 660.433594 485.917969 661.285156 485.570312 662.117188 C 485.226562 662.953125 484.839844 663.769531 484.414062 664.566406 C 483.988281 665.359375 483.523438 666.136719 483.023438 666.886719 C 482.523438 667.636719 481.984375 668.359375 481.410156 669.058594 C 480.839844 669.757812 480.230469 670.425781 479.59375 671.066406 C 478.953125 671.703125 478.285156 672.308594 477.589844 672.882812 C 476.890625 673.453125 476.164062 673.992188 475.414062 674.492188 C 474.664062 674.996094 473.890625 675.460938 473.09375 675.886719 C 472.296875 676.3125 471.480469 676.695312 470.644531 677.042969 C 469.8125 677.386719 468.960938 677.691406 468.097656 677.953125 C 467.234375 678.214844 466.359375 678.433594 465.472656 678.609375 C 464.585938 678.789062 463.695312 678.917969 462.796875 679.007812 C 461.898438 679.097656 460.996094 679.140625 460.09375 679.140625 C 459.1875 679.140625 458.289062 679.097656 457.390625 679.007812 C 456.488281 678.917969 455.597656 678.789062 454.710938 678.609375 C 453.824219 678.433594 452.949219 678.214844 452.085938 677.953125 C 451.222656 677.691406 450.371094 677.386719 449.539062 677.042969 C 448.703125 676.695312 447.886719 676.3125 447.089844 675.886719 C 446.296875 675.460938 445.519531 674.996094 444.769531 674.492188 C 444.019531 673.992188 443.292969 673.453125 442.597656 672.882812 C 441.898438 672.308594 441.230469 671.703125 440.589844 671.066406 C 439.953125 670.425781 439.347656 669.757812 438.773438 669.058594 C 438.199219 668.359375 437.664062 667.636719 437.160156 666.886719 C 436.660156 666.136719 436.195312 665.359375 435.769531 664.566406 C 435.34375 663.769531 434.957031 662.953125 434.613281 662.117188 C 434.265625 661.285156 433.964844 660.433594 433.699219 659.570312 C 433.4375 658.707031 433.21875 657.832031 433.042969 656.945312 C 432.867188 656.058594 432.734375 655.167969 432.644531 654.269531 C 432.558594 653.371094 432.511719 652.46875 432.511719 651.566406 C 432.511719 650.664062 432.558594 649.761719 432.644531 648.863281 C 432.734375 647.964844 432.867188 647.070312 433.042969 646.1875 C 433.21875 645.300781 433.4375 644.425781 433.699219 643.5625 C 433.964844 642.695312 434.265625 641.847656 434.613281 641.011719 C 434.957031 640.179688 435.34375 639.363281 435.769531 638.566406 C 436.195312 637.769531 436.660156 636.996094 437.160156 636.246094 C 437.664062 635.496094 438.199219 634.769531 438.773438 634.070312 C 439.347656 633.375 439.953125 632.707031 440.589844 632.066406 C 441.230469 631.429688 441.898438 630.824219 442.597656 630.25 C 443.292969 629.675781 444.019531 629.140625 444.769531 628.636719 C 445.519531 628.136719 446.296875 627.671875 447.089844 627.246094 C 447.886719 626.820312 448.703125 626.433594 449.539062 626.089844 C 450.371094 625.742188 451.222656 625.441406 452.085938 625.175781 C 452.949219 624.914062 453.824219 624.695312 454.710938 624.519531 C 455.597656 624.34375 456.488281 624.210938 457.390625 624.121094 C 458.289062 624.035156 459.1875 623.988281 460.09375 623.988281 C 460.996094 623.988281 461.898438 624.035156 462.796875 624.121094 C 463.695312 624.210938 464.585938 624.34375 465.472656 624.519531 C 466.359375 624.695312 467.234375 624.914062 468.097656 625.175781 C 468.960938 625.441406 469.8125 625.742188 470.644531 626.089844 C 471.480469 626.433594 472.296875 626.820312 473.09375 627.246094 C 473.890625 627.671875 474.664062 628.136719 475.414062 628.636719 C 476.164062 629.140625 476.890625 629.675781 477.589844 630.25 C 478.285156 630.824219 478.953125 631.429688 479.59375 632.066406 C 480.230469 632.707031 480.839844 633.375 481.410156 634.070312 C 481.984375 634.769531 482.523438 635.496094 483.023438 636.246094 C 483.523438 636.996094 483.988281 637.769531 484.414062 638.566406 C 484.839844 639.363281 485.226562 640.179688 485.570312 641.011719 C 485.917969 641.847656 486.222656 642.695312 486.484375 643.5625 C 486.746094 644.425781 486.964844 645.300781 487.140625 646.1875 C 487.316406 647.070312 487.449219 647.964844 487.539062 648.863281 C 487.628906 649.761719 487.671875 650.664062 487.671875 651.566406 Z M 487.671875 651.566406 " fill-opacity="1" fill-rule="nonzero"/><path fill="#fcfcfc" d="M 470.90625 653.277344 C 470.113281 652.15625 469.160156 651.238281 468.066406 650.539062 C 468.816406 649.917969 469.457031 649.171875 469.988281 648.304688 C 471.007812 646.65625 471.523438 644.738281 471.523438 642.605469 C 471.523438 640.566406 471.050781 638.710938 470.113281 637.097656 C 469.167969 635.472656 467.839844 634.1875 466.167969 633.273438 C 464.511719 632.367188 462.628906 631.90625 460.558594 631.90625 C 457.84375 631.90625 455.414062 632.671875 453.347656 634.175781 C 451.308594 635.652344 449.71875 637.671875 448.621094 640.179688 C 448.332031 640.832031 448.59375 641.59375 449.214844 641.933594 L 452.082031 643.5 C 452.414062 643.679688 452.800781 643.714844 453.152344 643.601562 C 453.511719 643.488281 453.804688 643.238281 453.972656 642.898438 C 454.78125 641.253906 455.742188 639.980469 456.824219 639.125 C 457.835938 638.324219 459.058594 637.933594 460.558594 637.933594 C 461.886719 637.933594 462.9375 638.351562 463.765625 639.214844 C 464.613281 640.082031 465.027344 641.191406 465.027344 642.605469 C 465.027344 644.207031 464.582031 645.464844 463.671875 646.441406 C 462.792969 647.394531 461.617188 647.855469 460.089844 647.855469 L 457.796875 647.855469 C 457.042969 647.855469 456.425781 648.472656 456.425781 649.226562 L 456.425781 652.457031 C 456.425781 653.214844 457.042969 653.828125 457.796875 653.828125 L 460.300781 653.828125 C 462.089844 653.828125 463.507812 654.378906 464.644531 655.511719 C 465.773438 656.648438 466.328125 658.070312 466.328125 659.859375 C 466.328125 661.578125 465.785156 662.945312 464.675781 664.039062 C 463.558594 665.144531 462.195312 665.679688 460.507812 665.679688 C 459.074219 665.679688 457.855469 665.273438 456.789062 664.4375 C 455.671875 663.554688 454.722656 662.304688 453.980469 660.734375 C 453.816406 660.386719 453.511719 660.125 453.144531 660.007812 C 452.78125 659.894531 452.386719 659.941406 452.046875 660.136719 L 448.917969 661.960938 C 448.328125 662.300781 448.082031 663.027344 448.339844 663.660156 C 449.339844 666.121094 450.886719 668.109375 452.929688 669.574219 C 455.003906 671.058594 457.496094 671.8125 460.347656 671.8125 C 462.613281 671.8125 464.730469 671.304688 466.644531 670.296875 C 468.578125 669.285156 470.125 667.84375 471.246094 666.019531 C 472.359375 664.1875 472.929688 662.117188 472.929688 659.859375 C 472.929688 657.386719 472.25 655.171875 470.90625 653.277344 Z M 470.90625 653.277344 " fill-opacity="1" fill-rule="nonzero"/></svg>