<svg xmlns="http://www.w3.org/2000/svg" xmlns:xlink="http://www.w3.org/1999/xlink" width="794" zoomAndPan="magnify" viewBox="0 0 594.95996 842.24997" height="1123" preserveAspectRatio="xMidYMid meet" version="1.0"><defs><g/></defs><g fill="#000000" fill-opacity="1"><g transform="translate(24.18807, 608.138473)"><g><path d="M 77.3125 -146.203125 C 72.632812 -146.203125 70.296875 -148.546875 70.296875 -153.234375 C 70.296875 -157.921875 72.632812 -160.265625 77.3125 -160.265625 C 82 -160.265625 84.34375 -157.921875 84.34375 -153.234375 C 84.34375 -148.546875 82 -146.203125 77.3125 -146.203125 Z M 77.3125 -117.375 C 72.632812 -117.375 70.296875 -119.71875 70.296875 -124.40625 C 70.296875 -129.09375 72.632812 -131.4375 77.3125 -131.4375 C 82 -131.4375 84.34375 -129.09375 84.34375 -124.40625 C 84.34375 -119.71875 82 -117.375 77.3125 -117.375 Z M 77.3125 -88.5625 C 72.632812 -88.5625 70.296875 -90.90625 70.296875 -95.59375 C 70.296875 -100.28125 72.632812 -102.625 77.3125 -102.625 C 82 -102.625 84.34375 -100.28125 84.34375 -95.59375 C 84.34375 -90.90625 82 -88.5625 77.3125 -88.5625 Z M 77.3125 -59.75 C 72.632812 -59.75 70.296875 -62.09375 70.296875 -66.78125 C 70.296875 -71.457031 72.632812 -73.796875 77.3125 -73.796875 C 82 -73.796875 84.34375 -71.457031 84.34375 -66.78125 C 84.34375 -62.09375 82 -59.75 77.3125 -59.75 Z M 77.3125 -369.71875 C 72.632812 -369.71875 70.296875 -372.0625 70.296875 -376.75 C 70.296875 -381.4375 72.632812 -383.78125 77.3125 -383.78125 C 82 -383.78125 84.34375 -381.4375 84.34375 -376.75 C 84.34375 -372.0625 82 -369.71875 77.3125 -369.71875 Z M 77.3125 -342.3125 C 72.632812 -342.3125 70.296875 -344.65625 70.296875 -349.34375 C 70.296875 -354.019531 72.632812 -356.359375 77.3125 -356.359375 C 82 -356.359375 84.34375 -354.019531 84.34375 -349.34375 C 84.34375 -344.65625 82 -342.3125 77.3125 -342.3125 Z M 77.3125 -312.078125 C 72.632812 -312.078125 70.296875 -314.421875 70.296875 -319.109375 C 70.296875 -323.796875 72.632812 -326.140625 77.3125 -326.140625 C 82 -326.140625 84.34375 -323.796875 84.34375 -319.109375 C 84.34375 -314.421875 82 -312.078125 77.3125 -312.078125 Z M 77.3125 -255.859375 C 72.632812 -255.859375 70.296875 -258.195312 70.296875 -262.875 C 70.296875 -267.5625 72.632812 -269.90625 77.3125 -269.90625 C 82 -269.90625 84.34375 -267.5625 84.34375 -262.875 C 84.34375 -258.195312 82 -255.859375 77.3125 -255.859375 Z M 77.3125 -229.84375 C 72.632812 -229.84375 70.296875 -232.1875 70.296875 -236.875 C 70.296875 -241.5625 72.632812 -243.90625 77.3125 -243.90625 C 82 -243.90625 84.34375 -241.5625 84.34375 -236.875 C 84.34375 -232.1875 82 -229.84375 77.3125 -229.84375 Z M 77.3125 -201.734375 C 72.632812 -201.734375 70.296875 -204.078125 70.296875 -208.765625 C 70.296875 -213.441406 72.632812 -215.78125 77.3125 -215.78125 C 82 -215.78125 84.34375 -213.441406 84.34375 -208.765625 C 84.34375 -204.078125 82 -201.734375 77.3125 -201.734375 Z M 77.3125 -173.609375 C 72.632812 -173.609375 70.296875 -175.953125 70.296875 -180.640625 C 70.296875 -185.328125 72.632812 -187.671875 77.3125 -187.671875 C 82 -187.671875 84.34375 -185.328125 84.34375 -180.640625 C 84.34375 -175.953125 82 -173.609375 77.3125 -173.609375 Z M 77.3125 -477.96875 C 72.632812 -477.96875 70.296875 -480.3125 70.296875 -485 C 70.296875 -489.6875 72.632812 -492.03125 77.3125 -492.03125 C 82 -492.03125 84.34375 -489.6875 84.34375 -485 C 84.34375 -480.3125 82 -477.96875 77.3125 -477.96875 Z M 77.3125 -449.84375 C 72.632812 -449.84375 70.296875 -452.1875 70.296875 -456.875 C 70.296875 -461.5625 72.632812 -463.90625 77.3125 -463.90625 C 82 -463.90625 84.34375 -461.5625 84.34375 -456.875 C 84.34375 -452.1875 82 -449.84375 77.3125 -449.84375 Z M 77.3125 -423.140625 C 72.632812 -423.140625 70.296875 -425.484375 70.296875 -430.171875 C 70.296875 -434.859375 72.632812 -437.203125 77.3125 -437.203125 C 82 -437.203125 84.34375 -434.859375 84.34375 -430.171875 C 84.34375 -425.484375 82 -423.140625 77.3125 -423.140625 Z M 77.3125 -397.84375 C 72.632812 -397.84375 70.296875 -400.179688 70.296875 -404.859375 C 70.296875 -409.546875 72.632812 -411.890625 77.3125 -411.890625 C 82 -411.890625 84.34375 -409.546875 84.34375 -404.859375 C 84.34375 -400.179688 82 -397.84375 77.3125 -397.84375 Z M 77.3125 -283.96875 C 72.632812 -283.96875 70.296875 -286.3125 70.296875 -291 C 70.296875 -295.6875 72.632812 -298.03125 77.3125 -298.03125 C 82 -298.03125 84.34375 -295.6875 84.34375 -291 C 84.34375 -286.3125 82 -283.96875 77.3125 -283.96875 Z M 77.3125 -31.625 C 72.632812 -31.625 70.296875 -33.96875 70.296875 -38.65625 C 70.296875 -43.34375 72.632812 -45.6875 77.3125 -45.6875 C 82 -45.6875 84.34375 -43.34375 84.34375 -38.65625 C 84.34375 -33.96875 82 -31.625 77.3125 -31.625 Z M 77.3125 -3.515625 C 72.632812 -3.515625 70.296875 -5.859375 70.296875 -10.546875 C 70.296875 -15.234375 72.632812 -17.578125 77.3125 -17.578125 C 82 -17.578125 84.34375 -15.234375 84.34375 -10.546875 C 84.34375 -5.859375 82 -3.515625 77.3125 -3.515625 Z M 112.46875 -443.53125 C 107.78125 -443.53125 105.4375 -445.867188 105.4375 -450.546875 C 105.4375 -455.234375 107.78125 -457.578125 112.46875 -457.578125 C 117.144531 -457.578125 119.484375 -455.234375 119.484375 -450.546875 C 119.484375 -445.867188 117.144531 -443.53125 112.46875 -443.53125 Z M 95.59375 -464.609375 C 90.90625 -464.609375 88.5625 -466.953125 88.5625 -471.640625 C 88.5625 -476.328125 90.90625 -478.671875 95.59375 -478.671875 C 100.28125 -478.671875 102.625 -476.328125 102.625 -471.640625 C 102.625 -466.953125 100.28125 -464.609375 95.59375 -464.609375 Z M 129.328125 -422.4375 C 124.640625 -422.4375 122.296875 -424.78125 122.296875 -429.46875 C 122.296875 -434.15625 124.640625 -436.5 129.328125 -436.5 C 134.015625 -436.5 136.359375 -434.15625 136.359375 -429.46875 C 136.359375 -424.78125 134.015625 -422.4375 129.328125 -422.4375 Z M 146.203125 -401.34375 C 141.515625 -401.34375 139.171875 -403.6875 139.171875 -408.375 C 139.171875 -413.0625 141.515625 -415.40625 146.203125 -415.40625 C 150.890625 -415.40625 153.234375 -413.0625 153.234375 -408.375 C 153.234375 -403.6875 150.890625 -401.34375 146.203125 -401.34375 Z M 163.078125 -380.265625 C 158.390625 -380.265625 156.046875 -382.609375 156.046875 -387.296875 C 156.046875 -391.984375 158.390625 -394.328125 163.078125 -394.328125 C 167.753906 -394.328125 170.09375 -391.984375 170.09375 -387.296875 C 170.09375 -382.609375 167.753906 -380.265625 163.078125 -380.265625 Z M 179.9375 -359.171875 C 175.25 -359.171875 172.90625 -361.515625 172.90625 -366.203125 C 172.90625 -370.890625 175.25 -373.234375 179.9375 -373.234375 C 184.625 -373.234375 186.96875 -370.890625 186.96875 -366.203125 C 186.96875 -361.515625 184.625 -359.171875 179.9375 -359.171875 Z M 196.8125 -338.09375 C 192.125 -338.09375 189.78125 -340.4375 189.78125 -345.125 C 189.78125 -349.800781 192.125 -352.140625 196.8125 -352.140625 C 201.5 -352.140625 203.84375 -349.800781 203.84375 -345.125 C 203.84375 -340.4375 201.5 -338.09375 196.8125 -338.09375 Z M 213.671875 -317 C 208.992188 -317 206.65625 -319.34375 206.65625 -324.03125 C 206.65625 -328.71875 208.992188 -331.0625 213.671875 -331.0625 C 218.359375 -331.0625 220.703125 -328.71875 220.703125 -324.03125 C 220.703125 -319.34375 218.359375 -317 213.671875 -317 Z M 230.546875 -295.921875 C 225.859375 -295.921875 223.515625 -298.265625 223.515625 -302.953125 C 223.515625 -307.628906 225.859375 -309.96875 230.546875 -309.96875 C 235.234375 -309.96875 237.578125 -307.628906 237.578125 -302.953125 C 237.578125 -298.265625 235.234375 -295.921875 230.546875 -295.921875 Z M 247.421875 -274.828125 C 242.734375 -274.828125 240.390625 -277.171875 240.390625 -281.859375 C 240.390625 -286.546875 242.734375 -288.890625 247.421875 -288.890625 C 252.109375 -288.890625 254.453125 -286.546875 254.453125 -281.859375 C 254.453125 -277.171875 252.109375 -274.828125 247.421875 -274.828125 Z M 264.28125 -253.75 C 259.601562 -253.75 257.265625 -256.085938 257.265625 -260.765625 C 257.265625 -265.453125 259.601562 -267.796875 264.28125 -267.796875 C 268.96875 -267.796875 271.3125 -265.453125 271.3125 -260.765625 C 271.3125 -256.085938 268.96875 -253.75 264.28125 -253.75 Z M 281.15625 -232.65625 C 276.46875 -232.65625 274.125 -235 274.125 -239.6875 C 274.125 -244.375 276.46875 -246.71875 281.15625 -246.71875 C 285.84375 -246.71875 288.1875 -244.375 288.1875 -239.6875 C 288.1875 -235 285.84375 -232.65625 281.15625 -232.65625 Z M 298.03125 -211.5625 C 293.34375 -211.5625 291 -213.90625 291 -218.59375 C 291 -223.28125 293.34375 -225.625 298.03125 -225.625 C 302.707031 -225.625 305.046875 -223.28125 305.046875 -218.59375 C 305.046875 -213.90625 302.707031 -211.5625 298.03125 -211.5625 Z M 314.890625 -190.484375 C 310.203125 -190.484375 307.859375 -192.828125 307.859375 -197.515625 C 307.859375 -202.203125 310.203125 -204.546875 314.890625 -204.546875 C 319.578125 -204.546875 321.921875 -202.203125 321.921875 -197.515625 C 321.921875 -192.828125 319.578125 -190.484375 314.890625 -190.484375 Z M 331.765625 -169.390625 C 327.078125 -169.390625 324.734375 -171.734375 324.734375 -176.421875 C 324.734375 -181.109375 327.078125 -183.453125 331.765625 -183.453125 C 336.453125 -183.453125 338.796875 -181.109375 338.796875 -176.421875 C 338.796875 -171.734375 336.453125 -169.390625 331.765625 -169.390625 Z M 348.640625 -148.3125 C 343.953125 -148.3125 341.609375 -150.65625 341.609375 -155.34375 C 341.609375 -160.03125 343.953125 -162.375 348.640625 -162.375 C 353.316406 -162.375 355.65625 -160.03125 355.65625 -155.34375 C 355.65625 -150.65625 353.316406 -148.3125 348.640625 -148.3125 Z M 365.5 -127.21875 C 360.8125 -127.21875 358.46875 -129.5625 358.46875 -134.25 C 358.46875 -138.9375 360.8125 -141.28125 365.5 -141.28125 C 370.1875 -141.28125 372.53125 -138.9375 372.53125 -134.25 C 372.53125 -129.5625 370.1875 -127.21875 365.5 -127.21875 Z M 382.375 -106.140625 C 377.6875 -106.140625 375.34375 -108.484375 375.34375 -113.171875 C 375.34375 -117.847656 377.6875 -120.1875 382.375 -120.1875 C 387.0625 -120.1875 389.40625 -117.847656 389.40625 -113.171875 C 389.40625 -108.484375 387.0625 -106.140625 382.375 -106.140625 Z M 399.234375 -85.046875 C 394.554688 -85.046875 392.21875 -87.390625 392.21875 -92.078125 C 392.21875 -96.765625 394.554688 -99.109375 399.234375 -99.109375 C 403.921875 -99.109375 406.265625 -96.765625 406.265625 -92.078125 C 406.265625 -87.390625 403.921875 -85.046875 399.234375 -85.046875 Z M 416.109375 -63.96875 C 411.421875 -63.96875 409.078125 -66.304688 409.078125 -70.984375 C 409.078125 -75.671875 411.421875 -78.015625 416.109375 -78.015625 C 420.796875 -78.015625 423.140625 -75.671875 423.140625 -70.984375 C 423.140625 -66.304688 420.796875 -63.96875 416.109375 -63.96875 Z M 432.984375 -42.875 C 428.296875 -42.875 425.953125 -45.21875 425.953125 -49.90625 C 425.953125 -54.59375 428.296875 -56.9375 432.984375 -56.9375 C 437.671875 -56.9375 440.015625 -54.59375 440.015625 -49.90625 C 440.015625 -45.21875 437.671875 -42.875 432.984375 -42.875 Z M 449.84375 -21.796875 C 445.164062 -21.796875 442.828125 -24.132812 442.828125 -28.8125 C 442.828125 -33.5 445.164062 -35.84375 449.84375 -35.84375 C 454.53125 -35.84375 456.875 -33.5 456.875 -28.8125 C 456.875 -24.132812 454.53125 -21.796875 449.84375 -21.796875 Z M 466.71875 -146.203125 C 462.03125 -146.203125 459.6875 -148.546875 459.6875 -153.234375 C 459.6875 -157.921875 462.03125 -160.265625 466.71875 -160.265625 C 471.40625 -160.265625 473.75 -157.921875 473.75 -153.234375 C 473.75 -148.546875 471.40625 -146.203125 466.71875 -146.203125 Z M 466.71875 -117.375 C 462.03125 -117.375 459.6875 -119.71875 459.6875 -124.40625 C 459.6875 -129.09375 462.03125 -131.4375 466.71875 -131.4375 C 471.40625 -131.4375 473.75 -129.09375 473.75 -124.40625 C 473.75 -119.71875 471.40625 -117.375 466.71875 -117.375 Z M 466.71875 -88.5625 C 462.03125 -88.5625 459.6875 -90.90625 459.6875 -95.59375 C 459.6875 -100.28125 462.03125 -102.625 466.71875 -102.625 C 471.40625 -102.625 473.75 -100.28125 473.75 -95.59375 C 473.75 -90.90625 471.40625 -88.5625 466.71875 -88.5625 Z M 466.71875 -59.75 C 462.03125 -59.75 459.6875 -62.09375 459.6875 -66.78125 C 459.6875 -71.457031 462.03125 -73.796875 466.71875 -73.796875 C 471.40625 -73.796875 473.75 -71.457031 473.75 -66.78125 C 473.75 -62.09375 471.40625 -59.75 466.71875 -59.75 Z M 466.71875 -369.71875 C 462.03125 -369.71875 459.6875 -372.0625 459.6875 -376.75 C 459.6875 -381.4375 462.03125 -383.78125 466.71875 -383.78125 C 471.40625 -383.78125 473.75 -381.4375 473.75 -376.75 C 473.75 -372.0625 471.40625 -369.71875 466.71875 -369.71875 Z M 466.71875 -342.3125 C 462.03125 -342.3125 459.6875 -344.65625 459.6875 -349.34375 C 459.6875 -354.019531 462.03125 -356.359375 466.71875 -356.359375 C 471.40625 -356.359375 473.75 -354.019531 473.75 -349.34375 C 473.75 -344.65625 471.40625 -342.3125 466.71875 -342.3125 Z M 466.71875 -312.078125 C 462.03125 -312.078125 459.6875 -314.421875 459.6875 -319.109375 C 459.6875 -323.796875 462.03125 -326.140625 466.71875 -326.140625 C 471.40625 -326.140625 473.75 -323.796875 473.75 -319.109375 C 473.75 -314.421875 471.40625 -312.078125 466.71875 -312.078125 Z M 466.71875 -255.859375 C 462.03125 -255.859375 459.6875 -258.195312 459.6875 -262.875 C 459.6875 -267.5625 462.03125 -269.90625 466.71875 -269.90625 C 471.40625 -269.90625 473.75 -267.5625 473.75 -262.875 C 473.75 -258.195312 471.40625 -255.859375 466.71875 -255.859375 Z M 466.71875 -229.84375 C 462.03125 -229.84375 459.6875 -232.1875 459.6875 -236.875 C 459.6875 -241.5625 462.03125 -243.90625 466.71875 -243.90625 C 471.40625 -243.90625 473.75 -241.5625 473.75 -236.875 C 473.75 -232.1875 471.40625 -229.84375 466.71875 -229.84375 Z M 466.71875 -201.734375 C 462.03125 -201.734375 459.6875 -204.078125 459.6875 -208.765625 C 459.6875 -213.441406 462.03125 -215.78125 466.71875 -215.78125 C 471.40625 -215.78125 473.75 -213.441406 473.75 -208.765625 C 473.75 -204.078125 471.40625 -201.734375 466.71875 -201.734375 Z M 466.71875 -173.609375 C 462.03125 -173.609375 459.6875 -175.953125 459.6875 -180.640625 C 459.6875 -185.328125 462.03125 -187.671875 466.71875 -187.671875 C 471.40625 -187.671875 473.75 -185.328125 473.75 -180.640625 C 473.75 -175.953125 471.40625 -173.609375 466.71875 -173.609375 Z M 466.71875 -477.96875 C 462.03125 -477.96875 459.6875 -480.3125 459.6875 -485 C 459.6875 -489.6875 462.03125 -492.03125 466.71875 -492.03125 C 471.40625 -492.03125 473.75 -489.6875 473.75 -485 C 473.75 -480.3125 471.40625 -477.96875 466.71875 -477.96875 Z M 466.71875 -449.84375 C 462.03125 -449.84375 459.6875 -452.1875 459.6875 -456.875 C 459.6875 -461.5625 462.03125 -463.90625 466.71875 -463.90625 C 471.40625 -463.90625 473.75 -461.5625 473.75 -456.875 C 473.75 -452.1875 471.40625 -449.84375 466.71875 -449.84375 Z M 466.71875 -423.140625 C 462.03125 -423.140625 459.6875 -425.484375 459.6875 -430.171875 C 459.6875 -434.859375 462.03125 -437.203125 466.71875 -437.203125 C 471.40625 -437.203125 473.75 -434.859375 473.75 -430.171875 C 473.75 -425.484375 471.40625 -423.140625 466.71875 -423.140625 Z M 466.71875 -397.84375 C 462.03125 -397.84375 459.6875 -400.179688 459.6875 -404.859375 C 459.6875 -409.546875 462.03125 -411.890625 466.71875 -411.890625 C 471.40625 -411.890625 473.75 -409.546875 473.75 -404.859375 C 473.75 -400.179688 471.40625 -397.84375 466.71875 -397.84375 Z M 466.71875 -283.96875 C 462.03125 -283.96875 459.6875 -286.3125 459.6875 -291 C 459.6875 -295.6875 462.03125 -298.03125 466.71875 -298.03125 C 471.40625 -298.03125 473.75 -295.6875 473.75 -291 C 473.75 -286.3125 471.40625 -283.96875 466.71875 -283.96875 Z M 466.71875 -31.625 C 462.03125 -31.625 459.6875 -33.96875 459.6875 -38.65625 C 459.6875 -43.34375 462.03125 -45.6875 466.71875 -45.6875 C 471.40625 -45.6875 473.75 -43.34375 473.75 -38.65625 C 473.75 -33.96875 471.40625 -31.625 466.71875 -31.625 Z M 466.71875 -3.515625 C 462.03125 -3.515625 459.6875 -5.859375 459.6875 -10.546875 C 459.6875 -15.234375 462.03125 -17.578125 466.71875 -17.578125 C 471.40625 -17.578125 473.75 -15.234375 473.75 -10.546875 C 473.75 -5.859375 471.40625 -3.515625 466.71875 -3.515625 Z M 466.71875 -3.515625 "/></g></g></g><path stroke-linecap="butt" transform="matrix(0.00000000130783, -0.749333, 0.749333, 0.00000000130783, 58.2196, 547.57674)" fill="none" stroke-linejoin="miter" d="M -0.00184842 2.000647 L 489.251176 2.000646 " stroke="#000000" stroke-width="4" stroke-opacity="1" stroke-miterlimit="4"/><path stroke-linecap="round" transform="matrix(0.00000000130783, -0.749333, 0.749333, 0.00000000130783, 58.2196, 547.57674)" fill="none" stroke-linejoin="round" d="M 481.254478 -3.999484 L 489.251176 2.000646 L 481.254478 8.000776 " stroke="#000000" stroke-width="4" stroke-opacity="1" stroke-miterlimit="4"/><path stroke-linecap="butt" transform="matrix(0.46116, 0.590619, -0.590619, 0.46116, 177.111025, 152.686838)" fill="none" stroke-linejoin="miter" d="M 0.000147667 2.000283 L 572.315236 1.998571 " stroke="#000000" stroke-width="4" stroke-opacity="1" stroke-miterlimit="4"/><path stroke-linecap="round" transform="matrix(0.46116, 0.590619, -0.590619, 0.46116, 177.111025, 152.686838)" fill="none" stroke-linejoin="round" d="M 564.319902 -3.999531 L 572.315236 1.998571 L 564.315115 8.000816 " stroke="#000000" stroke-width="4" stroke-opacity="1" stroke-miterlimit="4"/><path stroke-linecap="butt" transform="matrix(0.00000000130783, -0.749333, 0.749333, 0.00000000130783, 439.281446, 441.090931)" fill="none" stroke-linejoin="miter" d="M 0.00145067 2.001519 L 347.148869 2.001518 " stroke="#000000" stroke-width="4" stroke-opacity="1" stroke-miterlimit="4"/><path stroke-linecap="round" transform="matrix(0.00000000130783, -0.749333, 0.749333, 0.00000000130783, 439.281446, 441.090931)" fill="none" stroke-linejoin="round" d="M 339.146958 -3.998612 L 347.148869 2.001518 L 339.146958 8.001649 " stroke="#000000" stroke-width="4" stroke-opacity="1" stroke-miterlimit="4"/></svg>