<svg xmlns="http://www.w3.org/2000/svg" xmlns:xlink="http://www.w3.org/1999/xlink" width="800" zoomAndPan="magnify" viewBox="0 0 600 899.99999" height="1200" preserveAspectRatio="xMidYMid meet" version="1.0"><defs><g/><clipPath id="9a4fcc7801"><path d="M 98.675781 704.394531 L 139.917969 704.394531 L 139.917969 731.1875 L 98.675781 731.1875 Z M 98.675781 704.394531 " clip-rule="nonzero"/></clipPath><clipPath id="60f48fec1e"><path d="M 459.882812 704.394531 L 501.128906 704.394531 L 501.128906 731.1875 L 459.882812 731.1875 Z M 459.882812 704.394531 " clip-rule="nonzero"/></clipPath><clipPath id="870b489364"><path d="M 140 312 L 174 312 L 174 346 L 140 346 Z M 140 312 " clip-rule="nonzero"/></clipPath><clipPath id="8ddbc813d6"><path d="M 172.070312 311.359375 L 189.277344 332.167969 L 157.488281 358.453125 L 140.28125 337.644531 Z M 172.070312 311.359375 " clip-rule="nonzero"/></clipPath><clipPath id="5e788a62c1"><path d="M 172.070312 311.359375 L 189.277344 332.167969 L 157.488281 358.453125 L 140.28125 337.644531 Z M 172.070312 311.359375 " clip-rule="nonzero"/></clipPath><clipPath id="74dd3d95be"><path d="M 172.066406 311.363281 L 189.140625 332.011719 L 157.207031 358.414062 L 140.132812 337.769531 Z M 172.066406 311.363281 " clip-rule="nonzero"/></clipPath></defs><path stroke-linecap="butt" transform="matrix(0.75, 0, 0, 0.75, 17.818362, -15.449276)" fill="none" stroke-linejoin="miter" d="M 137.783858 1042.104298 C 118.299482 1042.104298 103.315107 1036.781381 92.835939 1026.140755 C 82.523439 1015.333463 77.367189 999.859504 77.367189 979.724086 L 77.367189 381.187596 C 77.367189 360.39072 82.523439 344.510511 92.835939 333.54176 C 103.315107 322.406343 116.986982 316.838635 133.851567 316.838635 C 149.242192 316.838635 160.789068 319.703218 168.481777 325.437593 C 176.179694 331.000094 185.429694 340.500094 196.236986 353.927178 L 581.341173 853.974079 L 555.309922 853.974079 L 555.309922 377.994888 C 555.309922 358.67197 560.466172 343.692803 570.783881 333.046969 C 581.263048 322.244885 596.242216 316.838635 615.726592 316.838635 C 635.210968 316.838635 649.945344 322.244885 659.934927 333.046969 C 669.924511 343.692803 674.919303 358.67197 674.919303 377.994888 L 674.919303 981.687628 C 674.919303 1000.515754 670.252636 1015.333463 660.919302 1026.140755 C 651.585969 1036.781381 638.815135 1042.104298 622.601592 1042.104298 C 607.210966 1042.104298 595.013049 1039.078256 586.00784 1033.015755 C 577.002631 1026.958463 567.096381 1017.21888 556.289089 1003.791796 L 171.924485 503.744894 L 197.221361 503.744894 L 197.221361 979.724086 C 197.221361 999.859504 192.143236 1015.333463 181.992194 1026.140755 C 172.00261 1036.781381 157.268234 1042.104298 137.783858 1042.104298 Z M 137.783858 1042.104298 " stroke="#1f8785" stroke-width="40.239601" stroke-opacity="1" stroke-miterlimit="4"/><g fill="#ffffff" fill-opacity="1"><g transform="translate(17.818362, 760.050683)"><g><path d="M 103.359375 6.03125 C 88.773438 6.03125 77.582031 2.007812 69.78125 -6.03125 C 61.988281 -14.082031 58.09375 -25.65625 58.09375 -40.75 L 58.09375 -489.671875 C 58.09375 -505.265625 61.988281 -517.207031 69.78125 -525.5 C 77.582031 -533.800781 87.769531 -537.953125 100.34375 -537.953125 C 111.914062 -537.953125 120.59375 -535.8125 126.375 -531.53125 C 132.164062 -527.257812 139.082031 -520.097656 147.125 -510.046875 L 436.09375 -135.0625 L 416.484375 -135.0625 L 416.484375 -491.9375 C 416.484375 -506.519531 420.378906 -517.832031 428.171875 -525.875 C 435.972656 -533.925781 447.164062 -537.953125 461.75 -537.953125 C 476.34375 -537.953125 487.410156 -533.925781 494.953125 -525.875 C 502.492188 -517.832031 506.265625 -506.519531 506.265625 -491.9375 L 506.265625 -39.234375 C 506.265625 -25.148438 502.742188 -14.082031 495.703125 -6.03125 C 488.660156 2.007812 479.101562 6.03125 467.03125 6.03125 C 455.46875 6.03125 446.289062 3.769531 439.5 -0.75 C 432.707031 -5.28125 425.285156 -12.578125 417.234375 -22.640625 L 129.015625 -397.625 L 147.875 -397.625 L 147.875 -40.75 C 147.875 -25.65625 144.101562 -14.082031 136.5625 -6.03125 C 129.019531 2.007812 117.953125 6.03125 103.359375 6.03125 Z M 103.359375 6.03125 "/></g></g></g><g clip-path="url(#9a4fcc7801)"><path fill="#1f8785" d="M 117.816406 705.140625 L 99.15625 727.832031 C 97.75 729.542969 99.6875 731.953125 101.660156 730.949219 L 118.46875 722.410156 C 119.050781 722.117188 119.734375 722.117188 120.316406 722.410156 L 137.132812 730.949219 C 139.101562 731.953125 141.035156 729.542969 139.632812 727.832031 L 120.972656 705.140625 C 120.15625 704.148438 118.632812 704.148438 117.816406 705.140625 " fill-opacity="1" fill-rule="nonzero"/></g><path fill="#1f8785" d="M 125.394531 257.570312 L 125.394531 293.570312 L 113.394531 293.570312 L 113.394531 257.570312 M 125.394531 305.570312 L 125.394531 341.570312 L 113.394531 341.570312 L 113.394531 305.570312 M 125.394531 353.570312 L 125.394531 389.570312 L 113.394531 389.570312 L 113.394531 353.570312 M 125.394531 401.570312 L 125.394531 437.570312 L 113.394531 437.570312 L 113.394531 401.570312 M 125.394531 449.570312 L 125.394531 485.570312 L 113.394531 485.570312 L 113.394531 449.570312 M 125.394531 497.570312 L 125.394531 533.570312 L 113.394531 533.570312 L 113.394531 497.570312 M 125.394531 545.570312 L 125.394531 581.570312 L 113.394531 581.570312 L 113.394531 545.570312 M 125.394531 593.570312 L 125.394531 629.570312 L 113.394531 629.570312 L 113.394531 593.570312 M 125.394531 641.570312 L 125.394531 677.570312 L 113.394531 677.570312 L 113.394531 641.570312 " fill-opacity="1" fill-rule="nonzero"/><g clip-path="url(#60f48fec1e)"><path fill="#1f8785" d="M 479.027344 705.140625 L 460.363281 727.832031 C 458.960938 729.542969 460.894531 731.953125 462.867188 730.949219 L 479.675781 722.410156 C 480.257812 722.117188 480.945312 722.117188 481.527344 722.410156 L 498.339844 730.949219 C 500.3125 731.953125 502.246094 729.542969 500.839844 727.832031 L 482.179688 705.140625 C 481.363281 704.148438 479.84375 704.148438 479.027344 705.140625 " fill-opacity="1" fill-rule="nonzero"/></g><path fill="#1f8785" d="M 486.601562 257.574219 L 486.601562 293.574219 L 474.601562 293.574219 L 474.601562 257.574219 M 486.601562 305.574219 L 486.601562 341.574219 L 474.601562 341.574219 L 474.601562 305.574219 M 486.601562 353.574219 L 486.601562 389.574219 L 474.601562 389.574219 L 474.601562 353.574219 M 486.601562 401.574219 L 486.601562 437.574219 L 474.601562 437.574219 L 474.601562 401.574219 M 486.601562 449.574219 L 486.601562 485.574219 L 474.601562 485.574219 L 474.601562 449.574219 M 486.601562 497.574219 L 486.601562 533.574219 L 474.601562 533.574219 L 474.601562 497.574219 M 486.601562 545.574219 L 486.601562 581.574219 L 474.601562 581.574219 L 474.601562 545.574219 M 486.601562 593.574219 L 486.601562 629.574219 L 474.601562 629.574219 L 474.601562 593.574219 M 486.601562 641.574219 L 486.601562 677.574219 L 474.601562 677.574219 L 474.601562 641.574219 M 486.601562 689.574219 L 486.601562 704.402344 L 474.601562 704.402344 L 474.601562 689.574219 " fill-opacity="1" fill-rule="nonzero"/><g clip-path="url(#870b489364)"><g clip-path="url(#8ddbc813d6)"><g clip-path="url(#5e788a62c1)"><g clip-path="url(#74dd3d95be)"><path fill="#1f8785" d="M 173.914062 343.632812 L 173.835938 314.253906 C 173.828125 312.042969 170.800781 311.417969 169.917969 313.445312 L 162.40625 330.738281 C 162.144531 331.335938 161.617188 331.773438 160.980469 331.917969 L 142.582031 336.050781 C 140.421875 336.535156 140.46875 339.625 142.640625 340.046875 L 171.480469 345.644531 C 172.746094 345.890625 173.914062 344.921875 173.914062 343.632812 " fill-opacity="1" fill-rule="nonzero"/></g></g></g></g><path fill="#1f8785" d="M 193.871094 354.730469 L 216.070312 383.070312 L 206.625 390.472656 L 184.425781 362.132812 M 223.472656 392.519531 L 245.671875 420.859375 L 236.226562 428.257812 L 214.023438 399.917969 M 253.070312 430.304688 L 275.273438 458.644531 L 265.824219 466.042969 L 243.625 437.703125 M 282.671875 468.089844 L 304.871094 496.429688 L 295.425781 503.832031 L 273.226562 475.492188 M 312.273438 505.878906 L 334.472656 534.21875 L 325.027344 541.617188 L 302.824219 513.277344 M 341.871094 543.664062 L 364.074219 572.003906 L 354.625 579.402344 L 332.425781 551.0625 M 371.472656 581.449219 L 393.671875 609.789062 L 384.226562 617.191406 L 362.027344 588.851562 M 401.074219 619.238281 L 423.273438 647.578125 L 413.828125 654.976562 L 391.625 626.636719 M 430.671875 657.023438 L 442.472656 672.085938 L 433.027344 679.488281 L 421.226562 664.421875 " fill-opacity="1" fill-rule="nonzero"/></svg>