<svg xmlns="http://www.w3.org/2000/svg" xmlns:xlink="http://www.w3.org/1999/xlink" width="800" zoomAndPan="magnify" viewBox="0 0 600 899.99999" height="1200" preserveAspectRatio="xMidYMid meet" version="1.0"><defs><g/><clipPath id="ea0e332edb"><path d="M 286.601562 244.40625 L 313.394531 244.40625 L 313.394531 285.652344 L 286.601562 285.652344 Z M 286.601562 244.40625 " clip-rule="nonzero"/></clipPath></defs><path stroke-linecap="butt" transform="matrix(0.75, 0, 0, 0.75, 3.861331, -15.449276)" fill="none" stroke-linejoin="miter" d="M 395.419288 1044.067839 C 326.981784 1044.067839 267.054697 1029.005339 215.638028 998.880337 C 164.388025 968.588669 124.684898 926.182416 96.523439 871.656372 C 68.361979 816.968869 54.278645 752.703241 54.278645 678.859487 C 54.278645 623.187609 62.299478 573.08344 78.346354 528.546979 C 94.554688 483.84906 117.559898 445.614683 147.361983 413.854265 C 177.164068 381.921971 213.018236 357.448012 254.934905 340.416761 C 296.851574 323.224052 343.679701 314.630301 395.419288 314.630301 C 464.518249 314.630301 524.528669 329.609469 575.445339 359.573012 C 626.367216 389.375097 665.914093 431.453224 694.075553 485.812602 C 722.237013 540.010521 736.320347 604.031358 736.320347 677.875112 C 736.320347 733.54699 728.294305 783.895951 712.247429 828.921995 C 696.200553 873.78658 673.195344 912.343874 643.2318 944.599084 C 613.434924 976.692836 577.575547 1001.333462 535.658878 1018.526171 C 493.742209 1035.557422 446.997415 1044.067839 395.419288 1044.067839 Z M 395.419288 933.302208 C 438.976581 933.302208 475.976583 923.312625 506.434918 903.338665 C 537.049503 883.198039 560.549505 854.057413 576.919297 815.906369 C 593.294298 777.588659 601.481798 731.906365 601.481798 678.859487 C 601.481798 598.463649 583.554714 536.161563 547.695337 491.953227 C 511.83596 447.583433 461.080749 425.395932 395.419288 425.395932 C 352.523452 425.395932 315.601575 435.302182 284.653657 455.114683 C 253.872405 474.927185 230.210946 503.744894 213.674486 541.567813 C 197.299485 579.390732 189.111985 625.151151 189.111985 678.859487 C 189.111985 758.760533 207.205736 821.145953 243.393238 866.00533 C 279.575531 910.869916 330.252617 933.302208 395.419288 933.302208 Z M 395.419288 933.302208 " stroke="#1f8785" stroke-width="40.239601" stroke-opacity="1" stroke-miterlimit="4"/><g fill="#ffffff" fill-opacity="1"><g transform="translate(3.861331, 760.050683)"><g><path d="M 296.515625 7.546875 C 245.210938 7.546875 200.320312 -3.769531 161.84375 -26.40625 C 123.363281 -49.039062 93.5625 -80.851562 72.4375 -121.84375 C 51.3125 -162.84375 40.75 -211.007812 40.75 -266.34375 C 40.75 -308.09375 46.78125 -345.691406 58.84375 -379.140625 C 70.914062 -412.585938 88.144531 -441.253906 110.53125 -465.140625 C 132.914062 -489.035156 159.828125 -507.394531 191.265625 -520.21875 C 222.703125 -533.050781 257.785156 -539.46875 296.515625 -539.46875 C 348.328125 -539.46875 393.347656 -528.273438 431.578125 -505.890625 C 469.804688 -483.503906 499.484375 -451.941406 520.609375 -411.203125 C 541.734375 -370.460938 552.296875 -322.425781 552.296875 -267.09375 C 552.296875 -225.34375 546.257812 -187.613281 534.1875 -153.90625 C 522.113281 -120.207031 504.882812 -91.285156 482.5 -67.140625 C 460.113281 -43.003906 433.203125 -24.519531 401.765625 -11.6875 C 370.328125 1.132812 335.242188 7.546875 296.515625 7.546875 Z M 296.515625 -75.453125 C 329.210938 -75.453125 357.003906 -82.992188 379.890625 -98.078125 C 402.773438 -113.171875 420.378906 -135.050781 432.703125 -163.71875 C 445.023438 -192.394531 451.1875 -226.601562 451.1875 -266.34375 C 451.1875 -326.695312 437.726562 -373.472656 410.8125 -406.671875 C 383.90625 -439.867188 345.804688 -456.46875 296.515625 -456.46875 C 264.328125 -456.46875 236.660156 -449.046875 213.515625 -434.203125 C 190.378906 -419.367188 172.648438 -397.742188 160.328125 -369.328125 C 148.003906 -340.910156 141.84375 -306.582031 141.84375 -266.34375 C 141.84375 -206.476562 155.421875 -159.695312 182.578125 -126 C 209.742188 -92.300781 247.722656 -75.453125 296.515625 -75.453125 Z M 296.515625 -75.453125 "/></g></g></g><g clip-path="url(#ea0e332edb)"><path fill="#1f8785" d="M 287.347656 266.507812 L 310.039062 285.171875 C 311.746094 286.574219 314.15625 284.640625 313.15625 282.667969 L 304.617188 265.859375 C 304.324219 265.277344 304.324219 264.589844 304.617188 264.007812 L 313.15625 247.195312 C 314.160156 245.222656 311.75 243.289062 310.039062 244.695312 L 287.347656 263.355469 C 286.351562 264.171875 286.351562 265.691406 287.347656 266.507812 " fill-opacity="1" fill-rule="nonzero"/></g><path fill="#1f8785" d="M 254.441406 270.714844 C 242.707031 274 231.648438 277.917969 221.257812 282.464844 L 216.445312 271.472656 C 227.347656 266.703125 238.933594 262.597656 251.203125 259.160156 Z M 210.671875 287.4375 C 200 292.800781 190.101562 298.894531 180.984375 305.71875 L 173.792969 296.109375 C 183.480469 288.859375 193.976562 282.394531 205.285156 276.714844 Z M 171.925781 312.953125 C 163.054688 320.515625 155.003906 328.859375 147.773438 337.988281 L 138.367188 330.539062 C 146.082031 320.796875 154.671875 311.890625 164.140625 303.820312 Z M 140.875 347.300781 C 134.382812 356.667969 128.660156 366.78125 123.703125 377.636719 L 112.789062 372.65625 C 118.039062 361.152344 124.113281 350.421875 131.011719 340.464844 Z M 119.136719 388.410156 C 114.992188 398.960938 111.511719 410.15625 108.695312 421.996094 L 97.019531 419.222656 C 99.96875 406.828125 103.617188 395.09375 107.96875 384.019531 Z M 106.226562 433.386719 C 104.042969 444.542969 102.414062 456.230469 101.332031 468.453125 L 89.378906 467.394531 C 90.496094 454.753906 92.1875 442.648438 94.453125 431.082031 Z M 100.472656 480.1875 C 99.863281 490.582031 99.636719 501.34375 99.785156 512.46875 L 87.785156 512.628906 C 87.632812 501.214844 87.867188 490.171875 88.492188 479.488281 Z M 100.472656 480.1875 " fill-opacity="1" fill-rule="nonzero"/><path fill="#1f8785" d="M 105.410156 542.503906 C 106.160156 554.726562 107.707031 566.332031 110.054688 577.324219 L 98.316406 579.828125 C 95.847656 568.253906 94.21875 556.058594 93.433594 543.238281 Z M 112.820312 588.679688 C 116.003906 600.222656 120.140625 611.03125 125.230469 621.101562 L 114.523438 626.515625 C 109.070312 615.730469 104.644531 604.179688 101.253906 591.863281 Z M 130.8125 631.207031 C 136.777344 641.132812 143.78125 650.277344 151.820312 658.636719 L 143.167969 666.957031 C 134.503906 657.945312 126.957031 648.085938 120.527344 637.386719 Z M 160.140625 666.679688 C 168.527344 674.222656 177.882812 681.050781 188.203125 687.164062 L 182.085938 697.488281 C 171.085938 690.972656 161.09375 683.679688 152.117188 675.605469 Z M 198.398438 692.808594 C 208.355469 697.953125 219.113281 702.507812 230.667969 706.472656 L 226.777344 717.824219 C 214.664062 713.671875 203.367188 708.882812 192.890625 703.46875 Z M 241.867188 710.050781 C 252.707031 713.277344 264.191406 716.023438 276.324219 718.289062 L 274.117188 730.085938 C 261.578125 727.742188 249.6875 724.898438 238.445312 721.554688 Z M 287.871094 720.273438 C 292.089844 720.9375 296.386719 721.542969 300.753906 722.097656 L 299.242188 734.003906 C 294.757812 733.433594 290.347656 732.808594 286.007812 732.128906 Z M 287.871094 720.273438 " fill-opacity="1" fill-rule="nonzero"/><path fill="#1f8785" d="M 319.070312 723.308594 C 331.195312 721.851562 342.710938 719.65625 353.625 716.722656 L 356.742188 728.308594 C 345.273438 731.394531 333.195312 733.699219 320.503906 735.222656 Z M 364.828125 713.378906 C 376.1875 709.640625 386.835938 705.035156 396.78125 699.5625 L 402.566406 710.074219 C 391.972656 715.90625 380.644531 720.808594 368.578125 724.777344 Z M 406.726562 693.648438 C 416.515625 687.371094 425.558594 680.160156 433.855469 672.015625 L 442.261719 680.578125 C 433.375 689.304688 423.691406 697.027344 413.203125 703.75 Z M 441.847656 663.617188 C 449.398438 655.136719 456.257812 645.769531 462.421875 635.523438 L 472.703125 641.710938 C 466.15625 652.59375 458.859375 662.558594 450.8125 671.597656 Z M 468.136719 625.394531 C 473.414062 615.421875 478.101562 604.695312 482.199219 593.214844 L 493.5 597.25 C 489.210938 609.273438 484.292969 620.523438 478.746094 631.007812 Z M 485.929688 582.050781 C 489.289062 571.253906 492.171875 559.851562 494.570312 547.832031 L 506.339844 550.183594 C 503.855469 562.613281 500.871094 574.425781 497.386719 585.617188 Z M 496.734375 536.082031 C 498.054688 528.257812 499.179688 520.1875 500.117188 511.875 L 512.042969 513.21875 C 511.082031 521.75 509.921875 530.035156 508.566406 538.078125 Z M 496.734375 536.082031 " fill-opacity="1" fill-rule="nonzero"/><path fill="#1f8785" d="M 500 502.582031 C 500.292969 490.230469 500.09375 478.355469 499.40625 466.953125 L 511.382812 466.230469 C 512.089844 477.964844 512.296875 490.179688 511.996094 502.867188 Z M 498.515625 455.300781 C 497.382812 443.054688 495.648438 431.390625 493.316406 420.3125 L 505.0625 417.839844 C 507.488281 429.371094 509.289062 441.488281 510.464844 454.195312 Z M 490.652344 408.890625 C 487.625 397.140625 483.871094 386.101562 479.394531 375.765625 L 490.40625 370.996094 C 495.132812 381.90625 499.085938 393.539062 502.269531 405.898438 Z M 474.453125 365.222656 C 469.089844 354.628906 462.882812 344.851562 455.835938 335.890625 L 465.265625 328.472656 C 472.804688 338.058594 479.4375 348.5 485.15625 359.804688 Z M 448.367188 327.042969 C 440.632812 318.507812 432.019531 310.804688 422.535156 303.933594 L 429.574219 294.214844 C 439.734375 301.574219 448.964844 309.832031 457.257812 318.988281 Z M 412.914062 297.4375 C 403.34375 291.417969 392.976562 286.148438 381.808594 281.625 L 386.3125 270.503906 C 398.136719 275.289062 409.132812 280.882812 419.304688 287.277344 Z M 370.871094 277.523438 C 363.5 274.972656 355.8125 272.714844 347.804688 270.761719 L 350.652344 259.101562 C 359.023438 261.148438 367.074219 263.507812 374.800781 266.183594 Z M 370.871094 277.523438 " fill-opacity="1" fill-rule="nonzero"/></svg>