<svg xmlns="http://www.w3.org/2000/svg" xmlns:xlink="http://www.w3.org/1999/xlink" width="794" zoomAndPan="magnify" viewBox="0 0 594.95996 842.24997" height="1123" preserveAspectRatio="xMidYMid meet" version="1.0"><defs><clipPath id="6e67e4cb49"><path d="M 59.71875 167.824219 L 535.546875 167.824219 L 535.546875 673.621094 L 59.71875 673.621094 Z M 59.71875 167.824219 " clip-rule="nonzero"/></clipPath></defs><path fill="#ffffff" d="M 298.457031 665.996094 C 254.601562 665.996094 214.546875 655.230469 179.390625 634 C 144.199219 612.753906 116.332031 582.75 96.5625 544.832031 C 77.210938 507.734375 67.398438 465.695312 67.398438 419.882812 C 67.398438 374.074219 77.074219 332.3125 96.15625 295.753906 C 115.605469 258.472656 143.140625 228.785156 178.007812 207.515625 C 212.917969 186.226562 252.886719 175.429688 296.800781 175.429688 C 340.652344 175.429688 380.714844 186.199219 415.871094 207.433594 C 451.039062 228.695312 478.886719 258.511719 498.632812 296.0625 C 518.035156 332.925781 527.867188 374.867188 527.867188 420.714844 C 527.867188 466.433594 518.214844 508.292969 499.175781 545.128906 C 479.695312 582.777344 452.136719 612.648438 417.257812 633.914062 C 382.339844 655.203125 342.367188 665.996094 298.457031 665.996094 Z M 296.800781 302.90625 C 278.167969 302.90625 262.171875 307.410156 247.90625 316.671875 C 233.167969 326.234375 221.832031 339.339844 213.234375 356.738281 C 204.300781 374.835938 199.773438 396.082031 199.773438 419.882812 C 199.773438 444.308594 204.328125 466.027344 213.3125 484.433594 C 221.90625 502.039062 233.21875 515.226562 247.894531 524.75 C 262.167969 534.019531 278.167969 538.523438 296.800781 538.523438 C 316.078125 538.523438 332.542969 533.980469 347.144531 524.628906 C 362.003906 515.113281 373.386719 501.964844 381.941406 484.4375 C 390.929688 466.027344 395.488281 444.589844 395.488281 420.714844 C 395.488281 396.851562 390.929688 375.410156 381.941406 356.988281 C 373.382812 339.464844 361.996094 326.316406 347.144531 316.796875 C 332.542969 307.449219 316.074219 302.90625 296.800781 302.90625 Z M 296.800781 302.90625 " fill-opacity="1" fill-rule="nonzero"/><g clip-path="url(#6e67e4cb49)"><path fill="#000000" d="M 296.800781 175.429688 C 340.652344 175.429688 380.714844 186.199219 415.871094 207.433594 C 451.039062 228.695312 478.886719 258.511719 498.632812 296.0625 C 518.035156 332.925781 527.867188 374.867188 527.867188 420.714844 C 527.867188 466.433594 518.214844 508.292969 499.175781 545.128906 C 479.695312 582.777344 452.136719 612.648438 417.257812 633.914062 C 382.339844 655.203125 342.367188 665.996094 298.457031 665.996094 C 254.601562 665.996094 214.546875 655.230469 179.390625 634 C 144.199219 612.753906 116.332031 582.75 96.5625 544.832031 C 77.210938 507.734375 67.398438 465.695312 67.398438 419.882812 C 67.398438 374.074219 77.074219 332.3125 96.15625 295.753906 C 115.605469 258.472656 143.140625 228.785156 178.007812 207.515625 C 212.917969 186.226562 252.886719 175.429688 296.800781 175.429688 M 296.800781 538.523438 C 316.078125 538.523438 332.542969 533.976562 347.144531 524.628906 C 362.003906 515.113281 373.386719 501.964844 381.941406 484.4375 C 390.929688 466.027344 395.488281 444.589844 395.488281 420.714844 C 395.488281 396.847656 390.929688 375.40625 381.941406 356.988281 C 373.382812 339.460938 361.996094 326.3125 347.144531 316.796875 C 332.542969 307.449219 316.074219 302.902344 296.800781 302.902344 C 278.167969 302.902344 262.171875 307.40625 247.90625 316.671875 C 233.167969 326.234375 221.832031 339.339844 213.234375 356.738281 C 204.300781 374.835938 199.773438 396.082031 199.773438 419.882812 C 199.773438 444.308594 204.328125 466.023438 213.3125 484.433594 C 221.90625 502.039062 233.21875 515.222656 247.894531 524.746094 C 262.167969 534.019531 278.167969 538.523438 296.800781 538.523438 M 296.800781 167.824219 C 251.46875 167.824219 210.171875 178.992188 174.050781 201.023438 C 137.988281 223.019531 109.511719 253.707031 89.417969 292.234375 C 69.761719 329.886719 59.792969 372.835938 59.792969 419.882812 C 59.792969 466.929688 69.898438 510.152344 89.820312 548.351562 C 110.246094 587.527344 139.058594 618.535156 175.460938 640.511719 C 211.820312 662.472656 253.203125 673.605469 298.457031 673.605469 C 343.785156 673.605469 385.085938 662.4375 421.214844 640.414062 C 457.300781 618.40625 485.800781 587.527344 505.929688 548.625 C 525.53125 510.695312 535.472656 467.664062 535.472656 420.714844 C 535.472656 373.617188 525.339844 330.484375 505.363281 292.515625 C 484.960938 253.726562 456.175781 222.910156 419.800781 200.921875 C 383.441406 178.957031 342.058594 167.824219 296.800781 167.824219 Z M 296.800781 530.914062 C 279.679688 530.914062 265.035156 526.8125 252.03125 518.367188 C 238.542969 509.613281 228.113281 497.421875 220.144531 481.097656 C 211.671875 463.734375 207.375 443.140625 207.375 419.882812 C 207.375 397.261719 211.640625 377.148438 220.050781 360.109375 C 228.023438 343.96875 238.488281 331.851562 252.042969 323.054688 C 265.042969 314.617188 279.683594 310.511719 296.800781 310.511719 C 314.578125 310.511719 329.703125 314.664062 343.042969 323.207031 C 356.691406 331.949219 367.183594 344.09375 375.109375 360.328125 C 383.585938 377.695312 387.882812 398.011719 387.882812 420.714844 C 387.882812 443.421875 383.585938 463.738281 375.109375 481.097656 C 367.1875 497.335938 356.699219 509.480469 343.042969 518.222656 C 329.707031 526.761719 314.578125 530.914062 296.800781 530.914062 Z M 296.800781 530.914062 " fill-opacity="1" fill-rule="nonzero"/></g><path fill="#58595b" d="M 277.898438 246.222656 L 277.503906 242.4375 C 280.027344 242.171875 282.605469 241.957031 285.164062 241.796875 L 285.398438 245.59375 C 282.894531 245.75 280.371094 245.960938 277.898438 246.222656 Z M 277.898438 246.222656 " fill-opacity="1" fill-rule="nonzero"/><path fill="#58595b" d="M 292.9375 599.917969 C 287.761719 599.777344 282.589844 599.417969 277.566406 598.855469 L 277.988281 595.078125 C 282.90625 595.628906 287.96875 595.976562 293.039062 596.117188 Z M 308.335938 599.730469 L 308.136719 595.933594 C 313.203125 595.664062 318.257812 595.183594 323.160156 594.5 L 323.683594 598.265625 C 318.671875 598.964844 313.507812 599.457031 308.335938 599.730469 Z M 262.339844 596.46875 C 257.285156 595.4375 252.253906 594.167969 247.386719 592.6875 L 248.488281 589.050781 C 253.242188 590.492188 258.15625 591.734375 263.097656 592.742188 Z M 338.847656 595.441406 L 337.980469 591.738281 C 342.886719 590.589844 347.761719 589.195312 352.46875 587.601562 L 353.6875 591.203125 C 348.863281 592.839844 343.871094 594.265625 338.847656 595.441406 Z M 232.855469 587.492188 C 228.117188 585.53125 223.421875 583.316406 218.902344 580.898438 L 220.691406 577.542969 C 225.105469 579.902344 229.683594 582.066406 234.308594 583.976562 Z M 368.042969 585.53125 L 366.472656 582.066406 C 371.023438 580.003906 375.527344 577.679688 379.855469 575.167969 L 381.765625 578.457031 C 377.324219 581.035156 372.710938 583.414062 368.042969 585.53125 Z M 205.65625 572.976562 C 201.378906 570.125 197.199219 567.042969 193.242188 563.808594 L 195.644531 560.863281 C 199.507812 564.019531 203.585938 567.027344 207.761719 569.808594 Z M 394.71875 570.066406 L 392.503906 566.976562 C 396.574219 564.050781 400.539062 560.894531 404.289062 557.597656 L 406.796875 560.453125 C 402.957031 563.835938 398.890625 567.070312 394.71875 570.066406 Z M 181.777344 553.46875 C 178.160156 549.867188 174.660156 546.027344 171.378906 542.058594 L 174.308594 539.636719 C 177.511719 543.507812 180.925781 547.253906 184.460938 550.773438 Z M 417.871094 549.703125 L 415.09375 547.105469 C 418.492188 543.464844 421.765625 539.597656 424.828125 535.605469 L 427.84375 537.921875 C 424.707031 542.007812 421.351562 545.972656 417.871094 549.703125 Z M 162.113281 529.71875 C 159.261719 525.527344 156.535156 521.109375 154.011719 516.589844 L 157.332031 514.738281 C 159.800781 519.15625 162.464844 523.476562 165.257812 527.578125 Z M 436.65625 525.261719 L 433.441406 523.234375 C 436.003906 519.164062 438.449219 514.886719 440.707031 510.523438 L 440.910156 510.125 L 444.292969 511.863281 L 444.082031 512.273438 C 441.777344 516.730469 439.277344 521.101562 436.65625 525.261719 Z M 147.074219 502.820312 C 144.980469 498.171875 143.046875 493.359375 141.339844 488.507812 L 144.925781 487.242188 C 146.597656 491.992188 148.488281 496.703125 150.539062 501.253906 Z M 450.734375 497.855469 L 447.214844 496.417969 C 449.097656 491.808594 450.820312 487.027344 452.328125 482.214844 L 455.957031 483.355469 C 454.414062 488.269531 452.660156 493.148438 450.734375 497.855469 Z M 136.820312 473.769531 C 135.53125 468.863281 134.414062 463.796875 133.5 458.722656 L 137.242188 458.046875 C 138.140625 463.027344 139.234375 467.992188 140.496094 472.804688 Z M 459.960938 468.480469 L 456.253906 467.636719 C 457.351562 462.796875 458.285156 457.800781 459.023438 452.789062 L 462.785156 453.34375 C 462.03125 458.453125 461.082031 463.542969 459.960938 468.480469 Z M 131.339844 443.46875 C 130.816406 438.445312 130.460938 433.273438 130.28125 428.109375 L 134.082031 427.976562 C 134.257812 433.054688 134.605469 438.136719 135.121094 443.074219 Z M 464.480469 438.050781 L 460.691406 437.765625 C 461.0625 432.816406 461.273438 427.734375 461.3125 422.652344 L 465.117188 422.683594 C 465.074219 427.847656 464.859375 433.019531 464.480469 438.050781 Z M 134.058594 412.835938 L 130.257812 412.71875 C 130.417969 407.550781 130.753906 402.382812 131.253906 397.363281 L 135.039062 397.738281 C 134.542969 402.675781 134.214844 407.753906 134.058594 412.835938 Z M 460.941406 407.519531 C 460.644531 402.445312 460.167969 397.378906 459.527344 392.457031 L 463.296875 391.964844 C 463.949219 396.972656 464.433594 402.132812 464.734375 407.296875 Z M 137.089844 382.769531 L 133.34375 382.113281 C 134.234375 377.023438 135.328125 371.960938 136.589844 367.058594 L 140.273438 368.007812 C 139.035156 372.8125 137.960938 377.78125 137.089844 382.769531 Z M 457.003906 377.550781 C 455.96875 372.601562 454.730469 367.671875 453.320312 362.898438 L 456.96875 361.824219 C 458.402344 366.691406 459.667969 371.722656 460.722656 376.773438 Z M 144.636719 353.558594 L 141.050781 352.308594 C 142.742188 347.445312 144.660156 342.625 146.746094 337.980469 L 150.214844 339.539062 C 148.171875 344.085938 146.296875 348.800781 144.636719 353.558594 Z M 448.445312 348.613281 C 446.617188 343.925781 444.574219 339.277344 442.363281 334.800781 L 445.773438 333.117188 C 448.03125 337.691406 450.121094 342.441406 451.988281 347.230469 Z M 156.996094 326.0625 L 153.679688 324.207031 C 156.199219 319.695312 158.929688 315.285156 161.796875 311.097656 L 164.933594 313.242188 C 162.132812 317.339844 159.460938 321.652344 156.996094 326.0625 Z M 434.953125 321.730469 C 432.375 317.78125 429.394531 313.671875 426.097656 309.519531 L 429.074219 307.152344 C 432.441406 311.398438 435.492188 315.601562 438.136719 319.648438 Z M 174.011719 301.214844 L 171.089844 298.78125 C 174.382812 294.828125 177.890625 291 181.527344 287.40625 L 184.199219 290.113281 C 180.652344 293.621094 177.222656 297.355469 174.011719 301.214844 Z M 416.261719 298.027344 C 412.886719 294.347656 409.324219 290.707031 405.671875 287.207031 L 408.304688 284.457031 C 412.011719 288.015625 415.632812 291.714844 419.0625 295.453125 Z M 195.414062 280.058594 L 193.019531 277.105469 C 196.984375 273.886719 201.167969 270.8125 205.460938 267.96875 L 207.558594 271.140625 C 203.371094 273.917969 199.285156 276.917969 195.414062 280.058594 Z M 394.414062 277.089844 C 390.429688 273.746094 386.417969 270.621094 382.488281 267.800781 L 384.703125 264.710938 C 388.714844 267.585938 392.800781 270.769531 396.855469 274.175781 Z M 220.503906 263.4375 L 218.722656 260.074219 C 223.25 257.675781 227.957031 255.472656 232.707031 253.535156 L 234.144531 257.054688 C 229.507812 258.949219 224.917969 261.09375 220.503906 263.4375 Z M 248.355469 252.058594 L 247.269531 248.414062 C 252.144531 246.964844 257.183594 245.722656 262.253906 244.726562 L 262.988281 248.460938 C 258.035156 249.433594 253.113281 250.644531 248.355469 252.058594 Z M 248.355469 252.058594 " fill-opacity="1" fill-rule="nonzero"/><path fill="#58595b" d="M 369.777344 259.582031 C 367.527344 258.296875 365.304688 257.125 363.171875 256.101562 L 364.816406 252.671875 C 367.03125 253.734375 369.335938 254.949219 371.664062 256.28125 Z M 369.777344 259.582031 " fill-opacity="1" fill-rule="nonzero"/><path fill="#58595b" d="M 358.496094 270.789062 L 341.339844 244.804688 L 372.40625 242.933594 Z M 358.496094 270.789062 " fill-opacity="1" fill-rule="nonzero"/><path fill="#414042" d="M 329.136719 239.28125 C 329.136719 240.40625 329.082031 241.53125 328.96875 242.652344 C 328.859375 243.777344 328.695312 244.890625 328.476562 245.996094 C 328.253906 247.101562 327.980469 248.191406 327.65625 249.269531 C 327.328125 250.351562 326.949219 251.410156 326.515625 252.453125 C 326.085938 253.492188 325.605469 254.511719 325.074219 255.503906 C 324.542969 256.5 323.964844 257.464844 323.339844 258.402344 C 322.710938 259.339844 322.042969 260.242188 321.328125 261.113281 C 320.613281 261.984375 319.859375 262.820312 319.0625 263.617188 C 318.265625 264.414062 317.429688 265.171875 316.558594 265.886719 C 315.6875 266.601562 314.785156 267.269531 313.847656 267.898438 C 312.910156 268.523438 311.945312 269.101562 310.953125 269.632812 C 309.960938 270.164062 308.941406 270.644531 307.902344 271.078125 C 306.859375 271.507812 305.800781 271.886719 304.722656 272.214844 C 303.644531 272.542969 302.554688 272.816406 301.449219 273.035156 C 300.34375 273.257812 299.230469 273.421875 298.109375 273.53125 C 296.988281 273.640625 295.863281 273.699219 294.738281 273.699219 C 293.609375 273.699219 292.488281 273.640625 291.367188 273.53125 C 290.246094 273.421875 289.132812 273.257812 288.027344 273.035156 C 286.921875 272.816406 285.832031 272.542969 284.753906 272.214844 C 283.675781 271.886719 282.613281 271.507812 281.574219 271.078125 C 280.535156 270.644531 279.515625 270.164062 278.523438 269.632812 C 277.527344 269.101562 276.5625 268.523438 275.628906 267.898438 C 274.691406 267.269531 273.785156 266.601562 272.917969 265.886719 C 272.046875 265.171875 271.210938 264.414062 270.414062 263.617188 C 269.617188 262.820312 268.863281 261.984375 268.148438 261.113281 C 267.433594 260.242188 266.761719 259.339844 266.136719 258.402344 C 265.511719 257.464844 264.933594 256.5 264.402344 255.503906 C 263.871094 254.511719 263.390625 253.492188 262.957031 252.453125 C 262.527344 251.410156 262.148438 250.351562 261.820312 249.269531 C 261.492188 248.191406 261.21875 247.101562 261 245.996094 C 260.78125 244.890625 260.617188 243.777344 260.503906 242.652344 C 260.394531 241.53125 260.339844 240.40625 260.339844 239.28125 C 260.339844 238.152344 260.394531 237.027344 260.503906 235.90625 C 260.617188 234.785156 260.78125 233.671875 261 232.566406 C 261.21875 231.460938 261.492188 230.367188 261.820312 229.289062 C 262.148438 228.210938 262.527344 227.152344 262.957031 226.109375 C 263.390625 225.066406 263.871094 224.050781 264.402344 223.054688 C 264.933594 222.0625 265.511719 221.097656 266.136719 220.160156 C 266.761719 219.222656 267.433594 218.316406 268.148438 217.445312 C 268.863281 216.574219 269.617188 215.742188 270.414062 214.945312 C 271.210938 214.148438 272.046875 213.390625 272.917969 212.675781 C 273.785156 211.960938 274.691406 211.289062 275.628906 210.664062 C 276.5625 210.039062 277.527344 209.457031 278.523438 208.925781 C 279.515625 208.394531 280.535156 207.914062 281.574219 207.484375 C 282.613281 207.050781 283.675781 206.671875 284.753906 206.34375 C 285.832031 206.019531 286.921875 205.746094 288.027344 205.523438 C 289.132812 205.304688 290.246094 205.140625 291.367188 205.027344 C 292.488281 204.917969 293.609375 204.863281 294.738281 204.863281 C 295.863281 204.863281 296.988281 204.917969 298.109375 205.027344 C 299.230469 205.140625 300.34375 205.304688 301.449219 205.523438 C 302.554688 205.746094 303.644531 206.019531 304.722656 206.34375 C 305.800781 206.671875 306.859375 207.050781 307.902344 207.484375 C 308.941406 207.914062 309.960938 208.394531 310.953125 208.925781 C 311.945312 209.457031 312.910156 210.039062 313.847656 210.664062 C 314.785156 211.289062 315.6875 211.960938 316.558594 212.675781 C 317.429688 213.390625 318.265625 214.148438 319.0625 214.945312 C 319.859375 215.742188 320.613281 216.574219 321.328125 217.445312 C 322.042969 218.316406 322.710938 219.222656 323.339844 220.160156 C 323.964844 221.097656 324.542969 222.0625 325.074219 223.054688 C 325.605469 224.050781 326.085938 225.066406 326.515625 226.109375 C 326.949219 227.152344 327.328125 228.210938 327.65625 229.289062 C 327.980469 230.367188 328.253906 231.460938 328.476562 232.566406 C 328.695312 233.671875 328.859375 234.785156 328.96875 235.90625 C 329.082031 237.027344 329.136719 238.152344 329.136719 239.28125 Z M 329.136719 239.28125 " fill-opacity="1" fill-rule="nonzero"/><path fill="#fcfcfc" d="M 298.71875 215.71875 L 294.304688 215.71875 C 293.800781 215.71875 293.328125 215.9375 293 216.320312 L 279.996094 231.539062 C 279.421875 232.222656 279.453125 233.230469 280.089844 233.867188 L 282.5625 236.335938 C 283.230469 237 284.304688 237 284.972656 236.34375 L 292.589844 228.8125 L 292.589844 261.796875 C 292.589844 262.738281 293.359375 263.507812 294.300781 263.507812 L 298.71875 263.507812 C 299.660156 263.507812 300.429688 262.738281 300.429688 261.796875 L 300.429688 217.429688 C 300.429688 216.488281 299.664062 215.71875 298.71875 215.71875 Z M 298.71875 215.71875 " fill-opacity="1" fill-rule="nonzero"/></svg>