<svg xmlns="http://www.w3.org/2000/svg" xmlns:xlink="http://www.w3.org/1999/xlink" width="800" zoomAndPan="magnify" viewBox="0 0 600 899.99999" height="1200" preserveAspectRatio="xMidYMid meet" version="1.0"><defs><g/><clipPath id="60afedf86a"><path d="M 138.820312 264.046875 L 180.0625 264.046875 L 180.0625 290.839844 L 138.820312 290.839844 Z M 138.820312 264.046875 " clip-rule="nonzero"/></clipPath><clipPath id="2c1adc630b"><path d="M 225.339844 243.328125 L 252.132812 243.328125 L 252.132812 284.570312 L 225.339844 284.570312 Z M 225.339844 243.328125 " clip-rule="nonzero"/></clipPath></defs><path stroke-linecap="butt" transform="matrix(0.75, 0, 0, 0.75, 54.035156, -15.449228)" fill="none" stroke-linejoin="miter" d="M 141.958342 1042.104234 C 121.166674 1042.104234 105.197923 1036.208401 94.067714 1024.421942 C 82.932297 1012.630274 77.364588 996.338607 77.364588 975.546939 L 77.364588 390.276075 C 77.364588 368.661491 83.093755 352.369823 94.557298 341.401072 C 106.02084 330.265655 122.145841 324.697947 142.942717 324.697947 L 385.348979 324.697947 C 463.125025 324.697947 523.135445 344.182323 565.380239 383.151075 C 607.619824 421.958368 628.744825 476.234413 628.744825 545.984417 C 628.744825 615.739629 607.619824 670.260465 565.380239 709.557342 C 523.135445 748.854219 463.125025 768.505262 385.348979 768.505262 L 206.307303 768.505262 L 206.307303 975.546939 C 206.307303 996.338607 200.901053 1012.630274 190.098969 1024.421942 C 179.453135 1036.208401 163.406259 1042.104234 141.958342 1042.104234 Z M 206.307303 666.822965 L 365.213562 666.822965 C 410.729189 666.822965 445.197941 656.588589 468.6094 636.125046 C 492.187527 615.656295 503.979194 585.609419 503.979194 545.984417 C 503.979194 506.526081 492.187527 476.729205 468.6094 456.588579 C 445.197941 436.447952 410.729189 426.380244 365.213562 426.380244 L 206.307303 426.380244 Z M 206.307303 666.822965 " stroke="#1f8785" stroke-width="40.239601" stroke-opacity="1" stroke-miterlimit="4"/><g fill="#ffffff" fill-opacity="1"><g transform="translate(54.035156, 760.050731)"><g><path d="M 106.390625 6.03125 C 90.796875 6.03125 78.847656 1.628906 70.546875 -7.171875 C 62.242188 -15.972656 58.09375 -28.171875 58.09375 -43.765625 L 58.09375 -482.875 C 58.09375 -498.976562 62.367188 -511.175781 70.921875 -519.46875 C 79.472656 -527.769531 91.546875 -531.921875 107.140625 -531.921875 L 288.96875 -531.921875 C 347.320312 -531.921875 392.34375 -517.332031 424.03125 -488.15625 C 455.71875 -458.988281 471.5625 -418.25 471.5625 -365.9375 C 471.5625 -313.625 455.71875 -272.753906 424.03125 -243.328125 C 392.34375 -213.898438 347.320312 -199.1875 288.96875 -199.1875 L 154.671875 -199.1875 L 154.671875 -43.765625 C 154.671875 -28.171875 150.644531 -15.972656 142.59375 -7.171875 C 134.550781 1.628906 122.484375 6.03125 106.390625 6.03125 Z M 154.671875 -275.390625 L 273.890625 -275.390625 C 308.085938 -275.390625 333.988281 -283.0625 351.59375 -298.40625 C 369.195312 -313.75 378 -336.257812 378 -365.9375 C 378 -395.613281 369.195312 -417.992188 351.59375 -433.078125 C 333.988281 -448.171875 308.085938 -455.71875 273.890625 -455.71875 L 154.671875 -455.71875 Z M 154.671875 -275.390625 "/></g></g></g><g clip-path="url(#60afedf86a)"><path fill="#1f8785" d="M 160.921875 290.09375 L 179.582031 267.402344 C 180.988281 265.691406 179.050781 263.28125 177.082031 264.28125 L 160.269531 272.820312 C 159.6875 273.117188 159.003906 273.117188 158.421875 272.820312 L 141.605469 264.28125 C 139.636719 263.28125 137.703125 265.691406 139.105469 267.398438 L 157.765625 290.09375 C 158.585938 291.085938 160.105469 291.085938 160.921875 290.09375 " fill-opacity="1" fill-rule="nonzero"/></g><path fill="#1f8785" d="M 153.34375 726.386719 L 153.34375 690.386719 L 165.34375 690.386719 L 165.34375 726.386719 M 153.34375 678.386719 L 153.34375 642.386719 L 165.34375 642.386719 L 165.34375 678.386719 M 153.34375 630.386719 L 153.34375 594.386719 L 165.34375 594.386719 L 165.34375 630.386719 M 153.34375 582.386719 L 153.34375 546.386719 L 165.34375 546.386719 L 165.34375 582.386719 M 153.34375 534.386719 L 153.34375 498.386719 L 165.34375 498.386719 L 165.34375 534.386719 M 153.34375 486.386719 L 153.34375 450.386719 L 165.34375 450.386719 L 165.34375 486.386719 M 153.34375 438.386719 L 153.34375 402.386719 L 165.34375 402.386719 L 165.34375 438.386719 M 153.34375 390.386719 L 153.34375 354.386719 L 165.34375 354.386719 L 165.34375 390.386719 M 153.34375 342.386719 L 153.34375 306.386719 L 165.34375 306.386719 L 165.34375 342.386719 " fill-opacity="1" fill-rule="nonzero"/><g clip-path="url(#2c1adc630b)"><path fill="#1f8785" d="M 251.386719 262.46875 L 228.695312 243.808594 C 226.984375 242.402344 224.574219 244.335938 225.574219 246.308594 L 234.113281 263.117188 C 234.410156 263.699219 234.410156 264.386719 234.113281 264.96875 L 225.574219 281.78125 C 224.574219 283.753906 226.984375 285.6875 228.691406 284.28125 L 251.386719 265.621094 C 252.378906 264.804688 252.378906 263.285156 251.386719 262.46875 " fill-opacity="1" fill-rule="nonzero"/></g><path fill="#1f8785" d="M 467.265625 409.914062 C 468.308594 397.398438 468.378906 385.714844 467.46875 374.867188 L 479.429688 373.867188 C 480.390625 385.378906 480.324219 397.730469 479.222656 410.914062 Z M 466.085938 363.320312 C 464.179688 351.265625 460.917969 340.378906 456.300781 330.65625 L 467.140625 325.507812 C 472.253906 336.273438 475.851562 348.25 477.9375 361.445312 Z M 450.878906 320.753906 C 444.882812 311.1875 437.300781 302.933594 428.125 295.996094 L 435.367188 286.425781 C 445.710938 294.25 454.269531 303.570312 461.046875 314.378906 Z M 418.757812 289.691406 C 409.519531 284.167969 398.964844 279.699219 387.089844 276.292969 L 390.398438 264.757812 C 403.277344 268.453125 414.785156 273.332031 424.917969 279.390625 Z M 375.945312 273.492188 C 365.289062 271.164062 353.707031 269.585938 341.203125 268.761719 L 341.996094 256.789062 C 355.097656 257.652344 367.265625 259.3125 378.503906 261.765625 Z M 329.316406 268.210938 C 318.214844 267.902344 306.453125 268.136719 294.03125 268.914062 L 293.285156 256.9375 C 306.066406 256.136719 318.1875 255.898438 329.648438 256.214844 Z M 282.078125 269.808594 L 279.695312 270.019531 L 278.628906 258.070312 L 281.007812 257.855469 Z M 282.078125 269.808594 " fill-opacity="1" fill-rule="nonzero"/><path fill="#1f8785" d="M 252.511719 524.808594 C 265.003906 525.59375 276.960938 526.066406 288.378906 526.214844 L 288.21875 538.214844 C 276.601562 538.0625 264.445312 537.585938 251.753906 536.78125 Z M 300.128906 526.253906 C 312.707031 526.171875 324.589844 525.675781 335.769531 524.765625 L 336.742188 536.726562 C 325.265625 537.660156 313.085938 538.171875 300.207031 538.253906 Z M 347.414062 523.640625 C 359.945312 522.226562 371.503906 520.246094 382.089844 517.691406 L 384.902344 529.359375 C 373.832031 532.027344 361.785156 534.09375 348.757812 535.5625 Z M 393.453125 514.621094 C 405.496094 510.992188 416.066406 506.519531 425.164062 501.203125 L 431.21875 511.5625 C 421.300781 517.359375 409.867188 522.207031 396.914062 526.113281 Z M 434.617188 494.984375 C 444.117188 487.945312 451.550781 479.707031 456.917969 470.269531 L 467.347656 476.207031 C 461.144531 487.109375 452.617188 496.582031 441.761719 504.625 Z M 461.679688 460.242188 C 464.710938 452.433594 466.574219 443.894531 467.269531 434.621094 L 479.234375 435.515625 C 478.453125 445.976562 476.332031 455.667969 472.867188 464.585938 Z M 461.679688 460.242188 " fill-opacity="1" fill-rule="nonzero"/></svg>