<svg xmlns="http://www.w3.org/2000/svg" xmlns:xlink="http://www.w3.org/1999/xlink" width="794" zoomAndPan="magnify" viewBox="0 0 594.95996 842.24997" height="1123" preserveAspectRatio="xMidYMid meet" version="1.0"><defs><clipPath id="d372c18803"><path d="M 73.515625 90.605469 L 521.617188 90.605469 L 521.617188 750.769531 L 73.515625 750.769531 Z M 73.515625 90.605469 " clip-rule="nonzero"/></clipPath></defs><path fill="#ffffff" d="M 148.527344 744.632812 C 110.507812 744.632812 79.582031 713.6875 79.582031 675.648438 L 79.582031 161.882812 C 79.582031 125.980469 108.773438 96.769531 144.660156 96.769531 L 308.464844 96.769531 C 370.132812 96.769531 420.652344 116.371094 458.601562 155.027344 C 496.371094 193.523438 515.519531 246.167969 515.519531 311.5 C 515.519531 376.625 495.464844 429.183594 455.914062 467.71875 C 416.652344 505.984375 364.78125 525.386719 301.746094 525.386719 L 217.476562 525.386719 L 217.476562 675.648438 C 217.476562 713.6875 186.542969 744.632812 148.527344 744.632812 Z M 300.070312 398.339844 C 326.953125 398.339844 346.015625 391.929688 358.324219 378.734375 C 371.128906 365.003906 377.621094 342.378906 377.621094 311.5 C 377.621094 280.527344 371.066406 257.695312 358.136719 243.636719 C 345.855469 230.304688 326.855469 223.816406 300.070312 223.816406 L 217.476562 223.816406 L 217.476562 398.339844 Z M 300.070312 398.339844 " fill-opacity="1" fill-rule="nonzero"/><g clip-path="url(#d372c18803)"><path fill="#000000" d="M 308.464844 96.769531 C 370.132812 96.769531 420.652344 116.371094 458.601562 155.027344 C 496.371094 193.523438 515.519531 246.167969 515.519531 311.5 C 515.519531 376.625 495.464844 429.183594 455.914062 467.71875 C 416.652344 505.984375 364.78125 525.386719 301.746094 525.386719 L 217.476562 525.386719 L 217.476562 675.648438 C 217.476562 713.6875 186.542969 744.632812 148.527344 744.632812 C 110.507812 744.632812 79.582031 713.6875 79.582031 675.648438 L 79.582031 161.882812 C 79.582031 125.980469 108.773438 96.769531 144.65625 96.769531 L 308.464844 96.769531 M 217.476562 398.339844 L 300.070312 398.339844 C 326.953125 398.339844 346.015625 391.929688 358.324219 378.734375 C 371.128906 365.003906 377.621094 342.378906 377.621094 311.5 C 377.621094 280.527344 371.066406 257.695312 358.136719 243.636719 C 345.855469 230.304688 326.855469 223.816406 300.070312 223.816406 L 217.476562 223.816406 L 217.476562 398.339844 M 308.464844 90.699219 L 144.65625 90.699219 C 105.429688 90.699219 73.515625 122.632812 73.515625 161.882812 L 73.515625 675.648438 C 73.515625 717.035156 107.167969 750.703125 148.527344 750.703125 C 189.890625 750.703125 223.542969 717.035156 223.542969 675.648438 L 223.542969 531.457031 L 301.746094 531.457031 C 366.417969 531.457031 419.714844 511.476562 460.148438 472.070312 C 500.914062 432.347656 521.585938 378.324219 521.585938 311.5 C 521.585938 244.523438 501.851562 190.445312 462.933594 150.777344 C 423.796875 110.914062 371.824219 90.699219 308.464844 90.699219 Z M 223.542969 229.886719 L 300.070312 229.886719 C 325.066406 229.886719 342.601562 235.730469 353.675781 247.75 C 365.539062 260.644531 371.554688 282.09375 371.554688 311.5 C 371.554688 340.796875 365.609375 362.023438 353.890625 374.597656 C 342.792969 386.488281 325.1875 392.269531 300.070312 392.269531 L 223.542969 392.269531 Z M 223.542969 229.886719 " fill-opacity="1" fill-rule="nonzero"/></g><path fill="#58595b" d="M 288.984375 465.367188 L 276.851562 465.367188 L 276.851562 462.332031 L 288.984375 462.332031 Z M 264.71875 465.367188 L 252.582031 465.367188 L 252.582031 462.332031 L 264.71875 462.332031 Z M 240.449219 465.367188 L 228.316406 465.367188 L 228.316406 462.332031 L 240.449219 462.332031 Z M 216.183594 465.367188 L 204.050781 465.367188 L 204.050781 462.332031 L 216.183594 462.332031 Z M 191.917969 465.367188 L 179.78125 465.367188 L 179.78125 462.332031 L 191.917969 462.332031 Z M 301.167969 465.226562 L 301.058594 462.195312 C 305.113281 462.050781 309.152344 461.785156 313.070312 461.40625 L 313.363281 464.429688 C 309.382812 464.8125 305.28125 465.082031 301.167969 465.226562 Z M 325.492188 462.859375 L 325.003906 459.863281 C 328.992188 459.210938 332.957031 458.417969 336.789062 457.503906 L 337.492188 460.457031 C 333.589844 461.386719 329.554688 462.195312 325.492188 462.859375 Z M 349.285156 457.164062 L 348.359375 454.273438 C 352.1875 453.042969 355.980469 451.648438 359.632812 450.128906 L 360.796875 452.933594 C 357.070312 454.480469 353.195312 455.90625 349.285156 457.164062 Z M 371.910156 447.746094 L 370.507812 445.054688 C 374.050781 443.210938 377.546875 441.1875 380.890625 439.050781 L 382.523438 441.605469 C 379.101562 443.796875 375.53125 445.859375 371.910156 447.746094 Z M 392.550781 434.546875 L 390.695312 432.148438 C 393.835938 429.722656 396.917969 427.113281 399.851562 424.402344 L 401.910156 426.632812 C 398.910156 429.40625 395.761719 432.066406 392.550781 434.546875 Z M 410.542969 417.914062 L 408.292969 415.878906 C 410.972656 412.921875 413.535156 409.804688 415.914062 406.625 L 418.34375 408.441406 C 415.90625 411.699219 413.285156 414.886719 410.542969 417.914062 Z M 425.226562 398.285156 L 422.640625 396.699219 C 424.707031 393.324219 426.652344 389.789062 428.421875 386.199219 L 431.144531 387.542969 C 429.332031 391.214844 427.34375 394.828125 425.226562 398.285156 Z M 436.078125 376.316406 L 433.25 375.214844 C 434.679688 371.542969 435.984375 367.71875 437.132812 363.851562 L 440.039062 364.714844 C 438.867188 368.664062 437.535156 372.566406 436.078125 376.316406 Z M 443.074219 352.847656 L 440.109375 352.207031 C 440.9375 348.359375 441.652344 344.375 442.230469 340.363281 L 445.230469 340.796875 C 444.644531 344.878906 443.917969 348.933594 443.074219 352.847656 Z M 446.585938 328.640625 L 443.5625 328.398438 C 443.875 324.476562 444.078125 320.425781 444.167969 316.363281 L 447.199219 316.429688 C 447.109375 320.550781 446.902344 324.660156 446.585938 328.640625 Z M 444.113281 304.304688 C 443.992188 300.238281 443.761719 296.1875 443.425781 292.269531 L 446.449219 292.011719 C 446.789062 295.984375 447.023438 300.089844 447.148438 304.214844 Z M 442.039062 280.308594 C 441.445312 276.292969 440.722656 272.308594 439.890625 268.46875 L 442.851562 267.824219 C 443.703125 271.730469 444.4375 275.78125 445.039062 279.863281 Z M 436.914062 256.816406 C 435.765625 252.945312 434.46875 249.117188 433.050781 245.441406 L 435.882812 244.351562 C 437.328125 248.101562 438.652344 252.003906 439.820312 255.957031 Z M 428.265625 234.4375 C 426.503906 230.828125 424.574219 227.285156 422.527344 223.898438 L 425.121094 222.328125 C 427.21875 225.789062 429.191406 229.417969 430.992188 233.105469 Z M 415.847656 213.941406 C 413.476562 210.742188 410.929688 207.617188 408.269531 204.65625 L 410.523438 202.628906 C 413.25 205.660156 415.859375 208.859375 418.285156 212.132812 Z M 399.851562 196.109375 C 396.914062 193.386719 393.832031 190.785156 390.691406 188.367188 L 392.542969 185.960938 C 395.757812 188.433594 398.910156 191.097656 401.914062 193.882812 Z M 380.863281 181.507812 C 377.507812 179.394531 374 177.402344 370.4375 175.597656 L 371.8125 172.890625 C 375.457031 174.742188 379.046875 176.777344 382.480469 178.941406 Z M 359.519531 170.660156 C 355.855469 169.199219 352.042969 167.867188 348.191406 166.703125 L 349.070312 163.796875 C 353.003906 164.988281 356.898438 166.347656 360.640625 167.84375 Z M 336.570312 163.691406 C 332.726562 162.859375 328.746094 162.152344 324.738281 161.585938 L 325.160156 158.582031 C 329.242188 159.15625 333.296875 159.878906 337.210938 160.726562 Z M 312.777344 160.324219 C 308.859375 160.042969 304.8125 159.878906 300.75 159.835938 L 300.78125 156.800781 C 304.90625 156.84375 309.015625 157.011719 312.996094 157.296875 Z M 288.632812 159.824219 L 276.5 159.824219 L 276.5 156.789062 L 288.632812 156.789062 Z M 264.367188 159.824219 L 252.234375 159.824219 L 252.234375 156.789062 L 264.367188 156.789062 Z M 240.101562 159.824219 L 228.585938 159.824219 L 228.585938 156.789062 L 240.101562 156.789062 Z M 240.101562 159.824219 " fill-opacity="1" fill-rule="nonzero"/><path fill="#58595b" d="M 166.582031 463.847656 L 188.085938 451.425781 L 188.085938 476.269531 Z M 166.582031 463.847656 " fill-opacity="1" fill-rule="nonzero"/><path fill="#414042" d="M 248.921875 159.375 C 248.921875 160.375 248.871094 161.371094 248.773438 162.367188 C 248.675781 163.359375 248.53125 164.347656 248.335938 165.328125 C 248.140625 166.308594 247.898438 167.277344 247.609375 168.234375 C 247.316406 169.1875 246.980469 170.128906 246.597656 171.050781 C 246.21875 171.976562 245.789062 172.878906 245.320312 173.757812 C 244.847656 174.640625 244.335938 175.496094 243.78125 176.328125 C 243.226562 177.160156 242.632812 177.960938 242 178.730469 C 241.367188 179.503906 240.695312 180.246094 239.988281 180.949219 C 239.28125 181.65625 238.542969 182.328125 237.773438 182.960938 C 237 183.597656 236.199219 184.191406 235.367188 184.746094 C 234.539062 185.300781 233.683594 185.8125 232.800781 186.285156 C 231.921875 186.757812 231.019531 187.183594 230.097656 187.566406 C 229.171875 187.949219 228.234375 188.285156 227.277344 188.574219 C 226.324219 188.863281 225.355469 189.105469 224.375 189.300781 C 223.394531 189.496094 222.410156 189.644531 221.414062 189.742188 C 220.421875 189.839844 219.425781 189.886719 218.425781 189.886719 C 217.429688 189.886719 216.429688 189.839844 215.4375 189.742188 C 214.445312 189.644531 213.457031 189.496094 212.476562 189.300781 C 211.496094 189.105469 210.53125 188.863281 209.574219 188.574219 C 208.617188 188.285156 207.679688 187.949219 206.757812 187.566406 C 205.835938 187.183594 204.933594 186.757812 204.050781 186.285156 C 203.171875 185.8125 202.316406 185.300781 201.484375 184.746094 C 200.65625 184.191406 199.851562 183.597656 199.082031 182.960938 C 198.308594 182.328125 197.570312 181.65625 196.863281 180.949219 C 196.15625 180.246094 195.488281 179.503906 194.855469 178.730469 C 194.21875 177.960938 193.625 177.160156 193.070312 176.328125 C 192.515625 175.496094 192.003906 174.640625 191.53125 173.757812 C 191.0625 172.878906 190.636719 171.976562 190.253906 171.050781 C 189.871094 170.128906 189.535156 169.1875 189.246094 168.234375 C 188.957031 167.277344 188.714844 166.308594 188.519531 165.328125 C 188.324219 164.347656 188.175781 163.359375 188.078125 162.367188 C 187.980469 161.371094 187.933594 160.375 187.933594 159.375 C 187.933594 158.375 187.980469 157.378906 188.078125 156.386719 C 188.175781 155.390625 188.324219 154.402344 188.519531 153.421875 C 188.714844 152.445312 188.957031 151.476562 189.246094 150.519531 C 189.535156 149.5625 189.871094 148.625 190.253906 147.699219 C 190.636719 146.777344 191.0625 145.875 191.53125 144.992188 C 192.003906 144.113281 192.515625 143.253906 193.070312 142.425781 C 193.625 141.59375 194.21875 140.792969 194.855469 140.019531 C 195.488281 139.246094 196.15625 138.507812 196.863281 137.800781 C 197.570312 137.09375 198.308594 136.425781 199.082031 135.789062 C 199.851562 135.15625 200.65625 134.5625 201.484375 134.007812 C 202.316406 133.453125 203.171875 132.9375 204.050781 132.46875 C 204.933594 131.996094 205.835938 131.570312 206.757812 131.1875 C 207.679688 130.804688 208.617188 130.46875 209.574219 130.179688 C 210.53125 129.886719 211.496094 129.644531 212.476562 129.449219 C 213.457031 129.257812 214.445312 129.109375 215.4375 129.011719 C 216.429688 128.914062 217.429688 128.863281 218.425781 128.863281 C 219.425781 128.863281 220.421875 128.914062 221.414062 129.011719 C 222.410156 129.109375 223.394531 129.257812 224.375 129.449219 C 225.355469 129.644531 226.324219 129.886719 227.277344 130.179688 C 228.234375 130.46875 229.171875 130.804688 230.097656 131.1875 C 231.019531 131.570312 231.921875 131.996094 232.800781 132.46875 C 233.683594 132.9375 234.539062 133.453125 235.367188 134.007812 C 236.199219 134.5625 237 135.15625 237.773438 135.789062 C 238.542969 136.425781 239.28125 137.09375 239.988281 137.800781 C 240.695312 138.507812 241.367188 139.246094 242 140.019531 C 242.632812 140.792969 243.226562 141.59375 243.78125 142.425781 C 244.335938 143.253906 244.847656 144.113281 245.320312 144.992188 C 245.789062 145.875 246.21875 146.777344 246.597656 147.699219 C 246.980469 148.625 247.316406 149.5625 247.609375 150.519531 C 247.898438 151.476562 248.140625 152.445312 248.335938 153.421875 C 248.53125 154.402344 248.675781 155.390625 248.773438 156.386719 C 248.871094 157.378906 248.921875 158.375 248.921875 159.375 Z M 248.921875 159.375 " fill-opacity="1" fill-rule="nonzero"/><path fill="#fcfcfc" d="M 230.644531 173.894531 L 213.5 173.894531 C 213.726562 173.480469 214.027344 173.058594 214.425781 172.625 C 215.503906 171.429688 217.234375 169.851562 219.566406 167.933594 L 219.539062 167.902344 C 219.894531 167.65625 220.285156 167.324219 220.730469 166.941406 C 224.035156 164.144531 226.675781 161.398438 228.585938 158.773438 C 230.609375 155.992188 231.640625 152.777344 231.640625 149.234375 C 231.640625 145.722656 230.445312 142.871094 228.085938 140.746094 C 225.769531 138.675781 222.671875 137.625 218.886719 137.625 C 216.230469 137.625 213.636719 138.285156 211.171875 139.589844 C 208.738281 140.882812 206.652344 142.703125 204.980469 144.992188 C 204.511719 145.636719 204.617188 146.523438 205.222656 147.039062 L 208.394531 149.753906 C 208.707031 150.019531 209.109375 150.160156 209.546875 150.105469 C 209.960938 150.058594 210.34375 149.839844 210.589844 149.503906 C 211.8125 147.863281 213.132812 146.609375 214.519531 145.773438 C 217.179688 144.15625 220.886719 144.164062 222.796875 145.886719 C 223.71875 146.726562 224.167969 147.820312 224.167969 149.234375 C 224.167969 151.601562 223.578125 153.621094 222.355469 155.414062 C 221.066406 157.320312 219.199219 159.316406 216.777344 161.375 C 216.644531 161.484375 216.015625 162.003906 214.867188 162.9375 C 212.878906 164.578125 211.253906 166.019531 210.039062 167.207031 C 208.785156 168.449219 207.71875 169.867188 206.863281 171.425781 C 205.957031 173.089844 205.496094 174.917969 205.496094 176.855469 L 205.496094 179.335938 C 205.496094 180.171875 206.175781 180.851562 207.011719 180.851562 L 230.644531 180.851562 C 231.480469 180.851562 232.160156 180.171875 232.160156 179.335938 L 232.160156 175.410156 C 232.164062 174.578125 231.480469 173.894531 230.644531 173.894531 Z M 230.644531 173.894531 " fill-opacity="1" fill-rule="nonzero"/><path fill="#58595b" d="M 150.542969 697.050781 L 147.507812 697.050781 L 147.507812 692.566406 L 150.542969 692.566406 Z M 150.542969 680.425781 L 147.507812 680.425781 L 147.507812 668.285156 L 150.542969 668.285156 Z M 150.542969 656.144531 L 147.507812 656.144531 L 147.507812 644.007812 L 150.542969 644.007812 Z M 150.542969 631.867188 L 147.507812 631.867188 L 147.507812 619.726562 L 150.542969 619.726562 Z M 150.542969 607.585938 L 147.507812 607.585938 L 147.507812 595.445312 L 150.542969 595.445312 Z M 150.542969 583.304688 L 147.507812 583.304688 L 147.507812 571.164062 L 150.542969 571.164062 Z M 150.542969 559.023438 L 147.507812 559.023438 L 147.507812 546.882812 L 150.542969 546.882812 Z M 150.542969 534.746094 L 147.507812 534.746094 L 147.507812 522.605469 L 150.542969 522.605469 Z M 150.542969 510.464844 L 147.507812 510.464844 L 147.507812 498.324219 L 150.542969 498.324219 Z M 150.542969 486.183594 L 147.507812 486.183594 L 147.507812 474.042969 L 150.542969 474.042969 Z M 150.542969 461.902344 L 147.507812 461.902344 L 147.507812 449.761719 L 150.542969 449.761719 Z M 150.542969 437.621094 L 147.507812 437.621094 L 147.507812 425.480469 L 150.542969 425.480469 Z M 150.542969 413.34375 L 147.507812 413.34375 L 147.507812 401.203125 L 150.542969 401.203125 Z M 150.542969 389.0625 L 147.507812 389.0625 L 147.507812 376.921875 L 150.542969 376.921875 Z M 150.542969 364.78125 L 147.507812 364.78125 L 147.507812 352.640625 L 150.542969 352.640625 Z M 150.542969 340.5 L 147.507812 340.5 L 147.507812 328.359375 L 150.542969 328.359375 Z M 150.542969 316.21875 L 147.507812 316.21875 L 147.507812 304.078125 L 150.542969 304.078125 Z M 150.542969 291.941406 L 147.507812 291.941406 L 147.507812 279.800781 L 150.542969 279.800781 Z M 150.542969 267.660156 L 147.507812 267.660156 L 147.507812 255.519531 L 150.542969 255.519531 Z M 150.542969 243.378906 L 147.507812 243.378906 L 147.507812 231.238281 L 150.542969 231.238281 Z M 150.542969 219.097656 L 147.507812 219.097656 L 147.507812 206.957031 L 150.542969 206.957031 Z M 150.542969 194.816406 L 147.507812 194.816406 L 147.507812 182.679688 L 150.542969 182.679688 Z M 150.542969 194.816406 " fill-opacity="1" fill-rule="nonzero"/><path fill="#58595b" d="M 149.023438 711.394531 L 161.441406 689.878906 L 136.609375 689.878906 Z M 149.023438 711.394531 " fill-opacity="1" fill-rule="nonzero"/><path fill="#414042" d="M 177.335938 159.375 C 177.335938 160.375 177.285156 161.371094 177.1875 162.367188 C 177.089844 163.359375 176.945312 164.347656 176.75 165.328125 C 176.554688 166.308594 176.3125 167.277344 176.023438 168.234375 C 175.730469 169.1875 175.394531 170.128906 175.015625 171.050781 C 174.632812 171.976562 174.207031 172.878906 173.734375 173.757812 C 173.265625 174.640625 172.75 175.496094 172.195312 176.328125 C 171.640625 177.160156 171.046875 177.960938 170.414062 178.730469 C 169.78125 179.503906 169.109375 180.246094 168.402344 180.949219 C 167.699219 181.65625 166.957031 182.328125 166.1875 182.960938 C 165.414062 183.597656 164.613281 184.191406 163.78125 184.746094 C 162.953125 185.300781 162.097656 185.8125 161.214844 186.285156 C 160.335938 186.757812 159.433594 187.183594 158.511719 187.566406 C 157.589844 187.949219 156.648438 188.285156 155.691406 188.574219 C 154.738281 188.863281 153.769531 189.105469 152.789062 189.300781 C 151.8125 189.496094 150.824219 189.644531 149.828125 189.742188 C 148.835938 189.839844 147.839844 189.886719 146.839844 189.886719 C 145.84375 189.886719 144.847656 189.839844 143.851562 189.742188 C 142.859375 189.644531 141.871094 189.496094 140.890625 189.300781 C 139.914062 189.105469 138.945312 188.863281 137.988281 188.574219 C 137.035156 188.285156 136.09375 187.949219 135.171875 187.566406 C 134.25 187.183594 133.347656 186.757812 132.464844 186.285156 C 131.585938 185.8125 130.730469 185.300781 129.898438 184.746094 C 129.070312 184.191406 128.269531 183.597656 127.496094 182.960938 C 126.722656 182.328125 125.984375 181.65625 125.277344 180.949219 C 124.570312 180.246094 123.902344 179.503906 123.269531 178.730469 C 122.636719 177.960938 122.039062 177.160156 121.484375 176.328125 C 120.929688 175.496094 120.417969 174.640625 119.949219 173.757812 C 119.476562 172.878906 119.050781 171.976562 118.667969 171.050781 C 118.285156 170.128906 117.949219 169.1875 117.660156 168.234375 C 117.371094 167.277344 117.128906 166.308594 116.933594 165.328125 C 116.738281 164.347656 116.589844 163.359375 116.492188 162.367188 C 116.394531 161.371094 116.347656 160.375 116.347656 159.375 C 116.347656 158.375 116.394531 157.378906 116.492188 156.386719 C 116.589844 155.390625 116.738281 154.402344 116.933594 153.421875 C 117.128906 152.445312 117.371094 151.476562 117.660156 150.519531 C 117.949219 149.5625 118.285156 148.625 118.667969 147.699219 C 119.050781 146.777344 119.476562 145.875 119.949219 144.992188 C 120.417969 144.113281 120.929688 143.253906 121.484375 142.425781 C 122.039062 141.59375 122.636719 140.792969 123.269531 140.019531 C 123.902344 139.246094 124.570312 138.507812 125.277344 137.800781 C 125.984375 137.09375 126.722656 136.425781 127.496094 135.789062 C 128.269531 135.15625 129.070312 134.5625 129.898438 134.007812 C 130.730469 133.453125 131.585938 132.9375 132.464844 132.46875 C 133.347656 131.996094 134.25 131.570312 135.171875 131.1875 C 136.09375 130.804688 137.035156 130.46875 137.988281 130.179688 C 138.945312 129.886719 139.914062 129.644531 140.890625 129.449219 C 141.871094 129.257812 142.859375 129.109375 143.851562 129.011719 C 144.847656 128.914062 145.84375 128.863281 146.839844 128.863281 C 147.839844 128.863281 148.835938 128.914062 149.828125 129.011719 C 150.824219 129.109375 151.8125 129.257812 152.789062 129.449219 C 153.769531 129.644531 154.738281 129.886719 155.691406 130.179688 C 156.648438 130.46875 157.589844 130.804688 158.511719 131.1875 C 159.433594 131.570312 160.335938 131.996094 161.214844 132.46875 C 162.097656 132.9375 162.953125 133.453125 163.78125 134.007812 C 164.613281 134.5625 165.414062 135.15625 166.1875 135.789062 C 166.957031 136.425781 167.699219 137.09375 168.402344 137.800781 C 169.109375 138.507812 169.78125 139.246094 170.414062 140.019531 C 171.046875 140.792969 171.640625 141.59375 172.195312 142.425781 C 172.75 143.253906 173.265625 144.113281 173.734375 144.992188 C 174.207031 145.875 174.632812 146.777344 175.015625 147.699219 C 175.394531 148.625 175.730469 149.5625 176.023438 150.519531 C 176.3125 151.476562 176.554688 152.445312 176.75 153.421875 C 176.945312 154.402344 177.089844 155.390625 177.1875 156.386719 C 177.285156 157.378906 177.335938 158.375 177.335938 159.375 Z M 177.335938 159.375 " fill-opacity="1" fill-rule="nonzero"/><path fill="#fcfcfc" d="M 150.371094 138.488281 L 146.457031 138.488281 C 146.011719 138.488281 145.589844 138.683594 145.300781 139.019531 L 133.769531 152.511719 C 133.261719 153.117188 133.292969 154.011719 133.855469 154.578125 L 136.046875 156.765625 C 136.636719 157.355469 137.59375 157.355469 138.183594 156.773438 L 144.9375 150.097656 L 144.9375 179.335938 C 144.9375 180.171875 145.621094 180.855469 146.453125 180.855469 L 150.371094 180.855469 C 151.207031 180.855469 151.886719 180.171875 151.886719 179.335938 L 151.886719 140.003906 C 151.886719 139.167969 151.207031 138.488281 150.371094 138.488281 Z M 150.371094 138.488281 " fill-opacity="1" fill-rule="nonzero"/></svg>