<svg xmlns="http://www.w3.org/2000/svg" xmlns:xlink="http://www.w3.org/1999/xlink" width="794" zoomAndPan="magnify" viewBox="0 0 594.95996 842.24997" height="1123" preserveAspectRatio="xMidYMid meet" version="1.0"><defs><clipPath id="aaf4e2bfb0"><path d="M 59.71875 138.757812 L 535.546875 138.757812 L 535.546875 702.253906 L 59.71875 702.253906 Z M 59.71875 138.757812 " clip-rule="nonzero"/></clipPath></defs><path fill="#ffffff" d="M 446.765625 697.265625 C 432.902344 697.265625 419.871094 691.871094 410.066406 682.070312 L 399.945312 671.949219 C 369.015625 688.5 334.652344 696.878906 297.621094 696.878906 C 252.40625 696.878906 211.40625 684.515625 175.75 660.132812 C 140.691406 636.160156 113.007812 602.621094 93.476562 560.445312 C 74.425781 519.292969 64.765625 472.261719 64.765625 420.65625 C 64.765625 369.074219 74.410156 321.949219 93.441406 280.589844 C 112.960938 238.175781 140.65625 204.496094 175.75 180.488281 C 211.410156 156.101562 252.410156 143.738281 297.621094 143.738281 C 342.820312 143.738281 383.820312 156.101562 419.480469 180.484375 C 454.585938 204.503906 482.28125 238.183594 501.796875 280.585938 C 520.824219 321.929688 530.476562 369.285156 530.476562 421.34375 C 530.476562 461.882812 524.324219 499.988281 512.195312 534.597656 C 503.402344 559.679688 491.765625 582.585938 477.527344 602.863281 L 483.148438 608.386719 C 493.175781 618.238281 498.6875 631.40625 498.660156 645.460938 C 498.640625 659.515625 493.09375 672.664062 483.039062 682.488281 C 473.285156 692.019531 460.402344 697.265625 446.769531 697.265625 C 446.765625 697.265625 446.765625 697.265625 446.765625 697.265625 Z M 297.621094 252.160156 C 275.738281 252.160156 256.609375 258.5 239.144531 271.550781 C 220.902344 285.183594 206.253906 304.828125 195.601562 329.933594 C 184.410156 356.304688 178.734375 386.828125 178.734375 420.65625 C 178.734375 454.457031 184.398438 484.835938 195.570312 510.945312 C 206.1875 535.804688 220.792969 555.203125 238.984375 568.609375 C 256.464844 581.503906 275.644531 587.769531 297.621094 587.769531 C 302.980469 587.769531 308.164062 587.386719 313.203125 586.617188 L 303.207031 576.621094 C 282.972656 556.394531 282.972656 523.480469 303.207031 503.25 L 303.757812 502.699219 C 313.570312 492.886719 326.605469 487.492188 340.464844 487.492188 C 354.21875 487.492188 367.175781 492.8125 376.953125 502.476562 L 395.0625 520.375 C 399.0625 512.261719 402.585938 503.523438 405.601562 494.242188 C 412.835938 471.925781 416.507812 447.164062 416.507812 420.65625 C 416.507812 386.835938 410.832031 356.316406 399.636719 329.933594 C 388.980469 304.816406 374.328125 285.171875 356.097656 271.546875 C 338.628906 258.5 319.503906 252.160156 297.621094 252.160156 Z M 297.621094 252.160156 " fill-opacity="1" fill-rule="nonzero"/><g clip-path="url(#aaf4e2bfb0)"><path fill="#000000" d="M 297.621094 143.738281 C 342.820312 143.738281 383.820312 156.101562 419.480469 180.484375 C 454.585938 204.503906 482.28125 238.183594 501.796875 280.585938 C 520.824219 321.929688 530.476562 369.285156 530.476562 421.34375 C 530.476562 461.882812 524.324219 499.988281 512.195312 534.597656 C 503.402344 559.679688 491.765625 582.585938 477.527344 602.863281 L 483.148438 608.386719 C 493.175781 618.238281 498.6875 631.40625 498.660156 645.460938 C 498.640625 659.515625 493.09375 672.664062 483.039062 682.488281 C 473.285156 692.019531 460.402344 697.265625 446.769531 697.265625 C 446.765625 697.265625 446.765625 697.265625 446.765625 697.265625 C 432.902344 697.265625 419.867188 691.871094 410.066406 682.070312 L 399.945312 671.949219 C 369.015625 688.5 334.652344 696.878906 297.621094 696.878906 C 252.40625 696.878906 211.40625 684.515625 175.75 660.132812 C 140.6875 636.160156 113.003906 602.621094 93.472656 560.445312 C 74.425781 519.292969 64.765625 472.261719 64.765625 420.65625 C 64.765625 369.074219 74.410156 321.949219 93.441406 280.589844 C 112.960938 238.175781 140.65625 204.496094 175.75 180.488281 C 211.410156 156.101562 252.410156 143.738281 297.621094 143.738281 M 297.621094 587.769531 C 302.980469 587.769531 308.164062 587.386719 313.203125 586.617188 L 303.207031 576.621094 C 282.972656 556.394531 282.972656 523.480469 303.207031 503.25 L 303.757812 502.699219 C 313.570312 492.886719 326.605469 487.492188 340.464844 487.492188 C 354.21875 487.492188 367.175781 492.8125 376.953125 502.476562 L 395.0625 520.375 C 399.0625 512.261719 402.585938 503.523438 405.601562 494.242188 C 412.835938 471.925781 416.507812 447.164062 416.507812 420.65625 C 416.507812 386.835938 410.832031 356.316406 399.636719 329.933594 C 388.980469 304.816406 374.328125 285.171875 356.097656 271.546875 C 338.628906 258.5 319.503906 252.160156 297.621094 252.160156 C 275.738281 252.160156 256.609375 258.5 239.144531 271.550781 C 220.902344 285.183594 206.253906 304.828125 195.601562 329.933594 C 184.410156 356.304688 178.734375 386.828125 178.734375 420.65625 C 178.734375 454.457031 184.398438 484.835938 195.570312 510.945312 C 206.191406 535.804688 220.796875 555.203125 238.984375 568.609375 C 256.464844 581.503906 275.644531 587.769531 297.621094 587.769531 M 297.621094 138.757812 C 251.390625 138.757812 209.441406 151.414062 172.9375 176.375 C 137.085938 200.902344 108.816406 235.261719 88.914062 278.503906 C 69.582031 320.519531 59.78125 368.347656 59.78125 420.65625 C 59.78125 472.984375 69.59375 520.71875 88.953125 562.539062 C 108.867188 605.539062 137.121094 639.757812 172.9375 664.246094 C 209.4375 689.203125 251.386719 701.859375 297.621094 701.859375 C 334.128906 701.859375 368.222656 693.855469 399.011719 678.0625 L 406.542969 685.59375 C 417.285156 696.332031 431.570312 702.25 446.765625 702.25 C 461.714844 702.25 475.832031 696.496094 486.523438 686.050781 C 497.542969 675.285156 503.625 660.871094 503.644531 645.46875 C 503.671875 630.066406 497.632812 615.636719 486.644531 604.835938 L 484.011719 602.246094 C 497.414062 582.472656 508.46875 560.289062 516.898438 536.246094 C 529.214844 501.101562 535.460938 462.441406 535.460938 421.34375 C 535.460938 368.566406 525.65625 320.507812 506.324219 278.503906 C 486.425781 235.269531 458.152344 200.90625 422.296875 176.371094 C 385.789062 151.410156 343.84375 138.757812 297.621094 138.757812 Z M 297.621094 582.785156 C 276.746094 582.785156 258.535156 576.839844 241.941406 564.601562 C 224.476562 551.726562 210.417969 533.015625 200.152344 508.988281 C 189.246094 483.5 183.71875 453.777344 183.71875 420.65625 C 183.71875 387.5 189.261719 357.632812 200.191406 331.878906 C 210.492188 307.59375 224.601562 288.640625 242.128906 275.539062 C 258.699219 263.160156 276.851562 257.140625 297.621094 257.140625 C 318.386719 257.140625 336.539062 263.160156 353.113281 275.539062 C 370.628906 288.628906 384.738281 307.585938 395.050781 331.882812 C 405.980469 357.640625 411.523438 387.507812 411.523438 420.65625 C 411.523438 446.644531 407.933594 470.886719 400.859375 492.707031 C 398.695312 499.371094 396.242188 505.792969 393.542969 511.871094 L 380.457031 498.9375 C 369.738281 488.34375 355.535156 482.507812 340.464844 482.507812 C 325.269531 482.507812 310.984375 488.429688 300.234375 499.175781 L 299.679688 499.730469 C 288.953125 510.453125 283.046875 524.734375 283.046875 539.9375 C 283.046875 555.144531 288.953125 569.421875 299.683594 580.144531 L 302.222656 582.683594 C 300.699219 582.753906 299.164062 582.785156 297.621094 582.785156 Z M 297.621094 582.785156 " fill-opacity="1" fill-rule="nonzero"/></g><path fill="#58595b" d="M 450.777344 650.375 L 443.699219 643.359375 L 445.453125 641.589844 L 452.53125 648.605469 Z M 436.621094 636.34375 L 429.542969 629.328125 L 431.296875 627.558594 L 438.375 634.574219 Z M 422.460938 622.3125 L 415.382812 615.296875 L 417.136719 613.527344 L 424.214844 620.542969 Z M 408.304688 608.28125 L 401.226562 601.265625 L 402.980469 599.496094 L 410.058594 606.511719 Z M 394.144531 594.25 L 387.066406 587.238281 L 388.820312 585.46875 L 395.902344 592.480469 Z M 379.988281 580.222656 L 372.910156 573.207031 L 374.664062 571.4375 L 381.742188 578.453125 Z M 365.832031 566.191406 L 358.753906 559.175781 L 360.507812 557.40625 L 367.585938 564.421875 Z M 351.671875 552.160156 L 344.59375 545.144531 L 346.347656 543.375 L 353.429688 550.390625 Z M 351.671875 552.160156 " fill-opacity="1" fill-rule="nonzero"/><path fill="#58595b" d="M 300.828125 644.773438 L 300.78125 642.28125 C 304.097656 642.222656 307.421875 642.066406 310.671875 641.8125 L 310.863281 644.296875 C 307.566406 644.554688 304.1875 644.710938 300.828125 644.773438 Z M 290.792969 644.671875 C 287.433594 644.539062 284.066406 644.308594 280.777344 643.980469 L 281.023438 641.503906 C 284.261719 641.824219 287.582031 642.050781 290.890625 642.183594 Z M 320.851562 643.222656 L 320.507812 640.753906 C 323.777344 640.296875 327.054688 639.734375 330.253906 639.082031 L 330.753906 641.519531 C 327.503906 642.1875 324.171875 642.757812 320.851562 643.222656 Z M 270.824219 642.683594 C 267.519531 642.148438 264.203125 641.5 260.96875 640.761719 L 261.527344 638.332031 C 264.710938 639.0625 267.972656 639.699219 271.222656 640.226562 Z M 340.527344 639.1875 L 339.867188 636.785156 C 343.039062 635.914062 346.214844 634.929688 349.308594 633.859375 L 350.125 636.210938 C 346.980469 637.300781 343.75 638.304688 340.527344 639.1875 Z M 251.257812 638.199219 C 248.058594 637.242188 244.855469 636.164062 241.738281 635 L 242.609375 632.664062 C 245.675781 633.8125 248.828125 634.871094 251.972656 635.8125 Z M 359.503906 632.605469 L 358.53125 630.308594 C 361.542969 629.035156 364.558594 627.636719 367.492188 626.15625 L 368.617188 628.378906 C 365.632812 629.886719 362.566406 631.304688 359.503906 632.605469 Z M 232.449219 631.167969 C 229.414062 629.796875 226.382812 628.304688 223.433594 626.730469 L 224.609375 624.53125 C 227.507812 626.082031 230.492188 627.550781 233.476562 628.898438 Z M 377.429688 623.566406 L 376.164062 621.421875 C 378.972656 619.765625 381.78125 617.988281 384.507812 616.132812 L 385.910156 618.195312 C 383.136719 620.078125 380.285156 621.882812 377.429688 623.566406 Z M 214.730469 621.707031 C 211.914062 619.957031 209.097656 618.082031 206.367188 616.136719 L 207.816406 614.109375 C 210.503906 616.023438 213.273438 617.867188 216.046875 619.589844 Z M 394.039062 612.304688 L 392.515625 610.332031 C 395.109375 608.332031 397.683594 606.226562 400.167969 604.066406 L 401.804688 605.949219 C 399.28125 608.136719 396.667969 610.277344 394.039062 612.304688 Z M 198.367188 610.070312 C 195.777344 607.988281 193.210938 605.792969 190.738281 603.546875 L 192.410156 601.703125 C 194.851562 603.914062 197.378906 606.078125 199.929688 608.132812 Z M 409.1875 599.15625 L 407.445312 597.371094 C 409.789062 595.089844 412.105469 592.703125 414.332031 590.273438 L 416.167969 591.957031 C 413.910156 594.421875 411.558594 596.84375 409.1875 599.15625 Z M 183.5 596.59375 C 181.175781 594.230469 178.875 591.753906 176.664062 589.242188 L 178.539062 587.597656 C 180.714844 590.078125 182.984375 592.515625 185.277344 594.847656 Z M 422.742188 584.382812 L 420.816406 582.804688 C 422.886719 580.285156 424.929688 577.65625 426.890625 574.996094 L 428.898438 576.476562 C 426.910156 579.167969 424.839844 581.832031 422.742188 584.382812 Z M 170.246094 581.523438 C 168.199219 578.925781 166.183594 576.21875 164.25 573.480469 L 166.285156 572.042969 C 168.195312 574.746094 170.1875 577.417969 172.207031 579.984375 Z M 434.632812 568.261719 L 432.554688 566.886719 C 434.355469 564.164062 436.125 561.339844 437.816406 558.496094 L 439.957031 559.765625 C 438.25 562.644531 436.457031 565.503906 434.632812 568.261719 Z M 158.671875 565.140625 C 156.902344 562.351562 155.167969 559.460938 153.507812 556.546875 L 155.675781 555.316406 C 157.316406 558.195312 159.03125 561.050781 160.773438 563.804688 Z M 444.875 551.035156 L 442.675781 549.863281 C 444.207031 546.988281 445.710938 544.011719 447.140625 541.015625 L 449.390625 542.09375 C 447.941406 545.117188 446.421875 548.125 444.875 551.035156 Z M 148.753906 547.730469 C 147.257812 544.796875 145.789062 541.761719 144.394531 538.710938 L 146.660156 537.675781 C 148.042969 540.695312 149.492188 543.695312 150.972656 546.597656 Z M 453.515625 532.96875 L 451.222656 531.992188 C 452.511719 528.980469 453.753906 525.890625 454.917969 522.800781 L 457.25 523.683594 C 456.070312 526.800781 454.816406 529.925781 453.515625 532.96875 Z M 140.417969 529.515625 C 139.167969 526.453125 137.960938 523.304688 136.828125 520.160156 L 139.171875 519.320312 C 140.292969 522.429688 141.488281 525.546875 142.722656 528.578125 Z M 460.59375 514.25 L 458.226562 513.464844 C 459.257812 510.359375 460.242188 507.175781 461.15625 504 L 463.550781 504.6875 C 462.628906 507.898438 461.632812 511.113281 460.59375 514.25 Z M 133.625 510.667969 C 132.628906 507.515625 131.679688 504.28125 130.796875 501.054688 L 133.203125 500.398438 C 134.074219 503.59375 135.015625 506.796875 136 509.917969 Z M 466.132812 495.023438 L 463.710938 494.429688 C 464.496094 491.257812 465.234375 488.007812 465.90625 484.765625 L 468.347656 485.269531 C 467.667969 488.542969 466.921875 491.824219 466.132812 495.023438 Z M 128.34375 491.34375 C 127.59375 488.125 126.886719 484.832031 126.246094 481.550781 L 128.691406 481.070312 C 129.328125 484.324219 130.027344 487.589844 130.769531 490.777344 Z M 470.207031 475.4375 L 467.753906 475.019531 C 468.304688 471.792969 468.8125 468.492188 469.257812 465.210938 L 471.726562 465.546875 C 471.277344 468.859375 470.765625 472.1875 470.207031 475.4375 Z M 124.5 471.6875 C 123.980469 468.429688 123.507812 465.09375 123.09375 461.773438 L 125.566406 461.464844 C 125.976562 464.757812 126.449219 468.066406 126.960938 471.296875 Z M 472.914062 455.613281 L 470.433594 455.359375 C 470.769531 452.105469 471.058594 448.78125 471.296875 445.46875 L 473.78125 445.648438 C 473.542969 448.984375 473.253906 452.335938 472.914062 455.613281 Z M 122.011719 451.828125 C 121.707031 448.550781 121.449219 445.195312 121.242188 441.855469 L 123.730469 441.703125 C 123.933594 445.015625 124.191406 448.34375 124.492188 451.597656 Z M 474.34375 435.664062 L 471.855469 435.558594 C 471.988281 432.292969 472.078125 428.953125 472.121094 425.640625 L 474.613281 425.671875 C 474.570312 429.011719 474.480469 432.371094 474.34375 435.664062 Z M 120.777344 431.867188 C 120.671875 428.578125 120.613281 425.214844 120.601562 421.867188 L 123.09375 421.859375 C 123.105469 425.183594 123.164062 428.523438 123.269531 431.785156 Z M 472.105469 415.710938 C 472.058594 412.402344 471.960938 409.0625 471.816406 405.789062 L 474.304688 405.679688 C 474.449219 408.976562 474.546875 412.339844 474.597656 415.675781 Z M 123.195312 411.929688 L 120.707031 411.867188 C 120.789062 408.519531 120.921875 405.160156 121.097656 401.875 L 123.585938 402.011719 C 123.410156 405.269531 123.277344 408.605469 123.195312 411.929688 Z M 471.238281 395.878906 C 470.996094 392.574219 470.703125 389.246094 470.363281 385.992188 L 472.839844 385.734375 C 473.183594 389.011719 473.480469 392.367188 473.722656 395.695312 Z M 124.269531 392.109375 L 121.785156 391.898438 C 122.066406 388.570312 122.402344 385.222656 122.785156 381.945312 L 125.261719 382.234375 C 124.882812 385.484375 124.546875 388.808594 124.269531 392.109375 Z M 469.175781 376.140625 C 468.722656 372.851562 468.214844 369.550781 467.664062 366.324219 L 470.117188 365.902344 C 470.675781 369.15625 471.1875 372.484375 471.644531 375.800781 Z M 126.570312 372.398438 L 124.105469 372.027344 C 124.601562 368.730469 125.15625 365.410156 125.757812 362.164062 L 128.207031 362.621094 C 127.609375 365.839844 127.058594 369.125 126.570312 372.398438 Z M 465.816406 356.570312 C 465.144531 353.328125 464.410156 350.070312 463.628906 346.886719 L 466.046875 346.292969 C 466.835938 349.507812 467.578125 352.792969 468.257812 356.0625 Z M 130.183594 352.90625 L 127.75 352.367188 C 128.476562 349.105469 129.265625 345.832031 130.097656 342.644531 L 132.507812 343.273438 C 131.683594 346.433594 130.902344 349.671875 130.183594 352.90625 Z M 461.082031 337.296875 C 460.167969 334.105469 459.191406 330.914062 458.167969 327.8125 L 460.535156 327.035156 C 461.566406 330.167969 462.558594 333.390625 463.476562 336.609375 Z M 135.191406 333.734375 L 132.808594 333.015625 C 133.773438 329.816406 134.8125 326.613281 135.890625 323.492188 L 138.242188 324.308594 C 137.175781 327.394531 136.148438 330.566406 135.191406 333.734375 Z M 454.882812 318.449219 C 453.726562 315.351562 452.492188 312.25 451.21875 309.238281 L 453.515625 308.269531 C 454.800781 311.3125 456.046875 314.445312 457.21875 317.578125 Z M 141.667969 315.011719 L 139.347656 314.101562 C 140.425781 311.355469 141.5625 308.597656 142.730469 305.914062 L 143.195312 304.859375 L 145.472656 305.863281 L 145.015625 306.90625 C 143.859375 309.566406 142.734375 312.292969 141.667969 315.011719 Z M 447.175781 300.1875 C 445.757812 297.1875 444.269531 294.203125 442.75 291.320312 L 444.957031 290.160156 C 446.492188 293.078125 447.996094 296.09375 449.429688 299.125 Z M 149.65625 296.882812 L 147.421875 295.78125 C 148.902344 292.769531 150.457031 289.777344 152.039062 286.890625 L 154.226562 288.089844 C 152.660156 290.941406 151.125 293.902344 149.65625 296.882812 Z M 437.9375 282.664062 C 436.261719 279.808594 434.507812 276.972656 432.722656 274.242188 L 434.808594 272.878906 C 436.613281 275.644531 438.390625 278.511719 440.085938 281.402344 Z M 159.1875 279.515625 L 157.058594 278.214844 C 158.804688 275.355469 160.632812 272.519531 162.492188 269.789062 L 164.550781 271.191406 C 162.71875 273.886719 160.914062 276.6875 159.1875 279.515625 Z M 427.09375 266.089844 C 425.148438 263.414062 423.117188 260.773438 421.054688 258.238281 L 422.992188 256.667969 C 425.078125 259.238281 427.136719 261.914062 429.109375 264.621094 Z M 170.324219 263.148438 L 168.339844 261.644531 C 170.363281 258.976562 172.46875 256.34375 174.605469 253.820312 L 176.507812 255.429688 C 174.402344 257.921875 172.320312 260.519531 170.324219 263.148438 Z M 414.605469 250.726562 C 412.390625 248.28125 410.082031 245.882812 407.75 243.589844 L 409.5 241.8125 C 411.863281 244.136719 414.203125 246.574219 416.453125 249.050781 Z M 183.101562 248.058594 L 181.292969 246.347656 C 183.585938 243.921875 185.976562 241.535156 188.386719 239.257812 L 190.097656 241.070312 C 187.71875 243.316406 185.367188 245.667969 183.101562 248.058594 Z M 400.5 236.855469 C 398.023438 234.6875 395.457031 232.570312 392.871094 230.5625 L 394.398438 228.59375 C 397.023438 230.632812 399.628906 232.78125 402.140625 234.984375 Z M 197.488281 234.5 L 195.886719 232.589844 C 198.441406 230.449219 201.09375 228.359375 203.765625 226.375 L 205.25 228.375 C 202.617188 230.328125 200.003906 232.390625 197.488281 234.5 Z M 384.878906 224.734375 C 382.152344 222.875 379.347656 221.085938 376.542969 219.421875 L 377.8125 217.277344 C 380.664062 218.96875 383.515625 220.785156 386.285156 222.679688 Z M 213.367188 222.730469 L 212.007812 220.640625 C 214.8125 218.820312 217.703125 217.070312 220.597656 215.445312 L 221.816406 217.613281 C 218.96875 219.214844 216.125 220.9375 213.367188 222.730469 Z M 367.882812 214.65625 C 364.953125 213.167969 361.941406 211.761719 358.929688 210.476562 L 359.90625 208.183594 C 362.96875 209.492188 366.03125 210.921875 369.011719 212.433594 Z M 230.585938 213.0625 L 229.507812 210.816406 C 232.519531 209.375 235.617188 208.019531 238.710938 206.785156 L 239.632812 209.101562 C 236.59375 210.3125 233.546875 211.644531 230.585938 213.0625 Z M 349.714844 206.898438 C 348.765625 206.566406 347.8125 206.246094 346.855469 205.929688 L 347.632812 203.5625 C 348.605469 203.882812 349.574219 204.210938 350.539062 204.546875 Z M 248.929688 205.75 L 248.164062 203.378906 C 251.332031 202.359375 254.578125 201.425781 257.824219 200.613281 L 258.429688 203.027344 C 255.238281 203.828125 252.042969 204.746094 248.929688 205.75 Z M 268.09375 200.929688 L 267.644531 198.480469 C 270.90625 197.882812 274.246094 197.378906 277.578125 196.980469 L 277.875 199.457031 C 274.59375 199.847656 271.304688 200.34375 268.09375 200.929688 Z M 287.730469 198.585938 L 287.585938 196.101562 C 290.882812 195.910156 294.257812 195.8125 297.621094 195.8125 L 297.621094 198.304688 C 294.308594 198.304688 290.980469 198.398438 287.730469 198.585938 Z M 287.730469 198.585938 " fill-opacity="1" fill-rule="nonzero"/><path fill="#58595b" d="M 349.316406 216.035156 L 356.777344 197.058594 L 336.605469 200.085938 Z M 349.316406 216.035156 " fill-opacity="1" fill-rule="nonzero"/><path fill="#414042" d="M 324.234375 198.296875 C 324.234375 199.117188 324.191406 199.933594 324.113281 200.75 C 324.03125 201.566406 323.914062 202.378906 323.753906 203.183594 C 323.59375 203.988281 323.394531 204.78125 323.15625 205.566406 C 322.917969 206.351562 322.640625 207.121094 322.328125 207.878906 C 322.011719 208.636719 321.664062 209.378906 321.277344 210.101562 C 320.890625 210.824219 320.46875 211.527344 320.011719 212.210938 C 319.554688 212.890625 319.066406 213.550781 318.546875 214.183594 C 318.027344 214.816406 317.476562 215.425781 316.894531 216.003906 C 316.316406 216.585938 315.707031 217.136719 315.074219 217.65625 C 314.441406 218.175781 313.78125 218.664062 313.101562 219.121094 C 312.417969 219.574219 311.714844 219.996094 310.992188 220.382812 C 310.269531 220.769531 309.527344 221.121094 308.769531 221.433594 C 308.011719 221.746094 307.238281 222.023438 306.453125 222.261719 C 305.667969 222.5 304.875 222.699219 304.070312 222.859375 C 303.265625 223.019531 302.453125 223.140625 301.636719 223.21875 C 300.820312 223.300781 300.003906 223.339844 299.183594 223.339844 C 298.363281 223.339844 297.542969 223.300781 296.726562 223.21875 C 295.910156 223.140625 295.101562 223.019531 294.296875 222.859375 C 293.492188 222.699219 292.695312 222.5 291.910156 222.261719 C 291.125 222.023438 290.355469 221.746094 289.59375 221.433594 C 288.835938 221.121094 288.097656 220.769531 287.375 220.382812 C 286.648438 219.996094 285.945312 219.574219 285.265625 219.121094 C 284.582031 218.664062 283.925781 218.175781 283.289062 217.65625 C 282.65625 217.136719 282.046875 216.585938 281.46875 216.003906 C 280.886719 215.425781 280.339844 214.816406 279.816406 214.183594 C 279.296875 213.550781 278.808594 212.890625 278.351562 212.210938 C 277.898438 211.527344 277.476562 210.824219 277.089844 210.101562 C 276.703125 209.378906 276.351562 208.636719 276.039062 207.878906 C 275.722656 207.121094 275.449219 206.351562 275.210938 205.566406 C 274.972656 204.78125 274.773438 203.988281 274.613281 203.183594 C 274.453125 202.378906 274.332031 201.566406 274.25 200.75 C 274.171875 199.933594 274.132812 199.117188 274.132812 198.296875 C 274.132812 197.476562 274.171875 196.65625 274.25 195.839844 C 274.332031 195.023438 274.453125 194.214844 274.613281 193.410156 C 274.773438 192.605469 274.972656 191.8125 275.210938 191.027344 C 275.449219 190.242188 275.722656 189.46875 276.039062 188.710938 C 276.351562 187.953125 276.703125 187.214844 277.089844 186.492188 C 277.476562 185.765625 277.898438 185.066406 278.351562 184.382812 C 278.808594 183.699219 279.296875 183.042969 279.816406 182.410156 C 280.339844 181.773438 280.886719 181.167969 281.46875 180.585938 C 282.046875 180.007812 282.65625 179.457031 283.289062 178.9375 C 283.925781 178.417969 284.582031 177.929688 285.265625 177.472656 C 285.945312 177.019531 286.648438 176.597656 287.375 176.210938 C 288.097656 175.824219 288.835938 175.472656 289.59375 175.160156 C 290.355469 174.84375 291.125 174.570312 291.910156 174.332031 C 292.695312 174.09375 293.492188 173.894531 294.296875 173.734375 C 295.101562 173.574219 295.910156 173.453125 296.726562 173.375 C 297.542969 173.292969 298.363281 173.253906 299.183594 173.253906 C 300.003906 173.253906 300.820312 173.292969 301.636719 173.375 C 302.453125 173.453125 303.265625 173.574219 304.070312 173.734375 C 304.875 173.894531 305.667969 174.09375 306.453125 174.332031 C 307.238281 174.570312 308.011719 174.84375 308.769531 175.160156 C 309.527344 175.472656 310.269531 175.824219 310.992188 176.210938 C 311.714844 176.597656 312.417969 177.019531 313.101562 177.472656 C 313.78125 177.929688 314.441406 178.417969 315.074219 178.9375 C 315.707031 179.457031 316.316406 180.007812 316.894531 180.585938 C 317.476562 181.167969 318.027344 181.773438 318.546875 182.410156 C 319.066406 183.042969 319.554688 183.699219 320.011719 184.382812 C 320.46875 185.066406 320.886719 185.765625 321.277344 186.492188 C 321.664062 187.214844 322.011719 187.953125 322.328125 188.710938 C 322.640625 189.46875 322.917969 190.242188 323.15625 191.027344 C 323.394531 191.8125 323.59375 192.605469 323.753906 193.410156 C 323.914062 194.214844 324.03125 195.023438 324.113281 195.839844 C 324.191406 196.65625 324.234375 197.476562 324.234375 198.296875 Z M 324.234375 198.296875 " fill-opacity="1" fill-rule="nonzero"/><path fill="#fcfcfc" d="M 302.082031 181.152344 L 298.867188 181.152344 C 298.5 181.152344 298.15625 181.3125 297.917969 181.589844 L 288.445312 192.664062 C 288.027344 193.160156 288.050781 193.894531 288.515625 194.355469 L 290.316406 196.15625 C 290.800781 196.636719 291.585938 196.636719 292.070312 196.160156 L 297.621094 190.679688 L 297.621094 214.679688 C 297.621094 215.367188 298.179688 215.925781 298.867188 215.925781 L 302.082031 215.925781 C 302.769531 215.925781 303.328125 215.367188 303.328125 214.679688 L 303.328125 182.398438 C 303.328125 181.710938 302.769531 181.152344 302.082031 181.152344 Z M 302.082031 181.152344 " fill-opacity="1" fill-rule="nonzero"/><path fill="#58595b" d="M 462.125 659.648438 L 457.664062 639.75 L 442.65625 653.558594 Z M 462.125 659.648438 " fill-opacity="1" fill-rule="nonzero"/><path fill="#414042" d="M 367.484375 539.296875 C 367.484375 540.117188 367.441406 540.9375 367.363281 541.753906 C 367.28125 542.570312 367.164062 543.378906 367.003906 544.183594 C 366.84375 544.988281 366.644531 545.78125 366.40625 546.566406 C 366.167969 547.351562 365.890625 548.125 365.578125 548.882812 C 365.261719 549.640625 364.914062 550.378906 364.527344 551.101562 C 364.140625 551.824219 363.71875 552.527344 363.261719 553.210938 C 362.804688 553.894531 362.316406 554.550781 361.796875 555.183594 C 361.277344 555.820312 360.726562 556.425781 360.144531 557.003906 C 359.566406 557.585938 358.957031 558.136719 358.324219 558.65625 C 357.691406 559.175781 357.03125 559.664062 356.351562 560.121094 C 355.667969 560.574219 354.964844 560.996094 354.242188 561.382812 C 353.519531 561.769531 352.777344 562.121094 352.019531 562.433594 C 351.261719 562.75 350.488281 563.023438 349.703125 563.261719 C 348.917969 563.5 348.125 563.699219 347.320312 563.859375 C 346.515625 564.019531 345.703125 564.140625 344.886719 564.21875 C 344.070312 564.300781 343.253906 564.339844 342.433594 564.339844 C 341.613281 564.339844 340.792969 564.300781 339.976562 564.21875 C 339.160156 564.140625 338.351562 564.019531 337.546875 563.859375 C 336.742188 563.699219 335.945312 563.5 335.160156 563.261719 C 334.375 563.023438 333.605469 562.75 332.847656 562.433594 C 332.085938 562.121094 331.347656 561.769531 330.625 561.382812 C 329.898438 560.996094 329.195312 560.574219 328.515625 560.121094 C 327.832031 559.664062 327.175781 559.175781 326.539062 558.65625 C 325.90625 558.136719 325.296875 557.585938 324.71875 557.003906 C 324.136719 556.425781 323.589844 555.820312 323.066406 555.183594 C 322.546875 554.550781 322.058594 553.894531 321.601562 553.210938 C 321.148438 552.527344 320.726562 551.828125 320.339844 551.101562 C 319.953125 550.378906 319.601562 549.640625 319.289062 548.882812 C 318.972656 548.125 318.699219 547.351562 318.460938 546.566406 C 318.222656 545.78125 318.023438 544.988281 317.863281 544.183594 C 317.703125 543.378906 317.582031 542.570312 317.503906 541.753906 C 317.421875 540.9375 317.382812 540.117188 317.382812 539.296875 C 317.382812 538.476562 317.421875 537.660156 317.503906 536.84375 C 317.582031 536.027344 317.703125 535.214844 317.863281 534.410156 C 318.023438 533.605469 318.222656 532.8125 318.460938 532.027344 C 318.699219 531.242188 318.972656 530.472656 319.289062 529.714844 C 319.601562 528.957031 319.953125 528.214844 320.339844 527.492188 C 320.726562 526.769531 321.148438 526.066406 321.601562 525.382812 C 322.058594 524.703125 322.546875 524.042969 323.066406 523.410156 C 323.589844 522.777344 324.136719 522.167969 324.71875 521.589844 C 325.296875 521.007812 325.90625 520.457031 326.539062 519.9375 C 327.175781 519.417969 327.832031 518.929688 328.515625 518.472656 C 329.195312 518.019531 329.898438 517.597656 330.625 517.210938 C 331.347656 516.824219 332.085938 516.472656 332.847656 516.160156 C 333.605469 515.847656 334.375 515.570312 335.160156 515.332031 C 335.945312 515.09375 336.742188 514.894531 337.546875 514.734375 C 338.351562 514.574219 339.160156 514.453125 339.976562 514.375 C 340.792969 514.292969 341.613281 514.253906 342.433594 514.253906 C 343.253906 514.253906 344.070312 514.292969 344.886719 514.375 C 345.703125 514.453125 346.515625 514.574219 347.320312 514.734375 C 348.125 514.894531 348.917969 515.09375 349.703125 515.332031 C 350.488281 515.570312 351.261719 515.847656 352.019531 516.160156 C 352.777344 516.472656 353.519531 516.824219 354.242188 517.210938 C 354.964844 517.597656 355.667969 518.019531 356.351562 518.472656 C 357.03125 518.929688 357.691406 519.417969 358.324219 519.9375 C 358.957031 520.457031 359.566406 521.007812 360.144531 521.589844 C 360.726562 522.167969 361.277344 522.777344 361.796875 523.410156 C 362.316406 524.042969 362.804688 524.703125 363.261719 525.382812 C 363.71875 526.066406 364.140625 526.769531 364.527344 527.492188 C 364.914062 528.214844 365.261719 528.957031 365.578125 529.714844 C 365.890625 530.472656 366.167969 531.242188 366.40625 532.027344 C 366.644531 532.8125 366.84375 533.605469 367.003906 534.410156 C 367.164062 535.214844 367.28125 536.027344 367.363281 536.84375 C 367.441406 537.660156 367.484375 538.476562 367.484375 539.296875 Z M 367.484375 539.296875 " fill-opacity="1" fill-rule="nonzero"/><path fill="#fcfcfc" d="M 352.472656 551.214844 L 338.386719 551.214844 C 338.570312 550.875 338.820312 550.527344 339.144531 550.171875 C 340.03125 549.191406 341.453125 547.894531 343.371094 546.320312 L 343.347656 546.296875 C 343.636719 546.09375 343.957031 545.820312 344.324219 545.507812 C 347.039062 543.210938 349.210938 540.957031 350.777344 538.804688 C 352.441406 536.519531 353.289062 533.882812 353.289062 530.972656 C 353.289062 528.09375 352.304688 525.75 350.367188 524.007812 C 348.464844 522.308594 345.917969 521.445312 342.808594 521.445312 C 340.628906 521.445312 338.496094 521.984375 336.472656 523.058594 C 334.472656 524.117188 332.757812 525.613281 331.386719 527.492188 C 331.003906 528.019531 331.089844 528.75 331.585938 529.171875 L 334.191406 531.398438 C 334.449219 531.621094 334.777344 531.734375 335.140625 531.6875 C 335.480469 531.648438 335.789062 531.472656 335.996094 531.195312 C 336.996094 529.847656 338.082031 528.816406 339.222656 528.132812 C 341.40625 526.804688 344.453125 526.808594 346.019531 528.226562 C 346.78125 528.914062 347.148438 529.8125 347.148438 530.972656 C 347.148438 532.917969 346.664062 534.574219 345.660156 536.046875 C 344.601562 537.613281 343.066406 539.25 341.078125 540.9375 C 340.96875 541.027344 340.453125 541.457031 339.507812 542.222656 C 337.875 543.570312 336.539062 544.75 335.542969 545.726562 C 334.511719 546.742188 333.636719 547.910156 332.933594 549.1875 C 332.1875 550.554688 331.808594 552.054688 331.808594 553.644531 L 331.808594 555.679688 C 331.808594 556.367188 332.367188 556.925781 333.054688 556.925781 L 352.46875 556.925781 C 353.15625 556.925781 353.714844 556.367188 353.714844 555.679688 L 353.714844 552.457031 C 353.71875 551.773438 353.15625 551.214844 352.472656 551.214844 Z M 352.472656 551.214844 " fill-opacity="1" fill-rule="nonzero"/></svg>