<svg xmlns="http://www.w3.org/2000/svg" xmlns:xlink="http://www.w3.org/1999/xlink" width="800" zoomAndPan="magnify" viewBox="0 0 600 899.99999" height="1200" preserveAspectRatio="xMidYMid meet" version="1.0"><defs><g/><clipPath id="9b3a936a4f"><path d="M 286.601562 182.785156 L 313.394531 182.785156 L 313.394531 224.03125 L 286.601562 224.03125 Z M 286.601562 182.785156 " clip-rule="nonzero"/></clipPath><clipPath id="757fbdadc0"><path d="M 362 681 L 398 681 L 398 715 L 362 715 Z M 362 681 " clip-rule="nonzero"/></clipPath><clipPath id="5937d47a3a"><path d="M 396.222656 680.332031 L 411.046875 702.898438 L 376.574219 725.546875 L 361.746094 702.980469 Z M 396.222656 680.332031 " clip-rule="nonzero"/></clipPath><clipPath id="076923fe1b"><path d="M 396.222656 680.332031 L 411.046875 702.898438 L 376.574219 725.546875 L 361.746094 702.980469 Z M 396.222656 680.332031 " clip-rule="nonzero"/></clipPath><clipPath id="2d232f14ca"><path d="M 396.21875 680.335938 L 410.929688 702.726562 L 376.296875 725.480469 L 361.585938 703.089844 Z M 396.21875 680.335938 " clip-rule="nonzero"/></clipPath></defs><path stroke-linecap="butt" transform="matrix(0.75, 0, 0, 0.75, 3.861331, -75.449215)" fill="none" stroke-linejoin="miter" d="M 667.059927 1147.713597 C 676.393261 1162.447973 679.992219 1175.796932 677.862011 1187.750057 C 675.898469 1199.864641 670.575552 1210.099017 661.898468 1218.447976 C 653.221384 1226.963601 642.497425 1232.364643 629.726591 1234.65631 C 616.955757 1236.947977 604.184923 1235.557352 591.414089 1230.484435 C 578.804714 1225.572976 568.080755 1216.072976 559.237004 1201.99485 L 489.976584 1090.244844 C 480.481792 1074.854218 467.872416 1063.307343 452.153665 1055.614634 C 436.434915 1047.916717 417.19533 1044.067758 394.440121 1044.067758 L 493.908876 1004.770881 C 525.507836 1004.770881 550.643254 1010.33859 569.309922 1021.474007 C 588.138048 1032.442758 606.309924 1051.682342 623.830758 1079.19276 Z M 395.419288 1044.067758 C 326.981784 1044.067758 267.054697 1029.005258 215.638028 998.880256 C 164.388025 968.588588 124.684898 926.182335 96.523439 871.656291 C 68.361979 816.968788 54.278645 752.70316 54.278645 678.859406 C 54.278645 623.187528 62.299478 573.083359 78.346354 528.546898 C 94.554688 483.848979 117.559898 445.614602 147.361983 413.854184 C 177.164068 381.92189 213.018236 357.447931 254.934905 340.41668 C 296.851574 323.223971 343.679701 314.63022 395.419288 314.63022 C 464.518249 314.63022 524.528669 329.609388 575.445339 359.572931 C 626.367216 389.375016 665.914093 431.453143 694.075553 485.812521 C 722.237013 540.01044 736.320347 604.031277 736.320347 677.875031 C 736.320347 733.546909 728.294305 783.89587 712.247429 828.921914 C 696.200553 873.786499 673.195344 912.343793 643.2318 944.599003 C 613.434924 976.692755 577.575547 1001.333381 535.658878 1018.52609 C 493.742209 1035.557341 446.997415 1044.067758 395.419288 1044.067758 Z M 395.419288 933.302128 C 438.976581 933.302128 475.976583 923.312544 506.434918 903.338584 C 537.049503 883.197958 560.549505 854.057332 576.919297 815.906288 C 593.294298 777.588578 601.481798 731.906284 601.481798 678.859406 C 601.481798 598.463568 583.554714 536.161482 547.695337 491.953146 C 511.83596 447.583352 461.080749 425.395851 395.419288 425.395851 C 352.523452 425.395851 315.601575 435.302101 284.653657 455.114602 C 253.872405 474.927104 230.210946 503.744813 213.674486 541.567732 C 197.299485 579.390651 189.111985 625.15107 189.111985 678.859406 C 189.111985 758.760452 207.205736 821.145872 243.393238 866.005249 C 279.575531 910.869835 330.252617 933.302128 395.419288 933.302128 Z M 395.419288 933.302128 " stroke="#1f8785" stroke-width="40.239601" stroke-opacity="1" stroke-miterlimit="4"/><g fill="#ffffff" fill-opacity="1"><g transform="translate(3.861331, 700.050744)"><g><path d="M 500.234375 85.265625 C 507.273438 96.328125 510.039062 106.382812 508.53125 115.4375 C 507.019531 124.488281 502.992188 132.15625 496.453125 138.4375 C 489.921875 144.726562 481.875 148.753906 472.3125 150.515625 C 462.757812 152.273438 453.203125 151.269531 443.640625 147.5 C 434.085938 143.726562 426.039062 136.5625 419.5 126 L 367.4375 42.25 C 360.394531 30.6875 350.960938 22.007812 339.140625 16.21875 C 327.328125 10.4375 312.867188 7.546875 295.765625 7.546875 L 370.453125 -21.875 C 394.097656 -21.875 412.960938 -17.722656 427.046875 -9.421875 C 441.128906 -1.128906 454.710938 13.328125 467.796875 33.953125 Z M 296.515625 7.546875 C 245.210938 7.546875 200.320312 -3.769531 161.84375 -26.40625 C 123.363281 -49.039062 93.5625 -80.851562 72.4375 -121.84375 C 51.3125 -162.84375 40.75 -211.007812 40.75 -266.34375 C 40.75 -308.09375 46.78125 -345.691406 58.84375 -379.140625 C 70.914062 -412.585938 88.144531 -441.253906 110.53125 -465.140625 C 132.914062 -489.035156 159.828125 -507.394531 191.265625 -520.21875 C 222.703125 -533.050781 257.785156 -539.46875 296.515625 -539.46875 C 348.328125 -539.46875 393.347656 -528.273438 431.578125 -505.890625 C 469.804688 -483.503906 499.484375 -451.941406 520.609375 -411.203125 C 541.734375 -370.460938 552.296875 -322.425781 552.296875 -267.09375 C 552.296875 -225.34375 546.257812 -187.613281 534.1875 -153.90625 C 522.113281 -120.207031 504.882812 -91.285156 482.5 -67.140625 C 460.113281 -43.003906 433.203125 -24.519531 401.765625 -11.6875 C 370.328125 1.132812 335.242188 7.546875 296.515625 7.546875 Z M 296.515625 -75.453125 C 329.210938 -75.453125 357.003906 -82.992188 379.890625 -98.078125 C 402.773438 -113.171875 420.378906 -135.050781 432.703125 -163.71875 C 445.023438 -192.394531 451.1875 -226.601562 451.1875 -266.34375 C 451.1875 -326.695312 437.726562 -373.472656 410.8125 -406.671875 C 383.90625 -439.867188 345.804688 -456.46875 296.515625 -456.46875 C 264.328125 -456.46875 236.660156 -449.046875 213.515625 -434.203125 C 190.378906 -419.367188 172.648438 -397.742188 160.328125 -369.328125 C 148.003906 -340.910156 141.84375 -306.582031 141.84375 -266.34375 C 141.84375 -206.476562 155.421875 -159.695312 182.578125 -126 C 209.742188 -92.300781 247.722656 -75.453125 296.515625 -75.453125 Z M 296.515625 -75.453125 "/></g></g></g><g clip-path="url(#9b3a936a4f)"><path fill="#1f8785" d="M 287.347656 204.886719 L 310.039062 223.550781 C 311.746094 224.953125 314.15625 223.019531 313.15625 221.046875 L 304.617188 204.238281 C 304.324219 203.65625 304.324219 202.96875 304.617188 202.386719 L 313.15625 185.574219 C 314.160156 183.601562 311.75 181.667969 310.039062 183.074219 L 287.347656 201.734375 C 286.351562 202.550781 286.351562 204.070312 287.347656 204.886719 " fill-opacity="1" fill-rule="nonzero"/></g><path fill="#1f8785" d="M 90.484375 452.648438 C 90.273438 439.988281 90.515625 427.785156 91.210938 416.046875 L 103.191406 416.753906 C 102.515625 428.195312 102.277344 440.089844 102.480469 452.449219 Z M 92.101562 403.988281 C 93.21875 391.316406 94.894531 379.207031 97.128906 367.664062 L 108.910156 369.941406 C 106.753906 381.082031 105.136719 392.785156 104.054688 405.046875 Z M 99.664062 355.800781 C 102.59375 343.347656 106.214844 331.59375 110.527344 320.542969 L 121.707031 324.90625 C 117.597656 335.429688 114.144531 346.644531 111.347656 358.546875 Z M 115.308594 309.207031 C 120.570312 297.632812 126.664062 286.902344 133.589844 277.015625 L 143.417969 283.902344 C 136.917969 293.183594 131.1875 303.273438 126.234375 314.171875 Z M 141.050781 267.09375 C 148.878906 257.378906 157.613281 248.59375 167.246094 240.738281 L 174.832031 250.035156 C 165.84375 257.367188 157.699219 265.5625 150.394531 274.625 Z M 177.105469 233.238281 C 187 226.234375 197.726562 220.101562 209.289062 214.84375 L 214.257812 225.765625 C 203.386719 230.710938 193.3125 236.464844 184.042969 243.03125 Z M 220.679688 210.050781 C 231.71875 205.765625 243.453125 202.207031 255.878906 199.378906 L 258.542969 211.078125 C 246.6875 213.777344 235.515625 217.164062 225.023438 221.238281 Z M 220.679688 210.050781 " fill-opacity="1" fill-rule="nonzero"/><path fill="#1f8785" d="M 312.652344 671.472656 C 300.066406 669.902344 288.015625 667.945312 276.503906 665.597656 L 278.902344 653.839844 C 290.113281 656.125 301.855469 658.035156 314.132812 659.5625 Z M 264.707031 663.007812 C 252.292969 660.085938 240.539062 656.679688 229.449219 652.789062 L 233.421875 641.464844 C 244.109375 645.214844 255.457031 648.503906 267.453125 651.328125 Z M 218.097656 648.542969 C 206.183594 643.800781 195.097656 638.449219 184.839844 632.484375 L 190.875 622.109375 C 200.617188 627.777344 211.171875 632.871094 222.539062 637.394531 Z M 174.34375 625.972656 C 163.722656 618.953125 154.101562 611.199219 145.484375 602.707031 L 153.90625 594.160156 C 161.96875 602.101562 170.988281 609.371094 180.960938 615.960938 Z M 136.960938 593.699219 C 128.714844 584.347656 121.558594 574.207031 115.496094 563.28125 L 125.988281 557.460938 C 131.632812 567.628906 138.289062 577.0625 145.960938 585.765625 Z M 109.871094 552.25 C 104.761719 541.3125 100.652344 529.664062 97.546875 517.304688 L 109.183594 514.378906 C 112.101562 525.996094 115.957031 536.929688 120.742188 547.171875 Z M 94.867188 505.203125 C 92.636719 493.597656 91.226562 481.414062 90.640625 468.644531 L 102.628906 468.09375 C 103.1875 480.285156 104.527344 491.898438 106.652344 502.933594 Z M 94.867188 505.203125 " fill-opacity="1" fill-rule="nonzero"/><path fill="#1f8785" d="M 511.457031 427.554688 C 511.511719 440.246094 511.101562 452.449219 510.230469 464.164062 L 498.265625 463.273438 C 499.109375 451.871094 499.507812 439.980469 499.457031 427.605469 Z M 509.15625 476.1875 C 507.828125 488.882812 505.925781 500.976562 503.449219 512.464844 L 491.71875 509.9375 C 494.105469 498.871094 495.941406 487.203125 497.222656 474.9375 Z M 500.644531 524.273438 C 497.414062 536.6875 493.460938 548.34375 488.785156 559.238281 L 477.757812 554.507812 C 482.195312 544.167969 485.953125 533.082031 489.03125 521.25 Z M 483.578125 570.464844 C 477.875 581.859375 471.296875 592.328125 463.847656 601.878906 L 454.386719 594.496094 C 461.347656 585.574219 467.5 575.773438 472.847656 565.09375 Z M 455.875 611.378906 C 447.527344 620.628906 438.242188 628.878906 428.027344 636.125 L 421.085938 626.339844 C 430.582031 619.601562 439.207031 611.933594 446.96875 603.335938 Z M 417.679688 642.933594 C 407.386719 649.199219 396.253906 654.558594 384.289062 659 L 380.109375 647.753906 C 391.359375 643.574219 401.800781 638.550781 411.441406 632.683594 Z M 372.585938 662.976562 C 361.289062 666.46875 349.308594 669.214844 336.648438 671.214844 L 334.773438 659.359375 C 346.871094 657.449219 358.292969 654.832031 369.042969 651.511719 Z M 372.585938 662.976562 " fill-opacity="1" fill-rule="nonzero"/><path fill="#1f8785" d="M 360.089844 197.824219 C 371.6875 202.90625 382.617188 208.339844 392.882812 214.117188 L 386.996094 224.574219 C 377.078125 218.992188 366.503906 213.738281 355.273438 208.816406 Z M 403.46875 220.34375 C 414.28125 226.992188 424.285156 234.066406 433.476562 241.5625 L 425.894531 250.863281 C 417.113281 243.699219 407.542969 236.9375 397.183594 230.566406 Z M 442.8125 249.570312 C 452.203125 258.050781 460.632812 267.03125 468.105469 276.511719 L 458.679688 283.941406 C 451.625 274.988281 443.65625 266.5 434.769531 258.476562 Z M 475.457031 286.449219 C 482.550781 296.683594 488.605469 307.457031 493.613281 318.765625 L 482.640625 323.625 C 477.9375 313.007812 472.257812 302.894531 465.59375 293.285156 Z M 498.257812 330.222656 C 502.476562 341.632812 505.691406 353.546875 507.90625 365.972656 L 496.089844 368.078125 C 494.003906 356.355469 490.972656 345.125 487.003906 334.382812 Z M 509.730469 378.128906 C 510.65625 385.664062 511.234375 393.371094 511.457031 401.257812 L 499.464844 401.601562 C 499.25 394.089844 498.699219 386.753906 497.820312 379.59375 Z M 509.730469 378.128906 " fill-opacity="1" fill-rule="nonzero"/><g clip-path="url(#757fbdadc0)"><g clip-path="url(#5937d47a3a)"><g clip-path="url(#076923fe1b)"><g clip-path="url(#2d232f14ca)"><path fill="#1f8785" d="M 394.519531 712.613281 L 397.65625 683.402344 C 397.894531 681.203125 394.953125 680.25 393.855469 682.171875 L 384.492188 698.539062 C 384.171875 699.101562 383.597656 699.480469 382.949219 699.554688 L 364.207031 701.648438 C 362.007812 701.894531 361.714844 704.96875 363.828125 705.628906 L 391.886719 714.347656 C 393.113281 714.726562 394.382812 713.894531 394.519531 712.613281 " fill-opacity="1" fill-rule="nonzero"/></g></g></g></g><path fill="#1f8785" d="M 472.835938 828.46875 L 451.914062 799.171875 L 461.675781 792.199219 L 482.601562 821.492188 M 444.9375 789.410156 L 424.011719 760.113281 L 433.777344 753.140625 L 454.703125 782.433594 M 417.039062 750.347656 L 400.054688 726.574219 L 409.820312 719.601562 L 426.800781 743.375 " fill-opacity="1" fill-rule="nonzero"/></svg>