<svg xmlns="http://www.w3.org/2000/svg" xmlns:xlink="http://www.w3.org/1999/xlink" width="794" zoomAndPan="magnify" viewBox="0 0 594.95996 842.24997" height="1123" preserveAspectRatio="xMidYMid meet" version="1.0"><defs><clipPath id="dda7a9d12e"><path d="M 71.722656 94.566406 L 521 94.566406 L 521 746.484375 L 71.722656 746.484375 Z M 71.722656 94.566406 " clip-rule="nonzero"/></clipPath></defs><path fill="#ffffff" d="M 448.828125 740.308594 C 425.484375 740.308594 403.757812 727.742188 392.125 707.511719 L 267.488281 490.710938 L 213.945312 490.710938 L 213.945312 672.214844 C 213.945312 709.761719 183.390625 740.308594 145.832031 740.308594 C 108.269531 740.308594 77.714844 709.761719 77.714844 672.214844 L 77.714844 165.042969 C 77.714844 129.601562 106.554688 100.769531 142.007812 100.769531 L 303.835938 100.769531 C 343.863281 100.769531 379.941406 108.828125 411.074219 124.71875 C 443.4375 141.238281 468.664062 164.957031 486.054688 195.207031 C 503.082031 224.84375 511.714844 258.804688 511.714844 296.152344 C 511.714844 342.558594 497.332031 383.097656 468.960938 416.648438 C 451.203125 437.644531 429.527344 454.429688 404.324219 466.722656 L 505.492188 642.296875 C 517.285156 662.765625 517.269531 687.195312 505.445312 707.648438 C 493.621094 728.101562 472.457031 740.308594 448.828125 740.308594 Z M 295.550781 365.292969 C 322.175781 365.292969 341.214844 359.285156 353.746094 346.925781 C 366.3125 334.53125 372.167969 318.398438 372.167969 296.152344 C 372.167969 273.804688 366.253906 257.480469 353.554688 244.777344 C 341.035156 232.265625 322.058594 226.183594 295.550781 226.183594 L 213.945312 226.183594 L 213.945312 365.292969 Z M 295.550781 365.292969 " fill-opacity="1" fill-rule="nonzero"/><g clip-path="url(#dda7a9d12e)"><path fill="#000000" d="M 303.835938 100.769531 C 343.859375 100.769531 379.941406 108.828125 411.074219 124.71875 C 443.433594 141.238281 468.664062 164.957031 486.050781 195.207031 C 503.078125 224.84375 511.710938 258.804688 511.710938 296.15625 C 511.710938 342.558594 497.332031 383.097656 468.960938 416.648438 C 451.203125 437.648438 429.527344 454.429688 404.324219 466.722656 L 505.492188 642.296875 C 517.285156 662.765625 517.265625 687.195312 505.445312 707.648438 C 493.621094 728.101562 472.457031 740.308594 448.828125 740.308594 C 425.484375 740.308594 403.757812 727.742188 392.125 707.511719 L 267.488281 490.710938 L 213.945312 490.710938 L 213.945312 672.214844 C 213.945312 709.761719 183.390625 740.308594 145.832031 740.308594 C 108.269531 740.308594 77.714844 709.761719 77.714844 672.214844 L 77.714844 165.042969 C 77.714844 129.601562 106.554688 100.769531 142.007812 100.769531 L 303.835938 100.769531 M 213.945312 365.292969 L 295.550781 365.292969 C 322.175781 365.292969 341.214844 359.285156 353.746094 346.925781 C 366.3125 334.53125 372.167969 318.398438 372.167969 296.152344 C 372.167969 273.804688 366.253906 257.480469 353.554688 244.777344 C 341.035156 232.265625 322.058594 226.183594 295.550781 226.183594 L 213.945312 226.183594 L 213.945312 365.292969 M 303.835938 94.777344 L 142.007812 94.777344 C 103.253906 94.777344 71.722656 126.296875 71.722656 165.042969 L 71.722656 672.214844 C 71.722656 713.066406 104.96875 746.300781 145.832031 746.300781 C 186.691406 746.300781 219.9375 713.066406 219.9375 672.214844 L 219.9375 496.703125 L 264.019531 496.703125 L 386.929688 710.496094 C 399.625 732.582031 423.34375 746.300781 448.828125 746.300781 C 474.621094 746.300781 497.726562 732.972656 510.632812 710.648438 C 523.542969 688.320312 523.5625 661.648438 510.6875 639.304688 L 412.675781 469.210938 C 436.183594 456.859375 456.636719 440.503906 473.539062 420.515625 C 502.847656 385.859375 517.707031 344.019531 517.707031 296.15625 C 517.707031 257.746094 508.804688 222.78125 491.25 192.222656 C 473.273438 160.949219 447.214844 136.441406 413.796875 119.382812 C 381.8125 103.054688 344.816406 94.777344 303.835938 94.777344 Z M 219.9375 232.175781 L 295.550781 232.175781 C 320.386719 232.175781 337.976562 237.683594 349.316406 249.015625 C 360.816406 260.515625 366.175781 275.496094 366.175781 296.15625 C 366.175781 316.691406 360.886719 331.46875 349.539062 342.664062 C 338.183594 353.859375 320.523438 359.300781 295.550781 359.300781 L 219.9375 359.300781 Z M 219.9375 232.175781 " fill-opacity="1" fill-rule="nonzero"/></g><path fill="#58595b" d="M 458.242188 692.554688 L 452.257812 682.167969 L 454.855469 680.671875 L 460.839844 691.058594 Z M 446.277344 671.785156 L 440.292969 661.398438 L 442.890625 659.90625 L 448.871094 670.289062 Z M 434.308594 651.015625 L 428.324219 640.632812 L 430.921875 639.136719 L 436.90625 649.519531 Z M 422.339844 630.246094 L 416.359375 619.863281 L 418.953125 618.367188 L 424.9375 628.75 Z M 410.375 609.476562 L 404.390625 599.09375 L 406.988281 597.597656 L 412.972656 607.984375 Z M 398.40625 588.707031 L 392.421875 578.324219 L 395.019531 576.828125 L 401.003906 587.214844 Z M 386.441406 567.941406 L 380.457031 557.554688 L 383.054688 556.058594 L 389.035156 566.445312 Z M 374.472656 547.171875 L 368.488281 536.785156 L 371.085938 535.289062 L 377.070312 545.675781 Z M 362.503906 526.402344 L 356.523438 516.015625 L 359.121094 514.519531 L 365.101562 524.90625 Z M 350.539062 505.632812 L 344.554688 495.246094 L 347.152344 493.753906 L 353.136719 504.136719 Z M 338.570312 484.863281 L 332.589844 474.480469 L 335.183594 472.984375 L 341.167969 483.367188 Z M 326.605469 464.09375 L 323.632812 458.933594 L 326.226562 457.441406 L 329.199219 462.597656 Z M 326.605469 464.09375 " fill-opacity="1" fill-rule="nonzero"/><path fill="#58595b" d="M 284.128906 428.691406 L 272.140625 428.691406 L 272.140625 425.695312 L 284.128906 425.695312 Z M 260.15625 428.691406 L 248.167969 428.691406 L 248.167969 425.695312 L 260.15625 425.695312 Z M 236.179688 428.691406 L 224.191406 428.691406 L 224.191406 425.695312 L 236.179688 425.695312 Z M 212.207031 428.691406 L 200.21875 428.691406 L 200.21875 425.695312 L 212.207031 425.695312 Z M 188.230469 428.691406 L 176.242188 428.691406 L 176.242188 425.695312 L 188.230469 425.695312 Z M 296.148438 428.636719 L 296.085938 425.640625 C 300.097656 425.554688 304.097656 425.375 307.984375 425.097656 L 308.195312 428.085938 C 304.261719 428.367188 300.207031 428.550781 296.148438 428.636719 Z M 320.203125 426.90625 L 319.828125 423.933594 C 323.804688 423.429688 327.757812 422.8125 331.578125 422.09375 L 332.132812 425.035156 C 328.253906 425.765625 324.242188 426.394531 320.203125 426.90625 Z M 343.925781 422.417969 L 343.179688 419.515625 C 347.050781 418.519531 350.882812 417.386719 354.570312 416.152344 L 355.523438 418.992188 C 351.765625 420.25 347.863281 421.402344 343.925781 422.417969 Z M 366.839844 414.71875 L 365.671875 411.957031 C 369.332031 410.410156 372.945312 408.707031 376.402344 406.898438 L 377.792969 409.554688 C 374.261719 411.402344 370.574219 413.136719 366.839844 414.71875 Z M 388.277344 403.492188 L 386.667969 400.964844 C 389.996094 398.84375 393.261719 396.558594 396.375 394.167969 L 398.199219 396.542969 C 395.019531 398.988281 391.679688 401.324219 388.277344 403.492188 Z M 407.46875 388.742188 L 405.433594 386.542969 C 408.347656 383.84375 411.132812 381 413.707031 378.089844 L 415.953125 380.074219 C 413.3125 383.0625 410.457031 385.976562 407.46875 388.742188 Z M 423.511719 370.582031 L 421.070312 368.839844 C 423.351562 365.644531 425.488281 362.289062 427.410156 358.871094 L 430.019531 360.339844 C 428.046875 363.847656 425.855469 367.292969 423.511719 370.582031 Z M 435.402344 349.46875 L 432.648438 348.28125 C 434.191406 344.707031 435.578125 340.976562 436.769531 337.199219 L 439.628906 338.097656 C 438.40625 341.972656 436.984375 345.800781 435.402344 349.46875 Z M 442.71875 326.378906 L 439.789062 325.753906 C 440.601562 321.96875 441.265625 318.039062 441.761719 314.070312 L 444.734375 314.441406 C 444.226562 318.496094 443.550781 322.511719 442.71875 326.378906 Z M 445.753906 302.386719 L 442.761719 302.25 C 442.875 299.753906 442.933594 297.195312 442.933594 294.640625 C 442.933594 293.210938 442.914062 291.773438 442.882812 290.375 L 445.878906 290.304688 C 445.910156 291.726562 445.929688 293.1875 445.929688 294.640625 C 445.929688 297.242188 445.871094 299.847656 445.753906 302.386719 Z M 442.179688 278.523438 C 441.796875 274.535156 441.261719 270.582031 440.582031 266.773438 L 443.535156 266.25 C 444.222656 270.136719 444.773438 274.167969 445.164062 278.238281 Z M 438.007812 255.210938 C 436.96875 251.371094 435.746094 247.582031 434.378906 243.945312 L 437.183594 242.890625 C 438.585938 246.613281 439.835938 250.496094 440.898438 254.429688 Z M 429.660156 233.101562 C 427.902344 229.574219 425.945312 226.113281 423.84375 222.816406 L 426.371094 221.203125 C 428.53125 224.59375 430.539062 228.144531 432.34375 231.769531 Z M 416.96875 213.203125 C 414.535156 210.15625 411.898438 207.183594 409.125 204.363281 L 411.261719 202.265625 C 414.105469 205.15625 416.8125 208.207031 419.3125 211.335938 Z M 400.417969 196.351562 C 397.402344 193.832031 394.234375 191.421875 390.992188 189.183594 L 392.695312 186.71875 C 396.007812 189.007812 399.253906 191.472656 402.339844 194.050781 Z M 380.953125 182.90625 C 377.550781 180.992188 373.996094 179.1875 370.382812 177.542969 L 371.625 174.816406 C 375.316406 176.492188 378.949219 178.339844 382.421875 180.296875 Z M 359.394531 173.089844 C 355.734375 171.777344 351.925781 170.578125 348.078125 169.519531 L 348.871094 166.632812 C 352.792969 167.707031 356.675781 168.933594 360.40625 170.269531 Z M 336.515625 166.792969 C 332.707031 166.03125 328.761719 165.375 324.789062 164.847656 L 325.1875 161.875 C 329.222656 162.414062 333.230469 163.078125 337.105469 163.855469 Z M 312.957031 163.625 C 309.085938 163.335938 305.085938 163.148438 301.066406 163.066406 L 301.128906 160.070312 C 305.199219 160.152344 309.253906 160.34375 313.179688 160.636719 Z M 289.109375 163.011719 L 277.121094 163.011719 L 277.121094 160.015625 L 289.109375 160.015625 Z M 265.136719 163.011719 L 253.148438 163.011719 L 253.148438 160.015625 L 265.136719 160.015625 Z M 241.160156 163.011719 L 229.171875 163.011719 L 229.171875 160.015625 L 241.160156 160.015625 Z M 241.160156 163.011719 " fill-opacity="1" fill-rule="nonzero"/><path fill="#58595b" d="M 163.203125 427.191406 L 184.449219 414.929688 L 184.449219 439.457031 Z M 163.203125 427.191406 " fill-opacity="1" fill-rule="nonzero"/><path fill="#414042" d="M 244.550781 162.570312 C 244.550781 163.558594 244.5 164.542969 244.402344 165.523438 C 244.308594 166.503906 244.164062 167.480469 243.96875 168.445312 C 243.777344 169.414062 243.539062 170.371094 243.25 171.3125 C 242.964844 172.257812 242.632812 173.183594 242.253906 174.097656 C 241.878906 175.007812 241.457031 175.898438 240.992188 176.769531 C 240.527344 177.640625 240.019531 178.484375 239.472656 179.304688 C 238.921875 180.125 238.335938 180.914062 237.710938 181.679688 C 237.085938 182.441406 236.421875 183.171875 235.726562 183.867188 C 235.027344 184.566406 234.296875 185.226562 233.535156 185.851562 C 232.769531 186.480469 231.980469 187.066406 231.160156 187.613281 C 230.339844 188.160156 229.492188 188.667969 228.625 189.132812 C 227.753906 189.597656 226.863281 190.019531 225.949219 190.398438 C 225.039062 190.773438 224.113281 191.105469 223.167969 191.394531 C 222.222656 191.679688 221.265625 191.917969 220.300781 192.109375 C 219.332031 192.304688 218.355469 192.449219 217.375 192.546875 C 216.394531 192.640625 215.410156 192.691406 214.421875 192.691406 C 213.433594 192.691406 212.449219 192.640625 211.46875 192.546875 C 210.488281 192.449219 209.511719 192.304688 208.542969 192.109375 C 207.578125 191.917969 206.621094 191.679688 205.675781 191.394531 C 204.730469 191.105469 203.804688 190.773438 202.890625 190.398438 C 201.980469 190.019531 201.089844 189.597656 200.21875 189.132812 C 199.351562 188.667969 198.503906 188.160156 197.683594 187.613281 C 196.863281 187.066406 196.070312 186.480469 195.308594 185.851562 C 194.546875 185.226562 193.816406 184.566406 193.117188 183.867188 C 192.421875 183.171875 191.757812 182.441406 191.132812 181.679688 C 190.507812 180.914062 189.921875 180.125 189.371094 179.304688 C 188.824219 178.484375 188.316406 177.640625 187.851562 176.769531 C 187.386719 175.898438 186.964844 175.007812 186.585938 174.097656 C 186.210938 173.183594 185.878906 172.257812 185.589844 171.3125 C 185.304688 170.371094 185.066406 169.414062 184.875 168.445312 C 184.679688 167.480469 184.535156 166.503906 184.441406 165.523438 C 184.34375 164.542969 184.292969 163.558594 184.292969 162.570312 C 184.292969 161.585938 184.34375 160.601562 184.441406 159.617188 C 184.535156 158.636719 184.679688 157.660156 184.875 156.695312 C 185.066406 155.726562 185.304688 154.769531 185.589844 153.828125 C 185.878906 152.882812 186.210938 151.957031 186.585938 151.042969 C 186.964844 150.132812 187.386719 149.242188 187.851562 148.371094 C 188.316406 147.503906 188.824219 146.65625 189.371094 145.835938 C 189.921875 145.015625 190.507812 144.226562 191.132812 143.464844 C 191.757812 142.699219 192.421875 141.96875 193.117188 141.273438 C 193.816406 140.574219 194.546875 139.914062 195.308594 139.289062 C 196.070312 138.660156 196.863281 138.074219 197.683594 137.527344 C 198.503906 136.980469 199.351562 136.472656 200.21875 136.007812 C 201.089844 135.542969 201.980469 135.121094 202.890625 134.742188 C 203.804688 134.367188 204.730469 134.035156 205.675781 133.746094 C 206.621094 133.460938 207.578125 133.222656 208.542969 133.03125 C 209.511719 132.835938 210.488281 132.691406 211.46875 132.597656 C 212.449219 132.5 213.433594 132.449219 214.421875 132.449219 C 215.410156 132.449219 216.394531 132.5 217.375 132.597656 C 218.355469 132.691406 219.332031 132.835938 220.300781 133.03125 C 221.265625 133.222656 222.222656 133.460938 223.167969 133.746094 C 224.113281 134.035156 225.039062 134.367188 225.949219 134.742188 C 226.863281 135.121094 227.753906 135.542969 228.625 136.007812 C 229.492188 136.472656 230.339844 136.980469 231.160156 137.527344 C 231.980469 138.074219 232.769531 138.660156 233.535156 139.289062 C 234.296875 139.914062 235.027344 140.574219 235.726562 141.273438 C 236.421875 141.96875 237.085938 142.699219 237.710938 143.464844 C 238.335938 144.226562 238.921875 145.015625 239.472656 145.835938 C 240.019531 146.65625 240.527344 147.503906 240.992188 148.371094 C 241.457031 149.242188 241.878906 150.132812 242.253906 151.042969 C 242.632812 151.957031 242.964844 152.882812 243.25 153.828125 C 243.539062 154.769531 243.777344 155.726562 243.96875 156.695312 C 244.164062 157.660156 244.308594 158.636719 244.402344 159.617188 C 244.5 160.601562 244.550781 161.585938 244.550781 162.570312 Z M 244.550781 162.570312 " fill-opacity="1" fill-rule="nonzero"/><path fill="#fcfcfc" d="M 226.496094 176.902344 L 209.554688 176.902344 C 209.777344 176.496094 210.078125 176.078125 210.46875 175.648438 C 211.535156 174.472656 213.242188 172.910156 215.550781 171.019531 L 215.519531 170.984375 C 215.871094 170.746094 216.257812 170.414062 216.695312 170.039062 C 219.960938 167.277344 222.574219 164.566406 224.457031 161.976562 C 226.460938 159.230469 227.476562 156.058594 227.476562 152.558594 C 227.476562 149.09375 226.296875 146.277344 223.964844 144.179688 C 221.675781 142.136719 218.613281 141.097656 214.875 141.097656 C 212.253906 141.097656 209.6875 141.75 207.253906 143.039062 C 204.847656 144.3125 202.789062 146.109375 201.136719 148.371094 C 200.675781 149.007812 200.78125 149.882812 201.378906 150.394531 L 204.507812 153.070312 C 204.820312 153.335938 205.21875 153.472656 205.648438 153.417969 C 206.058594 153.371094 206.433594 153.15625 206.679688 152.824219 C 207.886719 151.207031 209.191406 149.964844 210.5625 149.140625 C 213.1875 147.546875 216.851562 147.550781 218.738281 149.253906 C 219.652344 150.082031 220.09375 151.164062 220.09375 152.558594 C 220.09375 154.894531 219.511719 156.890625 218.304688 158.660156 C 217.027344 160.542969 215.183594 162.511719 212.789062 164.542969 C 212.660156 164.652344 212.042969 165.164062 210.90625 166.085938 C 208.9375 167.707031 207.335938 169.125 206.136719 170.300781 C 204.894531 171.527344 203.839844 172.925781 202.996094 174.464844 C 202.101562 176.109375 201.644531 177.914062 201.644531 179.824219 L 201.644531 182.273438 C 201.644531 183.097656 202.316406 183.769531 203.144531 183.769531 L 226.492188 183.769531 C 227.316406 183.769531 227.992188 183.097656 227.992188 182.273438 L 227.992188 178.398438 C 227.992188 177.574219 227.320312 176.902344 226.496094 176.902344 Z M 226.496094 176.902344 " fill-opacity="1" fill-rule="nonzero"/><path fill="#58595b" d="M 147.355469 693.335938 L 144.355469 693.335938 L 144.355469 688.914062 L 147.355469 688.914062 Z M 147.355469 676.929688 L 144.355469 676.929688 L 144.355469 664.945312 L 147.355469 664.945312 Z M 147.355469 652.960938 L 144.355469 652.960938 L 144.355469 640.976562 L 147.355469 640.976562 Z M 147.355469 628.992188 L 144.355469 628.992188 L 144.355469 617.007812 L 147.355469 617.007812 Z M 147.355469 605.023438 L 144.355469 605.023438 L 144.355469 593.039062 L 147.355469 593.039062 Z M 147.355469 581.054688 L 144.355469 581.054688 L 144.355469 569.070312 L 147.355469 569.070312 Z M 147.355469 557.085938 L 144.355469 557.085938 L 144.355469 545.101562 L 147.355469 545.101562 Z M 147.355469 533.117188 L 144.355469 533.117188 L 144.355469 521.132812 L 147.355469 521.132812 Z M 147.355469 509.148438 L 144.355469 509.148438 L 144.355469 497.164062 L 147.355469 497.164062 Z M 147.355469 485.179688 L 144.355469 485.179688 L 144.355469 473.195312 L 147.355469 473.195312 Z M 147.355469 461.210938 L 144.355469 461.210938 L 144.355469 449.226562 L 147.355469 449.226562 Z M 147.355469 437.242188 L 144.355469 437.242188 L 144.355469 425.257812 L 147.355469 425.257812 Z M 147.355469 413.273438 L 144.355469 413.273438 L 144.355469 401.289062 L 147.355469 401.289062 Z M 147.355469 389.304688 L 144.355469 389.304688 L 144.355469 377.320312 L 147.355469 377.320312 Z M 147.355469 365.335938 L 144.355469 365.335938 L 144.355469 353.351562 L 147.355469 353.351562 Z M 147.355469 341.367188 L 144.355469 341.367188 L 144.355469 329.382812 L 147.355469 329.382812 Z M 147.355469 317.398438 L 144.355469 317.398438 L 144.355469 305.414062 L 147.355469 305.414062 Z M 147.355469 293.429688 L 144.355469 293.429688 L 144.355469 281.445312 L 147.355469 281.445312 Z M 147.355469 269.460938 L 144.355469 269.460938 L 144.355469 257.476562 L 147.355469 257.476562 Z M 147.355469 245.496094 L 144.355469 245.496094 L 144.355469 233.511719 L 147.355469 233.511719 Z M 147.355469 221.527344 L 144.355469 221.527344 L 144.355469 209.542969 L 147.355469 209.542969 Z M 147.355469 197.558594 L 144.355469 197.558594 L 144.355469 185.574219 L 147.355469 185.574219 Z M 147.355469 197.558594 " fill-opacity="1" fill-rule="nonzero"/><path fill="#58595b" d="M 145.855469 707.496094 L 158.121094 686.257812 L 133.589844 686.257812 Z M 145.855469 707.496094 " fill-opacity="1" fill-rule="nonzero"/><path fill="#58595b" d="M 467.375 705.59375 L 468.109375 681.082031 L 446.507812 692.703125 Z M 467.375 705.59375 " fill-opacity="1" fill-rule="nonzero"/><path fill="#414042" d="M 173.824219 162.570312 C 173.824219 163.558594 173.777344 164.542969 173.679688 165.523438 C 173.582031 166.503906 173.4375 167.480469 173.246094 168.445312 C 173.054688 169.414062 172.8125 170.371094 172.527344 171.3125 C 172.242188 172.257812 171.910156 173.183594 171.53125 174.097656 C 171.152344 175.007812 170.734375 175.898438 170.269531 176.769531 C 169.800781 177.640625 169.296875 178.484375 168.746094 179.304688 C 168.199219 180.125 167.613281 180.914062 166.988281 181.679688 C 166.359375 182.441406 165.699219 183.171875 165 183.867188 C 164.304688 184.566406 163.574219 185.226562 162.808594 185.851562 C 162.046875 186.480469 161.257812 187.066406 160.4375 187.613281 C 159.617188 188.160156 158.769531 188.667969 157.898438 189.132812 C 157.03125 189.597656 156.136719 190.019531 155.226562 190.398438 C 154.316406 190.773438 153.386719 191.105469 152.441406 191.394531 C 151.5 191.679688 150.542969 191.917969 149.574219 192.109375 C 148.609375 192.304688 147.632812 192.449219 146.652344 192.546875 C 145.667969 192.640625 144.683594 192.691406 143.699219 192.691406 C 142.710938 192.691406 141.726562 192.640625 140.746094 192.546875 C 139.761719 192.449219 138.789062 192.304688 137.820312 192.109375 C 136.851562 191.917969 135.898438 191.679688 134.953125 191.394531 C 134.007812 191.105469 133.082031 190.773438 132.167969 190.398438 C 131.257812 190.019531 130.367188 189.597656 129.496094 189.132812 C 128.625 188.667969 127.78125 188.160156 126.960938 187.613281 C 126.140625 187.066406 125.347656 186.480469 124.585938 185.851562 C 123.824219 185.226562 123.09375 184.566406 122.394531 183.867188 C 121.695312 183.171875 121.035156 182.441406 120.410156 181.679688 C 119.785156 180.914062 119.195312 180.125 118.648438 179.304688 C 118.101562 178.484375 117.59375 177.640625 117.128906 176.769531 C 116.664062 175.898438 116.242188 175.007812 115.863281 174.097656 C 115.488281 173.183594 115.15625 172.257812 114.867188 171.3125 C 114.582031 170.371094 114.34375 169.414062 114.148438 168.445312 C 113.957031 167.480469 113.8125 166.503906 113.714844 165.523438 C 113.617188 164.542969 113.570312 163.558594 113.570312 162.570312 C 113.570312 161.585938 113.617188 160.601562 113.714844 159.617188 C 113.8125 158.636719 113.957031 157.660156 114.148438 156.695312 C 114.34375 155.726562 114.582031 154.769531 114.867188 153.828125 C 115.15625 152.882812 115.488281 151.957031 115.863281 151.042969 C 116.242188 150.132812 116.664062 149.242188 117.128906 148.371094 C 117.59375 147.503906 118.101562 146.65625 118.648438 145.835938 C 119.195312 145.015625 119.785156 144.226562 120.410156 143.464844 C 121.035156 142.699219 121.695312 141.96875 122.394531 141.273438 C 123.09375 140.574219 123.824219 139.914062 124.585938 139.289062 C 125.347656 138.660156 126.140625 138.074219 126.960938 137.527344 C 127.78125 136.980469 128.625 136.472656 129.496094 136.007812 C 130.367188 135.542969 131.257812 135.121094 132.167969 134.742188 C 133.082031 134.367188 134.007812 134.035156 134.953125 133.746094 C 135.898438 133.460938 136.851562 133.222656 137.820312 133.03125 C 138.789062 132.835938 139.761719 132.691406 140.746094 132.597656 C 141.726562 132.5 142.710938 132.449219 143.699219 132.449219 C 144.683594 132.449219 145.667969 132.5 146.652344 132.597656 C 147.632812 132.691406 148.609375 132.835938 149.574219 133.03125 C 150.542969 133.222656 151.5 133.460938 152.441406 133.746094 C 153.386719 134.035156 154.316406 134.367188 155.226562 134.742188 C 156.136719 135.121094 157.03125 135.542969 157.898438 136.007812 C 158.769531 136.472656 159.617188 136.980469 160.4375 137.527344 C 161.257812 138.074219 162.046875 138.660156 162.808594 139.289062 C 163.574219 139.914062 164.304688 140.574219 165 141.273438 C 165.699219 141.96875 166.359375 142.699219 166.988281 143.464844 C 167.613281 144.226562 168.199219 145.015625 168.746094 145.835938 C 169.296875 146.65625 169.800781 147.503906 170.269531 148.371094 C 170.734375 149.242188 171.152344 150.132812 171.53125 151.042969 C 171.910156 151.957031 172.242188 152.882812 172.527344 153.828125 C 172.8125 154.769531 173.054688 155.726562 173.246094 156.695312 C 173.4375 157.660156 173.582031 158.636719 173.679688 159.617188 C 173.777344 160.601562 173.824219 161.585938 173.824219 162.570312 Z M 173.824219 162.570312 " fill-opacity="1" fill-rule="nonzero"/><path fill="#fcfcfc" d="M 147.1875 141.949219 L 143.316406 141.949219 C 142.878906 141.949219 142.460938 142.144531 142.175781 142.476562 L 130.785156 155.796875 C 130.28125 156.394531 130.3125 157.277344 130.867188 157.832031 L 133.03125 159.996094 C 133.617188 160.578125 134.5625 160.578125 135.144531 160 L 141.816406 153.410156 L 141.816406 182.273438 C 141.816406 183.101562 142.492188 183.773438 143.316406 183.773438 L 147.183594 183.773438 C 148.011719 183.773438 148.683594 183.101562 148.683594 182.273438 L 148.683594 143.449219 C 148.683594 142.625 148.011719 141.949219 147.1875 141.949219 Z M 147.1875 141.949219 " fill-opacity="1" fill-rule="nonzero"/><path fill="#414042" d="M 362.128906 468.671875 C 362.128906 469.660156 362.082031 470.644531 361.984375 471.625 C 361.886719 472.605469 361.742188 473.582031 361.550781 474.550781 C 361.359375 475.515625 361.117188 476.472656 360.832031 477.417969 C 360.546875 478.359375 360.214844 479.289062 359.835938 480.199219 C 359.457031 481.109375 359.039062 482 358.570312 482.871094 C 358.105469 483.742188 357.601562 484.585938 357.050781 485.40625 C 356.503906 486.226562 355.917969 487.019531 355.292969 487.78125 C 354.664062 488.542969 354.003906 489.273438 353.304688 489.96875 C 352.609375 490.667969 351.878906 491.328125 351.113281 491.957031 C 350.351562 492.582031 349.5625 493.167969 348.738281 493.714844 C 347.917969 494.265625 347.074219 494.769531 346.203125 495.234375 C 345.335938 495.699219 344.441406 496.121094 343.53125 496.5 C 342.621094 496.878906 341.691406 497.210938 340.746094 497.496094 C 339.804688 497.78125 338.847656 498.019531 337.878906 498.214844 C 336.914062 498.40625 335.9375 498.550781 334.957031 498.648438 C 333.972656 498.742188 332.988281 498.792969 332.003906 498.792969 C 331.015625 498.792969 330.03125 498.742188 329.050781 498.648438 C 328.066406 498.550781 327.09375 498.40625 326.125 498.214844 C 325.15625 498.019531 324.203125 497.78125 323.257812 497.496094 C 322.3125 497.210938 321.386719 496.878906 320.472656 496.5 C 319.5625 496.121094 318.671875 495.699219 317.800781 495.234375 C 316.929688 494.769531 316.085938 494.265625 315.265625 493.714844 C 314.445312 493.167969 313.652344 492.582031 312.890625 491.957031 C 312.128906 491.328125 311.398438 490.667969 310.699219 489.96875 C 310 489.273438 309.339844 488.542969 308.714844 487.78125 C 308.085938 487.019531 307.5 486.226562 306.953125 485.40625 C 306.40625 484.585938 305.898438 483.742188 305.433594 482.871094 C 304.96875 482 304.546875 481.109375 304.167969 480.199219 C 303.789062 479.289062 303.457031 478.359375 303.171875 477.417969 C 302.886719 476.472656 302.648438 475.515625 302.453125 474.550781 C 302.261719 473.582031 302.117188 472.605469 302.019531 471.625 C 301.921875 470.644531 301.875 469.660156 301.875 468.671875 C 301.875 467.6875 301.921875 466.703125 302.019531 465.71875 C 302.117188 464.738281 302.261719 463.765625 302.453125 462.796875 C 302.648438 461.828125 302.886719 460.875 303.171875 459.929688 C 303.457031 458.984375 303.789062 458.058594 304.167969 457.148438 C 304.546875 456.234375 304.96875 455.34375 305.433594 454.476562 C 305.898438 453.605469 306.40625 452.757812 306.953125 451.9375 C 307.5 451.121094 308.085938 450.328125 308.714844 449.566406 C 309.339844 448.804688 310 448.074219 310.699219 447.375 C 311.398438 446.675781 312.128906 446.015625 312.890625 445.390625 C 313.652344 444.765625 314.445312 444.175781 315.265625 443.628906 C 316.085938 443.082031 316.929688 442.574219 317.800781 442.109375 C 318.671875 441.644531 319.5625 441.222656 320.472656 440.847656 C 321.386719 440.46875 322.3125 440.136719 323.257812 439.851562 C 324.203125 439.5625 325.15625 439.324219 326.125 439.132812 C 327.09375 438.941406 328.066406 438.796875 329.050781 438.699219 C 330.03125 438.601562 331.015625 438.554688 332.003906 438.554688 C 332.988281 438.554688 333.972656 438.601562 334.957031 438.699219 C 335.9375 438.796875 336.914062 438.941406 337.878906 439.132812 C 338.847656 439.324219 339.804688 439.5625 340.746094 439.851562 C 341.691406 440.136719 342.621094 440.46875 343.53125 440.847656 C 344.441406 441.222656 345.335938 441.644531 346.203125 442.109375 C 347.074219 442.574219 347.917969 443.082031 348.738281 443.628906 C 349.5625 444.175781 350.351562 444.765625 351.113281 445.390625 C 351.878906 446.015625 352.609375 446.675781 353.304688 447.375 C 354.003906 448.074219 354.664062 448.804688 355.292969 449.566406 C 355.917969 450.328125 356.503906 451.121094 357.050781 451.9375 C 357.601562 452.757812 358.105469 453.605469 358.570312 454.476562 C 359.039062 455.34375 359.457031 456.234375 359.835938 457.148438 C 360.214844 458.058594 360.546875 458.984375 360.832031 459.929688 C 361.117188 460.875 361.359375 461.828125 361.550781 462.796875 C 361.742188 463.765625 361.886719 464.738281 361.984375 465.71875 C 362.082031 466.703125 362.128906 467.6875 362.128906 468.671875 Z M 362.128906 468.671875 " fill-opacity="1" fill-rule="nonzero"/><path fill="#fcfcfc" d="M 343.816406 470.542969 C 342.949219 469.316406 341.90625 468.316406 340.710938 467.550781 C 341.53125 466.871094 342.234375 466.058594 342.8125 465.109375 C 343.925781 463.3125 344.488281 461.214844 344.488281 458.886719 C 344.488281 456.65625 343.972656 454.632812 342.949219 452.867188 C 341.917969 451.09375 340.46875 449.691406 338.640625 448.695312 C 336.832031 447.703125 334.773438 447.203125 332.511719 447.203125 C 329.542969 447.203125 326.894531 448.035156 324.632812 449.679688 C 322.410156 451.292969 320.671875 453.5 319.46875 456.238281 C 319.15625 456.949219 319.441406 457.78125 320.121094 458.152344 L 323.25 459.863281 C 323.613281 460.058594 324.035156 460.097656 324.421875 459.972656 C 324.8125 459.851562 325.136719 459.574219 325.316406 459.207031 C 326.203125 457.40625 327.25 456.015625 328.429688 455.085938 C 329.539062 454.210938 330.871094 453.78125 332.511719 453.78125 C 333.960938 453.78125 335.109375 454.238281 336.015625 455.179688 C 336.941406 456.128906 337.390625 457.34375 337.390625 458.886719 C 337.390625 460.636719 336.90625 462.007812 335.910156 463.078125 C 334.953125 464.117188 333.667969 464.621094 332 464.621094 L 329.496094 464.621094 C 328.671875 464.621094 327.996094 465.292969 327.996094 466.117188 L 327.996094 469.648438 C 327.996094 470.472656 328.671875 471.144531 329.496094 471.144531 L 332.230469 471.144531 C 334.183594 471.144531 335.734375 471.746094 336.976562 472.980469 C 338.210938 474.222656 338.8125 475.777344 338.8125 477.730469 C 338.8125 479.609375 338.222656 481.105469 337.011719 482.296875 C 335.789062 483.503906 334.300781 484.089844 332.457031 484.089844 C 330.886719 484.089844 329.558594 483.644531 328.394531 482.730469 C 327.171875 481.765625 326.136719 480.402344 325.328125 478.6875 C 325.148438 478.308594 324.8125 478.019531 324.414062 477.894531 C 324.015625 477.769531 323.582031 477.820312 323.214844 478.035156 L 319.796875 480.027344 C 319.152344 480.398438 318.882812 481.195312 319.164062 481.882812 C 320.257812 484.570312 321.945312 486.742188 324.179688 488.34375 C 326.445312 489.964844 329.167969 490.785156 332.28125 490.785156 C 334.757812 490.785156 337.070312 490.230469 339.160156 489.132812 C 341.269531 488.023438 342.960938 486.453125 344.1875 484.460938 C 345.402344 482.460938 346.023438 480.195312 346.023438 477.730469 C 346.027344 475.03125 345.285156 472.613281 343.816406 470.542969 Z M 343.816406 470.542969 " fill-opacity="1" fill-rule="nonzero"/></svg>