<svg xmlns="http://www.w3.org/2000/svg" xmlns:xlink="http://www.w3.org/1999/xlink" width="800" zoomAndPan="magnify" viewBox="0 0 600 899.99999" height="1200" preserveAspectRatio="xMidYMid meet" version="1.0"><defs><g/><clipPath id="a0cb1f9d3c"><path d="M 126.6875 249.21875 L 167.933594 249.21875 L 167.933594 276.011719 L 126.6875 276.011719 Z M 126.6875 249.21875 " clip-rule="nonzero"/></clipPath><clipPath id="be33fd541a"><path d="M 197.035156 244.75 L 223.828125 244.75 L 223.828125 285.992188 L 197.035156 285.992188 Z M 197.035156 244.75 " clip-rule="nonzero"/></clipPath><clipPath id="3333d22777"><path d="M 345 541 L 381 541 L 381 575 L 345 575 Z M 345 541 " clip-rule="nonzero"/></clipPath><clipPath id="4d5566a2bf"><path d="M 379.441406 540.6875 L 394.132812 563.339844 L 359.523438 585.785156 L 344.832031 563.132812 Z M 379.441406 540.6875 " clip-rule="nonzero"/></clipPath><clipPath id="7f8b1bbed1"><path d="M 379.441406 540.6875 L 394.132812 563.339844 L 359.523438 585.785156 L 344.832031 563.132812 Z M 379.441406 540.6875 " clip-rule="nonzero"/></clipPath><clipPath id="58f98b8430"><path d="M 379.433594 540.691406 L 394.011719 563.167969 L 359.246094 585.714844 L 344.667969 563.234375 Z M 379.433594 540.691406 " clip-rule="nonzero"/></clipPath></defs><path stroke-linecap="butt" transform="matrix(0.75, 0, 0, 0.75, 41.208985, -15.449276)" fill="none" stroke-linejoin="miter" d="M 141.960944 1042.104298 C 121.164068 1042.104298 105.200525 1036.208464 94.065108 1024.422005 C 82.929691 1012.630338 77.367191 996.33867 77.367191 975.547002 L 77.367191 390.276138 C 77.367191 368.661554 83.096358 352.369886 94.554692 341.401136 C 106.018234 330.265719 122.148443 324.69801 142.940111 324.69801 L 385.351582 324.69801 C 463.127628 324.69801 523.132839 343.364678 565.377633 380.698013 C 607.622427 417.864682 628.74222 470.015726 628.74222 537.145938 C 628.74222 580.698023 619.164094 618.27615 600.007843 649.87511 C 581.01305 681.312612 553.341174 705.463655 516.992214 722.328239 C 480.80992 739.031365 436.929709 747.380324 385.351582 747.380324 L 394.440124 732.156365 L 427.596376 732.156365 C 455.101585 732.156365 479.09117 738.864698 499.554713 752.291782 C 520.023464 765.718866 537.950548 786.843868 553.341174 815.656369 L 628.74222 955.651168 C 636.768262 969.734502 640.450553 983.489711 639.794303 996.911587 C 639.143262 1010.177213 634.065136 1021.06263 624.570344 1029.578255 C 615.23701 1037.927214 601.565135 1042.104298 583.554717 1042.104298 C 565.377633 1042.104298 550.559924 1038.255339 539.096381 1030.56263 C 527.799506 1022.864713 517.81513 1010.911588 509.132838 994.703253 L 407.45575 807.552202 C 395.341166 784.796992 381.01304 769.567825 364.476581 761.869908 C 348.10158 754.177199 327.226579 750.328241 301.846369 750.328241 L 206.304697 750.328241 L 206.304697 975.547002 C 206.304697 996.33867 200.903655 1012.630338 190.096363 1024.422005 C 179.455738 1036.208464 163.408862 1042.104298 141.960944 1042.104298 Z M 206.304697 654.786569 L 363.247414 654.786569 C 409.419291 654.786569 444.377627 645.208443 468.117211 626.052192 C 492.023462 606.895941 503.976588 578.244898 503.976588 540.093855 C 503.976588 502.432394 492.023462 474.109476 468.117211 455.114683 C 444.377627 435.958432 409.419291 426.380307 363.247414 426.380307 L 206.304697 426.380307 Z M 206.304697 654.786569 " stroke="#1f8785" stroke-width="40.239601" stroke-opacity="1" stroke-miterlimit="4"/><g fill="#ffffff" fill-opacity="1"><g transform="translate(41.208985, 760.050683)"><g><path d="M 106.390625 6.03125 C 90.796875 6.03125 78.847656 1.628906 70.546875 -7.171875 C 62.242188 -15.972656 58.09375 -28.171875 58.09375 -43.765625 L 58.09375 -482.875 C 58.09375 -498.976562 62.367188 -511.175781 70.921875 -519.46875 C 79.472656 -527.769531 91.546875 -531.921875 107.140625 -531.921875 L 288.96875 -531.921875 C 347.320312 -531.921875 392.34375 -517.960938 424.03125 -490.046875 C 455.71875 -462.128906 471.5625 -423.019531 471.5625 -372.71875 C 471.5625 -340.03125 464.394531 -311.863281 450.0625 -288.21875 C 435.726562 -264.570312 414.976562 -246.460938 387.8125 -233.890625 C 360.644531 -221.316406 327.695312 -215.03125 288.96875 -215.03125 L 295.765625 -226.34375 L 320.65625 -226.34375 C 341.28125 -226.34375 359.265625 -221.3125 374.609375 -211.25 C 389.953125 -201.195312 403.40625 -185.351562 414.96875 -163.71875 L 471.5625 -58.84375 C 477.59375 -48.28125 480.359375 -37.96875 479.859375 -27.90625 C 479.359375 -17.851562 475.585938 -9.679688 468.546875 -3.390625 C 461.503906 2.890625 451.191406 6.03125 437.609375 6.03125 C 424.023438 6.03125 412.957031 3.140625 404.40625 -2.640625 C 395.851562 -8.421875 388.3125 -17.347656 381.78125 -29.421875 L 305.578125 -169.765625 C 296.515625 -186.867188 285.820312 -198.3125 273.5 -204.09375 C 261.175781 -209.875 245.457031 -212.765625 226.34375 -212.765625 L 154.671875 -212.765625 L 154.671875 -43.765625 C 154.671875 -28.171875 150.644531 -15.972656 142.59375 -7.171875 C 134.550781 1.628906 122.484375 6.03125 106.390625 6.03125 Z M 154.671875 -284.453125 L 272.375 -284.453125 C 307.082031 -284.453125 333.363281 -291.617188 351.21875 -305.953125 C 369.070312 -320.285156 378 -341.785156 378 -370.453125 C 378 -398.628906 369.070312 -419.882812 351.21875 -434.21875 C 333.363281 -448.550781 307.082031 -455.71875 272.375 -455.71875 L 154.671875 -455.71875 Z M 154.671875 -284.453125 "/></g></g></g><g clip-path="url(#a0cb1f9d3c)"><path fill="#1f8785" d="M 148.792969 275.265625 L 167.453125 252.574219 C 168.855469 250.867188 166.921875 248.457031 164.949219 249.457031 L 148.140625 257.996094 C 147.558594 258.289062 146.871094 258.289062 146.289062 257.996094 L 129.476562 249.457031 C 127.503906 248.453125 125.570312 250.863281 126.976562 252.574219 L 145.636719 275.265625 C 146.453125 276.261719 147.972656 276.261719 148.792969 275.265625 " fill-opacity="1" fill-rule="nonzero"/></g><path fill="#1f8785" d="M 141.214844 743.914062 L 141.214844 707.914062 L 153.214844 707.914062 L 153.214844 743.914062 M 141.214844 695.914062 L 141.214844 659.914062 L 153.214844 659.914062 L 153.214844 695.914062 M 141.214844 647.914062 L 141.214844 611.914062 L 153.214844 611.914062 L 153.214844 647.914062 M 141.214844 599.914062 L 141.214844 563.914062 L 153.214844 563.914062 L 153.214844 599.914062 M 141.214844 551.914062 L 141.214844 515.914062 L 153.214844 515.914062 L 153.214844 551.914062 M 141.214844 503.914062 L 141.214844 467.914062 L 153.214844 467.914062 L 153.214844 503.914062 M 141.214844 455.914062 L 141.214844 419.914062 L 153.214844 419.914062 L 153.214844 455.914062 M 141.214844 407.914062 L 141.214844 371.914062 L 153.214844 371.914062 L 153.214844 407.914062 M 141.214844 359.914062 L 141.214844 323.914062 L 153.214844 323.914062 L 153.214844 359.914062 M 141.214844 311.914062 L 141.214844 286.203125 L 153.214844 286.203125 L 153.214844 311.914062 " fill-opacity="1" fill-rule="nonzero"/><g clip-path="url(#be33fd541a)"><path fill="#1f8785" d="M 223.082031 263.890625 L 200.390625 245.230469 C 198.683594 243.824219 196.269531 245.761719 197.273438 247.734375 L 205.8125 264.542969 C 206.105469 265.125 206.105469 265.808594 205.8125 266.390625 L 197.273438 283.207031 C 196.269531 285.179688 198.679688 287.109375 200.390625 285.707031 L 223.082031 267.046875 C 224.074219 266.230469 224.074219 264.707031 223.082031 263.890625 " fill-opacity="1" fill-rule="nonzero"/></g><path fill="#1f8785" d="M 455.300781 412.195312 C 457.058594 399.753906 457.710938 388.140625 457.261719 377.351562 L 469.253906 376.851562 C 469.730469 388.371094 469.042969 400.710938 467.183594 413.871094 Z M 456.335938 365.894531 C 454.851562 353.820312 451.820312 342.914062 447.238281 333.175781 L 458.097656 328.066406 C 463.222656 338.964844 466.605469 351.085938 468.246094 364.429688 Z M 441.832031 323.339844 C 435.878906 313.972656 428.1875 305.847656 418.765625 298.957031 L 425.847656 289.269531 C 436.492188 297.050781 445.195312 306.261719 451.960938 316.902344 Z M 409.265625 292.769531 C 400.015625 287.402344 389.417969 282.976562 377.46875 279.496094 L 380.828125 267.976562 C 393.710938 271.730469 405.195312 276.535156 415.285156 282.390625 Z M 366.1875 276.578125 C 355.53125 274.152344 343.945312 272.386719 331.429688 271.277344 L 332.484375 259.324219 C 345.542969 260.480469 357.664062 262.332031 368.851562 264.878906 Z M 319.671875 270.445312 C 308.503906 269.84375 296.664062 269.722656 284.15625 270.085938 L 283.808594 258.089844 C 296.648438 257.71875 308.816406 257.84375 320.316406 258.460938 Z M 272.285156 270.5625 C 267.667969 270.796875 262.964844 271.09375 258.175781 271.453125 L 257.277344 259.488281 C 262.160156 259.121094 266.960938 258.820312 271.671875 258.578125 Z M 272.285156 270.5625 " fill-opacity="1" fill-rule="nonzero"/><path fill="#1f8785" d="M 211.371094 506.625 C 223.636719 508.5625 235.472656 510.089844 246.878906 511.210938 L 245.707031 523.152344 C 234.066406 522.011719 221.996094 520.449219 209.496094 518.476562 Z M 258.542969 512.226562 C 270.949219 513.160156 282.820312 513.585938 294.148438 513.5 L 294.238281 525.5 C 282.578125 525.589844 270.378906 525.152344 257.640625 524.191406 Z M 305.914062 513.222656 C 318.285156 512.71875 329.960938 511.566406 340.945312 509.761719 L 342.890625 521.605469 C 331.421875 523.488281 319.261719 524.691406 306.402344 525.210938 Z M 352.460938 507.578125 C 364.441406 504.984375 375.511719 501.539062 385.671875 497.25 L 390.34375 508.304688 C 379.492188 512.886719 367.710938 516.554688 355 519.304688 Z M 396.171875 492.34375 C 406.714844 486.921875 416.148438 480.449219 424.46875 472.929688 L 432.511719 481.832031 C 423.417969 490.050781 413.136719 497.113281 401.664062 503.015625 Z M 432.589844 464.875 C 440.21875 456.574219 446.734375 447.195312 452.140625 436.738281 L 462.800781 442.25 C 456.902344 453.660156 449.777344 463.90625 441.425781 472.996094 Z M 432.589844 464.875 " fill-opacity="1" fill-rule="nonzero"/><g clip-path="url(#3333d22777)"><g clip-path="url(#4d5566a2bf)"><g clip-path="url(#7f8b1bbed1)"><g clip-path="url(#58f98b8430)"><path fill="#1f8785" d="M 377.546875 572.957031 L 380.855469 543.765625 C 381.105469 541.566406 378.171875 540.597656 377.0625 542.511719 L 367.601562 558.820312 C 367.277344 559.386719 366.699219 559.757812 366.050781 559.828125 L 347.296875 561.8125 C 345.097656 562.042969 344.789062 565.117188 346.898438 565.789062 L 374.902344 574.675781 C 376.125 575.0625 377.402344 574.234375 377.546875 572.957031 " fill-opacity="1" fill-rule="nonzero"/></g></g></g></g><path fill="#1f8785" d="M 474.539062 747.027344 L 455.835938 716.269531 L 466.089844 710.035156 L 484.792969 740.792969 M 449.601562 706.015625 L 430.898438 675.253906 L 441.152344 669.019531 L 459.855469 699.78125 M 424.664062 665 L 405.960938 634.242188 L 416.214844 628.007812 L 434.917969 658.765625 M 399.726562 623.988281 L 381.023438 593.226562 L 391.277344 586.992188 L 409.980469 617.753906 M 374.789062 582.972656 L 371.5 577.558594 L 381.75 571.324219 L 385.042969 576.738281 " fill-opacity="1" fill-rule="nonzero"/></svg>