<svg xmlns="http://www.w3.org/2000/svg" xmlns:xlink="http://www.w3.org/1999/xlink" width="800" zoomAndPan="magnify" viewBox="0 0 600 899.99999" height="1200" preserveAspectRatio="xMidYMid meet" version="1.0"><defs><g/><clipPath id="f6861037af"><path d="M 440 286 L 474 286 L 474 325 L 440 325 Z M 440 286 " clip-rule="nonzero"/></clipPath><clipPath id="fc37520ca1"><path d="M 456.632812 324.785156 L 432.121094 313.460938 L 449.421875 276.015625 L 473.933594 287.339844 Z M 456.632812 324.785156 " clip-rule="nonzero"/></clipPath><clipPath id="5df0a82015"><path d="M 456.632812 324.785156 L 432.121094 313.460938 L 449.421875 276.015625 L 473.933594 287.339844 Z M 456.632812 324.785156 " clip-rule="nonzero"/></clipPath><clipPath id="43bf5effbf"><path d="M 456.632812 324.777344 L 432.3125 313.542969 L 449.691406 275.925781 L 474.011719 287.164062 Z M 456.632812 324.777344 " clip-rule="nonzero"/></clipPath></defs><path stroke-linecap="butt" transform="matrix(0.75, 0, 0, 0.75, 61.957032, -15.449276)" fill="none" stroke-linejoin="miter" d="M 321.984391 1044.067839 C 292.348973 1044.067839 262.796888 1041.859506 233.322928 1037.437631 C 203.848968 1033.182422 176.015633 1026.552213 149.817715 1017.547005 C 123.786464 1008.375129 100.369796 997.078254 79.57292 983.651169 C 67.458336 975.630336 59.026044 965.968877 54.276044 954.672001 C 49.69271 943.208459 48.218752 931.994917 49.859377 921.020958 C 51.494793 909.890749 55.833335 900.145957 62.875002 891.796998 C 69.916669 883.281373 78.755212 878.041789 89.401045 876.078247 C 100.208338 874.114705 111.994797 877.140747 124.765631 885.166789 C 154.23959 902.520957 185.4323 915.291791 218.338552 923.479291 C 251.250012 931.500125 285.802097 935.51575 321.984391 935.51575 C 374.86981 935.51575 413.348979 926.672 437.416689 908.989707 C 461.651065 891.140748 473.765649 868.052205 473.765649 839.729287 C 473.765649 816.312619 465.171898 797.895951 447.979189 784.468867 C 430.953147 771.041783 401.640645 759.989699 360.052101 751.312616 L 249.531262 728.224073 C 185.83855 714.796989 138.354173 692.203238 107.083338 660.437611 C 75.973961 628.510526 60.416669 586.349065 60.416669 533.953229 C 60.416669 501.203228 67.130211 471.406351 80.557295 444.552183 C 93.984379 417.698015 112.895838 394.531347 137.291673 375.046971 C 161.854174 355.562595 190.994801 340.661552 224.729177 330.349052 C 258.619804 319.869885 296.031265 314.630301 336.968767 314.630301 C 377.24481 314.630301 415.479187 319.703218 451.661481 329.85426 C 487.848983 339.843844 520.348985 354.57822 549.166694 374.062596 C 559.973987 381.432388 567.177112 390.52093 570.781279 401.328222 C 574.546904 411.968848 575.364613 422.531348 573.239612 433.010516 C 571.270862 443.323016 566.604195 452.166767 559.239612 459.536559 C 551.86982 466.901142 542.619819 471.323018 531.484402 472.796976 C 520.515651 474.109476 507.989609 470.666768 493.906275 462.479267 C 469.182315 448.401141 444.052106 438.411558 418.505229 432.515724 C 392.963561 426.458432 365.458352 423.43239 335.984392 423.43239 C 305.20314 423.43239 278.677097 427.770932 256.411471 436.448016 C 234.307303 445.1251 217.359385 457.40635 205.567718 473.286559 C 193.942718 489.00531 188.130217 507.588645 188.130217 529.041771 C 188.130217 553.10948 196.156259 572.349065 212.203135 586.755315 C 228.411469 601.166774 255.916679 612.46365 294.723973 620.65115 L 404.510437 643.734485 C 470.82294 657.817819 520.187526 679.921987 552.609403 710.052197 C 585.18753 740.177198 601.484406 780.453242 601.484406 830.885536 C 601.484406 862.979288 594.932322 892.125123 581.833363 918.323041 C 568.895862 944.520959 550.15107 967.031377 525.588568 985.859503 C 501.192734 1004.526171 471.88544 1018.93763 437.666689 1029.088672 C 403.442729 1039.078256 364.885435 1044.067839 321.984391 1044.067839 Z M 321.984391 1044.067839 " stroke="#1f8785" stroke-width="40.239601" stroke-opacity="1" stroke-miterlimit="4"/><g fill="#ffffff" fill-opacity="1"><g transform="translate(61.957032, 760.050683)"><g><path d="M 241.4375 7.546875 C 219.300781 7.546875 197.164062 5.910156 175.03125 2.640625 C 152.90625 -0.628906 132.035156 -5.660156 112.421875 -12.453125 C 92.804688 -19.242188 75.203125 -27.664062 59.609375 -37.71875 C 50.554688 -43.757812 44.269531 -51.054688 40.75 -59.609375 C 37.226562 -68.160156 36.09375 -76.582031 37.34375 -84.875 C 38.601562 -93.175781 41.875 -100.46875 47.15625 -106.75 C 52.4375 -113.039062 59.097656 -116.941406 67.140625 -118.453125 C 75.191406 -119.960938 84 -117.703125 93.5625 -111.671875 C 115.6875 -98.585938 139.070312 -89.023438 163.71875 -82.984375 C 188.375 -76.953125 214.28125 -73.9375 241.4375 -73.9375 C 281.175781 -73.9375 310.097656 -80.597656 328.203125 -93.921875 C 346.316406 -107.253906 355.375 -124.488281 355.375 -145.625 C 355.375 -163.226562 348.957031 -177.054688 336.125 -187.109375 C 323.300781 -197.171875 301.296875 -205.472656 270.109375 -212.015625 L 187.109375 -229.375 C 139.328125 -239.425781 103.738281 -256.398438 80.34375 -280.296875 C 56.957031 -304.191406 45.265625 -335.753906 45.265625 -374.984375 C 45.265625 -399.628906 50.296875 -422.007812 60.359375 -442.125 C 70.421875 -462.25 84.628906 -479.601562 102.984375 -494.1875 C 121.347656 -508.78125 143.226562 -519.972656 168.625 -527.765625 C 194.03125 -535.566406 222.070312 -539.46875 252.75 -539.46875 C 282.9375 -539.46875 311.609375 -535.691406 338.765625 -528.140625 C 365.929688 -520.597656 390.328125 -509.535156 411.953125 -494.953125 C 420.003906 -489.421875 425.410156 -482.628906 428.171875 -474.578125 C 430.941406 -466.535156 431.570312 -458.613281 430.0625 -450.8125 C 428.550781 -443.019531 425.03125 -436.351562 419.5 -430.8125 C 413.96875 -425.28125 407.050781 -422.007812 398.75 -421 C 390.445312 -420 381.015625 -422.519531 370.453125 -428.5625 C 351.847656 -439.125 332.988281 -446.664062 313.875 -451.1875 C 294.757812 -455.71875 274.132812 -457.984375 252 -457.984375 C 228.863281 -457.984375 208.992188 -454.710938 192.390625 -448.171875 C 175.796875 -441.628906 163.097656 -432.445312 154.296875 -420.625 C 145.492188 -408.8125 141.09375 -394.859375 141.09375 -378.765625 C 141.09375 -360.648438 147.128906 -346.1875 159.203125 -335.375 C 171.273438 -324.5625 191.894531 -316.132812 221.0625 -310.09375 L 303.3125 -292.75 C 353.101562 -282.1875 390.195312 -265.585938 414.59375 -242.953125 C 438.988281 -220.316406 451.1875 -190.132812 451.1875 -152.40625 C 451.1875 -128.257812 446.28125 -106.378906 436.46875 -86.765625 C 426.664062 -67.148438 412.582031 -50.300781 394.21875 -36.21875 C 375.863281 -22.132812 353.859375 -11.316406 328.203125 -3.765625 C 302.554688 3.773438 273.632812 7.546875 241.4375 7.546875 Z M 241.4375 7.546875 "/></g></g></g><g clip-path="url(#f6861037af)"><g clip-path="url(#fc37520ca1)"><g clip-path="url(#5df0a82015)"><g clip-path="url(#43bf5effbf)"><path fill="#1f8785" d="M 441.019531 296.476562 L 453.789062 322.9375 C 454.753906 324.925781 457.753906 324.183594 457.671875 321.972656 L 456.96875 303.132812 C 456.945312 302.480469 457.234375 301.855469 457.746094 301.453125 L 472.546875 289.769531 C 474.285156 288.398438 472.910156 285.632812 470.769531 286.191406 L 442.339844 293.613281 C 441.097656 293.941406 440.457031 295.320312 441.019531 296.476562 " fill-opacity="1" fill-rule="nonzero"/></g></g></g></g><path fill="#1f8785" d="M 150.148438 432.410156 C 150.292969 419.476562 151.046875 407.269531 152.40625 395.785156 L 164.324219 397.199219 C 163.015625 408.253906 162.289062 420.039062 162.144531 432.542969 Z M 154.117188 383.640625 C 156.246094 370.667969 159.222656 358.703125 163.054688 347.75 L 174.382812 351.710938 C 170.78125 362.007812 167.972656 373.296875 165.957031 385.582031 Z M 167.582031 336.175781 C 172.863281 324.046875 179.347656 313.339844 187.023438 304.050781 L 196.273438 311.695312 C 189.3125 320.117188 183.417969 329.871094 178.582031 340.964844 Z M 195.59375 294.757812 C 204.632812 285.972656 214.992188 278.816406 226.675781 273.28125 L 231.8125 284.128906 C 221.328125 289.09375 212.042969 295.503906 203.957031 303.363281 Z M 238.300781 268.46875 C 249.429688 264.480469 261.585938 261.789062 274.769531 260.390625 L 276.035156 272.320312 C 263.804688 273.621094 252.574219 276.101562 242.351562 279.765625 Z M 287.09375 259.46875 C 298.644531 258.957031 310.921875 259.351562 323.925781 260.648438 L 322.734375 272.589844 C 310.304688 271.347656 298.601562 270.972656 287.625 271.457031 Z M 336.070312 262.097656 C 347.492188 263.667969 359.441406 265.894531 371.917969 268.773438 L 369.21875 280.46875 C 357.09375 277.667969 345.5 275.507812 334.433594 273.984375 Z M 383.742188 271.660156 C 394.960938 274.539062 406.59375 277.921875 418.628906 281.808594 L 414.945312 293.226562 C 403.136719 289.417969 391.742188 286.101562 380.757812 283.28125 Z M 383.742188 271.660156 " fill-opacity="1" fill-rule="nonzero"/><path fill="#1f8785" d="M 459.144531 568.035156 C 460.085938 581.046875 460.289062 593.304688 459.753906 604.808594 L 447.765625 604.253906 C 448.28125 593.222656 448.082031 581.4375 447.175781 568.898438 Z M 458.878906 617.078125 C 457.582031 630.320312 455.210938 642.472656 451.757812 653.539062 L 440.300781 649.964844 C 443.507812 639.6875 445.71875 628.335938 446.933594 615.910156 Z M 447.5 665.324219 C 442.417969 677.609375 435.792969 688.328125 427.625 697.480469 L 418.671875 689.488281 C 425.933594 681.351562 431.847656 671.765625 436.414062 660.738281 Z M 418.566406 706.4375 C 409.269531 714.550781 398.441406 721.035156 386.089844 725.890625 L 381.699219 714.722656 C 392.765625 710.371094 402.421875 704.597656 410.679688 697.394531 Z M 374.191406 729.925781 C 363.03125 733.152344 350.804688 735.226562 337.503906 736.144531 L 336.675781 724.175781 C 349.125 723.3125 360.519531 721.386719 370.855469 718.398438 Z M 325.222656 736.664062 C 313.746094 736.851562 301.535156 736.257812 288.589844 734.886719 L 289.855469 722.953125 C 302.3125 724.273438 314.035156 724.84375 325.027344 724.664062 Z M 276.441406 733.398438 C 265.03125 731.820312 253.085938 729.675781 240.605469 726.96875 L 243.152344 715.242188 C 255.335938 717.886719 266.980469 719.976562 278.085938 721.511719 Z M 228.730469 724.257812 C 217.46875 721.5625 205.789062 718.433594 193.691406 714.867188 L 197.089844 703.355469 C 208.984375 706.863281 220.460938 709.941406 231.519531 712.585938 Z M 182.167969 711.371094 C 171.03125 707.910156 159.554688 704.089844 147.742188 699.914062 L 151.738281 688.601562 C 163.410156 692.726562 174.742188 696.496094 185.730469 699.914062 Z M 136.414062 695.84375 L 129.535156 693.300781 L 133.695312 682.046875 L 140.570312 684.585938 Z M 136.414062 695.84375 " fill-opacity="1" fill-rule="nonzero"/></svg>