<svg xmlns="http://www.w3.org/2000/svg" xmlns:xlink="http://www.w3.org/1999/xlink" width="794" zoomAndPan="magnify" viewBox="0 0 594.95996 842.24997" height="1123" preserveAspectRatio="xMidYMid meet" version="1.0"><defs><clipPath id="14f30c1f9a"><path d="M 59.71875 118.796875 L 535.546875 118.796875 L 535.546875 722 L 59.71875 722 Z M 59.71875 118.796875 " clip-rule="nonzero"/></clipPath></defs><path fill="#ffffff" d="M 287.246094 712.835938 C 234.730469 712.835938 187.480469 701.234375 146.800781 678.34375 C 134.023438 671.160156 125.496094 665.882812 118.304688 660.699219 C 98.242188 646.238281 86.605469 622.804688 87.179688 598.015625 C 87.753906 573.027344 100.585938 549.957031 121.503906 536.292969 L 129.03125 531.378906 C 141.375 523.316406 155.683594 519.054688 170.417969 519.054688 C 187.210938 519.054688 203.792969 524.742188 217.113281 535.066406 C 231.738281 546.398438 257.226562 560.070312 295.621094 560.859375 L 299.398438 560.898438 C 322.484375 560.894531 342.773438 556.378906 358.066406 547.839844 C 365.105469 543.910156 368.457031 540.105469 368.457031 529.113281 C 368.457031 511.695312 362.695312 507.503906 359.925781 505.488281 C 355.949219 502.601562 338.921875 492.796875 287.265625 488.308594 C 213.789062 482.195312 160.996094 464.847656 125.9375 435.277344 C 88.023438 403.332031 68.796875 360.742188 68.796875 308.707031 C 68.796875 251.210938 90.417969 205.511719 133.066406 172.871094 C 172 143.0625 224.207031 127.949219 288.230469 127.949219 C 347.210938 127.949219 411.15625 143.761719 459.292969 170.246094 C 481.78125 182.625 496.492188 205.238281 498.640625 230.734375 C 500.777344 256.058594 490.152344 280.625 470.226562 296.441406 C 456.363281 307.453125 438.886719 313.515625 421.03125 313.515625 C 408.660156 313.515625 396.199219 310.609375 384.992188 305.109375 C 336.253906 281.199219 283.386719 279.9375 282.863281 279.925781 C 252.492188 279.929688 237.554688 285.773438 230.449219 290.679688 C 225.304688 294.230469 222.855469 297.539062 222.855469 306.730469 C 222.855469 311.78125 223.566406 316.136719 232.515625 322.347656 C 238.296875 326.363281 257.453125 336.15625 310.792969 340.601562 C 379.609375 346.796875 430.574219 364.144531 466.753906 393.652344 C 506.378906 425.980469 526.46875 468.894531 526.46875 521.203125 C 526.46875 562.667969 514.097656 599.015625 489.703125 629.242188 C 466.875 657.574219 436.421875 679.070312 399.214844 693.113281 C 364.523438 706.203125 326.855469 712.835938 287.246094 712.835938 Z M 287.246094 712.835938 " fill-opacity="1" fill-rule="nonzero"/><g clip-path="url(#14f30c1f9a)"><path fill="#000000" d="M 288.230469 127.949219 C 347.210938 127.949219 411.15625 143.761719 459.292969 170.246094 C 481.78125 182.625 496.492188 205.238281 498.640625 230.734375 C 500.777344 256.058594 490.152344 280.625 470.226562 296.441406 C 456.359375 307.453125 438.886719 313.515625 421.03125 313.515625 C 408.660156 313.515625 396.199219 310.609375 384.992188 305.109375 C 336.253906 281.199219 283.386719 279.9375 282.859375 279.925781 C 252.488281 279.929688 237.554688 285.773438 230.449219 290.679688 C 225.304688 294.230469 222.851562 297.539062 222.851562 306.730469 C 222.851562 311.78125 223.566406 316.136719 232.515625 322.347656 C 238.292969 326.363281 257.453125 336.15625 310.792969 340.601562 C 379.605469 346.796875 430.570312 364.144531 466.753906 393.652344 C 506.378906 425.980469 526.464844 468.894531 526.464844 521.203125 C 526.464844 562.667969 514.097656 599.015625 489.699219 629.242188 C 466.871094 657.574219 436.421875 679.070312 399.210938 693.113281 C 364.523438 706.203125 326.855469 712.835938 287.246094 712.835938 C 234.730469 712.835938 187.476562 701.230469 146.800781 678.34375 C 134.023438 671.160156 125.496094 665.882812 118.300781 660.699219 C 98.238281 646.238281 86.605469 622.804688 87.179688 598.015625 C 87.753906 573.027344 100.585938 549.957031 121.503906 536.292969 L 129.03125 531.378906 C 141.375 523.316406 155.683594 519.054688 170.417969 519.054688 C 187.207031 519.054688 203.792969 524.742188 217.113281 535.066406 C 231.738281 546.398438 257.226562 560.070312 295.617188 560.859375 L 299.398438 560.898438 C 322.484375 560.894531 342.773438 556.378906 358.066406 547.839844 C 365.105469 543.910156 368.453125 540.105469 368.453125 529.113281 C 368.453125 511.695312 362.695312 507.503906 359.925781 505.488281 C 355.949219 502.601562 338.921875 492.796875 287.265625 488.308594 C 213.789062 482.195312 160.996094 464.847656 125.9375 435.277344 C 88.023438 403.332031 68.796875 360.742188 68.796875 308.707031 C 68.796875 251.210938 90.417969 205.511719 133.066406 172.871094 C 172 143.0625 224.207031 127.949219 288.230469 127.949219 M 288.230469 118.875 C 222.164062 118.875 168.101562 134.621094 127.546875 165.671875 C 105.164062 182.800781 88.066406 203.632812 76.734375 227.589844 C 65.445312 251.449219 59.71875 278.742188 59.71875 308.707031 C 59.71875 335.898438 64.820312 360.980469 74.875 383.257812 C 84.964844 405.597656 100.175781 425.433594 120.089844 442.210938 C 156.632812 473.035156 211.070312 491.070312 286.511719 497.347656 C 338.148438 501.835938 353.058594 511.710938 354.589844 512.824219 C 356.140625 513.953125 359.378906 516.3125 359.378906 529.113281 C 359.378906 536.714844 357.816406 537.585938 353.640625 539.917969 C 339.707031 547.699219 320.96875 551.816406 299.449219 551.828125 L 295.761719 551.785156 C 259.878906 551.042969 236.214844 538.386719 222.675781 527.898438 C 207.769531 516.347656 189.210938 509.984375 170.417969 509.984375 C 153.917969 509.984375 137.890625 514.757812 124.066406 523.785156 L 116.539062 528.699219 C 93.117188 543.996094 78.75 569.832031 78.105469 597.804688 C 77.464844 625.585938 90.507812 651.84375 112.996094 668.054688 C 120.460938 673.4375 129.242188 678.878906 142.347656 686.25 C 184.402344 709.910156 233.152344 721.90625 287.25 721.90625 C 327.957031 721.90625 366.707031 715.074219 402.421875 701.601562 C 441.167969 686.972656 472.914062 664.542969 496.773438 634.929688 C 522.5 603.058594 535.542969 564.792969 535.542969 521.203125 C 535.542969 493.832031 530.210938 468.5625 519.691406 446.089844 C 509.15625 423.589844 493.277344 403.582031 472.492188 386.625 C 434.863281 355.9375 382.238281 337.929688 311.609375 331.566406 L 311.578125 331.566406 L 311.546875 331.5625 C 258.96875 327.179688 241.726562 317.699219 237.695312 314.898438 C 231.929688 310.898438 231.929688 309.507812 231.929688 306.730469 C 231.929688 300.679688 232.855469 300.039062 235.609375 298.140625 C 240.546875 294.734375 253.238281 289.015625 282.746094 288.996094 C 284.984375 289.0625 335.285156 290.828125 380.992188 313.253906 C 393.433594 319.359375 407.28125 322.585938 421.03125 322.585938 C 440.933594 322.585938 460.410156 315.824219 475.875 303.542969 C 498.183594 285.832031 510.078125 258.328125 507.683594 229.972656 C 505.28125 201.445312 488.828125 176.148438 463.675781 162.300781 C 414.253906 135.109375 348.667969 118.875 288.230469 118.875 Z M 288.230469 118.875 " fill-opacity="1" fill-rule="nonzero"/></g><path fill="#58595b" d="M 397.957031 229.394531 C 395.308594 228.128906 392.554688 226.90625 389.777344 225.757812 L 391.511719 221.566406 C 394.363281 222.746094 397.191406 224.003906 399.914062 225.304688 Z M 397.957031 229.394531 " fill-opacity="1" fill-rule="nonzero"/><path fill="#58595b" d="M 294.402344 639.679688 C 292.394531 639.679688 290.371094 639.65625 288.390625 639.609375 L 288.492188 635.074219 C 294.246094 635.207031 300.183594 635.144531 306.257812 634.765625 L 306.542969 639.289062 C 302.429688 639.546875 298.347656 639.679688 294.402344 639.679688 Z M 270.296875 638.53125 C 264.226562 637.941406 258.179688 637.113281 252.332031 636.066406 L 253.128906 631.605469 C 258.859375 632.625 264.78125 633.4375 270.738281 634.015625 Z M 324.601562 637.394531 L 323.941406 632.90625 C 329.785156 632.046875 335.664062 630.945312 341.421875 629.621094 L 342.4375 634.042969 C 336.5625 635.390625 330.5625 636.519531 324.601562 637.394531 Z M 234.617188 632.121094 C 228.722656 630.535156 222.902344 628.675781 217.316406 626.597656 L 218.898438 622.347656 C 224.355469 624.375 230.039062 626.191406 235.796875 627.742188 Z M 359.953125 629.269531 L 358.574219 624.945312 C 364.3125 623.121094 369.921875 621.058594 375.246094 618.8125 L 377.007812 622.992188 C 371.558594 625.289062 365.820312 627.402344 359.953125 629.269531 Z M 200.605469 619.433594 C 195.132812 616.75 189.78125 613.773438 184.707031 610.589844 L 187.125 606.746094 C 192.0625 609.851562 197.269531 612.75 202.601562 615.359375 Z M 393.386719 615.085938 L 391.195312 611.113281 C 396.503906 608.1875 401.527344 605.007812 406.121094 601.667969 L 408.789062 605.332031 C 404.042969 608.785156 398.863281 612.066406 393.386719 615.085938 Z M 422.738281 593.515625 L 419.539062 590.296875 C 423.796875 586.066406 427.585938 581.5625 430.804688 576.90625 L 434.539062 579.484375 C 431.164062 584.367188 427.195312 589.089844 422.738281 593.515625 Z M 443.359375 563.371094 L 439.167969 561.628906 C 441.386719 556.292969 443.027344 550.675781 444.046875 544.9375 L 448.515625 545.730469 C 447.4375 551.792969 445.703125 557.726562 443.359375 563.371094 Z M 450.085938 527.507812 L 445.546875 527.457031 C 445.554688 527.007812 445.554688 526.566406 445.554688 526.121094 C 445.558594 520.59375 445.164062 515.144531 444.390625 509.925781 L 448.878906 509.257812 C 449.6875 514.699219 450.09375 520.371094 450.09375 526.121094 C 450.09375 526.582031 450.089844 527.042969 450.085938 527.507812 Z M 440.285156 492.90625 C 438.371094 487.320312 435.917969 481.988281 432.992188 477.050781 L 436.894531 474.742188 C 439.980469 479.941406 442.5625 485.558594 444.574219 491.4375 Z M 422.554688 463.09375 C 418.644531 458.894531 414.214844 455.039062 409.394531 451.640625 L 412.011719 447.933594 C 417.085938 451.515625 421.753906 455.574219 425.878906 460.007812 Z M 394.191406 442.796875 C 391.246094 441.335938 388.148438 439.914062 384.988281 438.5625 C 382.695312 437.585938 380.324219 436.632812 377.9375 435.734375 L 379.535156 431.488281 C 381.984375 432.410156 384.417969 433.386719 386.773438 434.394531 C 390.011719 435.777344 393.1875 437.238281 396.207031 438.734375 Z M 361.058594 430.253906 C 355.5625 428.730469 349.742188 427.355469 343.746094 426.164062 L 344.632812 421.714844 C 350.734375 422.925781 356.667969 424.328125 362.269531 425.882812 Z M 326.167969 423.230469 C 320.507812 422.453125 314.703125 421.792969 308.425781 421.21875 L 308.839844 416.703125 C 315.1875 417.285156 321.058594 417.949219 326.785156 418.738281 Z M 290.546875 419.582031 C 284.1875 419.019531 278.316406 418.375 272.59375 417.613281 L 273.195312 413.117188 C 278.847656 413.871094 284.65625 414.507812 290.949219 415.0625 Z M 254.738281 414.726562 C 248.625 413.550781 242.683594 412.1875 237.074219 410.675781 L 238.257812 406.296875 C 243.757812 407.78125 249.589844 409.117188 255.597656 410.273438 Z M 219.769531 405.203125 C 216.8125 404.117188 213.878906 402.957031 211.050781 401.75 C 208.3125 400.578125 205.613281 399.351562 203.035156 398.101562 L 205.015625 394.019531 C 207.53125 395.238281 210.160156 396.4375 212.832031 397.578125 C 215.589844 398.753906 218.449219 399.886719 221.332031 400.945312 Z M 187.128906 389.140625 C 182.015625 385.707031 177.226562 381.8125 172.894531 377.566406 L 176.074219 374.328125 C 180.207031 378.382812 184.777344 382.097656 189.65625 385.378906 Z M 161.0625 363.539062 C 157.585938 358.515625 154.574219 353.125 152.109375 347.519531 L 156.261719 345.695312 C 158.613281 351.039062 161.484375 356.171875 164.796875 360.960938 Z M 146.335938 330.105469 C 144.972656 324.203125 144.132812 318.09375 143.84375 311.941406 L 148.378906 311.730469 C 148.652344 317.609375 149.453125 323.449219 150.757812 329.085938 Z M 149.054688 294.203125 L 144.550781 293.640625 C 145.328125 287.421875 146.679688 281.398438 148.570312 275.742188 L 152.875 277.179688 C 151.078125 282.550781 149.792969 288.277344 149.054688 294.203125 Z M 160.152344 261.390625 L 156.265625 259.046875 C 159.390625 253.867188 163.144531 248.949219 167.417969 244.433594 L 170.714844 247.550781 C 166.664062 251.828125 163.113281 256.484375 160.152344 261.390625 Z M 183.910156 236.070312 L 181.257812 232.390625 C 186.019531 228.957031 191.285156 225.769531 196.898438 222.917969 L 198.953125 226.960938 C 193.546875 229.707031 188.484375 232.769531 183.910156 236.070312 Z M 215.1875 219.996094 L 213.652344 215.730469 C 219.164062 213.746094 225.027344 211.984375 231.070312 210.488281 L 232.164062 214.890625 C 226.265625 216.347656 220.554688 218.066406 215.1875 219.996094 Z M 373.074219 219.785156 C 367.585938 218.105469 361.804688 216.589844 355.886719 215.285156 L 356.863281 210.859375 C 362.898438 212.1875 368.800781 213.734375 374.402344 215.449219 Z M 338.386719 212.066406 C 332.683594 211.210938 326.730469 210.503906 320.691406 209.957031 L 321.097656 205.441406 C 327.226562 205.992188 333.265625 206.714844 339.058594 207.582031 Z M 249.585938 211.386719 L 248.882812 206.90625 C 254.730469 205.984375 260.789062 205.269531 266.886719 204.78125 L 267.25 209.300781 C 261.265625 209.78125 255.324219 210.480469 249.585938 211.386719 Z M 302.886719 208.816406 C 297.09375 208.585938 291.109375 208.46875 285.039062 208.519531 L 285 203.984375 C 291.140625 203.933594 297.203125 204.050781 303.066406 204.285156 Z M 302.886719 208.816406 " fill-opacity="1" fill-rule="nonzero"/><path fill="#58595b" d="M 169.660156 599.929688 C 167.265625 598.023438 164.898438 596.027344 162.625 594 L 165.648438 590.617188 C 167.859375 592.589844 170.160156 594.527344 172.484375 596.382812 Z M 169.660156 599.929688 " fill-opacity="1" fill-rule="nonzero"/><path fill="#58595b" d="M 143.628906 569.648438 L 177.980469 583.78125 L 148.554688 606.445312 Z M 143.628906 569.648438 " fill-opacity="1" fill-rule="nonzero"/><path fill="#414042" d="M 459.917969 234.722656 C 459.917969 236.066406 459.851562 237.40625 459.71875 238.746094 C 459.585938 240.082031 459.390625 241.410156 459.128906 242.726562 C 458.867188 244.046875 458.539062 245.347656 458.148438 246.632812 C 457.757812 247.921875 457.304688 249.183594 456.792969 250.425781 C 456.277344 251.667969 455.703125 252.882812 455.070312 254.066406 C 454.433594 255.25 453.746094 256.402344 452.996094 257.519531 C 452.25 258.636719 451.449219 259.714844 450.597656 260.753906 C 449.742188 261.792969 448.839844 262.789062 447.890625 263.738281 C 446.941406 264.6875 445.945312 265.589844 444.90625 266.441406 C 443.867188 267.296875 442.785156 268.09375 441.667969 268.839844 C 440.550781 269.589844 439.398438 270.277344 438.210938 270.910156 C 437.027344 271.546875 435.8125 272.121094 434.570312 272.632812 C 433.328125 273.148438 432.0625 273.601562 430.777344 273.992188 C 429.488281 274.378906 428.1875 274.707031 426.867188 274.96875 C 425.546875 275.230469 424.21875 275.429688 422.882812 275.558594 C 421.542969 275.691406 420.203125 275.757812 418.855469 275.757812 C 417.511719 275.757812 416.171875 275.691406 414.832031 275.558594 C 413.496094 275.429688 412.164062 275.230469 410.847656 274.96875 C 409.527344 274.707031 408.226562 274.378906 406.9375 273.992188 C 405.652344 273.601562 404.386719 273.148438 403.144531 272.632812 C 401.902344 272.121094 400.6875 271.546875 399.5 270.910156 C 398.316406 270.277344 397.164062 269.589844 396.046875 268.839844 C 394.925781 268.09375 393.847656 267.296875 392.808594 266.441406 C 391.769531 265.589844 390.773438 264.6875 389.824219 263.738281 C 388.871094 262.789062 387.96875 261.792969 387.117188 260.753906 C 386.265625 259.714844 385.464844 258.636719 384.71875 257.519531 C 383.96875 256.402344 383.28125 255.25 382.644531 254.066406 C 382.011719 252.882812 381.4375 251.667969 380.921875 250.425781 C 380.410156 249.183594 379.957031 247.921875 379.566406 246.632812 C 379.175781 245.347656 378.847656 244.046875 378.585938 242.726562 C 378.324219 241.410156 378.128906 240.082031 377.996094 238.746094 C 377.863281 237.40625 377.796875 236.066406 377.796875 234.722656 C 377.796875 233.378906 377.863281 232.039062 377.996094 230.699219 C 378.128906 229.363281 378.324219 228.035156 378.585938 226.71875 C 378.847656 225.398438 379.175781 224.097656 379.566406 222.8125 C 379.957031 221.523438 380.410156 220.261719 380.921875 219.019531 C 381.4375 217.777344 382.011719 216.566406 382.644531 215.378906 C 383.28125 214.195312 383.96875 213.042969 384.71875 211.925781 C 385.464844 210.808594 386.265625 209.730469 387.117188 208.691406 C 387.96875 207.652344 388.871094 206.65625 389.824219 205.707031 C 390.773438 204.757812 391.769531 203.855469 392.808594 203.003906 C 393.847656 202.148438 394.925781 201.351562 396.046875 200.605469 C 397.164062 199.855469 398.316406 199.167969 399.5 198.535156 C 400.6875 197.898438 401.902344 197.328125 403.144531 196.8125 C 404.386719 196.296875 405.652344 195.84375 406.9375 195.457031 C 408.226562 195.066406 409.527344 194.738281 410.847656 194.476562 C 412.164062 194.214844 413.496094 194.019531 414.832031 193.886719 C 416.171875 193.753906 417.511719 193.6875 418.855469 193.6875 C 420.203125 193.6875 421.542969 193.753906 422.882812 193.886719 C 424.21875 194.019531 425.546875 194.214844 426.867188 194.476562 C 428.1875 194.738281 429.488281 195.066406 430.777344 195.457031 C 432.0625 195.84375 433.328125 196.296875 434.570312 196.8125 C 435.8125 197.328125 437.027344 197.898438 438.210938 198.535156 C 439.398438 199.167969 440.550781 199.855469 441.667969 200.605469 C 442.785156 201.351562 443.867188 202.148438 444.90625 203.003906 C 445.945312 203.855469 446.941406 204.757812 447.890625 205.707031 C 448.839844 206.65625 449.742188 207.652344 450.597656 208.691406 C 451.449219 209.730469 452.25 210.808594 452.996094 211.925781 C 453.746094 213.042969 454.433594 214.195312 455.070312 215.378906 C 455.703125 216.566406 456.277344 217.777344 456.792969 219.019531 C 457.304688 220.261719 457.757812 221.523438 458.148438 222.8125 C 458.539062 224.097656 458.867188 225.398438 459.128906 226.71875 C 459.390625 228.035156 459.585938 229.363281 459.71875 230.699219 C 459.851562 232.039062 459.917969 233.378906 459.917969 234.722656 Z M 459.917969 234.722656 " fill-opacity="1" fill-rule="nonzero"/><path fill="#fcfcfc" d="M 423.609375 206.628906 L 418.339844 206.628906 C 417.738281 206.628906 417.171875 206.894531 416.78125 207.347656 L 401.257812 225.492188 C 400.574219 226.304688 400.613281 227.507812 401.371094 228.265625 L 404.324219 231.210938 C 405.121094 232.003906 406.40625 232.003906 407.203125 231.222656 L 416.296875 222.242188 L 416.296875 261.566406 C 416.296875 262.691406 417.214844 263.609375 418.335938 263.609375 L 423.609375 263.609375 C 424.734375 263.609375 425.652344 262.691406 425.652344 261.566406 L 425.652344 208.671875 C 425.652344 207.546875 424.738281 206.628906 423.609375 206.628906 Z M 423.609375 206.628906 " fill-opacity="1" fill-rule="nonzero"/></svg>