<svg xmlns="http://www.w3.org/2000/svg" xmlns:xlink="http://www.w3.org/1999/xlink" width="800" zoomAndPan="magnify" viewBox="0 0 600 899.99999" height="1200" preserveAspectRatio="xMidYMid meet" version="1.0"><defs><g/><clipPath id="f2d7d77832"><path d="M 279.472656 323.347656 L 320.714844 323.347656 L 320.714844 350.140625 L 279.472656 350.140625 Z M 279.472656 323.347656 " clip-rule="nonzero"/></clipPath><clipPath id="52a7e1907f"><path d="M 92.390625 245.808594 L 119.183594 245.808594 L 119.183594 287.054688 L 92.390625 287.054688 Z M 92.390625 245.808594 " clip-rule="nonzero"/></clipPath></defs><path stroke-linecap="butt" transform="matrix(0.75, 0, 0, 0.75, 65.72754, -15.449276)" fill="none" stroke-linejoin="miter" d="M 312.899755 1042.104298 C 292.102879 1042.104298 276.139336 1036.208464 265.003919 1024.422005 C 254.035169 1012.630338 248.550793 996.33867 248.550793 975.547002 L 248.550793 432.515724 L 52.3112 432.515724 C 34.795574 432.515724 21.201823 427.687599 11.545573 418.02614 C 1.884114 408.203223 -2.94922 394.859472 -2.94922 377.994888 C -2.94922 360.64072 1.884114 347.458428 11.545573 338.453219 C 21.201823 329.281344 34.795574 324.69801 52.3112 324.69801 L 573.483102 324.69801 C 590.83727 324.69801 604.347687 329.281344 614.009146 338.453219 C 623.832063 347.458428 628.743522 360.64072 628.743522 377.994888 C 628.743522 394.859472 623.832063 408.203223 614.009146 418.02614 C 604.347687 427.687599 590.83727 432.515724 573.483102 432.515724 L 377.248717 432.515724 L 377.248717 975.547002 C 377.248717 996.33867 371.842466 1012.630338 361.035174 1024.422005 C 350.394549 1036.208464 334.347673 1042.104298 312.899755 1042.104298 Z M 312.899755 1042.104298 " stroke="#1f8785" stroke-width="40.239601" stroke-opacity="1" stroke-miterlimit="4"/><g fill="#ffffff" fill-opacity="1"><g transform="translate(65.72754, 760.050683)"><g><path d="M 234.65625 6.03125 C 219.0625 6.03125 207.113281 1.628906 198.8125 -7.171875 C 190.507812 -15.972656 186.359375 -28.171875 186.359375 -43.765625 L 186.359375 -451.1875 L 39.234375 -451.1875 C 26.148438 -451.1875 15.960938 -454.832031 8.671875 -462.125 C 1.378906 -469.425781 -2.265625 -479.363281 -2.265625 -491.9375 C -2.265625 -505.007812 1.378906 -514.941406 8.671875 -521.734375 C 15.960938 -528.523438 26.148438 -531.921875 39.234375 -531.921875 L 430.0625 -531.921875 C 443.144531 -531.921875 453.332031 -528.523438 460.625 -521.734375 C 467.914062 -514.941406 471.5625 -505.007812 471.5625 -491.9375 C 471.5625 -479.363281 467.914062 -469.425781 460.625 -462.125 C 453.332031 -454.832031 443.144531 -451.1875 430.0625 -451.1875 L 282.9375 -451.1875 L 282.9375 -43.765625 C 282.9375 -28.171875 278.910156 -15.972656 270.859375 -7.171875 C 262.816406 1.628906 250.75 6.03125 234.65625 6.03125 Z M 234.65625 6.03125 "/></g></g></g><g clip-path="url(#f2d7d77832)"><path fill="#1f8785" d="M 301.574219 349.394531 L 320.234375 326.703125 C 321.640625 324.996094 319.707031 322.585938 317.734375 323.585938 L 300.921875 332.125 C 300.34375 332.417969 299.65625 332.417969 299.074219 332.125 L 282.261719 323.585938 C 280.289062 322.582031 278.355469 324.992188 279.757812 326.703125 L 298.421875 349.394531 C 299.238281 350.390625 300.757812 350.390625 301.574219 349.394531 " fill-opacity="1" fill-rule="nonzero"/></g><path fill="#1f8785" d="M 294 733.167969 L 294 697.167969 L 306 697.167969 L 306 733.167969 M 294 685.167969 L 294 649.167969 L 306 649.167969 L 306 685.167969 M 294 637.167969 L 294 601.167969 L 306 601.167969 L 306 637.167969 M 294 589.167969 L 294 553.167969 L 306 553.167969 L 306 589.167969 M 294 541.167969 L 294 505.167969 L 306 505.167969 L 306 541.167969 M 294 493.167969 L 294 457.167969 L 306 457.167969 L 306 493.167969 M 294 445.167969 L 294 409.167969 L 306 409.167969 L 306 445.167969 M 294 397.167969 L 294 372.4375 L 306 372.4375 L 306 397.167969 " fill-opacity="1" fill-rule="nonzero"/><g clip-path="url(#52a7e1907f)"><path fill="#1f8785" d="M 118.4375 264.953125 L 95.746094 246.289062 C 94.035156 244.886719 91.625 246.820312 92.628906 248.792969 L 101.164062 265.601562 C 101.460938 266.183594 101.460938 266.871094 101.164062 267.453125 L 92.628906 284.265625 C 91.625 286.238281 94.035156 288.171875 95.746094 286.765625 L 118.4375 268.105469 C 119.429688 267.289062 119.429688 265.769531 118.4375 264.953125 " fill-opacity="1" fill-rule="nonzero"/></g><path fill="#1f8785" d="M 510.121094 272.535156 L 474.121094 272.535156 L 474.121094 260.535156 L 510.121094 260.535156 M 462.121094 272.535156 L 426.121094 272.535156 L 426.121094 260.535156 L 462.121094 260.535156 M 414.121094 272.535156 L 378.121094 272.535156 L 378.121094 260.535156 L 414.121094 260.535156 M 366.121094 272.535156 L 330.121094 272.535156 L 330.121094 260.535156 L 366.121094 260.535156 M 318.121094 272.535156 L 282.121094 272.535156 L 282.121094 260.535156 L 318.121094 260.535156 M 270.121094 272.535156 L 234.121094 272.535156 L 234.121094 260.535156 L 270.121094 260.535156 M 222.121094 272.535156 L 186.121094 272.535156 L 186.121094 260.535156 L 222.121094 260.535156 M 174.121094 272.535156 L 138.121094 272.535156 L 138.121094 260.535156 L 174.121094 260.535156 M 126.121094 272.535156 L 119.171875 272.535156 L 119.171875 260.535156 L 126.121094 260.535156 " fill-opacity="1" fill-rule="nonzero"/></svg>