<svg xmlns="http://www.w3.org/2000/svg" xmlns:xlink="http://www.w3.org/1999/xlink" width="794" zoomAndPan="magnify" viewBox="0 0 594.95996 842.24997" height="1123" preserveAspectRatio="xMidYMid meet" version="1.0"><defs><g/></defs><g fill="#000000" fill-opacity="1"><g transform="translate(82.877201, 608.138473)"><g><path d="M 215.078125 -149.71875 C 210.398438 -149.71875 208.0625 -152.0625 208.0625 -156.75 C 208.0625 -161.4375 210.398438 -163.78125 215.078125 -163.78125 C 219.765625 -163.78125 222.109375 -161.4375 222.109375 -156.75 C 222.109375 -152.0625 219.765625 -149.71875 215.078125 -149.71875 Z M 215.078125 -120.1875 C 210.398438 -120.1875 208.0625 -122.53125 208.0625 -127.21875 C 208.0625 -131.90625 210.398438 -134.25 215.078125 -134.25 C 219.765625 -134.25 222.109375 -131.90625 222.109375 -127.21875 C 222.109375 -122.53125 219.765625 -120.1875 215.078125 -120.1875 Z M 215.078125 -90.671875 C 210.398438 -90.671875 208.0625 -93.015625 208.0625 -97.703125 C 208.0625 -102.390625 210.398438 -104.734375 215.078125 -104.734375 C 219.765625 -104.734375 222.109375 -102.390625 222.109375 -97.703125 C 222.109375 -93.015625 219.765625 -90.671875 215.078125 -90.671875 Z M 215.078125 -61.15625 C 210.398438 -61.15625 208.0625 -63.5 208.0625 -68.1875 C 208.0625 -72.863281 210.398438 -75.203125 215.078125 -75.203125 C 219.765625 -75.203125 222.109375 -72.863281 222.109375 -68.1875 C 222.109375 -63.5 219.765625 -61.15625 215.078125 -61.15625 Z M 215.078125 -378.859375 C 210.398438 -378.859375 208.0625 -381.203125 208.0625 -385.890625 C 208.0625 -390.578125 210.398438 -392.921875 215.078125 -392.921875 C 219.765625 -392.921875 222.109375 -390.578125 222.109375 -385.890625 C 222.109375 -381.203125 219.765625 -378.859375 215.078125 -378.859375 Z M 215.078125 -350.75 C 210.398438 -350.75 208.0625 -353.085938 208.0625 -357.765625 C 208.0625 -362.453125 210.398438 -364.796875 215.078125 -364.796875 C 219.765625 -364.796875 222.109375 -362.453125 222.109375 -357.765625 C 222.109375 -353.085938 219.765625 -350.75 215.078125 -350.75 Z M 215.078125 -319.8125 C 210.398438 -319.8125 208.0625 -322.15625 208.0625 -326.84375 C 208.0625 -331.53125 210.398438 -333.875 215.078125 -333.875 C 219.765625 -333.875 222.109375 -331.53125 222.109375 -326.84375 C 222.109375 -322.15625 219.765625 -319.8125 215.078125 -319.8125 Z M 215.078125 -262.171875 C 210.398438 -262.171875 208.0625 -264.515625 208.0625 -269.203125 C 208.0625 -273.890625 210.398438 -276.234375 215.078125 -276.234375 C 219.765625 -276.234375 222.109375 -273.890625 222.109375 -269.203125 C 222.109375 -264.515625 219.765625 -262.171875 215.078125 -262.171875 Z M 215.078125 -235.46875 C 210.398438 -235.46875 208.0625 -237.8125 208.0625 -242.5 C 208.0625 -247.1875 210.398438 -249.53125 215.078125 -249.53125 C 219.765625 -249.53125 222.109375 -247.1875 222.109375 -242.5 C 222.109375 -237.8125 219.765625 -235.46875 215.078125 -235.46875 Z M 215.078125 -206.65625 C 210.398438 -206.65625 208.0625 -208.992188 208.0625 -213.671875 C 208.0625 -218.359375 210.398438 -220.703125 215.078125 -220.703125 C 219.765625 -220.703125 222.109375 -218.359375 222.109375 -213.671875 C 222.109375 -208.992188 219.765625 -206.65625 215.078125 -206.65625 Z M 215.078125 -177.828125 C 210.398438 -177.828125 208.0625 -180.171875 208.0625 -184.859375 C 208.0625 -189.546875 210.398438 -191.890625 215.078125 -191.890625 C 219.765625 -191.890625 222.109375 -189.546875 222.109375 -184.859375 C 222.109375 -180.171875 219.765625 -177.828125 215.078125 -177.828125 Z M 215.078125 -461.09375 C 210.398438 -461.09375 208.0625 -463.4375 208.0625 -468.125 C 208.0625 -472.8125 210.398438 -475.15625 215.078125 -475.15625 C 219.765625 -475.15625 222.109375 -472.8125 222.109375 -468.125 C 222.109375 -463.4375 219.765625 -461.09375 215.078125 -461.09375 Z M 215.078125 -433.6875 C 210.398438 -433.6875 208.0625 -436.03125 208.0625 -440.71875 C 208.0625 -445.394531 210.398438 -447.734375 215.078125 -447.734375 C 219.765625 -447.734375 222.109375 -445.394531 222.109375 -440.71875 C 222.109375 -436.03125 219.765625 -433.6875 215.078125 -433.6875 Z M 215.078125 -407.671875 C 210.398438 -407.671875 208.0625 -410.015625 208.0625 -414.703125 C 208.0625 -419.390625 210.398438 -421.734375 215.078125 -421.734375 C 219.765625 -421.734375 222.109375 -419.390625 222.109375 -414.703125 C 222.109375 -410.015625 219.765625 -407.671875 215.078125 -407.671875 Z M 215.078125 -291 C 210.398438 -291 208.0625 -293.34375 208.0625 -298.03125 C 208.0625 -302.707031 210.398438 -305.046875 215.078125 -305.046875 C 219.765625 -305.046875 222.109375 -302.707031 222.109375 -298.03125 C 222.109375 -293.34375 219.765625 -291 215.078125 -291 Z M 215.078125 -32.328125 C 210.398438 -32.328125 208.0625 -34.671875 208.0625 -39.359375 C 208.0625 -44.046875 210.398438 -46.390625 215.078125 -46.390625 C 219.765625 -46.390625 222.109375 -44.046875 222.109375 -39.359375 C 222.109375 -34.671875 219.765625 -32.328125 215.078125 -32.328125 Z M 215.078125 -3.515625 C 210.398438 -3.515625 208.0625 -5.859375 208.0625 -10.546875 C 208.0625 -15.234375 210.398438 -17.578125 215.078125 -17.578125 C 219.765625 -17.578125 222.109375 -15.234375 222.109375 -10.546875 C 222.109375 -5.859375 219.765625 -3.515625 215.078125 -3.515625 Z M 18.984375 -480.078125 C 14.296875 -480.078125 11.953125 -482.421875 11.953125 -487.109375 C 11.953125 -491.785156 14.296875 -494.125 18.984375 -494.125 C 23.660156 -494.125 26 -491.785156 26 -487.109375 C 26 -482.421875 23.660156 -480.078125 18.984375 -480.078125 Z M 44.984375 -480.078125 C 40.296875 -480.078125 37.953125 -482.421875 37.953125 -487.109375 C 37.953125 -491.785156 40.296875 -494.125 44.984375 -494.125 C 49.671875 -494.125 52.015625 -491.785156 52.015625 -487.109375 C 52.015625 -482.421875 49.671875 -480.078125 44.984375 -480.078125 Z M 70.984375 -480.078125 C 66.304688 -480.078125 63.96875 -482.421875 63.96875 -487.109375 C 63.96875 -491.785156 66.304688 -494.125 70.984375 -494.125 C 75.671875 -494.125 78.015625 -491.785156 78.015625 -487.109375 C 78.015625 -482.421875 75.671875 -480.078125 70.984375 -480.078125 Z M 97 -480.078125 C 92.3125 -480.078125 89.96875 -482.421875 89.96875 -487.109375 C 89.96875 -491.785156 92.3125 -494.125 97 -494.125 C 101.6875 -494.125 104.03125 -491.785156 104.03125 -487.109375 C 104.03125 -482.421875 101.6875 -480.078125 97 -480.078125 Z M 123 -480.078125 C 118.320312 -480.078125 115.984375 -482.421875 115.984375 -487.109375 C 115.984375 -491.785156 118.320312 -494.125 123 -494.125 C 127.6875 -494.125 130.03125 -491.785156 130.03125 -487.109375 C 130.03125 -482.421875 127.6875 -480.078125 123 -480.078125 Z M 149.015625 -480.078125 C 144.328125 -480.078125 141.984375 -482.421875 141.984375 -487.109375 C 141.984375 -491.785156 144.328125 -494.125 149.015625 -494.125 C 153.703125 -494.125 156.046875 -491.785156 156.046875 -487.109375 C 156.046875 -482.421875 153.703125 -480.078125 149.015625 -480.078125 Z M 175.015625 -480.078125 C 170.328125 -480.078125 167.984375 -482.421875 167.984375 -487.109375 C 167.984375 -491.785156 170.328125 -494.125 175.015625 -494.125 C 179.703125 -494.125 182.046875 -491.785156 182.046875 -487.109375 C 182.046875 -482.421875 179.703125 -480.078125 175.015625 -480.078125 Z M 201.03125 -480.078125 C 196.34375 -480.078125 194 -482.421875 194 -487.109375 C 194 -491.785156 196.34375 -494.125 201.03125 -494.125 C 205.71875 -494.125 208.0625 -491.785156 208.0625 -487.109375 C 208.0625 -482.421875 205.71875 -480.078125 201.03125 -480.078125 Z M 227.03125 -480.078125 C 222.34375 -480.078125 220 -482.421875 220 -487.109375 C 220 -491.785156 222.34375 -494.125 227.03125 -494.125 C 231.71875 -494.125 234.0625 -491.785156 234.0625 -487.109375 C 234.0625 -482.421875 231.71875 -480.078125 227.03125 -480.078125 Z M 253.046875 -480.078125 C 248.359375 -480.078125 246.015625 -482.421875 246.015625 -487.109375 C 246.015625 -491.785156 248.359375 -494.125 253.046875 -494.125 C 257.722656 -494.125 260.0625 -491.785156 260.0625 -487.109375 C 260.0625 -482.421875 257.722656 -480.078125 253.046875 -480.078125 Z M 279.046875 -480.078125 C 274.359375 -480.078125 272.015625 -482.421875 272.015625 -487.109375 C 272.015625 -491.785156 274.359375 -494.125 279.046875 -494.125 C 283.734375 -494.125 286.078125 -491.785156 286.078125 -487.109375 C 286.078125 -482.421875 283.734375 -480.078125 279.046875 -480.078125 Z M 306.453125 -480.078125 C 301.773438 -480.078125 299.4375 -482.421875 299.4375 -487.109375 C 299.4375 -491.785156 301.773438 -494.125 306.453125 -494.125 C 311.140625 -494.125 313.484375 -491.785156 313.484375 -487.109375 C 313.484375 -482.421875 311.140625 -480.078125 306.453125 -480.078125 Z M 332.46875 -480.078125 C 327.78125 -480.078125 325.4375 -482.421875 325.4375 -487.109375 C 325.4375 -491.785156 327.78125 -494.125 332.46875 -494.125 C 337.15625 -494.125 339.5 -491.785156 339.5 -487.109375 C 339.5 -482.421875 337.15625 -480.078125 332.46875 -480.078125 Z M 357.765625 -480.078125 C 353.085938 -480.078125 350.75 -482.421875 350.75 -487.109375 C 350.75 -491.785156 353.085938 -494.125 357.765625 -494.125 C 362.453125 -494.125 364.796875 -491.785156 364.796875 -487.109375 C 364.796875 -482.421875 362.453125 -480.078125 357.765625 -480.078125 Z M 383.78125 -480.078125 C 379.09375 -480.078125 376.75 -482.421875 376.75 -487.109375 C 376.75 -491.785156 379.09375 -494.125 383.78125 -494.125 C 388.46875 -494.125 390.8125 -491.785156 390.8125 -487.109375 C 390.8125 -482.421875 388.46875 -480.078125 383.78125 -480.078125 Z M 410.484375 -480.078125 C 405.796875 -480.078125 403.453125 -482.421875 403.453125 -487.109375 C 403.453125 -491.785156 405.796875 -494.125 410.484375 -494.125 C 415.171875 -494.125 417.515625 -491.785156 417.515625 -487.109375 C 417.515625 -482.421875 415.171875 -480.078125 410.484375 -480.078125 Z M 410.484375 -480.078125 "/></g></g></g><path stroke-linecap="butt" transform="matrix(0.749333, 0, 0, 0.749333, 111.951916, 80.617658)" fill="none" stroke-linejoin="miter" d="M 0.00161358 2.001153 L 493.550127 2.001153 " stroke="#000000" stroke-width="4" stroke-opacity="1" stroke-miterlimit="4"/><path stroke-linecap="round" transform="matrix(0.749333, 0, 0, 0.749333, 111.951916, 80.617658)" fill="none" stroke-linejoin="round" d="M 485.548215 -3.998977 L 493.550127 2.001153 L 485.548215 8.001284 " stroke="#000000" stroke-width="4" stroke-opacity="1" stroke-miterlimit="4"/><path stroke-linecap="butt" transform="matrix(0, 0.749333, -0.749333, 0, 263.268549, 196.818082)" fill="none" stroke-linejoin="miter" d="M -0.00223658 2.00047 L 451.910272 2.00047 " stroke="#000000" stroke-width="4" stroke-opacity="1" stroke-miterlimit="4"/><path stroke-linecap="round" transform="matrix(0, 0.749333, -0.749333, 0, 263.268549, 196.818082)" fill="none" stroke-linejoin="round" d="M 443.908361 -3.99966 L 451.910272 2.00047 L 443.908361 8.000601 " stroke="#000000" stroke-width="4" stroke-opacity="1" stroke-miterlimit="4"/></svg>