<svg xmlns="http://www.w3.org/2000/svg" xmlns:xlink="http://www.w3.org/1999/xlink" width="794" zoomAndPan="magnify" viewBox="0 0 594.95996 842.24997" height="1123" preserveAspectRatio="xMidYMid meet" version="1.0"><defs><clipPath id="61dffd30a8"><path d="M 59.71875 113.109375 L 535.546875 113.109375 L 535.546875 728.3125 L 59.71875 728.3125 Z M 59.71875 113.109375 " clip-rule="nonzero"/></clipPath></defs><path fill="#ffffff" d="M 297.625 722.679688 C 262.398438 722.679688 233.734375 694.007812 233.734375 658.765625 L 233.734375 237.195312 L 124.636719 237.195312 C 92 237.195312 65.445312 210.628906 65.445312 177.980469 C 65.445312 145.332031 92 118.765625 124.636719 118.765625 L 470.613281 118.765625 C 503.253906 118.765625 529.804688 145.332031 529.804688 177.980469 C 529.804688 210.628906 503.253906 237.195312 470.613281 237.195312 L 361.515625 237.195312 L 361.515625 658.765625 C 361.515625 694.007812 332.855469 722.679688 297.625 722.679688 Z M 297.625 722.679688 " fill-opacity="1" fill-rule="nonzero"/><g clip-path="url(#61dffd30a8)"><path fill="#000000" d="M 470.613281 118.765625 C 503.253906 118.765625 529.804688 145.332031 529.804688 177.980469 C 529.804688 210.628906 503.253906 237.195312 470.613281 237.195312 L 361.515625 237.195312 L 361.515625 658.765625 C 361.515625 694.007812 332.855469 722.679688 297.625 722.679688 C 262.398438 722.679688 233.734375 694.007812 233.734375 658.765625 L 233.734375 237.195312 L 124.636719 237.195312 C 92 237.195312 65.445312 210.628906 65.445312 177.980469 C 65.445312 145.332031 92 118.765625 124.636719 118.765625 L 470.613281 118.765625 M 470.613281 113.109375 L 124.636719 113.109375 C 88.882812 113.109375 59.789062 142.210938 59.789062 177.980469 C 59.789062 213.75 88.882812 242.851562 124.636719 242.851562 L 228.078125 242.851562 L 228.078125 658.765625 C 228.078125 697.128906 259.277344 728.339844 297.625 728.339844 C 335.976562 728.339844 367.171875 697.128906 367.171875 658.765625 L 367.171875 242.851562 L 470.613281 242.851562 C 506.371094 242.851562 535.460938 213.75 535.460938 177.980469 C 535.460938 142.210938 506.371094 113.109375 470.613281 113.109375 Z M 470.613281 113.109375 " fill-opacity="1" fill-rule="nonzero"/></g><path fill="#58595b" d="M 299.039062 678.324219 L 296.210938 678.324219 L 296.210938 674.148438 L 299.039062 674.148438 Z M 299.039062 662.828125 L 296.210938 662.828125 L 296.210938 651.511719 L 299.039062 651.511719 Z M 299.039062 640.195312 L 296.210938 640.195312 L 296.210938 628.878906 L 299.039062 628.878906 Z M 299.039062 617.5625 L 296.210938 617.5625 L 296.210938 606.246094 L 299.039062 606.246094 Z M 299.039062 594.929688 L 296.210938 594.929688 L 296.210938 583.613281 L 299.039062 583.613281 Z M 299.039062 572.296875 L 296.210938 572.296875 L 296.210938 560.980469 L 299.039062 560.980469 Z M 299.039062 549.664062 L 296.210938 549.664062 L 296.210938 538.347656 L 299.039062 538.347656 Z M 299.039062 527.03125 L 296.210938 527.03125 L 296.210938 515.714844 L 299.039062 515.714844 Z M 299.039062 504.398438 L 296.210938 504.398438 L 296.210938 493.078125 L 299.039062 493.078125 Z M 299.039062 481.761719 L 296.210938 481.761719 L 296.210938 470.445312 L 299.039062 470.445312 Z M 299.039062 459.128906 L 296.210938 459.128906 L 296.210938 447.8125 L 299.039062 447.8125 Z M 299.039062 436.496094 L 296.210938 436.496094 L 296.210938 425.179688 L 299.039062 425.179688 Z M 299.039062 413.863281 L 296.210938 413.863281 L 296.210938 402.546875 L 299.039062 402.546875 Z M 299.039062 391.230469 L 296.210938 391.230469 L 296.210938 379.914062 L 299.039062 379.914062 Z M 299.039062 368.597656 L 296.210938 368.597656 L 296.210938 357.28125 L 299.039062 357.28125 Z M 299.039062 345.964844 L 296.210938 345.964844 L 296.210938 334.648438 L 299.039062 334.648438 Z M 299.039062 323.328125 L 296.210938 323.328125 L 296.210938 312.011719 L 299.039062 312.011719 Z M 299.039062 300.695312 L 296.210938 300.695312 L 296.210938 289.378906 L 299.039062 289.378906 Z M 299.039062 278.0625 L 296.210938 278.0625 L 296.210938 266.746094 L 299.039062 266.746094 Z M 299.039062 255.429688 L 296.210938 255.429688 L 296.210938 244.113281 L 299.039062 244.113281 Z M 299.039062 232.796875 L 296.210938 232.796875 L 296.210938 221.480469 L 299.039062 221.480469 Z M 299.039062 210.164062 L 296.210938 210.164062 L 296.210938 198.847656 L 299.039062 198.847656 Z M 299.039062 210.164062 " fill-opacity="1" fill-rule="nonzero"/><path fill="#58595b" d="M 297.625 691.695312 L 309.199219 671.640625 L 286.050781 671.640625 Z M 297.625 691.695312 " fill-opacity="1" fill-rule="nonzero"/><path fill="#414042" d="M 325.46875 220.921875 C 325.46875 221.851562 325.425781 222.78125 325.332031 223.707031 C 325.242188 224.636719 325.105469 225.554688 324.925781 226.46875 C 324.742188 227.382812 324.515625 228.285156 324.246094 229.175781 C 323.976562 230.070312 323.664062 230.945312 323.304688 231.804688 C 322.949219 232.664062 322.550781 233.507812 322.113281 234.328125 C 321.675781 235.148438 321.195312 235.949219 320.679688 236.722656 C 320.160156 237.496094 319.609375 238.246094 319.015625 238.964844 C 318.425781 239.683594 317.800781 240.375 317.144531 241.03125 C 316.484375 241.691406 315.796875 242.316406 315.074219 242.90625 C 314.355469 243.496094 313.609375 244.050781 312.835938 244.570312 C 312.0625 245.085938 311.261719 245.566406 310.441406 246.003906 C 309.621094 246.445312 308.78125 246.839844 307.917969 247.199219 C 307.058594 247.554688 306.183594 247.867188 305.292969 248.136719 C 304.402344 248.410156 303.5 248.632812 302.585938 248.816406 C 301.671875 248.996094 300.753906 249.132812 299.828125 249.226562 C 298.898438 249.316406 297.972656 249.363281 297.039062 249.363281 C 296.109375 249.363281 295.179688 249.316406 294.253906 249.226562 C 293.328125 249.132812 292.40625 248.996094 291.492188 248.816406 C 290.582031 248.632812 289.679688 248.410156 288.785156 248.136719 C 287.894531 247.867188 287.019531 247.554688 286.160156 247.199219 C 285.300781 246.839844 284.457031 246.445312 283.636719 246.003906 C 282.816406 245.566406 282.019531 245.085938 281.246094 244.570312 C 280.46875 244.050781 279.722656 243.496094 279.003906 242.90625 C 278.285156 242.316406 277.59375 241.691406 276.9375 241.03125 C 276.277344 240.375 275.652344 239.683594 275.0625 238.964844 C 274.472656 238.246094 273.917969 237.496094 273.402344 236.722656 C 272.882812 235.949219 272.40625 235.148438 271.964844 234.328125 C 271.527344 233.507812 271.128906 232.664062 270.773438 231.804688 C 270.417969 230.945312 270.105469 230.070312 269.832031 229.175781 C 269.5625 228.285156 269.335938 227.382812 269.15625 226.46875 C 268.972656 225.554688 268.835938 224.636719 268.746094 223.707031 C 268.65625 222.78125 268.609375 221.851562 268.609375 220.921875 C 268.609375 219.988281 268.65625 219.058594 268.746094 218.132812 C 268.835938 217.207031 268.972656 216.285156 269.15625 215.371094 C 269.335938 214.457031 269.5625 213.554688 269.832031 212.664062 C 270.105469 211.773438 270.417969 210.898438 270.773438 210.035156 C 271.128906 209.175781 271.527344 208.335938 271.964844 207.515625 C 272.40625 206.691406 272.882812 205.894531 273.402344 205.121094 C 273.917969 204.34375 274.472656 203.597656 275.0625 202.878906 C 275.652344 202.15625 276.277344 201.46875 276.9375 200.808594 C 277.59375 200.152344 278.285156 199.527344 279.003906 198.933594 C 279.722656 198.34375 280.46875 197.789062 281.246094 197.273438 C 282.019531 196.753906 282.816406 196.277344 283.636719 195.839844 C 284.457031 195.398438 285.300781 195 286.160156 194.644531 C 287.019531 194.289062 287.894531 193.976562 288.785156 193.703125 C 289.679688 193.433594 290.582031 193.207031 291.492188 193.027344 C 292.40625 192.84375 293.328125 192.707031 294.253906 192.617188 C 295.179688 192.523438 296.109375 192.480469 297.039062 192.480469 C 297.972656 192.480469 298.898438 192.523438 299.828125 192.617188 C 300.753906 192.707031 301.671875 192.84375 302.585938 193.027344 C 303.5 193.207031 304.402344 193.433594 305.292969 193.703125 C 306.183594 193.976562 307.058594 194.289062 307.917969 194.644531 C 308.78125 195 309.621094 195.398438 310.441406 195.839844 C 311.261719 196.277344 312.0625 196.753906 312.835938 197.273438 C 313.609375 197.789062 314.355469 198.34375 315.078125 198.933594 C 315.796875 199.527344 316.484375 200.152344 317.144531 200.808594 C 317.800781 201.46875 318.425781 202.15625 319.015625 202.878906 C 319.609375 203.597656 320.160156 204.34375 320.679688 205.121094 C 321.195312 205.894531 321.675781 206.691406 322.113281 207.515625 C 322.550781 208.335938 322.949219 209.175781 323.304688 210.035156 C 323.664062 210.898438 323.976562 211.773438 324.246094 212.664062 C 324.515625 213.554688 324.742188 214.457031 324.925781 215.371094 C 325.105469 216.285156 325.242188 217.207031 325.332031 218.132812 C 325.425781 219.058594 325.46875 219.988281 325.46875 220.921875 Z M 325.46875 220.921875 " fill-opacity="1" fill-rule="nonzero"/><path fill="#fcfcfc" d="M 300.332031 201.449219 L 296.679688 201.449219 C 296.265625 201.449219 295.875 201.632812 295.605469 201.945312 L 284.855469 214.523438 C 284.378906 215.085938 284.40625 215.921875 284.933594 216.445312 L 286.976562 218.488281 C 287.527344 219.039062 288.417969 219.039062 288.96875 218.492188 L 295.265625 212.273438 L 295.265625 239.527344 C 295.265625 240.304688 295.902344 240.941406 296.679688 240.941406 L 300.332031 240.941406 C 301.109375 240.941406 301.746094 240.304688 301.746094 239.527344 L 301.746094 202.863281 C 301.746094 202.085938 301.109375 201.449219 300.332031 201.449219 Z M 300.332031 201.449219 " fill-opacity="1" fill-rule="nonzero"/><path fill="#58595b" d="M 476.097656 178.539062 L 464.785156 178.539062 L 464.785156 175.710938 L 476.097656 175.710938 Z M 453.472656 178.539062 L 442.160156 178.539062 L 442.160156 175.710938 L 453.472656 175.710938 Z M 430.847656 178.539062 L 419.535156 178.539062 L 419.535156 175.710938 L 430.847656 175.710938 Z M 408.222656 178.539062 L 396.910156 178.539062 L 396.910156 175.710938 L 408.222656 175.710938 Z M 385.597656 178.539062 L 374.285156 178.539062 L 374.285156 175.710938 L 385.597656 175.710938 Z M 362.972656 178.539062 L 351.664062 178.539062 L 351.664062 175.710938 L 362.972656 175.710938 Z M 340.351562 178.539062 L 329.039062 178.539062 L 329.039062 175.710938 L 340.351562 175.710938 Z M 317.726562 178.539062 L 306.414062 178.539062 L 306.414062 175.710938 L 317.726562 175.710938 Z M 295.101562 178.539062 L 283.789062 178.539062 L 283.789062 175.710938 L 295.101562 175.710938 Z M 272.476562 178.539062 L 261.164062 178.539062 L 261.164062 175.710938 L 272.476562 175.710938 Z M 249.851562 178.539062 L 238.539062 178.539062 L 238.539062 175.710938 L 249.851562 175.710938 Z M 227.226562 178.539062 L 215.914062 178.539062 L 215.914062 175.710938 L 227.226562 175.710938 Z M 204.601562 178.539062 L 193.289062 178.539062 L 193.289062 175.710938 L 204.601562 175.710938 Z M 181.976562 178.539062 L 170.664062 178.539062 L 170.664062 175.710938 L 181.976562 175.710938 Z M 159.351562 178.539062 L 148.039062 178.539062 L 148.039062 175.710938 L 159.351562 175.710938 Z M 136.726562 178.539062 L 125.414062 178.539062 L 125.414062 175.710938 L 136.726562 175.710938 Z M 136.726562 178.539062 " fill-opacity="1" fill-rule="nonzero"/><path fill="#58595b" d="M 496.328125 176.824219 L 476.28125 165.242188 L 476.28125 188.402344 Z M 496.328125 176.824219 " fill-opacity="1" fill-rule="nonzero"/><path fill="#414042" d="M 153.847656 177.125 C 153.847656 178.058594 153.800781 178.988281 153.710938 179.914062 C 153.617188 180.839844 153.480469 181.761719 153.300781 182.675781 C 153.117188 183.589844 152.890625 184.492188 152.621094 185.382812 C 152.351562 186.273438 152.039062 187.148438 151.683594 188.011719 C 151.324219 188.871094 150.929688 189.710938 150.488281 190.53125 C 150.050781 191.355469 149.570312 192.152344 149.054688 192.925781 C 148.539062 193.703125 147.984375 194.449219 147.394531 195.167969 C 146.800781 195.890625 146.175781 196.578125 145.519531 197.238281 C 144.859375 197.894531 144.171875 198.519531 143.453125 199.113281 C 142.730469 199.703125 141.984375 200.257812 141.210938 200.773438 C 140.4375 201.292969 139.640625 201.769531 138.816406 202.207031 C 137.996094 202.648438 137.15625 203.046875 136.296875 203.402344 C 135.433594 203.757812 134.558594 204.070312 133.667969 204.34375 C 132.777344 204.613281 131.875 204.839844 130.960938 205.019531 C 130.050781 205.203125 129.128906 205.339844 128.203125 205.429688 C 127.277344 205.523438 126.347656 205.566406 125.414062 205.566406 C 124.484375 205.566406 123.554688 205.523438 122.628906 205.429688 C 121.703125 205.339844 120.78125 205.203125 119.867188 205.019531 C 118.957031 204.839844 118.054688 204.613281 117.164062 204.34375 C 116.273438 204.070312 115.394531 203.757812 114.535156 203.402344 C 113.675781 203.046875 112.835938 202.648438 112.011719 202.207031 C 111.191406 201.769531 110.394531 201.292969 109.621094 200.773438 C 108.847656 200.257812 108.097656 199.703125 107.378906 199.113281 C 106.660156 198.519531 105.96875 197.894531 105.3125 197.238281 C 104.652344 196.578125 104.027344 195.890625 103.4375 195.167969 C 102.847656 194.449219 102.292969 193.703125 101.777344 192.925781 C 101.257812 192.152344 100.78125 191.355469 100.34375 190.53125 C 99.902344 189.710938 99.503906 188.871094 99.148438 188.011719 C 98.792969 187.148438 98.480469 186.273438 98.210938 185.382812 C 97.9375 184.492188 97.710938 183.589844 97.53125 182.675781 C 97.347656 181.761719 97.214844 180.839844 97.121094 179.914062 C 97.03125 178.988281 96.984375 178.058594 96.984375 177.125 C 96.984375 176.195312 97.03125 175.265625 97.121094 174.339844 C 97.214844 173.410156 97.347656 172.492188 97.53125 171.578125 C 97.710938 170.664062 97.9375 169.761719 98.210938 168.871094 C 98.480469 167.976562 98.792969 167.101562 99.148438 166.242188 C 99.503906 165.382812 99.902344 164.539062 100.34375 163.71875 C 100.78125 162.898438 101.257812 162.097656 101.777344 161.324219 C 102.292969 160.550781 102.847656 159.800781 103.4375 159.082031 C 104.027344 158.363281 104.652344 157.671875 105.3125 157.015625 C 105.96875 156.355469 106.660156 155.730469 107.378906 155.140625 C 108.097656 154.550781 108.847656 153.996094 109.621094 153.476562 C 110.394531 152.960938 111.191406 152.480469 112.011719 152.042969 C 112.835938 151.601562 113.675781 151.207031 114.535156 150.847656 C 115.394531 150.492188 116.273438 150.179688 117.164062 149.910156 C 118.054688 149.636719 118.957031 149.414062 119.867188 149.230469 C 120.78125 149.050781 121.703125 148.914062 122.628906 148.820312 C 123.554688 148.730469 124.484375 148.683594 125.414062 148.683594 C 126.347656 148.683594 127.277344 148.730469 128.203125 148.820312 C 129.128906 148.914062 130.050781 149.050781 130.960938 149.230469 C 131.875 149.414062 132.777344 149.636719 133.667969 149.910156 C 134.558594 150.179688 135.433594 150.492188 136.296875 150.847656 C 137.15625 151.207031 137.996094 151.601562 138.816406 152.042969 C 139.640625 152.480469 140.4375 152.960938 141.210938 153.476562 C 141.984375 153.996094 142.730469 154.550781 143.453125 155.140625 C 144.171875 155.730469 144.859375 156.355469 145.519531 157.015625 C 146.175781 157.671875 146.800781 158.363281 147.394531 159.082031 C 147.984375 159.800781 148.539062 160.550781 149.054688 161.324219 C 149.570312 162.097656 150.050781 162.898438 150.488281 163.71875 C 150.929688 164.539062 151.324219 165.382812 151.683594 166.242188 C 152.039062 167.101562 152.351562 167.976562 152.621094 168.871094 C 152.890625 169.761719 153.117188 170.664062 153.300781 171.578125 C 153.480469 172.492188 153.617188 173.410156 153.710938 174.339844 C 153.800781 175.265625 153.847656 176.195312 153.847656 177.125 Z M 153.847656 177.125 " fill-opacity="1" fill-rule="nonzero"/><path fill="#fcfcfc" d="M 136.808594 190.660156 L 120.824219 190.660156 C 121.03125 190.273438 121.3125 189.878906 121.683594 189.476562 C 122.691406 188.363281 124.304688 186.890625 126.480469 185.101562 L 126.453125 185.070312 C 126.78125 184.847656 127.148438 184.53125 127.5625 184.175781 C 130.644531 181.570312 133.105469 179.011719 134.886719 176.566406 C 136.773438 173.96875 137.734375 170.976562 137.734375 167.671875 C 137.734375 164.398438 136.621094 161.738281 134.421875 159.761719 C 132.261719 157.828125 129.371094 156.847656 125.84375 156.847656 C 123.367188 156.847656 120.949219 157.464844 118.652344 158.679688 C 116.378906 159.886719 114.4375 161.582031 112.878906 163.71875 C 112.441406 164.316406 112.542969 165.144531 113.105469 165.625 L 116.058594 168.15625 C 116.351562 168.40625 116.726562 168.535156 117.136719 168.484375 C 117.523438 168.4375 117.878906 168.238281 118.109375 167.921875 C 119.246094 166.394531 120.480469 165.222656 121.773438 164.445312 C 124.25 162.9375 127.710938 162.945312 129.488281 164.550781 C 130.351562 165.332031 130.769531 166.351562 130.769531 167.671875 C 130.769531 169.878906 130.21875 171.761719 129.078125 173.433594 C 127.875 175.210938 126.132812 177.070312 123.875 178.988281 C 123.753906 179.09375 123.167969 179.574219 122.097656 180.445312 C 120.242188 181.976562 118.726562 183.316406 117.59375 184.425781 C 116.425781 185.582031 115.429688 186.90625 114.632812 188.359375 C 113.789062 189.910156 113.359375 191.613281 113.359375 193.417969 L 113.359375 195.730469 C 113.359375 196.507812 113.992188 197.144531 114.773438 197.144531 L 136.804688 197.144531 C 137.585938 197.144531 138.21875 196.507812 138.21875 195.730469 L 138.21875 192.070312 C 138.222656 191.292969 137.585938 190.660156 136.808594 190.660156 Z M 136.808594 190.660156 " fill-opacity="1" fill-rule="nonzero"/></svg>