<svg xmlns="http://www.w3.org/2000/svg" xmlns:xlink="http://www.w3.org/1999/xlink" width="794" zoomAndPan="magnify" viewBox="0 0 594.95996 842.24997" height="1123" preserveAspectRatio="xMidYMid meet" version="1.0"><defs><clipPath id="b97c11d0b6"><path d="M 65.980469 112.574219 L 529.066406 112.574219 L 529.066406 728.527344 L 65.980469 728.527344 Z M 65.980469 112.574219 " clip-rule="nonzero"/></clipPath></defs><path fill="#ffffff" d="M 299.039062 722.558594 C 224.933594 722.558594 167.691406 701.152344 128.886719 658.9375 C 90.824219 617.558594 71.523438 557.996094 71.523438 481.921875 L 71.523438 181.519531 C 71.523438 146.777344 99.777344 118.511719 134.507812 118.511719 C 169.242188 118.511719 197.503906 146.777344 197.503906 181.519531 L 197.503906 481.921875 C 197.503906 566.023438 227.867188 601.90625 299.039062 601.90625 C 330.460938 601.90625 353.183594 592.859375 370.546875 573.429688 C 388.4375 553.421875 397.507812 522.636719 397.507812 481.921875 L 397.507812 181.519531 C 397.507812 146.777344 425.761719 118.511719 460.496094 118.511719 C 495.230469 118.511719 523.492188 146.777344 523.492188 181.519531 L 523.492188 481.921875 C 523.492188 557.121094 503.453125 616.523438 463.933594 658.476562 C 423.875 700.996094 368.398438 722.558594 299.039062 722.558594 Z M 299.039062 722.558594 " fill-opacity="1" fill-rule="nonzero"/><g clip-path="url(#b97c11d0b6)"><path fill="#000000" d="M 460.496094 118.511719 C 495.230469 118.511719 523.492188 146.777344 523.492188 181.519531 L 523.492188 481.921875 C 523.492188 557.121094 503.453125 616.523438 463.933594 658.476562 C 423.875 701 368.398438 722.558594 299.039062 722.558594 C 224.933594 722.558594 167.691406 701.152344 128.886719 658.9375 C 90.824219 617.558594 71.523438 557.996094 71.523438 481.921875 L 71.523438 181.519531 C 71.523438 146.777344 99.777344 118.511719 134.507812 118.511719 C 169.242188 118.511719 197.503906 146.777344 197.503906 181.519531 L 197.503906 481.921875 C 197.503906 566.023438 227.867188 601.90625 299.039062 601.90625 C 330.460938 601.90625 353.183594 592.859375 370.546875 573.429688 C 388.4375 553.421875 397.507812 522.636719 397.507812 481.921875 L 397.507812 181.519531 C 397.507812 146.777344 425.761719 118.511719 460.496094 118.511719 M 460.496094 112.964844 C 422.707031 112.964844 391.964844 143.71875 391.964844 181.519531 L 391.964844 481.921875 C 391.964844 521.226562 383.371094 550.773438 366.417969 569.730469 C 350.179688 587.902344 328.769531 596.363281 299.039062 596.363281 C 264.851562 596.363281 240.898438 587.699219 225.8125 569.871094 C 210.492188 551.765625 203.046875 523 203.046875 481.921875 L 203.046875 181.519531 C 203.046875 143.71875 172.300781 112.964844 134.507812 112.964844 C 96.722656 112.964844 65.980469 143.71875 65.980469 181.519531 L 65.980469 481.921875 C 65.980469 559.433594 85.773438 620.253906 124.808594 662.691406 C 164.703125 706.097656 223.324219 728.105469 299.039062 728.105469 C 369.984375 728.105469 426.820312 705.957031 467.96875 662.277344 C 508.488281 619.261719 529.035156 558.582031 529.035156 481.921875 L 529.035156 181.519531 C 529.035156 143.71875 498.289062 112.964844 460.496094 112.964844 Z M 460.496094 112.964844 " fill-opacity="1" fill-rule="nonzero"/></g><path fill="#58595b" d="M 298.777344 665.273438 C 297.25 665.273438 295.738281 665.261719 294.242188 665.238281 L 294.285156 662.46875 C 297.917969 662.523438 301.707031 662.511719 305.308594 662.417969 L 305.382812 665.1875 C 303.222656 665.246094 301.003906 665.273438 298.777344 665.273438 Z M 283.109375 664.839844 C 279.316406 664.621094 275.578125 664.316406 272 663.933594 L 272.296875 661.175781 C 275.828125 661.554688 279.523438 661.855469 283.269531 662.070312 Z M 316.515625 664.621094 L 316.304688 661.855469 C 320.039062 661.566406 323.714844 661.175781 327.238281 660.695312 L 327.617188 663.441406 C 324.039062 663.929688 320.304688 664.328125 316.515625 664.621094 Z M 260.941406 662.429688 C 257.203125 661.808594 253.519531 661.070312 249.988281 660.238281 L 250.625 657.539062 C 254.09375 658.355469 257.71875 659.082031 261.398438 659.691406 Z M 338.628906 661.554688 L 338.066406 658.839844 C 341.695312 658.085938 345.277344 657.199219 348.714844 656.203125 L 349.484375 658.867188 C 345.980469 659.882812 342.328125 660.785156 338.628906 661.554688 Z M 239.207031 657.273438 C 235.621094 656.132812 232.082031 654.851562 228.6875 653.457031 L 229.742188 650.890625 C 233.0625 652.257812 236.53125 653.515625 240.046875 654.628906 Z M 360.097656 655.304688 L 359.105469 652.71875 C 362.511719 651.410156 365.894531 649.941406 369.15625 648.347656 L 370.371094 650.835938 C 367.035156 652.464844 363.578125 653.96875 360.097656 655.304688 Z M 218.527344 648.753906 C 215.234375 647.050781 211.964844 645.175781 208.8125 643.179688 L 210.296875 640.839844 C 213.382812 642.792969 216.578125 644.625 219.796875 646.292969 Z M 380.203125 645.488281 L 378.777344 643.113281 C 381.851562 641.261719 384.929688 639.234375 387.929688 637.078125 L 389.546875 639.328125 C 386.488281 641.527344 383.34375 643.601562 380.203125 645.488281 Z M 199.621094 636.796875 C 196.722656 634.597656 193.808594 632.210938 190.96875 629.699219 L 192.800781 627.625 C 195.59375 630.089844 198.449219 632.433594 201.292969 634.585938 Z M 398.378906 632.472656 L 396.605469 630.34375 C 399.324219 628.074219 402.085938 625.613281 404.816406 623.03125 L 406.71875 625.046875 C 403.945312 627.667969 401.140625 630.167969 398.378906 632.472656 Z M 182.851562 622.027344 C 181.101562 620.265625 179.332031 618.410156 177.585938 616.511719 C 176.785156 615.644531 175.996094 614.761719 175.21875 613.871094 L 177.304688 612.046875 C 178.066406 612.917969 178.84375 613.78125 179.625 614.636719 C 181.347656 616.507812 183.09375 618.339844 184.816406 620.074219 Z M 414.613281 617.167969 L 412.609375 615.253906 C 412.96875 614.875 413.328125 614.5 413.6875 614.117188 C 415.828125 611.84375 417.921875 609.46875 419.910156 607.054688 L 422.050781 608.816406 C 420.019531 611.28125 417.886719 613.703125 415.707031 616.015625 C 415.34375 616.402344 414.980469 616.785156 414.613281 617.167969 Z M 168.195312 605.148438 C 166 602.179688 163.875 599.070312 161.882812 595.902344 L 164.230469 594.425781 C 166.183594 597.535156 168.265625 600.585938 170.421875 603.496094 Z M 428.828125 599.925781 L 426.5625 598.328125 C 428.644531 595.371094 430.660156 592.273438 432.546875 589.121094 L 434.921875 590.546875 C 433 593.753906 430.949219 596.910156 428.828125 599.925781 Z M 156.289062 586.214844 C 154.574219 582.980469 152.925781 579.597656 151.398438 576.164062 L 153.929688 575.035156 C 155.433594 578.414062 157.050781 581.738281 158.738281 584.917969 Z M 440.324219 580.757812 L 437.851562 579.503906 C 439.480469 576.285156 441.042969 572.929688 442.488281 569.535156 L 445.035156 570.621094 C 443.566406 574.074219 441.980469 577.484375 440.324219 580.757812 Z M 147.183594 565.8125 C 145.914062 562.386719 144.714844 558.828125 143.617188 555.234375 L 146.265625 554.421875 C 147.347656 557.964844 148.53125 561.476562 149.78125 564.851562 Z M 449.085938 560.210938 L 446.472656 559.285156 C 447.671875 555.890625 448.804688 552.363281 449.832031 548.804688 L 452.496094 549.578125 C 451.449219 553.1875 450.300781 556.765625 449.085938 560.210938 Z M 140.652344 544.472656 C 139.777344 540.929688 138.96875 537.265625 138.25 533.578125 L 140.972656 533.046875 C 141.679688 536.6875 142.480469 540.308594 143.34375 543.808594 Z M 455.304688 538.777344 L 452.605469 538.148438 C 453.421875 534.640625 454.167969 531.011719 454.824219 527.359375 L 457.550781 527.851562 C 456.886719 531.546875 456.128906 535.226562 455.304688 538.777344 Z M 136.371094 522.589844 C 135.835938 518.996094 135.367188 515.277344 134.96875 511.53125 L 137.726562 511.242188 C 138.121094 514.945312 138.585938 518.628906 139.113281 522.183594 Z M 459.277344 516.832031 L 456.53125 516.46875 C 457.007812 512.894531 457.417969 509.207031 457.753906 505.507812 L 460.515625 505.757812 C 460.175781 509.496094 459.757812 513.222656 459.277344 516.832031 Z M 134.011719 500.433594 C 133.769531 496.804688 133.582031 493.0625 133.460938 489.3125 L 136.230469 489.222656 C 136.351562 492.941406 136.535156 496.652344 136.777344 500.246094 Z M 461.304688 494.644531 L 458.539062 494.5 C 458.726562 490.898438 458.851562 487.1875 458.914062 483.46875 L 461.683594 483.511719 C 461.625 487.265625 461.496094 491.011719 461.304688 494.644531 Z M 136.050781 478.179688 L 133.277344 478.179688 L 133.277344 467.089844 L 136.050781 467.089844 Z M 461.726562 472.402344 L 458.957031 472.402344 L 458.957031 461.3125 L 461.726562 461.3125 Z M 136.050781 456.003906 L 133.277344 456.003906 L 133.277344 444.914062 L 136.050781 444.914062 Z M 461.726562 450.226562 L 458.957031 450.226562 L 458.957031 439.136719 L 461.726562 439.136719 Z M 136.050781 433.824219 L 133.277344 433.824219 L 133.277344 422.734375 L 136.050781 422.734375 Z M 461.726562 428.046875 L 458.957031 428.046875 L 458.957031 416.957031 L 461.726562 416.957031 Z M 136.050781 411.644531 L 133.277344 411.644531 L 133.277344 400.554688 L 136.050781 400.554688 Z M 461.726562 405.867188 L 458.957031 405.867188 L 458.957031 394.777344 L 461.726562 394.777344 Z M 136.050781 389.46875 L 133.277344 389.46875 L 133.277344 378.378906 L 136.050781 378.378906 Z M 461.726562 383.691406 L 458.957031 383.691406 L 458.957031 372.601562 L 461.726562 372.601562 Z M 136.050781 367.289062 L 133.277344 367.289062 L 133.277344 356.199219 L 136.050781 356.199219 Z M 461.726562 361.511719 L 458.957031 361.511719 L 458.957031 350.421875 L 461.726562 350.421875 Z M 136.050781 345.109375 L 133.277344 345.109375 L 133.277344 334.023438 L 136.050781 334.023438 Z M 461.726562 339.332031 L 458.957031 339.332031 L 458.957031 328.246094 L 461.726562 328.246094 Z M 136.050781 322.933594 L 133.277344 322.933594 L 133.277344 311.84375 L 136.050781 311.84375 Z M 461.726562 317.15625 L 458.957031 317.15625 L 458.957031 306.066406 L 461.726562 306.066406 Z M 136.050781 300.753906 L 133.277344 300.753906 L 133.277344 289.664062 L 136.050781 289.664062 Z M 461.726562 294.976562 L 458.957031 294.976562 L 458.957031 283.886719 L 461.726562 283.886719 Z M 136.050781 278.574219 L 133.277344 278.574219 L 133.277344 267.488281 L 136.050781 267.488281 Z M 461.726562 272.796875 L 458.957031 272.796875 L 458.957031 261.710938 L 461.726562 261.710938 Z M 136.050781 256.398438 L 133.277344 256.398438 L 133.277344 245.308594 L 136.050781 245.308594 Z M 461.726562 250.621094 L 458.957031 250.621094 L 458.957031 239.53125 L 461.726562 239.53125 Z M 136.050781 234.21875 L 133.277344 234.21875 L 133.277344 223.128906 L 136.050781 223.128906 Z M 461.726562 228.441406 L 458.957031 228.441406 L 458.957031 217.351562 L 461.726562 217.351562 Z M 136.050781 212.042969 L 133.277344 212.042969 L 133.277344 200.953125 L 136.050781 200.953125 Z M 461.726562 206.265625 L 458.957031 206.265625 L 458.957031 195.175781 L 461.726562 195.175781 Z M 461.726562 184.085938 L 458.957031 184.085938 L 458.957031 172.996094 L 461.726562 172.996094 Z M 461.726562 161.90625 L 458.957031 161.90625 L 458.957031 159.820312 L 461.726562 159.820312 Z M 461.726562 161.90625 " fill-opacity="1" fill-rule="nonzero"/><path fill="#58595b" d="M 460.34375 149.992188 L 449 169.644531 L 471.6875 169.644531 Z M 460.34375 149.992188 " fill-opacity="1" fill-rule="nonzero"/><path fill="#414042" d="M 162.523438 175.695312 C 162.523438 176.609375 162.480469 177.519531 162.390625 178.425781 C 162.300781 179.335938 162.167969 180.238281 161.988281 181.132812 C 161.8125 182.027344 161.589844 182.910156 161.324219 183.785156 C 161.058594 184.660156 160.753906 185.515625 160.402344 186.359375 C 160.054688 187.203125 159.664062 188.027344 159.234375 188.832031 C 158.804688 189.636719 158.335938 190.421875 157.828125 191.179688 C 157.324219 191.9375 156.78125 192.671875 156.199219 193.375 C 155.621094 194.082031 155.011719 194.757812 154.363281 195.402344 C 153.71875 196.046875 153.042969 196.660156 152.339844 197.238281 C 151.632812 197.816406 150.902344 198.359375 150.144531 198.867188 C 149.382812 199.375 148.601562 199.84375 147.796875 200.273438 C 146.992188 200.703125 146.167969 201.09375 145.328125 201.445312 C 144.484375 201.792969 143.625 202.101562 142.753906 202.363281 C 141.878906 202.628906 140.996094 202.851562 140.101562 203.03125 C 139.207031 203.207031 138.304688 203.339844 137.394531 203.429688 C 136.488281 203.519531 135.578125 203.566406 134.664062 203.566406 C 133.753906 203.566406 132.84375 203.519531 131.933594 203.429688 C 131.027344 203.339844 130.125 203.207031 129.230469 203.03125 C 128.335938 202.851562 127.449219 202.628906 126.578125 202.363281 C 125.703125 202.101562 124.847656 201.792969 124.003906 201.445312 C 123.160156 201.09375 122.335938 200.703125 121.53125 200.273438 C 120.726562 199.84375 119.945312 199.375 119.1875 198.867188 C 118.429688 198.359375 117.695312 197.816406 116.992188 197.238281 C 116.285156 196.660156 115.609375 196.046875 114.964844 195.402344 C 114.320312 194.757812 113.707031 194.082031 113.128906 193.375 C 112.550781 192.671875 112.007812 191.9375 111.5 191.179688 C 110.992188 190.421875 110.523438 189.636719 110.09375 188.832031 C 109.664062 188.027344 109.273438 187.203125 108.925781 186.359375 C 108.578125 185.515625 108.269531 184.660156 108.003906 183.785156 C 107.738281 182.910156 107.519531 182.027344 107.339844 181.132812 C 107.164062 180.238281 107.027344 179.335938 106.9375 178.425781 C 106.847656 177.519531 106.804688 176.609375 106.804688 175.695312 C 106.804688 174.78125 106.847656 173.871094 106.9375 172.964844 C 107.027344 172.054688 107.164062 171.152344 107.339844 170.257812 C 107.519531 169.363281 107.738281 168.480469 108.003906 167.605469 C 108.269531 166.730469 108.578125 165.875 108.925781 165.03125 C 109.273438 164.1875 109.664062 163.363281 110.09375 162.558594 C 110.523438 161.753906 110.992188 160.96875 111.5 160.210938 C 112.007812 159.453125 112.550781 158.71875 113.128906 158.015625 C 113.707031 157.308594 114.320312 156.632812 114.964844 155.988281 C 115.609375 155.34375 116.285156 154.730469 116.992188 154.152344 C 117.695312 153.574219 118.429688 153.03125 119.1875 152.523438 C 119.945312 152.015625 120.726562 151.546875 121.53125 151.117188 C 122.335938 150.6875 123.160156 150.296875 124.003906 149.945312 C 124.847656 149.597656 125.703125 149.289062 126.578125 149.027344 C 127.449219 148.761719 128.335938 148.539062 129.230469 148.359375 C 130.125 148.183594 131.027344 148.050781 131.933594 147.960938 C 132.84375 147.871094 133.753906 147.824219 134.664062 147.824219 C 135.578125 147.824219 136.488281 147.871094 137.394531 147.960938 C 138.304688 148.050781 139.207031 148.183594 140.101562 148.359375 C 140.996094 148.539062 141.878906 148.761719 142.753906 149.027344 C 143.625 149.289062 144.484375 149.597656 145.328125 149.945312 C 146.167969 150.296875 146.992188 150.6875 147.796875 151.117188 C 148.601562 151.546875 149.382812 152.015625 150.144531 152.523438 C 150.902344 153.03125 151.632812 153.574219 152.339844 154.152344 C 153.042969 154.730469 153.71875 155.34375 154.363281 155.988281 C 155.011719 156.632812 155.621094 157.308594 156.199219 158.015625 C 156.78125 158.71875 157.324219 159.453125 157.828125 160.210938 C 158.335938 160.96875 158.804688 161.753906 159.234375 162.558594 C 159.664062 163.363281 160.054688 164.1875 160.402344 165.03125 C 160.753906 165.875 161.058594 166.730469 161.324219 167.605469 C 161.589844 168.480469 161.8125 169.363281 161.988281 170.257812 C 162.167969 171.152344 162.300781 172.054688 162.390625 172.964844 C 162.480469 173.871094 162.523438 174.78125 162.523438 175.695312 Z M 162.523438 175.695312 " fill-opacity="1" fill-rule="nonzero"/><path fill="#fcfcfc" d="M 137.890625 156.613281 L 134.3125 156.613281 C 133.90625 156.613281 133.523438 156.792969 133.257812 157.101562 L 122.722656 169.425781 C 122.257812 169.980469 122.285156 170.796875 122.800781 171.3125 L 124.800781 173.3125 C 125.34375 173.851562 126.214844 173.851562 126.757812 173.316406 L 132.925781 167.21875 L 132.925781 193.929688 C 132.925781 194.691406 133.546875 195.3125 134.3125 195.3125 L 137.890625 195.3125 C 138.652344 195.3125 139.277344 194.691406 139.277344 193.929688 L 139.277344 158 C 139.277344 157.238281 138.652344 156.613281 137.890625 156.613281 Z M 137.890625 156.613281 " fill-opacity="1" fill-rule="nonzero"/></svg>