<svg xmlns="http://www.w3.org/2000/svg" xmlns:xlink="http://www.w3.org/1999/xlink" width="800" zoomAndPan="magnify" viewBox="0 0 600 899.99999" height="1200" preserveAspectRatio="xMidYMid meet" version="1.0"><defs><g/><clipPath id="e53975d1eb"><path d="M 105.605469 245.089844 L 146.851562 245.089844 L 146.851562 271.882812 L 105.605469 271.882812 Z M 105.605469 245.089844 " clip-rule="nonzero"/></clipPath><clipPath id="5620fbf78b"><path d="M 461.234375 571.589844 L 502.476562 571.589844 L 502.476562 598.378906 L 461.234375 598.378906 Z M 461.234375 571.589844 " clip-rule="nonzero"/></clipPath></defs><path stroke-linecap="butt" transform="matrix(0.75, 0, 0, 0.75, 21.591799, -15.449228)" fill="none" stroke-linejoin="miter" d="M 372.335954 1044.067776 C 323.377618 1044.067776 280.231783 1037.682359 242.903656 1024.911525 C 205.731779 1012.140691 174.377611 993.229232 148.835943 968.177147 C 123.455733 942.963604 104.382815 911.609436 91.611981 874.114642 C 78.841147 836.453182 72.450522 792.817763 72.450522 743.208385 L 72.450522 382.171908 C 72.450522 360.06774 77.940106 343.692739 88.908856 333.046905 C 100.044273 322.244821 116.007816 316.838571 136.799484 316.838571 C 157.59636 316.838571 173.476569 322.244821 184.445319 333.046905 C 195.580737 343.692739 201.148445 360.06774 201.148445 382.171908 L 201.148445 742.22401 C 201.148445 805.916722 215.721363 853.729224 244.867198 885.656309 C 274.174491 917.421936 316.664076 933.302145 372.335954 933.302145 C 427.841166 933.302145 470.002626 917.421936 498.820336 885.656309 C 527.799504 853.729224 542.289088 805.916722 542.289088 742.22401 L 542.289088 382.171908 C 542.289088 360.06774 547.778672 343.692739 558.747422 333.046905 C 569.88284 322.244821 585.846382 316.838571 606.63805 316.838571 C 626.778676 316.838571 642.335968 322.244821 653.304719 333.046905 C 664.440136 343.692739 670.002637 360.06774 670.002637 382.171908 L 670.002637 743.208385 C 670.002637 809.026097 658.705761 864.453183 636.11201 909.479227 C 613.679717 954.343813 580.362007 987.989648 536.153671 1010.421941 C 491.945336 1032.854234 437.335958 1044.067776 372.335954 1044.067776 Z M 372.335954 1044.067776 " stroke="#1f8785" stroke-width="40.239601" stroke-opacity="1" stroke-miterlimit="4"/><g fill="#ffffff" fill-opacity="1"><g transform="translate(21.591799, 760.050731)"><g><path d="M 279.171875 7.546875 C 242.453125 7.546875 210.132812 2.769531 182.21875 -6.78125 C 154.300781 -16.34375 130.785156 -30.554688 111.671875 -49.421875 C 92.554688 -68.285156 78.21875 -91.800781 68.65625 -119.96875 C 59.101562 -148.132812 54.328125 -180.828125 54.328125 -218.046875 L 54.328125 -488.921875 C 54.328125 -505.515625 58.472656 -517.832031 66.765625 -525.875 C 75.066406 -533.925781 87.015625 -537.953125 102.609375 -537.953125 C 118.203125 -537.953125 130.148438 -533.925781 138.453125 -525.875 C 146.753906 -517.832031 150.90625 -505.515625 150.90625 -488.921875 L 150.90625 -218.8125 C 150.90625 -171.019531 161.84375 -135.175781 183.71875 -111.28125 C 205.601562 -87.394531 237.421875 -75.453125 279.171875 -75.453125 C 320.910156 -75.453125 352.59375 -87.394531 374.21875 -111.28125 C 395.851562 -135.175781 406.671875 -171.019531 406.671875 -218.8125 L 406.671875 -488.921875 C 406.671875 -505.515625 410.820312 -517.832031 419.125 -525.875 C 427.425781 -533.925781 439.375 -537.953125 454.96875 -537.953125 C 470.050781 -537.953125 481.742188 -533.925781 490.046875 -525.875 C 498.347656 -517.832031 502.5 -505.515625 502.5 -488.921875 L 502.5 -218.046875 C 502.5 -168.753906 494.070312 -127.253906 477.21875 -93.546875 C 460.375 -59.847656 435.347656 -34.570312 402.140625 -17.71875 C 368.941406 -0.875 327.953125 7.546875 279.171875 7.546875 Z M 279.171875 7.546875 "/></g></g></g><g clip-path="url(#e53975d1eb)"><path fill="#1f8785" d="M 127.710938 271.136719 L 146.371094 248.445312 C 147.773438 246.734375 145.839844 244.324219 143.867188 245.324219 L 127.058594 253.863281 C 126.476562 254.160156 125.789062 254.160156 125.207031 253.863281 L 108.394531 245.324219 C 106.421875 244.324219 104.488281 246.734375 105.894531 248.441406 L 124.554688 271.136719 C 125.371094 272.128906 126.890625 272.128906 127.710938 271.136719 " fill-opacity="1" fill-rule="nonzero"/></g><path fill="#1f8785" d="M 120.132812 598.386719 L 120.132812 562.386719 L 132.132812 562.386719 L 132.132812 598.386719 M 120.132812 550.386719 L 120.132812 514.386719 L 132.132812 514.386719 L 132.132812 550.386719 M 120.132812 502.386719 L 120.132812 466.386719 L 132.132812 466.386719 L 132.132812 502.386719 M 120.132812 454.386719 L 120.132812 418.386719 L 132.132812 418.386719 L 132.132812 454.386719 M 120.132812 406.386719 L 120.132812 370.386719 L 132.132812 370.386719 L 132.132812 406.386719 M 120.132812 358.386719 L 120.132812 322.386719 L 132.132812 322.386719 L 132.132812 358.386719 M 120.132812 310.386719 L 120.132812 294.179688 L 132.132812 294.179688 L 132.132812 310.386719 " fill-opacity="1" fill-rule="nonzero"/><g clip-path="url(#5620fbf78b)"><path fill="#1f8785" d="M 480.375 572.335938 L 461.714844 595.027344 C 460.308594 596.734375 462.242188 599.144531 464.214844 598.144531 L 481.023438 589.605469 C 481.605469 589.308594 482.292969 589.308594 482.875 589.605469 L 499.6875 598.144531 C 501.660156 599.148438 503.59375 596.734375 502.1875 595.027344 L 483.527344 572.335938 C 482.710938 571.339844 481.191406 571.339844 480.375 572.335938 " fill-opacity="1" fill-rule="nonzero"/></g><path fill="#1f8785" d="M 487.953125 230.355469 L 487.953125 266.355469 L 475.953125 266.355469 L 475.953125 230.355469 M 487.953125 278.355469 L 487.953125 314.355469 L 475.953125 314.355469 L 475.953125 278.355469 M 487.953125 326.355469 L 487.953125 362.355469 L 475.953125 362.355469 L 475.953125 326.355469 M 487.953125 374.355469 L 487.953125 410.355469 L 475.953125 410.355469 L 475.953125 374.355469 M 487.953125 422.355469 L 487.953125 458.355469 L 475.953125 458.355469 L 475.953125 422.355469 M 487.953125 470.355469 L 487.953125 506.355469 L 475.953125 506.355469 L 475.953125 470.355469 M 487.953125 518.355469 L 487.953125 554.355469 L 475.953125 554.355469 L 475.953125 518.355469 M 487.953125 566.355469 L 487.953125 571.59375 L 475.953125 571.59375 L 475.953125 566.355469 " fill-opacity="1" fill-rule="nonzero"/><path fill="#1f8785" d="M 486.433594 640.628906 C 478.023438 650.105469 469.582031 658.890625 461.109375 666.976562 L 452.824219 658.296875 C 461.058594 650.4375 469.269531 641.894531 477.457031 632.664062 Z M 452.171875 675.238281 C 442.664062 683.742188 433.113281 691.375 423.519531 698.140625 L 416.601562 688.332031 C 425.820312 681.835938 435.007812 674.488281 444.171875 666.292969 Z M 413.328125 704.988281 C 402.53125 711.886719 391.675781 717.691406 380.769531 722.402344 L 376.011719 711.386719 C 386.328125 706.929688 396.613281 701.425781 406.867188 694.875 Z M 369.273438 726.953125 C 357.316406 731.261719 345.300781 734.261719 333.222656 735.953125 L 331.554688 724.070312 C 342.8125 722.492188 354.03125 719.691406 365.207031 715.664062 Z M 320.851562 737.230469 C 308.503906 738.042969 296.105469 737.5 283.65625 735.597656 L 285.472656 723.734375 C 297.054688 725.507812 308.585938 726.011719 320.0625 725.253906 Z M 271.46875 733.304688 C 259.761719 730.6875 248.023438 726.875 236.246094 721.863281 L 240.941406 710.820312 C 252.046875 715.542969 263.09375 719.132812 274.085938 721.59375 Z M 225.042969 716.746094 C 214.457031 711.574219 203.84375 705.4375 193.199219 698.34375 L 199.859375 688.359375 C 210.054688 695.160156 220.207031 701.027344 230.308594 705.964844 Z M 183.175781 691.382812 C 173.6875 684.527344 164.171875 676.910156 154.636719 668.527344 L 162.554688 659.511719 C 171.808594 667.640625 181.023438 675.023438 190.203125 681.652344 Z M 145.585938 660.351562 C 137.664062 653.003906 129.726562 645.128906 121.769531 636.726562 L 130.484375 628.476562 C 138.261719 636.691406 146.015625 644.382812 153.75 651.554688 Z M 145.585938 660.351562 " fill-opacity="1" fill-rule="nonzero"/></svg>