<svg xmlns="http://www.w3.org/2000/svg" xmlns:xlink="http://www.w3.org/1999/xlink" width="800" zoomAndPan="magnify" viewBox="0 0 600 899.99999" height="1200" preserveAspectRatio="xMidYMid meet" version="1.0"><defs><g/><clipPath id="88ede06244"><path d="M 60 254 L 99 254 L 99 287 L 60 287 Z M 60 254 " clip-rule="nonzero"/></clipPath><clipPath id="d628854044"><path d="M 97.742188 253.679688 L 108.90625 278.261719 L 71.351562 295.320312 L 60.183594 270.734375 Z M 97.742188 253.679688 " clip-rule="nonzero"/></clipPath><clipPath id="6d806124cd"><path d="M 97.742188 253.679688 L 108.90625 278.261719 L 71.351562 295.320312 L 60.183594 270.734375 Z M 97.742188 253.679688 " clip-rule="nonzero"/></clipPath><clipPath id="ea3ea350d0"><path d="M 97.738281 253.679688 L 108.816406 278.074219 L 71.085938 295.210938 L 60.007812 270.816406 Z M 97.738281 253.679688 " clip-rule="nonzero"/></clipPath><clipPath id="2d3b0ea556"><path d="M 300 673 L 339 673 L 339 707 L 300 707 Z M 300 673 " clip-rule="nonzero"/></clipPath><clipPath id="9481ddd671"><path d="M 299.886719 688.527344 L 311.949219 664.371094 L 348.851562 682.796875 L 336.792969 706.953125 Z M 299.886719 688.527344 " clip-rule="nonzero"/></clipPath><clipPath id="52eaf3beb9"><path d="M 299.886719 688.527344 L 311.949219 664.371094 L 348.851562 682.796875 L 336.792969 706.953125 Z M 299.886719 688.527344 " clip-rule="nonzero"/></clipPath><clipPath id="d57772b01e"><path d="M 299.894531 688.527344 L 311.859375 664.558594 L 348.933594 683.070312 L 336.964844 707.039062 Z M 299.894531 688.527344 " clip-rule="nonzero"/></clipPath></defs><path stroke-linecap="butt" transform="matrix(0.75, 0, 0, 0.75, 31.022463, -15.449217)" fill="none" stroke-linejoin="miter" d="M 359.069027 1042.104219 C 341.058609 1042.104219 326.162775 1037.927136 314.371108 1029.578177 C 302.584649 1021.062552 293.006524 1008.458384 285.636732 991.755258 L 23.084634 402.307311 C 15.720051 385.442727 13.673176 370.708351 16.944009 358.098975 C 20.386718 345.328141 27.423176 335.260432 38.06901 327.89064 C 48.876303 320.520848 61.647137 316.838556 76.381512 316.838556 C 95.865888 316.838556 110.438806 321.01564 120.100265 329.364599 C 129.923182 337.713558 138.194016 350.2396 144.907558 366.942726 L 383.386737 919.30213 L 339.912776 919.30213 L 577.412789 365.958351 C 584.782581 349.911475 593.459664 337.713558 603.449248 329.364599 C 613.60029 321.01564 627.761749 316.838556 645.933625 316.838556 C 660.67321 316.838556 672.871127 320.520848 682.532586 327.89064 C 692.355503 335.260432 698.574253 345.328141 701.199253 358.098975 C 703.813837 370.708351 701.444045 385.442727 694.074253 402.307311 L 431.522156 991.755258 C 424.157572 1008.458384 414.907572 1021.062552 403.772154 1029.578177 C 392.803404 1037.927136 377.902361 1042.104219 359.069027 1042.104219 Z M 359.069027 1042.104219 " stroke="#1f8785" stroke-width="40.239601" stroke-opacity="1" stroke-miterlimit="4"/><g fill="#ffffff" fill-opacity="1"><g transform="translate(31.022463, 760.050742)"><g><path d="M 269.359375 6.03125 C 255.773438 6.03125 244.582031 2.890625 235.78125 -3.390625 C 226.976562 -9.679688 219.8125 -19.113281 214.28125 -31.6875 L 17.359375 -473.828125 C 11.816406 -486.398438 10.300781 -497.460938 12.8125 -507.015625 C 15.332031 -516.578125 20.617188 -524.125 28.671875 -529.65625 C 36.722656 -535.1875 46.28125 -537.953125 57.34375 -537.953125 C 71.925781 -537.953125 82.863281 -534.804688 90.15625 -528.515625 C 97.457031 -522.234375 103.617188 -512.804688 108.640625 -500.234375 L 287.46875 -86.015625 L 255.015625 -86.015625 L 433.078125 -500.984375 C 438.609375 -513.054688 445.144531 -522.234375 452.6875 -528.515625 C 460.238281 -534.804688 470.804688 -537.953125 484.390625 -537.953125 C 495.453125 -537.953125 504.628906 -535.1875 511.921875 -529.65625 C 519.222656 -524.125 523.878906 -516.578125 525.890625 -507.015625 C 527.898438 -497.460938 526.140625 -486.398438 520.609375 -473.828125 L 323.6875 -31.6875 C 318.144531 -19.113281 311.222656 -9.679688 302.921875 -3.390625 C 294.628906 2.890625 283.441406 6.03125 269.359375 6.03125 Z M 269.359375 6.03125 "/></g></g></g><g clip-path="url(#88ede06244)"><g clip-path="url(#d628854044)"><g clip-path="url(#6d806124cd)"><g clip-path="url(#ea3ea350d0)"><path fill="#1f8785" d="M 91.078125 285.3125 L 98.6875 256.933594 C 99.257812 254.796875 96.5 253.402344 95.117188 255.128906 L 83.34375 269.855469 C 82.9375 270.363281 82.3125 270.648438 81.660156 270.621094 L 62.820312 269.796875 C 60.609375 269.699219 59.847656 272.695312 61.832031 273.671875 L 88.207031 286.617188 C 89.363281 287.183594 90.746094 286.554688 91.078125 285.3125 " fill-opacity="1" fill-rule="nonzero"/></g></g></g></g><path fill="#1f8785" d="M 276.109375 709.058594 L 261.160156 676.308594 L 272.078125 671.328125 L 287.023438 704.078125 M 256.179688 665.394531 L 241.230469 632.644531 L 252.144531 627.660156 L 267.09375 660.410156 M 236.246094 621.726562 L 221.300781 588.976562 L 232.214844 583.996094 L 247.164062 616.742188 M 216.316406 578.058594 L 201.367188 545.308594 L 212.285156 540.328125 L 227.234375 573.078125 M 196.386719 534.394531 L 181.4375 501.644531 L 192.355469 496.660156 L 207.300781 529.410156 M 176.453125 490.726562 L 161.507812 457.976562 L 172.421875 452.996094 L 187.371094 485.746094 M 156.523438 447.0625 L 141.578125 414.3125 L 152.492188 409.328125 L 167.441406 442.078125 M 136.59375 403.394531 L 121.644531 370.644531 L 132.5625 365.660156 L 147.511719 398.410156 M 116.664062 359.726562 L 101.714844 326.976562 L 112.632812 321.996094 L 127.578125 354.746094 M 96.730469 316.0625 L 93.707031 309.429688 L 104.621094 304.449219 L 107.648438 311.078125 " fill-opacity="1" fill-rule="nonzero"/><g clip-path="url(#2d3b0ea556)"><g clip-path="url(#9481ddd671)"><g clip-path="url(#52eaf3beb9)"><g clip-path="url(#d57772b01e)"><path fill="#1f8785" d="M 328.652344 673.777344 L 301.820312 685.742188 C 299.800781 686.644531 300.453125 689.664062 302.667969 689.648438 L 321.519531 689.519531 C 322.171875 689.515625 322.785156 689.820312 323.175781 690.347656 L 334.402344 705.496094 C 335.71875 707.273438 338.527344 705.980469 338.035156 703.824219 L 331.476562 675.183594 C 331.1875 673.929688 329.828125 673.253906 328.652344 673.777344 " fill-opacity="1" fill-rule="nonzero"/></g></g></g></g><path fill="#1f8785" d="M 324.917969 671.363281 L 339.621094 638.503906 L 350.574219 643.40625 L 335.871094 676.265625 M 344.523438 627.550781 L 359.230469 594.691406 L 370.183594 599.589844 L 355.476562 632.453125 M 364.128906 583.738281 L 378.835938 550.875 L 389.789062 555.777344 L 375.082031 588.636719 M 383.738281 539.921875 L 398.441406 507.0625 L 409.394531 511.964844 L 394.691406 544.824219 M 403.34375 496.109375 L 418.046875 463.25 L 429 468.152344 L 414.296875 501.011719 M 422.949219 452.296875 L 437.652344 419.4375 L 448.609375 424.339844 L 433.902344 457.199219 M 442.554688 408.484375 L 457.261719 375.625 L 468.214844 380.527344 L 453.507812 413.386719 M 462.160156 364.671875 L 476.867188 331.8125 L 487.820312 336.710938 L 473.117188 369.574219 M 481.769531 320.859375 L 496.472656 287.996094 L 507.425781 292.898438 L 492.722656 325.757812 M 501.375 277.042969 L 512.929688 251.222656 L 523.882812 256.125 L 512.328125 281.945312 " fill-opacity="1" fill-rule="nonzero"/></svg>