<svg xmlns="http://www.w3.org/2000/svg" xmlns:xlink="http://www.w3.org/1999/xlink" width="794" zoomAndPan="magnify" viewBox="0 0 594.95996 842.24997" height="1123" preserveAspectRatio="xMidYMid meet" version="1.0"><defs><g/></defs><g fill="#000000" fill-opacity="1"><g transform="translate(58.979399, 608.138413)"><g><path d="M 238.28125 1.40625 C 233.59375 1.40625 231.25 -0.9375 231.25 -5.625 C 231.25 -10.3125 233.59375 -12.65625 238.28125 -12.65625 C 242.96875 -12.65625 245.3125 -10.3125 245.3125 -5.625 C 245.3125 -0.9375 242.96875 1.40625 238.28125 1.40625 Z M 50.609375 -440.71875 C 45.921875 -440.71875 43.578125 -443.054688 43.578125 -447.734375 C 43.578125 -452.421875 45.921875 -454.765625 50.609375 -454.765625 C 55.296875 -454.765625 57.640625 -452.421875 57.640625 -447.734375 C 57.640625 -443.054688 55.296875 -440.71875 50.609375 -440.71875 Z M 60.453125 -417.515625 C 55.765625 -417.515625 53.421875 -419.859375 53.421875 -424.546875 C 53.421875 -429.234375 55.765625 -431.578125 60.453125 -431.578125 C 65.140625 -431.578125 67.484375 -429.234375 67.484375 -424.546875 C 67.484375 -419.859375 65.140625 -417.515625 60.453125 -417.515625 Z M 89.96875 -347.9375 C 85.28125 -347.9375 82.9375 -350.273438 82.9375 -354.953125 C 82.9375 -359.640625 85.28125 -361.984375 89.96875 -361.984375 C 94.65625 -361.984375 97 -359.640625 97 -354.953125 C 97 -350.273438 94.65625 -347.9375 89.96875 -347.9375 Z M 99.8125 -324.734375 C 95.125 -324.734375 92.78125 -327.078125 92.78125 -331.765625 C 92.78125 -336.453125 95.125 -338.796875 99.8125 -338.796875 C 104.5 -338.796875 106.84375 -336.453125 106.84375 -331.765625 C 106.84375 -327.078125 104.5 -324.734375 99.8125 -324.734375 Z M 70.296875 -394.328125 C 65.609375 -394.328125 63.265625 -396.664062 63.265625 -401.34375 C 63.265625 -406.03125 65.609375 -408.375 70.296875 -408.375 C 74.972656 -408.375 77.3125 -406.03125 77.3125 -401.34375 C 77.3125 -396.664062 74.972656 -394.328125 70.296875 -394.328125 Z M 80.125 -371.125 C 75.4375 -371.125 73.09375 -373.46875 73.09375 -378.15625 C 73.09375 -382.84375 75.4375 -385.1875 80.125 -385.1875 C 84.8125 -385.1875 87.15625 -382.84375 87.15625 -378.15625 C 87.15625 -373.46875 84.8125 -371.125 80.125 -371.125 Z M 128.625 -255.15625 C 123.9375 -255.15625 121.59375 -257.492188 121.59375 -262.171875 C 121.59375 -266.859375 123.9375 -269.203125 128.625 -269.203125 C 133.3125 -269.203125 135.65625 -266.859375 135.65625 -262.171875 C 135.65625 -257.492188 133.3125 -255.15625 128.625 -255.15625 Z M 138.46875 -231.953125 C 133.78125 -231.953125 131.4375 -234.296875 131.4375 -238.984375 C 131.4375 -243.671875 133.78125 -246.015625 138.46875 -246.015625 C 143.15625 -246.015625 145.5 -243.671875 145.5 -238.984375 C 145.5 -234.296875 143.15625 -231.953125 138.46875 -231.953125 Z M 109.65625 -301.546875 C 104.96875 -301.546875 102.625 -303.882812 102.625 -308.5625 C 102.625 -313.25 104.96875 -315.59375 109.65625 -315.59375 C 114.34375 -315.59375 116.6875 -313.25 116.6875 -308.5625 C 116.6875 -303.882812 114.34375 -301.546875 109.65625 -301.546875 Z M 119.484375 -278.34375 C 114.804688 -278.34375 112.46875 -280.6875 112.46875 -285.375 C 112.46875 -290.0625 114.804688 -292.40625 119.484375 -292.40625 C 124.171875 -292.40625 126.515625 -290.0625 126.515625 -285.375 C 126.515625 -280.6875 124.171875 -278.34375 119.484375 -278.34375 Z M 148.3125 -208.765625 C 143.625 -208.765625 141.28125 -211.101562 141.28125 -215.78125 C 141.28125 -220.46875 143.625 -222.8125 148.3125 -222.8125 C 153 -222.8125 155.34375 -220.46875 155.34375 -215.78125 C 155.34375 -211.101562 153 -208.765625 148.3125 -208.765625 Z M 158.15625 -185.5625 C 153.46875 -185.5625 151.125 -187.90625 151.125 -192.59375 C 151.125 -197.28125 153.46875 -199.625 158.15625 -199.625 C 162.832031 -199.625 165.171875 -197.28125 165.171875 -192.59375 C 165.171875 -187.90625 162.832031 -185.5625 158.15625 -185.5625 Z M 40.765625 -463.90625 C 36.078125 -463.90625 33.734375 -466.25 33.734375 -470.9375 C 33.734375 -475.625 36.078125 -477.96875 40.765625 -477.96875 C 45.453125 -477.96875 47.796875 -475.625 47.796875 -470.9375 C 47.796875 -466.25 45.453125 -463.90625 40.765625 -463.90625 Z M 177.125 -139.171875 C 172.4375 -139.171875 170.09375 -141.515625 170.09375 -146.203125 C 170.09375 -150.890625 172.4375 -153.234375 177.125 -153.234375 C 181.8125 -153.234375 184.15625 -150.890625 184.15625 -146.203125 C 184.15625 -141.515625 181.8125 -139.171875 177.125 -139.171875 Z M 186.96875 -115.984375 C 182.28125 -115.984375 179.9375 -118.320312 179.9375 -123 C 179.9375 -127.6875 182.28125 -130.03125 186.96875 -130.03125 C 191.65625 -130.03125 194 -127.6875 194 -123 C 194 -118.320312 191.65625 -115.984375 186.96875 -115.984375 Z M 216.484375 -45.6875 C 211.804688 -45.6875 209.46875 -48.03125 209.46875 -52.71875 C 209.46875 -57.40625 211.804688 -59.75 216.484375 -59.75 C 221.171875 -59.75 223.515625 -57.40625 223.515625 -52.71875 C 223.515625 -48.03125 221.171875 -45.6875 216.484375 -45.6875 Z M 226.328125 -21.796875 C 221.640625 -21.796875 219.296875 -24.132812 219.296875 -28.8125 C 219.296875 -33.5 221.640625 -35.84375 226.328125 -35.84375 C 231.015625 -35.84375 233.359375 -33.5 233.359375 -28.8125 C 233.359375 -24.132812 231.015625 -21.796875 226.328125 -21.796875 Z M 196.8125 -92.78125 C 192.125 -92.78125 189.78125 -95.125 189.78125 -99.8125 C 189.78125 -104.5 192.125 -106.84375 196.8125 -106.84375 C 201.5 -106.84375 203.84375 -104.5 203.84375 -99.8125 C 203.84375 -95.125 201.5 -92.78125 196.8125 -92.78125 Z M 206.65625 -69.59375 C 201.96875 -69.59375 199.625 -71.929688 199.625 -76.609375 C 199.625 -81.296875 201.96875 -83.640625 206.65625 -83.640625 C 211.332031 -83.640625 213.671875 -81.296875 213.671875 -76.609375 C 213.671875 -71.929688 211.332031 -69.59375 206.65625 -69.59375 Z M 167.28125 -162.375 C 162.601562 -162.375 160.265625 -164.710938 160.265625 -169.390625 C 160.265625 -174.078125 162.601562 -176.421875 167.28125 -176.421875 C 171.96875 -176.421875 174.3125 -174.078125 174.3125 -169.390625 C 174.3125 -164.710938 171.96875 -162.375 167.28125 -162.375 Z M 29.515625 -487.109375 C 24.835938 -487.109375 22.5 -489.445312 22.5 -494.125 C 22.5 -498.8125 24.835938 -501.15625 29.515625 -501.15625 C 34.203125 -501.15625 36.546875 -498.8125 36.546875 -494.125 C 36.546875 -489.445312 34.203125 -487.109375 29.515625 -487.109375 Z M 427.359375 -440.71875 C 422.671875 -440.71875 420.328125 -443.054688 420.328125 -447.734375 C 420.328125 -452.421875 422.671875 -454.765625 427.359375 -454.765625 C 432.046875 -454.765625 434.390625 -452.421875 434.390625 -447.734375 C 434.390625 -443.054688 432.046875 -440.71875 427.359375 -440.71875 Z M 417.515625 -417.515625 C 412.828125 -417.515625 410.484375 -419.859375 410.484375 -424.546875 C 410.484375 -429.234375 412.828125 -431.578125 417.515625 -431.578125 C 422.203125 -431.578125 424.546875 -429.234375 424.546875 -424.546875 C 424.546875 -419.859375 422.203125 -417.515625 417.515625 -417.515625 Z M 388 -347.9375 C 383.3125 -347.9375 380.96875 -350.273438 380.96875 -354.953125 C 380.96875 -359.640625 383.3125 -361.984375 388 -361.984375 C 392.6875 -361.984375 395.03125 -359.640625 395.03125 -354.953125 C 395.03125 -350.273438 392.6875 -347.9375 388 -347.9375 Z M 378.15625 -324.734375 C 373.46875 -324.734375 371.125 -327.078125 371.125 -331.765625 C 371.125 -336.453125 373.46875 -338.796875 378.15625 -338.796875 C 382.84375 -338.796875 385.1875 -336.453125 385.1875 -331.765625 C 385.1875 -327.078125 382.84375 -324.734375 378.15625 -324.734375 Z M 407.671875 -394.328125 C 402.984375 -394.328125 400.640625 -396.664062 400.640625 -401.34375 C 400.640625 -406.03125 402.984375 -408.375 407.671875 -408.375 C 412.359375 -408.375 414.703125 -406.03125 414.703125 -401.34375 C 414.703125 -396.664062 412.359375 -394.328125 407.671875 -394.328125 Z M 397.84375 -371.125 C 393.15625 -371.125 390.8125 -373.46875 390.8125 -378.15625 C 390.8125 -382.84375 393.15625 -385.1875 397.84375 -385.1875 C 402.519531 -385.1875 404.859375 -382.84375 404.859375 -378.15625 C 404.859375 -373.46875 402.519531 -371.125 397.84375 -371.125 Z M 349.34375 -255.15625 C 344.65625 -255.15625 342.3125 -257.492188 342.3125 -262.171875 C 342.3125 -266.859375 344.65625 -269.203125 349.34375 -269.203125 C 354.019531 -269.203125 356.359375 -266.859375 356.359375 -262.171875 C 356.359375 -257.492188 354.019531 -255.15625 349.34375 -255.15625 Z M 339.5 -231.953125 C 334.8125 -231.953125 332.46875 -234.296875 332.46875 -238.984375 C 332.46875 -243.671875 334.8125 -246.015625 339.5 -246.015625 C 344.1875 -246.015625 346.53125 -243.671875 346.53125 -238.984375 C 346.53125 -234.296875 344.1875 -231.953125 339.5 -231.953125 Z M 368.3125 -301.546875 C 363.625 -301.546875 361.28125 -303.882812 361.28125 -308.5625 C 361.28125 -313.25 363.625 -315.59375 368.3125 -315.59375 C 373 -315.59375 375.34375 -313.25 375.34375 -308.5625 C 375.34375 -303.882812 373 -301.546875 368.3125 -301.546875 Z M 358.46875 -278.34375 C 353.789062 -278.34375 351.453125 -280.6875 351.453125 -285.375 C 351.453125 -290.0625 353.789062 -292.40625 358.46875 -292.40625 C 363.15625 -292.40625 365.5 -290.0625 365.5 -285.375 C 365.5 -280.6875 363.15625 -278.34375 358.46875 -278.34375 Z M 329.65625 -208.765625 C 324.96875 -208.765625 322.625 -211.101562 322.625 -215.78125 C 322.625 -220.46875 324.96875 -222.8125 329.65625 -222.8125 C 334.34375 -222.8125 336.6875 -220.46875 336.6875 -215.78125 C 336.6875 -211.101562 334.34375 -208.765625 329.65625 -208.765625 Z M 319.8125 -185.5625 C 315.125 -185.5625 312.78125 -187.90625 312.78125 -192.59375 C 312.78125 -197.28125 315.125 -199.625 319.8125 -199.625 C 324.5 -199.625 326.84375 -197.28125 326.84375 -192.59375 C 326.84375 -187.90625 324.5 -185.5625 319.8125 -185.5625 Z M 437.203125 -463.90625 C 432.515625 -463.90625 430.171875 -466.25 430.171875 -470.9375 C 430.171875 -475.625 432.515625 -477.96875 437.203125 -477.96875 C 441.890625 -477.96875 444.234375 -475.625 444.234375 -470.9375 C 444.234375 -466.25 441.890625 -463.90625 437.203125 -463.90625 Z M 300.84375 -139.171875 C 296.15625 -139.171875 293.8125 -141.515625 293.8125 -146.203125 C 293.8125 -150.890625 296.15625 -153.234375 300.84375 -153.234375 C 305.519531 -153.234375 307.859375 -150.890625 307.859375 -146.203125 C 307.859375 -141.515625 305.519531 -139.171875 300.84375 -139.171875 Z M 291 -115.984375 C 286.3125 -115.984375 283.96875 -118.320312 283.96875 -123 C 283.96875 -127.6875 286.3125 -130.03125 291 -130.03125 C 295.6875 -130.03125 298.03125 -127.6875 298.03125 -123 C 298.03125 -118.320312 295.6875 -115.984375 291 -115.984375 Z M 261.46875 -45.6875 C 256.789062 -45.6875 254.453125 -48.03125 254.453125 -52.71875 C 254.453125 -57.40625 256.789062 -59.75 261.46875 -59.75 C 266.15625 -59.75 268.5 -57.40625 268.5 -52.71875 C 268.5 -48.03125 266.15625 -45.6875 261.46875 -45.6875 Z M 251.640625 -21.796875 C 246.953125 -21.796875 244.609375 -24.132812 244.609375 -28.8125 C 244.609375 -33.5 246.953125 -35.84375 251.640625 -35.84375 C 256.316406 -35.84375 258.65625 -33.5 258.65625 -28.8125 C 258.65625 -24.132812 256.316406 -21.796875 251.640625 -21.796875 Z M 281.15625 -92.78125 C 276.46875 -92.78125 274.125 -95.125 274.125 -99.8125 C 274.125 -104.5 276.46875 -106.84375 281.15625 -106.84375 C 285.84375 -106.84375 288.1875 -104.5 288.1875 -99.8125 C 288.1875 -95.125 285.84375 -92.78125 281.15625 -92.78125 Z M 271.3125 -69.59375 C 266.625 -69.59375 264.28125 -71.929688 264.28125 -76.609375 C 264.28125 -81.296875 266.625 -83.640625 271.3125 -83.640625 C 276 -83.640625 278.34375 -81.296875 278.34375 -76.609375 C 278.34375 -71.929688 276 -69.59375 271.3125 -69.59375 Z M 310.671875 -162.375 C 305.992188 -162.375 303.65625 -164.710938 303.65625 -169.390625 C 303.65625 -174.078125 305.992188 -176.421875 310.671875 -176.421875 C 315.359375 -176.421875 317.703125 -174.078125 317.703125 -169.390625 C 317.703125 -164.710938 315.359375 -162.375 310.671875 -162.375 Z M 448.4375 -487.109375 C 443.757812 -487.109375 441.421875 -489.445312 441.421875 -494.125 C 441.421875 -498.8125 443.757812 -501.15625 448.4375 -501.15625 C 453.125 -501.15625 455.46875 -498.8125 455.46875 -494.125 C 455.46875 -489.445312 453.125 -487.109375 448.4375 -487.109375 Z M 448.4375 -487.109375 "/></g></g></g><path stroke-linecap="butt" transform="matrix(0.299672, 0.686801, -0.686801, 0.299672, 81.475062, 213.852404)" fill="none" stroke-linejoin="miter" d="M 0.0017386 2.000608 L 480.814134 2.000847 " stroke="#000000" stroke-width="4" stroke-opacity="1" stroke-miterlimit="4"/><path stroke-linecap="round" transform="matrix(0.299672, 0.686801, -0.686801, 0.299672, 81.475062, 213.852404)" fill="none" stroke-linejoin="round" d="M 472.813078 -3.998486 L 480.814134 2.000847 L 472.816803 7.998284 " stroke="#000000" stroke-width="4" stroke-opacity="1" stroke-miterlimit="4"/><path stroke-linecap="butt" transform="matrix(0.292006, -0.690096, 0.690096, 0.292006, 368.100544, 545.461272)" fill="none" stroke-linejoin="miter" d="M -0.00209382 2.0005 L 478.508611 1.998377 " stroke="#000000" stroke-width="4" stroke-opacity="1" stroke-miterlimit="4"/><path stroke-linecap="round" transform="matrix(0.292006, -0.690096, 0.690096, 0.292006, 368.100544, 545.461272)" fill="none" stroke-linejoin="round" d="M 470.507655 -4.001132 L 478.508611 1.998377 L 470.507913 7.998908 " stroke="#000000" stroke-width="4" stroke-opacity="1" stroke-miterlimit="4"/></svg>