<svg xmlns="http://www.w3.org/2000/svg" xmlns:xlink="http://www.w3.org/1999/xlink" width="794" zoomAndPan="magnify" viewBox="0 0 594.95996 842.24997" height="1123" preserveAspectRatio="xMidYMid meet" version="1.0"><defs><clipPath id="c3e96a73d4"><path d="M 63 149.71875 L 532 149.71875 L 532 691.484375 L 63 691.484375 Z M 63 149.71875 " clip-rule="nonzero"/></clipPath></defs><path fill="#ffffff" d="M 297.277344 682.910156 C 258.179688 682.910156 222.992188 658.203125 209.707031 621.429688 L 76.679688 253.027344 C 68.871094 231.386719 72.09375 207.222656 85.316406 188.390625 C 98.535156 169.5625 120.164062 158.320312 143.171875 158.320312 L 150.609375 158.320312 C 180.625 158.320312 207.441406 177.359375 217.34375 205.699219 L 299.292969 440.261719 L 379.941406 206.003906 C 389.753906 177.480469 416.617188 158.320312 446.78125 158.320312 L 452.164062 158.320312 C 475.195312 158.320312 496.84375 169.582031 510.058594 188.449219 C 523.277344 207.3125 526.472656 231.5 518.609375 253.152344 L 384.785156 621.589844 C 371.460938 658.269531 336.296875 682.910156 297.277344 682.910156 Z M 297.277344 682.910156 " fill-opacity="1" fill-rule="nonzero"/><g clip-path="url(#c3e96a73d4)"><path fill="#000000" d="M 452.164062 158.320312 C 475.195312 158.320312 496.84375 169.582031 510.058594 188.449219 C 523.277344 207.3125 526.472656 231.5 518.609375 253.152344 L 384.785156 621.589844 C 371.460938 658.269531 336.296875 682.910156 297.277344 682.910156 C 258.179688 682.910156 222.992188 658.203125 209.707031 621.429688 L 76.679688 253.027344 C 68.871094 231.386719 72.09375 207.222656 85.316406 188.390625 C 98.535156 169.5625 120.164062 158.320312 143.171875 158.320312 L 150.609375 158.320312 C 180.625 158.320312 207.441406 177.359375 217.34375 205.699219 L 299.292969 440.261719 L 379.941406 206.003906 C 389.753906 177.480469 416.617188 158.320312 446.78125 158.320312 L 452.164062 158.320312 M 452.164062 149.71875 L 446.78125 149.71875 C 412.945312 149.71875 382.816406 171.210938 371.808594 203.203125 L 299.234375 414.015625 L 225.460938 202.859375 C 214.355469 171.074219 184.273438 149.71875 150.609375 149.71875 L 143.171875 149.71875 C 117.367188 149.71875 93.105469 162.328125 78.28125 183.449219 C 63.453125 204.566406 59.828125 231.667969 68.589844 255.949219 L 201.621094 624.347656 C 216.128906 664.519531 254.570312 691.511719 297.277344 691.511719 C 339.898438 691.511719 378.3125 664.59375 392.867188 624.527344 L 526.691406 256.089844 C 535.515625 231.804688 531.929688 204.671875 517.101562 183.511719 C 502.28125 162.351562 478.003906 149.71875 452.164062 149.71875 Z M 452.164062 149.71875 " fill-opacity="1" fill-rule="nonzero"/></g><path fill="#58595b" d="M 332.964844 555.617188 L 328.925781 554.148438 L 334.796875 537.980469 L 338.839844 539.449219 Z M 344.710938 523.28125 L 340.667969 521.8125 L 346.542969 505.644531 L 350.582031 507.113281 Z M 356.457031 490.949219 L 352.414062 489.480469 L 358.285156 473.3125 L 362.328125 474.78125 Z M 368.199219 458.613281 L 364.160156 457.144531 L 370.03125 440.976562 L 374.074219 442.445312 Z M 379.945312 426.277344 L 375.902344 424.808594 L 381.777344 408.640625 L 385.816406 410.109375 Z M 391.691406 393.941406 L 387.648438 392.472656 L 393.519531 376.304688 L 397.5625 377.773438 Z M 403.433594 361.605469 L 399.394531 360.136719 L 405.265625 343.96875 L 409.304688 345.4375 Z M 415.179688 329.269531 L 411.136719 327.800781 L 417.011719 311.632812 L 421.050781 313.101562 Z M 426.925781 296.933594 L 422.882812 295.46875 L 428.753906 279.300781 L 432.796875 280.765625 Z M 438.667969 264.601562 L 434.628906 263.132812 L 440.5 246.964844 L 444.539062 248.433594 Z M 450.414062 232.265625 L 446.371094 230.796875 L 452.246094 214.628906 L 456.285156 216.097656 Z M 450.414062 232.265625 " fill-opacity="1" fill-rule="nonzero"/><path fill="#58595b" d="M 292.476562 639.761719 L 286.632812 623.582031 L 290.679688 622.125 L 296.519531 638.300781 Z M 280.792969 607.40625 L 274.949219 591.226562 L 278.996094 589.765625 L 284.835938 605.945312 Z M 269.109375 575.046875 L 263.265625 558.871094 L 267.308594 557.410156 L 273.152344 573.585938 Z M 257.425781 542.691406 L 251.582031 526.511719 L 255.625 525.050781 L 261.46875 541.230469 Z M 245.738281 510.332031 L 239.898438 494.15625 L 243.941406 492.695312 L 249.785156 508.871094 Z M 234.054688 477.976562 L 228.214844 461.796875 L 232.257812 460.335938 L 238.097656 476.515625 Z M 222.371094 445.617188 L 216.53125 429.441406 L 220.574219 427.980469 L 226.414062 444.15625 Z M 210.6875 413.261719 L 204.84375 397.082031 L 208.890625 395.621094 L 214.730469 411.800781 Z M 199.003906 380.902344 L 193.160156 364.726562 L 197.203125 363.265625 L 203.046875 379.441406 Z M 187.320312 348.546875 L 181.476562 332.367188 L 185.523438 330.90625 L 191.363281 347.085938 Z M 175.632812 316.1875 L 169.792969 300.011719 L 173.835938 298.550781 L 179.679688 314.726562 Z M 163.949219 283.832031 L 158.109375 267.652344 L 162.152344 266.191406 L 167.996094 282.371094 Z M 152.265625 251.472656 L 146.425781 235.296875 L 150.46875 233.835938 L 156.308594 250.015625 Z M 152.265625 251.472656 " fill-opacity="1" fill-rule="nonzero"/><path fill="#58595b" d="M 468.644531 227.445312 L 435.394531 215.898438 L 462.015625 192.875 Z M 468.644531 227.445312 " fill-opacity="1" fill-rule="nonzero"/><path fill="#58595b" d="M 296.6875 646.308594 L 270.421875 622.875 L 303.847656 611.84375 Z M 296.6875 646.308594 " fill-opacity="1" fill-rule="nonzero"/><path fill="#414042" d="M 187.351562 232.019531 C 187.351562 233.292969 187.289062 234.566406 187.164062 235.835938 C 187.039062 237.101562 186.851562 238.359375 186.605469 239.609375 C 186.355469 240.859375 186.046875 242.09375 185.675781 243.316406 C 185.304688 244.535156 184.878906 245.734375 184.390625 246.910156 C 183.902344 248.085938 183.359375 249.238281 182.757812 250.363281 C 182.15625 251.484375 181.503906 252.578125 180.792969 253.636719 C 180.085938 254.695312 179.328125 255.71875 178.519531 256.703125 C 177.710938 257.6875 176.855469 258.632812 175.957031 259.53125 C 175.054688 260.433594 174.113281 261.289062 173.128906 262.097656 C 172.140625 262.90625 171.121094 263.664062 170.058594 264.371094 C 169 265.078125 167.910156 265.734375 166.785156 266.335938 C 165.660156 266.933594 164.511719 267.480469 163.335938 267.964844 C 162.15625 268.453125 160.957031 268.882812 159.738281 269.253906 C 158.519531 269.621094 157.285156 269.933594 156.035156 270.179688 C 154.785156 270.429688 153.527344 270.617188 152.257812 270.742188 C 150.992188 270.867188 149.71875 270.929688 148.445312 270.929688 C 147.171875 270.929688 145.898438 270.867188 144.632812 270.742188 C 143.363281 270.617188 142.105469 270.429688 140.855469 270.179688 C 139.605469 269.933594 138.371094 269.621094 137.152344 269.253906 C 135.933594 268.882812 134.734375 268.453125 133.558594 267.964844 C 132.378906 267.480469 131.230469 266.933594 130.105469 266.335938 C 128.980469 265.734375 127.890625 265.078125 126.832031 264.371094 C 125.769531 263.664062 124.75 262.90625 123.765625 262.097656 C 122.777344 261.289062 121.835938 260.433594 120.933594 259.53125 C 120.035156 258.632812 119.179688 257.6875 118.371094 256.703125 C 117.5625 255.71875 116.804688 254.695312 116.097656 253.636719 C 115.390625 252.578125 114.734375 251.484375 114.132812 250.363281 C 113.535156 249.238281 112.988281 248.085938 112.5 246.910156 C 112.015625 245.734375 111.585938 244.535156 111.214844 243.316406 C 110.84375 242.09375 110.535156 240.859375 110.289062 239.609375 C 110.039062 238.359375 109.851562 237.101562 109.726562 235.835938 C 109.601562 234.566406 109.539062 233.292969 109.539062 232.019531 C 109.539062 230.746094 109.601562 229.476562 109.726562 228.207031 C 109.851562 226.9375 110.039062 225.679688 110.289062 224.429688 C 110.535156 223.179688 110.84375 221.945312 111.214844 220.726562 C 111.585938 219.507812 112.015625 218.308594 112.5 217.132812 C 112.988281 215.953125 113.535156 214.804688 114.132812 213.679688 C 114.734375 212.554688 115.390625 211.464844 116.097656 210.40625 C 116.804688 209.34375 117.5625 208.324219 118.371094 207.335938 C 119.179688 206.351562 120.035156 205.410156 120.933594 204.507812 C 121.835938 203.609375 122.777344 202.753906 123.765625 201.945312 C 124.75 201.136719 125.769531 200.378906 126.832031 199.667969 C 127.890625 198.960938 128.980469 198.308594 130.105469 197.707031 C 131.230469 197.105469 132.378906 196.5625 133.558594 196.074219 C 134.734375 195.585938 135.933594 195.15625 137.152344 194.789062 C 138.371094 194.417969 139.605469 194.109375 140.855469 193.859375 C 142.105469 193.613281 143.363281 193.425781 144.632812 193.300781 C 145.898438 193.175781 147.171875 193.113281 148.445312 193.113281 C 149.71875 193.113281 150.992188 193.175781 152.257812 193.300781 C 153.527344 193.425781 154.785156 193.613281 156.035156 193.859375 C 157.285156 194.109375 158.519531 194.417969 159.738281 194.789062 C 160.957031 195.15625 162.15625 195.585938 163.335938 196.074219 C 164.511719 196.5625 165.660156 197.105469 166.785156 197.707031 C 167.910156 198.308594 169 198.960938 170.058594 199.667969 C 171.121094 200.378906 172.140625 201.136719 173.128906 201.945312 C 174.113281 202.753906 175.054688 203.609375 175.957031 204.507812 C 176.855469 205.410156 177.710938 206.351562 178.519531 207.335938 C 179.328125 208.324219 180.085938 209.34375 180.792969 210.40625 C 181.503906 211.464844 182.15625 212.554688 182.757812 213.679688 C 183.359375 214.804688 183.902344 215.953125 184.390625 217.132812 C 184.878906 218.308594 185.304688 219.507812 185.675781 220.726562 C 186.046875 221.945312 186.355469 223.179688 186.605469 224.429688 C 186.851562 225.679688 187.039062 226.9375 187.164062 228.207031 C 187.289062 229.476562 187.351562 230.746094 187.351562 232.019531 Z M 187.351562 232.019531 " fill-opacity="1" fill-rule="nonzero"/><path fill="#fcfcfc" d="M 152.949219 205.382812 L 147.953125 205.382812 C 147.386719 205.382812 146.851562 205.632812 146.480469 206.0625 L 131.773438 223.269531 C 131.121094 224.039062 131.160156 225.179688 131.878906 225.898438 L 134.675781 228.691406 C 135.429688 229.445312 136.648438 229.445312 137.402344 228.699219 L 146.019531 220.1875 L 146.019531 257.472656 C 146.019531 258.539062 146.886719 259.410156 147.953125 259.410156 L 152.949219 259.410156 C 154.015625 259.410156 154.886719 258.539062 154.886719 257.472656 L 154.886719 207.320312 C 154.886719 206.253906 154.015625 205.382812 152.949219 205.382812 Z M 152.949219 205.382812 " fill-opacity="1" fill-rule="nonzero"/><path fill="#414042" d="M 371.046875 561.425781 C 371.046875 562.699219 370.984375 563.96875 370.859375 565.238281 C 370.734375 566.507812 370.546875 567.765625 370.300781 569.015625 C 370.050781 570.265625 369.742188 571.5 369.371094 572.71875 C 369 573.9375 368.574219 575.136719 368.085938 576.3125 C 367.597656 577.492188 367.054688 578.640625 366.453125 579.765625 C 365.851562 580.890625 365.199219 581.980469 364.488281 583.039062 C 363.78125 584.101562 363.023438 585.121094 362.214844 586.105469 C 361.40625 587.09375 360.550781 588.035156 359.652344 588.9375 C 358.75 589.835938 357.808594 590.691406 356.824219 591.5 C 355.835938 592.308594 354.816406 593.066406 353.757812 593.773438 C 352.695312 594.484375 351.605469 595.136719 350.480469 595.738281 C 349.355469 596.339844 348.207031 596.882812 347.03125 597.371094 C 345.851562 597.859375 344.652344 598.285156 343.433594 598.65625 C 342.214844 599.027344 340.980469 599.335938 339.730469 599.585938 C 338.480469 599.832031 337.222656 600.019531 335.953125 600.144531 C 334.6875 600.269531 333.414062 600.332031 332.140625 600.332031 C 330.867188 600.332031 329.597656 600.269531 328.328125 600.144531 C 327.058594 600.019531 325.800781 599.832031 324.550781 599.585938 C 323.300781 599.335938 322.066406 599.027344 320.847656 598.65625 C 319.628906 598.285156 318.429688 597.859375 317.253906 597.371094 C 316.074219 596.882812 314.925781 596.339844 313.800781 595.738281 C 312.675781 595.136719 311.585938 594.484375 310.527344 593.773438 C 309.46875 593.066406 308.445312 592.308594 307.460938 591.5 C 306.476562 590.691406 305.53125 589.835938 304.628906 588.9375 C 303.730469 588.035156 302.875 587.09375 302.066406 586.105469 C 301.257812 585.121094 300.5 584.101562 299.792969 583.039062 C 299.085938 581.980469 298.429688 580.890625 297.828125 579.765625 C 297.230469 578.640625 296.683594 577.492188 296.195312 576.3125 C 295.710938 575.136719 295.28125 573.9375 294.910156 572.71875 C 294.539062 571.5 294.230469 570.265625 293.984375 569.015625 C 293.734375 567.765625 293.546875 566.507812 293.421875 565.238281 C 293.296875 563.96875 293.234375 562.699219 293.234375 561.425781 C 293.234375 560.148438 293.296875 558.878906 293.421875 557.609375 C 293.546875 556.34375 293.734375 555.082031 293.984375 553.832031 C 294.230469 552.585938 294.539062 551.347656 294.910156 550.128906 C 295.28125 548.910156 295.710938 547.710938 296.195312 546.535156 C 296.683594 545.359375 297.230469 544.207031 297.828125 543.082031 C 298.429688 541.960938 299.085938 540.867188 299.792969 539.808594 C 300.5 538.75 301.257812 537.726562 302.066406 536.742188 C 302.875 535.757812 303.730469 534.8125 304.628906 533.914062 C 305.53125 533.011719 306.476562 532.15625 307.460938 531.347656 C 308.445312 530.539062 309.46875 529.78125 310.527344 529.074219 C 311.585938 528.367188 312.675781 527.710938 313.800781 527.109375 C 314.925781 526.511719 316.074219 525.964844 317.253906 525.476562 C 318.429688 524.992188 319.628906 524.5625 320.847656 524.191406 C 322.066406 523.820312 323.300781 523.511719 324.550781 523.265625 C 325.800781 523.015625 327.058594 522.828125 328.328125 522.703125 C 329.597656 522.578125 330.867188 522.515625 332.140625 522.515625 C 333.414062 522.515625 334.6875 522.578125 335.953125 522.703125 C 337.222656 522.828125 338.480469 523.015625 339.730469 523.265625 C 340.980469 523.511719 342.214844 523.820312 343.433594 524.191406 C 344.652344 524.5625 345.851562 524.992188 347.03125 525.476562 C 348.207031 525.964844 349.355469 526.511719 350.480469 527.109375 C 351.605469 527.710938 352.695312 528.367188 353.757812 529.074219 C 354.816406 529.78125 355.835938 530.539062 356.824219 531.347656 C 357.808594 532.15625 358.75 533.011719 359.652344 533.914062 C 360.550781 534.8125 361.40625 535.757812 362.214844 536.742188 C 363.023438 537.726562 363.78125 538.75 364.488281 539.808594 C 365.199219 540.867188 365.851562 541.960938 366.453125 543.082031 C 367.054688 544.207031 367.597656 545.359375 368.085938 546.535156 C 368.574219 547.710938 369 548.910156 369.371094 550.128906 C 369.742188 551.347656 370.050781 552.585938 370.300781 553.832031 C 370.546875 555.082031 370.734375 556.34375 370.859375 557.609375 C 370.984375 558.878906 371.046875 560.148438 371.046875 561.425781 Z M 371.046875 561.425781 " fill-opacity="1" fill-rule="nonzero"/><path fill="#fcfcfc" d="M 347.730469 579.9375 L 325.855469 579.9375 C 326.144531 579.414062 326.527344 578.871094 327.035156 578.320312 C 328.410156 576.796875 330.617188 574.785156 333.597656 572.335938 L 333.558594 572.296875 C 334.011719 571.988281 334.511719 571.558594 335.078125 571.070312 C 339.296875 567.507812 342.667969 564.003906 345.101562 560.660156 C 347.683594 557.109375 349 553.011719 349 548.492188 C 349 544.015625 347.472656 540.378906 344.464844 537.671875 C 341.507812 535.03125 337.554688 533.6875 332.726562 533.6875 C 329.339844 533.6875 326.027344 534.53125 322.886719 536.195312 C 319.777344 537.839844 317.117188 540.164062 314.988281 543.082031 C 314.390625 543.902344 314.527344 545.039062 315.296875 545.695312 L 319.339844 549.152344 C 319.742188 549.496094 320.253906 549.675781 320.816406 549.601562 C 321.34375 549.542969 321.828125 549.265625 322.144531 548.835938 C 323.703125 546.746094 325.386719 545.144531 327.15625 544.078125 C 330.550781 542.019531 335.28125 542.027344 337.714844 544.226562 C 338.894531 545.296875 339.46875 546.691406 339.46875 548.492188 C 339.46875 551.511719 338.714844 554.089844 337.15625 556.378906 C 335.507812 558.808594 333.128906 561.351562 330.035156 563.972656 C 329.871094 564.117188 329.070312 564.777344 327.601562 565.96875 C 325.0625 568.0625 322.992188 569.898438 321.441406 571.417969 C 319.839844 572.996094 318.480469 574.804688 317.390625 576.792969 C 316.234375 578.914062 315.644531 581.246094 315.644531 583.714844 L 315.644531 586.878906 C 315.644531 587.945312 316.515625 588.8125 317.582031 588.8125 L 347.730469 588.8125 C 348.796875 588.8125 349.667969 587.945312 349.667969 586.878906 L 349.667969 581.875 C 349.667969 580.808594 348.796875 579.9375 347.730469 579.9375 Z M 347.730469 579.9375 " fill-opacity="1" fill-rule="nonzero"/></svg>