<svg xmlns="http://www.w3.org/2000/svg" xmlns:xlink="http://www.w3.org/1999/xlink" width="794" zoomAndPan="magnify" viewBox="0 0 594.95996 842.24997" height="1123" preserveAspectRatio="xMidYMid meet" version="1.0"><defs><g/></defs><g fill="#000000" fill-opacity="1"><g transform="translate(27.546193, 603.28981)"><g><path d="M 176.234375 1.03125 C 172.773438 1.03125 171.046875 -0.691406 171.046875 -4.140625 C 171.046875 -7.597656 172.773438 -9.328125 176.234375 -9.328125 C 179.691406 -9.328125 181.421875 -7.597656 181.421875 -4.140625 C 181.421875 -0.691406 179.691406 1.03125 176.234375 1.03125 Z M 36.28125 -325 C 32.820312 -325 31.09375 -326.726562 31.09375 -330.1875 C 31.09375 -333.644531 32.820312 -335.375 36.28125 -335.375 C 39.738281 -335.375 41.46875 -333.644531 41.46875 -330.1875 C 41.46875 -326.726562 39.738281 -325 36.28125 -325 Z M 43.546875 -307.890625 C 40.085938 -307.890625 38.359375 -309.617188 38.359375 -313.078125 C 38.359375 -316.535156 40.085938 -318.265625 43.546875 -318.265625 C 46.992188 -318.265625 48.71875 -316.535156 48.71875 -313.078125 C 48.71875 -309.617188 46.992188 -307.890625 43.546875 -307.890625 Z M 65.3125 -256.578125 C 61.851562 -256.578125 60.125 -258.304688 60.125 -261.765625 C 60.125 -265.222656 61.851562 -266.953125 65.3125 -266.953125 C 68.769531 -266.953125 70.5 -265.222656 70.5 -261.765625 C 70.5 -258.304688 68.769531 -256.578125 65.3125 -256.578125 Z M 72.5625 -239.46875 C 69.113281 -239.46875 67.390625 -241.195312 67.390625 -244.65625 C 67.390625 -248.113281 69.113281 -249.84375 72.5625 -249.84375 C 76.019531 -249.84375 77.75 -248.113281 77.75 -244.65625 C 77.75 -241.195312 76.019531 -239.46875 72.5625 -239.46875 Z M 50.796875 -290.796875 C 47.335938 -290.796875 45.609375 -292.519531 45.609375 -295.96875 C 45.609375 -299.425781 47.335938 -301.15625 50.796875 -301.15625 C 54.253906 -301.15625 55.984375 -299.425781 55.984375 -295.96875 C 55.984375 -292.519531 54.253906 -290.796875 50.796875 -290.796875 Z M 58.046875 -273.6875 C 54.597656 -273.6875 52.875 -275.414062 52.875 -278.875 C 52.875 -282.320312 54.597656 -284.046875 58.046875 -284.046875 C 61.503906 -284.046875 63.234375 -282.320312 63.234375 -278.875 C 63.234375 -275.414062 61.503906 -273.6875 58.046875 -273.6875 Z M 93.8125 -188.15625 C 90.363281 -188.15625 88.640625 -189.882812 88.640625 -193.34375 C 88.640625 -196.800781 90.363281 -198.53125 93.8125 -198.53125 C 97.269531 -198.53125 99 -196.800781 99 -193.34375 C 99 -189.882812 97.269531 -188.15625 93.8125 -188.15625 Z M 101.078125 -171.046875 C 97.617188 -171.046875 95.890625 -172.773438 95.890625 -176.234375 C 95.890625 -179.691406 97.617188 -181.421875 101.078125 -181.421875 C 104.535156 -181.421875 106.265625 -179.691406 106.265625 -176.234375 C 106.265625 -172.773438 104.535156 -171.046875 101.078125 -171.046875 Z M 79.828125 -222.375 C 76.367188 -222.375 74.640625 -224.097656 74.640625 -227.546875 C 74.640625 -231.003906 76.367188 -232.734375 79.828125 -232.734375 C 83.285156 -232.734375 85.015625 -231.003906 85.015625 -227.546875 C 85.015625 -224.097656 83.285156 -222.375 79.828125 -222.375 Z M 87.078125 -205.265625 C 83.617188 -205.265625 81.890625 -206.992188 81.890625 -210.453125 C 81.890625 -213.898438 83.617188 -215.625 87.078125 -215.625 C 90.535156 -215.625 92.265625 -213.898438 92.265625 -210.453125 C 92.265625 -206.992188 90.535156 -205.265625 87.078125 -205.265625 Z M 108.328125 -153.953125 C 104.878906 -153.953125 103.15625 -155.675781 103.15625 -159.125 C 103.15625 -162.582031 104.878906 -164.3125 108.328125 -164.3125 C 111.785156 -164.3125 113.515625 -162.582031 113.515625 -159.125 C 113.515625 -155.675781 111.785156 -153.953125 108.328125 -153.953125 Z M 115.59375 -136.84375 C 112.132812 -136.84375 110.40625 -138.570312 110.40625 -142.03125 C 110.40625 -145.476562 112.132812 -147.203125 115.59375 -147.203125 C 119.050781 -147.203125 120.78125 -145.476562 120.78125 -142.03125 C 120.78125 -138.570312 119.050781 -136.84375 115.59375 -136.84375 Z M 29.03125 -342.109375 C 25.570312 -342.109375 23.84375 -343.835938 23.84375 -347.296875 C 23.84375 -350.742188 25.570312 -352.46875 29.03125 -352.46875 C 32.476562 -352.46875 34.203125 -350.742188 34.203125 -347.296875 C 34.203125 -343.835938 32.476562 -342.109375 29.03125 -342.109375 Z M 129.578125 -102.625 C 126.128906 -102.625 124.40625 -104.351562 124.40625 -107.8125 C 124.40625 -111.269531 126.128906 -113 129.578125 -113 C 133.035156 -113 134.765625 -111.269531 134.765625 -107.8125 C 134.765625 -104.351562 133.035156 -102.625 129.578125 -102.625 Z M 136.84375 -85.53125 C 133.382812 -85.53125 131.65625 -87.253906 131.65625 -90.703125 C 131.65625 -94.160156 133.382812 -95.890625 136.84375 -95.890625 C 140.300781 -95.890625 142.03125 -94.160156 142.03125 -90.703125 C 142.03125 -87.253906 140.300781 -85.53125 136.84375 -85.53125 Z M 158.609375 -33.6875 C 155.160156 -33.6875 153.4375 -35.414062 153.4375 -38.875 C 153.4375 -42.332031 155.160156 -44.0625 158.609375 -44.0625 C 162.066406 -44.0625 163.796875 -42.332031 163.796875 -38.875 C 163.796875 -35.414062 162.066406 -33.6875 158.609375 -33.6875 Z M 165.875 -16.0625 C 162.414062 -16.0625 160.6875 -17.789062 160.6875 -21.25 C 160.6875 -24.707031 162.414062 -26.4375 165.875 -26.4375 C 169.320312 -26.4375 171.046875 -24.707031 171.046875 -21.25 C 171.046875 -17.789062 169.320312 -16.0625 165.875 -16.0625 Z M 144.09375 -68.421875 C 140.644531 -68.421875 138.921875 -70.148438 138.921875 -73.609375 C 138.921875 -77.054688 140.644531 -78.78125 144.09375 -78.78125 C 147.550781 -78.78125 149.28125 -77.054688 149.28125 -73.609375 C 149.28125 -70.148438 147.550781 -68.421875 144.09375 -68.421875 Z M 151.359375 -51.3125 C 147.898438 -51.3125 146.171875 -53.039062 146.171875 -56.5 C 146.171875 -59.957031 147.898438 -61.6875 151.359375 -61.6875 C 154.816406 -61.6875 156.546875 -59.957031 156.546875 -56.5 C 156.546875 -53.039062 154.816406 -51.3125 151.359375 -51.3125 Z M 122.328125 -119.734375 C 118.867188 -119.734375 117.140625 -121.460938 117.140625 -124.921875 C 117.140625 -128.378906 118.867188 -130.109375 122.328125 -130.109375 C 125.785156 -130.109375 127.515625 -128.378906 127.515625 -124.921875 C 127.515625 -121.460938 125.785156 -119.734375 122.328125 -119.734375 Z M 20.734375 -359.21875 C 17.273438 -359.21875 15.546875 -360.941406 15.546875 -364.390625 C 15.546875 -367.847656 17.273438 -369.578125 20.734375 -369.578125 C 24.191406 -369.578125 25.921875 -367.847656 25.921875 -364.390625 C 25.921875 -360.941406 24.191406 -359.21875 20.734375 -359.21875 Z M 321.375 -325 C 317.914062 -325 316.1875 -326.726562 316.1875 -330.1875 C 316.1875 -333.644531 317.914062 -335.375 321.375 -335.375 C 324.832031 -335.375 326.5625 -333.644531 326.5625 -330.1875 C 326.5625 -326.726562 324.832031 -325 321.375 -325 Z M 314.640625 -307.890625 C 311.179688 -307.890625 309.453125 -309.617188 309.453125 -313.078125 C 309.453125 -316.535156 311.179688 -318.265625 314.640625 -318.265625 C 318.085938 -318.265625 319.8125 -316.535156 319.8125 -313.078125 C 319.8125 -309.617188 318.085938 -307.890625 314.640625 -307.890625 Z M 291.3125 -256.578125 C 287.851562 -256.578125 286.125 -258.304688 286.125 -261.765625 C 286.125 -265.222656 287.851562 -266.953125 291.3125 -266.953125 C 294.769531 -266.953125 296.5 -265.222656 296.5 -261.765625 C 296.5 -258.304688 294.769531 -256.578125 291.3125 -256.578125 Z M 283.53125 -239.46875 C 280.070312 -239.46875 278.34375 -241.195312 278.34375 -244.65625 C 278.34375 -248.113281 280.070312 -249.84375 283.53125 -249.84375 C 286.988281 -249.84375 288.71875 -248.113281 288.71875 -244.65625 C 288.71875 -241.195312 286.988281 -239.46875 283.53125 -239.46875 Z M 306.859375 -290.796875 C 303.398438 -290.796875 301.671875 -292.519531 301.671875 -295.96875 C 301.671875 -299.425781 303.398438 -301.15625 306.859375 -301.15625 C 310.316406 -301.15625 312.046875 -299.425781 312.046875 -295.96875 C 312.046875 -292.519531 310.316406 -290.796875 306.859375 -290.796875 Z M 299.078125 -273.6875 C 295.628906 -273.6875 293.90625 -275.414062 293.90625 -278.875 C 293.90625 -282.320312 295.628906 -284.046875 299.078125 -284.046875 C 302.535156 -284.046875 304.265625 -282.320312 304.265625 -278.875 C 304.265625 -275.414062 302.535156 -273.6875 299.078125 -273.6875 Z M 260.734375 -188.15625 C 257.273438 -188.15625 255.546875 -189.882812 255.546875 -193.34375 C 255.546875 -196.800781 257.273438 -198.53125 260.734375 -198.53125 C 264.179688 -198.53125 265.90625 -196.800781 265.90625 -193.34375 C 265.90625 -189.882812 264.179688 -188.15625 260.734375 -188.15625 Z M 252.4375 -171.046875 C 248.976562 -171.046875 247.25 -172.773438 247.25 -176.234375 C 247.25 -179.691406 248.976562 -181.421875 252.4375 -181.421875 C 255.882812 -181.421875 257.609375 -179.691406 257.609375 -176.234375 C 257.609375 -172.773438 255.882812 -171.046875 252.4375 -171.046875 Z M 275.765625 -222.375 C 272.304688 -222.375 270.578125 -224.097656 270.578125 -227.546875 C 270.578125 -231.003906 272.304688 -232.734375 275.765625 -232.734375 C 279.210938 -232.734375 280.9375 -231.003906 280.9375 -227.546875 C 280.9375 -224.097656 279.210938 -222.375 275.765625 -222.375 Z M 267.984375 -205.265625 C 264.523438 -205.265625 262.796875 -206.992188 262.796875 -210.453125 C 262.796875 -213.898438 264.523438 -215.625 267.984375 -215.625 C 271.441406 -215.625 273.171875 -213.898438 273.171875 -210.453125 C 273.171875 -206.992188 271.441406 -205.265625 267.984375 -205.265625 Z M 244.65625 -153.953125 C 241.195312 -153.953125 239.46875 -155.675781 239.46875 -159.125 C 239.46875 -162.582031 241.195312 -164.3125 244.65625 -164.3125 C 248.113281 -164.3125 249.84375 -162.582031 249.84375 -159.125 C 249.84375 -155.675781 248.113281 -153.953125 244.65625 -153.953125 Z M 236.890625 -136.84375 C 233.429688 -136.84375 231.703125 -138.570312 231.703125 -142.03125 C 231.703125 -145.476562 233.429688 -147.203125 236.890625 -147.203125 C 240.335938 -147.203125 242.0625 -145.476562 242.0625 -142.03125 C 242.0625 -138.570312 240.335938 -136.84375 236.890625 -136.84375 Z M 328.625 -342.109375 C 325.175781 -342.109375 323.453125 -343.835938 323.453125 -347.296875 C 323.453125 -350.742188 325.175781 -352.46875 328.625 -352.46875 C 332.082031 -352.46875 333.8125 -350.742188 333.8125 -347.296875 C 333.8125 -343.835938 332.082031 -342.109375 328.625 -342.109375 Z M 221.84375 -102.625 C 218.394531 -102.625 216.671875 -104.351562 216.671875 -107.8125 C 216.671875 -111.269531 218.394531 -113 221.84375 -113 C 225.300781 -113 227.03125 -111.269531 227.03125 -107.8125 C 227.03125 -104.351562 225.300781 -102.625 221.84375 -102.625 Z M 214.59375 -85.53125 C 211.132812 -85.53125 209.40625 -87.253906 209.40625 -90.703125 C 209.40625 -94.160156 211.132812 -95.890625 214.59375 -95.890625 C 218.050781 -95.890625 219.78125 -94.160156 219.78125 -90.703125 C 219.78125 -87.253906 218.050781 -85.53125 214.59375 -85.53125 Z M 192.3125 -33.6875 C 188.851562 -33.6875 187.125 -35.414062 187.125 -38.875 C 187.125 -42.332031 188.851562 -44.0625 192.3125 -44.0625 C 195.757812 -44.0625 197.484375 -42.332031 197.484375 -38.875 C 197.484375 -35.414062 195.757812 -33.6875 192.3125 -33.6875 Z M 185.5625 -16.0625 C 182.113281 -16.0625 180.390625 -17.789062 180.390625 -21.25 C 180.390625 -24.707031 182.113281 -26.4375 185.5625 -26.4375 C 189.019531 -26.4375 190.75 -24.707031 190.75 -21.25 C 190.75 -17.789062 189.019531 -16.0625 185.5625 -16.0625 Z M 207.34375 -68.421875 C 203.882812 -68.421875 202.15625 -70.148438 202.15625 -73.609375 C 202.15625 -77.054688 203.882812 -78.78125 207.34375 -78.78125 C 210.789062 -78.78125 212.515625 -77.054688 212.515625 -73.609375 C 212.515625 -70.148438 210.789062 -68.421875 207.34375 -68.421875 Z M 199.5625 -51.3125 C 196.101562 -51.3125 194.375 -53.039062 194.375 -56.5 C 194.375 -59.957031 196.101562 -61.6875 199.5625 -61.6875 C 203.019531 -61.6875 204.75 -59.957031 204.75 -56.5 C 204.75 -53.039062 203.019531 -51.3125 199.5625 -51.3125 Z M 229.625 -119.734375 C 226.164062 -119.734375 224.4375 -121.460938 224.4375 -124.921875 C 224.4375 -128.378906 226.164062 -130.109375 229.625 -130.109375 C 233.082031 -130.109375 234.8125 -128.378906 234.8125 -124.921875 C 234.8125 -121.460938 233.082031 -119.734375 229.625 -119.734375 Z M 336.40625 -359.21875 C 332.945312 -359.21875 331.21875 -360.941406 331.21875 -364.390625 C 331.21875 -367.847656 332.945312 -369.578125 336.40625 -369.578125 C 339.863281 -369.578125 341.59375 -367.847656 341.59375 -364.390625 C 341.59375 -360.941406 339.863281 -359.21875 336.40625 -359.21875 Z M 360.25 1.03125 C 356.789062 1.03125 355.0625 -0.691406 355.0625 -4.140625 C 355.0625 -7.597656 356.789062 -9.328125 360.25 -9.328125 C 363.707031 -9.328125 365.4375 -7.597656 365.4375 -4.140625 C 365.4375 -0.691406 363.707031 1.03125 360.25 1.03125 Z M 500.203125 -325 C 496.742188 -325 495.015625 -326.726562 495.015625 -330.1875 C 495.015625 -333.644531 496.742188 -335.375 500.203125 -335.375 C 503.660156 -335.375 505.390625 -333.644531 505.390625 -330.1875 C 505.390625 -326.726562 503.660156 -325 500.203125 -325 Z M 492.9375 -307.890625 C 489.488281 -307.890625 487.765625 -309.617188 487.765625 -313.078125 C 487.765625 -316.535156 489.488281 -318.265625 492.9375 -318.265625 C 496.394531 -318.265625 498.125 -316.535156 498.125 -313.078125 C 498.125 -309.617188 496.394531 -307.890625 492.9375 -307.890625 Z M 471.171875 -256.578125 C 467.710938 -256.578125 465.984375 -258.304688 465.984375 -261.765625 C 465.984375 -265.222656 467.710938 -266.953125 471.171875 -266.953125 C 474.628906 -266.953125 476.359375 -265.222656 476.359375 -261.765625 C 476.359375 -258.304688 474.628906 -256.578125 471.171875 -256.578125 Z M 463.921875 -239.46875 C 460.460938 -239.46875 458.734375 -241.195312 458.734375 -244.65625 C 458.734375 -248.113281 460.460938 -249.84375 463.921875 -249.84375 C 467.367188 -249.84375 469.09375 -248.113281 469.09375 -244.65625 C 469.09375 -241.195312 467.367188 -239.46875 463.921875 -239.46875 Z M 485.6875 -290.796875 C 482.226562 -290.796875 480.5 -292.519531 480.5 -295.96875 C 480.5 -299.425781 482.226562 -301.15625 485.6875 -301.15625 C 489.144531 -301.15625 490.875 -299.425781 490.875 -295.96875 C 490.875 -292.519531 489.144531 -290.796875 485.6875 -290.796875 Z M 478.4375 -273.6875 C 474.976562 -273.6875 473.25 -275.414062 473.25 -278.875 C 473.25 -282.320312 474.976562 -284.046875 478.4375 -284.046875 C 481.882812 -284.046875 483.609375 -282.320312 483.609375 -278.875 C 483.609375 -275.414062 481.882812 -273.6875 478.4375 -273.6875 Z M 442.671875 -188.15625 C 439.210938 -188.15625 437.484375 -189.882812 437.484375 -193.34375 C 437.484375 -196.800781 439.210938 -198.53125 442.671875 -198.53125 C 446.117188 -198.53125 447.84375 -196.800781 447.84375 -193.34375 C 447.84375 -189.882812 446.117188 -188.15625 442.671875 -188.15625 Z M 435.40625 -171.046875 C 431.945312 -171.046875 430.21875 -172.773438 430.21875 -176.234375 C 430.21875 -179.691406 431.945312 -181.421875 435.40625 -181.421875 C 438.863281 -181.421875 440.59375 -179.691406 440.59375 -176.234375 C 440.59375 -172.773438 438.863281 -171.046875 435.40625 -171.046875 Z M 456.65625 -222.375 C 453.207031 -222.375 451.484375 -224.097656 451.484375 -227.546875 C 451.484375 -231.003906 453.207031 -232.734375 456.65625 -232.734375 C 460.113281 -232.734375 461.84375 -231.003906 461.84375 -227.546875 C 461.84375 -224.097656 460.113281 -222.375 456.65625 -222.375 Z M 449.40625 -205.265625 C 445.945312 -205.265625 444.21875 -206.992188 444.21875 -210.453125 C 444.21875 -213.898438 445.945312 -215.625 449.40625 -215.625 C 452.863281 -215.625 454.59375 -213.898438 454.59375 -210.453125 C 454.59375 -206.992188 452.863281 -205.265625 449.40625 -205.265625 Z M 428.15625 -153.953125 C 424.695312 -153.953125 422.96875 -155.675781 422.96875 -159.125 C 422.96875 -162.582031 424.695312 -164.3125 428.15625 -164.3125 C 431.601562 -164.3125 433.328125 -162.582031 433.328125 -159.125 C 433.328125 -155.675781 431.601562 -153.953125 428.15625 -153.953125 Z M 420.890625 -136.84375 C 417.441406 -136.84375 415.71875 -138.570312 415.71875 -142.03125 C 415.71875 -145.476562 417.441406 -147.203125 420.890625 -147.203125 C 424.347656 -147.203125 426.078125 -145.476562 426.078125 -142.03125 C 426.078125 -138.570312 424.347656 -136.84375 420.890625 -136.84375 Z M 507.453125 -342.109375 C 504.003906 -342.109375 502.28125 -343.835938 502.28125 -347.296875 C 502.28125 -350.742188 504.003906 -352.46875 507.453125 -352.46875 C 510.910156 -352.46875 512.640625 -350.742188 512.640625 -347.296875 C 512.640625 -343.835938 510.910156 -342.109375 507.453125 -342.109375 Z M 406.90625 -102.625 C 403.445312 -102.625 401.71875 -104.351562 401.71875 -107.8125 C 401.71875 -111.269531 403.445312 -113 406.90625 -113 C 410.351562 -113 412.078125 -111.269531 412.078125 -107.8125 C 412.078125 -104.351562 410.351562 -102.625 406.90625 -102.625 Z M 399.640625 -85.53125 C 396.179688 -85.53125 394.453125 -87.253906 394.453125 -90.703125 C 394.453125 -94.160156 396.179688 -95.890625 399.640625 -95.890625 C 403.097656 -95.890625 404.828125 -94.160156 404.828125 -90.703125 C 404.828125 -87.253906 403.097656 -85.53125 399.640625 -85.53125 Z M 377.875 -33.6875 C 374.414062 -33.6875 372.6875 -35.414062 372.6875 -38.875 C 372.6875 -42.332031 374.414062 -44.0625 377.875 -44.0625 C 381.332031 -44.0625 383.0625 -42.332031 383.0625 -38.875 C 383.0625 -35.414062 381.332031 -33.6875 377.875 -33.6875 Z M 370.609375 -16.0625 C 367.160156 -16.0625 365.4375 -17.789062 365.4375 -21.25 C 365.4375 -24.707031 367.160156 -26.4375 370.609375 -26.4375 C 374.066406 -26.4375 375.796875 -24.707031 375.796875 -21.25 C 375.796875 -17.789062 374.066406 -16.0625 370.609375 -16.0625 Z M 392.390625 -68.421875 C 388.929688 -68.421875 387.203125 -70.148438 387.203125 -73.609375 C 387.203125 -77.054688 388.929688 -78.78125 392.390625 -78.78125 C 395.835938 -78.78125 397.5625 -77.054688 397.5625 -73.609375 C 397.5625 -70.148438 395.835938 -68.421875 392.390625 -68.421875 Z M 385.125 -51.3125 C 381.675781 -51.3125 379.953125 -53.039062 379.953125 -56.5 C 379.953125 -59.957031 381.675781 -61.6875 385.125 -61.6875 C 388.582031 -61.6875 390.3125 -59.957031 390.3125 -56.5 C 390.3125 -53.039062 388.582031 -51.3125 385.125 -51.3125 Z M 414.15625 -119.734375 C 410.695312 -119.734375 408.96875 -121.460938 408.96875 -124.921875 C 408.96875 -128.378906 410.695312 -130.109375 414.15625 -130.109375 C 417.613281 -130.109375 419.34375 -128.378906 419.34375 -124.921875 C 419.34375 -121.460938 417.613281 -119.734375 414.15625 -119.734375 Z M 515.75 -359.21875 C 512.289062 -359.21875 510.5625 -360.941406 510.5625 -364.390625 C 510.5625 -367.847656 512.289062 -369.578125 515.75 -369.578125 C 519.207031 -369.578125 520.9375 -367.847656 520.9375 -364.390625 C 520.9375 -360.941406 519.207031 -359.21875 515.75 -359.21875 Z M 215.109375 -325 C 211.648438 -325 209.921875 -326.726562 209.921875 -330.1875 C 209.921875 -333.644531 211.648438 -335.375 215.109375 -335.375 C 218.566406 -335.375 220.296875 -333.644531 220.296875 -330.1875 C 220.296875 -326.726562 218.566406 -325 215.109375 -325 Z M 221.84375 -307.890625 C 218.394531 -307.890625 216.671875 -309.617188 216.671875 -313.078125 C 216.671875 -316.535156 218.394531 -318.265625 221.84375 -318.265625 C 225.300781 -318.265625 227.03125 -316.535156 227.03125 -313.078125 C 227.03125 -309.617188 225.300781 -307.890625 221.84375 -307.890625 Z M 245.171875 -256.578125 C 241.722656 -256.578125 240 -258.304688 240 -261.765625 C 240 -265.222656 241.722656 -266.953125 245.171875 -266.953125 C 248.628906 -266.953125 250.359375 -265.222656 250.359375 -261.765625 C 250.359375 -258.304688 248.628906 -256.578125 245.171875 -256.578125 Z M 252.953125 -239.46875 C 249.492188 -239.46875 247.765625 -241.195312 247.765625 -244.65625 C 247.765625 -248.113281 249.492188 -249.84375 252.953125 -249.84375 C 256.410156 -249.84375 258.140625 -248.113281 258.140625 -244.65625 C 258.140625 -241.195312 256.410156 -239.46875 252.953125 -239.46875 Z M 229.625 -290.796875 C 226.164062 -290.796875 224.4375 -292.519531 224.4375 -295.96875 C 224.4375 -299.425781 226.164062 -301.15625 229.625 -301.15625 C 233.082031 -301.15625 234.8125 -299.425781 234.8125 -295.96875 C 234.8125 -292.519531 233.082031 -290.796875 229.625 -290.796875 Z M 237.40625 -273.6875 C 233.945312 -273.6875 232.21875 -275.414062 232.21875 -278.875 C 232.21875 -282.320312 233.945312 -284.046875 237.40625 -284.046875 C 240.851562 -284.046875 242.578125 -282.320312 242.578125 -278.875 C 242.578125 -275.414062 240.851562 -273.6875 237.40625 -273.6875 Z M 275.765625 -188.15625 C 272.304688 -188.15625 270.578125 -189.882812 270.578125 -193.34375 C 270.578125 -196.800781 272.304688 -198.53125 275.765625 -198.53125 C 279.210938 -198.53125 280.9375 -196.800781 280.9375 -193.34375 C 280.9375 -189.882812 279.210938 -188.15625 275.765625 -188.15625 Z M 284.046875 -171.046875 C 280.597656 -171.046875 278.875 -172.773438 278.875 -176.234375 C 278.875 -179.691406 280.597656 -181.421875 284.046875 -181.421875 C 287.503906 -181.421875 289.234375 -179.691406 289.234375 -176.234375 C 289.234375 -172.773438 287.503906 -171.046875 284.046875 -171.046875 Z M 260.734375 -222.375 C 257.273438 -222.375 255.546875 -224.097656 255.546875 -227.546875 C 255.546875 -231.003906 257.273438 -232.734375 260.734375 -232.734375 C 264.179688 -232.734375 265.90625 -231.003906 265.90625 -227.546875 C 265.90625 -224.097656 264.179688 -222.375 260.734375 -222.375 Z M 291.828125 -153.953125 C 288.367188 -153.953125 286.640625 -155.675781 286.640625 -159.125 C 286.640625 -162.582031 288.367188 -164.3125 291.828125 -164.3125 C 295.285156 -164.3125 297.015625 -162.582031 297.015625 -159.125 C 297.015625 -155.675781 295.285156 -153.953125 291.828125 -153.953125 Z M 299.609375 -136.84375 C 296.148438 -136.84375 294.421875 -138.570312 294.421875 -142.03125 C 294.421875 -145.476562 296.148438 -147.203125 299.609375 -147.203125 C 303.054688 -147.203125 304.78125 -145.476562 304.78125 -142.03125 C 304.78125 -138.570312 303.054688 -136.84375 299.609375 -136.84375 Z M 207.859375 -342.109375 C 204.398438 -342.109375 202.671875 -343.835938 202.671875 -347.296875 C 202.671875 -350.742188 204.398438 -352.46875 207.859375 -352.46875 C 211.316406 -352.46875 213.046875 -350.742188 213.046875 -347.296875 C 213.046875 -343.835938 211.316406 -342.109375 207.859375 -342.109375 Z M 314.640625 -102.625 C 311.179688 -102.625 309.453125 -104.351562 309.453125 -107.8125 C 309.453125 -111.269531 311.179688 -113 314.640625 -113 C 318.085938 -113 319.8125 -111.269531 319.8125 -107.8125 C 319.8125 -104.351562 318.085938 -102.625 314.640625 -102.625 Z M 321.890625 -85.53125 C 318.429688 -85.53125 316.703125 -87.253906 316.703125 -90.703125 C 316.703125 -94.160156 318.429688 -95.890625 321.890625 -95.890625 C 325.347656 -95.890625 327.078125 -94.160156 327.078125 -90.703125 C 327.078125 -87.253906 325.347656 -85.53125 321.890625 -85.53125 Z M 344.1875 -33.6875 C 340.726562 -33.6875 339 -35.414062 339 -38.875 C 339 -42.332031 340.726562 -44.0625 344.1875 -44.0625 C 347.632812 -44.0625 349.359375 -42.332031 349.359375 -38.875 C 349.359375 -35.414062 347.632812 -33.6875 344.1875 -33.6875 Z M 350.921875 -16.0625 C 347.460938 -16.0625 345.734375 -17.789062 345.734375 -21.25 C 345.734375 -24.707031 347.460938 -26.4375 350.921875 -26.4375 C 354.378906 -26.4375 356.109375 -24.707031 356.109375 -21.25 C 356.109375 -17.789062 354.378906 -16.0625 350.921875 -16.0625 Z M 329.140625 -68.421875 C 325.691406 -68.421875 323.96875 -70.148438 323.96875 -73.609375 C 323.96875 -77.054688 325.691406 -78.78125 329.140625 -78.78125 C 332.597656 -78.78125 334.328125 -77.054688 334.328125 -73.609375 C 334.328125 -70.148438 332.597656 -68.421875 329.140625 -68.421875 Z M 336.921875 -51.3125 C 333.460938 -51.3125 331.734375 -53.039062 331.734375 -56.5 C 331.734375 -59.957031 333.460938 -61.6875 336.921875 -61.6875 C 340.378906 -61.6875 342.109375 -59.957031 342.109375 -56.5 C 342.109375 -53.039062 340.378906 -51.3125 336.921875 -51.3125 Z M 306.859375 -119.734375 C 303.398438 -119.734375 301.671875 -121.460938 301.671875 -124.921875 C 301.671875 -128.378906 303.398438 -130.109375 306.859375 -130.109375 C 310.316406 -130.109375 312.046875 -128.378906 312.046875 -124.921875 C 312.046875 -121.460938 310.316406 -119.734375 306.859375 -119.734375 Z M 200.078125 -359.21875 C 196.617188 -359.21875 194.890625 -360.941406 194.890625 -364.390625 C 194.890625 -367.847656 196.617188 -369.578125 200.078125 -369.578125 C 203.535156 -369.578125 205.265625 -367.847656 205.265625 -364.390625 C 205.265625 -360.941406 203.535156 -359.21875 200.078125 -359.21875 Z M 200.078125 -359.21875 "/></g></g></g><path stroke-linecap="butt" transform="matrix(0.296007, 0.688389, -0.688389, 0.296007, 38.033905, 304.379171)" fill="none" stroke-linejoin="miter" d="M 0.0013411 2.001852 L 404.575491 2.000481 " stroke="#000000" stroke-width="4" stroke-opacity="1" stroke-miterlimit="4"/><path stroke-linecap="round" transform="matrix(0.296007, 0.688389, -0.688389, 0.296007, 38.033905, 304.379171)" fill="none" stroke-linejoin="round" d="M 396.572743 -3.999893 L 404.575491 2.000481 L 396.570587 8.00071 " stroke="#000000" stroke-width="4" stroke-opacity="1" stroke-miterlimit="4"/><path stroke-linecap="butt" transform="matrix(0.312744, -0.680948, 0.680948, 0.312744, 197.382055, 510.433722)" fill="none" stroke-linejoin="miter" d="M -0.000235512 1.997518 L 183.401904 1.999656 " stroke="#000000" stroke-width="4" stroke-opacity="1" stroke-miterlimit="4"/><path stroke-linecap="round" transform="matrix(0.312744, -0.680948, 0.680948, 0.312744, 197.382055, 510.433722)" fill="none" stroke-linejoin="round" d="M 175.403836 -3.998728 L 183.401904 1.999656 L 175.402926 8.002416 " stroke="#000000" stroke-width="4" stroke-opacity="1" stroke-miterlimit="4"/><path stroke-linecap="butt" transform="matrix(0.300426, 0.686472, -0.686472, 0.300426, 336.456225, 382.591938)" fill="none" stroke-linejoin="miter" d="M -0.00236168 2.000787 L 183.403629 1.998512 " stroke="#000000" stroke-width="4" stroke-opacity="1" stroke-miterlimit="4"/><path stroke-linecap="round" transform="matrix(0.300426, 0.686472, -0.686472, 0.300426, 336.456225, 382.591938)" fill="none" stroke-linejoin="round" d="M 175.404988 -4.000055 L 183.403629 1.998512 L 175.405086 8.000892 " stroke="#000000" stroke-width="4" stroke-opacity="1" stroke-miterlimit="4"/><path stroke-linecap="butt" transform="matrix(0.289655, -0.691086, 0.691086, 0.289655, 440.738461, 584.267809)" fill="none" stroke-linejoin="miter" d="M -0.00042335 2.000845 L 402.988042 1.999278 " stroke="#000000" stroke-width="4" stroke-opacity="1" stroke-miterlimit="4"/><path stroke-linecap="round" transform="matrix(0.289655, -0.691086, 0.691086, 0.289655, 440.738461, 584.267809)" fill="none" stroke-linejoin="round" d="M 394.984756 -4.000921 L 402.988042 1.999278 L 394.983861 7.999368 " stroke="#000000" stroke-width="4" stroke-opacity="1" stroke-miterlimit="4"/></svg>