<svg xmlns="http://www.w3.org/2000/svg" xmlns:xlink="http://www.w3.org/1999/xlink" width="794" zoomAndPan="magnify" viewBox="0 0 594.95996 842.24997" height="1123" preserveAspectRatio="xMidYMid meet" version="1.0"><defs><clipPath id="46c8041343"><path d="M 32 221.554688 L 563 221.554688 L 563 619.449219 L 32 619.449219 Z M 32 221.554688 " clip-rule="nonzero"/></clipPath></defs><path fill="#ffffff" d="M 402.441406 613.152344 C 374.378906 613.152344 349.820312 595.179688 341.332031 568.429688 L 299.050781 435.246094 L 252.960938 569.808594 C 244.074219 595.730469 219.703125 613.152344 192.304688 613.152344 C 164.550781 613.152344 140.074219 595.433594 131.398438 569.066406 L 41.574219 296.023438 C 36.304688 280.015625 38.949219 263.003906 48.828125 249.351562 C 58.703125 235.699219 74.03125 227.871094 90.882812 227.871094 L 97.523438 227.871094 C 120.132812 227.871094 139.988281 242.328125 146.929688 263.851562 L 195.152344 413.386719 L 241.808594 271.097656 C 250.289062 245.242188 274.265625 227.871094 301.46875 227.871094 C 328.910156 227.871094 352.945312 245.4375 361.285156 271.585938 L 405.601562 410.570312 L 452.761719 263.894531 C 459.691406 242.347656 479.550781 227.871094 502.179688 227.871094 L 504.101562 227.871094 C 520.90625 227.871094 536.214844 235.667969 546.09375 249.269531 C 555.972656 262.871094 558.660156 279.839844 553.472656 295.832031 L 464.832031 568.828125 C 456.222656 595.339844 431.714844 613.148438 403.851562 613.148438 L 402.441406 613.148438 Z M 402.441406 613.152344 " fill-opacity="1" fill-rule="nonzero"/><g clip-path="url(#46c8041343)"><path fill="#000000" d="M 504.101562 227.871094 C 520.90625 227.871094 536.214844 235.667969 546.09375 249.269531 C 555.972656 262.871094 558.664062 279.839844 553.472656 295.832031 L 464.832031 568.828125 C 456.222656 595.339844 431.714844 613.148438 403.851562 613.148438 L 402.441406 613.148438 C 374.378906 613.148438 349.820312 595.175781 341.332031 568.429688 L 299.050781 435.246094 L 252.960938 569.804688 C 244.074219 595.730469 219.703125 613.148438 192.304688 613.148438 C 164.550781 613.148438 140.074219 595.433594 131.398438 569.066406 L 41.574219 296.023438 C 36.304688 280.015625 38.949219 263.003906 48.828125 249.351562 C 58.703125 235.699219 74.03125 227.871094 90.882812 227.871094 L 97.523438 227.871094 C 120.132812 227.871094 139.988281 242.328125 146.929688 263.851562 L 195.152344 413.386719 L 241.808594 271.097656 C 250.289062 245.242188 274.265625 227.871094 301.46875 227.871094 C 328.910156 227.871094 352.945312 245.4375 361.285156 271.585938 L 405.601562 410.570312 L 452.761719 263.894531 C 459.691406 242.347656 479.550781 227.871094 502.179688 227.871094 L 504.101562 227.871094 M 504.101562 221.554688 L 502.179688 221.554688 C 476.796875 221.554688 454.523438 237.792969 446.75 261.960938 L 405.625 389.859375 L 367.304688 269.667969 C 358.121094 240.886719 331.664062 221.554688 301.46875 221.554688 C 271.527344 221.554688 245.140625 240.671875 235.808594 269.128906 L 195.203125 392.964844 L 152.941406 261.910156 C 145.152344 237.773438 122.882812 221.554688 97.523438 221.554688 L 90.882812 221.554688 C 71.984375 221.554688 54.789062 230.335938 43.710938 245.648438 C 32.628906 260.964844 29.664062 280.042969 35.578125 297.996094 L 125.402344 571.039062 C 134.929688 600.003906 161.816406 619.46875 192.304688 619.46875 C 222.398438 619.46875 249.175781 600.332031 258.933594 571.855469 L 298.820312 455.398438 L 335.3125 570.339844 C 344.636719 599.722656 371.613281 619.46875 402.441406 619.46875 L 403.847656 619.46875 C 434.460938 619.46875 461.378906 599.902344 470.835938 570.78125 L 559.480469 297.78125 C 565.300781 279.84375 562.285156 260.8125 551.203125 245.554688 C 540.121094 230.300781 522.953125 221.554688 504.101562 221.554688 Z M 504.101562 221.554688 " fill-opacity="1" fill-rule="nonzero"/></g><path fill="#58595b" d="M 427.203125 524.414062 L 424.199219 523.4375 L 428.101562 511.421875 L 431.105469 512.398438 Z M 435.003906 500.382812 L 432.003906 499.40625 L 435.902344 487.390625 L 438.90625 488.367188 Z M 442.808594 476.351562 L 439.804688 475.375 L 443.707031 463.359375 L 446.710938 464.335938 Z M 450.609375 452.320312 L 447.609375 451.347656 L 451.507812 439.332031 L 454.511719 440.304688 Z M 458.414062 428.289062 L 455.410156 427.3125 L 459.3125 415.296875 L 462.316406 416.273438 Z M 466.21875 404.257812 L 463.214844 403.285156 L 467.113281 391.269531 L 470.117188 392.242188 Z M 474.019531 380.226562 L 471.015625 379.253906 L 474.917969 367.238281 L 477.921875 368.214844 Z M 481.824219 356.195312 L 478.820312 355.222656 L 482.71875 343.207031 L 485.722656 344.183594 Z M 489.625 332.167969 L 486.621094 331.191406 L 490.523438 319.175781 L 493.527344 320.152344 Z M 497.429688 308.136719 L 494.425781 307.160156 L 498.324219 295.144531 L 501.328125 296.121094 Z M 505.230469 284.105469 L 502.226562 283.128906 L 506.128906 271.113281 L 509.132812 272.089844 Z M 505.230469 284.105469 " fill-opacity="1" fill-rule="nonzero"/><path fill="#58595b" d="M 187.1875 565.117188 L 183.238281 553.117188 L 186.238281 552.128906 L 190.183594 564.128906 Z M 179.289062 541.113281 L 175.34375 529.113281 L 178.339844 528.128906 L 182.289062 540.128906 Z M 171.394531 517.113281 L 167.445312 505.113281 L 170.445312 504.128906 L 174.394531 516.128906 Z M 163.5 493.113281 L 159.550781 481.113281 L 162.550781 480.128906 L 166.496094 492.128906 Z M 155.601562 469.113281 L 151.652344 457.113281 L 154.652344 456.125 L 158.601562 468.125 Z M 147.707031 445.113281 L 143.757812 433.113281 L 146.757812 432.125 L 150.707031 444.125 Z M 139.808594 421.113281 L 135.863281 409.113281 L 138.863281 408.125 L 142.808594 420.125 Z M 131.914062 397.113281 L 127.964844 385.113281 L 130.964844 384.125 L 134.914062 396.125 Z M 124.019531 373.113281 L 120.070312 361.113281 L 123.070312 360.125 L 127.015625 372.125 Z M 116.121094 349.109375 L 112.171875 337.109375 L 115.171875 336.125 L 119.121094 348.125 Z M 108.226562 325.109375 L 104.277344 313.109375 L 107.277344 312.125 L 111.226562 324.125 Z M 100.332031 301.109375 L 96.382812 289.109375 L 99.382812 288.121094 L 103.328125 300.121094 Z M 100.332031 301.109375 " fill-opacity="1" fill-rule="nonzero"/><path fill="#414042" d="M 124.007812 282.273438 C 124.007812 283.210938 123.964844 284.144531 123.871094 285.074219 C 123.78125 286.007812 123.644531 286.933594 123.460938 287.851562 C 123.277344 288.769531 123.050781 289.675781 122.78125 290.570312 C 122.507812 291.464844 122.191406 292.347656 121.835938 293.210938 C 121.476562 294.074219 121.078125 294.921875 120.636719 295.746094 C 120.195312 296.570312 119.714844 297.371094 119.195312 298.152344 C 118.675781 298.929688 118.117188 299.679688 117.523438 300.402344 C 116.929688 301.125 116.304688 301.820312 115.640625 302.480469 C 114.980469 303.144531 114.289062 303.769531 113.566406 304.363281 C 112.839844 304.957031 112.089844 305.515625 111.3125 306.035156 C 110.535156 306.554688 109.734375 307.035156 108.90625 307.476562 C 108.082031 307.917969 107.238281 308.316406 106.375 308.675781 C 105.507812 309.035156 104.628906 309.347656 103.734375 309.621094 C 102.839844 309.890625 101.933594 310.117188 101.015625 310.300781 C 100.097656 310.484375 99.171875 310.621094 98.242188 310.714844 C 97.308594 310.804688 96.375 310.851562 95.441406 310.851562 C 94.503906 310.851562 93.570312 310.804688 92.640625 310.714844 C 91.710938 310.621094 90.785156 310.484375 89.867188 310.300781 C 88.949219 310.117188 88.042969 309.890625 87.148438 309.621094 C 86.253906 309.347656 85.371094 309.035156 84.507812 308.675781 C 83.644531 308.316406 82.796875 307.917969 81.972656 307.476562 C 81.148438 307.035156 80.347656 306.554688 79.570312 306.035156 C 78.789062 305.515625 78.039062 304.957031 77.316406 304.363281 C 76.59375 303.769531 75.902344 303.144531 75.238281 302.480469 C 74.578125 301.820312 73.949219 301.125 73.355469 300.402344 C 72.761719 299.679688 72.207031 298.929688 71.6875 298.152344 C 71.167969 297.371094 70.6875 296.570312 70.246094 295.746094 C 69.804688 294.921875 69.402344 294.074219 69.046875 293.210938 C 68.6875 292.347656 68.375 291.464844 68.101562 290.570312 C 67.828125 289.675781 67.601562 288.769531 67.421875 287.851562 C 67.238281 286.933594 67.101562 286.007812 67.007812 285.074219 C 66.917969 284.144531 66.871094 283.210938 66.871094 282.273438 C 66.871094 281.339844 66.917969 280.40625 67.007812 279.472656 C 67.101562 278.542969 67.238281 277.617188 67.421875 276.699219 C 67.601562 275.78125 67.828125 274.875 68.101562 273.980469 C 68.375 273.085938 68.6875 272.203125 69.046875 271.339844 C 69.402344 270.476562 69.804688 269.628906 70.246094 268.804688 C 70.6875 267.980469 71.167969 267.175781 71.6875 266.398438 C 72.207031 265.621094 72.761719 264.871094 73.355469 264.148438 C 73.949219 263.421875 74.578125 262.730469 75.238281 262.070312 C 75.902344 261.40625 76.59375 260.78125 77.316406 260.1875 C 78.039062 259.59375 78.789062 259.035156 79.570312 258.515625 C 80.347656 257.996094 81.148438 257.515625 81.972656 257.074219 C 82.796875 256.632812 83.644531 256.234375 84.507812 255.875 C 85.371094 255.515625 86.253906 255.203125 87.148438 254.929688 C 88.042969 254.660156 88.949219 254.429688 89.867188 254.25 C 90.785156 254.066406 91.710938 253.929688 92.640625 253.835938 C 93.570312 253.746094 94.503906 253.699219 95.441406 253.699219 C 96.375 253.699219 97.308594 253.746094 98.242188 253.835938 C 99.171875 253.929688 100.097656 254.066406 101.015625 254.25 C 101.933594 254.429688 102.839844 254.660156 103.734375 254.929688 C 104.628906 255.203125 105.507812 255.515625 106.375 255.875 C 107.238281 256.234375 108.082031 256.632812 108.90625 257.074219 C 109.734375 257.515625 110.535156 257.996094 111.3125 258.515625 C 112.089844 259.035156 112.839844 259.59375 113.566406 260.1875 C 114.289062 260.78125 114.980469 261.40625 115.640625 262.070312 C 116.304688 262.730469 116.929688 263.421875 117.523438 264.148438 C 118.117188 264.871094 118.675781 265.621094 119.195312 266.398438 C 119.714844 267.175781 120.195312 267.980469 120.636719 268.804688 C 121.078125 269.628906 121.476562 270.476562 121.835938 271.339844 C 122.191406 272.203125 122.507812 273.085938 122.78125 273.980469 C 123.050781 274.875 123.277344 275.78125 123.460938 276.699219 C 123.644531 277.617188 123.78125 278.542969 123.871094 279.472656 C 123.964844 280.40625 124.007812 281.339844 124.007812 282.273438 Z M 124.007812 282.273438 " fill-opacity="1" fill-rule="nonzero"/><path fill="#fcfcfc" d="M 98.75 262.710938 L 95.078125 262.710938 C 94.664062 262.710938 94.269531 262.894531 93.996094 263.210938 L 83.195312 275.847656 C 82.71875 276.414062 82.746094 277.25 83.273438 277.777344 L 85.328125 279.832031 C 85.882812 280.382812 86.777344 280.382812 87.332031 279.835938 L 93.65625 273.585938 L 93.65625 300.96875 C 93.65625 301.75 94.296875 302.390625 95.078125 302.390625 L 98.746094 302.390625 C 99.53125 302.390625 100.167969 301.75 100.167969 300.96875 L 100.167969 264.132812 C 100.167969 263.351562 99.53125 262.710938 98.75 262.710938 Z M 98.75 262.710938 " fill-opacity="1" fill-rule="nonzero"/><path fill="#58595b" d="M 196.101562 586.269531 L 176.8125 569.058594 L 201.359375 560.957031 Z M 196.101562 586.269531 " fill-opacity="1" fill-rule="nonzero"/><path fill="#58595b" d="M 397.765625 565.117188 L 393.816406 553.117188 L 396.816406 552.128906 L 400.761719 564.128906 Z M 389.867188 541.113281 L 385.921875 529.113281 L 388.917969 528.128906 L 392.867188 540.128906 Z M 381.972656 517.113281 L 378.023438 505.113281 L 381.023438 504.128906 L 384.972656 516.128906 Z M 374.078125 493.113281 L 370.128906 481.113281 L 373.128906 480.128906 L 377.078125 492.128906 Z M 366.179688 469.113281 L 362.234375 457.113281 L 365.230469 456.125 L 369.179688 468.125 Z M 358.285156 445.113281 L 354.335938 433.113281 L 357.335938 432.125 L 361.285156 444.125 Z M 350.390625 421.113281 L 346.441406 409.113281 L 349.441406 408.125 L 353.386719 420.125 Z M 342.492188 397.113281 L 338.542969 385.113281 L 341.542969 384.125 L 345.492188 396.125 Z M 334.597656 373.113281 L 330.648438 361.113281 L 333.648438 360.125 L 337.597656 372.125 Z M 326.699219 349.109375 L 322.753906 337.109375 L 325.75 336.125 L 329.699219 348.125 Z M 318.804688 325.109375 L 314.855469 313.109375 L 317.855469 312.125 L 321.804688 324.125 Z M 310.910156 301.109375 L 306.960938 289.109375 L 309.960938 288.121094 L 313.90625 300.121094 Z M 310.910156 301.109375 " fill-opacity="1" fill-rule="nonzero"/><path fill="#58595b" d="M 406.679688 586.269531 L 387.390625 569.058594 L 411.9375 560.957031 Z M 406.679688 586.269531 " fill-opacity="1" fill-rule="nonzero"/><path fill="#58595b" d="M 518.761719 278.234375 L 493.792969 271.542969 L 512.070312 253.261719 Z M 518.761719 278.234375 " fill-opacity="1" fill-rule="nonzero"/><path fill="#58595b" d="M 220.421875 517.363281 L 217.417969 516.386719 L 221.320312 504.371094 L 224.324219 505.347656 Z M 228.226562 493.332031 L 225.222656 492.355469 L 229.125 480.339844 L 232.125 481.316406 Z M 236.027344 469.300781 L 233.023438 468.324219 L 236.925781 456.308594 L 239.929688 457.285156 Z M 243.832031 445.269531 L 240.828125 444.292969 L 244.730469 432.277344 L 247.730469 433.253906 Z M 251.632812 421.238281 L 248.628906 420.261719 L 252.53125 408.246094 L 255.535156 409.222656 Z M 259.4375 397.207031 L 256.433594 396.230469 L 260.335938 384.214844 L 263.339844 385.191406 Z M 267.238281 373.175781 L 264.234375 372.199219 L 268.136719 360.183594 L 271.140625 361.160156 Z M 275.042969 349.144531 L 272.039062 348.167969 L 275.941406 336.15625 L 278.945312 337.128906 Z M 275.042969 349.144531 " fill-opacity="1" fill-rule="nonzero"/><path fill="#58595b" d="M 288.980469 340.894531 L 264.371094 332.992188 L 283.515625 315.625 Z M 288.980469 340.894531 " fill-opacity="1" fill-rule="nonzero"/><path fill="#414042" d="M 452.554688 523.925781 C 452.554688 524.863281 452.507812 525.796875 452.417969 526.726562 C 452.324219 527.660156 452.1875 528.582031 452.003906 529.5 C 451.824219 530.417969 451.59375 531.324219 451.324219 532.222656 C 451.050781 533.117188 450.738281 533.996094 450.378906 534.859375 C 450.019531 535.726562 449.621094 536.570312 449.179688 537.394531 C 448.738281 538.222656 448.257812 539.023438 447.738281 539.800781 C 447.21875 540.578125 446.664062 541.332031 446.070312 542.054688 C 445.476562 542.777344 444.847656 543.46875 444.1875 544.132812 C 443.523438 544.792969 442.832031 545.421875 442.109375 546.015625 C 441.386719 546.609375 440.636719 547.164062 439.855469 547.6875 C 439.078125 548.207031 438.277344 548.6875 437.453125 549.128906 C 436.625 549.570312 435.78125 549.96875 434.917969 550.328125 C 434.054688 550.683594 433.171875 551 432.277344 551.269531 C 431.382812 551.542969 430.476562 551.769531 429.558594 551.953125 C 428.640625 552.136719 427.714844 552.273438 426.785156 552.363281 C 425.855469 552.457031 424.921875 552.5 423.984375 552.5 C 423.050781 552.5 422.117188 552.457031 421.183594 552.363281 C 420.253906 552.273438 419.328125 552.136719 418.410156 551.953125 C 417.492188 551.769531 416.585938 551.542969 415.691406 551.269531 C 414.796875 551 413.917969 550.683594 413.050781 550.328125 C 412.1875 549.96875 411.34375 549.570312 410.515625 549.128906 C 409.691406 548.6875 408.890625 548.207031 408.113281 547.6875 C 407.335938 547.164062 406.582031 546.609375 405.859375 546.015625 C 405.136719 545.421875 404.445312 544.792969 403.785156 544.132812 C 403.121094 543.46875 402.492188 542.777344 401.902344 542.054688 C 401.308594 541.332031 400.75 540.578125 400.230469 539.800781 C 399.710938 539.023438 399.230469 538.222656 398.789062 537.394531 C 398.347656 536.570312 397.949219 535.726562 397.589844 534.859375 C 397.230469 533.996094 396.917969 533.117188 396.644531 532.222656 C 396.375 531.324219 396.148438 530.417969 395.964844 529.5 C 395.78125 528.582031 395.644531 527.660156 395.554688 526.726562 C 395.460938 525.796875 395.414062 524.863281 395.414062 523.925781 C 395.414062 522.988281 395.460938 522.054688 395.554688 521.125 C 395.644531 520.195312 395.78125 519.269531 395.964844 518.351562 C 396.148438 517.433594 396.375 516.527344 396.644531 515.632812 C 396.917969 514.734375 397.230469 513.855469 397.589844 512.992188 C 397.949219 512.125 398.347656 511.28125 398.789062 510.457031 C 399.230469 509.628906 399.710938 508.828125 400.230469 508.050781 C 400.75 507.273438 401.308594 506.519531 401.902344 505.796875 C 402.496094 505.074219 403.121094 504.382812 403.785156 503.71875 C 404.445312 503.058594 405.136719 502.429688 405.859375 501.835938 C 406.585938 501.242188 407.335938 500.6875 408.113281 500.167969 C 408.890625 499.644531 409.691406 499.164062 410.515625 498.726562 C 411.34375 498.285156 412.1875 497.882812 413.050781 497.527344 C 413.917969 497.167969 414.796875 496.851562 415.691406 496.582031 C 416.585938 496.308594 417.492188 496.082031 418.410156 495.898438 C 419.328125 495.71875 420.253906 495.578125 421.183594 495.488281 C 422.117188 495.398438 423.050781 495.351562 423.984375 495.351562 C 424.921875 495.351562 425.855469 495.398438 426.785156 495.488281 C 427.714844 495.578125 428.640625 495.71875 429.558594 495.898438 C 430.476562 496.082031 431.382812 496.308594 432.277344 496.582031 C 433.171875 496.851562 434.054688 497.167969 434.917969 497.527344 C 435.78125 497.882812 436.625 498.285156 437.453125 498.726562 C 438.277344 499.164062 439.078125 499.648438 439.855469 500.167969 C 440.636719 500.6875 441.386719 501.242188 442.109375 501.835938 C 442.832031 502.429688 443.523438 503.058594 444.1875 503.71875 C 444.847656 504.382812 445.476562 505.074219 446.070312 505.796875 C 446.664062 506.519531 447.21875 507.273438 447.738281 508.050781 C 448.257812 508.828125 448.738281 509.628906 449.179688 510.457031 C 449.621094 511.28125 450.019531 512.125 450.378906 512.992188 C 450.738281 513.855469 451.050781 514.734375 451.324219 515.632812 C 451.59375 516.527344 451.824219 517.433594 452.003906 518.351562 C 452.1875 519.269531 452.324219 520.195312 452.417969 521.125 C 452.507812 522.054688 452.554688 522.988281 452.554688 523.925781 Z M 452.554688 523.925781 " fill-opacity="1" fill-rule="nonzero"/><path fill="#414042" d="M 452.554688 523.925781 C 452.554688 524.863281 452.507812 525.796875 452.417969 526.726562 C 452.324219 527.660156 452.1875 528.582031 452.003906 529.5 C 451.824219 530.417969 451.59375 531.324219 451.324219 532.222656 C 451.050781 533.117188 450.738281 533.996094 450.378906 534.859375 C 450.019531 535.726562 449.621094 536.570312 449.179688 537.394531 C 448.738281 538.222656 448.257812 539.023438 447.738281 539.800781 C 447.21875 540.578125 446.664062 541.332031 446.070312 542.054688 C 445.476562 542.777344 444.847656 543.46875 444.1875 544.132812 C 443.523438 544.792969 442.832031 545.421875 442.109375 546.015625 C 441.386719 546.609375 440.636719 547.164062 439.855469 547.6875 C 439.078125 548.207031 438.277344 548.6875 437.453125 549.128906 C 436.625 549.570312 435.78125 549.96875 434.917969 550.328125 C 434.054688 550.683594 433.171875 551 432.277344 551.269531 C 431.382812 551.542969 430.476562 551.769531 429.558594 551.953125 C 428.640625 552.136719 427.714844 552.273438 426.785156 552.363281 C 425.855469 552.457031 424.921875 552.5 423.984375 552.5 C 423.050781 552.5 422.117188 552.457031 421.183594 552.363281 C 420.253906 552.273438 419.328125 552.136719 418.410156 551.953125 C 417.492188 551.769531 416.585938 551.542969 415.691406 551.269531 C 414.796875 551 413.917969 550.683594 413.050781 550.328125 C 412.1875 549.96875 411.34375 549.570312 410.515625 549.128906 C 409.691406 548.6875 408.890625 548.207031 408.113281 547.6875 C 407.335938 547.164062 406.582031 546.609375 405.859375 546.015625 C 405.136719 545.421875 404.445312 544.792969 403.785156 544.132812 C 403.121094 543.46875 402.492188 542.777344 401.902344 542.054688 C 401.308594 541.332031 400.75 540.578125 400.230469 539.800781 C 399.710938 539.023438 399.230469 538.222656 398.789062 537.394531 C 398.347656 536.570312 397.949219 535.726562 397.589844 534.859375 C 397.230469 533.996094 396.917969 533.117188 396.644531 532.222656 C 396.375 531.324219 396.148438 530.417969 395.964844 529.5 C 395.78125 528.582031 395.644531 527.660156 395.554688 526.726562 C 395.460938 525.796875 395.414062 524.863281 395.414062 523.925781 C 395.414062 522.988281 395.460938 522.054688 395.554688 521.125 C 395.644531 520.195312 395.78125 519.269531 395.964844 518.351562 C 396.148438 517.433594 396.375 516.527344 396.644531 515.632812 C 396.917969 514.734375 397.230469 513.855469 397.589844 512.992188 C 397.949219 512.125 398.347656 511.28125 398.789062 510.457031 C 399.230469 509.628906 399.710938 508.828125 400.230469 508.050781 C 400.75 507.273438 401.308594 506.519531 401.902344 505.796875 C 402.496094 505.074219 403.121094 504.382812 403.785156 503.71875 C 404.445312 503.058594 405.136719 502.429688 405.859375 501.835938 C 406.585938 501.242188 407.335938 500.6875 408.113281 500.167969 C 408.890625 499.644531 409.691406 499.164062 410.515625 498.726562 C 411.34375 498.285156 412.1875 497.882812 413.050781 497.527344 C 413.917969 497.167969 414.796875 496.851562 415.691406 496.582031 C 416.585938 496.308594 417.492188 496.082031 418.410156 495.898438 C 419.328125 495.71875 420.253906 495.578125 421.183594 495.488281 C 422.117188 495.398438 423.050781 495.351562 423.984375 495.351562 C 424.921875 495.351562 425.855469 495.398438 426.785156 495.488281 C 427.714844 495.578125 428.640625 495.71875 429.558594 495.898438 C 430.476562 496.082031 431.382812 496.308594 432.277344 496.582031 C 433.171875 496.851562 434.054688 497.167969 434.917969 497.527344 C 435.78125 497.882812 436.625 498.285156 437.453125 498.726562 C 438.277344 499.164062 439.078125 499.648438 439.855469 500.167969 C 440.636719 500.6875 441.386719 501.242188 442.109375 501.835938 C 442.832031 502.429688 443.523438 503.058594 444.1875 503.71875 C 444.847656 504.382812 445.476562 505.074219 446.070312 505.796875 C 446.664062 506.519531 447.21875 507.273438 447.738281 508.050781 C 448.257812 508.828125 448.738281 509.628906 449.179688 510.457031 C 449.621094 511.28125 450.019531 512.125 450.378906 512.992188 C 450.738281 513.855469 451.050781 514.734375 451.324219 515.632812 C 451.59375 516.527344 451.824219 517.433594 452.003906 518.351562 C 452.1875 519.269531 452.324219 520.195312 452.417969 521.125 C 452.507812 522.054688 452.554688 522.988281 452.554688 523.925781 Z M 452.554688 523.925781 " fill-opacity="1" fill-rule="nonzero"/><path fill="#fcfcfc" d="M 435.957031 529.316406 L 432.675781 529.316406 L 432.675781 505.785156 C 432.675781 505 432.039062 504.363281 431.253906 504.363281 L 427.585938 504.363281 C 427.136719 504.363281 426.714844 504.578125 426.441406 504.941406 L 407.976562 529.890625 C 407.800781 530.136719 407.699219 530.433594 407.699219 530.738281 L 407.699219 534.410156 C 407.699219 535.195312 408.335938 535.832031 409.121094 535.832031 L 426.164062 535.832031 L 426.164062 542.621094 C 426.164062 543.402344 426.804688 544.042969 427.585938 544.042969 L 431.253906 544.042969 C 432.039062 544.042969 432.675781 543.402344 432.675781 542.621094 L 432.675781 535.832031 L 435.957031 535.832031 C 436.738281 535.832031 437.375 535.195312 437.375 534.410156 L 437.375 530.738281 C 437.375 529.949219 436.738281 529.316406 435.957031 529.316406 Z M 415.863281 529.316406 L 426.164062 515.734375 L 426.164062 529.316406 Z M 415.863281 529.316406 " fill-opacity="1" fill-rule="nonzero"/><path fill="#414042" d="M 242.929688 523.925781 C 242.929688 524.863281 242.886719 525.796875 242.792969 526.726562 C 242.703125 527.660156 242.566406 528.582031 242.382812 529.5 C 242.199219 530.417969 241.972656 531.324219 241.699219 532.222656 C 241.429688 533.117188 241.113281 533.996094 240.757812 534.859375 C 240.398438 535.726562 240 536.570312 239.558594 537.394531 C 239.117188 538.222656 238.636719 539.023438 238.117188 539.800781 C 237.597656 540.578125 237.039062 541.332031 236.445312 542.054688 C 235.851562 542.777344 235.226562 543.46875 234.5625 544.132812 C 233.902344 544.792969 233.210938 545.421875 232.484375 546.015625 C 231.761719 546.609375 231.011719 547.164062 230.234375 547.6875 C 229.457031 548.207031 228.65625 548.6875 227.828125 549.128906 C 227.003906 549.570312 226.160156 549.96875 225.296875 550.328125 C 224.429688 550.683594 223.550781 551 222.65625 551.269531 C 221.761719 551.542969 220.851562 551.769531 219.9375 551.953125 C 219.019531 552.136719 218.09375 552.273438 217.164062 552.363281 C 216.230469 552.457031 215.296875 552.5 214.363281 552.5 C 213.425781 552.5 212.492188 552.457031 211.5625 552.363281 C 210.628906 552.273438 209.707031 552.136719 208.789062 551.953125 C 207.871094 551.769531 206.964844 551.542969 206.070312 551.269531 C 205.171875 551 204.292969 550.683594 203.429688 550.328125 C 202.566406 549.96875 201.71875 549.570312 200.894531 549.128906 C 200.070312 548.6875 199.269531 548.207031 198.488281 547.6875 C 197.710938 547.164062 196.960938 546.609375 196.238281 546.015625 C 195.515625 545.421875 194.824219 544.792969 194.160156 544.132812 C 193.5 543.46875 192.871094 542.777344 192.277344 542.054688 C 191.683594 541.332031 191.128906 540.578125 190.609375 539.800781 C 190.089844 539.023438 189.609375 538.222656 189.167969 537.394531 C 188.726562 536.570312 188.324219 535.726562 187.96875 534.859375 C 187.609375 533.996094 187.292969 533.117188 187.023438 532.222656 C 186.75 531.324219 186.523438 530.417969 186.34375 529.5 C 186.160156 528.582031 186.023438 527.660156 185.929688 526.726562 C 185.839844 525.796875 185.792969 524.863281 185.792969 523.925781 C 185.792969 522.988281 185.839844 522.054688 185.929688 521.125 C 186.023438 520.195312 186.160156 519.269531 186.34375 518.351562 C 186.523438 517.433594 186.75 516.527344 187.023438 515.632812 C 187.292969 514.734375 187.609375 513.855469 187.96875 512.992188 C 188.324219 512.125 188.726562 511.28125 189.167969 510.457031 C 189.609375 509.628906 190.089844 508.828125 190.609375 508.050781 C 191.128906 507.273438 191.683594 506.519531 192.277344 505.796875 C 192.871094 505.074219 193.5 504.382812 194.160156 503.71875 C 194.824219 503.058594 195.515625 502.429688 196.238281 501.835938 C 196.960938 501.242188 197.710938 500.6875 198.488281 500.167969 C 199.269531 499.644531 200.070312 499.164062 200.894531 498.726562 C 201.71875 498.285156 202.566406 497.882812 203.429688 497.527344 C 204.292969 497.167969 205.171875 496.851562 206.070312 496.582031 C 206.964844 496.308594 207.871094 496.082031 208.789062 495.898438 C 209.707031 495.71875 210.628906 495.578125 211.5625 495.488281 C 212.492188 495.398438 213.425781 495.351562 214.363281 495.351562 C 215.296875 495.351562 216.230469 495.398438 217.164062 495.488281 C 218.09375 495.578125 219.019531 495.71875 219.9375 495.898438 C 220.851562 496.082031 221.761719 496.308594 222.65625 496.582031 C 223.550781 496.851562 224.429688 497.167969 225.296875 497.527344 C 226.160156 497.882812 227.003906 498.285156 227.828125 498.726562 C 228.65625 499.164062 229.457031 499.648438 230.234375 500.167969 C 231.011719 500.6875 231.761719 501.242188 232.484375 501.835938 C 233.210938 502.429688 233.902344 503.058594 234.5625 503.71875 C 235.226562 504.382812 235.851562 505.074219 236.445312 505.796875 C 237.039062 506.519531 237.597656 507.273438 238.117188 508.050781 C 238.636719 508.828125 239.117188 509.628906 239.558594 510.457031 C 240 511.28125 240.398438 512.125 240.757812 512.992188 C 241.113281 513.855469 241.429688 514.734375 241.699219 515.632812 C 241.972656 516.527344 242.199219 517.433594 242.382812 518.351562 C 242.566406 519.269531 242.703125 520.195312 242.792969 521.125 C 242.886719 522.054688 242.929688 522.988281 242.929688 523.925781 Z M 242.929688 523.925781 " fill-opacity="1" fill-rule="nonzero"/><path fill="#fcfcfc" d="M 225.8125 537.523438 L 209.746094 537.523438 C 209.957031 537.136719 210.242188 536.742188 210.613281 536.335938 C 211.625 535.21875 213.242188 533.738281 215.429688 531.941406 L 215.402344 531.910156 C 215.734375 531.683594 216.101562 531.371094 216.519531 531.011719 C 219.617188 528.394531 222.089844 525.820312 223.878906 523.363281 C 225.777344 520.757812 226.742188 517.75 226.742188 514.429688 C 226.742188 511.140625 225.621094 508.46875 223.414062 506.480469 C 221.242188 504.539062 218.339844 503.554688 214.792969 503.554688 C 212.304688 503.554688 209.875 504.175781 207.566406 505.394531 C 205.285156 506.605469 203.332031 508.308594 201.765625 510.457031 C 201.328125 511.058594 201.425781 511.890625 201.992188 512.375 L 204.964844 514.914062 C 205.257812 515.167969 205.632812 515.296875 206.046875 515.246094 C 206.433594 515.199219 206.789062 514.996094 207.023438 514.679688 C 208.164062 513.144531 209.402344 511.96875 210.703125 511.1875 C 213.195312 509.671875 216.667969 509.679688 218.457031 511.292969 C 219.320312 512.082031 219.746094 513.105469 219.746094 514.429688 C 219.746094 516.648438 219.1875 518.539062 218.046875 520.21875 C 216.835938 522.003906 215.085938 523.871094 212.816406 525.800781 C 212.695312 525.902344 212.105469 526.390625 211.03125 527.265625 C 209.164062 528.800781 207.644531 530.148438 206.507812 531.265625 C 205.328125 532.425781 204.332031 533.753906 203.53125 535.214844 C 202.683594 536.769531 202.25 538.484375 202.25 540.296875 L 202.25 542.621094 C 202.25 543.402344 202.886719 544.042969 203.671875 544.042969 L 225.8125 544.042969 C 226.59375 544.042969 227.234375 543.402344 227.234375 542.621094 L 227.234375 538.945312 C 227.230469 538.164062 226.59375 537.523438 225.8125 537.523438 Z M 225.8125 537.523438 " fill-opacity="1" fill-rule="nonzero"/><path fill="#414042" d="M 330.660156 282.273438 C 330.660156 283.210938 330.613281 284.144531 330.523438 285.074219 C 330.433594 286.007812 330.292969 286.933594 330.113281 287.851562 C 329.929688 288.769531 329.703125 289.675781 329.429688 290.570312 C 329.160156 291.464844 328.84375 292.347656 328.484375 293.210938 C 328.128906 294.074219 327.730469 294.921875 327.289062 295.746094 C 326.847656 296.570312 326.367188 297.371094 325.847656 298.152344 C 325.328125 298.929688 324.769531 299.679688 324.175781 300.402344 C 323.582031 301.125 322.953125 301.820312 322.292969 302.480469 C 321.632812 303.144531 320.9375 303.769531 320.214844 304.363281 C 319.492188 304.957031 318.742188 305.515625 317.964844 306.035156 C 317.1875 306.554688 316.382812 307.035156 315.558594 307.476562 C 314.734375 307.917969 313.890625 308.316406 313.023438 308.675781 C 312.160156 309.035156 311.28125 309.347656 310.386719 309.621094 C 309.488281 309.890625 308.582031 310.117188 307.664062 310.300781 C 306.746094 310.484375 305.824219 310.621094 304.890625 310.714844 C 303.960938 310.804688 303.027344 310.851562 302.09375 310.851562 C 301.15625 310.851562 300.222656 310.804688 299.292969 310.714844 C 298.359375 310.621094 297.4375 310.484375 296.519531 310.300781 C 295.601562 310.117188 294.695312 309.890625 293.796875 309.621094 C 292.902344 309.347656 292.023438 309.035156 291.160156 308.675781 C 290.292969 308.316406 289.449219 307.917969 288.625 307.476562 C 287.800781 307.035156 286.996094 306.554688 286.21875 306.035156 C 285.441406 305.515625 284.691406 304.957031 283.96875 304.363281 C 283.246094 303.769531 282.550781 303.144531 281.890625 302.480469 C 281.230469 301.820312 280.601562 301.125 280.007812 300.402344 C 279.414062 299.679688 278.855469 298.929688 278.335938 298.152344 C 277.816406 297.371094 277.335938 296.570312 276.894531 295.746094 C 276.453125 294.921875 276.054688 294.074219 275.699219 293.210938 C 275.339844 292.347656 275.023438 291.464844 274.753906 290.570312 C 274.480469 289.675781 274.253906 288.769531 274.070312 287.851562 C 273.890625 286.933594 273.753906 286.007812 273.660156 285.074219 C 273.570312 284.144531 273.523438 283.210938 273.523438 282.273438 C 273.523438 281.339844 273.570312 280.40625 273.660156 279.472656 C 273.753906 278.542969 273.890625 277.617188 274.070312 276.699219 C 274.253906 275.78125 274.480469 274.875 274.753906 273.980469 C 275.023438 273.085938 275.339844 272.203125 275.699219 271.339844 C 276.054688 270.476562 276.453125 269.628906 276.894531 268.804688 C 277.335938 267.980469 277.816406 267.175781 278.335938 266.398438 C 278.855469 265.621094 279.414062 264.871094 280.007812 264.148438 C 280.601562 263.421875 281.230469 262.730469 281.890625 262.070312 C 282.550781 261.40625 283.246094 260.78125 283.96875 260.1875 C 284.691406 259.59375 285.441406 259.035156 286.21875 258.515625 C 286.996094 257.996094 287.800781 257.515625 288.625 257.074219 C 289.449219 256.632812 290.292969 256.234375 291.160156 255.875 C 292.023438 255.515625 292.902344 255.203125 293.796875 254.929688 C 294.695312 254.660156 295.601562 254.429688 296.519531 254.25 C 297.4375 254.066406 298.359375 253.929688 299.292969 253.835938 C 300.222656 253.746094 301.15625 253.699219 302.09375 253.699219 C 303.027344 253.699219 303.960938 253.746094 304.890625 253.835938 C 305.824219 253.929688 306.746094 254.066406 307.664062 254.25 C 308.582031 254.429688 309.488281 254.660156 310.386719 254.929688 C 311.28125 255.203125 312.160156 255.515625 313.023438 255.875 C 313.890625 256.234375 314.734375 256.632812 315.558594 257.074219 C 316.382812 257.515625 317.1875 257.996094 317.964844 258.515625 C 318.742188 259.035156 319.492188 259.59375 320.214844 260.1875 C 320.9375 260.78125 321.632812 261.40625 322.292969 262.070312 C 322.953125 262.730469 323.582031 263.421875 324.175781 264.148438 C 324.769531 264.871094 325.328125 265.621094 325.847656 266.398438 C 326.367188 267.175781 326.847656 267.980469 327.289062 268.804688 C 327.730469 269.628906 328.128906 270.476562 328.484375 271.339844 C 328.84375 272.203125 329.160156 273.085938 329.429688 273.980469 C 329.703125 274.875 329.929688 275.78125 330.113281 276.699219 C 330.292969 277.617188 330.433594 278.542969 330.523438 279.472656 C 330.613281 280.40625 330.660156 281.339844 330.660156 282.273438 Z M 330.660156 282.273438 " fill-opacity="1" fill-rule="nonzero"/><path fill="#fcfcfc" d="M 313.292969 284.050781 C 312.472656 282.886719 311.484375 281.9375 310.351562 281.210938 C 311.128906 280.566406 311.792969 279.792969 312.34375 278.894531 C 313.398438 277.1875 313.929688 275.199219 313.929688 272.988281 C 313.929688 270.875 313.441406 268.953125 312.472656 267.28125 C 311.496094 265.597656 310.117188 264.265625 308.386719 263.320312 C 306.671875 262.378906 304.71875 261.902344 302.574219 261.902344 C 299.761719 261.902344 297.246094 262.695312 295.101562 264.253906 C 292.996094 265.785156 291.347656 267.878906 290.207031 270.476562 C 289.90625 271.152344 290.179688 271.941406 290.824219 272.292969 L 293.792969 273.914062 C 294.136719 274.101562 294.539062 274.136719 294.902344 274.019531 C 295.277344 273.90625 295.582031 273.644531 295.753906 273.292969 C 296.589844 271.585938 297.585938 270.269531 298.707031 269.382812 C 299.753906 268.550781 301.019531 268.148438 302.574219 268.148438 C 303.953125 268.148438 305.039062 268.582031 305.898438 269.472656 C 306.777344 270.375 307.203125 271.523438 307.203125 272.992188 C 307.203125 274.652344 306.742188 275.953125 305.800781 276.964844 C 304.890625 277.953125 303.675781 278.429688 302.09375 278.429688 L 299.71875 278.429688 C 298.933594 278.429688 298.296875 279.066406 298.296875 279.851562 L 298.296875 283.199219 C 298.296875 283.984375 298.933594 284.617188 299.71875 284.617188 L 302.308594 284.617188 C 304.164062 284.617188 305.632812 285.191406 306.8125 286.363281 C 307.980469 287.539062 308.554688 289.011719 308.554688 290.867188 C 308.554688 292.648438 307.992188 294.066406 306.84375 295.199219 C 305.683594 296.34375 304.273438 296.898438 302.527344 296.898438 C 301.039062 296.898438 299.777344 296.476562 298.675781 295.613281 C 297.515625 294.695312 296.53125 293.402344 295.765625 291.773438 C 295.59375 291.414062 295.277344 291.144531 294.898438 291.023438 C 294.523438 290.902344 294.113281 290.949219 293.761719 291.152344 L 290.519531 293.042969 C 289.910156 293.398438 289.65625 294.152344 289.921875 294.808594 C 290.960938 297.355469 292.558594 299.417969 294.679688 300.9375 C 296.828125 302.472656 299.40625 303.253906 302.359375 303.253906 C 304.707031 303.253906 306.898438 302.726562 308.882812 301.6875 C 310.886719 300.632812 312.488281 299.144531 313.648438 297.253906 C 314.804688 295.355469 315.394531 293.203125 315.394531 290.867188 C 315.390625 288.308594 314.6875 286.011719 313.292969 284.050781 Z M 313.292969 284.050781 " fill-opacity="1" fill-rule="nonzero"/></svg>