<svg xmlns="http://www.w3.org/2000/svg" xmlns:xlink="http://www.w3.org/1999/xlink" width="800" zoomAndPan="magnify" viewBox="0 0 600 899.99999" height="1200" preserveAspectRatio="xMidYMid meet" version="1.0"><defs><g/><clipPath id="9548746490"><path d="M 47 271 L 89 271 L 89 303 L 47 303 Z M 47 271 " clip-rule="nonzero"/></clipPath><clipPath id="9fcb6f1c1a"><path d="M 87.417969 271.105469 L 94.445312 297.175781 L 54.617188 307.910156 L 47.589844 281.84375 Z M 87.417969 271.105469 " clip-rule="nonzero"/></clipPath><clipPath id="45d7b1fb01"><path d="M 87.417969 271.105469 L 94.445312 297.175781 L 54.617188 307.910156 L 47.589844 281.84375 Z M 87.417969 271.105469 " clip-rule="nonzero"/></clipPath><clipPath id="e1acee52fe"><path d="M 87.414062 271.109375 L 94.386719 296.976562 L 54.378906 307.761719 L 47.40625 281.890625 Z M 87.414062 271.109375 " clip-rule="nonzero"/></clipPath><clipPath id="b94d4b5725"><path d="M 177 531 L 217 531 L 217 564 L 177 564 Z M 177 531 " clip-rule="nonzero"/></clipPath><clipPath id="a083de1326"><path d="M 177.324219 549.304688 L 186.800781 524.023438 L 225.425781 538.5 L 215.949219 563.78125 Z M 177.324219 549.304688 " clip-rule="nonzero"/></clipPath><clipPath id="ecfe677c87"><path d="M 177.324219 549.304688 L 186.800781 524.023438 L 225.425781 538.5 L 215.949219 563.78125 Z M 177.324219 549.304688 " clip-rule="nonzero"/></clipPath><clipPath id="220e30ebad"><path d="M 177.328125 549.304688 L 186.734375 524.21875 L 225.53125 538.761719 L 216.128906 563.851562 Z M 177.328125 549.304688 " clip-rule="nonzero"/></clipPath><clipPath id="faaa51ca0a"><path d="M 300 309 L 341 309 L 341 342 L 300 342 Z M 300 309 " clip-rule="nonzero"/></clipPath><clipPath id="d295eb75d0"><path d="M 339.28125 309.328125 L 347.90625 334.914062 L 308.816406 348.089844 L 300.191406 322.503906 Z M 339.28125 309.328125 " clip-rule="nonzero"/></clipPath><clipPath id="45f3fb884e"><path d="M 339.28125 309.328125 L 347.90625 334.914062 L 308.816406 348.089844 L 300.191406 322.503906 Z M 339.28125 309.328125 " clip-rule="nonzero"/></clipPath><clipPath id="39050b56ce"><path d="M 339.273438 309.332031 L 347.832031 334.71875 L 308.566406 347.953125 L 300.007812 322.566406 Z M 339.273438 309.332031 " clip-rule="nonzero"/></clipPath><clipPath id="abe383b57e"><path d="M 420 531 L 459 531 L 459 564 L 420 564 Z M 420 531 " clip-rule="nonzero"/></clipPath><clipPath id="067fc96ae1"><path d="M 419.46875 547.957031 L 429.820312 523.019531 L 467.917969 538.839844 L 457.5625 563.777344 Z M 419.46875 547.957031 " clip-rule="nonzero"/></clipPath><clipPath id="911304aaed"><path d="M 419.46875 547.957031 L 429.820312 523.019531 L 467.917969 538.839844 L 457.5625 563.777344 Z M 419.46875 547.957031 " clip-rule="nonzero"/></clipPath><clipPath id="8a35a580f6"><path d="M 419.472656 547.960938 L 429.746094 523.214844 L 468.015625 539.105469 L 457.742188 563.851562 Z M 419.472656 547.960938 " clip-rule="nonzero"/></clipPath></defs><path stroke-linecap="butt" transform="matrix(0.515827, 0, 0, 0.515827, -15.534774, 86.857515)" fill="none" stroke-linejoin="miter" d="M 378.759664 1042.102096 C 360.744009 1042.102096 346.173971 1037.76289 335.041977 1029.084479 C 323.902411 1020.247039 314.98167 1006.494862 308.272183 987.827947 L 98.036531 393.220456 C 90.668211 371.77433 92.137331 353.682947 102.451464 338.946308 C 112.932199 324.209668 130.614651 316.841349 155.506395 316.841349 C 173.514477 316.841349 187.516556 321.013953 197.505059 329.366735 C 207.652591 337.711944 215.755471 350.979463 221.813699 369.154146 L 403.068303 906.2842 L 362.796234 906.2842 L 551.903816 370.138608 C 558.620876 351.963925 566.973658 338.537377 576.962161 329.858966 C 587.109692 321.180555 600.21061 316.841349 616.257341 316.841349 C 632.304072 316.841349 644.988487 321.180555 654.325731 329.858966 C 663.822003 338.537377 671.924882 352.289555 678.641943 371.115498 L 861.615569 906.2842 L 826.492993 906.2842 L 1010.451082 369.154146 C 1016.50931 351.630722 1024.528889 338.537377 1034.517392 329.858966 C 1044.664924 321.180555 1058.507974 316.841349 1076.023826 316.841349 C 1097.469952 316.841349 1113.191054 324.209668 1123.179557 338.946308 C 1133.334661 353.682947 1134.720481 371.77433 1127.352161 393.220456 L 914.905256 988.812409 C 908.195769 1006.820492 899.434057 1020.247039 888.627693 1029.084479 C 877.98793 1037.76289 863.660221 1042.102096 845.652139 1042.102096 C 827.477455 1042.102096 812.983145 1037.76289 802.176781 1029.084479 C 791.537019 1020.247039 782.858607 1006.494862 776.141547 987.827947 L 601.028471 488.75871 L 624.360221 488.75871 L 447.278221 988.812409 C 440.568734 1006.820492 431.973623 1020.247039 421.492889 1029.084479 C 411.178756 1037.76289 396.934347 1042.102096 378.759664 1042.102096 Z M 378.759664 1042.102096 " stroke="#1f8785" stroke-width="40.239601" stroke-opacity="1" stroke-miterlimit="4"/><g fill="#ffffff" fill-opacity="1"><g transform="translate(11.215713, 620.223061)"><g><path d="M 168.65625 4.15625 C 159.3125 4.15625 151.785156 1.90625 146.078125 -2.59375 C 140.367188 -7.09375 135.785156 -14.1875 132.328125 -23.875 L 23.875 -330.546875 C 20.0625 -341.617188 20.835938 -350.957031 26.203125 -358.5625 C 31.566406 -366.175781 40.648438 -369.984375 53.453125 -369.984375 C 62.785156 -369.984375 70.046875 -367.820312 75.234375 -363.5 C 80.429688 -359.175781 84.585938 -352.34375 87.703125 -343 L 181.109375 -65.90625 L 160.34375 -65.90625 L 257.90625 -342.484375 C 261.363281 -351.828125 265.6875 -358.742188 270.875 -363.234375 C 276.0625 -367.734375 282.804688 -369.984375 291.109375 -369.984375 C 299.410156 -369.984375 305.984375 -367.734375 310.828125 -363.234375 C 315.671875 -358.742188 319.820312 -351.65625 323.28125 -341.96875 L 417.734375 -65.90625 L 399.5625 -65.90625 L 494.53125 -343 C 497.644531 -352 501.796875 -358.742188 506.984375 -363.234375 C 512.171875 -367.734375 519.265625 -369.984375 528.265625 -369.984375 C 539.335938 -369.984375 547.46875 -366.175781 552.65625 -358.5625 C 557.84375 -350.957031 558.535156 -341.617188 554.734375 -330.546875 L 445.234375 -23.34375 C 441.773438 -14.007812 437.273438 -7.09375 431.734375 -2.59375 C 426.203125 1.90625 418.765625 4.15625 409.421875 4.15625 C 400.085938 4.15625 392.648438 1.90625 387.109375 -2.59375 C 381.578125 -7.09375 377.082031 -14.1875 373.625 -23.875 L 283.328125 -281.25 L 295.265625 -281.25 L 203.9375 -23.34375 C 200.476562 -14.007812 196.066406 -7.09375 190.703125 -2.59375 C 185.335938 1.90625 177.988281 4.15625 168.65625 4.15625 Z M 168.65625 4.15625 "/></g></g></g><g clip-path="url(#9548746490)"><g clip-path="url(#9fcb6f1c1a)"><g clip-path="url(#45d7b1fb01)"><g clip-path="url(#e1acee52fe)"><path fill="#1f8785" d="M 75.710938 301.238281 L 87.820312 274.472656 C 88.734375 272.457031 86.238281 270.632812 84.59375 272.113281 L 70.585938 284.730469 C 70.101562 285.167969 69.441406 285.347656 68.800781 285.210938 L 50.34375 281.34375 C 48.179688 280.890625 46.941406 283.722656 48.742188 285.003906 L 72.664062 302.058594 C 73.710938 302.804688 75.179688 302.410156 75.710938 301.238281 " fill-opacity="1" fill-rule="nonzero"/></g></g></g></g><path fill="#1f8785" d="M 171.644531 601.632812 L 159.855469 567.617188 L 171.195312 563.6875 L 182.984375 597.703125 M 155.925781 556.277344 L 144.136719 522.261719 L 155.476562 518.332031 L 167.265625 552.347656 M 140.207031 510.925781 L 128.417969 476.910156 L 139.757812 472.980469 L 151.546875 506.996094 M 124.488281 465.570312 L 112.699219 431.554688 L 124.039062 427.625 L 135.828125 461.640625 M 108.769531 420.21875 L 96.980469 386.203125 L 108.320312 382.273438 L 120.109375 416.289062 M 93.050781 374.863281 L 81.261719 340.851562 L 92.601562 336.921875 L 104.390625 370.933594 M 77.332031 329.511719 L 71.015625 311.292969 L 82.355469 307.363281 L 88.671875 325.582031 " fill-opacity="1" fill-rule="nonzero"/><g clip-path="url(#b94d4b5725)"><g clip-path="url(#a083de1326)"><g clip-path="url(#ecfe677c87)"><g clip-path="url(#220e30ebad)"><path fill="#1f8785" d="M 204.394531 531.636719 L 178.957031 546.332031 C 177.039062 547.441406 178.007812 550.378906 180.203125 550.132812 L 198.941406 548.035156 C 199.589844 547.964844 200.230469 548.203125 200.671875 548.6875 L 213.421875 562.582031 C 214.914062 564.214844 217.570312 562.636719 216.855469 560.542969 L 207.347656 532.742188 C 206.929688 531.527344 205.507812 530.992188 204.394531 531.636719 " fill-opacity="1" fill-rule="nonzero"/></g></g></g></g><g clip-path="url(#faaa51ca0a)"><g clip-path="url(#d295eb75d0)"><g clip-path="url(#45f3fb884e)"><g clip-path="url(#39050b56ce)"><path fill="#1f8785" d="M 329.457031 340.125 L 339.890625 312.664062 C 340.675781 310.59375 338.074219 308.929688 336.523438 310.507812 L 323.320312 323.96875 C 322.867188 324.433594 322.214844 324.652344 321.570312 324.558594 L 302.910156 321.835938 C 300.71875 321.515625 299.65625 324.417969 301.535156 325.589844 L 326.46875 341.132812 C 327.558594 341.8125 329 341.328125 329.457031 340.125 " fill-opacity="1" fill-rule="nonzero"/></g></g></g></g><g clip-path="url(#abe383b57e)"><g clip-path="url(#067fc96ae1)"><g clip-path="url(#911304aaed)"><g clip-path="url(#8a35a580f6)"><path fill="#1f8785" d="M 447.140625 531.246094 L 421.203125 545.046875 C 419.25 546.085938 420.113281 549.054688 422.320312 548.886719 L 441.117188 547.445312 C 441.769531 547.394531 442.402344 547.660156 442.824219 548.15625 L 455.078125 562.488281 C 456.515625 564.171875 459.226562 562.6875 458.585938 560.570312 L 450.054688 532.453125 C 449.679688 531.222656 448.277344 530.640625 447.140625 531.246094 " fill-opacity="1" fill-rule="nonzero"/></g></g></g></g><path fill="#1f8785" d="M 200.488281 529.457031 L 212.695312 495.59375 L 223.984375 499.660156 L 211.777344 533.527344 M 216.765625 484.304688 L 228.972656 450.4375 L 240.261719 454.507812 L 228.054688 488.371094 M 233.042969 439.148438 L 245.25 405.28125 L 256.539062 409.351562 L 244.332031 443.21875 M 249.320312 393.992188 L 261.53125 360.125 L 272.820312 364.195312 L 260.609375 398.0625 M 265.597656 348.835938 L 277.808594 314.96875 L 289.097656 319.039062 L 276.886719 352.90625 M 281.875 303.679688 L 294.085938 269.8125 L 305.375 273.882812 L 293.164062 307.75 " fill-opacity="1" fill-rule="nonzero"/><path fill="#1f8785" d="M 413.816406 601.699219 L 401.625 567.824219 L 412.917969 563.761719 L 425.105469 597.636719 M 397.5625 556.535156 L 385.375 522.660156 L 396.664062 518.597656 L 408.855469 552.472656 M 381.308594 511.371094 L 369.121094 477.496094 L 380.410156 473.433594 L 392.601562 507.308594 M 365.058594 466.207031 L 352.867188 432.332031 L 364.160156 428.269531 L 376.347656 462.140625 M 348.804688 421.039062 L 336.613281 387.167969 L 347.90625 383.105469 L 360.09375 416.976562 M 332.550781 375.875 L 323.945312 351.957031 L 335.234375 347.894531 L 343.84375 371.8125 " fill-opacity="1" fill-rule="nonzero"/><path fill="#1f8785" d="M 443.21875 529.179688 L 455.125 495.207031 L 466.449219 499.171875 L 454.542969 533.148438 M 459.089844 483.878906 L 470.996094 449.90625 L 482.320312 453.875 L 470.417969 487.847656 M 474.960938 438.582031 L 486.867188 404.605469 L 498.191406 408.574219 L 486.289062 442.546875 M 490.835938 393.28125 L 502.738281 359.304688 L 514.0625 363.273438 L 502.160156 397.25 M 506.707031 347.980469 L 518.609375 314.003906 L 529.933594 317.972656 L 518.03125 351.949219 M 522.578125 302.679688 L 534.335938 269.121094 L 545.660156 273.089844 L 533.902344 306.648438 " fill-opacity="1" fill-rule="nonzero"/></svg>