<svg xmlns="http://www.w3.org/2000/svg" xmlns:xlink="http://www.w3.org/1999/xlink" width="794" zoomAndPan="magnify" viewBox="0 0 594.95996 842.24997" height="1123" preserveAspectRatio="xMidYMid meet" version="1.0"><defs><g/></defs><g fill="#000000" fill-opacity="1"><g transform="translate(78.305627, 608.138473)"><g><path d="M 31.625 0 C 26.9375 0 24.59375 -2.34375 24.59375 -7.03125 C 24.59375 -11.71875 26.9375 -14.0625 31.625 -14.0625 C 36.3125 -14.0625 38.65625 -11.71875 38.65625 -7.03125 C 38.65625 -2.34375 36.3125 0 31.625 0 Z M 204.546875 -220.703125 C 199.859375 -220.703125 197.515625 -223.046875 197.515625 -227.734375 C 197.515625 -232.421875 199.859375 -234.765625 204.546875 -234.765625 C 209.222656 -234.765625 211.5625 -232.421875 211.5625 -227.734375 C 211.5625 -223.046875 209.222656 -220.703125 204.546875 -220.703125 Z M 234.0625 -257.265625 C 229.375 -257.265625 227.03125 -259.601562 227.03125 -264.28125 C 227.03125 -268.96875 229.375 -271.3125 234.0625 -271.3125 C 238.75 -271.3125 241.09375 -268.96875 241.09375 -264.28125 C 241.09375 -259.601562 238.75 -257.265625 234.0625 -257.265625 Z M 218.59375 -239.6875 C 213.90625 -239.6875 211.5625 -242.03125 211.5625 -246.71875 C 211.5625 -251.40625 213.90625 -253.75 218.59375 -253.75 C 223.28125 -253.75 225.625 -251.40625 225.625 -246.71875 C 225.625 -242.03125 223.28125 -239.6875 218.59375 -239.6875 Z M 158.859375 -160.96875 C 154.171875 -160.96875 151.828125 -163.304688 151.828125 -167.984375 C 151.828125 -172.671875 154.171875 -175.015625 158.859375 -175.015625 C 163.535156 -175.015625 165.875 -172.671875 165.875 -167.984375 C 165.875 -163.304688 163.535156 -160.96875 158.859375 -160.96875 Z M 189.078125 -200.328125 C 184.390625 -200.328125 182.046875 -202.671875 182.046875 -207.359375 C 182.046875 -212.035156 184.390625 -214.375 189.078125 -214.375 C 193.765625 -214.375 196.109375 -212.035156 196.109375 -207.359375 C 196.109375 -202.671875 193.765625 -200.328125 189.078125 -200.328125 Z M 174.3125 -180.640625 C 169.625 -180.640625 167.28125 -182.984375 167.28125 -187.671875 C 167.28125 -192.359375 169.625 -194.703125 174.3125 -194.703125 C 179 -194.703125 181.34375 -192.359375 181.34375 -187.671875 C 181.34375 -182.984375 179 -180.640625 174.3125 -180.640625 Z M 127.21875 -120.890625 C 122.53125 -120.890625 120.1875 -123.234375 120.1875 -127.921875 C 120.1875 -132.609375 122.53125 -134.953125 127.21875 -134.953125 C 131.90625 -134.953125 134.25 -132.609375 134.25 -127.921875 C 134.25 -123.234375 131.90625 -120.890625 127.21875 -120.890625 Z M 143.390625 -140.578125 C 138.703125 -140.578125 136.359375 -142.921875 136.359375 -147.609375 C 136.359375 -152.296875 138.703125 -154.640625 143.390625 -154.640625 C 148.078125 -154.640625 150.421875 -152.296875 150.421875 -147.609375 C 150.421875 -142.921875 148.078125 -140.578125 143.390625 -140.578125 Z M 79.421875 -59.75 C 74.734375 -59.75 72.390625 -62.09375 72.390625 -66.78125 C 72.390625 -71.457031 74.734375 -73.796875 79.421875 -73.796875 C 84.109375 -73.796875 86.453125 -71.457031 86.453125 -66.78125 C 86.453125 -62.09375 84.109375 -59.75 79.421875 -59.75 Z M 111.0625 -100.515625 C 106.375 -100.515625 104.03125 -102.859375 104.03125 -107.546875 C 104.03125 -112.234375 106.375 -114.578125 111.0625 -114.578125 C 115.738281 -114.578125 118.078125 -112.234375 118.078125 -107.546875 C 118.078125 -102.859375 115.738281 -100.515625 111.0625 -100.515625 Z M 94.890625 -80.125 C 90.203125 -80.125 87.859375 -82.46875 87.859375 -87.15625 C 87.859375 -91.84375 90.203125 -94.1875 94.890625 -94.1875 C 99.578125 -94.1875 101.921875 -91.84375 101.921875 -87.15625 C 101.921875 -82.46875 99.578125 -80.125 94.890625 -80.125 Z M 47.796875 -20.390625 C 43.109375 -20.390625 40.765625 -22.726562 40.765625 -27.40625 C 40.765625 -32.09375 43.109375 -34.4375 47.796875 -34.4375 C 52.484375 -34.4375 54.828125 -32.09375 54.828125 -27.40625 C 54.828125 -22.726562 52.484375 -20.390625 47.796875 -20.390625 Z M 63.265625 -40.0625 C 58.578125 -40.0625 56.234375 -42.40625 56.234375 -47.09375 C 56.234375 -51.78125 58.578125 -54.125 63.265625 -54.125 C 67.953125 -54.125 70.296875 -51.78125 70.296875 -47.09375 C 70.296875 -42.40625 67.953125 -40.0625 63.265625 -40.0625 Z M 406.96875 -477.96875 C 402.28125 -477.96875 399.9375 -480.3125 399.9375 -485 C 399.9375 -489.6875 402.28125 -492.03125 406.96875 -492.03125 C 411.65625 -492.03125 414 -489.6875 414 -485 C 414 -480.3125 411.65625 -477.96875 406.96875 -477.96875 Z M 421.03125 -496.9375 C 416.34375 -496.9375 414 -499.28125 414 -503.96875 C 414 -508.65625 416.34375 -511 421.03125 -511 C 425.71875 -511 428.0625 -508.65625 428.0625 -503.96875 C 428.0625 -499.28125 425.71875 -496.9375 421.03125 -496.9375 Z M 361.28125 -418.21875 C 356.59375 -418.21875 354.25 -420.5625 354.25 -425.25 C 354.25 -429.9375 356.59375 -432.28125 361.28125 -432.28125 C 365.96875 -432.28125 368.3125 -429.9375 368.3125 -425.25 C 368.3125 -420.5625 365.96875 -418.21875 361.28125 -418.21875 Z M 391.515625 -457.578125 C 386.828125 -457.578125 384.484375 -459.921875 384.484375 -464.609375 C 384.484375 -469.296875 386.828125 -471.640625 391.515625 -471.640625 C 396.191406 -471.640625 398.53125 -469.296875 398.53125 -464.609375 C 398.53125 -459.921875 396.191406 -457.578125 391.515625 -457.578125 Z M 376.75 -437.90625 C 372.0625 -437.90625 369.71875 -440.25 369.71875 -444.9375 C 369.71875 -449.613281 372.0625 -451.953125 376.75 -451.953125 C 381.4375 -451.953125 383.78125 -449.613281 383.78125 -444.9375 C 383.78125 -440.25 381.4375 -437.90625 376.75 -437.90625 Z M 329.65625 -378.15625 C 324.96875 -378.15625 322.625 -380.5 322.625 -385.1875 C 322.625 -389.875 324.96875 -392.21875 329.65625 -392.21875 C 334.34375 -392.21875 336.6875 -389.875 336.6875 -385.1875 C 336.6875 -380.5 334.34375 -378.15625 329.65625 -378.15625 Z M 345.828125 -397.84375 C 341.140625 -397.84375 338.796875 -400.179688 338.796875 -404.859375 C 338.796875 -409.546875 341.140625 -411.890625 345.828125 -411.890625 C 350.503906 -411.890625 352.84375 -409.546875 352.84375 -404.859375 C 352.84375 -400.179688 350.503906 -397.84375 345.828125 -397.84375 Z M 281.859375 -317 C 277.171875 -317 274.828125 -319.34375 274.828125 -324.03125 C 274.828125 -328.71875 277.171875 -331.0625 281.859375 -331.0625 C 286.546875 -331.0625 288.890625 -328.71875 288.890625 -324.03125 C 288.890625 -319.34375 286.546875 -317 281.859375 -317 Z M 313.484375 -357.765625 C 308.796875 -357.765625 306.453125 -360.109375 306.453125 -364.796875 C 306.453125 -369.484375 308.796875 -371.828125 313.484375 -371.828125 C 318.171875 -371.828125 320.515625 -369.484375 320.515625 -364.796875 C 320.515625 -360.109375 318.171875 -357.765625 313.484375 -357.765625 Z M 297.328125 -337.390625 C 292.640625 -337.390625 290.296875 -339.734375 290.296875 -344.421875 C 290.296875 -349.109375 292.640625 -351.453125 297.328125 -351.453125 C 302.015625 -351.453125 304.359375 -349.109375 304.359375 -344.421875 C 304.359375 -339.734375 302.015625 -337.390625 297.328125 -337.390625 Z M 250.234375 -277.640625 C 245.546875 -277.640625 243.203125 -279.984375 243.203125 -284.671875 C 243.203125 -289.359375 245.546875 -291.703125 250.234375 -291.703125 C 254.921875 -291.703125 257.265625 -289.359375 257.265625 -284.671875 C 257.265625 -279.984375 254.921875 -277.640625 250.234375 -277.640625 Z M 265.6875 -297.328125 C 261 -297.328125 258.65625 -299.671875 258.65625 -304.359375 C 258.65625 -309.035156 261 -311.375 265.6875 -311.375 C 270.375 -311.375 272.71875 -309.035156 272.71875 -304.359375 C 272.71875 -299.671875 270.375 -297.328125 265.6875 -297.328125 Z M 405.5625 0 C 400.875 0 398.53125 -2.34375 398.53125 -7.03125 C 398.53125 -11.71875 400.875 -14.0625 405.5625 -14.0625 C 410.25 -14.0625 412.59375 -11.71875 412.59375 -7.03125 C 412.59375 -2.34375 410.25 0 405.5625 0 Z M 232.65625 -220.703125 C 227.96875 -220.703125 225.625 -223.046875 225.625 -227.734375 C 225.625 -232.421875 227.96875 -234.765625 232.65625 -234.765625 C 237.34375 -234.765625 239.6875 -232.421875 239.6875 -227.734375 C 239.6875 -223.046875 237.34375 -220.703125 232.65625 -220.703125 Z M 203.140625 -257.265625 C 198.453125 -257.265625 196.109375 -259.601562 196.109375 -264.28125 C 196.109375 -268.96875 198.453125 -271.3125 203.140625 -271.3125 C 207.828125 -271.3125 210.171875 -268.96875 210.171875 -264.28125 C 210.171875 -259.601562 207.828125 -257.265625 203.140625 -257.265625 Z M 278.34375 -160.96875 C 273.65625 -160.96875 271.3125 -163.304688 271.3125 -167.984375 C 271.3125 -172.671875 273.65625 -175.015625 278.34375 -175.015625 C 283.03125 -175.015625 285.375 -172.671875 285.375 -167.984375 C 285.375 -163.304688 283.03125 -160.96875 278.34375 -160.96875 Z M 248.125 -200.328125 C 243.4375 -200.328125 241.09375 -202.671875 241.09375 -207.359375 C 241.09375 -212.035156 243.4375 -214.375 248.125 -214.375 C 252.8125 -214.375 255.15625 -212.035156 255.15625 -207.359375 C 255.15625 -202.671875 252.8125 -200.328125 248.125 -200.328125 Z M 262.875 -180.640625 C 258.195312 -180.640625 255.859375 -182.984375 255.859375 -187.671875 C 255.859375 -192.359375 258.195312 -194.703125 262.875 -194.703125 C 267.5625 -194.703125 269.90625 -192.359375 269.90625 -187.671875 C 269.90625 -182.984375 267.5625 -180.640625 262.875 -180.640625 Z M 309.96875 -120.890625 C 305.289062 -120.890625 302.953125 -123.234375 302.953125 -127.921875 C 302.953125 -132.609375 305.289062 -134.953125 309.96875 -134.953125 C 314.65625 -134.953125 317 -132.609375 317 -127.921875 C 317 -123.234375 314.65625 -120.890625 309.96875 -120.890625 Z M 293.8125 -140.578125 C 289.125 -140.578125 286.78125 -142.921875 286.78125 -147.609375 C 286.78125 -152.296875 289.125 -154.640625 293.8125 -154.640625 C 298.5 -154.640625 300.84375 -152.296875 300.84375 -147.609375 C 300.84375 -142.921875 298.5 -140.578125 293.8125 -140.578125 Z M 357.765625 -59.75 C 353.085938 -59.75 350.75 -62.09375 350.75 -66.78125 C 350.75 -71.457031 353.085938 -73.796875 357.765625 -73.796875 C 362.453125 -73.796875 364.796875 -71.457031 364.796875 -66.78125 C 364.796875 -62.09375 362.453125 -59.75 357.765625 -59.75 Z M 326.140625 -100.515625 C 321.453125 -100.515625 319.109375 -102.859375 319.109375 -107.546875 C 319.109375 -112.234375 321.453125 -114.578125 326.140625 -114.578125 C 330.828125 -114.578125 333.171875 -112.234375 333.171875 -107.546875 C 333.171875 -102.859375 330.828125 -100.515625 326.140625 -100.515625 Z M 342.3125 -80.125 C 337.625 -80.125 335.28125 -82.46875 335.28125 -87.15625 C 335.28125 -91.84375 337.625 -94.1875 342.3125 -94.1875 C 347 -94.1875 349.34375 -91.84375 349.34375 -87.15625 C 349.34375 -82.46875 347 -80.125 342.3125 -80.125 Z M 389.40625 -20.390625 C 384.71875 -20.390625 382.375 -22.726562 382.375 -27.40625 C 382.375 -32.09375 384.71875 -34.4375 389.40625 -34.4375 C 394.09375 -34.4375 396.4375 -32.09375 396.4375 -27.40625 C 396.4375 -22.726562 394.09375 -20.390625 389.40625 -20.390625 Z M 373.9375 -40.0625 C 369.25 -40.0625 366.90625 -42.40625 366.90625 -47.09375 C 366.90625 -51.78125 369.25 -54.125 373.9375 -54.125 C 378.625 -54.125 380.96875 -51.78125 380.96875 -47.09375 C 380.96875 -42.40625 378.625 -40.0625 373.9375 -40.0625 Z M 30.21875 -477.96875 C 25.539062 -477.96875 23.203125 -480.3125 23.203125 -485 C 23.203125 -489.6875 25.539062 -492.03125 30.21875 -492.03125 C 34.90625 -492.03125 37.25 -489.6875 37.25 -485 C 37.25 -480.3125 34.90625 -477.96875 30.21875 -477.96875 Z M 16.171875 -496.9375 C 11.484375 -496.9375 9.140625 -499.28125 9.140625 -503.96875 C 9.140625 -508.65625 11.484375 -511 16.171875 -511 C 20.859375 -511 23.203125 -508.65625 23.203125 -503.96875 C 23.203125 -499.28125 20.859375 -496.9375 16.171875 -496.9375 Z M 75.90625 -418.21875 C 71.226562 -418.21875 68.890625 -420.5625 68.890625 -425.25 C 68.890625 -429.9375 71.226562 -432.28125 75.90625 -432.28125 C 80.59375 -432.28125 82.9375 -429.9375 82.9375 -425.25 C 82.9375 -420.5625 80.59375 -418.21875 75.90625 -418.21875 Z M 45.6875 -457.578125 C 41 -457.578125 38.65625 -459.921875 38.65625 -464.609375 C 38.65625 -469.296875 41 -471.640625 45.6875 -471.640625 C 50.375 -471.640625 52.71875 -469.296875 52.71875 -464.609375 C 52.71875 -459.921875 50.375 -457.578125 45.6875 -457.578125 Z M 60.453125 -437.90625 C 55.765625 -437.90625 53.421875 -440.25 53.421875 -444.9375 C 53.421875 -449.613281 55.765625 -451.953125 60.453125 -451.953125 C 65.140625 -451.953125 67.484375 -449.613281 67.484375 -444.9375 C 67.484375 -440.25 65.140625 -437.90625 60.453125 -437.90625 Z M 107.546875 -378.15625 C 102.859375 -378.15625 100.515625 -380.5 100.515625 -385.1875 C 100.515625 -389.875 102.859375 -392.21875 107.546875 -392.21875 C 112.234375 -392.21875 114.578125 -389.875 114.578125 -385.1875 C 114.578125 -380.5 112.234375 -378.15625 107.546875 -378.15625 Z M 91.375 -397.84375 C 86.6875 -397.84375 84.34375 -400.179688 84.34375 -404.859375 C 84.34375 -409.546875 86.6875 -411.890625 91.375 -411.890625 C 96.0625 -411.890625 98.40625 -409.546875 98.40625 -404.859375 C 98.40625 -400.179688 96.0625 -397.84375 91.375 -397.84375 Z M 155.34375 -317 C 150.65625 -317 148.3125 -319.34375 148.3125 -324.03125 C 148.3125 -328.71875 150.65625 -331.0625 155.34375 -331.0625 C 160.03125 -331.0625 162.375 -328.71875 162.375 -324.03125 C 162.375 -319.34375 160.03125 -317 155.34375 -317 Z M 123.703125 -357.765625 C 119.023438 -357.765625 116.6875 -360.109375 116.6875 -364.796875 C 116.6875 -369.484375 119.023438 -371.828125 123.703125 -371.828125 C 128.390625 -371.828125 130.734375 -369.484375 130.734375 -364.796875 C 130.734375 -360.109375 128.390625 -357.765625 123.703125 -357.765625 Z M 139.875 -337.390625 C 135.1875 -337.390625 132.84375 -339.734375 132.84375 -344.421875 C 132.84375 -349.109375 135.1875 -351.453125 139.875 -351.453125 C 144.5625 -351.453125 146.90625 -349.109375 146.90625 -344.421875 C 146.90625 -339.734375 144.5625 -337.390625 139.875 -337.390625 Z M 186.96875 -277.640625 C 182.28125 -277.640625 179.9375 -279.984375 179.9375 -284.671875 C 179.9375 -289.359375 182.28125 -291.703125 186.96875 -291.703125 C 191.65625 -291.703125 194 -289.359375 194 -284.671875 C 194 -279.984375 191.65625 -277.640625 186.96875 -277.640625 Z M 171.5 -297.328125 C 166.8125 -297.328125 164.46875 -299.671875 164.46875 -304.359375 C 164.46875 -309.035156 166.8125 -311.375 171.5 -311.375 C 176.1875 -311.375 178.53125 -309.035156 178.53125 -304.359375 C 178.53125 -299.671875 176.1875 -297.328125 171.5 -297.328125 Z M 171.5 -297.328125 "/></g></g></g><path stroke-linecap="butt" transform="matrix(0.492019, 0.56517, -0.56517, 0.492019, 79.434683, 186.862496)" fill="none" stroke-linejoin="miter" d="M 0.00143069 2.000637 L 303.259759 1.997004 " stroke="#000000" stroke-width="4" stroke-opacity="1" stroke-miterlimit="4"/><path stroke-linecap="round" transform="matrix(0.492019, 0.56517, -0.56517, 0.492019, 79.434683, 186.862496)" fill="none" stroke-linejoin="round" d="M 295.259055 -4.00053 L 303.259759 1.997004 L 295.261778 8.00045 " stroke="#000000" stroke-width="4" stroke-opacity="1" stroke-miterlimit="4"/><path stroke-linecap="butt" transform="matrix(-0.475306, 0.579296, -0.579296, -0.475306, 518.085947, 188.795539)" fill="none" stroke-linejoin="miter" d="M 0.000118558 2.002621 L 295.817082 1.999025 " stroke="#000000" stroke-width="4" stroke-opacity="1" stroke-miterlimit="4"/><path stroke-linecap="round" transform="matrix(-0.475306, 0.579296, -0.579296, -0.475306, 518.085947, 188.795539)" fill="none" stroke-linejoin="round" d="M 287.815115 -3.997842 L 295.817082 1.999025 L 287.813711 7.99929 " stroke="#000000" stroke-width="4" stroke-opacity="1" stroke-miterlimit="4"/></svg>