<svg xmlns="http://www.w3.org/2000/svg" xmlns:xlink="http://www.w3.org/1999/xlink" width="794" zoomAndPan="magnify" viewBox="0 0 594.95996 842.24997" height="1123" preserveAspectRatio="xMidYMid meet" version="1.0"><defs><clipPath id="b02298e509"><path d="M 65 174.148438 L 530 174.148438 L 530 667.210938 L 65 667.210938 Z M 65 174.148438 " clip-rule="nonzero"/></clipPath></defs><path fill="#ffffff" d="M 453.925781 659.261719 C 434.488281 659.261719 415.9375 650.921875 403.027344 636.378906 L 297.640625 517.636719 L 192.257812 636.378906 C 179.34375 650.921875 160.792969 659.261719 141.355469 659.261719 C 114.195312 659.261719 90.402344 643.863281 79.269531 619.082031 C 68.136719 594.296875 72.417969 566.277344 90.453125 545.960938 L 206.613281 415.078125 L 100.414062 295.425781 C 82.378906 275.109375 78.09375 247.089844 89.226562 222.304688 C 100.359375 197.519531 124.152344 182.125 151.3125 182.125 C 170.757812 182.125 189.308594 190.464844 202.214844 205.007812 L 297.640625 312.519531 L 393.0625 205.003906 C 405.972656 190.464844 424.523438 182.125 443.964844 182.125 C 471.125 182.125 494.917969 197.519531 506.050781 222.304688 C 517.183594 247.089844 512.902344 275.105469 494.867188 295.425781 L 388.664062 415.078125 L 504.824219 545.957031 C 522.859375 566.273438 527.148438 594.292969 516.011719 619.078125 C 504.878906 643.863281 481.089844 659.261719 453.925781 659.261719 Z M 453.925781 659.261719 " fill-opacity="1" fill-rule="nonzero"/><g clip-path="url(#b02298e509)"><path fill="#000000" d="M 443.964844 182.125 C 471.125 182.125 494.917969 197.519531 506.050781 222.304688 C 517.183594 247.089844 512.902344 275.105469 494.867188 295.425781 L 388.664062 415.078125 L 504.824219 545.957031 C 522.859375 566.273438 527.148438 594.292969 516.011719 619.078125 C 504.878906 643.863281 481.089844 659.261719 453.925781 659.261719 C 434.488281 659.261719 415.9375 650.921875 403.03125 636.378906 L 297.640625 517.636719 L 192.257812 636.378906 C 179.34375 650.921875 160.796875 659.261719 141.355469 659.261719 C 114.195312 659.261719 90.402344 643.863281 79.269531 619.082031 C 68.136719 594.296875 72.417969 566.277344 90.453125 545.960938 L 206.613281 415.078125 L 100.414062 295.425781 C 82.378906 275.109375 78.09375 247.089844 89.226562 222.304688 C 100.359375 197.519531 124.152344 182.125 151.316406 182.125 C 170.757812 182.125 189.308594 190.464844 202.214844 205.007812 L 297.640625 312.519531 L 393.0625 205.003906 C 405.972656 190.464844 424.523438 182.125 443.964844 182.125 M 443.964844 174.300781 C 422.292969 174.300781 401.609375 183.597656 387.214844 199.808594 L 297.640625 300.738281 L 208.0625 199.8125 C 193.675781 183.601562 172.992188 174.300781 151.316406 174.300781 C 121.03125 174.300781 94.507812 191.46875 82.09375 219.101562 C 69.679688 246.730469 74.460938 277.96875 94.566406 300.621094 L 196.15625 415.078125 L 84.605469 540.765625 C 64.5 563.417969 59.722656 594.65625 72.136719 622.285156 C 84.550781 649.917969 111.074219 667.082031 141.355469 667.082031 C 163.023438 667.082031 183.707031 657.785156 198.101562 641.574219 L 297.640625 529.421875 L 397.183594 641.574219 C 411.574219 657.785156 432.257812 667.082031 453.925781 667.082031 C 484.210938 667.082031 510.734375 649.917969 523.144531 622.285156 C 535.558594 594.652344 530.777344 563.417969 510.671875 540.765625 L 399.121094 415.078125 L 500.714844 300.617188 C 520.820312 277.964844 525.597656 246.730469 513.183594 219.097656 C 500.769531 191.464844 474.246094 174.300781 443.964844 174.300781 Z M 443.964844 174.300781 " fill-opacity="1" fill-rule="nonzero"/></g><path fill="#58595b" d="M 451.316406 587.601562 L 440.863281 575.964844 L 443.773438 573.347656 L 454.226562 584.984375 Z M 430.410156 564.324219 L 419.957031 552.6875 L 422.863281 550.074219 L 433.320312 561.710938 Z M 409.503906 541.054688 L 399.050781 529.417969 L 401.957031 526.800781 L 412.410156 538.4375 Z M 388.597656 517.78125 L 378.140625 506.140625 L 381.050781 503.527344 L 391.503906 515.164062 Z M 367.6875 494.503906 L 357.234375 482.867188 L 360.144531 480.253906 L 370.597656 491.890625 Z M 346.78125 471.230469 L 336.328125 459.59375 L 339.238281 456.980469 L 349.691406 468.617188 Z M 325.875 447.957031 L 315.421875 436.320312 L 318.328125 433.707031 L 328.785156 445.34375 Z M 304.96875 424.6875 L 294.515625 413.050781 L 297.421875 410.433594 L 307.875 422.070312 Z M 284.0625 401.414062 L 273.605469 389.773438 L 276.515625 387.160156 L 286.96875 398.796875 Z M 263.152344 378.136719 L 252.699219 366.5 L 255.609375 363.886719 L 266.0625 375.523438 Z M 242.246094 354.863281 L 231.792969 343.226562 L 234.699219 340.613281 L 245.15625 352.25 Z M 221.339844 331.589844 L 210.886719 319.953125 L 213.792969 317.339844 L 224.25 328.976562 Z M 200.433594 308.316406 L 189.980469 296.679688 L 192.886719 294.066406 L 203.339844 305.703125 Z M 179.527344 285.042969 L 169.070312 273.40625 L 171.980469 270.792969 L 182.433594 282.429688 Z M 179.527344 285.042969 " fill-opacity="1" fill-rule="nonzero"/><path fill="#414042" d="M 188.539062 249.5 C 188.539062 250.65625 188.484375 251.8125 188.371094 252.96875 C 188.257812 254.121094 188.085938 255.265625 187.859375 256.402344 C 187.636719 257.539062 187.355469 258.660156 187.019531 259.769531 C 186.679688 260.878906 186.292969 261.96875 185.847656 263.039062 C 185.40625 264.113281 184.910156 265.15625 184.363281 266.179688 C 183.816406 267.203125 183.222656 268.195312 182.578125 269.160156 C 181.933594 270.121094 181.246094 271.050781 180.511719 271.949219 C 179.777344 272.84375 179 273.703125 178.179688 274.523438 C 177.359375 275.339844 176.503906 276.117188 175.609375 276.855469 C 174.710938 277.589844 173.78125 278.277344 172.820312 278.921875 C 171.855469 279.566406 170.863281 280.160156 169.839844 280.707031 C 168.820312 281.253906 167.773438 281.75 166.703125 282.191406 C 165.632812 282.636719 164.542969 283.027344 163.433594 283.363281 C 162.328125 283.699219 161.203125 283.980469 160.066406 284.207031 C 158.929688 284.433594 157.785156 284.601562 156.632812 284.714844 C 155.480469 284.828125 154.324219 284.886719 153.167969 284.886719 C 152.007812 284.886719 150.851562 284.828125 149.699219 284.714844 C 148.546875 284.601562 147.402344 284.433594 146.265625 284.207031 C 145.128906 283.980469 144.007812 283.699219 142.898438 283.363281 C 141.789062 283.027344 140.699219 282.636719 139.628906 282.191406 C 138.558594 281.75 137.511719 281.253906 136.492188 280.707031 C 135.46875 280.160156 134.476562 279.566406 133.511719 278.921875 C 132.550781 278.277344 131.621094 277.589844 130.722656 276.855469 C 129.828125 276.117188 128.972656 275.339844 128.152344 274.523438 C 127.332031 273.703125 126.554688 272.84375 125.820312 271.949219 C 125.085938 271.050781 124.398438 270.121094 123.753906 269.160156 C 123.109375 268.195312 122.515625 267.203125 121.96875 266.179688 C 121.421875 265.15625 120.925781 264.113281 120.484375 263.039062 C 120.039062 261.96875 119.652344 260.878906 119.316406 259.769531 C 118.976562 258.660156 118.695312 257.539062 118.472656 256.402344 C 118.246094 255.265625 118.074219 254.121094 117.960938 252.96875 C 117.847656 251.8125 117.792969 250.65625 117.792969 249.5 C 117.792969 248.339844 117.847656 247.183594 117.960938 246.03125 C 118.074219 244.875 118.246094 243.730469 118.472656 242.59375 C 118.695312 241.457031 118.976562 240.335938 119.316406 239.226562 C 119.652344 238.117188 120.039062 237.027344 120.484375 235.957031 C 120.925781 234.886719 121.421875 233.839844 121.96875 232.816406 C 122.515625 231.792969 123.109375 230.800781 123.753906 229.835938 C 124.398438 228.875 125.085938 227.945312 125.820312 227.046875 C 126.554688 226.152344 127.332031 225.292969 128.152344 224.476562 C 128.972656 223.65625 129.828125 222.878906 130.722656 222.144531 C 131.621094 221.40625 132.550781 220.71875 133.511719 220.074219 C 134.476562 219.429688 135.46875 218.835938 136.492188 218.289062 C 137.511719 217.742188 138.558594 217.246094 139.628906 216.804688 C 140.699219 216.359375 141.789062 215.96875 142.898438 215.632812 C 144.007812 215.296875 145.128906 215.015625 146.265625 214.789062 C 147.402344 214.5625 148.546875 214.394531 149.699219 214.28125 C 150.851562 214.167969 152.007812 214.109375 153.167969 214.109375 C 154.324219 214.109375 155.480469 214.167969 156.632812 214.28125 C 157.785156 214.394531 158.929688 214.5625 160.066406 214.789062 C 161.203125 215.015625 162.328125 215.296875 163.433594 215.632812 C 164.542969 215.96875 165.632812 216.359375 166.703125 216.804688 C 167.773438 217.246094 168.820312 217.742188 169.839844 218.289062 C 170.863281 218.835938 171.855469 219.429688 172.820312 220.074219 C 173.78125 220.71875 174.710938 221.40625 175.609375 222.144531 C 176.503906 222.878906 177.359375 223.65625 178.179688 224.476562 C 179 225.292969 179.777344 226.152344 180.511719 227.046875 C 181.246094 227.945312 181.9375 228.875 182.578125 229.835938 C 183.222656 230.800781 183.816406 231.792969 184.363281 232.816406 C 184.910156 233.839844 185.40625 234.886719 185.847656 235.957031 C 186.292969 237.027344 186.679688 238.117188 187.019531 239.226562 C 187.355469 240.335938 187.636719 241.457031 187.859375 242.59375 C 188.085938 243.730469 188.257812 244.875 188.371094 246.03125 C 188.484375 247.183594 188.539062 248.339844 188.539062 249.5 Z M 188.539062 249.5 " fill-opacity="1" fill-rule="nonzero"/><path fill="#fcfcfc" d="M 157.261719 225.269531 L 152.71875 225.269531 C 152.203125 225.269531 151.714844 225.496094 151.378906 225.890625 L 138.003906 241.539062 C 137.414062 242.238281 137.449219 243.277344 138.101562 243.929688 L 140.644531 246.472656 C 141.332031 247.15625 142.4375 247.15625 143.125 246.476562 L 150.960938 238.738281 L 150.960938 272.648438 C 150.960938 273.617188 151.75 274.410156 152.71875 274.410156 L 157.261719 274.410156 C 158.230469 274.410156 159.019531 273.617188 159.019531 272.648438 L 159.019531 227.03125 C 159.019531 226.0625 158.230469 225.269531 157.261719 225.269531 Z M 157.261719 225.269531 " fill-opacity="1" fill-rule="nonzero"/><path fill="#58595b" d="M 470.265625 606.613281 L 465.457031 574.960938 L 440.457031 594.953125 Z M 470.265625 606.613281 " fill-opacity="1" fill-rule="nonzero"/><path fill="#58595b" d="M 144.460938 587.601562 L 141.550781 584.984375 L 152.003906 573.347656 L 154.914062 575.964844 Z M 165.367188 564.324219 L 162.457031 561.710938 L 172.910156 550.074219 L 175.820312 552.691406 Z M 186.273438 541.054688 L 183.367188 538.4375 L 193.820312 526.800781 L 196.726562 529.414062 Z M 207.179688 517.78125 L 204.273438 515.164062 L 214.726562 503.527344 L 217.632812 506.144531 Z M 228.085938 494.503906 L 225.179688 491.890625 L 235.632812 480.253906 L 238.542969 482.867188 Z M 248.996094 471.230469 L 246.085938 468.617188 L 256.539062 456.980469 L 259.449219 459.59375 Z M 269.902344 447.957031 L 266.992188 445.34375 L 277.445312 433.707031 L 280.355469 436.324219 Z M 290.808594 424.6875 L 287.902344 422.070312 L 298.355469 410.433594 L 301.261719 413.050781 Z M 311.714844 401.414062 L 308.808594 398.796875 L 319.261719 387.160156 L 322.167969 389.773438 Z M 332.625 378.136719 L 329.714844 375.523438 L 340.167969 363.886719 L 343.078125 366.503906 Z M 353.53125 354.863281 L 350.621094 352.25 L 361.074219 340.613281 L 363.984375 343.226562 Z M 374.4375 331.589844 L 371.53125 328.976562 L 381.984375 317.339844 L 384.890625 319.953125 Z M 395.34375 308.316406 L 392.4375 305.703125 L 402.890625 294.066406 L 405.796875 296.683594 Z M 416.253906 285.042969 L 413.34375 282.429688 L 423.796875 270.792969 L 426.707031 273.40625 Z M 416.253906 285.042969 " fill-opacity="1" fill-rule="nonzero"/><path fill="#58595b" d="M 125.511719 606.613281 L 130.320312 574.960938 L 155.320312 594.953125 Z M 125.511719 606.613281 " fill-opacity="1" fill-rule="nonzero"/><path fill="#414042" d="M 476.5625 249.5 C 476.5625 250.65625 476.503906 251.8125 476.390625 252.96875 C 476.277344 254.121094 476.109375 255.265625 475.882812 256.402344 C 475.65625 257.539062 475.375 258.660156 475.039062 259.769531 C 474.703125 260.878906 474.3125 261.96875 473.867188 263.039062 C 473.425781 264.113281 472.929688 265.15625 472.382812 266.179688 C 471.839844 267.203125 471.242188 268.195312 470.597656 269.160156 C 469.957031 270.121094 469.265625 271.050781 468.53125 271.949219 C 467.796875 272.84375 467.019531 273.703125 466.199219 274.523438 C 465.378906 275.339844 464.523438 276.117188 463.628906 276.855469 C 462.730469 277.589844 461.804688 278.277344 460.839844 278.921875 C 459.875 279.566406 458.882812 280.160156 457.863281 280.707031 C 456.839844 281.253906 455.792969 281.75 454.722656 282.191406 C 453.652344 282.636719 452.5625 283.027344 451.453125 283.363281 C 450.347656 283.699219 449.222656 283.980469 448.085938 284.207031 C 446.953125 284.433594 445.808594 284.601562 444.652344 284.714844 C 443.5 284.828125 442.34375 284.886719 441.1875 284.886719 C 440.027344 284.886719 438.871094 284.828125 437.71875 284.714844 C 436.566406 284.601562 435.421875 284.433594 434.285156 284.207031 C 433.148438 283.980469 432.027344 283.699219 430.917969 283.363281 C 429.808594 283.027344 428.71875 282.636719 427.648438 282.191406 C 426.578125 281.75 425.53125 281.253906 424.511719 280.707031 C 423.488281 280.160156 422.496094 279.566406 421.53125 278.921875 C 420.570312 278.277344 419.640625 277.589844 418.746094 276.855469 C 417.847656 276.117188 416.992188 275.339844 416.171875 274.523438 C 415.351562 273.703125 414.578125 272.84375 413.839844 271.949219 C 413.105469 271.050781 412.417969 270.121094 411.773438 269.160156 C 411.128906 268.195312 410.535156 267.203125 409.988281 266.179688 C 409.441406 265.15625 408.949219 264.113281 408.503906 263.039062 C 408.0625 261.96875 407.671875 260.878906 407.335938 259.769531 C 407 258.660156 406.71875 257.539062 406.492188 256.402344 C 406.265625 255.265625 406.09375 254.121094 405.980469 252.96875 C 405.867188 251.8125 405.8125 250.65625 405.8125 249.5 C 405.8125 248.339844 405.867188 247.183594 405.980469 246.03125 C 406.09375 244.875 406.265625 243.730469 406.492188 242.59375 C 406.71875 241.457031 407 240.335938 407.335938 239.226562 C 407.671875 238.117188 408.0625 237.027344 408.503906 235.957031 C 408.949219 234.886719 409.441406 233.839844 409.988281 232.816406 C 410.535156 231.792969 411.128906 230.800781 411.773438 229.835938 C 412.417969 228.875 413.105469 227.945312 413.839844 227.046875 C 414.578125 226.152344 415.351562 225.292969 416.171875 224.476562 C 416.992188 223.65625 417.847656 222.878906 418.746094 222.144531 C 419.640625 221.40625 420.570312 220.71875 421.53125 220.074219 C 422.496094 219.429688 423.488281 218.835938 424.511719 218.289062 C 425.53125 217.742188 426.578125 217.246094 427.648438 216.804688 C 428.71875 216.359375 429.808594 215.96875 430.917969 215.632812 C 432.027344 215.296875 433.148438 215.015625 434.285156 214.789062 C 435.421875 214.5625 436.566406 214.394531 437.71875 214.28125 C 438.871094 214.167969 440.027344 214.109375 441.1875 214.109375 C 442.34375 214.109375 443.5 214.167969 444.652344 214.28125 C 445.804688 214.394531 446.953125 214.5625 448.085938 214.789062 C 449.222656 215.015625 450.347656 215.296875 451.453125 215.632812 C 452.5625 215.96875 453.652344 216.359375 454.722656 216.804688 C 455.792969 217.246094 456.839844 217.742188 457.863281 218.289062 C 458.882812 218.835938 459.875 219.429688 460.839844 220.074219 C 461.804688 220.71875 462.730469 221.40625 463.628906 222.144531 C 464.523438 222.878906 465.378906 223.65625 466.199219 224.476562 C 467.019531 225.292969 467.796875 226.152344 468.53125 227.046875 C 469.265625 227.945312 469.957031 228.875 470.597656 229.835938 C 471.242188 230.800781 471.839844 231.792969 472.382812 232.816406 C 472.929688 233.839844 473.425781 234.886719 473.867188 235.957031 C 474.3125 237.027344 474.703125 238.117188 475.039062 239.226562 C 475.375 240.335938 475.65625 241.457031 475.882812 242.59375 C 476.109375 243.730469 476.277344 244.875 476.390625 246.03125 C 476.503906 247.183594 476.5625 248.339844 476.5625 249.5 Z M 476.5625 249.5 " fill-opacity="1" fill-rule="nonzero"/><path fill="#fcfcfc" d="M 455.363281 266.335938 L 435.472656 266.335938 C 435.734375 265.859375 436.085938 265.367188 436.542969 264.867188 C 437.796875 263.480469 439.800781 261.648438 442.511719 259.425781 L 442.476562 259.386719 C 442.886719 259.105469 443.339844 258.714844 443.855469 258.273438 C 447.691406 255.03125 450.757812 251.84375 452.96875 248.800781 C 455.320312 245.574219 456.515625 241.847656 456.515625 237.734375 C 456.515625 233.664062 455.128906 230.355469 452.394531 227.894531 C 449.707031 225.492188 446.109375 224.269531 441.71875 224.269531 C 438.640625 224.269531 435.628906 225.035156 432.769531 226.550781 C 429.945312 228.046875 427.527344 230.160156 425.589844 232.816406 C 425.046875 233.5625 425.171875 234.59375 425.871094 235.191406 L 429.546875 238.335938 C 429.914062 238.648438 430.378906 238.8125 430.886719 238.746094 C 431.371094 238.691406 431.808594 238.441406 432.097656 238.046875 C 433.515625 236.148438 435.046875 234.691406 436.65625 233.71875 C 439.742188 231.847656 444.042969 231.855469 446.257812 233.855469 C 447.328125 234.828125 447.851562 236.09375 447.851562 237.734375 C 447.851562 240.480469 447.164062 242.828125 445.746094 244.90625 C 444.25 247.117188 442.085938 249.429688 439.273438 251.816406 C 439.121094 251.945312 438.394531 252.546875 437.0625 253.632812 C 434.75 255.535156 432.867188 257.203125 431.460938 258.585938 C 430.003906 260.023438 428.765625 261.667969 427.777344 263.476562 C 426.722656 265.40625 426.1875 267.527344 426.1875 269.769531 L 426.1875 272.648438 C 426.1875 273.617188 426.980469 274.410156 427.949219 274.410156 L 455.363281 274.410156 C 456.332031 274.410156 457.121094 273.617188 457.121094 272.648438 L 457.121094 268.097656 C 457.121094 267.128906 456.332031 266.335938 455.363281 266.335938 Z M 455.363281 266.335938 " fill-opacity="1" fill-rule="nonzero"/></svg>