<svg xmlns="http://www.w3.org/2000/svg" xmlns:xlink="http://www.w3.org/1999/xlink" width="800" zoomAndPan="magnify" viewBox="0 0 600 899.99999" height="1200" preserveAspectRatio="xMidYMid meet" version="1.0"><defs><g/><clipPath id="c026aaa9b3"><path d="M 105 245 L 139 245 L 139 279 L 105 279 Z M 105 245 " clip-rule="nonzero"/></clipPath><clipPath id="c48d5b8f39"><path d="M 136.820312 244.660156 L 153.527344 265.871094 L 121.125 291.394531 L 104.414062 270.183594 Z M 136.820312 244.660156 " clip-rule="nonzero"/></clipPath><clipPath id="3b39056268"><path d="M 136.820312 244.660156 L 153.527344 265.871094 L 121.125 291.394531 L 104.414062 270.183594 Z M 136.820312 244.660156 " clip-rule="nonzero"/></clipPath><clipPath id="3db17216f3"><path d="M 136.816406 244.664062 L 153.394531 265.710938 L 120.84375 291.351562 L 104.265625 270.304688 Z M 136.816406 244.664062 " clip-rule="nonzero"/></clipPath><clipPath id="072d839ca0"><path d="M 459 245 L 494 245 L 494 279 L 459 279 Z M 459 245 " clip-rule="nonzero"/></clipPath><clipPath id="12ecf91a9e"><path d="M 494.320312 269.242188 L 478.304688 290.980469 L 445.09375 266.515625 L 461.109375 244.777344 Z M 494.320312 269.242188 " clip-rule="nonzero"/></clipPath><clipPath id="ccdd975e0a"><path d="M 494.320312 269.242188 L 478.304688 290.980469 L 445.09375 266.515625 L 461.109375 244.777344 Z M 494.320312 269.242188 " clip-rule="nonzero"/></clipPath><clipPath id="40ed9cdf2d"><path d="M 494.316406 269.238281 L 478.425781 290.808594 L 445.0625 266.234375 L 460.953125 244.664062 Z M 494.316406 269.238281 " clip-rule="nonzero"/></clipPath></defs><path stroke-linecap="butt" transform="matrix(0.75, 0, 0, 0.75, 46.488282, -15.449276)" fill="none" stroke-linejoin="miter" d="M 101.677088 1042.104298 C 84.812504 1042.104298 70.97917 1037.604297 60.171878 1028.599088 C 49.531252 1019.427213 43.390627 1007.963671 41.750002 994.21367 C 40.114585 980.458461 44.619794 966.541794 55.260419 952.45846 L 285.635431 645.703235 L 285.635431 700.963655 L 66.312503 407.218848 C 55.671877 392.484472 51.005211 378.239679 52.312502 364.48447 C 53.625002 350.73447 59.598961 339.354261 70.244795 330.349052 C 81.046879 321.343843 94.557296 316.838635 110.76563 316.838635 C 124.031256 316.838635 135.817715 320.031343 146.135424 326.41676 C 156.614591 332.640719 167.255217 343.119886 178.062509 357.854262 L 359.072935 607.385525 L 317.812516 607.385525 L 498.083359 357.854262 C 508.723985 343.119886 519.203152 332.640719 529.520861 326.41676 C 540.000028 320.031343 552.281278 316.838635 566.359404 316.838635 C 583.06253 316.838635 596.817739 321.177176 607.619823 329.85426 C 618.427115 338.536552 624.484407 349.750095 625.796907 363.505304 C 627.104199 377.255304 622.031282 391.828222 610.56774 407.218848 L 391.244812 700.963655 L 391.244812 645.703235 L 620.640657 952.45846 C 631.447949 966.541794 636.109408 980.458461 634.640658 994.21367 C 633.328158 1007.963671 627.270866 1019.427213 616.463574 1028.599088 C 605.822948 1037.604297 591.822947 1042.104298 574.463571 1042.104298 C 561.692737 1042.104298 550.067737 1038.750131 539.588569 1032.036589 C 529.276069 1025.323047 518.385443 1014.599088 506.927109 999.859504 L 315.843766 738.291782 L 360.052102 738.291782 L 169.958342 999.859504 C 159.312508 1014.599088 148.588549 1025.323047 137.781257 1032.036589 C 127.140631 1038.750131 115.104172 1042.104298 101.677088 1042.104298 Z M 101.677088 1042.104298 " stroke="#1f8785" stroke-width="40.239601" stroke-opacity="1" stroke-miterlimit="4"/><g fill="#ffffff" fill-opacity="1"><g transform="translate(46.488282, 760.050683)"><g><path d="M 76.203125 6.03125 C 63.628906 6.03125 53.316406 2.640625 45.265625 -4.140625 C 37.222656 -10.929688 32.570312 -19.484375 31.3125 -29.796875 C 30.050781 -40.109375 33.445312 -50.546875 41.5 -61.109375 L 214.28125 -291.234375 L 214.28125 -249.734375 L 49.796875 -470.046875 C 41.742188 -481.117188 38.222656 -491.8125 39.234375 -502.125 C 40.242188 -512.4375 44.769531 -520.984375 52.8125 -527.765625 C 60.863281 -534.554688 70.925781 -537.953125 83 -537.953125 C 93.050781 -537.953125 101.972656 -535.5625 109.765625 -530.78125 C 117.566406 -526.007812 125.492188 -518.09375 133.546875 -507.03125 L 269.359375 -319.90625 L 238.421875 -319.90625 L 373.484375 -507.03125 C 381.523438 -518.09375 389.441406 -526.007812 397.234375 -530.78125 C 405.035156 -535.5625 414.21875 -537.953125 424.78125 -537.953125 C 437.351562 -537.953125 447.664062 -534.679688 455.71875 -528.140625 C 463.769531 -521.609375 468.296875 -513.1875 469.296875 -502.875 C 470.304688 -492.5625 466.535156 -481.617188 457.984375 -470.046875 L 293.5 -249.734375 L 293.5 -291.234375 L 465.53125 -61.109375 C 473.570312 -50.546875 477.085938 -40.109375 476.078125 -29.796875 C 475.078125 -19.484375 470.550781 -10.929688 462.5 -4.140625 C 454.457031 2.640625 443.894531 6.03125 430.8125 6.03125 C 421.257812 6.03125 412.582031 3.519531 404.78125 -1.5 C 396.988281 -6.53125 388.816406 -14.582031 380.265625 -25.65625 L 236.90625 -221.828125 L 270.109375 -221.828125 L 127.515625 -25.65625 C 119.460938 -14.582031 111.410156 -6.53125 103.359375 -1.5 C 95.316406 3.519531 86.265625 6.03125 76.203125 6.03125 Z M 76.203125 6.03125 "/></g></g></g><g clip-path="url(#c026aaa9b3)"><g clip-path="url(#c48d5b8f39)"><g clip-path="url(#3b39056268)"><g clip-path="url(#3db17216f3)"><path fill="#1f8785" d="M 137.894531 276.96875 L 138.511719 247.597656 C 138.558594 245.386719 135.546875 244.6875 134.617188 246.695312 L 126.695312 263.804688 C 126.421875 264.394531 125.882812 264.820312 125.242188 264.949219 L 106.75 268.644531 C 104.582031 269.078125 104.554688 272.167969 106.714844 272.640625 L 135.417969 278.921875 C 136.675781 279.195312 137.867188 278.253906 137.894531 276.96875 " fill-opacity="1" fill-rule="nonzero"/></g></g></g></g><path fill="#1f8785" d="M 478.109375 734.117188 L 456.234375 705.523438 L 465.765625 698.234375 L 487.640625 726.824219 M 448.941406 695.992188 L 427.066406 667.402344 L 436.597656 660.109375 L 458.472656 688.703125 M 419.777344 657.871094 L 397.902344 629.277344 L 407.433594 621.988281 L 429.308594 650.578125 M 390.609375 619.75 L 368.738281 591.15625 L 378.265625 583.863281 L 400.140625 612.457031 M 361.445312 581.625 L 339.570312 553.035156 L 349.101562 545.742188 L 370.976562 574.332031 M 332.277344 543.503906 L 310.40625 514.910156 L 319.933594 507.617188 L 341.808594 536.210938 M 303.113281 505.378906 L 281.238281 476.789062 L 290.769531 469.496094 L 312.644531 498.089844 M 273.945312 467.257812 L 252.074219 438.664062 L 261.601562 431.375 L 283.476562 459.964844 M 244.78125 429.132812 L 222.90625 400.542969 L 232.4375 393.25 L 254.3125 421.84375 M 215.617188 391.011719 L 193.742188 362.417969 L 203.273438 355.128906 L 225.144531 383.71875 M 186.449219 352.886719 L 164.574219 324.296875 L 174.105469 317.003906 L 195.980469 345.597656 M 157.285156 314.765625 L 135.410156 286.171875 L 144.941406 278.882812 L 166.8125 307.472656 " fill-opacity="1" fill-rule="nonzero"/><g clip-path="url(#072d839ca0)"><g clip-path="url(#12ecf91a9e)"><g clip-path="url(#ccdd975e0a)"><g clip-path="url(#40ed9cdf2d)"><path fill="#1f8785" d="M 463.457031 278.855469 L 491.9375 271.65625 C 494.082031 271.113281 493.953125 268.023438 491.773438 267.660156 L 473.175781 264.566406 C 472.53125 264.457031 471.980469 264.050781 471.6875 263.46875 L 463.214844 246.621094 C 462.21875 244.644531 459.234375 245.4375 459.351562 247.648438 L 460.914062 276.988281 C 460.984375 278.269531 462.207031 279.171875 463.457031 278.855469 " fill-opacity="1" fill-rule="nonzero"/></g></g></g></g><path fill="#1f8785" d="M 466.507812 282.175781 L 444.636719 310.773438 L 435.105469 303.480469 L 456.972656 274.886719 M 437.347656 320.304688 L 415.480469 348.902344 L 405.949219 341.613281 L 427.816406 313.015625 M 408.191406 358.433594 L 386.324219 387.03125 L 376.789062 379.742188 L 398.660156 351.144531 M 379.035156 396.5625 L 357.164062 425.160156 L 347.632812 417.871094 L 369.5 389.273438 M 349.875 434.691406 L 328.007812 463.289062 L 318.476562 456 L 340.34375 427.402344 M 320.71875 472.820312 L 298.851562 501.417969 L 289.316406 494.128906 L 311.1875 465.53125 M 291.5625 510.949219 L 269.691406 539.546875 L 260.160156 532.257812 L 282.027344 503.660156 M 262.402344 549.078125 L 240.535156 577.675781 L 231.003906 570.386719 L 252.871094 541.789062 M 233.246094 587.207031 L 211.378906 615.804688 L 201.847656 608.515625 L 223.714844 579.917969 M 204.089844 625.339844 L 182.222656 653.933594 L 172.6875 646.644531 L 194.554688 618.046875 M 174.929688 663.46875 L 153.0625 692.0625 L 143.53125 684.773438 L 165.398438 656.179688 M 145.773438 701.597656 L 123.90625 730.195312 L 114.375 722.902344 L 136.242188 694.308594 " fill-opacity="1" fill-rule="nonzero"/></svg>