<svg xmlns="http://www.w3.org/2000/svg" xmlns:xlink="http://www.w3.org/1999/xlink" width="794" zoomAndPan="magnify" viewBox="0 0 594.95996 842.24997" height="1123" preserveAspectRatio="xMidYMid meet" version="1.0"><defs><clipPath id="a4805dffdf"><path d="M 83 87.902344 L 513 87.902344 L 513 753.3125 L 83 753.3125 Z M 83 87.902344 " clip-rule="nonzero"/></clipPath></defs><g clip-path="url(#a4805dffdf)"><path fill="#000000" d="M 468.042969 95.253906 C 480.117188 95.253906 491.421875 101.183594 498.285156 111.121094 C 505.144531 121.054688 506.691406 133.726562 502.417969 145.019531 L 284.015625 722.195312 C 278.640625 736.398438 264.828125 745.941406 249.640625 745.941406 L 203.003906 745.941406 C 190.890625 745.941406 179.5625 739.980469 172.703125 729.996094 C 165.847656 720.007812 164.347656 707.296875 168.695312 695.988281 L 239.972656 510.667969 L 93.089844 145.734375 C 88.523438 134.390625 89.886719 121.570312 96.730469 111.4375 C 103.574219 101.304688 114.960938 95.253906 127.183594 95.253906 L 176.125 95.253906 C 191.25 95.253906 204.644531 104.332031 210.253906 118.375 L 302.148438 348.4375 L 390.3125 118.832031 C 395.734375 104.730469 409.519531 95.253906 424.621094 95.253906 L 468.042969 95.253906 M 468.042969 87.902344 L 424.621094 87.902344 C 406.5 87.902344 389.953125 99.273438 383.453125 116.195312 L 302.011719 328.28125 L 217.078125 115.648438 C 210.347656 98.796875 194.269531 87.902344 176.125 87.902344 L 127.183594 87.902344 C 112.515625 87.902344 98.851562 95.164062 90.640625 107.320312 C 82.425781 119.480469 80.792969 134.867188 86.269531 148.480469 L 232.074219 510.726562 L 161.835938 693.351562 C 156.617188 706.914062 158.414062 722.167969 166.644531 734.15625 C 174.875 746.140625 188.464844 753.292969 203.003906 753.292969 L 249.640625 753.292969 C 267.867188 753.292969 284.441406 741.839844 290.890625 724.796875 L 509.292969 147.621094 C 514.421875 134.066406 512.566406 118.859375 504.332031 106.941406 C 496.097656 95.019531 482.53125 87.902344 468.042969 87.902344 Z M 468.042969 87.902344 " fill-opacity="1" fill-rule="nonzero"/></g><path fill="#58595b" d="M 233.128906 701.015625 L 229.691406 699.714844 L 234.894531 685.964844 L 238.332031 687.265625 Z M 243.535156 673.515625 L 240.097656 672.214844 L 245.300781 658.460938 L 248.738281 659.765625 Z M 253.941406 646.011719 L 250.503906 644.710938 L 255.707031 630.960938 L 259.144531 632.261719 Z M 264.351562 618.511719 L 260.914062 617.210938 L 266.117188 603.460938 L 269.554688 604.761719 Z M 274.757812 591.011719 L 271.320312 589.710938 L 276.523438 575.957031 L 279.960938 577.257812 Z M 285.164062 563.507812 L 281.726562 562.207031 L 286.929688 548.457031 L 290.367188 549.757812 Z M 295.570312 536.007812 L 292.132812 534.707031 L 297.335938 520.957031 L 300.773438 522.257812 Z M 305.976562 508.507812 L 302.539062 507.203125 L 307.742188 493.453125 L 311.179688 494.753906 Z M 316.382812 481.003906 L 312.945312 479.703125 L 318.148438 465.953125 L 321.585938 467.253906 Z M 326.789062 453.503906 L 323.351562 452.199219 L 328.554688 438.449219 L 331.992188 439.75 Z M 337.195312 426 L 333.757812 424.699219 L 338.960938 410.949219 L 342.398438 412.25 Z M 347.601562 398.5 L 344.164062 397.199219 L 349.371094 383.449219 L 352.804688 384.75 Z M 358.007812 370.996094 L 354.574219 369.695312 L 359.777344 355.945312 L 363.210938 357.246094 Z M 368.414062 343.496094 L 364.980469 342.195312 L 370.183594 328.445312 L 373.621094 329.746094 Z M 378.824219 315.996094 L 375.386719 314.695312 L 380.589844 300.941406 L 384.027344 302.246094 Z M 389.230469 288.492188 L 385.792969 287.191406 L 390.996094 273.441406 L 394.433594 274.742188 Z M 399.636719 260.992188 L 396.199219 259.691406 L 401.402344 245.941406 L 404.839844 247.242188 Z M 410.042969 233.492188 L 406.605469 232.191406 L 411.808594 218.4375 L 415.246094 219.742188 Z M 420.449219 205.988281 L 417.011719 204.6875 L 422.214844 190.9375 L 425.652344 192.238281 Z M 430.855469 178.488281 L 427.417969 177.1875 L 432.621094 163.433594 L 436.058594 164.738281 Z M 430.855469 178.488281 " fill-opacity="1" fill-rule="nonzero"/><path fill="#58595b" d="M 290.097656 474.976562 L 284.609375 461.339844 L 288.019531 459.964844 L 293.507812 473.605469 Z M 279.117188 447.699219 L 273.628906 434.058594 L 277.039062 432.6875 L 282.527344 446.328125 Z M 268.140625 420.421875 L 262.648438 406.78125 L 266.058594 405.410156 L 271.546875 419.050781 Z M 257.160156 393.144531 L 251.671875 379.503906 L 255.078125 378.132812 L 260.570312 391.769531 Z M 246.179688 365.867188 L 240.691406 352.226562 L 244.101562 350.855469 L 249.589844 364.492188 Z M 235.203125 338.585938 L 229.710938 324.949219 L 233.121094 323.574219 L 238.613281 337.214844 Z M 224.222656 311.308594 L 218.734375 297.671875 L 222.140625 296.296875 L 227.632812 309.9375 Z M 213.242188 284.03125 L 207.753906 270.390625 L 211.164062 269.019531 L 216.652344 282.660156 Z M 202.265625 256.753906 L 196.773438 243.113281 L 200.183594 241.742188 L 205.671875 255.378906 Z M 191.285156 229.476562 L 185.792969 215.835938 L 189.203125 214.464844 L 194.695312 228.101562 Z M 180.304688 202.195312 L 174.816406 188.558594 L 178.226562 187.1875 L 183.714844 200.824219 Z M 169.328125 174.917969 L 163.835938 161.28125 L 167.246094 159.90625 L 172.734375 173.546875 Z M 158.347656 147.640625 L 152.859375 134.003906 L 156.265625 132.628906 L 161.757812 146.269531 Z M 158.347656 147.640625 " fill-opacity="1" fill-rule="nonzero"/><path fill="#58595b" d="M 294.375 483.355469 L 299.039062 453.628906 L 270.96875 464.453125 Z M 294.375 483.355469 " fill-opacity="1" fill-rule="nonzero"/><path fill="#58595b" d="M 225.777344 716.847656 L 219.726562 687.375 L 248.277344 696.871094 Z M 225.777344 716.847656 " fill-opacity="1" fill-rule="nonzero"/><path fill="#414042" d="M 193.3125 154.894531 C 193.3125 155.984375 193.257812 157.070312 193.152344 158.15625 C 193.042969 159.238281 192.882812 160.316406 192.671875 161.382812 C 192.460938 162.453125 192.195312 163.507812 191.878906 164.550781 C 191.5625 165.589844 191.195312 166.617188 190.78125 167.621094 C 190.363281 168.628906 189.898438 169.609375 189.382812 170.570312 C 188.871094 171.53125 188.3125 172.464844 187.707031 173.371094 C 187.101562 174.277344 186.453125 175.152344 185.761719 175.992188 C 185.070312 176.835938 184.339844 177.640625 183.570312 178.410156 C 182.800781 179.179688 181.996094 179.910156 181.152344 180.601562 C 180.3125 181.292969 179.4375 181.941406 178.53125 182.546875 C 177.625 183.152344 176.695312 183.710938 175.734375 184.222656 C 174.773438 184.738281 173.789062 185.203125 172.78125 185.621094 C 171.777344 186.035156 170.753906 186.402344 169.710938 186.71875 C 168.667969 187.035156 167.613281 187.300781 166.546875 187.511719 C 165.476562 187.722656 164.402344 187.882812 163.316406 187.992188 C 162.234375 188.097656 161.148438 188.152344 160.058594 188.152344 C 158.96875 188.152344 157.882812 188.097656 156.796875 187.992188 C 155.714844 187.882812 154.636719 187.722656 153.570312 187.511719 C 152.5 187.300781 151.445312 187.035156 150.40625 186.71875 C 149.363281 186.402344 148.339844 186.035156 147.332031 185.621094 C 146.324219 185.203125 145.34375 184.738281 144.382812 184.222656 C 143.421875 183.710938 142.488281 183.152344 141.582031 182.546875 C 140.675781 181.941406 139.804688 181.292969 138.960938 180.601562 C 138.121094 179.910156 137.3125 179.179688 136.542969 178.410156 C 135.773438 177.640625 135.042969 176.835938 134.351562 175.992188 C 133.660156 175.152344 133.011719 174.277344 132.410156 173.371094 C 131.804688 172.464844 131.242188 171.53125 130.730469 170.570312 C 130.21875 169.609375 129.753906 168.628906 129.335938 167.621094 C 128.917969 166.617188 128.550781 165.589844 128.234375 164.550781 C 127.917969 163.507812 127.65625 162.453125 127.441406 161.382812 C 127.230469 160.316406 127.070312 159.238281 126.964844 158.15625 C 126.859375 157.070312 126.804688 155.984375 126.804688 154.894531 C 126.804688 153.804688 126.859375 152.71875 126.964844 151.636719 C 127.070312 150.550781 127.230469 149.476562 127.441406 148.40625 C 127.65625 147.339844 127.917969 146.285156 128.234375 145.242188 C 128.550781 144.199219 128.917969 143.175781 129.335938 142.167969 C 129.753906 141.164062 130.21875 140.179688 130.730469 139.21875 C 131.242188 138.257812 131.804688 137.324219 132.410156 136.417969 C 133.011719 135.515625 133.660156 134.640625 134.351562 133.796875 C 135.042969 132.957031 135.773438 132.148438 136.542969 131.378906 C 137.3125 130.609375 138.121094 129.878906 138.960938 129.1875 C 139.804688 128.496094 140.675781 127.847656 141.582031 127.246094 C 142.488281 126.640625 143.421875 126.078125 144.382812 125.566406 C 145.34375 125.054688 146.324219 124.585938 147.332031 124.171875 C 148.339844 123.753906 149.363281 123.386719 150.40625 123.070312 C 151.445312 122.753906 152.503906 122.492188 153.570312 122.277344 C 154.636719 122.066406 155.714844 121.90625 156.796875 121.800781 C 157.882812 121.691406 158.96875 121.640625 160.058594 121.640625 C 161.148438 121.640625 162.234375 121.691406 163.316406 121.800781 C 164.402344 121.90625 165.476562 122.066406 166.546875 122.277344 C 167.613281 122.492188 168.667969 122.753906 169.710938 123.070312 C 170.753906 123.386719 171.777344 123.753906 172.78125 124.171875 C 173.789062 124.585938 174.773438 125.054688 175.734375 125.566406 C 176.695312 126.078125 177.625 126.640625 178.53125 127.246094 C 179.4375 127.847656 180.3125 128.496094 181.152344 129.1875 C 181.996094 129.878906 182.800781 130.609375 183.570312 131.378906 C 184.339844 132.148438 185.070312 132.957031 185.761719 133.796875 C 186.453125 134.640625 187.101562 135.515625 187.707031 136.417969 C 188.3125 137.324219 188.871094 138.257812 189.382812 139.21875 C 189.898438 140.179688 190.363281 141.164062 190.78125 142.167969 C 191.195312 143.175781 191.5625 144.199219 191.878906 145.242188 C 192.195312 146.285156 192.460938 147.339844 192.671875 148.40625 C 192.882812 149.476562 193.042969 150.550781 193.152344 151.636719 C 193.257812 152.71875 193.3125 153.804688 193.3125 154.894531 Z M 193.3125 154.894531 " fill-opacity="1" fill-rule="nonzero"/><path fill="#fcfcfc" d="M 163.90625 132.128906 L 159.636719 132.128906 C 159.152344 132.128906 158.695312 132.339844 158.378906 132.710938 L 145.804688 147.414062 C 145.25 148.074219 145.28125 149.050781 145.894531 149.664062 L 148.285156 152.050781 C 148.933594 152.691406 149.972656 152.691406 150.617188 152.058594 L 157.984375 144.78125 L 157.984375 176.652344 C 157.984375 177.5625 158.726562 178.304688 159.636719 178.304688 L 163.90625 178.304688 C 164.816406 178.304688 165.5625 177.5625 165.5625 176.652344 L 165.5625 133.78125 C 165.5625 132.871094 164.820312 132.128906 163.90625 132.128906 Z M 163.90625 132.128906 " fill-opacity="1" fill-rule="nonzero"/><path fill="#414042" d="M 470.179688 154.894531 C 470.179688 155.984375 470.128906 157.070312 470.019531 158.15625 C 469.914062 159.238281 469.753906 160.316406 469.542969 161.382812 C 469.328125 162.453125 469.066406 163.507812 468.75 164.550781 C 468.433594 165.589844 468.066406 166.617188 467.648438 167.621094 C 467.234375 168.628906 466.769531 169.609375 466.253906 170.570312 C 465.742188 171.53125 465.179688 172.464844 464.578125 173.371094 C 463.972656 174.277344 463.324219 175.152344 462.632812 175.992188 C 461.941406 176.835938 461.210938 177.640625 460.441406 178.410156 C 459.671875 179.179688 458.863281 179.910156 458.023438 180.601562 C 457.179688 181.292969 456.308594 181.941406 455.402344 182.546875 C 454.496094 183.152344 453.5625 183.710938 452.601562 184.222656 C 451.640625 184.738281 450.660156 185.203125 449.652344 185.621094 C 448.648438 186.035156 447.621094 186.402344 446.582031 186.71875 C 445.539062 187.035156 444.484375 187.300781 443.414062 187.511719 C 442.347656 187.722656 441.269531 187.882812 440.1875 187.992188 C 439.101562 188.097656 438.015625 188.152344 436.925781 188.152344 C 435.839844 188.152344 434.75 188.097656 433.667969 187.992188 C 432.585938 187.882812 431.507812 187.722656 430.441406 187.511719 C 429.371094 187.300781 428.316406 187.035156 427.273438 186.71875 C 426.230469 186.402344 425.207031 186.035156 424.203125 185.621094 C 423.195312 185.203125 422.210938 184.738281 421.25 184.222656 C 420.292969 183.710938 419.359375 183.152344 418.453125 182.546875 C 417.546875 181.941406 416.671875 181.292969 415.832031 180.601562 C 414.988281 179.910156 414.183594 179.179688 413.414062 178.410156 C 412.644531 177.640625 411.914062 176.835938 411.222656 175.992188 C 410.53125 175.152344 409.882812 174.277344 409.277344 173.371094 C 408.671875 172.464844 408.113281 171.53125 407.601562 170.570312 C 407.085938 169.609375 406.621094 168.628906 406.207031 167.621094 C 405.789062 166.617188 405.421875 165.589844 405.105469 164.550781 C 404.789062 163.507812 404.527344 162.453125 404.3125 161.382812 C 404.101562 160.316406 403.941406 159.238281 403.835938 158.15625 C 403.726562 157.070312 403.675781 155.984375 403.675781 154.894531 C 403.675781 153.804688 403.726562 152.71875 403.835938 151.636719 C 403.941406 150.550781 404.101562 149.476562 404.3125 148.40625 C 404.527344 147.339844 404.789062 146.285156 405.105469 145.242188 C 405.421875 144.199219 405.789062 143.175781 406.207031 142.167969 C 406.621094 141.164062 407.085938 140.179688 407.601562 139.21875 C 408.113281 138.257812 408.671875 137.324219 409.277344 136.417969 C 409.882812 135.515625 410.53125 134.640625 411.222656 133.796875 C 411.914062 132.957031 412.644531 132.148438 413.414062 131.378906 C 414.183594 130.609375 414.988281 129.878906 415.832031 129.1875 C 416.671875 128.496094 417.546875 127.847656 418.453125 127.246094 C 419.359375 126.640625 420.292969 126.078125 421.25 125.566406 C 422.210938 125.054688 423.195312 124.585938 424.203125 124.171875 C 425.207031 123.753906 426.230469 123.386719 427.273438 123.070312 C 428.316406 122.753906 429.371094 122.492188 430.441406 122.277344 C 431.507812 122.066406 432.585938 121.90625 433.667969 121.800781 C 434.75 121.691406 435.839844 121.640625 436.925781 121.640625 C 438.015625 121.640625 439.101562 121.691406 440.1875 121.800781 C 441.269531 121.90625 442.347656 122.066406 443.414062 122.277344 C 444.484375 122.492188 445.539062 122.753906 446.582031 123.070312 C 447.621094 123.386719 448.648438 123.753906 449.652344 124.171875 C 450.660156 124.585938 451.640625 125.054688 452.601562 125.566406 C 453.5625 126.078125 454.496094 126.640625 455.402344 127.246094 C 456.308594 127.847656 457.179688 128.496094 458.023438 129.1875 C 458.863281 129.878906 459.671875 130.609375 460.441406 131.378906 C 461.210938 132.148438 461.941406 132.957031 462.632812 133.796875 C 463.324219 134.640625 463.972656 135.515625 464.578125 136.417969 C 465.179688 137.324219 465.742188 138.257812 466.253906 139.21875 C 466.769531 140.179688 467.234375 141.164062 467.648438 142.167969 C 468.066406 143.175781 468.433594 144.199219 468.75 145.242188 C 469.066406 146.285156 469.328125 147.339844 469.542969 148.40625 C 469.753906 149.476562 469.914062 150.550781 470.019531 151.636719 C 470.128906 152.71875 470.179688 153.804688 470.179688 154.894531 Z M 470.179688 154.894531 " fill-opacity="1" fill-rule="nonzero"/><path fill="#fcfcfc" d="M 450.253906 170.71875 L 431.554688 170.71875 C 431.800781 170.269531 432.132812 169.808594 432.5625 169.335938 C 433.738281 168.035156 435.625 166.3125 438.171875 164.222656 L 438.140625 164.1875 C 438.527344 163.921875 438.953125 163.558594 439.4375 163.140625 C 443.042969 160.09375 445.925781 157.097656 448.003906 154.242188 C 450.214844 151.207031 451.335938 147.707031 451.335938 143.839844 C 451.335938 140.015625 450.03125 136.90625 447.460938 134.59375 C 444.933594 132.335938 441.554688 131.1875 437.429688 131.1875 C 434.535156 131.1875 431.703125 131.90625 429.015625 133.328125 C 426.363281 134.738281 424.085938 136.722656 422.265625 139.21875 C 421.753906 139.917969 421.871094 140.886719 422.53125 141.449219 L 425.988281 144.40625 C 426.328125 144.699219 426.769531 144.851562 427.246094 144.789062 C 427.699219 144.738281 428.113281 144.503906 428.382812 144.136719 C 429.714844 142.347656 431.15625 140.980469 432.667969 140.066406 C 435.570312 138.308594 439.613281 138.3125 441.691406 140.195312 C 442.699219 141.109375 443.191406 142.300781 443.191406 143.839844 C 443.191406 146.421875 442.546875 148.625 441.214844 150.578125 C 439.808594 152.65625 437.773438 154.832031 435.128906 157.074219 C 434.988281 157.195312 434.300781 157.761719 433.050781 158.777344 C 430.878906 160.570312 429.109375 162.136719 427.785156 163.433594 C 426.414062 164.785156 425.25 166.332031 424.320312 168.03125 C 423.332031 169.84375 422.828125 171.835938 422.828125 173.945312 L 422.828125 176.652344 C 422.828125 177.5625 423.570312 178.304688 424.484375 178.304688 L 450.253906 178.304688 C 451.164062 178.304688 451.90625 177.5625 451.90625 176.652344 L 451.90625 172.375 C 451.90625 171.460938 451.164062 170.71875 450.253906 170.71875 Z M 450.253906 170.71875 " fill-opacity="1" fill-rule="nonzero"/></svg>