<svg xmlns="http://www.w3.org/2000/svg" xmlns:xlink="http://www.w3.org/1999/xlink" width="800" zoomAndPan="magnify" viewBox="0 0 600 899.99999" height="1200" preserveAspectRatio="xMidYMid meet" version="1.0"><defs><g/><clipPath id="d540880912"><path d="M 101 238 L 136 238 L 136 273 L 101 273 Z M 101 238 " clip-rule="nonzero"/></clipPath><clipPath id="49297afbc5"><path d="M 133.355469 237.699219 L 150.0625 258.910156 L 117.660156 284.4375 L 100.953125 263.226562 Z M 133.355469 237.699219 " clip-rule="nonzero"/></clipPath><clipPath id="3f6d986392"><path d="M 133.355469 237.699219 L 150.0625 258.910156 L 117.660156 284.4375 L 100.953125 263.226562 Z M 133.355469 237.699219 " clip-rule="nonzero"/></clipPath><clipPath id="3c8ef76e65"><path d="M 133.351562 237.707031 L 149.929688 258.75 L 117.378906 284.390625 L 100.800781 263.34375 Z M 133.351562 237.707031 " clip-rule="nonzero"/></clipPath><clipPath id="cf16894882"><path d="M 461 245 L 496 245 L 496 279 L 461 279 Z M 461 245 " clip-rule="nonzero"/></clipPath><clipPath id="06088b8402"><path d="M 496.644531 268.726562 L 480.96875 290.707031 L 447.382812 266.757812 L 463.058594 244.777344 Z M 496.644531 268.726562 " clip-rule="nonzero"/></clipPath><clipPath id="0e0c6b25a7"><path d="M 496.644531 268.726562 L 480.96875 290.707031 L 447.382812 266.757812 L 463.058594 244.777344 Z M 496.644531 268.726562 " clip-rule="nonzero"/></clipPath><clipPath id="c0280032e5"><path d="M 496.640625 268.722656 L 481.082031 290.535156 L 447.347656 266.476562 L 462.902344 244.664062 Z M 496.640625 268.722656 " clip-rule="nonzero"/></clipPath></defs><path stroke-linecap="butt" transform="matrix(0.75, 0, 0, 0.75, 66.861329, -15.449276)" fill="none" stroke-linejoin="miter" d="M 310.934912 1042.104298 C 290.138036 1042.104298 274.174493 1036.208464 263.039076 1024.422005 C 252.070325 1012.630338 246.58595 996.015753 246.58595 974.562627 L 246.58595 668.78657 L 273.601576 746.401157 L 31.190105 405.255306 C 22.513022 393.140722 18.664063 380.203221 19.648438 366.45322 C 20.632813 352.698011 26.117188 340.989678 36.101564 331.328219 C 46.257814 321.671968 60.33594 316.838635 78.346358 316.838635 C 91.773442 316.838635 104.054692 320.19801 115.19011 326.906343 C 126.320319 333.458427 136.882819 343.776136 146.872403 357.854262 L 326.898454 613.52615 L 298.898453 613.52615 L 479.908879 357.854262 C 490.549504 343.119886 500.867213 332.640719 510.856797 326.41676 C 521.007839 320.031343 533.450548 316.838635 548.184924 316.838635 C 565.705758 316.838635 579.294301 321.343843 588.955759 330.349052 C 598.778677 339.354261 603.856802 350.567803 604.184927 363.994887 C 604.513052 377.421971 599.596385 391.500097 589.445343 406.239681 L 349.002622 746.401157 L 375.283873 668.78657 L 375.283873 974.562627 C 375.283873 1019.588671 353.830747 1042.104298 310.934912 1042.104298 Z M 310.934912 1042.104298 " stroke="#1f8785" stroke-width="40.239601" stroke-opacity="1" stroke-miterlimit="4"/><g fill="#ffffff" fill-opacity="1"><g transform="translate(66.861329, 760.050683)"><g><path d="M 233.140625 6.03125 C 217.546875 6.03125 205.597656 1.628906 197.296875 -7.171875 C 189.003906 -15.972656 184.859375 -28.421875 184.859375 -44.515625 L 184.859375 -273.890625 L 205.21875 -215.78125 L 23.390625 -471.5625 C 16.847656 -480.613281 13.953125 -490.296875 14.703125 -500.609375 C 15.460938 -510.921875 19.613281 -519.722656 27.15625 -527.015625 C 34.707031 -534.304688 45.269531 -537.953125 58.84375 -537.953125 C 68.90625 -537.953125 78.085938 -535.4375 86.390625 -530.40625 C 94.691406 -525.382812 102.613281 -517.59375 110.15625 -507.03125 L 245.21875 -315.375 L 224.09375 -315.375 L 359.890625 -507.03125 C 367.941406 -518.09375 375.738281 -526.007812 383.28125 -530.78125 C 390.832031 -535.5625 400.140625 -537.953125 411.203125 -537.953125 C 424.273438 -537.953125 434.457031 -534.554688 441.75 -527.765625 C 449.050781 -520.984375 452.828125 -512.5625 453.078125 -502.5 C 453.328125 -492.4375 449.679688 -481.875 442.140625 -470.8125 L 261.8125 -215.78125 L 281.421875 -273.890625 L 281.421875 -44.515625 C 281.421875 -10.816406 265.328125 6.03125 233.140625 6.03125 Z M 233.140625 6.03125 "/></g></g></g><g clip-path="url(#d540880912)"><g clip-path="url(#49297afbc5)"><g clip-path="url(#3f6d986392)"><g clip-path="url(#3c8ef76e65)"><path fill="#1f8785" d="M 134.433594 270.011719 L 135.050781 240.636719 C 135.097656 238.425781 132.085938 237.730469 131.15625 239.734375 L 123.234375 256.84375 C 122.960938 257.4375 122.421875 257.863281 121.78125 257.988281 L 103.289062 261.6875 C 101.121094 262.121094 101.09375 265.210938 103.253906 265.683594 L 131.953125 271.960938 C 133.210938 272.238281 134.40625 271.296875 134.433594 270.011719 " fill-opacity="1" fill-rule="nonzero"/></g></g></g></g><path fill="#1f8785" d="M 276.453125 475.035156 L 255.066406 446.078125 L 264.71875 438.949219 L 286.105469 467.90625 M 247.9375 436.425781 L 226.550781 407.464844 L 236.203125 400.335938 L 257.589844 429.296875 M 219.421875 397.8125 L 198.035156 368.855469 L 207.6875 361.726562 L 229.074219 390.683594 M 190.90625 359.199219 L 169.519531 330.242188 L 179.171875 323.113281 L 200.558594 352.070312 M 162.390625 320.589844 L 141.003906 291.628906 L 150.65625 284.5 L 172.042969 313.460938 M 133.875 281.976562 L 128.824219 275.136719 L 138.476562 268.007812 L 143.527344 274.847656 " fill-opacity="1" fill-rule="nonzero"/><g clip-path="url(#cf16894882)"><g clip-path="url(#06088b8402)"><g clip-path="url(#0e0c6b25a7)"><g clip-path="url(#c0280032e5)"><path fill="#1f8785" d="M 465.933594 278.8125 L 494.300781 271.175781 C 496.4375 270.597656 496.261719 267.511719 494.074219 267.183594 L 475.429688 264.375 C 474.785156 264.277344 474.226562 263.878906 473.925781 263.300781 L 465.191406 246.585938 C 464.167969 244.625 461.195312 245.464844 461.347656 247.671875 L 463.363281 276.984375 C 463.453125 278.265625 464.691406 279.148438 465.933594 278.8125 " fill-opacity="1" fill-rule="nonzero"/></g></g></g></g><path fill="#1f8785" d="M 325.085938 462.8125 L 346.023438 433.523438 L 355.785156 440.503906 L 334.851562 469.789062 M 353.003906 423.761719 L 373.9375 394.476562 L 383.699219 401.453125 L 362.765625 430.742188 M 380.917969 384.714844 L 401.851562 355.429688 L 411.613281 362.40625 L 390.679688 391.691406 M 408.832031 345.664062 L 429.765625 316.378906 L 439.53125 323.359375 L 418.59375 352.644531 M 436.746094 306.617188 L 457.683594 277.332031 L 467.445312 284.308594 L 446.507812 313.597656 " fill-opacity="1" fill-rule="nonzero"/><path fill="#1f8785" d="M 298.878906 738.425781 L 298.878906 702.425781 L 310.878906 702.425781 L 310.878906 738.425781 M 298.878906 690.425781 L 298.878906 654.425781 L 310.878906 654.425781 L 310.878906 690.425781 M 298.878906 642.425781 L 298.878906 606.425781 L 310.878906 606.425781 L 310.878906 642.425781 M 298.878906 594.425781 L 298.878906 558.425781 L 310.878906 558.425781 L 310.878906 594.425781 M 298.878906 546.425781 L 298.878906 522.328125 L 310.878906 522.328125 L 310.878906 546.425781 " fill-opacity="1" fill-rule="nonzero"/></svg>