<svg xmlns="http://www.w3.org/2000/svg" xmlns:xlink="http://www.w3.org/1999/xlink" width="794" zoomAndPan="magnify" viewBox="0 0 594.95996 842.24997" height="1123" preserveAspectRatio="xMidYMid meet" version="1.0"><defs><g/></defs><g fill="#000000" fill-opacity="1"><g transform="translate(76.555248, 608.138473)"><g><path d="M 220.703125 -139.875 C 216.015625 -139.875 213.671875 -142.21875 213.671875 -146.90625 C 213.671875 -151.59375 216.015625 -153.9375 220.703125 -153.9375 C 225.390625 -153.9375 227.734375 -151.59375 227.734375 -146.90625 C 227.734375 -142.21875 225.390625 -139.875 220.703125 -139.875 Z M 220.703125 -111.765625 C 216.015625 -111.765625 213.671875 -114.101562 213.671875 -118.78125 C 213.671875 -123.46875 216.015625 -125.8125 220.703125 -125.8125 C 225.390625 -125.8125 227.734375 -123.46875 227.734375 -118.78125 C 227.734375 -114.101562 225.390625 -111.765625 220.703125 -111.765625 Z M 220.703125 -82.9375 C 216.015625 -82.9375 213.671875 -85.28125 213.671875 -89.96875 C 213.671875 -94.65625 216.015625 -97 220.703125 -97 C 225.390625 -97 227.734375 -94.65625 227.734375 -89.96875 C 227.734375 -85.28125 225.390625 -82.9375 220.703125 -82.9375 Z M 220.703125 -54.125 C 216.015625 -54.125 213.671875 -56.46875 213.671875 -61.15625 C 213.671875 -65.84375 216.015625 -68.1875 220.703125 -68.1875 C 225.390625 -68.1875 227.734375 -65.84375 227.734375 -61.15625 C 227.734375 -56.46875 225.390625 -54.125 220.703125 -54.125 Z M 220.703125 -194 C 216.015625 -194 213.671875 -196.34375 213.671875 -201.03125 C 213.671875 -205.71875 216.015625 -208.0625 220.703125 -208.0625 C 225.390625 -208.0625 227.734375 -205.71875 227.734375 -201.03125 C 227.734375 -196.34375 225.390625 -194 220.703125 -194 Z M 220.703125 -166.578125 C 216.015625 -166.578125 213.671875 -168.921875 213.671875 -173.609375 C 213.671875 -178.296875 216.015625 -180.640625 220.703125 -180.640625 C 225.390625 -180.640625 227.734375 -178.296875 227.734375 -173.609375 C 227.734375 -168.921875 225.390625 -166.578125 220.703125 -166.578125 Z M 220.703125 -26 C 216.015625 -26 213.671875 -28.34375 213.671875 -33.03125 C 213.671875 -37.71875 216.015625 -40.0625 220.703125 -40.0625 C 225.390625 -40.0625 227.734375 -37.71875 227.734375 -33.03125 C 227.734375 -28.34375 225.390625 -26 220.703125 -26 Z M 220.703125 2.109375 C 216.015625 2.109375 213.671875 -0.234375 213.671875 -4.921875 C 213.671875 -9.609375 216.015625 -11.953125 220.703125 -11.953125 C 225.390625 -11.953125 227.734375 -9.609375 227.734375 -4.921875 C 227.734375 -0.234375 225.390625 2.109375 220.703125 2.109375 Z M 28.109375 -485 C 23.429688 -485 21.09375 -487.34375 21.09375 -492.03125 C 21.09375 -496.707031 23.429688 -499.046875 28.109375 -499.046875 C 32.796875 -499.046875 35.140625 -496.707031 35.140625 -492.03125 C 35.140625 -487.34375 32.796875 -485 28.109375 -485 Z M 57.640625 -440.015625 C 52.953125 -440.015625 50.609375 -442.351562 50.609375 -447.03125 C 50.609375 -451.71875 52.953125 -454.0625 57.640625 -454.0625 C 62.328125 -454.0625 64.671875 -451.71875 64.671875 -447.03125 C 64.671875 -442.351562 62.328125 -440.015625 57.640625 -440.015625 Z M 72.390625 -417.515625 C 67.710938 -417.515625 65.375 -419.859375 65.375 -424.546875 C 65.375 -429.234375 67.710938 -431.578125 72.390625 -431.578125 C 77.078125 -431.578125 79.421875 -429.234375 79.421875 -424.546875 C 79.421875 -419.859375 77.078125 -417.515625 72.390625 -417.515625 Z M 115.984375 -350.046875 C 111.296875 -350.046875 108.953125 -352.382812 108.953125 -357.0625 C 108.953125 -361.75 111.296875 -364.09375 115.984375 -364.09375 C 120.660156 -364.09375 123 -361.75 123 -357.0625 C 123 -352.382812 120.660156 -350.046875 115.984375 -350.046875 Z M 130.734375 -327.546875 C 126.046875 -327.546875 123.703125 -329.890625 123.703125 -334.578125 C 123.703125 -339.265625 126.046875 -341.609375 130.734375 -341.609375 C 135.421875 -341.609375 137.765625 -339.265625 137.765625 -334.578125 C 137.765625 -329.890625 135.421875 -327.546875 130.734375 -327.546875 Z M 87.15625 -395.03125 C 82.46875 -395.03125 80.125 -397.367188 80.125 -402.046875 C 80.125 -406.734375 82.46875 -409.078125 87.15625 -409.078125 C 91.84375 -409.078125 94.1875 -406.734375 94.1875 -402.046875 C 94.1875 -397.367188 91.84375 -395.03125 87.15625 -395.03125 Z M 101.21875 -372.53125 C 96.53125 -372.53125 94.1875 -374.875 94.1875 -379.5625 C 94.1875 -384.25 96.53125 -386.59375 101.21875 -386.59375 C 105.90625 -386.59375 108.25 -384.25 108.25 -379.5625 C 108.25 -374.875 105.90625 -372.53125 101.21875 -372.53125 Z M 174.3125 -260.0625 C 169.625 -260.0625 167.28125 -262.40625 167.28125 -267.09375 C 167.28125 -271.78125 169.625 -274.125 174.3125 -274.125 C 179 -274.125 181.34375 -271.78125 181.34375 -267.09375 C 181.34375 -262.40625 179 -260.0625 174.3125 -260.0625 Z M 189.78125 -237.578125 C 185.09375 -237.578125 182.75 -239.921875 182.75 -244.609375 C 182.75 -249.296875 185.09375 -251.640625 189.78125 -251.640625 C 194.46875 -251.640625 196.8125 -249.296875 196.8125 -244.609375 C 196.8125 -239.921875 194.46875 -237.578125 189.78125 -237.578125 Z M 146.203125 -305.046875 C 141.515625 -305.046875 139.171875 -307.390625 139.171875 -312.078125 C 139.171875 -316.765625 141.515625 -319.109375 146.203125 -319.109375 C 150.890625 -319.109375 153.234375 -316.765625 153.234375 -312.078125 C 153.234375 -307.390625 150.890625 -305.046875 146.203125 -305.046875 Z M 160.265625 -282.5625 C 155.578125 -282.5625 153.234375 -284.90625 153.234375 -289.59375 C 153.234375 -294.28125 155.578125 -296.625 160.265625 -296.625 C 164.941406 -296.625 167.28125 -294.28125 167.28125 -289.59375 C 167.28125 -284.90625 164.941406 -282.5625 160.265625 -282.5625 Z M 204.546875 -215.078125 C 199.859375 -215.078125 197.515625 -217.421875 197.515625 -222.109375 C 197.515625 -226.796875 199.859375 -229.140625 204.546875 -229.140625 C 209.222656 -229.140625 211.5625 -226.796875 211.5625 -222.109375 C 211.5625 -217.421875 209.222656 -215.078125 204.546875 -215.078125 Z M 42.171875 -462.5 C 37.484375 -462.5 35.140625 -464.84375 35.140625 -469.53125 C 35.140625 -474.21875 37.484375 -476.5625 42.171875 -476.5625 C 46.859375 -476.5625 49.203125 -474.21875 49.203125 -469.53125 C 49.203125 -464.84375 46.859375 -462.5 42.171875 -462.5 Z M 413.296875 -485 C 408.609375 -485 406.265625 -487.34375 406.265625 -492.03125 C 406.265625 -496.707031 408.609375 -499.046875 413.296875 -499.046875 C 417.984375 -499.046875 420.328125 -496.707031 420.328125 -492.03125 C 420.328125 -487.34375 417.984375 -485 413.296875 -485 Z M 383.78125 -440.015625 C 379.09375 -440.015625 376.75 -442.351562 376.75 -447.03125 C 376.75 -451.71875 379.09375 -454.0625 383.78125 -454.0625 C 388.46875 -454.0625 390.8125 -451.71875 390.8125 -447.03125 C 390.8125 -442.351562 388.46875 -440.015625 383.78125 -440.015625 Z M 369.015625 -417.515625 C 364.328125 -417.515625 361.984375 -419.859375 361.984375 -424.546875 C 361.984375 -429.234375 364.328125 -431.578125 369.015625 -431.578125 C 373.703125 -431.578125 376.046875 -429.234375 376.046875 -424.546875 C 376.046875 -419.859375 373.703125 -417.515625 369.015625 -417.515625 Z M 325.4375 -350.046875 C 320.75 -350.046875 318.40625 -352.382812 318.40625 -357.0625 C 318.40625 -361.75 320.75 -364.09375 325.4375 -364.09375 C 330.125 -364.09375 332.46875 -361.75 332.46875 -357.0625 C 332.46875 -352.382812 330.125 -350.046875 325.4375 -350.046875 Z M 310.671875 -327.546875 C 305.992188 -327.546875 303.65625 -329.890625 303.65625 -334.578125 C 303.65625 -339.265625 305.992188 -341.609375 310.671875 -341.609375 C 315.359375 -341.609375 317.703125 -339.265625 317.703125 -334.578125 C 317.703125 -329.890625 315.359375 -327.546875 310.671875 -327.546875 Z M 354.25 -395.03125 C 349.570312 -395.03125 347.234375 -397.367188 347.234375 -402.046875 C 347.234375 -406.734375 349.570312 -409.078125 354.25 -409.078125 C 358.9375 -409.078125 361.28125 -406.734375 361.28125 -402.046875 C 361.28125 -397.367188 358.9375 -395.03125 354.25 -395.03125 Z M 340.203125 -372.53125 C 335.515625 -372.53125 333.171875 -374.875 333.171875 -379.5625 C 333.171875 -384.25 335.515625 -386.59375 340.203125 -386.59375 C 344.890625 -386.59375 347.234375 -384.25 347.234375 -379.5625 C 347.234375 -374.875 344.890625 -372.53125 340.203125 -372.53125 Z M 267.09375 -260.0625 C 262.40625 -260.0625 260.0625 -262.40625 260.0625 -267.09375 C 260.0625 -271.78125 262.40625 -274.125 267.09375 -274.125 C 271.78125 -274.125 274.125 -271.78125 274.125 -267.09375 C 274.125 -262.40625 271.78125 -260.0625 267.09375 -260.0625 Z M 251.640625 -237.578125 C 246.953125 -237.578125 244.609375 -239.921875 244.609375 -244.609375 C 244.609375 -249.296875 246.953125 -251.640625 251.640625 -251.640625 C 256.316406 -251.640625 258.65625 -249.296875 258.65625 -244.609375 C 258.65625 -239.921875 256.316406 -237.578125 251.640625 -237.578125 Z M 295.21875 -305.046875 C 290.53125 -305.046875 288.1875 -307.390625 288.1875 -312.078125 C 288.1875 -316.765625 290.53125 -319.109375 295.21875 -319.109375 C 299.90625 -319.109375 302.25 -316.765625 302.25 -312.078125 C 302.25 -307.390625 299.90625 -305.046875 295.21875 -305.046875 Z M 281.15625 -282.5625 C 276.46875 -282.5625 274.125 -284.90625 274.125 -289.59375 C 274.125 -294.28125 276.46875 -296.625 281.15625 -296.625 C 285.84375 -296.625 288.1875 -294.28125 288.1875 -289.59375 C 288.1875 -284.90625 285.84375 -282.5625 281.15625 -282.5625 Z M 236.875 -215.078125 C 232.1875 -215.078125 229.84375 -217.421875 229.84375 -222.109375 C 229.84375 -226.796875 232.1875 -229.140625 236.875 -229.140625 C 241.5625 -229.140625 243.90625 -226.796875 243.90625 -222.109375 C 243.90625 -217.421875 241.5625 -215.078125 236.875 -215.078125 Z M 399.234375 -462.5 C 394.554688 -462.5 392.21875 -464.84375 392.21875 -469.53125 C 392.21875 -474.21875 394.554688 -476.5625 399.234375 -476.5625 C 403.921875 -476.5625 406.265625 -474.21875 406.265625 -469.53125 C 406.265625 -464.84375 403.921875 -462.5 399.234375 -462.5 Z M 399.234375 -462.5 "/></g></g></g><path stroke-linecap="butt" transform="matrix(0.436282, 0.609227, -0.609227, 0.436282, 97.547627, 179.24225)" fill="none" stroke-linejoin="miter" d="M -0.00247817 1.999946 L 292.43912 2.001774 " stroke="#000000" stroke-width="4" stroke-opacity="1" stroke-miterlimit="4"/><path stroke-linecap="round" transform="matrix(0.436282, 0.609227, -0.609227, 0.436282, 97.547627, 179.24225)" fill="none" stroke-linejoin="round" d="M 284.440608 -4.001863 L 292.43912 2.001774 L 284.438129 7.999281 " stroke="#000000" stroke-width="4" stroke-opacity="1" stroke-miterlimit="4"/><path stroke-linecap="butt" transform="matrix(-0.412978, 0.625259, -0.625259, -0.412978, 501.175966, 180.94183)" fill="none" stroke-linejoin="miter" d="M 0.0012172 1.998664 L 286.284517 2.001537 " stroke="#000000" stroke-width="4" stroke-opacity="1" stroke-miterlimit="4"/><path stroke-linecap="round" transform="matrix(-0.412978, 0.625259, -0.625259, -0.412978, 501.175966, 180.94183)" fill="none" stroke-linejoin="round" d="M 278.285877 -3.998259 L 286.284517 2.001537 L 278.282148 7.999235 " stroke="#000000" stroke-width="4" stroke-opacity="1" stroke-miterlimit="4"/><path stroke-linecap="butt" transform="matrix(0, 0.749333, -0.749333, 0, 246.547309, 420.570221)" fill="none" stroke-linejoin="miter" d="M 0.000121466 2.00236 L 213.17417 2.00236 " stroke="#000000" stroke-width="4" stroke-opacity="1" stroke-miterlimit="4"/><path stroke-linecap="round" transform="matrix(0, 0.749333, -0.749333, 0, 246.547309, 420.570221)" fill="none" stroke-linejoin="round" d="M 205.172258 -3.99777 L 213.17417 2.00236 L 205.172258 8.00249 " stroke="#000000" stroke-width="4" stroke-opacity="1" stroke-miterlimit="4"/></svg>