<svg xmlns="http://www.w3.org/2000/svg" xmlns:xlink="http://www.w3.org/1999/xlink" width="794" zoomAndPan="magnify" viewBox="0 0 595.5 842.249979" height="1123" preserveAspectRatio="xMidYMid meet" version="1.0"><defs><g/></defs><g fill="#000000" fill-opacity="1"><g transform="translate(77.726011, 608.138451)"><g><path d="M 132.140625 -478.671875 C 127.453125 -478.671875 125.109375 -481.015625 125.109375 -485.703125 C 125.109375 -490.378906 127.453125 -492.71875 132.140625 -492.71875 C 136.828125 -492.71875 139.171875 -490.378906 139.171875 -485.703125 C 139.171875 -481.015625 136.828125 -478.671875 132.140625 -478.671875 Z M 156.75 -478.671875 C 152.0625 -478.671875 149.71875 -481.015625 149.71875 -485.703125 C 149.71875 -490.378906 152.0625 -492.71875 156.75 -492.71875 C 161.4375 -492.71875 163.78125 -490.378906 163.78125 -485.703125 C 163.78125 -481.015625 161.4375 -478.671875 156.75 -478.671875 Z M 182.046875 -478.671875 C 177.359375 -478.671875 175.015625 -481.015625 175.015625 -485.703125 C 175.015625 -490.378906 177.359375 -492.71875 182.046875 -492.71875 C 186.734375 -492.71875 189.078125 -490.378906 189.078125 -485.703125 C 189.078125 -481.015625 186.734375 -478.671875 182.046875 -478.671875 Z M 207.359375 -478.671875 C 202.671875 -478.671875 200.328125 -481.015625 200.328125 -485.703125 C 200.328125 -490.378906 202.671875 -492.71875 207.359375 -492.71875 C 212.035156 -492.71875 214.375 -490.378906 214.375 -485.703125 C 214.375 -481.015625 212.035156 -478.671875 207.359375 -478.671875 Z M 231.953125 -478.671875 C 227.265625 -478.671875 224.921875 -481.015625 224.921875 -485.703125 C 224.921875 -490.378906 227.265625 -492.71875 231.953125 -492.71875 C 236.640625 -492.71875 238.984375 -490.378906 238.984375 -485.703125 C 238.984375 -481.015625 236.640625 -478.671875 231.953125 -478.671875 Z M 256.5625 -478.671875 C 251.875 -478.671875 249.53125 -481.015625 249.53125 -485.703125 C 249.53125 -490.378906 251.875 -492.71875 256.5625 -492.71875 C 261.238281 -492.71875 263.578125 -490.378906 263.578125 -485.703125 C 263.578125 -481.015625 261.238281 -478.671875 256.5625 -478.671875 Z M 281.859375 -478.671875 C 277.171875 -478.671875 274.828125 -481.015625 274.828125 -485.703125 C 274.828125 -490.378906 277.171875 -492.71875 281.859375 -492.71875 C 286.546875 -492.71875 288.890625 -490.378906 288.890625 -485.703125 C 288.890625 -481.015625 286.546875 -478.671875 281.859375 -478.671875 Z M 306.453125 -478.671875 C 301.773438 -478.671875 299.4375 -481.015625 299.4375 -485.703125 C 299.4375 -490.378906 301.773438 -492.71875 306.453125 -492.71875 C 311.140625 -492.71875 313.484375 -490.378906 313.484375 -485.703125 C 313.484375 -481.015625 311.140625 -478.671875 306.453125 -478.671875 Z M 331.765625 -478.671875 C 327.078125 -478.671875 324.734375 -481.015625 324.734375 -485.703125 C 324.734375 -490.378906 327.078125 -492.71875 331.765625 -492.71875 C 336.453125 -492.71875 338.796875 -490.378906 338.796875 -485.703125 C 338.796875 -481.015625 336.453125 -478.671875 331.765625 -478.671875 Z M 357.0625 -478.671875 C 352.382812 -478.671875 350.046875 -481.015625 350.046875 -485.703125 C 350.046875 -490.378906 352.382812 -492.71875 357.0625 -492.71875 C 361.75 -492.71875 364.09375 -490.378906 364.09375 -485.703125 C 364.09375 -481.015625 361.75 -478.671875 357.0625 -478.671875 Z M 381.671875 -478.671875 C 376.984375 -478.671875 374.640625 -481.015625 374.640625 -485.703125 C 374.640625 -490.378906 376.984375 -492.71875 381.671875 -492.71875 C 386.359375 -492.71875 388.703125 -490.378906 388.703125 -485.703125 C 388.703125 -481.015625 386.359375 -478.671875 381.671875 -478.671875 Z M 31.625 -478.671875 C 26.9375 -478.671875 24.59375 -481.015625 24.59375 -485.703125 C 24.59375 -490.378906 26.9375 -492.71875 31.625 -492.71875 C 36.3125 -492.71875 38.65625 -490.378906 38.65625 -485.703125 C 38.65625 -481.015625 36.3125 -478.671875 31.625 -478.671875 Z M 56.234375 -478.671875 C 51.546875 -478.671875 49.203125 -481.015625 49.203125 -485.703125 C 49.203125 -490.378906 51.546875 -492.71875 56.234375 -492.71875 C 60.921875 -492.71875 63.265625 -490.378906 63.265625 -485.703125 C 63.265625 -481.015625 60.921875 -478.671875 56.234375 -478.671875 Z M 81.53125 -478.671875 C 76.84375 -478.671875 74.5 -481.015625 74.5 -485.703125 C 74.5 -490.378906 76.84375 -492.71875 81.53125 -492.71875 C 86.21875 -492.71875 88.5625 -490.378906 88.5625 -485.703125 C 88.5625 -481.015625 86.21875 -478.671875 81.53125 -478.671875 Z M 106.84375 -478.671875 C 102.15625 -478.671875 99.8125 -481.015625 99.8125 -485.703125 C 99.8125 -490.378906 102.15625 -492.71875 106.84375 -492.71875 C 111.53125 -492.71875 113.875 -490.378906 113.875 -485.703125 C 113.875 -481.015625 111.53125 -478.671875 106.84375 -478.671875 Z M 406.265625 -478.671875 C 401.578125 -478.671875 399.234375 -481.015625 399.234375 -485.703125 C 399.234375 -490.378906 401.578125 -492.71875 406.265625 -492.71875 C 410.953125 -492.71875 413.296875 -490.378906 413.296875 -485.703125 C 413.296875 -481.015625 410.953125 -478.671875 406.265625 -478.671875 Z M 132.140625 -2.8125 C 127.453125 -2.8125 125.109375 -5.15625 125.109375 -9.84375 C 125.109375 -14.53125 127.453125 -16.875 132.140625 -16.875 C 136.828125 -16.875 139.171875 -14.53125 139.171875 -9.84375 C 139.171875 -5.15625 136.828125 -2.8125 132.140625 -2.8125 Z M 156.75 -2.8125 C 152.0625 -2.8125 149.71875 -5.15625 149.71875 -9.84375 C 149.71875 -14.53125 152.0625 -16.875 156.75 -16.875 C 161.4375 -16.875 163.78125 -14.53125 163.78125 -9.84375 C 163.78125 -5.15625 161.4375 -2.8125 156.75 -2.8125 Z M 182.046875 -2.8125 C 177.359375 -2.8125 175.015625 -5.15625 175.015625 -9.84375 C 175.015625 -14.53125 177.359375 -16.875 182.046875 -16.875 C 186.734375 -16.875 189.078125 -14.53125 189.078125 -9.84375 C 189.078125 -5.15625 186.734375 -2.8125 182.046875 -2.8125 Z M 207.359375 -2.8125 C 202.671875 -2.8125 200.328125 -5.15625 200.328125 -9.84375 C 200.328125 -14.53125 202.671875 -16.875 207.359375 -16.875 C 212.035156 -16.875 214.375 -14.53125 214.375 -9.84375 C 214.375 -5.15625 212.035156 -2.8125 207.359375 -2.8125 Z M 231.953125 -2.8125 C 227.265625 -2.8125 224.921875 -5.15625 224.921875 -9.84375 C 224.921875 -14.53125 227.265625 -16.875 231.953125 -16.875 C 236.640625 -16.875 238.984375 -14.53125 238.984375 -9.84375 C 238.984375 -5.15625 236.640625 -2.8125 231.953125 -2.8125 Z M 256.5625 -2.8125 C 251.875 -2.8125 249.53125 -5.15625 249.53125 -9.84375 C 249.53125 -14.53125 251.875 -16.875 256.5625 -16.875 C 261.238281 -16.875 263.578125 -14.53125 263.578125 -9.84375 C 263.578125 -5.15625 261.238281 -2.8125 256.5625 -2.8125 Z M 281.859375 -2.8125 C 277.171875 -2.8125 274.828125 -5.15625 274.828125 -9.84375 C 274.828125 -14.53125 277.171875 -16.875 281.859375 -16.875 C 286.546875 -16.875 288.890625 -14.53125 288.890625 -9.84375 C 288.890625 -5.15625 286.546875 -2.8125 281.859375 -2.8125 Z M 306.453125 -2.8125 C 301.773438 -2.8125 299.4375 -5.15625 299.4375 -9.84375 C 299.4375 -14.53125 301.773438 -16.875 306.453125 -16.875 C 311.140625 -16.875 313.484375 -14.53125 313.484375 -9.84375 C 313.484375 -5.15625 311.140625 -2.8125 306.453125 -2.8125 Z M 331.765625 -2.8125 C 327.078125 -2.8125 324.734375 -5.15625 324.734375 -9.84375 C 324.734375 -14.53125 327.078125 -16.875 331.765625 -16.875 C 336.453125 -16.875 338.796875 -14.53125 338.796875 -9.84375 C 338.796875 -5.15625 336.453125 -2.8125 331.765625 -2.8125 Z M 357.0625 -2.8125 C 352.382812 -2.8125 350.046875 -5.15625 350.046875 -9.84375 C 350.046875 -14.53125 352.382812 -16.875 357.0625 -16.875 C 361.75 -16.875 364.09375 -14.53125 364.09375 -9.84375 C 364.09375 -5.15625 361.75 -2.8125 357.0625 -2.8125 Z M 381.671875 -2.8125 C 376.984375 -2.8125 374.640625 -5.15625 374.640625 -9.84375 C 374.640625 -14.53125 376.984375 -16.875 381.671875 -16.875 C 386.359375 -16.875 388.703125 -14.53125 388.703125 -9.84375 C 388.703125 -5.15625 386.359375 -2.8125 381.671875 -2.8125 Z M 31.625 -2.8125 C 26.9375 -2.8125 24.59375 -5.15625 24.59375 -9.84375 C 24.59375 -14.53125 26.9375 -16.875 31.625 -16.875 C 36.3125 -16.875 38.65625 -14.53125 38.65625 -9.84375 C 38.65625 -5.15625 36.3125 -2.8125 31.625 -2.8125 Z M 56.234375 -2.8125 C 51.546875 -2.8125 49.203125 -5.15625 49.203125 -9.84375 C 49.203125 -14.53125 51.546875 -16.875 56.234375 -16.875 C 60.921875 -16.875 63.265625 -14.53125 63.265625 -9.84375 C 63.265625 -5.15625 60.921875 -2.8125 56.234375 -2.8125 Z M 81.53125 -2.8125 C 76.84375 -2.8125 74.5 -5.15625 74.5 -9.84375 C 74.5 -14.53125 76.84375 -16.875 81.53125 -16.875 C 86.21875 -16.875 88.5625 -14.53125 88.5625 -9.84375 C 88.5625 -5.15625 86.21875 -2.8125 81.53125 -2.8125 Z M 106.84375 -2.8125 C 102.15625 -2.8125 99.8125 -5.15625 99.8125 -9.84375 C 99.8125 -14.53125 102.15625 -16.875 106.84375 -16.875 C 111.53125 -16.875 113.875 -14.53125 113.875 -9.84375 C 113.875 -5.15625 111.53125 -2.8125 106.84375 -2.8125 Z M 406.265625 -2.8125 C 401.578125 -2.8125 399.234375 -5.15625 399.234375 -9.84375 C 399.234375 -14.53125 401.578125 -16.875 406.265625 -16.875 C 410.953125 -16.875 413.296875 -14.53125 413.296875 -9.84375 C 413.296875 -5.15625 410.953125 -2.8125 406.265625 -2.8125 Z M 196.109375 -213.671875 C 191.421875 -213.671875 189.078125 -216.015625 189.078125 -220.703125 C 189.078125 -225.390625 191.421875 -227.734375 196.109375 -227.734375 C 200.796875 -227.734375 203.140625 -225.390625 203.140625 -220.703125 C 203.140625 -216.015625 200.796875 -213.671875 196.109375 -213.671875 Z M 228.4375 -253.75 C 223.75 -253.75 221.40625 -256.085938 221.40625 -260.765625 C 221.40625 -265.453125 223.75 -267.796875 228.4375 -267.796875 C 233.125 -267.796875 235.46875 -265.453125 235.46875 -260.765625 C 235.46875 -256.085938 233.125 -253.75 228.4375 -253.75 Z M 212.265625 -234.0625 C 207.585938 -234.0625 205.25 -236.40625 205.25 -241.09375 C 205.25 -245.78125 207.585938 -248.125 212.265625 -248.125 C 216.953125 -248.125 219.296875 -245.78125 219.296875 -241.09375 C 219.296875 -236.40625 216.953125 -234.0625 212.265625 -234.0625 Z M 146.203125 -151.125 C 141.515625 -151.125 139.171875 -153.46875 139.171875 -158.15625 C 139.171875 -162.832031 141.515625 -165.171875 146.203125 -165.171875 C 150.890625 -165.171875 153.234375 -162.832031 153.234375 -158.15625 C 153.234375 -153.46875 150.890625 -151.125 146.203125 -151.125 Z M 179.234375 -192.59375 C 174.546875 -192.59375 172.203125 -194.9375 172.203125 -199.625 C 172.203125 -204.3125 174.546875 -206.65625 179.234375 -206.65625 C 183.921875 -206.65625 186.265625 -204.3125 186.265625 -199.625 C 186.265625 -194.9375 183.921875 -192.59375 179.234375 -192.59375 Z M 163.078125 -172.203125 C 158.390625 -172.203125 156.046875 -174.546875 156.046875 -179.234375 C 156.046875 -183.921875 158.390625 -186.265625 163.078125 -186.265625 C 167.753906 -186.265625 170.09375 -183.921875 170.09375 -179.234375 C 170.09375 -174.546875 167.753906 -172.203125 163.078125 -172.203125 Z M 111.0625 -108.953125 C 106.375 -108.953125 104.03125 -111.296875 104.03125 -115.984375 C 104.03125 -120.660156 106.375 -123 111.0625 -123 C 115.738281 -123 118.078125 -120.660156 118.078125 -115.984375 C 118.078125 -111.296875 115.738281 -108.953125 111.0625 -108.953125 Z M 128.625 -130.03125 C 123.9375 -130.03125 121.59375 -132.375 121.59375 -137.0625 C 121.59375 -141.75 123.9375 -144.09375 128.625 -144.09375 C 133.3125 -144.09375 135.65625 -141.75 135.65625 -137.0625 C 135.65625 -132.375 133.3125 -130.03125 128.625 -130.03125 Z M 60.453125 -45.6875 C 55.765625 -45.6875 53.421875 -48.03125 53.421875 -52.71875 C 53.421875 -57.40625 55.765625 -59.75 60.453125 -59.75 C 65.140625 -59.75 67.484375 -57.40625 67.484375 -52.71875 C 67.484375 -48.03125 65.140625 -45.6875 60.453125 -45.6875 Z M 94.1875 -87.859375 C 89.5 -87.859375 87.15625 -90.203125 87.15625 -94.890625 C 87.15625 -99.578125 89.5 -101.921875 94.1875 -101.921875 C 98.875 -101.921875 101.21875 -99.578125 101.21875 -94.890625 C 101.21875 -90.203125 98.875 -87.859375 94.1875 -87.859375 Z M 77.3125 -66.78125 C 72.632812 -66.78125 70.296875 -69.117188 70.296875 -73.796875 C 70.296875 -78.484375 72.632812 -80.828125 77.3125 -80.828125 C 82 -80.828125 84.34375 -78.484375 84.34375 -73.796875 C 84.34375 -69.117188 82 -66.78125 77.3125 -66.78125 Z M 43.578125 -25.296875 C 38.890625 -25.296875 36.546875 -27.640625 36.546875 -32.328125 C 36.546875 -37.015625 38.890625 -39.359375 43.578125 -39.359375 C 48.265625 -39.359375 50.609375 -37.015625 50.609375 -32.328125 C 50.609375 -27.640625 48.265625 -25.296875 43.578125 -25.296875 Z M 359.875 -416.109375 C 355.1875 -416.109375 352.84375 -418.453125 352.84375 -423.140625 C 352.84375 -427.828125 355.1875 -430.171875 359.875 -430.171875 C 364.5625 -430.171875 366.90625 -427.828125 366.90625 -423.140625 C 366.90625 -418.453125 364.5625 -416.109375 359.875 -416.109375 Z M 392.921875 -456.875 C 388.234375 -456.875 385.890625 -459.21875 385.890625 -463.90625 C 385.890625 -468.59375 388.234375 -470.9375 392.921875 -470.9375 C 397.597656 -470.9375 399.9375 -468.59375 399.9375 -463.90625 C 399.9375 -459.21875 397.597656 -456.875 392.921875 -456.875 Z M 376.75 -436.5 C 372.0625 -436.5 369.71875 -438.84375 369.71875 -443.53125 C 369.71875 -448.207031 372.0625 -450.546875 376.75 -450.546875 C 381.4375 -450.546875 383.78125 -448.207031 383.78125 -443.53125 C 383.78125 -438.84375 381.4375 -436.5 376.75 -436.5 Z M 326.84375 -376.046875 C 322.15625 -376.046875 319.8125 -378.390625 319.8125 -383.078125 C 319.8125 -387.765625 322.15625 -390.109375 326.84375 -390.109375 C 331.53125 -390.109375 333.875 -387.765625 333.875 -383.078125 C 333.875 -378.390625 331.53125 -376.046875 326.84375 -376.046875 Z M 343.015625 -395.734375 C 338.328125 -395.734375 335.984375 -398.070312 335.984375 -402.75 C 335.984375 -407.4375 338.328125 -409.78125 343.015625 -409.78125 C 347.703125 -409.78125 350.046875 -407.4375 350.046875 -402.75 C 350.046875 -398.070312 347.703125 -395.734375 343.015625 -395.734375 Z M 276.9375 -313.484375 C 272.25 -313.484375 269.90625 -315.828125 269.90625 -320.515625 C 269.90625 -325.203125 272.25 -327.546875 276.9375 -327.546875 C 281.625 -327.546875 283.96875 -325.203125 283.96875 -320.515625 C 283.96875 -315.828125 281.625 -313.484375 276.9375 -313.484375 Z M 309.96875 -354.953125 C 305.289062 -354.953125 302.953125 -357.296875 302.953125 -361.984375 C 302.953125 -366.671875 305.289062 -369.015625 309.96875 -369.015625 C 314.65625 -369.015625 317 -366.671875 317 -361.984375 C 317 -357.296875 314.65625 -354.953125 309.96875 -354.953125 Z M 293.109375 -333.875 C 288.421875 -333.875 286.078125 -336.21875 286.078125 -340.90625 C 286.078125 -345.59375 288.421875 -347.9375 293.109375 -347.9375 C 297.796875 -347.9375 300.140625 -345.59375 300.140625 -340.90625 C 300.140625 -336.21875 297.796875 -333.875 293.109375 -333.875 Z M 244.609375 -274.125 C 239.921875 -274.125 237.578125 -276.46875 237.578125 -281.15625 C 237.578125 -285.84375 239.921875 -288.1875 244.609375 -288.1875 C 249.296875 -288.1875 251.640625 -285.84375 251.640625 -281.15625 C 251.640625 -276.46875 249.296875 -274.125 244.609375 -274.125 Z M 260.0625 -293.8125 C 255.382812 -293.8125 253.046875 -296.15625 253.046875 -300.84375 C 253.046875 -305.519531 255.382812 -307.859375 260.0625 -307.859375 C 264.75 -307.859375 267.09375 -305.519531 267.09375 -300.84375 C 267.09375 -296.15625 264.75 -293.8125 260.0625 -293.8125 Z M 260.0625 -293.8125 "/></g></g></g><path stroke-linecap="butt" transform="matrix(0.749333, 0, 0, 0.749333, 107.069397, 86.702094)" fill="none" stroke-linejoin="miter" d="M 0.0012219 1.997944 L 446.877996 1.997944 " stroke="#000000" stroke-width="4" stroke-opacity="1" stroke-miterlimit="4"/><path stroke-linecap="round" transform="matrix(0.749333, 0, 0, 0.749333, 107.069397, 86.702094)" fill="none" stroke-linejoin="round" d="M 438.876084 -4.002186 L 446.877996 1.997944 L 438.876084 7.998074 " stroke="#000000" stroke-width="4" stroke-opacity="1" stroke-miterlimit="4"/><path stroke-linecap="butt" transform="matrix(-0.477774, 0.577262, -0.577262, -0.477774, 414.139634, 163.692429)" fill="none" stroke-linejoin="miter" d="M 0.00206407 1.999564 L 638.305931 1.999657 " stroke="#000000" stroke-width="4" stroke-opacity="1" stroke-miterlimit="4"/><path stroke-linecap="round" transform="matrix(-0.477774, 0.577262, -0.577262, -0.477774, 414.139634, 163.692429)" fill="none" stroke-linejoin="round" d="M 630.307945 -4.000958 L 638.305931 1.999657 L 630.30566 7.998565 " stroke="#000000" stroke-width="4" stroke-opacity="1" stroke-miterlimit="4"/><path stroke-linecap="butt" transform="matrix(0.749333, 0.00000000000000019, -0.00000000000000019, 0.749333, 107.069397, 634.294248)" fill="none" stroke-linejoin="miter" d="M 0.0012219 2.000074 L 446.877996 2.000074 " stroke="#000000" stroke-width="4" stroke-opacity="1" stroke-miterlimit="4"/><path stroke-linecap="round" transform="matrix(0.749333, 0.00000000000000019, -0.00000000000000019, 0.749333, 107.069397, 634.294248)" fill="none" stroke-linejoin="round" d="M 438.876084 -4.000057 L 446.877996 2.000074 L 438.876084 8.000204 " stroke="#000000" stroke-width="4" stroke-opacity="1" stroke-miterlimit="4"/></svg>