<svg xmlns="http://www.w3.org/2000/svg" xmlns:xlink="http://www.w3.org/1999/xlink" width="800" zoomAndPan="magnify" viewBox="0 0 600 899.99999" height="1200" preserveAspectRatio="xMidYMid meet" version="1.0"><defs><g/><clipPath id="8f8e5e810e"><path d="M 115.433594 247.289062 L 142.226562 247.289062 L 142.226562 288.53125 L 115.433594 288.53125 Z M 115.433594 247.289062 " clip-rule="nonzero"/></clipPath><clipPath id="5005bd4caa"><path d="M 416 300 L 452 300 L 452 334 L 416 334 Z M 416 300 " clip-rule="nonzero"/></clipPath><clipPath id="bedc3ac2c9"><path d="M 452.585938 321.53125 L 438.167969 344.359375 L 403.292969 322.332031 L 417.710938 299.503906 Z M 452.585938 321.53125 " clip-rule="nonzero"/></clipPath><clipPath id="ef2f6e26f1"><path d="M 452.585938 321.53125 L 438.167969 344.359375 L 403.292969 322.332031 L 417.710938 299.503906 Z M 452.585938 321.53125 " clip-rule="nonzero"/></clipPath><clipPath id="3476845cde"><path d="M 452.582031 321.527344 L 438.273438 344.179688 L 403.238281 322.050781 L 417.546875 299.398438 Z M 452.582031 321.527344 " clip-rule="nonzero"/></clipPath><clipPath id="02ce540907"><path d="M 202.78125 698.539062 L 229.570312 698.539062 L 229.570312 739.78125 L 202.78125 739.78125 Z M 202.78125 698.539062 " clip-rule="nonzero"/></clipPath></defs><path stroke-linecap="butt" transform="matrix(0.75, 0, 0, 0.75, 71.765625, -15.449228)" fill="none" stroke-linejoin="miter" d="M 106.593756 1034.000067 C 89.89063 1034.000067 76.302087 1030.6459 65.82292 1023.932358 C 55.505211 1017.218816 48.463544 1008.046941 44.697919 996.42194 C 41.09896 984.635481 41.09896 971.536522 44.697919 957.125063 C 48.463544 942.718812 56.000003 927.734437 67.296878 912.182352 L 451.661482 391.255242 L 451.661482 432.515661 L 96.520838 432.515661 C 77.854171 432.515661 63.609378 427.854202 53.786461 418.520868 C 44.125002 409.020868 39.296877 395.515659 39.296877 377.994824 C 39.296877 360.640657 44.125002 347.458364 53.786461 338.453156 C 63.609378 329.28128 77.854171 324.697947 96.520838 324.697947 L 513.062527 324.697947 C 529.765653 324.697947 543.27607 328.057322 553.588571 334.765655 C 564.067738 341.479197 571.109405 350.56774 574.713572 362.031282 C 578.479197 373.489616 578.479197 386.588575 574.713572 401.328159 C 571.109405 416.062535 563.661488 431.125036 552.359404 446.515661 L 167.9948 966.703189 L 167.9948 926.427145 L 538.114611 926.427145 C 556.947946 926.427145 571.192738 930.927145 580.848989 939.932354 C 590.677114 948.937563 595.588573 962.203188 595.588573 979.724023 C 595.588573 997.07819 590.677114 1010.505274 580.848989 1020.000066 C 571.192738 1029.3334 556.947946 1034.000067 538.114611 1034.000067 Z M 106.593756 1034.000067 " stroke="#1f8785" stroke-width="40.239601" stroke-opacity="1" stroke-miterlimit="4"/><g fill="#ffffff" fill-opacity="1"><g transform="translate(71.765625, 760.050731)"><g><path d="M 79.984375 0 C 67.398438 0 57.207031 -2.515625 49.40625 -7.546875 C 41.613281 -12.578125 36.332031 -19.492188 33.5625 -28.296875 C 30.800781 -37.097656 30.800781 -46.90625 33.5625 -57.71875 C 36.332031 -68.53125 41.992188 -79.722656 50.546875 -91.296875 L 338.765625 -482.125 L 338.765625 -451.1875 L 72.4375 -451.1875 C 58.351562 -451.1875 47.660156 -454.707031 40.359375 -461.75 C 33.066406 -468.789062 29.421875 -478.851562 29.421875 -491.9375 C 29.421875 -505.007812 33.066406 -514.941406 40.359375 -521.734375 C 47.660156 -528.523438 58.351562 -531.921875 72.4375 -531.921875 L 384.796875 -531.921875 C 397.367188 -531.921875 407.550781 -529.40625 415.34375 -524.375 C 423.144531 -519.34375 428.425781 -512.550781 431.1875 -504 C 433.957031 -495.445312 433.957031 -485.640625 431.1875 -474.578125 C 428.425781 -463.515625 422.769531 -452.195312 414.21875 -440.625 L 126 -50.546875 L 126 -80.734375 L 403.65625 -80.734375 C 417.738281 -80.734375 428.425781 -77.335938 435.71875 -70.546875 C 443.007812 -63.753906 446.65625 -53.820312 446.65625 -40.75 C 446.65625 -27.664062 443.007812 -17.601562 435.71875 -10.5625 C 428.425781 -3.519531 417.738281 0 403.65625 0 Z M 79.984375 0 "/></g></g></g><g clip-path="url(#8f8e5e810e)"><path fill="#1f8785" d="M 141.480469 266.429688 L 118.789062 247.769531 C 117.078125 246.363281 114.667969 248.300781 115.667969 250.269531 L 124.207031 267.082031 C 124.503906 267.660156 124.503906 268.347656 124.207031 268.929688 L 115.667969 285.746094 C 114.667969 287.714844 117.078125 289.648438 118.785156 288.246094 L 141.480469 269.585938 C 142.472656 268.765625 142.472656 267.246094 141.480469 266.429688 " fill-opacity="1" fill-rule="nonzero"/></g><g clip-path="url(#5005bd4caa)"><g clip-path="url(#bedc3ac2c9)"><g clip-path="url(#ef2f6e26f1)"><g clip-path="url(#3476845cde)"><path fill="#1f8785" d="M 422.488281 333.328125 L 450.382812 324.105469 C 452.484375 323.410156 452.132812 320.339844 449.933594 320.132812 L 431.160156 318.375 C 430.511719 318.316406 429.929688 317.949219 429.597656 317.386719 L 419.941406 301.191406 C 418.808594 299.289062 415.886719 300.296875 416.164062 302.492188 L 419.820312 331.640625 C 419.980469 332.917969 421.265625 333.730469 422.488281 333.328125 " fill-opacity="1" fill-rule="nonzero"/></g></g></g></g><g clip-path="url(#02ce540907)"><path fill="#1f8785" d="M 228.828125 717.679688 L 206.132812 699.019531 C 204.425781 697.613281 202.015625 699.550781 203.015625 701.523438 L 211.554688 718.332031 C 211.851562 718.914062 211.851562 719.597656 211.554688 720.179688 L 203.015625 736.996094 C 202.015625 738.964844 204.425781 740.898438 206.132812 739.496094 L 228.828125 720.835938 C 229.820312 720.019531 229.820312 718.496094 228.828125 717.679688 " fill-opacity="1" fill-rule="nonzero"/></g><path fill="#1f8785" d="M 452.585938 274.011719 L 416.585938 274.011719 L 416.585938 262.011719 L 452.585938 262.011719 M 404.585938 274.011719 L 368.585938 274.011719 L 368.585938 262.011719 L 404.585938 262.011719 M 356.585938 274.011719 L 320.585938 274.011719 L 320.585938 262.011719 L 356.585938 262.011719 M 308.585938 274.011719 L 272.585938 274.011719 L 272.585938 262.011719 L 308.585938 262.011719 M 260.585938 274.011719 L 224.585938 274.011719 L 224.585938 262.011719 L 260.585938 262.011719 M 212.585938 274.011719 L 176.585938 274.011719 L 176.585938 262.011719 L 212.585938 262.011719 M 164.585938 274.011719 L 142.21875 274.011719 L 142.21875 262.011719 L 164.585938 262.011719 " fill-opacity="1" fill-rule="nonzero"/><path fill="#1f8785" d="M 484.28125 725.261719 L 448.28125 725.261719 L 448.28125 713.261719 L 484.28125 713.261719 M 436.28125 725.261719 L 400.28125 725.261719 L 400.28125 713.261719 L 436.28125 713.261719 M 388.28125 725.261719 L 352.28125 725.261719 L 352.28125 713.261719 L 388.28125 713.261719 M 340.28125 725.261719 L 304.28125 725.261719 L 304.28125 713.261719 L 340.28125 713.261719 M 292.28125 725.261719 L 256.28125 725.261719 L 256.28125 713.261719 L 292.28125 713.261719 M 244.28125 725.261719 L 229.566406 725.261719 L 229.566406 713.261719 L 244.28125 713.261719 " fill-opacity="1" fill-rule="nonzero"/><path fill="#1f8785" d="M 425.621094 336.632812 L 404.558594 365.828125 L 394.828125 358.808594 L 415.886719 329.613281 M 397.539062 375.5625 L 376.480469 404.757812 L 366.746094 397.738281 L 387.808594 368.542969 M 369.460938 414.492188 L 348.398438 443.6875 L 338.667969 436.667969 L 359.726562 407.46875 M 341.378906 453.421875 L 320.316406 482.617188 L 310.585938 475.597656 L 331.644531 446.398438 M 313.296875 492.347656 L 292.238281 521.546875 L 282.503906 514.527344 L 303.566406 485.328125 M 285.21875 531.277344 L 264.15625 560.476562 L 254.425781 553.457031 L 275.484375 524.257812 M 257.136719 570.207031 L 236.078125 599.40625 L 226.34375 592.382812 L 247.40625 563.1875 M 229.058594 609.136719 L 207.996094 638.332031 L 198.265625 631.3125 L 219.324219 602.117188 M 200.976562 648.066406 L 179.914062 677.261719 L 170.183594 670.242188 L 191.242188 641.046875 M 172.894531 686.996094 L 151.835938 716.191406 L 142.101562 709.171875 L 163.164062 679.976562 " fill-opacity="1" fill-rule="nonzero"/></svg>