<svg xmlns="http://www.w3.org/2000/svg" xmlns:xlink="http://www.w3.org/1999/xlink" width="794" zoomAndPan="magnify" viewBox="0 0 595.5 842.249979" height="1123" preserveAspectRatio="xMidYMid meet" version="1.0"><defs><clipPath id="458fda0953"><path d="M 65.742188 83.628906 L 528.828125 83.628906 L 528.828125 757.277344 L 65.742188 757.277344 Z M 65.742188 83.628906 " clip-rule="nonzero"/></clipPath></defs><path fill="#ffffff" d="M 152.039062 751.113281 C 107.976562 751.113281 72.125 715.257812 72.125 671.1875 C 72.125 655.683594 76.589844 640.621094 85.027344 627.632812 L 350.253906 219.503906 L 145.53125 219.503906 C 109.78125 219.503906 80.695312 190.417969 80.695312 154.664062 C 80.695312 118.914062 109.78125 89.824219 145.53125 89.824219 L 434.640625 89.824219 C 483.050781 89.824219 522.445312 129.21875 522.445312 177.636719 C 522.445312 194.730469 517.5 211.339844 508.148438 225.660156 L 249.652344 621.433594 L 449.03125 621.433594 C 484.78125 621.433594 513.867188 650.519531 513.867188 686.269531 C 513.867188 722.023438 484.78125 751.113281 449.03125 751.113281 Z M 152.039062 751.113281 " fill-opacity="1" fill-rule="nonzero"/><g clip-path="url(#458fda0953)"><path fill="#000000" d="M 434.640625 89.824219 C 483.050781 89.824219 522.445312 129.21875 522.445312 177.636719 C 522.445312 194.730469 517.5 211.339844 508.148438 225.660156 L 249.652344 621.433594 L 449.03125 621.433594 C 484.78125 621.433594 513.867188 650.519531 513.867188 686.269531 C 513.867188 722.023438 484.78125 751.113281 449.03125 751.113281 L 152.039062 751.113281 C 107.976562 751.113281 72.125 715.257812 72.125 671.1875 C 72.125 655.683594 76.589844 640.621094 85.027344 627.632812 L 350.253906 219.503906 L 145.53125 219.503906 C 109.78125 219.503906 80.695312 190.417969 80.695312 154.664062 C 80.695312 118.914062 109.78125 89.824219 145.53125 89.824219 L 434.640625 89.824219 M 434.640625 83.628906 L 145.53125 83.628906 C 106.363281 83.628906 74.5 115.496094 74.5 154.664062 C 74.5 193.832031 106.363281 225.699219 145.53125 225.699219 L 338.839844 225.699219 L 79.835938 624.253906 C 70.738281 638.253906 65.929688 654.484375 65.929688 671.1875 C 65.929688 718.675781 104.558594 757.308594 152.039062 757.308594 L 449.03125 757.308594 C 488.199219 757.308594 520.0625 725.441406 520.0625 686.269531 C 520.0625 647.101562 488.199219 615.234375 449.03125 615.234375 L 261.097656 615.234375 L 513.335938 229.046875 C 523.347656 213.714844 528.640625 195.9375 528.640625 177.636719 C 528.640625 125.800781 486.472656 83.628906 434.640625 83.628906 Z M 434.640625 83.628906 " fill-opacity="1" fill-rule="nonzero"/></g><path fill="#58595b" d="M 464.953125 156.210938 L 452.5625 156.210938 L 452.5625 153.113281 L 464.953125 153.113281 Z M 440.171875 156.210938 L 427.78125 156.210938 L 427.78125 153.113281 L 440.171875 153.113281 Z M 415.390625 156.210938 L 403 156.210938 L 403 153.113281 L 415.390625 153.113281 Z M 390.609375 156.210938 L 378.21875 156.210938 L 378.21875 153.113281 L 390.609375 153.113281 Z M 365.828125 156.210938 L 353.4375 156.210938 L 353.4375 153.113281 L 365.828125 153.113281 Z M 341.046875 156.210938 L 328.65625 156.210938 L 328.65625 153.113281 L 341.046875 153.113281 Z M 316.265625 156.210938 L 303.875 156.210938 L 303.875 153.113281 L 316.265625 153.113281 Z M 291.484375 156.210938 L 279.09375 156.210938 L 279.09375 153.113281 L 291.484375 153.113281 Z M 266.703125 156.210938 L 254.3125 156.210938 L 254.3125 153.113281 L 266.703125 153.113281 Z M 241.921875 156.210938 L 229.53125 156.210938 L 229.53125 153.113281 L 241.921875 153.113281 Z M 217.140625 156.210938 L 204.75 156.210938 L 204.75 153.113281 L 217.140625 153.113281 Z M 192.359375 156.210938 L 179.96875 156.210938 L 179.96875 153.113281 L 192.359375 153.113281 Z M 167.578125 156.210938 L 155.1875 156.210938 L 155.1875 153.113281 L 167.578125 153.113281 Z M 142.796875 156.210938 L 137.253906 156.210938 L 137.253906 153.113281 L 142.796875 153.113281 Z M 142.796875 156.210938 " fill-opacity="1" fill-rule="nonzero"/><path fill="#58595b" d="M 168.285156 627.148438 L 165.691406 625.453125 L 172.464844 615.078125 L 175.0625 616.773438 Z M 181.835938 606.398438 L 179.242188 604.703125 L 186.015625 594.328125 L 188.609375 596.023438 Z M 195.386719 585.648438 L 192.792969 583.953125 L 199.566406 573.578125 L 202.160156 575.273438 Z M 208.9375 564.894531 L 206.339844 563.203125 L 213.117188 552.828125 L 215.710938 554.519531 Z M 222.488281 544.144531 L 219.890625 542.453125 L 226.667969 532.078125 L 229.261719 533.769531 Z M 236.035156 523.394531 L 233.441406 521.699219 L 240.21875 511.324219 L 242.8125 513.019531 Z M 249.585938 502.644531 L 246.992188 500.949219 L 253.765625 490.574219 L 256.363281 492.269531 Z M 263.136719 481.894531 L 260.542969 480.199219 L 267.316406 469.824219 L 269.910156 471.519531 Z M 276.6875 461.144531 L 274.09375 459.449219 L 280.867188 449.074219 L 283.460938 450.769531 Z M 290.238281 440.394531 L 287.640625 438.699219 L 294.417969 428.324219 L 297.011719 430.019531 Z M 303.789062 419.640625 L 301.191406 417.949219 L 307.96875 407.574219 L 310.5625 409.265625 Z M 317.339844 398.890625 L 314.742188 397.199219 L 321.519531 386.824219 L 324.113281 388.515625 Z M 330.886719 378.140625 L 328.292969 376.445312 L 335.070312 366.070312 L 337.664062 367.765625 Z M 344.4375 357.390625 L 341.84375 355.695312 L 348.621094 345.320312 L 351.214844 347.015625 Z M 357.988281 336.640625 L 355.394531 334.945312 L 362.167969 324.570312 L 364.761719 326.265625 Z M 371.539062 315.890625 L 368.945312 314.195312 L 375.71875 303.820312 L 378.3125 305.515625 Z M 385.089844 295.140625 L 382.496094 293.445312 L 389.269531 283.070312 L 391.863281 284.765625 Z M 398.640625 274.390625 L 396.042969 272.695312 L 402.820312 262.320312 L 405.414062 264.015625 Z M 412.1875 253.636719 L 409.59375 251.945312 L 416.371094 241.570312 L 418.964844 243.261719 Z M 425.738281 232.886719 L 423.144531 231.195312 L 429.921875 220.820312 L 432.515625 222.511719 Z M 439.289062 212.136719 L 436.695312 210.441406 L 443.46875 200.066406 L 446.066406 201.761719 Z M 439.289062 212.136719 " fill-opacity="1" fill-rule="nonzero"/><path fill="#58595b" d="M 479.59375 154.664062 L 457.632812 141.984375 L 457.632812 167.34375 Z M 479.59375 154.664062 " fill-opacity="1" fill-rule="nonzero"/><path fill="#414042" d="M 178.480469 153.726562 C 178.480469 154.746094 178.433594 155.765625 178.332031 156.78125 C 178.230469 157.796875 178.082031 158.804688 177.882812 159.804688 C 177.683594 160.804688 177.4375 161.792969 177.140625 162.769531 C 176.84375 163.746094 176.503906 164.703125 176.113281 165.644531 C 175.722656 166.589844 175.285156 167.507812 174.804688 168.410156 C 174.324219 169.308594 173.800781 170.183594 173.234375 171.03125 C 172.667969 171.878906 172.058594 172.695312 171.414062 173.484375 C 170.765625 174.273438 170.082031 175.027344 169.359375 175.75 C 168.640625 176.472656 167.886719 177.15625 167.097656 177.800781 C 166.308594 178.449219 165.492188 179.054688 164.640625 179.621094 C 163.792969 180.191406 162.921875 180.714844 162.019531 181.195312 C 161.121094 181.675781 160.199219 182.109375 159.257812 182.5 C 158.316406 182.890625 157.355469 183.234375 156.382812 183.53125 C 155.40625 183.828125 154.417969 184.074219 153.417969 184.273438 C 152.417969 184.472656 151.410156 184.621094 150.394531 184.722656 C 149.378906 184.820312 148.363281 184.871094 147.339844 184.871094 C 146.320312 184.871094 145.304688 184.820312 144.289062 184.722656 C 143.273438 184.621094 142.265625 184.472656 141.265625 184.273438 C 140.265625 184.074219 139.277344 183.828125 138.300781 183.53125 C 137.324219 183.234375 136.367188 182.890625 135.425781 182.5 C 134.480469 182.109375 133.5625 181.675781 132.660156 181.195312 C 131.761719 180.714844 130.890625 180.191406 130.039062 179.621094 C 129.191406 179.054688 128.375 178.449219 127.585938 177.800781 C 126.796875 177.15625 126.042969 176.472656 125.320312 175.75 C 124.601562 175.027344 123.917969 174.273438 123.269531 173.484375 C 122.621094 172.695312 122.015625 171.878906 121.449219 171.03125 C 120.882812 170.183594 120.359375 169.308594 119.878906 168.410156 C 119.398438 167.507812 118.960938 166.589844 118.570312 165.644531 C 118.179688 164.703125 117.835938 163.746094 117.542969 162.769531 C 117.246094 161.792969 117 160.804688 116.800781 159.804688 C 116.601562 158.804688 116.449219 157.796875 116.351562 156.78125 C 116.25 155.765625 116.199219 154.746094 116.199219 153.726562 C 116.199219 152.707031 116.25 151.691406 116.351562 150.675781 C 116.449219 149.660156 116.601562 148.652344 116.800781 147.652344 C 117 146.652344 117.246094 145.664062 117.542969 144.6875 C 117.835938 143.710938 118.179688 142.75 118.570312 141.808594 C 118.960938 140.867188 119.398438 139.945312 119.878906 139.046875 C 120.359375 138.148438 120.882812 137.273438 121.449219 136.425781 C 122.015625 135.578125 122.621094 134.757812 123.269531 133.96875 C 123.917969 133.183594 124.601562 132.425781 125.320312 131.707031 C 126.042969 130.984375 126.796875 130.300781 127.585938 129.652344 C 128.375 129.007812 129.191406 128.398438 130.039062 127.832031 C 130.890625 127.265625 131.761719 126.742188 132.660156 126.261719 C 133.5625 125.78125 134.480469 125.34375 135.425781 124.953125 C 136.367188 124.5625 137.324219 124.222656 138.300781 123.925781 C 139.277344 123.628906 140.265625 123.382812 141.265625 123.183594 C 142.265625 122.984375 143.273438 122.832031 144.289062 122.734375 C 145.304688 122.632812 146.320312 122.585938 147.339844 122.585938 C 148.363281 122.585938 149.378906 122.632812 150.394531 122.734375 C 151.410156 122.832031 152.417969 122.984375 153.417969 123.183594 C 154.417969 123.382812 155.40625 123.628906 156.382812 123.925781 C 157.355469 124.222656 158.316406 124.5625 159.257812 124.953125 C 160.199219 125.34375 161.121094 125.78125 162.019531 126.261719 C 162.921875 126.742188 163.792969 127.265625 164.640625 127.832031 C 165.492188 128.398438 166.308594 129.007812 167.097656 129.652344 C 167.886719 130.300781 168.640625 130.984375 169.359375 131.707031 C 170.082031 132.425781 170.765625 133.183594 171.414062 133.96875 C 172.058594 134.757812 172.667969 135.578125 173.234375 136.425781 C 173.800781 137.273438 174.324219 138.148438 174.804688 139.046875 C 175.285156 139.945312 175.722656 140.867188 176.113281 141.808594 C 176.503906 142.75 176.84375 143.710938 177.140625 144.6875 C 177.4375 145.664062 177.683594 146.652344 177.882812 147.652344 C 178.082031 148.652344 178.230469 149.660156 178.332031 150.675781 C 178.433594 151.691406 178.480469 152.707031 178.480469 153.726562 Z M 178.480469 153.726562 " fill-opacity="1" fill-rule="nonzero"/><path fill="#fcfcfc" d="M 150.945312 132.40625 L 146.949219 132.40625 C 146.496094 132.40625 146.066406 132.605469 145.769531 132.949219 L 133.996094 146.722656 C 133.476562 147.339844 133.503906 148.253906 134.078125 148.828125 L 136.320312 151.0625 C 136.921875 151.667969 137.898438 151.667969 138.503906 151.070312 L 145.398438 144.257812 L 145.398438 174.101562 C 145.398438 174.957031 146.09375 175.652344 146.949219 175.652344 L 150.945312 175.652344 C 151.800781 175.652344 152.496094 174.957031 152.496094 174.101562 L 152.496094 133.953125 C 152.496094 133.101562 151.800781 132.40625 150.945312 132.40625 Z M 150.945312 132.40625 " fill-opacity="1" fill-rule="nonzero"/><path fill="#414042" d="M 472.386719 200.914062 C 472.386719 201.933594 472.335938 202.953125 472.238281 203.96875 C 472.136719 204.984375 471.988281 205.992188 471.789062 206.992188 C 471.589844 207.992188 471.34375 208.980469 471.046875 209.957031 C 470.75 210.929688 470.40625 211.890625 470.015625 212.832031 C 469.625 213.777344 469.191406 214.695312 468.710938 215.597656 C 468.230469 216.496094 467.707031 217.371094 467.136719 218.21875 C 466.570312 219.066406 465.964844 219.882812 465.316406 220.671875 C 464.671875 221.460938 463.988281 222.214844 463.265625 222.9375 C 462.542969 223.65625 461.789062 224.34375 461 224.988281 C 460.214844 225.636719 459.394531 226.242188 458.546875 226.808594 C 457.699219 227.375 456.824219 227.902344 455.925781 228.382812 C 455.027344 228.863281 454.105469 229.296875 453.164062 229.6875 C 452.222656 230.078125 451.261719 230.421875 450.285156 230.71875 C 449.308594 231.015625 448.320312 231.261719 447.320312 231.460938 C 446.320312 231.660156 445.3125 231.808594 444.296875 231.910156 C 443.285156 232.007812 442.265625 232.058594 441.246094 232.058594 C 440.226562 232.058594 439.207031 232.007812 438.195312 231.910156 C 437.179688 231.808594 436.171875 231.660156 435.171875 231.460938 C 434.171875 231.261719 433.183594 231.015625 432.207031 230.71875 C 431.230469 230.421875 430.269531 230.078125 429.328125 229.6875 C 428.386719 229.296875 427.464844 228.863281 426.566406 228.382812 C 425.667969 227.902344 424.792969 227.375 423.945312 226.808594 C 423.097656 226.242188 422.277344 225.636719 421.492188 224.988281 C 420.703125 224.34375 419.949219 223.65625 419.226562 222.9375 C 418.503906 222.214844 417.820312 221.460938 417.175781 220.671875 C 416.527344 219.882812 415.921875 219.066406 415.355469 218.21875 C 414.785156 217.371094 414.261719 216.496094 413.78125 215.597656 C 413.300781 214.695312 412.867188 213.777344 412.476562 212.832031 C 412.085938 211.890625 411.742188 210.929688 411.445312 209.957031 C 411.148438 208.980469 410.902344 207.992188 410.703125 206.992188 C 410.503906 205.992188 410.355469 204.984375 410.253906 203.96875 C 410.15625 202.953125 410.105469 201.933594 410.105469 200.914062 C 410.105469 199.894531 410.15625 198.878906 410.253906 197.863281 C 410.355469 196.847656 410.503906 195.839844 410.703125 194.839844 C 410.902344 193.839844 411.148438 192.851562 411.445312 191.875 C 411.742188 190.898438 412.085938 189.9375 412.476562 188.996094 C 412.867188 188.054688 413.300781 187.132812 413.78125 186.234375 C 414.261719 185.335938 414.785156 184.460938 415.355469 183.613281 C 415.921875 182.765625 416.527344 181.945312 417.175781 181.15625 C 417.820312 180.367188 418.503906 179.613281 419.226562 178.894531 C 419.949219 178.171875 420.703125 177.488281 421.492188 176.839844 C 422.277344 176.195312 423.097656 175.585938 423.945312 175.019531 C 424.792969 174.453125 425.667969 173.929688 426.566406 173.449219 C 427.464844 172.96875 428.386719 172.53125 429.328125 172.140625 C 430.269531 171.75 431.230469 171.410156 432.207031 171.113281 C 433.183594 170.816406 434.171875 170.570312 435.171875 170.371094 C 436.171875 170.171875 437.179688 170.019531 438.195312 169.921875 C 439.207031 169.820312 440.226562 169.769531 441.246094 169.769531 C 442.265625 169.769531 443.285156 169.820312 444.296875 169.921875 C 445.3125 170.019531 446.320312 170.171875 447.320312 170.371094 C 448.320312 170.570312 449.308594 170.816406 450.285156 171.113281 C 451.261719 171.410156 452.222656 171.75 453.164062 172.140625 C 454.105469 172.53125 455.027344 172.96875 455.925781 173.449219 C 456.824219 173.929688 457.699219 174.453125 458.546875 175.019531 C 459.394531 175.585938 460.214844 176.195312 461 176.839844 C 461.789062 177.488281 462.542969 178.171875 463.265625 178.894531 C 463.988281 179.613281 464.671875 180.367188 465.316406 181.15625 C 465.964844 181.945312 466.570312 182.765625 467.136719 183.613281 C 467.707031 184.460938 468.230469 185.335938 468.710938 186.234375 C 469.191406 187.132812 469.625 188.054688 470.015625 188.996094 C 470.40625 189.9375 470.75 190.898438 471.046875 191.875 C 471.34375 192.851562 471.589844 193.839844 471.789062 194.839844 C 471.988281 195.839844 472.136719 196.847656 472.238281 197.863281 C 472.335938 198.878906 472.386719 199.894531 472.386719 200.914062 Z M 472.386719 200.914062 " fill-opacity="1" fill-rule="nonzero"/><path fill="#fcfcfc" d="M 453.726562 215.734375 L 436.214844 215.734375 C 436.445312 215.3125 436.753906 214.878906 437.160156 214.4375 C 438.261719 213.21875 440.027344 211.609375 442.410156 209.648438 L 442.382812 209.617188 C 442.746094 209.367188 443.144531 209.027344 443.597656 208.636719 C 446.972656 205.78125 449.671875 202.976562 451.621094 200.300781 C 453.6875 197.460938 454.742188 194.179688 454.742188 190.5625 C 454.742188 186.980469 453.519531 184.066406 451.109375 181.902344 C 448.746094 179.785156 445.582031 178.710938 441.714844 178.710938 C 439.003906 178.710938 436.355469 179.386719 433.835938 180.71875 C 431.351562 182.035156 429.222656 183.894531 427.515625 186.234375 C 427.039062 186.890625 427.144531 187.796875 427.761719 188.324219 L 431 191.089844 C 431.320312 191.367188 431.730469 191.507812 432.179688 191.453125 C 432.601562 191.402344 432.988281 191.183594 433.242188 190.835938 C 434.488281 189.164062 435.839844 187.882812 437.253906 187.027344 C 439.972656 185.378906 443.757812 185.386719 445.707031 187.144531 C 446.652344 188 447.109375 189.117188 447.109375 190.5625 C 447.109375 192.980469 446.507812 195.042969 445.257812 196.871094 C 443.941406 198.816406 442.035156 200.855469 439.558594 202.953125 C 439.425781 203.066406 438.785156 203.597656 437.613281 204.550781 C 435.578125 206.226562 433.921875 207.695312 432.679688 208.910156 C 431.398438 210.175781 430.308594 211.625 429.4375 213.214844 C 428.511719 214.914062 428.039062 216.78125 428.039062 218.753906 L 428.039062 221.289062 C 428.039062 222.140625 428.734375 222.835938 429.589844 222.835938 L 453.722656 222.835938 C 454.574219 222.835938 455.273438 222.140625 455.273438 221.289062 L 455.273438 217.28125 C 455.273438 216.429688 454.578125 215.734375 453.726562 215.734375 Z M 453.726562 215.734375 " fill-opacity="1" fill-rule="nonzero"/><path fill="#58595b" d="M 462.683594 690.894531 L 450.292969 690.894531 L 450.292969 687.792969 L 462.683594 687.792969 Z M 437.902344 690.894531 L 425.511719 690.894531 L 425.511719 687.792969 L 437.902344 687.792969 Z M 413.121094 690.894531 L 400.730469 690.894531 L 400.730469 687.792969 L 413.121094 687.792969 Z M 388.339844 690.894531 L 375.949219 690.894531 L 375.949219 687.792969 L 388.339844 687.792969 Z M 363.558594 690.894531 L 351.167969 690.894531 L 351.167969 687.792969 L 363.558594 687.792969 Z M 338.777344 690.894531 L 326.386719 690.894531 L 326.386719 687.792969 L 338.777344 687.792969 Z M 313.996094 690.894531 L 301.605469 690.894531 L 301.605469 687.792969 L 313.996094 687.792969 Z M 289.214844 690.894531 L 276.824219 690.894531 L 276.824219 687.792969 L 289.214844 687.792969 Z M 264.433594 690.894531 L 252.042969 690.894531 L 252.042969 687.792969 L 264.433594 687.792969 Z M 239.652344 690.894531 L 227.261719 690.894531 L 227.261719 687.792969 L 239.652344 687.792969 Z M 214.871094 690.894531 L 202.480469 690.894531 L 202.480469 687.792969 L 214.871094 687.792969 Z M 190.089844 690.894531 L 177.699219 690.894531 L 177.699219 687.792969 L 190.089844 687.792969 Z M 165.308594 690.894531 L 152.917969 690.894531 L 152.917969 687.792969 L 165.308594 687.792969 Z M 140.527344 690.894531 L 128.136719 690.894531 L 128.136719 687.792969 L 140.527344 687.792969 Z M 140.527344 690.894531 " fill-opacity="1" fill-rule="nonzero"/><path fill="#58595b" d="M 475.59375 689.34375 L 453.632812 676.664062 L 453.632812 702.023438 Z M 475.59375 689.34375 " fill-opacity="1" fill-rule="nonzero"/><path fill="#58595b" d="M 175.25 636.261719 L 153.289062 623.582031 L 153.289062 648.941406 Z M 175.25 636.261719 " fill-opacity="1" fill-rule="nonzero"/><path fill="#414042" d="M 174.589844 688.410156 C 174.589844 689.429688 174.539062 690.445312 174.441406 691.460938 C 174.339844 692.476562 174.191406 693.484375 173.992188 694.484375 C 173.792969 695.484375 173.546875 696.472656 173.25 697.449219 C 172.953125 698.425781 172.609375 699.382812 172.21875 700.328125 C 171.828125 701.269531 171.394531 702.191406 170.914062 703.089844 C 170.433594 703.988281 169.910156 704.863281 169.339844 705.710938 C 168.773438 706.558594 168.167969 707.378906 167.519531 708.164062 C 166.875 708.953125 166.191406 709.707031 165.46875 710.429688 C 164.746094 711.152344 163.992188 711.835938 163.203125 712.484375 C 162.417969 713.128906 161.597656 713.738281 160.75 714.304688 C 159.902344 714.871094 159.027344 715.394531 158.128906 715.875 C 157.230469 716.355469 156.308594 716.789062 155.367188 717.179688 C 154.425781 717.570312 153.464844 717.914062 152.488281 718.210938 C 151.511719 718.507812 150.523438 718.753906 149.523438 718.953125 C 148.523438 719.152344 147.515625 719.300781 146.5 719.402344 C 145.488281 719.503906 144.46875 719.550781 143.449219 719.550781 C 142.429688 719.550781 141.410156 719.503906 140.398438 719.402344 C 139.382812 719.300781 138.375 719.152344 137.375 718.953125 C 136.375 718.753906 135.386719 718.507812 134.410156 718.210938 C 133.433594 717.914062 132.472656 717.570312 131.53125 717.179688 C 130.589844 716.789062 129.667969 716.355469 128.769531 715.875 C 127.871094 715.394531 126.996094 714.871094 126.148438 714.304688 C 125.300781 713.738281 124.480469 713.128906 123.695312 712.484375 C 122.90625 711.835938 122.152344 711.152344 121.429688 710.429688 C 120.707031 709.707031 120.023438 708.953125 119.378906 708.164062 C 118.730469 707.378906 118.125 706.558594 117.558594 705.710938 C 116.988281 704.863281 116.464844 703.988281 115.984375 703.089844 C 115.503906 702.191406 115.070312 701.269531 114.679688 700.328125 C 114.289062 699.382812 113.945312 698.425781 113.648438 697.449219 C 113.351562 696.472656 113.105469 695.484375 112.90625 694.484375 C 112.707031 693.484375 112.558594 692.476562 112.457031 691.460938 C 112.359375 690.445312 112.308594 689.429688 112.308594 688.410156 C 112.308594 687.386719 112.359375 686.371094 112.457031 685.355469 C 112.558594 684.339844 112.707031 683.332031 112.90625 682.332031 C 113.105469 681.332031 113.351562 680.34375 113.648438 679.367188 C 113.945312 678.390625 114.289062 677.433594 114.679688 676.488281 C 115.070312 675.546875 115.503906 674.625 115.984375 673.726562 C 116.464844 672.828125 116.988281 671.953125 117.558594 671.105469 C 118.125 670.257812 118.730469 669.4375 119.378906 668.652344 C 120.023438 667.863281 120.707031 667.109375 121.429688 666.386719 C 122.152344 665.664062 122.90625 664.980469 123.695312 664.332031 C 124.480469 663.6875 125.300781 663.078125 126.148438 662.511719 C 126.996094 661.945312 127.871094 661.421875 128.769531 660.941406 C 129.667969 660.460938 130.589844 660.027344 131.53125 659.636719 C 132.472656 659.246094 133.433594 658.902344 134.410156 658.605469 C 135.386719 658.308594 136.375 658.0625 137.375 657.863281 C 138.375 657.664062 139.382812 657.515625 140.398438 657.414062 C 141.410156 657.316406 142.429688 657.265625 143.449219 657.265625 C 144.46875 657.265625 145.488281 657.316406 146.5 657.414062 C 147.515625 657.515625 148.523438 657.664062 149.523438 657.863281 C 150.523438 658.0625 151.511719 658.308594 152.488281 658.605469 C 153.464844 658.902344 154.425781 659.246094 155.367188 659.636719 C 156.308594 660.027344 157.230469 660.460938 158.128906 660.941406 C 159.027344 661.421875 159.902344 661.945312 160.75 662.511719 C 161.597656 663.078125 162.417969 663.6875 163.203125 664.332031 C 163.992188 664.980469 164.746094 665.664062 165.46875 666.386719 C 166.191406 667.109375 166.875 667.863281 167.519531 668.652344 C 168.167969 669.4375 168.773438 670.257812 169.339844 671.105469 C 169.910156 671.953125 170.433594 672.828125 170.914062 673.726562 C 171.394531 674.625 171.828125 675.546875 172.21875 676.488281 C 172.609375 677.433594 172.953125 678.390625 173.25 679.367188 C 173.546875 680.34375 173.792969 681.332031 173.992188 682.332031 C 174.191406 683.332031 174.339844 684.339844 174.441406 685.355469 C 174.539062 686.371094 174.589844 687.386719 174.589844 688.410156 Z M 174.589844 688.410156 " fill-opacity="1" fill-rule="nonzero"/><path fill="#fcfcfc" d="M 155.660156 690.34375 C 154.765625 689.074219 153.6875 688.039062 152.453125 687.246094 C 153.300781 686.546875 154.027344 685.703125 154.625 684.722656 C 155.773438 682.863281 156.355469 680.699219 156.355469 678.289062 C 156.355469 675.984375 155.820312 673.890625 154.761719 672.066406 C 153.699219 670.234375 152.199219 668.78125 150.3125 667.75 C 148.441406 666.722656 146.3125 666.207031 143.976562 666.207031 C 140.910156 666.207031 138.167969 667.066406 135.832031 668.769531 C 133.53125 670.433594 131.734375 672.71875 130.496094 675.546875 C 130.167969 676.285156 130.464844 677.144531 131.167969 677.53125 L 134.402344 679.296875 C 134.777344 679.5 135.214844 679.539062 135.613281 679.410156 C 136.019531 679.285156 136.351562 679 136.539062 678.621094 C 137.453125 676.757812 138.535156 675.320312 139.757812 674.355469 C 140.902344 673.453125 142.28125 673.011719 143.972656 673.011719 C 145.476562 673.011719 146.660156 673.484375 147.597656 674.457031 C 148.554688 675.4375 149.019531 676.691406 149.019531 678.289062 C 149.019531 680.097656 148.519531 681.519531 147.488281 682.621094 C 146.496094 683.695312 145.171875 684.21875 143.449219 684.21875 L 140.859375 684.21875 C 140.007812 684.21875 139.3125 684.914062 139.3125 685.765625 L 139.3125 689.414062 C 139.3125 690.269531 140.007812 690.964844 140.859375 690.964844 L 143.6875 690.964844 C 145.707031 690.964844 147.308594 691.585938 148.59375 692.863281 C 149.871094 694.144531 150.492188 695.753906 150.492188 697.773438 C 150.492188 699.714844 149.882812 701.261719 148.628906 702.496094 C 147.363281 703.742188 145.828125 704.347656 143.921875 704.347656 C 142.300781 704.347656 140.929688 703.886719 139.722656 702.945312 C 138.460938 701.945312 137.386719 700.535156 136.554688 698.765625 C 136.367188 698.371094 136.019531 698.074219 135.609375 697.945312 C 135.199219 697.8125 134.75 697.863281 134.367188 698.085938 L 130.835938 700.148438 C 130.171875 700.535156 129.890625 701.355469 130.183594 702.066406 C 131.3125 704.84375 133.054688 707.09375 135.367188 708.746094 C 137.707031 710.421875 140.519531 711.273438 143.738281 711.273438 C 146.300781 711.273438 148.6875 710.699219 150.847656 709.5625 C 153.03125 708.417969 154.78125 706.792969 156.046875 704.734375 C 157.304688 702.664062 157.945312 700.324219 157.945312 697.773438 C 157.945312 694.984375 157.179688 692.480469 155.660156 690.34375 Z M 155.660156 690.34375 " fill-opacity="1" fill-rule="nonzero"/></svg>